<svg width="1312" height="48" viewBox="0 0 1312 48" fill="none" xmlns="http://www.w3.org/2000/svg">
<path d="M12.45 18.2251H9.15L9.125 13.6251H5.1L3.125 18.2251H0L7.975 0.725098H11.85L12.45 18.2251ZM6.4 10.7001H9.125L9.1 4.3001L6.4 10.7001Z" fill="white"/>
<path d="M26.5799 14.5251C26.4965 14.9418 26.4715 15.3001 26.5049 15.6001C26.5549 15.9001 26.6716 16.1501 26.8549 16.3501C27.0549 16.5334 27.3299 16.6918 27.6799 16.8251L26.0799 18.7251C25.6132 18.5918 25.2049 18.4168 24.8549 18.2001C24.5215 17.9668 24.2549 17.6918 24.0549 17.3751C23.8549 17.0418 23.7299 16.6668 23.6799 16.2501C23.6299 15.8334 23.6549 15.3834 23.7549 14.9001L25.1549 8.3001H22.8299L23.3799 5.7001H30.9549L30.4049 8.3001H27.9049L26.5799 14.5251Z" fill="white"/>
<path d="M31.1137 23.4501L33.9637 18.2251L32.0887 5.7001H34.7387L36.0387 14.5001L40.7887 5.7001H43.4387L33.8137 23.4501H31.1137Z" fill="white"/>
<path d="M48.0154 14.5251C47.9321 14.9418 47.9071 15.3001 47.9404 15.6001C47.9904 15.9001 48.1071 16.1501 48.2904 16.3501C48.4904 16.5334 48.7654 16.6918 49.1154 16.8251L47.5154 18.7251C47.0488 18.5918 46.6404 18.4168 46.2904 18.2001C45.9571 17.9668 45.6904 17.6918 45.4904 17.3751C45.2904 17.0418 45.1654 16.6668 45.1154 16.2501C45.0654 15.8334 45.0904 15.3834 45.1904 14.9001L46.5904 8.3001H44.2654L44.8154 5.7001H52.3904L51.8404 8.3001H49.3404L48.0154 14.5251Z" fill="white"/>
<path d="M68.4811 13.6001C68.1811 15.0668 67.5561 16.2501 66.6061 17.1501C65.6727 18.0334 64.4394 18.4751 62.9061 18.4751C61.8061 18.4751 60.9561 18.2501 60.3561 17.8001C59.7727 17.3334 59.3977 16.7334 59.2311 16.0001C59.0644 15.2501 59.0644 14.4501 59.2311 13.6001L59.9561 10.3001C60.1894 9.23343 60.5561 8.34177 61.0561 7.6251C61.5727 6.90843 62.2144 6.36677 62.9811 6.0001C63.7644 5.61676 64.6644 5.4251 65.6811 5.4251C67.1311 5.4251 68.1644 5.85843 68.7811 6.7251C69.3977 7.5751 69.5394 8.76676 69.2061 10.3001L68.4811 13.6001ZM66.4061 10.1501C66.4894 9.7501 66.4977 9.40843 66.4311 9.1251C66.3644 8.8251 66.2144 8.6001 65.9811 8.4501C65.7644 8.28343 65.4561 8.2001 65.0561 8.2001C64.6561 8.2001 64.2977 8.2751 63.9811 8.4251C63.6811 8.5751 63.4227 8.79176 63.2061 9.0751C63.0061 9.35843 62.8561 9.71677 62.7561 10.1501L61.9811 13.8001C61.9144 14.1334 61.9144 14.4501 61.9811 14.7501C62.0477 15.0501 62.1977 15.2918 62.4311 15.4751C62.6644 15.6584 63.0061 15.7501 63.4561 15.7501C63.8727 15.7501 64.2227 15.6668 64.5061 15.5001C64.8061 15.3334 65.0477 15.1001 65.2311 14.8001C65.4144 14.5001 65.5477 14.1668 65.6311 13.8001L66.4061 10.1501Z" fill="white"/>
<path d="M74.8465 14.5251C74.7631 14.9418 74.7382 15.3001 74.7715 15.6001C74.8215 15.9001 74.9381 16.1501 75.1215 16.3501C75.3215 16.5334 75.5965 16.6918 75.9465 16.8251L74.3465 18.7251C73.8798 18.5918 73.4715 18.4168 73.1215 18.2001C72.7881 17.9668 72.5215 17.6918 72.3215 17.3751C72.1215 17.0418 71.9965 16.6668 71.9465 16.2501C71.8965 15.8334 71.9215 15.3834 72.0215 14.9001L73.4215 8.3001H71.0965L71.6465 5.7001H79.2215L78.6715 8.3001H76.1715L74.8465 14.5251Z" fill="white"/>
<path d="M87.6053 11.3001C88.0553 11.6334 88.3553 12.0834 88.5053 12.6501C88.6719 13.2168 88.6886 13.8334 88.5553 14.5001C88.4219 15.1501 88.1303 15.7834 87.6803 16.4001C87.2303 17.0001 86.6386 17.5001 85.9053 17.9001C85.1719 18.3001 84.3053 18.5001 83.3053 18.5001C82.9886 18.5001 82.6136 18.4918 82.1803 18.4751C81.7469 18.4584 81.2969 18.4334 80.8303 18.4001C80.3636 18.3668 79.9303 18.3334 79.5303 18.3001C79.1303 18.2834 78.8053 18.2668 78.5553 18.2501C78.3053 18.2334 78.1803 18.2251 78.1803 18.2251L80.8303 5.7001C80.8303 5.7001 80.9386 5.69176 81.1553 5.6751C81.3886 5.64177 81.7136 5.60843 82.1303 5.5751C82.5636 5.5251 83.0719 5.49177 83.6553 5.4751C84.2386 5.44176 84.8886 5.4251 85.6053 5.4251C86.1053 5.4251 86.5886 5.48343 87.0553 5.6001C87.5219 5.71677 87.9303 5.89176 88.2803 6.1251C88.6469 6.35843 88.9219 6.66677 89.1053 7.0501C89.3053 7.41677 89.3886 7.86677 89.3553 8.4001C89.3219 8.91677 89.1386 9.4501 88.8053 10.0001C88.4886 10.5334 88.0886 10.9668 87.6053 11.3001ZM85.1553 7.8501C85.0053 7.8501 84.8469 7.8501 84.6803 7.8501C84.5136 7.8501 84.3386 7.85843 84.1553 7.8751C83.9886 7.8751 83.8136 7.88343 83.6303 7.9001C83.4636 7.9001 83.2969 7.9001 83.1303 7.9001L82.5303 10.6751H83.8053C84.4053 10.6751 84.8886 10.6001 85.2553 10.4501C85.6219 10.3001 85.8969 10.1084 86.0803 9.8751C86.2803 9.64176 86.4053 9.40843 86.4553 9.1751C86.5053 8.95843 86.4969 8.7751 86.4303 8.6251C86.3636 8.45843 86.2636 8.31676 86.1303 8.2001C86.0136 8.08343 85.8636 8.0001 85.6803 7.9501C85.5136 7.88343 85.3386 7.8501 85.1553 7.8501ZM83.4303 15.6751C83.8136 15.6751 84.1719 15.6334 84.5053 15.5501C84.8386 15.4668 85.1219 15.3334 85.3553 15.1501C85.5886 14.9501 85.7386 14.6918 85.8053 14.3751C85.8553 14.1751 85.8469 13.9918 85.7803 13.8251C85.7303 13.6584 85.6303 13.5251 85.4803 13.4251C85.3469 13.3084 85.1719 13.2251 84.9553 13.1751C84.7553 13.1084 84.5303 13.0751 84.2803 13.0751H82.0303L81.4803 15.6251C81.6636 15.6251 81.8469 15.6334 82.0303 15.6501C82.2136 15.6501 82.3886 15.6584 82.5553 15.6751C82.7219 15.6751 82.8803 15.6751 83.0303 15.6751C83.1803 15.6751 83.3136 15.6751 83.4303 15.6751Z" fill="white"/>
<path d="M92.9113 14.5001C92.8613 14.7168 92.853 14.9168 92.8863 15.1001C92.9197 15.2668 92.978 15.4168 93.0613 15.5501C93.1613 15.6834 93.2947 15.7834 93.4613 15.8501C93.628 15.9168 93.8197 15.9501 94.0363 15.9501C94.4863 15.9501 95.0197 15.8501 95.6363 15.6501C96.253 15.4501 96.853 15.2168 97.4363 14.9501L97.9363 17.3501C97.2697 17.7168 96.5363 18.0084 95.7363 18.2251C94.9363 18.4418 94.1613 18.5501 93.4113 18.5501C92.828 18.5501 92.2947 18.4751 91.8113 18.3251C91.3447 18.1751 90.953 17.9501 90.6363 17.6501C90.3363 17.3501 90.128 16.9668 90.0113 16.5001C89.9113 16.0334 89.928 15.4834 90.0613 14.8501L91.1613 9.7251C91.3613 8.80843 91.7113 8.03343 92.2113 7.4001C92.728 6.76677 93.353 6.28343 94.0863 5.9501C94.8363 5.61676 95.6613 5.4501 96.5613 5.4501C97.4613 5.4501 98.2113 5.60843 98.8113 5.9251C99.428 6.24176 99.8613 6.70843 100.111 7.3251C100.361 7.94177 100.386 8.71676 100.186 9.6501L99.3613 13.5501L93.0613 13.8751L92.9113 14.5001ZM97.2613 10.4001C97.328 10.0501 97.3613 9.69177 97.3613 9.3251C97.3613 8.95843 97.2697 8.65843 97.0863 8.4251C96.9197 8.1751 96.5863 8.06677 96.0863 8.1001C95.5697 8.11677 95.1613 8.2251 94.8613 8.4251C94.578 8.60843 94.353 8.86677 94.1863 9.2001C94.0363 9.51677 93.903 9.90843 93.7863 10.3751L93.5863 11.3501L97.0863 11.1251L97.2613 10.4001Z" fill="white"/>
<path d="M105.706 14.5251C105.623 14.9418 105.598 15.3001 105.631 15.6001C105.681 15.9001 105.798 16.1501 105.981 16.3501C106.181 16.5334 106.456 16.6918 106.806 16.8251L105.206 18.7251C104.739 18.5918 104.331 18.4168 103.981 18.2001C103.648 17.9668 103.381 17.6918 103.181 17.3751C102.981 17.0418 102.856 16.6668 102.806 16.2501C102.756 15.8334 102.781 15.3834 102.881 14.9001L104.281 8.3001H101.956L102.506 5.7001H110.081L109.531 8.3001H107.031L105.706 14.5251Z" fill="white"/>
</svg>
