<svg width="1312" height="47" viewBox="0 0 1312 47" fill="none" xmlns="http://www.w3.org/2000/svg">
<path d="M12.45 17.6748H9.15L9.125 13.0748H5.1L3.125 17.6748H0L7.975 0.174805H11.85L12.45 17.6748ZM6.4 10.1498H9.125L9.1 3.7498L6.4 10.1498Z" fill="white"/>
<path d="M26.5799 13.9748C26.4965 14.3915 26.4715 14.7498 26.5049 15.0498C26.5549 15.3498 26.6716 15.5998 26.8549 15.7998C27.0549 15.9831 27.3299 16.1415 27.6799 16.2748L26.0799 18.1748C25.6132 18.0415 25.2049 17.8665 24.8549 17.6498C24.5215 17.4165 24.2549 17.1415 24.0549 16.8248C23.8549 16.4915 23.7299 16.1165 23.6799 15.6998C23.6299 15.2831 23.6549 14.8331 23.7549 14.3498L25.1549 7.74981H22.8299L23.3799 5.1498H30.9549L30.4049 7.74981H27.9049L26.5799 13.9748Z" fill="white"/>
<path d="M31.1137 22.8998L33.9637 17.6748L32.0887 5.1498H34.7387L36.0387 13.9498L40.7887 5.1498H43.4387L33.8137 22.8998H31.1137Z" fill="white"/>
<path d="M48.0154 13.9748C47.9321 14.3915 47.9071 14.7498 47.9404 15.0498C47.9904 15.3498 48.1071 15.5998 48.2904 15.7998C48.4904 15.9831 48.7654 16.1415 49.1154 16.2748L47.5154 18.1748C47.0488 18.0415 46.6404 17.8665 46.2904 17.6498C45.9571 17.4165 45.6904 17.1415 45.4904 16.8248C45.2904 16.4915 45.1654 16.1165 45.1154 15.6998C45.0654 15.2831 45.0904 14.8331 45.1904 14.3498L46.5904 7.74981H44.2654L44.8154 5.1498H52.3904L51.8404 7.74981H49.3404L48.0154 13.9748Z" fill="white"/>
<path d="M68.4811 13.0498C68.1811 14.5165 67.5561 15.6998 66.6061 16.5998C65.6727 17.4831 64.4394 17.9248 62.9061 17.9248C61.8061 17.9248 60.9561 17.6998 60.3561 17.2498C59.7727 16.7831 59.3977 16.1831 59.2311 15.4498C59.0644 14.6998 59.0644 13.8998 59.2311 13.0498L59.9561 9.74981C60.1894 8.68314 60.5561 7.79147 61.0561 7.07481C61.5727 6.35814 62.2144 5.81647 62.9811 5.44981C63.7644 5.06647 64.6644 4.87481 65.6811 4.87481C67.1311 4.87481 68.1644 5.30814 68.7811 6.17481C69.3977 7.02481 69.5394 8.21647 69.2061 9.74981L68.4811 13.0498ZM66.4061 9.59981C66.4894 9.19981 66.4977 8.85814 66.4311 8.57481C66.3644 8.27481 66.2144 8.04981 65.9811 7.89981C65.7644 7.73314 65.4561 7.64981 65.0561 7.64981C64.6561 7.64981 64.2977 7.72481 63.9811 7.87481C63.6811 8.02481 63.4227 8.24147 63.2061 8.52481C63.0061 8.80814 62.8561 9.16647 62.7561 9.59981L61.9811 13.2498C61.9144 13.5831 61.9144 13.8998 61.9811 14.1998C62.0477 14.4998 62.1977 14.7415 62.4311 14.9248C62.6644 15.1081 63.0061 15.1998 63.4561 15.1998C63.8727 15.1998 64.2227 15.1165 64.5061 14.9498C64.8061 14.7831 65.0477 14.5498 65.2311 14.2498C65.4144 13.9498 65.5477 13.6165 65.6311 13.2498L66.4061 9.59981Z" fill="white"/>
<path d="M74.8465 13.9748C74.7631 14.3915 74.7382 14.7498 74.7715 15.0498C74.8215 15.3498 74.9381 15.5998 75.1215 15.7998C75.3215 15.9831 75.5965 16.1415 75.9465 16.2748L74.3465 18.1748C73.8798 18.0415 73.4715 17.8665 73.1215 17.6498C72.7881 17.4165 72.5215 17.1415 72.3215 16.8248C72.1215 16.4915 71.9965 16.1165 71.9465 15.6998C71.8965 15.2831 71.9215 14.8331 72.0215 14.3498L73.4215 7.74981H71.0965L71.6465 5.1498H79.2215L78.6715 7.74981H76.1715L74.8465 13.9748Z" fill="white"/>
<path d="M87.6053 10.7498C88.0553 11.0831 88.3553 11.5331 88.5053 12.0998C88.6719 12.6665 88.6886 13.2831 88.5553 13.9498C88.4219 14.5998 88.1303 15.2331 87.6803 15.8498C87.2303 16.4498 86.6386 16.9498 85.9053 17.3498C85.1719 17.7498 84.3053 17.9498 83.3053 17.9498C82.9886 17.9498 82.6136 17.9415 82.1803 17.9248C81.7469 17.9081 81.2969 17.8831 80.8303 17.8498C80.3636 17.8165 79.9303 17.7831 79.5303 17.7498C79.1303 17.7331 78.8053 17.7165 78.5553 17.6998C78.3053 17.6831 78.1803 17.6748 78.1803 17.6748L80.8303 5.1498C80.8303 5.1498 80.9386 5.14147 81.1553 5.1248C81.3886 5.09147 81.7136 5.05814 82.1303 5.02481C82.5636 4.97481 83.0719 4.94147 83.6553 4.9248C84.2386 4.89147 84.8886 4.87481 85.6053 4.87481C86.1053 4.87481 86.5886 4.93314 87.0553 5.04981C87.5219 5.16647 87.9303 5.34147 88.2803 5.57481C88.6469 5.80814 88.9219 6.11647 89.1053 6.49981C89.3053 6.86647 89.3886 7.31647 89.3553 7.84981C89.3219 8.36647 89.1386 8.89981 88.8053 9.44981C88.4886 9.98314 88.0886 10.4165 87.6053 10.7498ZM85.1553 7.29981C85.0053 7.29981 84.8469 7.29981 84.6803 7.29981C84.5136 7.29981 84.3386 7.30814 84.1553 7.32481C83.9886 7.32481 83.8136 7.33314 83.6303 7.34981C83.4636 7.34981 83.2969 7.34981 83.1303 7.34981L82.5303 10.1248H83.8053C84.4053 10.1248 84.8886 10.0498 85.2553 9.89981C85.6219 9.74981 85.8969 9.55814 86.0803 9.32481C86.2803 9.09147 86.4053 8.85814 86.4553 8.62481C86.5053 8.40814 86.4969 8.22481 86.4303 8.07481C86.3636 7.90814 86.2636 7.76647 86.1303 7.64981C86.0136 7.53314 85.8636 7.44981 85.6803 7.39981C85.5136 7.33314 85.3386 7.29981 85.1553 7.29981ZM83.4303 15.1248C83.8136 15.1248 84.1719 15.0831 84.5053 14.9998C84.8386 14.9165 85.1219 14.7831 85.3553 14.5998C85.5886 14.3998 85.7386 14.1415 85.8053 13.8248C85.8553 13.6248 85.8469 13.4415 85.7803 13.2748C85.7303 13.1081 85.6303 12.9748 85.4803 12.8748C85.3469 12.7581 85.1719 12.6748 84.9553 12.6248C84.7553 12.5581 84.5303 12.5248 84.2803 12.5248H82.0303L81.4803 15.0748C81.6636 15.0748 81.8469 15.0831 82.0303 15.0998C82.2136 15.0998 82.3886 15.1081 82.5553 15.1248C82.7219 15.1248 82.8803 15.1248 83.0303 15.1248C83.1803 15.1248 83.3136 15.1248 83.4303 15.1248Z" fill="white"/>
<path d="M92.9113 13.9498C92.8613 14.1665 92.853 14.3665 92.8863 14.5498C92.9197 14.7165 92.978 14.8665 93.0613 14.9998C93.1613 15.1331 93.2947 15.2331 93.4613 15.2998C93.628 15.3665 93.8197 15.3998 94.0363 15.3998C94.4863 15.3998 95.0197 15.2998 95.6363 15.0998C96.253 14.8998 96.853 14.6665 97.4363 14.3998L97.9363 16.7998C97.2697 17.1665 96.5363 17.4581 95.7363 17.6748C94.9363 17.8915 94.1613 17.9998 93.4113 17.9998C92.828 17.9998 92.2947 17.9248 91.8113 17.7748C91.3447 17.6248 90.953 17.3998 90.6363 17.0998C90.3363 16.7998 90.128 16.4165 90.0113 15.9498C89.9113 15.4831 89.928 14.9331 90.0613 14.2998L91.1613 9.17481C91.3613 8.25814 91.7113 7.48314 92.2113 6.84981C92.728 6.21647 93.353 5.73314 94.0863 5.39981C94.8363 5.06647 95.6613 4.89981 96.5613 4.89981C97.4613 4.89981 98.2113 5.05814 98.8113 5.37481C99.428 5.69147 99.8613 6.15814 100.111 6.77481C100.361 7.39147 100.386 8.16647 100.186 9.0998L99.3613 12.9998L93.0613 13.3248L92.9113 13.9498ZM97.2613 9.8498C97.328 9.4998 97.3613 9.14147 97.3613 8.77481C97.3613 8.40814 97.2697 8.10814 97.0863 7.87481C96.9197 7.62481 96.5863 7.51647 96.0863 7.54981C95.5697 7.56647 95.1613 7.67481 94.8613 7.87481C94.578 8.05814 94.353 8.31647 94.1863 8.64981C94.0363 8.96647 93.903 9.35814 93.7863 9.82481L93.5863 10.7998L97.0863 10.5748L97.2613 9.8498Z" fill="white"/>
<path d="M105.706 13.9748C105.623 14.3915 105.598 14.7498 105.631 15.0498C105.681 15.3498 105.798 15.5998 105.981 15.7998C106.181 15.9831 106.456 16.1415 106.806 16.2748L105.206 18.1748C104.739 18.0415 104.331 17.8665 103.981 17.6498C103.648 17.4165 103.381 17.1415 103.181 16.8248C102.981 16.4915 102.856 16.1165 102.806 15.6998C102.756 15.2831 102.781 14.8331 102.881 14.3498L104.281 7.74981H101.956L102.506 5.1498H110.081L109.531 7.74981H107.031L105.706 13.9748Z" fill="white"/>
</svg>
