<svg width="1312" height="48" viewBox="0 0 1312 48" fill="none" xmlns="http://www.w3.org/2000/svg">
<path d="M12.45 17.9502H9.15L9.125 13.3502H5.1L3.125 17.9502H0L7.975 0.450195H11.85L12.45 17.9502ZM6.4 10.4252H9.125L9.1 4.0252L6.4 10.4252Z" fill="white"/>
<path d="M26.5799 14.2502C26.4965 14.6669 26.4715 15.0252 26.5049 15.3252C26.5549 15.6252 26.6716 15.8752 26.8549 16.0752C27.0549 16.2585 27.3299 16.4169 27.6799 16.5502L26.0799 18.4502C25.6132 18.3169 25.2049 18.1419 24.8549 17.9252C24.5215 17.6919 24.2549 17.4169 24.0549 17.1002C23.8549 16.7669 23.7299 16.3919 23.6799 15.9752C23.6299 15.5585 23.6549 15.1085 23.7549 14.6252L25.1549 8.0252H22.8299L23.3799 5.4252H30.9549L30.4049 8.0252H27.9049L26.5799 14.2502Z" fill="white"/>
<path d="M31.1137 23.1752L33.9637 17.9502L32.0887 5.4252H34.7387L36.0387 14.2252L40.7887 5.4252H43.4387L33.8137 23.1752H31.1137Z" fill="white"/>
<path d="M48.0154 14.2502C47.9321 14.6669 47.9071 15.0252 47.9404 15.3252C47.9904 15.6252 48.1071 15.8752 48.2904 16.0752C48.4904 16.2585 48.7654 16.4169 49.1154 16.5502L47.5154 18.4502C47.0488 18.3169 46.6404 18.1419 46.2904 17.9252C45.9571 17.6919 45.6904 17.4169 45.4904 17.1002C45.2904 16.7669 45.1654 16.3919 45.1154 15.9752C45.0654 15.5585 45.0904 15.1085 45.1904 14.6252L46.5904 8.0252H44.2654L44.8154 5.4252H52.3904L51.8404 8.0252H49.3404L48.0154 14.2502Z" fill="white"/>
<path d="M68.4811 13.3252C68.1811 14.7919 67.5561 15.9752 66.6061 16.8752C65.6727 17.7585 64.4394 18.2002 62.9061 18.2002C61.8061 18.2002 60.9561 17.9752 60.3561 17.5252C59.7727 17.0585 59.3977 16.4585 59.2311 15.7252C59.0644 14.9752 59.0644 14.1752 59.2311 13.3252L59.9561 10.0252C60.1894 8.95853 60.5561 8.06686 61.0561 7.3502C61.5727 6.63353 62.2144 6.09186 62.9811 5.7252C63.7644 5.34186 64.6644 5.1502 65.6811 5.1502C67.1311 5.1502 68.1644 5.58353 68.7811 6.4502C69.3977 7.3002 69.5394 8.49186 69.2061 10.0252L68.4811 13.3252ZM66.4061 9.8752C66.4894 9.4752 66.4977 9.13353 66.4311 8.8502C66.3644 8.5502 66.2144 8.3252 65.9811 8.1752C65.7644 8.00853 65.4561 7.9252 65.0561 7.9252C64.6561 7.9252 64.2977 8.0002 63.9811 8.1502C63.6811 8.3002 63.4227 8.51686 63.2061 8.8002C63.0061 9.08353 62.8561 9.44186 62.7561 9.8752L61.9811 13.5252C61.9144 13.8585 61.9144 14.1752 61.9811 14.4752C62.0477 14.7752 62.1977 15.0169 62.4311 15.2002C62.6644 15.3835 63.0061 15.4752 63.4561 15.4752C63.8727 15.4752 64.2227 15.3919 64.5061 15.2252C64.8061 15.0585 65.0477 14.8252 65.2311 14.5252C65.4144 14.2252 65.5477 13.8919 65.6311 13.5252L66.4061 9.8752Z" fill="white"/>
<path d="M74.8465 14.2502C74.7631 14.6669 74.7382 15.0252 74.7715 15.3252C74.8215 15.6252 74.9381 15.8752 75.1215 16.0752C75.3215 16.2585 75.5965 16.4169 75.9465 16.5502L74.3465 18.4502C73.8798 18.3169 73.4715 18.1419 73.1215 17.9252C72.7881 17.6919 72.5215 17.4169 72.3215 17.1002C72.1215 16.7669 71.9965 16.3919 71.9465 15.9752C71.8965 15.5585 71.9215 15.1085 72.0215 14.6252L73.4215 8.0252H71.0965L71.6465 5.4252H79.2215L78.6715 8.0252H76.1715L74.8465 14.2502Z" fill="white"/>
<path d="M87.6053 11.0252C88.0553 11.3585 88.3553 11.8085 88.5053 12.3752C88.6719 12.9419 88.6886 13.5585 88.5553 14.2252C88.4219 14.8752 88.1303 15.5085 87.6803 16.1252C87.2303 16.7252 86.6386 17.2252 85.9053 17.6252C85.1719 18.0252 84.3053 18.2252 83.3053 18.2252C82.9886 18.2252 82.6136 18.2169 82.1803 18.2002C81.7469 18.1835 81.2969 18.1585 80.8303 18.1252C80.3636 18.0919 79.9303 18.0585 79.5303 18.0252C79.1303 18.0085 78.8053 17.9919 78.5553 17.9752C78.3053 17.9585 78.1803 17.9502 78.1803 17.9502L80.8303 5.4252C80.8303 5.4252 80.9386 5.41686 81.1553 5.4002C81.3886 5.36686 81.7136 5.33353 82.1303 5.3002C82.5636 5.2502 83.0719 5.21686 83.6553 5.2002C84.2386 5.16686 84.8886 5.1502 85.6053 5.1502C86.1053 5.1502 86.5886 5.20853 87.0553 5.3252C87.5219 5.44186 87.9303 5.61686 88.2803 5.8502C88.6469 6.08353 88.9219 6.39186 89.1053 6.7752C89.3053 7.14186 89.3886 7.59186 89.3553 8.1252C89.3219 8.64186 89.1386 9.1752 88.8053 9.7252C88.4886 10.2585 88.0886 10.6919 87.6053 11.0252ZM85.1553 7.5752C85.0053 7.5752 84.8469 7.5752 84.6803 7.5752C84.5136 7.5752 84.3386 7.58353 84.1553 7.6002C83.9886 7.6002 83.8136 7.60853 83.6303 7.6252C83.4636 7.6252 83.2969 7.6252 83.1303 7.6252L82.5303 10.4002H83.8053C84.4053 10.4002 84.8886 10.3252 85.2553 10.1752C85.6219 10.0252 85.8969 9.83353 86.0803 9.6002C86.2803 9.36686 86.4053 9.13353 86.4553 8.9002C86.5053 8.68353 86.4969 8.5002 86.4303 8.3502C86.3636 8.18353 86.2636 8.04186 86.1303 7.9252C86.0136 7.80853 85.8636 7.7252 85.6803 7.6752C85.5136 7.60853 85.3386 7.5752 85.1553 7.5752ZM83.4303 15.4002C83.8136 15.4002 84.1719 15.3585 84.5053 15.2752C84.8386 15.1919 85.1219 15.0585 85.3553 14.8752C85.5886 14.6752 85.7386 14.4169 85.8053 14.1002C85.8553 13.9002 85.8469 13.7169 85.7803 13.5502C85.7303 13.3835 85.6303 13.2502 85.4803 13.1502C85.3469 13.0335 85.1719 12.9502 84.9553 12.9002C84.7553 12.8335 84.5303 12.8002 84.2803 12.8002H82.0303L81.4803 15.3502C81.6636 15.3502 81.8469 15.3585 82.0303 15.3752C82.2136 15.3752 82.3886 15.3835 82.5553 15.4002C82.7219 15.4002 82.8803 15.4002 83.0303 15.4002C83.1803 15.4002 83.3136 15.4002 83.4303 15.4002Z" fill="white"/>
<path d="M92.9113 14.2252C92.8613 14.4419 92.853 14.6419 92.8863 14.8252C92.9197 14.9919 92.978 15.1419 93.0613 15.2752C93.1613 15.4085 93.2947 15.5085 93.4613 15.5752C93.628 15.6419 93.8197 15.6752 94.0363 15.6752C94.4863 15.6752 95.0197 15.5752 95.6363 15.3752C96.253 15.1752 96.853 14.9419 97.4363 14.6752L97.9363 17.0752C97.2697 17.4419 96.5363 17.7335 95.7363 17.9502C94.9363 18.1669 94.1613 18.2752 93.4113 18.2752C92.828 18.2752 92.2947 18.2002 91.8113 18.0502C91.3447 17.9002 90.953 17.6752 90.6363 17.3752C90.3363 17.0752 90.128 16.6919 90.0113 16.2252C89.9113 15.7585 89.928 15.2085 90.0613 14.5752L91.1613 9.4502C91.3613 8.53353 91.7113 7.75853 92.2113 7.1252C92.728 6.49186 93.353 6.00853 94.0863 5.6752C94.8363 5.34186 95.6613 5.1752 96.5613 5.1752C97.4613 5.1752 98.2113 5.33353 98.8113 5.6502C99.428 5.96686 99.8613 6.43353 100.111 7.0502C100.361 7.66686 100.386 8.44186 100.186 9.3752L99.3613 13.2752L93.0613 13.6002L92.9113 14.2252ZM97.2613 10.1252C97.328 9.7752 97.3613 9.41686 97.3613 9.0502C97.3613 8.68353 97.2697 8.38353 97.0863 8.1502C96.9197 7.9002 96.5863 7.79186 96.0863 7.8252C95.5697 7.84186 95.1613 7.9502 94.8613 8.1502C94.578 8.33353 94.353 8.59186 94.1863 8.9252C94.0363 9.24186 93.903 9.63353 93.7863 10.1002L93.5863 11.0752L97.0863 10.8502L97.2613 10.1252Z" fill="white"/>
<path d="M105.706 14.2502C105.623 14.6669 105.598 15.0252 105.631 15.3252C105.681 15.6252 105.798 15.8752 105.981 16.0752C106.181 16.2585 106.456 16.4169 106.806 16.5502L105.206 18.4502C104.739 18.3169 104.331 18.1419 103.981 17.9252C103.648 17.6919 103.381 17.4169 103.181 17.1002C102.981 16.7669 102.856 16.3919 102.806 15.9752C102.756 15.5585 102.781 15.1085 102.881 14.6252L104.281 8.0252H101.956L102.506 5.4252H110.081L109.531 8.0252H107.031L105.706 14.2502Z" fill="white"/>
</svg>
