<svg width="1312" height="48" viewBox="0 0 1312 48" fill="none" xmlns="http://www.w3.org/2000/svg">
<path d="M12.45 18.1797H9.15L9.125 13.5797H5.1L3.125 18.1797H0L7.975 0.679688H11.85L12.45 18.1797ZM6.4 10.6547H9.125L9.1 4.25469L6.4 10.6547Z" fill="white"/>
<path d="M26.5799 14.4797C26.4965 14.8964 26.4715 15.2547 26.5049 15.5547C26.5549 15.8547 26.6716 16.1047 26.8549 16.3047C27.0549 16.488 27.3299 16.6464 27.6799 16.7797L26.0799 18.6797C25.6132 18.5464 25.2049 18.3714 24.8549 18.1547C24.5215 17.9214 24.2549 17.6464 24.0549 17.3297C23.8549 16.9964 23.7299 16.6214 23.6799 16.2047C23.6299 15.788 23.6549 15.338 23.7549 14.8547L25.1549 8.25469H22.8299L23.3799 5.65469H30.9549L30.4049 8.25469H27.9049L26.5799 14.4797Z" fill="white"/>
<path d="M31.1137 23.4047L33.9637 18.1797L32.0887 5.65469H34.7387L36.0387 14.4547L40.7887 5.65469H43.4387L33.8137 23.4047H31.1137Z" fill="white"/>
<path d="M48.0154 14.4797C47.9321 14.8964 47.9071 15.2547 47.9404 15.5547C47.9904 15.8547 48.1071 16.1047 48.2904 16.3047C48.4904 16.488 48.7654 16.6464 49.1154 16.7797L47.5154 18.6797C47.0488 18.5464 46.6404 18.3714 46.2904 18.1547C45.9571 17.9214 45.6904 17.6464 45.4904 17.3297C45.2904 16.9964 45.1654 16.6214 45.1154 16.2047C45.0654 15.788 45.0904 15.338 45.1904 14.8547L46.5904 8.25469H44.2654L44.8154 5.65469H52.3904L51.8404 8.25469H49.3404L48.0154 14.4797Z" fill="white"/>
<path d="M68.4811 13.5547C68.1811 15.0214 67.5561 16.2047 66.6061 17.1047C65.6727 17.988 64.4394 18.4297 62.9061 18.4297C61.8061 18.4297 60.9561 18.2047 60.3561 17.7547C59.7727 17.288 59.3977 16.688 59.2311 15.9547C59.0644 15.2047 59.0644 14.4047 59.2311 13.5547L59.9561 10.2547C60.1894 9.18802 60.5561 8.29635 61.0561 7.57969C61.5727 6.86302 62.2144 6.32135 62.9811 5.95469C63.7644 5.57135 64.6644 5.37969 65.6811 5.37969C67.1311 5.37969 68.1644 5.81302 68.7811 6.67969C69.3977 7.52969 69.5394 8.72135 69.2061 10.2547L68.4811 13.5547ZM66.4061 10.1047C66.4894 9.70469 66.4977 9.36302 66.4311 9.07969C66.3644 8.77969 66.2144 8.55469 65.9811 8.40469C65.7644 8.23802 65.4561 8.15469 65.0561 8.15469C64.6561 8.15469 64.2977 8.22969 63.9811 8.37969C63.6811 8.52969 63.4227 8.74635 63.2061 9.02969C63.0061 9.31302 62.8561 9.67136 62.7561 10.1047L61.9811 13.7547C61.9144 14.088 61.9144 14.4047 61.9811 14.7047C62.0477 15.0047 62.1977 15.2464 62.4311 15.4297C62.6644 15.613 63.0061 15.7047 63.4561 15.7047C63.8727 15.7047 64.2227 15.6214 64.5061 15.4547C64.8061 15.288 65.0477 15.0547 65.2311 14.7547C65.4144 14.4547 65.5477 14.1214 65.6311 13.7547L66.4061 10.1047Z" fill="white"/>
<path d="M74.8465 14.4797C74.7631 14.8964 74.7382 15.2547 74.7715 15.5547C74.8215 15.8547 74.9381 16.1047 75.1215 16.3047C75.3215 16.488 75.5965 16.6464 75.9465 16.7797L74.3465 18.6797C73.8798 18.5464 73.4715 18.3714 73.1215 18.1547C72.7881 17.9214 72.5215 17.6464 72.3215 17.3297C72.1215 16.9964 71.9965 16.6214 71.9465 16.2047C71.8965 15.788 71.9215 15.338 72.0215 14.8547L73.4215 8.25469H71.0965L71.6465 5.65469H79.2215L78.6715 8.25469H76.1715L74.8465 14.4797Z" fill="white"/>
<path d="M87.6053 11.2547C88.0553 11.588 88.3553 12.038 88.5053 12.6047C88.6719 13.1714 88.6886 13.788 88.5553 14.4547C88.4219 15.1047 88.1303 15.738 87.6803 16.3547C87.2303 16.9547 86.6386 17.4547 85.9053 17.8547C85.1719 18.2547 84.3053 18.4547 83.3053 18.4547C82.9886 18.4547 82.6136 18.4464 82.1803 18.4297C81.7469 18.413 81.2969 18.388 80.8303 18.3547C80.3636 18.3214 79.9303 18.288 79.5303 18.2547C79.1303 18.238 78.8053 18.2214 78.5553 18.2047C78.3053 18.188 78.1803 18.1797 78.1803 18.1797L80.8303 5.65469C80.8303 5.65469 80.9386 5.64635 81.1553 5.62969C81.3886 5.59635 81.7136 5.56302 82.1303 5.52969C82.5636 5.47969 83.0719 5.44635 83.6553 5.42969C84.2386 5.39635 84.8886 5.37969 85.6053 5.37969C86.1053 5.37969 86.5886 5.43802 87.0553 5.55469C87.5219 5.67136 87.9303 5.84635 88.2803 6.07969C88.6469 6.31302 88.9219 6.62135 89.1053 7.00469C89.3053 7.37136 89.3886 7.82136 89.3553 8.35469C89.3219 8.87136 89.1386 9.40469 88.8053 9.95469C88.4886 10.488 88.0886 10.9214 87.6053 11.2547ZM85.1553 7.80469C85.0053 7.80469 84.8469 7.80469 84.6803 7.80469C84.5136 7.80469 84.3386 7.81302 84.1553 7.82969C83.9886 7.82969 83.8136 7.83802 83.6303 7.85469C83.4636 7.85469 83.2969 7.85469 83.1303 7.85469L82.5303 10.6297H83.8053C84.4053 10.6297 84.8886 10.5547 85.2553 10.4047C85.6219 10.2547 85.8969 10.063 86.0803 9.82969C86.2803 9.59635 86.4053 9.36302 86.4553 9.12969C86.5053 8.91302 86.4969 8.72969 86.4303 8.57969C86.3636 8.41302 86.2636 8.27135 86.1303 8.15469C86.0136 8.03802 85.8636 7.95469 85.6803 7.90469C85.5136 7.83802 85.3386 7.80469 85.1553 7.80469ZM83.4303 15.6297C83.8136 15.6297 84.1719 15.588 84.5053 15.5047C84.8386 15.4214 85.1219 15.288 85.3553 15.1047C85.5886 14.9047 85.7386 14.6464 85.8053 14.3297C85.8553 14.1297 85.8469 13.9464 85.7803 13.7797C85.7303 13.613 85.6303 13.4797 85.4803 13.3797C85.3469 13.263 85.1719 13.1797 84.9553 13.1297C84.7553 13.063 84.5303 13.0297 84.2803 13.0297H82.0303L81.4803 15.5797C81.6636 15.5797 81.8469 15.588 82.0303 15.6047C82.2136 15.6047 82.3886 15.613 82.5553 15.6297C82.7219 15.6297 82.8803 15.6297 83.0303 15.6297C83.1803 15.6297 83.3136 15.6297 83.4303 15.6297Z" fill="white"/>
<path d="M92.9113 14.4547C92.8613 14.6714 92.853 14.8714 92.8863 15.0547C92.9197 15.2214 92.978 15.3714 93.0613 15.5047C93.1613 15.638 93.2947 15.738 93.4613 15.8047C93.628 15.8714 93.8197 15.9047 94.0363 15.9047C94.4863 15.9047 95.0197 15.8047 95.6363 15.6047C96.253 15.4047 96.853 15.1714 97.4363 14.9047L97.9363 17.3047C97.2697 17.6714 96.5363 17.963 95.7363 18.1797C94.9363 18.3964 94.1613 18.5047 93.4113 18.5047C92.828 18.5047 92.2947 18.4297 91.8113 18.2797C91.3447 18.1297 90.953 17.9047 90.6363 17.6047C90.3363 17.3047 90.128 16.9214 90.0113 16.4547C89.9113 15.988 89.928 15.438 90.0613 14.8047L91.1613 9.67969C91.3613 8.76302 91.7113 7.98802 92.2113 7.35469C92.728 6.72136 93.353 6.23802 94.0863 5.90469C94.8363 5.57135 95.6613 5.40469 96.5613 5.40469C97.4613 5.40469 98.2113 5.56302 98.8113 5.87969C99.428 6.19635 99.8613 6.66302 100.111 7.27969C100.361 7.89636 100.386 8.67135 100.186 9.60469L99.3613 13.5047L93.0613 13.8297L92.9113 14.4547ZM97.2613 10.3547C97.328 10.0047 97.3613 9.64636 97.3613 9.27969C97.3613 8.91302 97.2697 8.61302 97.0863 8.37969C96.9197 8.12969 96.5863 8.02136 96.0863 8.05469C95.5697 8.07135 95.1613 8.17969 94.8613 8.37969C94.578 8.56302 94.353 8.82135 94.1863 9.15469C94.0363 9.47135 93.903 9.86302 93.7863 10.3297L93.5863 11.3047L97.0863 11.0797L97.2613 10.3547Z" fill="white"/>
<path d="M105.706 14.4797C105.623 14.8964 105.598 15.2547 105.631 15.5547C105.681 15.8547 105.798 16.1047 105.981 16.3047C106.181 16.488 106.456 16.6464 106.806 16.7797L105.206 18.6797C104.739 18.5464 104.331 18.3714 103.981 18.1547C103.648 17.9214 103.381 17.6464 103.181 17.3297C102.981 16.9964 102.856 16.6214 102.806 16.2047C102.756 15.788 102.781 15.338 102.881 14.8547L104.281 8.25469H101.956L102.506 5.65469H110.081L109.531 8.25469H107.031L105.706 14.4797Z" fill="white"/>
</svg>
