<svg width="129" height="32" viewBox="0 0 129 32" fill="none" xmlns="http://www.w3.org/2000/svg">
<path d="M117.019 0.205128H13.5791C6.96192 0.205128 1.59766 5.71547 1.59766 12.5128V19.4872C1.59766 26.2845 6.96192 31.7949 13.5791 31.7949H117.019C123.636 31.7949 129 26.2845 129 19.4872V12.5128C129 5.71547 123.636 0.205128 117.019 0.205128Z" fill="#FF5100"/>
<path d="M14.2366 9.82687C14.7557 9.82687 15.2985 9.88734 15.8648 10.0083C16.4445 10.1293 17.0142 10.3382 17.574 10.6351C18.1339 10.932 18.6676 11.3498 19.1752 11.8886C19.675 12.4164 20.1112 13.0872 20.4838 13.9009C20.8986 14.7915 21.1081 15.5173 21.1124 16.0781C21.13 16.6389 20.9927 17.0677 20.7005 17.3646C20.4216 17.6615 20.0489 17.8649 19.5822 17.9749C19.1155 18.0848 18.6159 18.1398 18.0834 18.1398H15.9267L17.435 21.3726H15.2184L9.8833 9.82687H14.2366ZM15.1395 16.408H16.4574C16.9766 16.408 17.4095 16.3805 17.756 16.3255C18.1024 16.2705 18.3561 16.1605 18.517 15.9956C18.6832 15.8197 18.7475 15.5668 18.7097 15.2369C18.672 14.907 18.5245 14.4617 18.2673 13.9009C18.0284 13.3841 17.7821 12.9772 17.5285 12.6803C17.267 12.3724 16.9783 12.147 16.6624 12.0041C16.3519 11.8501 16.0011 11.7512 15.6099 11.7072C15.2189 11.6632 14.7637 11.6412 14.2445 11.6412H12.9265L15.1395 16.408ZM25.3784 21.3726L20.0433 9.82687H26.733L27.5796 11.6412H23.0866L24.4372 14.5441H27.173L27.5209 16.276H25.2245L26.8152 19.7067H31.2683L32.0281 21.3726H25.3784ZM33.5883 21.3726L28.2533 9.82687H34.9429L35.7895 11.6412H31.3165L35.8249 21.3726H33.5883ZM35.9757 9.82687H38.2122L41.941 17.8924L43.6239 9.82687H45.8405L51.1754 21.3726H48.9589L45.3485 13.5545L43.5473 21.3726H41.3107L35.9757 9.82687ZM54.4332 11.6907C54.1301 11.6027 53.7926 11.5312 53.4204 11.4763C53.0609 11.4213 52.7286 11.3938 52.4223 11.3938C51.9163 11.3938 51.5365 11.4488 51.2829 11.5587C51.0293 11.6687 50.8883 11.8336 50.8603 12.0535C50.8324 12.2735 50.8943 12.5539 51.0464 12.8947L53.5426 18.3047C53.7083 18.6456 53.9128 18.9205 54.156 19.1294C54.3921 19.3274 54.6716 19.4758 54.9959 19.5748C55.3122 19.6627 55.6633 19.7067 56.0495 19.7067C56.462 19.7067 56.8578 19.6737 57.2364 19.6078C57.6147 19.5418 57.9294 19.4703 58.1802 19.3934C58.4442 19.3164 58.6055 19.2724 58.6642 19.2614L59.7913 20.9932C59.2921 21.1692 58.792 21.3066 58.2908 21.4056C57.8108 21.5156 57.3111 21.5705 56.7919 21.5705C55.9664 21.5705 55.1964 21.4441 54.4819 21.1912C53.773 20.9273 53.1512 20.5534 52.6164 20.0696C52.0816 19.5858 51.6595 19.0085 51.35 18.3377L48.8654 12.9442C48.5295 12.2185 48.4005 11.6137 48.478 11.1299C48.5479 10.6351 48.7979 10.2612 49.2285 10.0083C49.6586 9.7554 50.2401 9.62896 50.9722 9.62896C51.4514 9.62896 51.9862 9.67844 52.5769 9.77739C53.1727 9.86535 53.7546 10.0083 54.3234 10.2062L54.4332 11.6907ZM61.4335 11.6577L65.9302 21.3726H63.7136L59.2369 11.6577H56.3215L55.4832 9.82687H63.5507L64.389 11.6577H61.4335ZM69.015 9.82687C69.5342 9.82687 70.0769 9.88734 70.6433 10.0083C71.2228 10.1293 71.7927 10.3382 72.3522 10.6351C72.9121 10.932 73.4461 11.3498 73.9537 11.8886C74.4534 12.4164 74.8895 13.0872 75.2621 13.9009C75.6771 14.7915 75.8863 15.5173 75.8907 16.0781C75.9083 16.6389 75.7709 17.0677 75.479 17.3646C75.1998 17.6615 74.8272 17.8649 74.3607 17.9749C73.8938 18.0848 73.3942 18.1398 72.8618 18.1398H70.7052L72.2132 21.3726H69.9967L64.6617 9.82687H69.015ZM69.918 16.408H71.2359C71.7551 16.408 72.1877 16.3805 72.5343 16.3255C72.881 16.2705 73.1346 16.1605 73.2951 15.9956C73.4617 15.8197 73.526 15.5668 73.4881 15.2369C73.4505 14.907 73.3027 14.4617 73.0455 13.9009C72.8067 13.3841 72.5607 12.9772 72.3067 12.6803C72.0455 12.3724 71.7567 12.147 71.4408 12.0041C71.1301 11.8501 70.7795 11.7512 70.3885 11.7072C69.9971 11.6632 69.5422 11.6412 69.023 11.6412H67.705L69.918 16.408ZM89.762 21.3726H87.1261L84.9215 18.3377H81.7065L82.3136 21.3726H79.8174L77.8768 9.82687H80.972L89.762 21.3726ZM81.3559 16.408H83.5325L80.4732 12.1855L81.3559 16.408ZM98.7784 19.5583H100.935L102.727 23.4343H100.89L99.5253 21.3726H91.0185L85.6831 9.82687H87.8997L92.3883 19.5583H96.6018L92.1132 9.82687H94.2898L98.7784 19.5583ZM97.7353 9.82687H99.9718L103.7 17.8924L105.383 9.82687H107.6L112.935 21.3726H110.719L107.108 13.5545L105.307 21.3726H103.071L97.7353 9.82687ZM113.733 9.82687H118.087L123.421 21.3726H121.205L119.717 18.1398H117.58C117.5 18.1398 117.42 18.1398 117.34 18.1398C117.261 18.1398 117.181 18.1398 117.101 18.1398C117.021 18.1398 116.937 18.1343 116.849 18.1233L116.971 21.3726H114.615L114.565 17.5295C114.164 17.3426 113.762 17.0897 113.359 16.7708C112.97 16.4519 112.592 16.0561 112.225 15.5833C111.872 15.1104 111.541 14.5496 111.234 13.9009C110.861 13.0872 110.678 12.4164 110.684 11.8886C110.696 11.3498 110.841 10.932 111.12 10.6351C111.412 10.3382 111.787 10.1293 112.246 10.0083C112.718 9.88734 113.214 9.82687 113.733 9.82687ZM117.591 16.408H118.909L116.696 11.6412H115.378C114.859 11.6412 114.423 11.6632 114.068 11.7072C113.727 11.7512 113.472 11.8501 113.303 12.0041C113.127 12.147 113.049 12.3724 113.071 12.6803C113.099 12.9772 113.232 13.3841 113.47 13.9009C113.741 14.4617 114.008 14.907 114.272 15.2369C114.536 15.5668 114.825 15.8197 115.138 15.9956C115.456 16.1605 115.815 16.2705 116.214 16.3255C116.613 16.3805 117.072 16.408 117.591 16.408Z" fill="white"/>
</svg>
