<svg width="323" height="78" viewBox="0 0 323 78" fill="none" xmlns="http://www.w3.org/2000/svg">
<path d="M293 0.5H34C17.4315 0.5 4 13.9315 4 30.5V47.5C4 64.0685 17.4315 77.5 34 77.5H293C309.569 77.5 323 64.0685 323 47.5V30.5C323 13.9315 309.569 0.5 293 0.5Z" fill="#FF5100"/>
<path d="M35.6466 23.953C36.9466 23.953 38.3056 24.1004 39.7236 24.3953C41.175 24.6901 42.6015 25.1993 44.0032 25.923C45.405 26.6467 46.7414 27.6652 48.0124 28.9785C49.2637 30.265 50.3559 31.9 51.289 33.8834C52.3276 36.0544 52.8522 37.8234 52.8629 39.1903C52.9069 40.5572 52.5631 41.6025 51.8315 42.3262C51.1333 43.0499 50.1999 43.5457 49.0314 43.8137C47.8629 44.0818 46.612 44.2158 45.2786 44.2158H39.8786L43.655 52.0957H38.105L24.7466 23.953H35.6466ZM37.9074 39.9944H41.2074C42.5074 39.9944 43.5912 39.9274 44.4588 39.7933C45.3263 39.6593 45.9615 39.3913 46.3642 38.9893C46.7805 38.5604 46.9414 37.944 46.8468 37.1399C46.7523 36.3358 46.383 35.2503 45.739 33.8834C45.1409 32.6237 44.5243 31.632 43.8893 30.9083C43.2344 30.1578 42.5115 29.6084 41.7205 29.2599C40.9431 28.8847 40.0647 28.6435 39.0854 28.5363C38.1062 28.429 36.9665 28.3754 35.6665 28.3754H32.3665L37.9074 39.9944ZM63.5444 52.0957L50.1861 23.953H66.9361L69.056 28.3754H57.806L61.1878 35.4513H68.0378L68.909 39.6727H63.159L67.1421 48.0351H78.2921L80.1944 52.0957H63.5444ZM84.1011 52.0957L70.7427 23.953H87.4927L89.6126 28.3754H78.4126L89.7011 52.0957H84.1011ZM90.0787 23.953H95.6787L105.015 43.6127L109.229 23.953H114.779L128.137 52.0957H122.587L113.547 33.0391L109.037 52.0957H103.437L90.0787 23.953ZM136.294 28.4961C135.535 28.2816 134.69 28.1074 133.758 27.9734C132.858 27.8394 132.026 27.7724 131.259 27.7724C129.992 27.7724 129.041 27.9064 128.406 28.1744C127.771 28.4424 127.418 28.8445 127.348 29.3805C127.278 29.9166 127.433 30.6001 127.814 31.4309L134.064 44.6178C134.479 45.4487 134.991 46.1188 135.6 46.628C136.191 47.1105 136.891 47.4723 137.703 47.7135C138.495 47.9279 139.374 48.0351 140.341 48.0351C141.374 48.0351 142.365 47.9547 143.313 47.7939C144.26 47.6331 145.048 47.4589 145.676 47.2713C146.337 47.0837 146.741 46.9764 146.888 46.9496L149.71 51.171C148.46 51.5999 147.208 51.9349 145.953 52.1761C144.751 52.4442 143.5 52.5782 142.2 52.5782C140.133 52.5782 138.205 52.27 136.416 51.6535C134.641 51.0102 133.084 50.0989 131.745 48.9196C130.406 47.7403 129.349 46.3332 128.574 44.6982L122.353 31.5515C121.512 29.7826 121.189 28.3084 121.383 27.1291C121.558 25.923 122.184 25.0117 123.262 24.3953C124.339 23.7788 125.795 23.4706 127.628 23.4706C128.828 23.4706 130.167 23.5912 131.646 23.8324C133.138 24.0468 134.595 24.3953 136.019 24.8777L136.294 28.4961ZM153.822 28.4156L165.081 52.0957H159.531L148.322 28.4156H141.022L138.923 23.953H159.123L161.222 28.4156H153.822ZM172.805 23.953C174.105 23.953 175.464 24.1004 176.882 24.3953C178.333 24.6901 179.76 25.1993 181.161 25.923C182.563 26.6467 183.9 27.6652 185.171 28.9785C186.422 30.265 187.514 31.9 188.447 33.8834C189.486 36.0544 190.01 37.8234 190.021 39.1903C190.065 40.5572 189.721 41.6025 188.99 42.3262C188.291 43.0499 187.358 43.5457 186.19 43.8137C185.021 44.0818 183.77 44.2158 182.437 44.2158H177.037L180.813 52.0957H175.263L161.905 23.953H172.805ZM175.066 39.9944H178.366C179.666 39.9944 180.749 39.9274 181.617 39.7933C182.485 39.6593 183.12 39.3913 183.522 38.9893C183.939 38.5604 184.1 37.944 184.005 37.1399C183.911 36.3358 183.541 35.2503 182.897 33.8834C182.299 32.6237 181.683 31.632 181.047 30.9083C180.393 30.1578 179.67 29.6084 178.879 29.2599C178.101 28.8847 177.223 28.6435 176.244 28.5363C175.264 28.429 174.125 28.3754 172.825 28.3754H169.525L175.066 39.9944ZM224.753 52.0957H218.153L212.633 44.6982H204.583L206.103 52.0957H199.853L194.994 23.953H202.744L224.753 52.0957ZM203.705 39.9944H209.155L201.495 29.7022L203.705 39.9944ZM247.329 47.6733H252.729L257.215 57.1212H252.615L249.199 52.0957H227.899L214.54 23.953H220.09L231.329 47.6733H241.879L230.64 23.953H236.09L247.329 47.6733ZM244.717 23.953H250.317L259.653 43.6127L263.867 23.953H269.417L282.776 52.0957H277.226L268.185 33.0391L263.676 52.0957H258.076L244.717 23.953ZM284.774 23.953H295.674L309.032 52.0957H303.482L299.756 44.2158H294.406C294.206 44.2158 294.006 44.2158 293.806 44.2158C293.606 44.2158 293.406 44.2158 293.206 44.2158C293.006 44.2158 292.796 44.2024 292.576 44.1756L292.882 52.0957H286.982L286.856 42.7282C285.852 42.2726 284.846 41.6561 283.838 40.8789C282.864 40.1016 281.917 39.1367 280.998 37.9842C280.113 36.8317 279.285 35.4647 278.516 33.8834C277.583 31.9 277.124 30.265 277.139 28.9785C277.168 27.6652 277.532 26.6467 278.23 25.923C278.962 25.1993 279.902 24.6901 281.051 24.3953C282.233 24.1004 283.474 23.953 284.774 23.953ZM294.434 39.9944H297.734L292.193 28.3754H288.893C287.593 28.3754 286.5 28.429 285.612 28.5363C284.758 28.6435 284.12 28.8847 283.697 29.2599C283.255 29.6084 283.061 30.1578 283.116 30.9083C283.185 31.632 283.518 32.6237 284.116 33.8834C284.793 35.2503 285.463 36.3358 286.124 37.1399C286.785 37.944 287.507 38.5604 288.291 38.9893C289.088 39.3913 289.987 39.6593 290.986 39.7933C291.985 39.9274 293.134 39.9944 294.434 39.9944Z" fill="white"/>
</svg>
