<svg width="323" height="79" viewBox="0 0 323 79" fill="none" xmlns="http://www.w3.org/2000/svg">
<g clip-path="url(#clip0_395_782)">
<path d="M293 1.1875H34C17.4315 1.1875 4 14.619 4 31.1875V48.1875C4 64.756 17.4315 78.1875 34 78.1875H293C309.569 78.1875 323 64.756 323 48.1875V31.1875C323 14.619 309.569 1.1875 293 1.1875Z" fill="#FF5100"/>
<path d="M35.6466 24.6406C36.9466 24.6406 38.3056 24.788 39.7236 25.0829C41.175 25.3777 42.6015 25.8869 44.0032 26.6106C45.405 27.3343 46.7414 28.3528 48.0124 29.6661C49.2637 30.9526 50.3559 32.5876 51.289 34.571C52.3276 36.742 52.8522 38.511 52.8629 39.8779C52.9069 41.2448 52.5631 42.2901 51.8315 43.0138C51.1333 43.7375 50.1999 44.2333 49.0314 44.5013C47.8629 44.7694 46.612 44.9034 45.2786 44.9034H39.8786L43.655 52.7833H38.105L24.7466 24.6406H35.6466ZM37.9074 40.682H41.2074C42.5074 40.682 43.5912 40.615 44.4588 40.4809C45.3263 40.3469 45.9615 40.0789 46.3642 39.6769C46.7805 39.248 46.9414 38.6316 46.8468 37.8275C46.7523 37.0234 46.383 35.9379 45.739 34.571C45.1409 33.3113 44.5243 32.3196 43.8893 31.5959C43.2344 30.8454 42.5115 30.296 41.7205 29.9475C40.9431 29.5723 40.0647 29.3311 39.0854 29.2239C38.1062 29.1166 36.9665 29.063 35.6665 29.063H32.3665L37.9074 40.682ZM63.5444 52.7833L50.1861 24.6406H66.9361L69.056 29.063H57.806L61.1878 36.1389H68.0378L68.909 40.3603H63.159L67.1421 48.7227H78.2921L80.1944 52.7833H63.5444ZM84.1011 52.7833L70.7427 24.6406H87.4927L89.6126 29.063H78.4126L89.7011 52.7833H84.1011ZM90.0787 24.6406H95.6787L105.015 44.3003L109.229 24.6406H114.779L128.137 52.7833H122.587L113.547 33.7267L109.037 52.7833H103.437L90.0787 24.6406ZM136.294 29.1837C135.535 28.9692 134.69 28.795 133.758 28.661C132.858 28.527 132.026 28.46 131.259 28.46C129.992 28.46 129.041 28.594 128.406 28.862C127.771 29.13 127.418 29.5321 127.348 30.0681C127.278 30.6042 127.433 31.2877 127.814 32.1185L134.064 45.3054C134.479 46.1363 134.991 46.8064 135.6 47.3156C136.191 47.7981 136.891 48.1599 137.703 48.4011C138.495 48.6155 139.374 48.7227 140.341 48.7227C141.374 48.7227 142.365 48.6423 143.313 48.4815C144.26 48.3207 145.048 48.1465 145.676 47.9589C146.337 47.7713 146.741 47.664 146.888 47.6372L149.71 51.8586C148.46 52.2875 147.208 52.6225 145.953 52.8637C144.751 53.1318 143.5 53.2658 142.2 53.2658C140.133 53.2658 138.205 52.9576 136.416 52.3411C134.641 51.6978 133.084 50.7865 131.745 49.6072C130.406 48.4279 129.349 47.0208 128.574 45.3858L122.353 32.2391C121.512 30.4702 121.189 28.996 121.383 27.8167C121.558 26.6106 122.184 25.6993 123.262 25.0829C124.339 24.4664 125.795 24.1582 127.628 24.1582C128.828 24.1582 130.167 24.2788 131.646 24.52C133.138 24.7344 134.595 25.0829 136.019 25.5653L136.294 29.1837ZM153.822 29.1032L165.081 52.7833H159.531L148.322 29.1032H141.022L138.923 24.6406H159.123L161.222 29.1032H153.822ZM172.805 24.6406C174.105 24.6406 175.464 24.788 176.882 25.0829C178.333 25.3777 179.76 25.8869 181.161 26.6106C182.563 27.3343 183.9 28.3528 185.171 29.6661C186.422 30.9526 187.514 32.5876 188.447 34.571C189.486 36.742 190.01 38.511 190.021 39.8779C190.065 41.2448 189.721 42.2901 188.99 43.0138C188.291 43.7375 187.358 44.2333 186.19 44.5013C185.021 44.7694 183.77 44.9034 182.437 44.9034H177.037L180.813 52.7833H175.263L161.905 24.6406H172.805ZM175.066 40.682H178.366C179.666 40.682 180.749 40.615 181.617 40.4809C182.485 40.3469 183.12 40.0789 183.522 39.6769C183.939 39.248 184.1 38.6316 184.005 37.8275C183.911 37.0234 183.541 35.9379 182.897 34.571C182.299 33.3113 181.683 32.3196 181.047 31.5959C180.393 30.8454 179.67 30.296 178.879 29.9475C178.101 29.5723 177.223 29.3311 176.244 29.2239C175.264 29.1166 174.125 29.063 172.825 29.063H169.525L175.066 40.682ZM224.753 52.7833H218.153L212.633 45.3858H204.583L206.103 52.7833H199.853L194.994 24.6406H202.744L224.753 52.7833ZM203.705 40.682H209.155L201.495 30.3898L203.705 40.682ZM247.329 48.3609H252.729L257.215 57.8088H252.615L249.199 52.7833H227.899L214.54 24.6406H220.09L231.329 48.3609H241.879L230.64 24.6406H236.09L247.329 48.3609ZM244.717 24.6406H250.317L259.653 44.3003L263.867 24.6406H269.417L282.776 52.7833H277.226L268.185 33.7267L263.676 52.7833H258.076L244.717 24.6406ZM284.774 24.6406H295.674L309.032 52.7833H303.482L299.756 44.9034H294.406C294.206 44.9034 294.006 44.9034 293.806 44.9034C293.606 44.9034 293.406 44.9034 293.206 44.9034C293.006 44.9034 292.796 44.89 292.576 44.8632L292.882 52.7833H286.982L286.856 43.4158C285.852 42.9602 284.846 42.3437 283.838 41.5665C282.864 40.7892 281.917 39.8243 280.998 38.6718C280.113 37.5193 279.285 36.1523 278.516 34.571C277.583 32.5876 277.124 30.9526 277.139 29.6661C277.168 28.3528 277.532 27.3343 278.23 26.6106C278.962 25.8869 279.902 25.3777 281.051 25.0829C282.233 24.788 283.474 24.6406 284.774 24.6406ZM294.434 40.682H297.734L292.193 29.063H288.893C287.593 29.063 286.5 29.1166 285.612 29.2239C284.758 29.3311 284.12 29.5723 283.697 29.9475C283.255 30.296 283.061 30.8454 283.116 31.5959C283.185 32.3196 283.518 33.3113 284.116 34.571C284.793 35.9379 285.463 37.0234 286.124 37.8275C286.785 38.6316 287.507 39.248 288.291 39.6769C289.088 40.0789 289.987 40.3469 290.986 40.4809C291.985 40.615 293.134 40.682 294.434 40.682Z" fill="white"/>
</g>
<defs>
<clipPath id="clip0_395_782">
<rect width="323" height="78" fill="white" transform="translate(0 0.6875)"/>
</clipPath>
</defs>
</svg>
