<svg width="323" height="79" viewBox="0 0 323 79" fill="none" xmlns="http://www.w3.org/2000/svg">
<g clip-path="url(#clip0_370_3903)">
<path d="M293 0.6875H34C17.4315 0.6875 4 14.119 4 30.6875V47.6875C4 64.256 17.4315 77.6875 34 77.6875H293C309.569 77.6875 323 64.256 323 47.6875V30.6875C323 14.119 309.569 0.6875 293 0.6875Z" fill="#FF5100"/>
<path d="M35.6466 24.1406C36.9466 24.1406 38.3056 24.288 39.7236 24.5829C41.175 24.8777 42.6015 25.3869 44.0032 26.1106C45.405 26.8343 46.7414 27.8528 48.0124 29.1661C49.2637 30.4526 50.3559 32.0876 51.289 34.071C52.3276 36.242 52.8522 38.011 52.8629 39.3779C52.9069 40.7448 52.5631 41.7901 51.8315 42.5138C51.1333 43.2375 50.1999 43.7333 49.0314 44.0013C47.8629 44.2694 46.612 44.4034 45.2786 44.4034H39.8786L43.655 52.2833H38.105L24.7466 24.1406H35.6466ZM37.9074 40.182H41.2074C42.5074 40.182 43.5912 40.115 44.4588 39.9809C45.3263 39.8469 45.9615 39.5789 46.3642 39.1769C46.7805 38.748 46.9414 38.1316 46.8468 37.3275C46.7523 36.5234 46.383 35.4379 45.739 34.071C45.1409 32.8113 44.5243 31.8196 43.8893 31.0959C43.2344 30.3454 42.5115 29.796 41.7205 29.4475C40.9431 29.0723 40.0647 28.8311 39.0854 28.7239C38.1062 28.6166 36.9665 28.563 35.6665 28.563H32.3665L37.9074 40.182ZM63.5444 52.2833L50.1861 24.1406H66.9361L69.056 28.563H57.806L61.1878 35.6389H68.0378L68.909 39.8603H63.159L67.1421 48.2227H78.2921L80.1944 52.2833H63.5444ZM84.1011 52.2833L70.7427 24.1406H87.4927L89.6126 28.563H78.4126L89.7011 52.2833H84.1011ZM90.0787 24.1406H95.6787L105.015 43.8003L109.229 24.1406H114.779L128.137 52.2833H122.587L113.547 33.2267L109.037 52.2833H103.437L90.0787 24.1406ZM136.294 28.6837C135.535 28.4692 134.69 28.295 133.758 28.161C132.858 28.027 132.026 27.96 131.259 27.96C129.992 27.96 129.041 28.094 128.406 28.362C127.771 28.63 127.418 29.0321 127.348 29.5681C127.278 30.1042 127.433 30.7877 127.814 31.6185L134.064 44.8054C134.479 45.6363 134.991 46.3064 135.6 46.8156C136.191 47.2981 136.891 47.6599 137.703 47.9011C138.495 48.1155 139.374 48.2227 140.341 48.2227C141.374 48.2227 142.365 48.1423 143.313 47.9815C144.26 47.8207 145.048 47.6465 145.676 47.4589C146.337 47.2713 146.741 47.164 146.888 47.1372L149.71 51.3586C148.46 51.7875 147.208 52.1225 145.953 52.3637C144.751 52.6318 143.5 52.7658 142.2 52.7658C140.133 52.7658 138.205 52.4576 136.416 51.8411C134.641 51.1978 133.084 50.2865 131.745 49.1072C130.406 47.9279 129.349 46.5208 128.574 44.8858L122.353 31.7391C121.512 29.9702 121.189 28.496 121.383 27.3167C121.558 26.1106 122.184 25.1993 123.262 24.5829C124.339 23.9664 125.795 23.6582 127.628 23.6582C128.828 23.6582 130.167 23.7788 131.646 24.02C133.138 24.2344 134.595 24.5829 136.019 25.0653L136.294 28.6837ZM153.822 28.6032L165.081 52.2833H159.531L148.322 28.6032H141.022L138.923 24.1406H159.123L161.222 28.6032H153.822ZM172.805 24.1406C174.105 24.1406 175.464 24.288 176.882 24.5829C178.333 24.8777 179.76 25.3869 181.161 26.1106C182.563 26.8343 183.9 27.8528 185.171 29.1661C186.422 30.4526 187.514 32.0876 188.447 34.071C189.486 36.242 190.01 38.011 190.021 39.3779C190.065 40.7448 189.721 41.7901 188.99 42.5138C188.291 43.2375 187.358 43.7333 186.19 44.0013C185.021 44.2694 183.77 44.4034 182.437 44.4034H177.037L180.813 52.2833H175.263L161.905 24.1406H172.805ZM175.066 40.182H178.366C179.666 40.182 180.749 40.115 181.617 39.9809C182.485 39.8469 183.12 39.5789 183.522 39.1769C183.939 38.748 184.1 38.1316 184.005 37.3275C183.911 36.5234 183.541 35.4379 182.897 34.071C182.299 32.8113 181.683 31.8196 181.047 31.0959C180.393 30.3454 179.67 29.796 178.879 29.4475C178.101 29.0723 177.223 28.8311 176.244 28.7239C175.264 28.6166 174.125 28.563 172.825 28.563H169.525L175.066 40.182ZM224.753 52.2833H218.153L212.633 44.8858H204.583L206.103 52.2833H199.853L194.994 24.1406H202.744L224.753 52.2833ZM203.705 40.182H209.155L201.495 29.8898L203.705 40.182ZM247.329 47.8609H252.729L257.215 57.3088H252.615L249.199 52.2833H227.899L214.54 24.1406H220.09L231.329 47.8609H241.879L230.64 24.1406H236.09L247.329 47.8609ZM244.717 24.1406H250.317L259.653 43.8003L263.867 24.1406H269.417L282.776 52.2833H277.226L268.185 33.2267L263.676 52.2833H258.076L244.717 24.1406ZM284.774 24.1406H295.674L309.032 52.2833H303.482L299.756 44.4034H294.406C294.206 44.4034 294.006 44.4034 293.806 44.4034C293.606 44.4034 293.406 44.4034 293.206 44.4034C293.006 44.4034 292.796 44.39 292.576 44.3632L292.882 52.2833H286.982L286.856 42.9158C285.852 42.4602 284.846 41.8437 283.838 41.0665C282.864 40.2892 281.917 39.3243 280.998 38.1718C280.113 37.0193 279.285 35.6523 278.516 34.071C277.583 32.0876 277.124 30.4526 277.139 29.1661C277.168 27.8528 277.532 26.8343 278.23 26.1106C278.962 25.3869 279.902 24.8777 281.051 24.5829C282.233 24.288 283.474 24.1406 284.774 24.1406ZM294.434 40.182H297.734L292.193 28.563H288.893C287.593 28.563 286.5 28.6166 285.612 28.7239C284.758 28.8311 284.12 29.0723 283.697 29.4475C283.255 29.796 283.061 30.3454 283.116 31.0959C283.185 31.8196 283.518 32.8113 284.116 34.071C284.793 35.4379 285.463 36.5234 286.124 37.3275C286.785 38.1316 287.507 38.748 288.291 39.1769C289.088 39.5789 289.987 39.8469 290.986 39.9809C291.985 40.115 293.134 40.182 294.434 40.182Z" fill="white"/>
</g>
<defs>
<clipPath id="clip0_370_3903">
<rect width="323" height="78" fill="white" transform="translate(0 0.1875)"/>
</clipPath>
</defs>
</svg>
