<svg width="187" height="63" viewBox="0 0 187 63" fill="none" xmlns="http://www.w3.org/2000/svg">
<g clip-path="url(#clip0_395_708)">
<path d="M10.82 4.82999L7.06998 22.5H3.73998L7.51998 4.82999H3.13998L3.85998 1.49999H15.98L15.26 4.82999H10.82ZM27.6392 1.49999H31.4492L20.7092 18.21C20.1692 19.05 19.6592 19.75 19.1792 20.31C18.6992 20.87 18.2092 21.34 17.7092 21.72C17.2092 22.08 16.6692 22.37 16.0892 22.59C15.5292 22.81 14.8892 23 14.1692 23.16L13.0592 21.57C13.5392 21.35 13.9692 21.16 14.3492 21C14.7492 20.82 15.1392 20.56 15.5192 20.22C15.8992 19.86 16.3092 19.34 16.7492 18.66L19.7192 13.98L16.5992 1.49999H20.0492L21.8792 10.59L27.6392 1.49999ZM38.9157 4.82999L35.1657 22.5H31.8357L35.6157 4.82999H31.2357L31.9557 1.49999H44.0757L43.3557 4.82999H38.9157ZM56.1931 8.63999L62.4331 1.49999H66.5131L58.6831 10.23L63.2431 22.5H59.2231L56.1631 13.11L54.9331 14.55L53.2231 22.5H49.6831L54.1531 1.49999H57.6931L56.1931 8.63999ZM79.5819 22.5H75.6219L75.5919 16.98H70.7619L68.3919 22.5H64.6419L74.2119 1.49999H78.8619L79.5819 22.5ZM72.3219 13.47H75.5919L75.5619 5.78999L72.3219 13.47ZM88.0095 8.63999L94.2495 1.49999H98.3295L90.4995 10.23L95.0595 22.5H91.0395L87.9795 13.11L86.7495 14.55L85.0395 22.5H81.4995L85.9695 1.49999H89.5095L88.0095 8.63999ZM100.058 7.25999C100.478 5.21999 101.368 3.66999 102.728 2.60999C104.088 1.52999 105.758 0.98999 107.738 0.98999C109.738 0.98999 111.158 1.58999 111.998 2.78999C112.858 3.98999 113.078 5.56999 112.658 7.52999L110.648 16.92C110.388 18.14 109.898 19.2 109.178 20.1C108.478 20.98 107.608 21.66 106.568 22.14C105.528 22.6 104.368 22.83 103.088 22.83C101.908 22.83 100.888 22.59 100.028 22.11C99.1883 21.63 98.5883 20.94 98.2283 20.04C97.8683 19.12 97.8183 18.01 98.0783 16.71L100.058 7.25999ZM101.528 16.35C101.388 16.99 101.368 17.54 101.468 18C101.568 18.46 101.798 18.82 102.158 19.08C102.538 19.32 103.058 19.44 103.718 19.44C104.358 19.44 104.928 19.31 105.428 19.05C105.928 18.79 106.348 18.42 106.688 17.94C107.028 17.46 107.258 16.91 107.378 16.29L109.058 8.36999C109.238 7.50999 109.308 6.79999 109.268 6.23999C109.228 5.65999 109.028 5.22999 108.668 4.94999C108.308 4.64999 107.738 4.49999 106.958 4.49999C106.278 4.49999 105.688 4.63999 105.188 4.91999C104.708 5.19999 104.308 5.62999 103.988 6.20999C103.668 6.76999 103.418 7.47999 103.238 8.33999L101.528 16.35ZM111.822 22.5L116.292 1.49999H126.342L125.652 4.79999H118.902L117.792 10.08H121.902L120.552 13.23H117.102L115.782 19.47H122.472L121.812 22.5H111.822ZM125.926 13.29L126.616 10.08H136.216L135.526 13.29H125.926ZM146.552 4.82999L142.802 22.5H139.472L143.252 4.82999H138.872L139.592 1.49999H151.712L150.992 4.82999H146.552ZM152.002 7.25999C152.422 5.21999 153.312 3.66999 154.672 2.60999C156.032 1.52999 157.702 0.98999 159.682 0.98999C161.682 0.98999 163.102 1.58999 163.942 2.78999C164.802 3.98999 165.022 5.56999 164.602 7.52999L162.592 16.92C162.332 18.14 161.842 19.2 161.122 20.1C160.422 20.98 159.552 21.66 158.512 22.14C157.472 22.6 156.312 22.83 155.032 22.83C153.852 22.83 152.832 22.59 151.972 22.11C151.132 21.63 150.532 20.94 150.172 20.04C149.812 19.12 149.762 18.01 150.022 16.71L152.002 7.25999ZM153.472 16.35C153.332 16.99 153.312 17.54 153.412 18C153.512 18.46 153.742 18.82 154.102 19.08C154.482 19.32 155.002 19.44 155.662 19.44C156.302 19.44 156.872 19.31 157.372 19.05C157.872 18.79 158.292 18.42 158.632 17.94C158.972 17.46 159.202 16.91 159.322 16.29L161.002 8.36999C161.182 7.50999 161.252 6.79999 161.212 6.23999C161.172 5.65999 160.972 5.22999 160.612 4.94999C160.252 4.64999 159.682 4.49999 158.902 4.49999C158.222 4.49999 157.632 4.63999 157.132 4.91999C156.652 5.19999 156.252 5.62999 155.932 6.20999C155.612 6.76999 155.362 7.47999 155.182 8.33999L153.472 16.35ZM9.85998 58.5L13.64 40.8H7.30998L3.55998 58.5H0.22998L4.69998 37.5H17.63L13.19 58.5H9.85998ZM26.7088 37.5C27.4888 37.5 28.2388 37.61 28.9588 37.83C29.6988 38.05 30.3288 38.43 30.8488 38.97C31.3688 39.51 31.7188 40.27 31.8988 41.25C32.0788 42.21 32.0088 43.43 31.6888 44.91C31.3488 46.53 30.8788 47.85 30.2788 48.87C29.6988 49.89 29.0288 50.67 28.2688 51.21C27.5288 51.75 26.7488 52.12 25.9288 52.32C25.1088 52.52 24.2988 52.62 23.4988 52.62H20.2588L19.0288 58.5H15.6988L20.1688 37.5H26.7088ZM20.9488 49.47H22.9288C23.7088 49.47 24.3888 49.42 24.9688 49.32C25.5488 49.22 26.0488 49.02 26.4688 48.72C26.9088 48.4 27.2788 47.94 27.5788 47.34C27.8788 46.74 28.1388 45.93 28.3588 44.91C28.5588 43.97 28.6288 43.23 28.5688 42.69C28.5088 42.13 28.3188 41.72 27.9988 41.46C27.6988 41.18 27.2788 41 26.7388 40.92C26.1988 40.84 25.5388 40.8 24.7588 40.8H22.7788L20.9488 49.47ZM30.9624 58.5L35.4324 37.5H45.4824L44.7924 40.8H38.0424L36.9324 46.08H41.0424L39.6924 49.23H36.2424L34.9224 55.47H41.6124L40.9524 58.5H30.9624ZM47.7664 37.5H51.1264L48.0064 52.17L59.2564 37.5H62.5864L58.1164 58.5H54.7864L57.8164 44.28L46.6564 58.5H43.2964L47.7664 37.5ZM68.4402 37.5L70.0002 52.26L77.9202 37.5H81.2502L76.7802 58.5H73.4802L75.8202 47.37L69.9402 58.5H67.4502L66.3102 47.4L63.9702 58.5H60.6402L65.1102 37.5H68.4402ZM93.7623 37.5H97.5723L86.8323 54.21C86.2923 55.05 85.7823 55.75 85.3023 56.31C84.8223 56.87 84.3323 57.34 83.8323 57.72C83.3323 58.08 82.7923 58.37 82.2123 58.59C81.6523 58.81 81.0123 59 80.2923 59.16L79.1823 57.57C79.6623 57.35 80.0923 57.16 80.4723 57C80.8723 56.82 81.2623 56.56 81.6423 56.22C82.0223 55.86 82.4323 55.34 82.8723 54.66L85.8423 49.98L82.7223 37.5H86.1723L88.0023 46.59L93.7623 37.5ZM111.489 55.2H115.209L113.709 62.25H110.949L111.129 58.5H110.799L111.489 55.2ZM112.329 37.5H115.689L111.219 58.5H94.5388L99.0088 37.5H102.339L98.5588 55.2H101.889L105.669 37.5H108.999L105.219 55.2H108.549L112.329 37.5ZM116.421 58.5L120.891 37.5H130.941L130.251 40.8H123.501L122.391 46.08H126.501L125.151 49.23H121.701L120.381 55.47H127.071L126.411 58.5H116.421ZM141.595 40.89C141.235 40.73 140.805 40.6 140.305 40.5C139.825 40.4 139.355 40.35 138.895 40.35C138.135 40.35 137.505 40.45 137.005 40.65C136.505 40.85 136.115 41.15 135.835 41.55C135.555 41.95 135.345 42.46 135.205 43.08L133.105 52.92C132.985 53.54 132.995 54.04 133.135 54.42C133.275 54.78 133.535 55.05 133.915 55.23C134.295 55.39 134.775 55.47 135.355 55.47C135.975 55.47 136.605 55.41 137.245 55.29C137.885 55.17 138.435 55.04 138.895 54.9C139.375 54.76 139.665 54.68 139.765 54.66L139.585 57.81C138.645 58.13 137.745 58.38 136.885 58.56C136.045 58.76 135.235 58.86 134.455 58.86C133.215 58.86 132.195 58.63 131.395 58.17C130.615 57.69 130.085 57.01 129.805 56.13C129.525 55.25 129.515 54.2 129.775 52.98L131.875 43.17C132.155 41.85 132.615 40.75 133.255 39.87C133.895 38.97 134.675 38.29 135.595 37.83C136.515 37.37 137.525 37.14 138.625 37.14C139.345 37.14 140.095 37.23 140.875 37.41C141.675 37.57 142.395 37.83 143.035 38.19L141.595 40.89ZM152.148 40.83L148.398 58.5H145.068L148.848 40.83H144.468L145.188 37.5H157.308L156.588 40.83H152.148ZM164.497 37.5C165.817 37.5 166.907 37.73 167.767 38.19C168.627 38.65 169.227 39.3 169.567 40.14C169.927 40.98 169.987 41.96 169.747 43.08C169.627 43.68 169.437 44.22 169.177 44.7C168.917 45.18 168.597 45.61 168.217 45.99C167.837 46.37 167.397 46.72 166.897 47.04C167.337 47.26 167.737 47.61 168.097 48.09C168.477 48.57 168.747 49.17 168.907 49.89C169.067 50.59 169.047 51.4 168.847 52.32C168.587 53.56 168.107 54.65 167.407 55.59C166.727 56.51 165.857 57.23 164.797 57.75C163.737 58.25 162.507 58.5 161.107 58.5H154.507L158.977 37.5H164.497ZM161.917 46.08C162.697 46.08 163.347 46 163.867 45.84C164.407 45.66 164.837 45.37 165.157 44.97C165.477 44.55 165.707 43.99 165.847 43.29C165.987 42.67 165.977 42.18 165.817 41.82C165.677 41.46 165.397 41.2 164.977 41.04C164.557 40.88 164.007 40.8 163.327 40.8H161.587L160.477 46.08H161.917ZM160.867 55.44C161.367 55.44 161.907 55.36 162.487 55.2C163.067 55.02 163.597 54.7 164.077 54.24C164.557 53.78 164.887 53.12 165.067 52.26C165.207 51.58 165.187 51.02 165.007 50.58C164.827 50.14 164.477 49.81 163.957 49.59C163.457 49.37 162.777 49.26 161.917 49.26H159.787L158.467 55.44H160.867ZM172.802 43.26C173.222 41.22 174.112 39.67 175.472 38.61C176.832 37.53 178.502 36.99 180.482 36.99C182.482 36.99 183.902 37.59 184.742 38.79C185.602 39.99 185.822 41.57 185.402 43.53L183.392 52.92C183.132 54.14 182.642 55.2 181.922 56.1C181.222 56.98 180.352 57.66 179.312 58.14C178.272 58.6 177.112 58.83 175.832 58.83C174.652 58.83 173.632 58.59 172.772 58.11C171.932 57.63 171.332 56.94 170.972 56.04C170.612 55.12 170.562 54.01 170.822 52.71L172.802 43.26ZM174.272 52.35C174.132 52.99 174.112 53.54 174.212 54C174.312 54.46 174.542 54.82 174.902 55.08C175.282 55.32 175.802 55.44 176.462 55.44C177.102 55.44 177.672 55.31 178.172 55.05C178.672 54.79 179.092 54.42 179.432 53.94C179.772 53.46 180.002 52.91 180.122 52.29L181.802 44.37C181.982 43.51 182.052 42.8 182.012 42.24C181.972 41.66 181.772 41.23 181.412 40.95C181.052 40.65 180.482 40.5 179.702 40.5C179.022 40.5 178.432 40.64 177.932 40.92C177.452 41.2 177.052 41.63 176.732 42.21C176.412 42.77 176.162 43.48 175.982 44.34L174.272 52.35Z" fill="white"/>
</g>
<defs>
<clipPath id="clip0_395_708">
<rect width="187" height="62" fill="white" transform="translate(0 0.5)"/>
</clipPath>
</defs>
</svg>
