<svg width="171" height="28" viewBox="0 0 171 28" fill="none" xmlns="http://www.w3.org/2000/svg">
<path d="M23.7592 27.9903L9.03149 0.913574H25.7815L28.1165 5.16848H16.8665L20.5927 11.9763H27.4427L28.5193 16.0378H22.7693L27.1593 24.0835H38.3093L40.4092 27.9903H23.7592ZM40.8215 10.1197L43.6811 0.913574H50.4811L46.6507 12.1698L67.2089 27.9903H60.5089L45.4922 15.8831L44.963 17.7398L50.5089 27.9903H44.6089L29.8811 0.913574H35.7811L40.8215 10.1197ZM96.1003 27.9903H89.5003L83.6207 20.873H75.5707L77.4503 27.9903H71.2003L64.9725 0.913574H72.7225L96.1003 27.9903ZM74.4638 16.3473H79.9138L71.7531 6.44495L74.4638 16.3473ZM95.1115 5.20716L107.523 27.9903H101.973L89.6115 5.20716H82.3115L79.9947 0.913574H100.195L102.512 5.20716H95.1115ZM103.614 0.913574H126.914L129.199 5.16848L122.613 23.1938L122.284 23.8901L139.915 23.9288L142.142 27.9903H117.642L115.51 24.0448L122.151 5.90342L122.499 5.16848L105.917 5.1298L103.614 0.913574ZM146.416 27.9903L131.688 0.913574H148.438L150.773 5.16848H139.523L143.249 11.9763H150.099L151.176 16.0378H145.426L149.816 24.0835H160.966L163.066 27.9903H146.416Z" fill="#DEF37B"/>
</svg>
