<svg width="187" height="62" viewBox="0 0 187 62" fill="none" xmlns="http://www.w3.org/2000/svg">
<path d="M10.82 4.32999L7.06998 22H3.73998L7.51998 4.32999H3.13998L3.85998 0.999989H15.98L15.26 4.32999H10.82ZM27.6392 0.999989H31.4492L20.7092 17.71C20.1692 18.55 19.6592 19.25 19.1792 19.81C18.6992 20.37 18.2092 20.84 17.7092 21.22C17.2092 21.58 16.6692 21.87 16.0892 22.09C15.5292 22.31 14.8892 22.5 14.1692 22.66L13.0592 21.07C13.5392 20.85 13.9692 20.66 14.3492 20.5C14.7492 20.32 15.1392 20.06 15.5192 19.72C15.8992 19.36 16.3092 18.84 16.7492 18.16L19.7192 13.48L16.5992 0.999989H20.0492L21.8792 10.09L27.6392 0.999989ZM38.9157 4.32999L35.1657 22H31.8357L35.6157 4.32999H31.2357L31.9557 0.999989H44.0757L43.3557 4.32999H38.9157ZM56.1931 8.13999L62.4331 0.999989H66.5131L58.6831 9.72999L63.2431 22H59.2231L56.1631 12.61L54.9331 14.05L53.2231 22H49.6831L54.1531 0.999989H57.6931L56.1931 8.13999ZM79.5819 22H75.6219L75.5919 16.48H70.7619L68.3919 22H64.6419L74.2119 0.999989H78.8619L79.5819 22ZM72.3219 12.97H75.5919L75.5619 5.28999L72.3219 12.97ZM88.0095 8.13999L94.2495 0.999989H98.3295L90.4995 9.72999L95.0595 22H91.0395L87.9795 12.61L86.7495 14.05L85.0395 22H81.4995L85.9695 0.999989H89.5095L88.0095 8.13999ZM100.058 6.75999C100.478 4.71999 101.368 3.16999 102.728 2.10999C104.088 1.02999 105.758 0.48999 107.738 0.48999C109.738 0.48999 111.158 1.08999 111.998 2.28999C112.858 3.48999 113.078 5.06999 112.658 7.02999L110.648 16.42C110.388 17.64 109.898 18.7 109.178 19.6C108.478 20.48 107.608 21.16 106.568 21.64C105.528 22.1 104.368 22.33 103.088 22.33C101.908 22.33 100.888 22.09 100.028 21.61C99.1883 21.13 98.5883 20.44 98.2283 19.54C97.8683 18.62 97.8183 17.51 98.0783 16.21L100.058 6.75999ZM101.528 15.85C101.388 16.49 101.368 17.04 101.468 17.5C101.568 17.96 101.798 18.32 102.158 18.58C102.538 18.82 103.058 18.94 103.718 18.94C104.358 18.94 104.928 18.81 105.428 18.55C105.928 18.29 106.348 17.92 106.688 17.44C107.028 16.96 107.258 16.41 107.378 15.79L109.058 7.86999C109.238 7.00999 109.308 6.29999 109.268 5.73999C109.228 5.15999 109.028 4.72999 108.668 4.44999C108.308 4.14999 107.738 3.99999 106.958 3.99999C106.278 3.99999 105.688 4.13999 105.188 4.41999C104.708 4.69999 104.308 5.12999 103.988 5.70999C103.668 6.26999 103.418 6.97999 103.238 7.83999L101.528 15.85ZM111.822 22L116.292 0.999989H126.342L125.652 4.29999H118.902L117.792 9.57999H121.902L120.552 12.73H117.102L115.782 18.97H122.472L121.812 22H111.822ZM125.926 12.79L126.616 9.57999H136.216L135.526 12.79H125.926ZM146.552 4.32999L142.802 22H139.472L143.252 4.32999H138.872L139.592 0.999989H151.712L150.992 4.32999H146.552ZM152.002 6.75999C152.422 4.71999 153.312 3.16999 154.672 2.10999C156.032 1.02999 157.702 0.48999 159.682 0.48999C161.682 0.48999 163.102 1.08999 163.942 2.28999C164.802 3.48999 165.022 5.06999 164.602 7.02999L162.592 16.42C162.332 17.64 161.842 18.7 161.122 19.6C160.422 20.48 159.552 21.16 158.512 21.64C157.472 22.1 156.312 22.33 155.032 22.33C153.852 22.33 152.832 22.09 151.972 21.61C151.132 21.13 150.532 20.44 150.172 19.54C149.812 18.62 149.762 17.51 150.022 16.21L152.002 6.75999ZM153.472 15.85C153.332 16.49 153.312 17.04 153.412 17.5C153.512 17.96 153.742 18.32 154.102 18.58C154.482 18.82 155.002 18.94 155.662 18.94C156.302 18.94 156.872 18.81 157.372 18.55C157.872 18.29 158.292 17.92 158.632 17.44C158.972 16.96 159.202 16.41 159.322 15.79L161.002 7.86999C161.182 7.00999 161.252 6.29999 161.212 5.73999C161.172 5.15999 160.972 4.72999 160.612 4.44999C160.252 4.14999 159.682 3.99999 158.902 3.99999C158.222 3.99999 157.632 4.13999 157.132 4.41999C156.652 4.69999 156.252 5.12999 155.932 5.70999C155.612 6.26999 155.362 6.97999 155.182 7.83999L153.472 15.85ZM9.85998 58L13.64 40.3H7.30998L3.55998 58H0.22998L4.69998 37H17.63L13.19 58H9.85998ZM26.7088 37C27.4888 37 28.2388 37.11 28.9588 37.33C29.6988 37.55 30.3288 37.93 30.8488 38.47C31.3688 39.01 31.7188 39.77 31.8988 40.75C32.0788 41.71 32.0088 42.93 31.6888 44.41C31.3488 46.03 30.8788 47.35 30.2788 48.37C29.6988 49.39 29.0288 50.17 28.2688 50.71C27.5288 51.25 26.7488 51.62 25.9288 51.82C25.1088 52.02 24.2988 52.12 23.4988 52.12H20.2588L19.0288 58H15.6988L20.1688 37H26.7088ZM20.9488 48.97H22.9288C23.7088 48.97 24.3888 48.92 24.9688 48.82C25.5488 48.72 26.0488 48.52 26.4688 48.22C26.9088 47.9 27.2788 47.44 27.5788 46.84C27.8788 46.24 28.1388 45.43 28.3588 44.41C28.5588 43.47 28.6288 42.73 28.5688 42.19C28.5088 41.63 28.3188 41.22 27.9988 40.96C27.6988 40.68 27.2788 40.5 26.7388 40.42C26.1988 40.34 25.5388 40.3 24.7588 40.3H22.7788L20.9488 48.97ZM30.9624 58L35.4324 37H45.4824L44.7924 40.3H38.0424L36.9324 45.58H41.0424L39.6924 48.73H36.2424L34.9224 54.97H41.6124L40.9524 58H30.9624ZM47.7664 37H51.1264L48.0064 51.67L59.2564 37H62.5864L58.1164 58H54.7864L57.8164 43.78L46.6564 58H43.2964L47.7664 37ZM68.4402 37L70.0002 51.76L77.9202 37H81.2502L76.7802 58H73.4802L75.8202 46.87L69.9402 58H67.4502L66.3102 46.9L63.9702 58H60.6402L65.1102 37H68.4402ZM93.7623 37H97.5723L86.8323 53.71C86.2923 54.55 85.7823 55.25 85.3023 55.81C84.8223 56.37 84.3323 56.84 83.8323 57.22C83.3323 57.58 82.7923 57.87 82.2123 58.09C81.6523 58.31 81.0123 58.5 80.2923 58.66L79.1823 57.07C79.6623 56.85 80.0923 56.66 80.4723 56.5C80.8723 56.32 81.2623 56.06 81.6423 55.72C82.0223 55.36 82.4323 54.84 82.8723 54.16L85.8423 49.48L82.7223 37H86.1723L88.0023 46.09L93.7623 37ZM111.489 54.7H115.209L113.709 61.75H110.949L111.129 58H110.799L111.489 54.7ZM112.329 37H115.689L111.219 58H94.5388L99.0088 37H102.339L98.5588 54.7H101.889L105.669 37H108.999L105.219 54.7H108.549L112.329 37ZM116.421 58L120.891 37H130.941L130.251 40.3H123.501L122.391 45.58H126.501L125.151 48.73H121.701L120.381 54.97H127.071L126.411 58H116.421ZM141.595 40.39C141.235 40.23 140.805 40.1 140.305 40C139.825 39.9 139.355 39.85 138.895 39.85C138.135 39.85 137.505 39.95 137.005 40.15C136.505 40.35 136.115 40.65 135.835 41.05C135.555 41.45 135.345 41.96 135.205 42.58L133.105 52.42C132.985 53.04 132.995 53.54 133.135 53.92C133.275 54.28 133.535 54.55 133.915 54.73C134.295 54.89 134.775 54.97 135.355 54.97C135.975 54.97 136.605 54.91 137.245 54.79C137.885 54.67 138.435 54.54 138.895 54.4C139.375 54.26 139.665 54.18 139.765 54.16L139.585 57.31C138.645 57.63 137.745 57.88 136.885 58.06C136.045 58.26 135.235 58.36 134.455 58.36C133.215 58.36 132.195 58.13 131.395 57.67C130.615 57.19 130.085 56.51 129.805 55.63C129.525 54.75 129.515 53.7 129.775 52.48L131.875 42.67C132.155 41.35 132.615 40.25 133.255 39.37C133.895 38.47 134.675 37.79 135.595 37.33C136.515 36.87 137.525 36.64 138.625 36.64C139.345 36.64 140.095 36.73 140.875 36.91C141.675 37.07 142.395 37.33 143.035 37.69L141.595 40.39ZM152.148 40.33L148.398 58H145.068L148.848 40.33H144.468L145.188 37H157.308L156.588 40.33H152.148ZM164.497 37C165.817 37 166.907 37.23 167.767 37.69C168.627 38.15 169.227 38.8 169.567 39.64C169.927 40.48 169.987 41.46 169.747 42.58C169.627 43.18 169.437 43.72 169.177 44.2C168.917 44.68 168.597 45.11 168.217 45.49C167.837 45.87 167.397 46.22 166.897 46.54C167.337 46.76 167.737 47.11 168.097 47.59C168.477 48.07 168.747 48.67 168.907 49.39C169.067 50.09 169.047 50.9 168.847 51.82C168.587 53.06 168.107 54.15 167.407 55.09C166.727 56.01 165.857 56.73 164.797 57.25C163.737 57.75 162.507 58 161.107 58H154.507L158.977 37H164.497ZM161.917 45.58C162.697 45.58 163.347 45.5 163.867 45.34C164.407 45.16 164.837 44.87 165.157 44.47C165.477 44.05 165.707 43.49 165.847 42.79C165.987 42.17 165.977 41.68 165.817 41.32C165.677 40.96 165.397 40.7 164.977 40.54C164.557 40.38 164.007 40.3 163.327 40.3H161.587L160.477 45.58H161.917ZM160.867 54.94C161.367 54.94 161.907 54.86 162.487 54.7C163.067 54.52 163.597 54.2 164.077 53.74C164.557 53.28 164.887 52.62 165.067 51.76C165.207 51.08 165.187 50.52 165.007 50.08C164.827 49.64 164.477 49.31 163.957 49.09C163.457 48.87 162.777 48.76 161.917 48.76H159.787L158.467 54.94H160.867ZM172.802 42.76C173.222 40.72 174.112 39.17 175.472 38.11C176.832 37.03 178.502 36.49 180.482 36.49C182.482 36.49 183.902 37.09 184.742 38.29C185.602 39.49 185.822 41.07 185.402 43.03L183.392 52.42C183.132 53.64 182.642 54.7 181.922 55.6C181.222 56.48 180.352 57.16 179.312 57.64C178.272 58.1 177.112 58.33 175.832 58.33C174.652 58.33 173.632 58.09 172.772 57.61C171.932 57.13 171.332 56.44 170.972 55.54C170.612 54.62 170.562 53.51 170.822 52.21L172.802 42.76ZM174.272 51.85C174.132 52.49 174.112 53.04 174.212 53.5C174.312 53.96 174.542 54.32 174.902 54.58C175.282 54.82 175.802 54.94 176.462 54.94C177.102 54.94 177.672 54.81 178.172 54.55C178.672 54.29 179.092 53.92 179.432 53.44C179.772 52.96 180.002 52.41 180.122 51.79L181.802 43.87C181.982 43.01 182.052 42.3 182.012 41.74C181.972 41.16 181.772 40.73 181.412 40.45C181.052 40.15 180.482 40 179.702 40C179.022 40 178.432 40.14 177.932 40.42C177.452 40.7 177.052 41.13 176.732 41.71C176.412 42.27 176.162 42.98 175.982 43.84L174.272 51.85Z" fill="white"/>
</svg>
