<svg width="362" height="30" viewBox="0 0 362 30" fill="none" xmlns="http://www.w3.org/2000/svg">
<g clip-path="url(#clip0_395_730)">
<path d="M16.8553 1.06104C19.0553 1.06104 21.1148 1.35759 23.034 1.95069C24.9531 2.5438 26.6396 3.38189 28.0933 4.46496C29.5804 5.54802 30.7154 6.8116 31.4982 8.25569C31.9319 9.02931 32.1855 9.72557 32.2591 10.3445C32.3327 10.9634 32.2535 11.5178 32.0214 12.0078C31.7894 12.4977 31.4257 12.949 30.9303 13.3616C31.896 13.6453 32.9323 14.0965 34.0392 14.7154C35.1795 15.3343 36.2631 16.1079 37.2902 17.0363C38.2961 17.9388 39.1182 18.9832 39.7565 20.1694C40.6327 21.7683 40.9838 23.1737 40.8098 24.3857C40.6481 25.5719 39.9585 26.5002 38.741 27.1707C37.5024 27.8154 35.7164 28.1377 33.3831 28.1377H22.3831L7.65527 1.06104H16.8553ZM21.6165 12.1238C22.9165 12.1238 23.9153 12.0207 24.613 11.8144C25.3229 11.5823 25.7333 11.2084 25.8442 10.6926C25.934 10.1511 25.7259 9.42901 25.22 8.52646C24.7986 7.72705 24.2644 7.09526 23.6176 6.63109C23.004 6.16692 22.2628 5.83169 21.3938 5.62539C20.5248 5.41909 19.5237 5.31594 18.3903 5.31594H15.4903L19.2165 12.1238H21.6165ZM29.7514 24.1923C30.5848 24.1923 31.4003 24.0891 32.198 23.8828C32.9745 23.6507 33.5199 23.2381 33.8341 22.645C34.1483 22.0519 34.0013 21.2009 33.3931 20.0921C32.9083 19.2153 32.2835 18.4933 31.5189 17.926C30.7542 17.3586 29.8223 16.9331 28.7233 16.6495C27.6577 16.3658 26.4082 16.224 24.9748 16.224H21.4248L25.7514 24.1923H29.7514ZM71.7749 28.1377H65.1749L59.2953 21.0204H51.2453L53.1249 28.1377H46.8749L40.6471 1.06104H48.3971L71.7749 28.1377ZM50.1384 16.4948H55.5884L47.4277 6.59241L50.1384 16.4948ZM78.2432 1.06104H85.3432L100.103 28.1764H94.5526L81.7713 4.69704H81.0713C80.4713 4.69704 79.9802 4.74862 79.5981 4.85177C79.1947 4.92913 78.9198 5.12253 78.7733 5.43198C78.639 5.71564 78.6192 6.17981 78.7139 6.8245L81.3903 22.6063C81.6398 24.0504 81.6964 25.198 81.5601 26.049C81.4026 26.8741 80.9807 27.5188 80.2942 27.983C79.62 28.4214 78.6218 28.7695 77.2996 29.0274L73.3705 26.9773C73.8715 26.6936 74.2769 26.4358 74.5868 26.2037C74.9301 25.9716 75.1555 25.6364 75.2631 25.198C75.3829 24.7338 75.3837 24.0633 75.2656 23.1866L72.8054 6.63109C72.6985 6.0122 72.6477 5.38041 72.653 4.73572C72.6705 4.06525 72.8241 3.45925 73.1139 2.91772C73.4159 2.3504 73.9629 1.89912 74.755 1.56389C75.5805 1.22865 76.7432 1.06104 78.2432 1.06104ZM100.251 1.06104H111.151L125.879 28.1377H120.329L116.219 20.5563H110.869C110.669 20.5563 110.469 20.5563 110.269 20.5563C110.069 20.5563 109.869 20.5563 109.669 20.5563C109.469 20.5563 109.258 20.5434 109.037 20.5176L109.729 28.1377H103.829L103.247 19.1251C102.221 18.6867 101.185 18.0936 100.139 17.3457C99.1264 16.5979 98.1327 15.6696 97.1578 14.5607C96.2162 13.4519 95.3224 12.1367 94.4762 10.6153C93.4465 8.70697 92.9081 7.13394 92.8609 5.89615C92.8259 4.63258 93.14 3.65266 93.803 2.9564C94.4994 2.26014 95.4148 1.77018 96.5491 1.48653C97.7168 1.20287 98.9506 1.06104 100.251 1.06104ZM110.692 16.4948H113.992L107.886 5.31594H104.586C103.286 5.31594 102.195 5.36751 101.313 5.47066C100.464 5.57381 99.837 5.8059 99.4327 6.16692C99.0073 6.50216 98.8403 7.0308 98.9317 7.75284C99.0353 8.4491 99.4168 9.40323 100.076 10.6153C100.82 11.9304 101.542 12.9748 102.243 13.7484C102.943 14.522 103.696 15.1151 104.5 15.5277C105.317 15.9145 106.228 16.1724 107.234 16.3014C108.239 16.4303 109.392 16.4948 110.692 16.4948ZM139.69 10.2671L142.549 1.06104H149.349L145.519 12.3172L166.077 28.1377H159.377L144.36 16.0306L143.831 17.8873L149.377 28.1377H143.477L128.749 1.06104H134.649L139.69 10.2671ZM193.308 28.1377H186.708L180.829 21.0204H172.779L174.658 28.1377H168.408L162.181 1.06104H169.931L193.308 28.1377ZM171.672 16.4948H177.122L168.961 6.59241L171.672 16.4948ZM192.677 1.06104C193.977 1.06104 195.343 1.20287 196.775 1.48653C198.241 1.77018 199.692 2.26014 201.129 2.9564C202.566 3.65266 203.952 4.63258 205.287 5.89615C206.601 7.13394 207.773 8.70697 208.802 10.6153C209.946 12.704 210.557 14.406 210.634 15.7211C210.745 17.0363 210.452 18.042 209.756 18.7383C209.093 19.4345 208.183 19.9116 207.028 20.1694C205.872 20.4273 204.628 20.5563 203.295 20.5563H197.895L202.054 28.1377H196.504L181.777 1.06104H192.677ZM195.718 16.4948H199.018C200.318 16.4948 201.399 16.4303 202.26 16.3014C203.121 16.1724 203.743 15.9145 204.126 15.5277C204.521 15.1151 204.652 14.522 204.519 13.7484C204.385 12.9748 203.963 11.9304 203.252 10.6153C202.593 9.40323 201.928 8.4491 201.258 7.75284C200.566 7.0308 199.817 6.50216 199.009 6.16692C198.213 5.8059 197.323 5.57381 196.338 5.47066C195.354 5.36751 194.212 5.31594 192.912 5.31594H189.612L195.718 16.4948ZM229.377 12.1238L223.316 1.06104H228.766L243.544 28.1377H238.044L231.554 16.1853H220.954L227.494 28.1377H221.944L207.216 1.06104H212.766L218.777 12.1238H229.377ZM271.775 28.1377H265.175L259.296 21.0204H251.246L253.125 28.1377H246.875L240.647 1.06104H248.397L271.775 28.1377ZM250.139 16.4948H255.589L247.428 6.59241L250.139 16.4948ZM269.443 1.06104C271.643 1.06104 273.703 1.35759 275.622 1.95069C277.541 2.5438 279.228 3.38189 280.682 4.46496C282.169 5.54802 283.304 6.8116 284.086 8.25569C284.52 9.02931 284.774 9.72557 284.847 10.3445C284.921 10.9634 284.842 11.5178 284.61 12.0078C284.378 12.4977 284.014 12.949 283.518 13.3616C284.484 13.6453 285.52 14.0965 286.627 14.7154C287.768 15.3343 288.851 16.1079 289.878 17.0363C290.884 17.9388 291.706 18.9832 292.345 20.1694C293.221 21.7683 293.572 23.1737 293.398 24.3857C293.236 25.5719 292.547 26.5002 291.329 27.1707C290.091 27.8154 288.305 28.1377 285.971 28.1377H274.971L260.243 1.06104H269.443ZM274.205 12.1238C275.505 12.1238 276.504 12.0207 277.201 11.8144C277.911 11.5823 278.322 11.2084 278.432 10.6926C278.522 10.1511 278.314 9.42901 277.808 8.52646C277.387 7.72705 276.853 7.09526 276.206 6.63109C275.592 6.16692 274.851 5.83169 273.982 5.62539C273.113 5.41909 272.112 5.31594 270.979 5.31594H268.079L271.805 12.1238H274.205ZM282.34 24.1923C283.173 24.1923 283.988 24.0891 284.786 23.8828C285.563 23.6507 286.108 23.2381 286.422 22.645C286.737 22.0519 286.589 21.2009 285.981 20.0921C285.496 19.2153 284.872 18.4933 284.107 17.926C283.342 17.3586 282.411 16.9331 281.312 16.6495C280.246 16.3658 278.996 16.224 277.563 16.224H274.013L278.34 24.1923H282.34ZM324.363 28.1377H317.763L311.883 21.0204H303.833L305.713 28.1377H299.463L293.235 1.06104H300.985L324.363 28.1377ZM302.727 16.4948H308.177L300.016 6.59241L302.727 16.4948ZM330.831 1.06104H337.931L352.691 28.1764H347.141L334.359 4.69704H333.659C333.059 4.69704 332.568 4.74862 332.186 4.85177C331.783 4.92913 331.508 5.12253 331.361 5.43198C331.227 5.71564 331.207 6.17981 331.302 6.8245L333.979 22.6063C334.228 24.0504 334.285 25.198 334.148 26.049C333.991 26.8741 333.569 27.5188 332.882 27.983C332.208 28.4214 331.21 28.7695 329.888 29.0274L325.959 26.9773C326.46 26.6936 326.865 26.4358 327.175 26.2037C327.518 25.9716 327.744 25.6364 327.851 25.198C327.971 24.7338 327.972 24.0633 327.854 23.1866L325.394 6.63109C325.287 6.0122 325.236 5.38041 325.241 4.73572C325.259 4.06525 325.412 3.45925 325.702 2.91772C326.004 2.3504 326.551 1.89912 327.343 1.56389C328.169 1.22865 329.331 1.06104 330.831 1.06104Z" fill="#DEF37B"/>
</g>
<defs>
<clipPath id="clip0_395_730">
<rect width="361" height="29" fill="white" transform="translate(0.166748 0.5)"/>
</clipPath>
</defs>
</svg>
