<svg width="395" height="49" viewBox="0 0 395 49" fill="none" xmlns="http://www.w3.org/2000/svg">
<g clip-path="url(#clip0_395_758)">
<path d="M4.12866 0.403809H6.70466L4.31266 11.6508L12.9376 0.403809H15.4906L12.0636 16.5038H9.51066L11.8336 5.60181L3.27766 16.5038H0.70166L4.12866 0.403809ZM17.0575 7.25781L17.6095 5.07281C18.0848 4.95014 18.5295 4.85814 18.9435 4.79681C19.3575 4.73547 19.7715 4.71247 20.1855 4.72781C20.9368 4.74314 21.5195 4.88881 21.9335 5.16481C22.3628 5.42547 22.6542 5.76281 22.8075 6.17681C22.9608 6.57547 23.0222 7.00481 22.9915 7.46481C22.9762 7.77147 22.8918 8.10881 22.7385 8.47681C22.5852 8.82947 22.3858 9.16681 22.1405 9.48881C21.8952 9.81081 21.6038 10.0791 21.2665 10.2938C21.6192 10.4778 21.9028 10.8535 22.1175 11.4208C22.3322 11.9881 22.3628 12.6015 22.2095 13.2608C22.0715 13.8588 21.7955 14.4261 21.3815 14.9628C20.9828 15.4841 20.4538 15.9135 19.7945 16.2508C19.1352 16.5881 18.3455 16.7568 17.4255 16.7568C16.7202 16.7568 16.0532 16.6878 15.4245 16.5498C14.7958 16.4118 14.2055 16.2201 13.6535 15.9748L14.8265 13.6978C15.0412 13.8205 15.2865 13.9278 15.5625 14.0198C15.8385 14.1118 16.1375 14.1808 16.4595 14.2268C16.7815 14.2728 17.1035 14.2958 17.4255 14.2958C17.8242 14.2958 18.1692 14.2421 18.4605 14.1348C18.7672 14.0275 19.0202 13.8818 19.2195 13.6978C19.4188 13.5138 19.5568 13.3068 19.6335 13.0768C19.6948 12.8928 19.7178 12.7241 19.7025 12.5708C19.7025 12.4021 19.6565 12.2565 19.5645 12.1338C19.4878 12.0111 19.3652 11.9191 19.1965 11.8578C19.0432 11.7965 18.8515 11.7658 18.6215 11.7658H16.9195L16.6665 9.55781H17.8855C18.4375 9.55781 18.8822 9.48881 19.2195 9.35081C19.5568 9.21281 19.8098 9.03647 19.9785 8.82181C20.1625 8.60714 20.2775 8.39247 20.3235 8.17781C20.3695 7.97847 20.3695 7.80981 20.3235 7.67181C20.2928 7.51847 20.2315 7.39581 20.1395 7.30381C20.0628 7.19647 19.9555 7.11981 19.8175 7.07381C19.6795 7.01247 19.5262 6.97414 19.3575 6.95881C19.0662 6.92814 18.7902 6.92814 18.5295 6.95881C18.2688 6.98947 18.0158 7.03547 17.7705 7.09681C17.5405 7.14281 17.3028 7.19647 17.0575 7.25781ZM31.7405 10.1328C32.1545 10.4395 32.4305 10.8535 32.5685 11.3748C32.7218 11.8961 32.7372 12.4635 32.6145 13.0768C32.4918 13.6748 32.2235 14.2575 31.8095 14.8248C31.3955 15.3768 30.8512 15.8368 30.1765 16.2048C29.5018 16.5728 28.7045 16.7568 27.7845 16.7568C27.4932 16.7568 27.1482 16.7491 26.7495 16.7338C26.3508 16.7185 25.9368 16.6955 25.5075 16.6648C25.0782 16.6341 24.6795 16.6035 24.3115 16.5728C23.9435 16.5575 23.6445 16.5421 23.4145 16.5268C23.1845 16.5115 23.0695 16.5038 23.0695 16.5038L25.5075 4.98081C25.5075 4.98081 25.6072 4.97314 25.8065 4.95781C26.0212 4.92714 26.3202 4.89647 26.7035 4.86581C27.1022 4.81981 27.5698 4.78914 28.1065 4.77381C28.6432 4.74314 29.2412 4.72781 29.9005 4.72781C30.3605 4.72781 30.8052 4.78147 31.2345 4.88881C31.6638 4.99614 32.0395 5.15714 32.3615 5.37181C32.6988 5.58647 32.9518 5.87014 33.1205 6.22281C33.3045 6.56014 33.3812 6.97414 33.3505 7.46481C33.3198 7.94014 33.1512 8.43081 32.8445 8.93681C32.5532 9.42747 32.1852 9.82614 31.7405 10.1328ZM29.4865 6.95881C29.3485 6.95881 29.2028 6.95881 29.0495 6.95881C28.8962 6.95881 28.7352 6.96647 28.5665 6.98181C28.4132 6.98181 28.2522 6.98947 28.0835 7.00481C27.9302 7.00481 27.7768 7.00481 27.6235 7.00481L27.0715 9.55781H28.2445C28.7965 9.55781 29.2412 9.48881 29.5785 9.35081C29.9158 9.21281 30.1688 9.03647 30.3375 8.82181C30.5215 8.60714 30.6365 8.39247 30.6825 8.17781C30.7285 7.97847 30.7208 7.80981 30.6595 7.67181C30.5982 7.51847 30.5062 7.38814 30.3835 7.28081C30.2762 7.17347 30.1382 7.09681 29.9695 7.05081C29.8162 6.98947 29.6552 6.95881 29.4865 6.95881ZM27.8995 14.1578C28.2522 14.1578 28.5818 14.1195 28.8885 14.0428C29.1952 13.9661 29.4558 13.8435 29.6705 13.6748C29.8852 13.4908 30.0232 13.2531 30.0845 12.9618C30.1305 12.7778 30.1228 12.6091 30.0615 12.4558C30.0155 12.3025 29.9235 12.1798 29.7855 12.0878C29.6628 11.9805 29.5018 11.9038 29.3025 11.8578C29.1185 11.7965 28.9115 11.7658 28.6815 11.7658H26.6115L26.1055 14.1118C26.2742 14.1118 26.4428 14.1195 26.6115 14.1348C26.7802 14.1348 26.9412 14.1425 27.0945 14.1578C27.2478 14.1578 27.3935 14.1578 27.5315 14.1578C27.6695 14.1578 27.7922 14.1578 27.8995 14.1578ZM36.6221 13.0768C36.5761 13.2761 36.5684 13.4601 36.5991 13.6288C36.6297 13.7821 36.6834 13.9201 36.7601 14.0428C36.8521 14.1655 36.9747 14.2575 37.1281 14.3188C37.2814 14.3801 37.4577 14.4108 37.6571 14.4108C38.0711 14.4108 38.5617 14.3188 39.1291 14.1348C39.6964 13.9508 40.2484 13.7361 40.7851 13.4908L41.2451 15.6988C40.6317 16.0361 39.9571 16.3045 39.2211 16.5038C38.4851 16.7031 37.7721 16.8028 37.0821 16.8028C36.5454 16.8028 36.0547 16.7338 35.6101 16.5958C35.1807 16.4578 34.8204 16.2508 34.5291 15.9748C34.2531 15.6988 34.0614 15.3461 33.9541 14.9168C33.8621 14.4875 33.8774 13.9815 34.0001 13.3988L35.0121 8.68381C35.1961 7.84047 35.5181 7.12747 35.9781 6.54481C36.4534 5.96214 37.0284 5.51747 37.7031 5.21081C38.3931 4.90414 39.1521 4.75081 39.9801 4.75081C40.8081 4.75081 41.4981 4.89647 42.0501 5.18781C42.6174 5.47914 43.0161 5.90847 43.2461 6.47581C43.4761 7.04314 43.4991 7.75614 43.3151 8.61481L42.5561 12.2028L36.7601 12.5018L36.6221 13.0768ZM40.6241 9.30481C40.6854 8.98281 40.7161 8.65314 40.7161 8.31581C40.7161 7.97847 40.6317 7.70247 40.4631 7.48781C40.3097 7.25781 40.0031 7.15814 39.5431 7.18881C39.0677 7.20414 38.6921 7.30381 38.4161 7.48781C38.1554 7.65647 37.9484 7.89414 37.7951 8.20081C37.6571 8.49214 37.5344 8.85247 37.4271 9.28181L37.2431 10.1788L40.4631 9.97181L40.6241 9.30481ZM51.843 7.44181C51.567 7.28847 51.2527 7.17347 50.9 7.09681C50.5627 7.00481 50.2177 6.95114 49.865 6.93581C49.451 6.93581 49.06 7.00481 48.692 7.14281C48.324 7.26547 48.0097 7.47247 47.749 7.76381C47.4884 8.03981 47.312 8.40781 47.22 8.86781L46.461 12.4788C46.3844 12.8315 46.3767 13.1458 46.438 13.4218C46.4994 13.6825 46.6144 13.8971 46.783 14.0658C46.967 14.2345 47.197 14.3648 47.473 14.4568C47.749 14.5335 48.0634 14.5718 48.416 14.5718C48.6614 14.5718 48.9067 14.5641 49.152 14.5488C49.4127 14.5181 49.6427 14.4875 49.842 14.4568C50.0414 14.4108 50.2024 14.3801 50.325 14.3648C50.4477 14.3341 50.509 14.3188 50.509 14.3188L50.532 16.3888C50.026 16.5115 49.5124 16.6111 48.991 16.6878C48.4697 16.7645 47.9484 16.7951 47.427 16.7798C46.553 16.7645 45.817 16.6035 45.219 16.2968C44.621 15.9901 44.207 15.5225 43.977 14.8938C43.747 14.2651 43.7317 13.4678 43.931 12.5018L44.667 9.14381C44.8664 8.25447 45.1807 7.47247 45.61 6.79781C46.0547 6.12314 46.6374 5.60181 47.358 5.23381C48.094 4.86581 48.991 4.69714 50.049 4.72781C50.5397 4.74314 51.015 4.81981 51.475 4.95781C51.9504 5.09581 52.395 5.27214 52.809 5.48681L51.843 7.44181ZM57.2426 13.0998C57.166 13.4831 57.143 13.8128 57.1736 14.0888C57.2196 14.3648 57.327 14.5948 57.4956 14.7788C57.6796 14.9475 57.9326 15.0931 58.2546 15.2158L56.7826 16.9638C56.3533 16.8411 55.9776 16.6801 55.6556 16.4808C55.349 16.2661 55.1036 16.0131 54.9196 15.7218C54.7356 15.4151 54.6206 15.0701 54.5746 14.6868C54.5286 14.3035 54.5516 13.8895 54.6436 13.4448L55.9316 7.37281H53.7926L54.2986 4.98081H61.2676L60.7616 7.37281H58.4616L57.2426 13.0998ZM67.8997 9.00581L68.7507 5.00381H71.2807L68.8427 16.5038H66.3127L67.3937 11.4208H63.9897L62.9087 16.5038H60.3557L62.7937 5.00381H65.3467L64.4957 9.00581H67.8997ZM81.432 5.30281C81.2787 5.77814 81.1483 6.20747 81.041 6.59081C80.949 6.95881 80.8723 7.27314 80.811 7.53381L78.925 16.3888C78.925 16.3888 78.8177 16.3965 78.603 16.4118C78.4037 16.4271 78.1277 16.4501 77.775 16.4808C77.4377 16.4961 77.0543 16.5115 76.625 16.5268C76.211 16.5421 75.7893 16.5575 75.36 16.5728C74.946 16.5881 74.5627 16.5958 74.21 16.5958C73.5047 16.5958 72.9297 16.4885 72.485 16.2738C72.0557 16.0591 71.7337 15.7678 71.519 15.3998C71.3043 15.0318 71.1817 14.6101 71.151 14.1348C71.1357 13.6441 71.1817 13.1305 71.289 12.5938L72.209 8.33881C72.347 7.66414 72.5387 7.10447 72.784 6.65981C73.0447 6.19981 73.336 5.83947 73.658 5.57881C73.9953 5.30281 74.3633 5.11114 74.762 5.00381C75.1607 4.88114 75.59 4.81981 76.05 4.81981C76.5253 4.81981 76.9623 4.85047 77.361 4.91181C77.7597 4.97314 78.0893 5.04214 78.35 5.11881C78.626 5.19547 78.8177 5.25681 78.925 5.30281C78.925 5.30281 78.9557 5.24147 79.017 5.11881C79.0937 4.98081 79.178 4.85047 79.27 4.72781L81.432 5.30281ZM73.819 12.6168C73.727 13.1228 73.7117 13.5138 73.773 13.7898C73.8343 14.0505 73.9723 14.2345 74.187 14.3418C74.417 14.4338 74.716 14.4798 75.084 14.4798C75.222 14.4798 75.36 14.4798 75.498 14.4798C75.636 14.4798 75.774 14.4798 75.912 14.4798C76.05 14.4645 76.188 14.4491 76.326 14.4338C76.4793 14.4185 76.6327 14.4031 76.786 14.3878L78.212 7.60281C78.1047 7.54147 77.9743 7.48781 77.821 7.44181C77.6677 7.38047 77.499 7.32681 77.315 7.28081C77.1463 7.23481 76.9777 7.20414 76.809 7.18881C76.6557 7.15814 76.5177 7.14281 76.395 7.14281C76.2723 7.14281 76.1267 7.15047 75.958 7.16581C75.8047 7.18114 75.6437 7.23481 75.475 7.32681C75.3063 7.40347 75.153 7.52614 75.015 7.69481C74.877 7.86347 74.7773 8.10114 74.716 8.40781L73.819 12.6168ZM87.1854 4.75081C87.4767 4.75081 87.8217 4.75847 88.2204 4.77381C88.6344 4.78914 89.0561 4.81214 89.4854 4.84281C89.9147 4.85814 90.3134 4.88114 90.6814 4.91181C91.0647 4.94247 91.3714 4.96547 91.6014 4.98081C91.8467 4.99614 91.9694 5.00381 91.9694 5.00381L89.5314 16.5038H86.9784L87.9444 11.9728H86.6564C86.5951 11.9728 86.5261 11.9728 86.4494 11.9728C86.3881 11.9728 86.3267 11.9728 86.2654 11.9728C86.2041 11.9728 86.1351 11.9728 86.0584 11.9728L83.5744 16.5038H80.8374L83.7354 11.5588C83.3981 11.3901 83.0991 11.1678 82.8384 10.8918C82.5931 10.6005 82.4244 10.2478 82.3324 9.83381C82.2404 9.41981 82.2481 8.95214 82.3554 8.43081C82.4781 7.83281 82.7464 7.25014 83.1604 6.68281C83.5744 6.11547 84.1187 5.65547 84.7934 5.30281C85.4681 4.93481 86.2654 4.75081 87.1854 4.75081ZM86.3114 9.58081H88.4504L88.9104 7.39581C88.7417 7.39581 88.5654 7.39581 88.3814 7.39581C88.2127 7.38047 88.0441 7.37281 87.8754 7.37281C87.7221 7.35747 87.5764 7.34981 87.4384 7.34981C87.3004 7.34981 87.1777 7.34981 87.0704 7.34981C86.5491 7.34981 86.0967 7.43414 85.7134 7.60281C85.3301 7.75614 85.0924 8.05514 85.0004 8.49981C84.9544 8.68381 84.9544 8.84481 85.0004 8.98281C85.0464 9.12081 85.1231 9.23581 85.2304 9.32781C85.3531 9.41981 85.5064 9.48881 85.6904 9.53481C85.8744 9.56547 86.0814 9.58081 86.3114 9.58081ZM106.446 7.44181C106.17 7.28847 105.856 7.17347 105.503 7.09681C105.166 7.00481 104.821 6.95114 104.468 6.93581C104.054 6.93581 103.663 7.00481 103.295 7.14281C102.927 7.26547 102.613 7.47247 102.352 7.76381C102.091 8.03981 101.915 8.40781 101.823 8.86781L101.064 12.4788C100.987 12.8315 100.98 13.1458 101.041 13.4218C101.102 13.6825 101.217 13.8971 101.386 14.0658C101.57 14.2345 101.8 14.3648 102.076 14.4568C102.352 14.5335 102.666 14.5718 103.019 14.5718C103.264 14.5718 103.51 14.5641 103.755 14.5488C104.016 14.5181 104.246 14.4875 104.445 14.4568C104.644 14.4108 104.805 14.3801 104.928 14.3648C105.051 14.3341 105.112 14.3188 105.112 14.3188L105.135 16.3888C104.629 16.5115 104.115 16.6111 103.594 16.6878C103.073 16.7645 102.551 16.7951 102.03 16.7798C101.156 16.7645 100.42 16.6035 99.8216 16.2968C99.2236 15.9901 98.8096 15.5225 98.5796 14.8938C98.3496 14.2651 98.3342 13.4678 98.5336 12.5018L99.2696 9.14381C99.4689 8.25447 99.7832 7.47247 100.213 6.79781C100.657 6.12314 101.24 5.60181 101.961 5.23381C102.697 4.86581 103.594 4.69714 104.652 4.72781C105.143 4.74314 105.618 4.81981 106.078 4.95781C106.553 5.09581 106.998 5.27214 107.412 5.48681L106.446 7.44181ZM111.846 13.0998C111.769 13.4831 111.746 13.8128 111.777 14.0888C111.823 14.3648 111.93 14.5948 112.099 14.7788C112.283 14.9475 112.536 15.0931 112.858 15.2158L111.386 16.9638C110.956 16.8411 110.581 16.6801 110.259 16.4808C109.952 16.2661 109.707 16.0131 109.523 15.7218C109.339 15.4151 109.224 15.0701 109.178 14.6868C109.132 14.3035 109.155 13.8895 109.247 13.4448L110.535 7.37281H108.396L108.902 4.98081H115.871L115.365 7.37281H113.065L111.846 13.0998ZM124.274 12.5708C124.09 13.5061 123.775 14.2958 123.331 14.9398C122.901 15.5838 122.365 16.0745 121.721 16.4118C121.077 16.7338 120.325 16.8948 119.467 16.8948C119.283 16.8948 119.099 16.8795 118.915 16.8488C118.731 16.8181 118.554 16.7798 118.386 16.7338C118.217 16.6878 118.056 16.6265 117.903 16.5498C117.765 16.4885 117.634 16.4195 117.512 16.3428L116.431 21.4718L114.016 20.8968L116.477 9.32781C116.783 7.87114 117.389 6.75947 118.294 5.99281C119.214 5.21081 120.371 4.81981 121.767 4.81981C123.085 4.81981 124.028 5.21847 124.596 6.01581C125.163 6.81314 125.293 7.91714 124.987 9.32781L124.274 12.5708ZM122.48 9.18981C122.556 8.82181 122.556 8.50747 122.48 8.24681C122.403 7.97081 122.25 7.75614 122.02 7.60281C121.79 7.44947 121.491 7.37281 121.123 7.37281C120.77 7.37281 120.448 7.44181 120.157 7.57981C119.865 7.71781 119.628 7.92481 119.444 8.20081C119.26 8.46147 119.122 8.79114 119.03 9.18981L118.133 13.3988C118.087 13.5981 118.11 13.7745 118.202 13.9278C118.309 14.0811 118.455 14.2115 118.639 14.3188C118.823 14.4261 119.014 14.5028 119.214 14.5488C119.428 14.5948 119.628 14.6178 119.812 14.6178C120.149 14.6178 120.44 14.5488 120.686 14.4108C120.946 14.2728 121.161 14.0811 121.33 13.8358C121.498 13.5751 121.613 13.2685 121.675 12.9158L122.48 9.18981ZM130.192 5.00381L128.743 11.8348L133.573 5.00381H136.149L133.711 16.5268H131.135L132.561 9.74181L127.754 16.5268H125.224L127.662 5.00381H130.192ZM146.874 5.00381H149.68L147.242 16.5268H144.712L146 10.4318L142.32 16.5268H140.411L139.261 10.4318L137.973 16.5268H135.42L137.858 5.00381H140.71L142.067 13.0998L146.874 5.00381ZM152.184 13.0768C152.138 13.2761 152.13 13.4601 152.161 13.6288C152.192 13.7821 152.245 13.9201 152.322 14.0428C152.414 14.1655 152.537 14.2575 152.69 14.3188C152.843 14.3801 153.02 14.4108 153.219 14.4108C153.633 14.4108 154.124 14.3188 154.691 14.1348C155.258 13.9508 155.81 13.7361 156.347 13.4908L156.807 15.6988C156.194 16.0361 155.519 16.3045 154.783 16.5038C154.047 16.7031 153.334 16.8028 152.644 16.8028C152.107 16.8028 151.617 16.7338 151.172 16.5958C150.743 16.4578 150.382 16.2508 150.091 15.9748C149.815 15.6988 149.623 15.3461 149.516 14.9168C149.424 14.4875 149.439 13.9815 149.562 13.3988L150.574 8.68381C150.758 7.84047 151.08 7.12747 151.54 6.54481C152.015 5.96214 152.59 5.51747 153.265 5.21081C153.955 4.90414 154.714 4.75081 155.542 4.75081C156.37 4.75081 157.06 4.89647 157.612 5.18781C158.179 5.47914 158.578 5.90847 158.808 6.47581C159.038 7.04314 159.061 7.75614 158.877 8.61481L158.118 12.2028L152.322 12.5018L152.184 13.0768ZM156.186 9.30481C156.247 8.98281 156.278 8.65314 156.278 8.31581C156.278 7.97847 156.194 7.70247 156.025 7.48781C155.872 7.25781 155.565 7.15814 155.105 7.18881C154.63 7.20414 154.254 7.30381 153.978 7.48781C153.717 7.65647 153.51 7.89414 153.357 8.20081C153.219 8.49214 153.096 8.85247 152.989 9.28181L152.805 10.1788L156.025 9.97181L156.186 9.30481ZM168.095 12.5708C167.911 13.5061 167.597 14.2958 167.152 14.9398C166.723 15.5838 166.186 16.0745 165.542 16.4118C164.898 16.7338 164.147 16.8948 163.288 16.8948C163.104 16.8948 162.92 16.8795 162.736 16.8488C162.552 16.8181 162.376 16.7798 162.207 16.7338C162.038 16.6878 161.877 16.6265 161.724 16.5498C161.586 16.4885 161.456 16.4195 161.333 16.3428L160.252 21.4718L157.837 20.8968L160.298 9.32781C160.605 7.87114 161.21 6.75947 162.115 5.99281C163.035 5.21081 164.193 4.81981 165.588 4.81981C166.907 4.81981 167.85 5.21847 168.417 6.01581C168.984 6.81314 169.115 7.91714 168.808 9.32781L168.095 12.5708ZM166.301 9.18981C166.378 8.82181 166.378 8.50747 166.301 8.24681C166.224 7.97081 166.071 7.75614 165.841 7.60281C165.611 7.44947 165.312 7.37281 164.944 7.37281C164.591 7.37281 164.269 7.44181 163.978 7.57981C163.687 7.71781 163.449 7.92481 163.265 8.20081C163.081 8.46147 162.943 8.79114 162.851 9.18981L161.954 13.3988C161.908 13.5981 161.931 13.7745 162.023 13.9278C162.13 14.0811 162.276 14.2115 162.46 14.3188C162.644 14.4261 162.836 14.5028 163.035 14.5488C163.25 14.5948 163.449 14.6178 163.633 14.6178C163.97 14.6178 164.262 14.5488 164.507 14.4108C164.768 14.2728 164.982 14.0811 165.151 13.8358C165.32 13.5751 165.435 13.2685 165.496 12.9158L166.301 9.18981ZM181.144 5.00381H183.697L181.259 16.5038H169.161L171.599 5.00381H174.152L172.243 13.9738H174.451L176.36 5.00381H178.913L177.004 13.9738H179.235L181.144 5.00381ZM194.029 5.30281C193.876 5.77814 193.745 6.20747 193.638 6.59081C193.546 6.95881 193.469 7.27314 193.408 7.53381L191.522 16.3888C191.522 16.3888 191.415 16.3965 191.2 16.4118C191.001 16.4271 190.725 16.4501 190.372 16.4808C190.035 16.4961 189.651 16.5115 189.222 16.5268C188.808 16.5421 188.386 16.5575 187.957 16.5728C187.543 16.5881 187.16 16.5958 186.807 16.5958C186.102 16.5958 185.527 16.4885 185.082 16.2738C184.653 16.0591 184.331 15.7678 184.116 15.3998C183.901 15.0318 183.779 14.6101 183.748 14.1348C183.733 13.6441 183.779 13.1305 183.886 12.5938L184.806 8.33881C184.944 7.66414 185.136 7.10447 185.381 6.65981C185.642 6.19981 185.933 5.83947 186.255 5.57881C186.592 5.30281 186.96 5.11114 187.359 5.00381C187.758 4.88114 188.187 4.81981 188.647 4.81981C189.122 4.81981 189.559 4.85047 189.958 4.91181C190.357 4.97314 190.686 5.04214 190.947 5.11881C191.223 5.19547 191.415 5.25681 191.522 5.30281C191.522 5.30281 191.553 5.24147 191.614 5.11881C191.691 4.98081 191.775 4.85047 191.867 4.72781L194.029 5.30281ZM186.416 12.6168C186.324 13.1228 186.309 13.5138 186.37 13.7898C186.431 14.0505 186.569 14.2345 186.784 14.3418C187.014 14.4338 187.313 14.4798 187.681 14.4798C187.819 14.4798 187.957 14.4798 188.095 14.4798C188.233 14.4798 188.371 14.4798 188.509 14.4798C188.647 14.4645 188.785 14.4491 188.923 14.4338C189.076 14.4185 189.23 14.4031 189.383 14.3878L190.809 7.60281C190.702 7.54147 190.571 7.48781 190.418 7.44181C190.265 7.38047 190.096 7.32681 189.912 7.28081C189.743 7.23481 189.575 7.20414 189.406 7.18881C189.253 7.15814 189.115 7.14281 188.992 7.14281C188.869 7.14281 188.724 7.15047 188.555 7.16581C188.402 7.18114 188.241 7.23481 188.072 7.32681C187.903 7.40347 187.75 7.52614 187.612 7.69481C187.474 7.86347 187.374 8.10114 187.313 8.40781L186.416 12.6168ZM193.779 18.0218C193.948 17.8071 194.078 17.5848 194.17 17.3548C194.278 17.1401 194.385 16.9178 194.492 16.6878C194.201 16.6111 193.986 16.4501 193.848 16.2048C193.71 15.9595 193.672 15.6758 193.733 15.3538C193.81 14.9858 194.009 14.6638 194.331 14.3878C194.669 14.1118 195.029 13.9738 195.412 13.9738C195.78 13.9738 196.064 14.1118 196.263 14.3878C196.463 14.6638 196.524 14.9858 196.447 15.3538C196.355 15.8751 196.187 16.3275 195.941 16.7108C195.711 17.0941 195.458 17.4085 195.182 17.6538C194.922 17.9145 194.699 18.1061 194.515 18.2288C194.331 18.3515 194.247 18.4128 194.262 18.4128L193.779 18.0218ZM212.956 10.1328C213.37 10.4395 213.646 10.8535 213.784 11.3748C213.937 11.8961 213.952 12.4635 213.83 13.0768C213.707 13.6748 213.439 14.2575 213.025 14.8248C212.611 15.3768 212.066 15.8368 211.392 16.2048C210.717 16.5728 209.92 16.7568 209 16.7568C208.708 16.7568 208.363 16.7491 207.965 16.7338C207.566 16.7185 207.152 16.6955 206.723 16.6648C206.293 16.6341 205.895 16.6035 205.527 16.5728C205.159 16.5575 204.86 16.5421 204.63 16.5268C204.4 16.5115 204.285 16.5038 204.285 16.5038L206.723 4.98081C206.723 4.98081 206.822 4.97314 207.022 4.95781C207.236 4.92714 207.535 4.89647 207.919 4.86581C208.317 4.81981 208.785 4.78914 209.322 4.77381C209.858 4.74314 210.456 4.72781 211.116 4.72781C211.576 4.72781 212.02 4.78147 212.45 4.88881C212.879 4.99614 213.255 5.15714 213.577 5.37181C213.914 5.58647 214.167 5.87014 214.336 6.22281C214.52 6.56014 214.596 6.97414 214.566 7.46481C214.535 7.94014 214.366 8.43081 214.06 8.93681C213.768 9.42747 213.4 9.82614 212.956 10.1328ZM210.702 6.95881C210.564 6.95881 210.418 6.95881 210.265 6.95881C210.111 6.95881 209.95 6.96647 209.782 6.98181C209.628 6.98181 209.467 6.98947 209.299 7.00481C209.145 7.00481 208.992 7.00481 208.839 7.00481L208.287 9.55781H209.46C210.012 9.55781 210.456 9.48881 210.794 9.35081C211.131 9.21281 211.384 9.03647 211.553 8.82181C211.737 8.60714 211.852 8.39247 211.898 8.17781C211.944 7.97847 211.936 7.80981 211.875 7.67181C211.813 7.51847 211.721 7.38814 211.599 7.28081C211.491 7.17347 211.353 7.09681 211.185 7.05081C211.031 6.98947 210.87 6.95881 210.702 6.95881ZM209.115 14.1578C209.467 14.1578 209.797 14.1195 210.104 14.0428C210.41 13.9661 210.671 13.8435 210.886 13.6748C211.1 13.4908 211.238 13.2531 211.3 12.9618C211.346 12.7778 211.338 12.6091 211.277 12.4558C211.231 12.3025 211.139 12.1798 211.001 12.0878C210.878 11.9805 210.717 11.9038 210.518 11.8578C210.334 11.7965 210.127 11.7658 209.897 11.7658H207.827L207.321 14.1118C207.489 14.1118 207.658 14.1195 207.827 14.1348C207.995 14.1348 208.156 14.1425 208.31 14.1578C208.463 14.1578 208.609 14.1578 208.747 14.1578C208.885 14.1578 209.007 14.1578 209.115 14.1578ZM219.654 5.00381L218.205 11.8348L223.035 5.00381H225.611L223.173 16.5268H220.597L222.023 9.74181L217.216 16.5268H214.686L217.124 5.00381H219.654ZM235.692 13.9968H236.98L235.83 19.4018H233.714L233.852 16.5268H226.86L225.756 19.4018H223.64L224.79 13.9968H226.354L229.137 8.45381C229.321 8.08581 229.536 7.70247 229.781 7.30381C230.042 6.88981 230.341 6.50647 230.678 6.15381C231.031 5.80114 231.452 5.51747 231.943 5.30281C232.449 5.08814 233.047 4.98081 233.737 4.98081H237.601L235.692 13.9968ZM228.999 13.9968H233.139L234.611 7.14281H233.898C233.653 7.14281 233.423 7.16581 233.208 7.21181C232.993 7.24247 232.794 7.31147 232.61 7.41881C232.426 7.52614 232.25 7.67181 232.081 7.85581C231.912 8.03981 231.759 8.27747 231.621 8.56881L228.999 13.9968ZM240.747 13.0768C240.701 13.2761 240.694 13.4601 240.724 13.6288C240.755 13.7821 240.809 13.9201 240.885 14.0428C240.977 14.1655 241.1 14.2575 241.253 14.3188C241.407 14.3801 241.583 14.4108 241.782 14.4108C242.196 14.4108 242.687 14.3188 243.254 14.1348C243.822 13.9508 244.374 13.7361 244.91 13.4908L245.37 15.6988C244.757 16.0361 244.082 16.3045 243.346 16.5038C242.61 16.7031 241.897 16.8028 241.207 16.8028C240.671 16.8028 240.18 16.7338 239.735 16.5958C239.306 16.4578 238.946 16.2508 238.654 15.9748C238.378 15.6988 238.187 15.3461 238.079 14.9168C237.987 14.4875 238.003 13.9815 238.125 13.3988L239.137 8.68381C239.321 7.84047 239.643 7.12747 240.103 6.54481C240.579 5.96214 241.154 5.51747 241.828 5.21081C242.518 4.90414 243.277 4.75081 244.105 4.75081C244.933 4.75081 245.623 4.89647 246.175 5.18781C246.743 5.47914 247.141 5.90847 247.371 6.47581C247.601 7.04314 247.624 7.75614 247.44 8.61481L246.681 12.2028L240.885 12.5018L240.747 13.0768ZM244.749 9.30481C244.811 8.98281 244.841 8.65314 244.841 8.31581C244.841 7.97847 244.757 7.70247 244.588 7.48781C244.435 7.25781 244.128 7.15814 243.668 7.18881C243.193 7.20414 242.817 7.30381 242.541 7.48781C242.281 7.65647 242.074 7.89414 241.92 8.20081C241.782 8.49214 241.66 8.85247 241.552 9.28181L241.368 10.1788L244.588 9.97181L244.749 9.30481ZM256.612 12.2488C256.336 13.5981 255.761 14.6868 254.887 15.5148C254.029 16.3275 252.894 16.7338 251.483 16.7338C250.471 16.7338 249.689 16.5268 249.137 16.1128C248.601 15.6835 248.256 15.1315 248.102 14.4568C247.949 13.7668 247.949 13.0308 248.102 12.2488L248.769 9.21281C248.984 8.23147 249.321 7.41114 249.781 6.75181C250.257 6.09247 250.847 5.59414 251.552 5.25681C252.273 4.90414 253.101 4.72781 254.036 4.72781C255.37 4.72781 256.321 5.12647 256.888 5.92381C257.456 6.70581 257.586 7.80214 257.279 9.21281L256.612 12.2488ZM254.703 9.07481C254.78 8.70681 254.788 8.39247 254.726 8.13181C254.665 7.85581 254.527 7.64881 254.312 7.51081C254.113 7.35747 253.829 7.28081 253.461 7.28081C253.093 7.28081 252.764 7.34981 252.472 7.48781C252.196 7.62581 251.959 7.82514 251.759 8.08581C251.575 8.34647 251.437 8.67614 251.345 9.07481L250.632 12.4328C250.571 12.7395 250.571 13.0308 250.632 13.3068C250.694 13.5828 250.832 13.8051 251.046 13.9738C251.261 14.1425 251.575 14.2268 251.989 14.2268C252.373 14.2268 252.695 14.1501 252.955 13.9968C253.231 13.8435 253.454 13.6288 253.622 13.3528C253.791 13.0768 253.914 12.7701 253.99 12.4328L254.703 9.07481ZM264.148 4.81981C265.006 4.81981 265.689 4.98081 266.195 5.30281C266.701 5.62481 267.03 6.10781 267.184 6.75181C267.352 7.39581 267.337 8.19314 267.138 9.14381L266.471 12.2488C266.179 13.6441 265.581 14.7481 264.677 15.5608C263.772 16.3581 262.66 16.7568 261.342 16.7568C260.483 16.7568 259.762 16.5881 259.18 16.2508C258.612 15.8981 258.214 15.3921 257.984 14.7328C257.769 14.0581 257.761 13.2301 257.961 12.2488L259.41 5.46381C259.532 4.89647 259.747 4.32147 260.054 3.73881C260.376 3.15614 260.797 2.62714 261.319 2.15181C261.794 1.70714 262.361 1.33147 263.021 1.02481C263.68 0.718143 264.431 0.511143 265.275 0.403809L265.551 1.99081C265.029 2.09814 264.554 2.25147 264.125 2.45081C263.711 2.65014 263.335 2.91847 262.998 3.25581C262.752 3.51647 262.545 3.81547 262.377 4.15281C262.208 4.49014 262.07 4.90414 261.963 5.39481L261.917 5.60181C262.116 5.47914 262.338 5.35647 262.584 5.23381C262.844 5.11114 263.105 5.01147 263.366 4.93481C263.642 4.85814 263.902 4.81981 264.148 4.81981ZM263.32 7.11981C263.136 7.11981 262.936 7.15047 262.722 7.21181C262.507 7.25781 262.3 7.34214 262.101 7.46481C261.901 7.57214 261.725 7.72547 261.572 7.92481C261.434 8.10881 261.334 8.33114 261.273 8.59181L260.468 12.3868C260.391 12.7701 260.376 13.0998 260.422 13.3758C260.468 13.6365 260.598 13.8435 260.813 13.9968C261.027 14.1348 261.349 14.2038 261.779 14.2038C262.147 14.2038 262.476 14.1271 262.768 13.9738C263.059 13.8205 263.297 13.6135 263.481 13.3528C263.68 13.0768 263.818 12.7548 263.895 12.3868L264.654 8.79881C264.73 8.44614 264.73 8.14714 264.654 7.90181C264.577 7.64114 264.424 7.44947 264.194 7.32681C263.979 7.18881 263.688 7.11981 263.32 7.11981ZM276.102 5.00381H279.966L277.528 16.4808H274.975L276.953 7.16581H276.24C275.918 7.16581 275.627 7.20414 275.366 7.28081C275.121 7.35747 274.891 7.49547 274.676 7.69481C274.477 7.89414 274.277 8.18547 274.078 8.56881L271.732 13.2608C271.303 14.1041 270.889 14.7788 270.49 15.2848C270.107 15.7755 269.67 16.1588 269.179 16.4348C268.704 16.6955 268.113 16.9025 267.408 17.0558L266.373 15.8368C266.71 15.6681 267.002 15.5148 267.247 15.3768C267.508 15.2388 267.753 15.0395 267.983 14.7788C268.228 14.5181 268.489 14.1271 268.765 13.6058L271.41 8.45381C271.594 8.08581 271.816 7.70247 272.077 7.30381C272.338 6.90514 272.644 6.52947 272.997 6.17681C273.365 5.82414 273.802 5.54047 274.308 5.32581C274.814 5.11114 275.412 5.00381 276.102 5.00381ZM288.687 12.2488C288.411 13.5981 287.836 14.6868 286.962 15.5148C286.103 16.3275 284.968 16.7338 283.558 16.7338C282.546 16.7338 281.764 16.5268 281.212 16.1128C280.675 15.6835 280.33 15.1315 280.177 14.4568C280.023 13.7668 280.023 13.0308 280.177 12.2488L280.844 9.21281C281.058 8.23147 281.396 7.41114 281.856 6.75181C282.331 6.09247 282.921 5.59414 283.627 5.25681C284.347 4.90414 285.175 4.72781 286.111 4.72781C287.445 4.72781 288.395 5.12647 288.963 5.92381C289.53 6.70581 289.66 7.80214 289.354 9.21281L288.687 12.2488ZM286.778 9.07481C286.854 8.70681 286.862 8.39247 286.801 8.13181C286.739 7.85581 286.601 7.64881 286.387 7.51081C286.187 7.35747 285.904 7.28081 285.536 7.28081C285.168 7.28081 284.838 7.34981 284.547 7.48781C284.271 7.62581 284.033 7.82514 283.834 8.08581C283.65 8.34647 283.512 8.67614 283.42 9.07481L282.707 12.4328C282.645 12.7395 282.645 13.0308 282.707 13.3068C282.768 13.5828 282.906 13.8051 283.121 13.9738C283.335 14.1425 283.65 14.2268 284.064 14.2268C284.447 14.2268 284.769 14.1501 285.03 13.9968C285.306 13.8435 285.528 13.6288 285.697 13.3528C285.865 13.0768 285.988 12.7701 286.065 12.4328L286.778 9.07481ZM291.714 5.00381H298.039L297.51 7.53381H293.761L291.852 16.5038H289.276L291.714 5.00381ZM299.865 13.0768C299.819 13.2761 299.811 13.4601 299.842 13.6288C299.872 13.7821 299.926 13.9201 300.003 14.0428C300.095 14.1655 300.217 14.2575 300.371 14.3188C300.524 14.3801 300.7 14.4108 300.9 14.4108C301.314 14.4108 301.804 14.3188 302.372 14.1348C302.939 13.9508 303.491 13.7361 304.028 13.4908L304.488 15.6988C303.874 16.0361 303.2 16.3045 302.464 16.5038C301.728 16.7031 301.015 16.8028 300.325 16.8028C299.788 16.8028 299.297 16.7338 298.853 16.5958C298.423 16.4578 298.063 16.2508 297.772 15.9748C297.496 15.6988 297.304 15.3461 297.197 14.9168C297.105 14.4875 297.12 13.9815 297.243 13.3988L298.255 8.68381C298.439 7.84047 298.761 7.12747 299.221 6.54481C299.696 5.96214 300.271 5.51747 300.946 5.21081C301.636 4.90414 302.395 4.75081 303.223 4.75081C304.051 4.75081 304.741 4.89647 305.293 5.18781C305.86 5.47914 306.259 5.90847 306.489 6.47581C306.719 7.04314 306.742 7.75614 306.558 8.61481L305.799 12.2028L300.003 12.5018L299.865 13.0768ZM303.867 9.30481C303.928 8.98281 303.959 8.65314 303.959 8.31581C303.959 7.97847 303.874 7.70247 303.706 7.48781C303.552 7.25781 303.246 7.15814 302.786 7.18881C302.31 7.20414 301.935 7.30381 301.659 7.48781C301.398 7.65647 301.191 7.89414 301.038 8.20081C300.9 8.49214 300.777 8.85247 300.67 9.28181L300.486 10.1788L303.706 9.97181L303.867 9.30481ZM315.776 12.5708C315.592 13.5061 315.277 14.2958 314.833 14.9398C314.403 15.5838 313.867 16.0745 313.223 16.4118C312.579 16.7338 311.827 16.8948 310.969 16.8948C310.785 16.8948 310.601 16.8795 310.417 16.8488C310.233 16.8181 310.056 16.7798 309.888 16.7338C309.719 16.6878 309.558 16.6265 309.405 16.5498C309.267 16.4885 309.136 16.4195 309.014 16.3428L307.933 21.4718L305.518 20.8968L307.979 9.32781C308.285 7.87114 308.891 6.75947 309.796 5.99281C310.716 5.21081 311.873 4.81981 313.269 4.81981C314.587 4.81981 315.53 5.21847 316.098 6.01581C316.665 6.81314 316.795 7.91714 316.489 9.32781L315.776 12.5708ZM313.982 9.18981C314.058 8.82181 314.058 8.50747 313.982 8.24681C313.905 7.97081 313.752 7.75614 313.522 7.60281C313.292 7.44947 312.993 7.37281 312.625 7.37281C312.272 7.37281 311.95 7.44181 311.659 7.57981C311.367 7.71781 311.13 7.92481 310.946 8.20081C310.762 8.46147 310.624 8.79114 310.532 9.18981L309.635 13.3988C309.589 13.5981 309.612 13.7745 309.704 13.9278C309.811 14.0811 309.957 14.2115 310.141 14.3188C310.325 14.4261 310.516 14.5028 310.716 14.5488C310.93 14.5948 311.13 14.6178 311.314 14.6178C311.651 14.6178 311.942 14.5488 312.188 14.4108C312.448 14.2728 312.663 14.0811 312.832 13.8358C313 13.5751 313.115 13.2685 313.177 12.9158L313.982 9.18981ZM316.91 18.0218C317.079 17.8071 317.209 17.5848 317.301 17.3548C317.409 17.1401 317.516 16.9178 317.623 16.6878C317.332 16.6111 317.117 16.4501 316.979 16.2048C316.841 15.9595 316.803 15.6758 316.864 15.3538C316.941 14.9858 317.14 14.6638 317.462 14.3878C317.8 14.1118 318.16 13.9738 318.543 13.9738C318.911 13.9738 319.195 14.1118 319.394 14.3878C319.594 14.6638 319.655 14.9858 319.578 15.3538C319.486 15.8751 319.318 16.3275 319.072 16.7108C318.842 17.0941 318.589 17.4085 318.313 17.6538C318.053 17.9145 317.83 18.1061 317.646 18.2288C317.462 18.3515 317.378 18.4128 317.393 18.4128L316.91 18.0218ZM338.341 5.30281C338.187 5.77814 338.057 6.20747 337.95 6.59081C337.858 6.95881 337.781 7.27314 337.72 7.53381L335.834 16.3888C335.834 16.3888 335.726 16.3965 335.512 16.4118C335.312 16.4271 335.036 16.4501 334.684 16.4808C334.346 16.4961 333.963 16.5115 333.534 16.5268C333.12 16.5421 332.698 16.5575 332.269 16.5728C331.855 16.5881 331.471 16.5958 331.119 16.5958C330.413 16.5958 329.838 16.4885 329.394 16.2738C328.964 16.0591 328.642 15.7678 328.428 15.3998C328.213 15.0318 328.09 14.6101 328.06 14.1348C328.044 13.6441 328.09 13.1305 328.198 12.5938L329.118 8.33881C329.256 7.66414 329.447 7.10447 329.693 6.65981C329.953 6.19981 330.245 5.83947 330.567 5.57881C330.904 5.30281 331.272 5.11114 331.671 5.00381C332.069 4.88114 332.499 4.81981 332.959 4.81981C333.434 4.81981 333.871 4.85047 334.27 4.91181C334.668 4.97314 334.998 5.04214 335.259 5.11881C335.535 5.19547 335.726 5.25681 335.834 5.30281C335.834 5.30281 335.864 5.24147 335.926 5.11881C336.002 4.98081 336.087 4.85047 336.179 4.72781L338.341 5.30281ZM330.728 12.6168C330.636 13.1228 330.62 13.5138 330.682 13.7898C330.743 14.0505 330.881 14.2345 331.096 14.3418C331.326 14.4338 331.625 14.4798 331.993 14.4798C332.131 14.4798 332.269 14.4798 332.407 14.4798C332.545 14.4798 332.683 14.4798 332.821 14.4798C332.959 14.4645 333.097 14.4491 333.235 14.4338C333.388 14.4185 333.541 14.4031 333.695 14.3878L335.121 7.60281C335.013 7.54147 334.883 7.48781 334.73 7.44181C334.576 7.38047 334.408 7.32681 334.224 7.28081C334.055 7.23481 333.886 7.20414 333.718 7.18881C333.564 7.15814 333.426 7.14281 333.304 7.14281C333.181 7.14281 333.035 7.15047 332.867 7.16581C332.713 7.18114 332.552 7.23481 332.384 7.32681C332.215 7.40347 332.062 7.52614 331.924 7.69481C331.786 7.86347 331.686 8.10114 331.625 8.40781L330.728 12.6168ZM346.486 10.1328C346.9 10.4395 347.176 10.8535 347.314 11.3748C347.467 11.8961 347.483 12.4635 347.36 13.0768C347.237 13.6748 346.969 14.2575 346.555 14.8248C346.141 15.3768 345.597 15.8368 344.922 16.2048C344.247 16.5728 343.45 16.7568 342.53 16.7568C342.239 16.7568 341.894 16.7491 341.495 16.7338C341.096 16.7185 340.682 16.6955 340.253 16.6648C339.824 16.6341 339.425 16.6035 339.057 16.5728C338.689 16.5575 338.39 16.5421 338.16 16.5268C337.93 16.5115 337.815 16.5038 337.815 16.5038L340.253 4.98081C340.253 4.98081 340.353 4.97314 340.552 4.95781C340.767 4.92714 341.066 4.89647 341.449 4.86581C341.848 4.81981 342.315 4.78914 342.852 4.77381C343.389 4.74314 343.987 4.72781 344.646 4.72781C345.106 4.72781 345.551 4.78147 345.98 4.88881C346.409 4.99614 346.785 5.15714 347.107 5.37181C347.444 5.58647 347.697 5.87014 347.866 6.22281C348.05 6.56014 348.127 6.97414 348.096 7.46481C348.065 7.94014 347.897 8.43081 347.59 8.93681C347.299 9.42747 346.931 9.82614 346.486 10.1328ZM344.232 6.95881C344.094 6.95881 343.948 6.95881 343.795 6.95881C343.642 6.95881 343.481 6.96647 343.312 6.98181C343.159 6.98181 342.998 6.98947 342.829 7.00481C342.676 7.00481 342.522 7.00481 342.369 7.00481L341.817 9.55781H342.99C343.542 9.55781 343.987 9.48881 344.324 9.35081C344.661 9.21281 344.914 9.03647 345.083 8.82181C345.267 8.60714 345.382 8.39247 345.428 8.17781C345.474 7.97847 345.466 7.80981 345.405 7.67181C345.344 7.51847 345.252 7.38814 345.129 7.28081C345.022 7.17347 344.884 7.09681 344.715 7.05081C344.562 6.98947 344.401 6.95881 344.232 6.95881ZM342.645 14.1578C342.998 14.1578 343.327 14.1195 343.634 14.0428C343.941 13.9661 344.201 13.8435 344.416 13.6748C344.631 13.4908 344.769 13.2531 344.83 12.9618C344.876 12.7778 344.868 12.6091 344.807 12.4558C344.761 12.3025 344.669 12.1798 344.531 12.0878C344.408 11.9805 344.247 11.9038 344.048 11.8578C343.864 11.7965 343.657 11.7658 343.427 11.7658H341.357L340.851 14.1118C341.02 14.1118 341.188 14.1195 341.357 14.1348C341.526 14.1348 341.687 14.1425 341.84 14.1578C341.993 14.1578 342.139 14.1578 342.277 14.1578C342.415 14.1578 342.538 14.1578 342.645 14.1578ZM353.346 13.0998C353.269 13.4831 353.246 13.8128 353.277 14.0888C353.323 14.3648 353.43 14.5948 353.599 14.7788C353.783 14.9475 354.036 15.0931 354.358 15.2158L352.886 16.9638C352.456 16.8411 352.081 16.6801 351.759 16.4808C351.452 16.2661 351.207 16.0131 351.023 15.7218C350.839 15.4151 350.724 15.0701 350.678 14.6868C350.632 14.3035 350.655 13.8895 350.747 13.4448L352.035 7.37281H349.896L350.402 4.98081H357.371L356.865 7.37281H354.565L353.346 13.0998ZM365.728 12.2488C365.452 13.5981 364.877 14.6868 364.003 15.5148C363.144 16.3275 362.009 16.7338 360.599 16.7338C359.587 16.7338 358.805 16.5268 358.253 16.1128C357.716 15.6835 357.371 15.1315 357.218 14.4568C357.064 13.7668 357.064 13.0308 357.218 12.2488L357.885 9.21281C358.099 8.23147 358.437 7.41114 358.897 6.75181C359.372 6.09247 359.962 5.59414 360.668 5.25681C361.388 4.90414 362.216 4.72781 363.152 4.72781C364.486 4.72781 365.436 5.12647 366.004 5.92381C366.571 6.70581 366.701 7.80214 366.395 9.21281L365.728 12.2488ZM363.819 9.07481C363.895 8.70681 363.903 8.39247 363.842 8.13181C363.78 7.85581 363.642 7.64881 363.428 7.51081C363.228 7.35747 362.945 7.28081 362.577 7.28081C362.209 7.28081 361.879 7.34981 361.588 7.48781C361.312 7.62581 361.074 7.82514 360.875 8.08581C360.691 8.34647 360.553 8.67614 360.461 9.07481L359.748 12.4328C359.686 12.7395 359.686 13.0308 359.748 13.3068C359.809 13.5828 359.947 13.8051 360.162 13.9738C360.376 14.1425 360.691 14.2268 361.105 14.2268C361.488 14.2268 361.81 14.1501 362.071 13.9968C362.347 13.8435 362.569 13.6288 362.738 13.3528C362.906 13.0768 363.029 12.7701 363.106 12.4328L363.819 9.07481ZM375.724 12.5708C375.54 13.5061 375.226 14.2958 374.781 14.9398C374.352 15.5838 373.815 16.0745 373.171 16.4118C372.527 16.7338 371.776 16.8948 370.917 16.8948C370.733 16.8948 370.549 16.8795 370.365 16.8488C370.181 16.8181 370.005 16.7798 369.836 16.7338C369.667 16.6878 369.506 16.6265 369.353 16.5498C369.215 16.4885 369.085 16.4195 368.962 16.3428L367.881 21.4718L365.466 20.8968L367.927 9.32781C368.234 7.87114 368.839 6.75947 369.744 5.99281C370.664 5.21081 371.822 4.81981 373.217 4.81981C374.536 4.81981 375.479 5.21847 376.046 6.01581C376.613 6.81314 376.744 7.91714 376.437 9.32781L375.724 12.5708ZM373.93 9.18981C374.007 8.82181 374.007 8.50747 373.93 8.24681C373.853 7.97081 373.7 7.75614 373.47 7.60281C373.24 7.44947 372.941 7.37281 372.573 7.37281C372.22 7.37281 371.898 7.44181 371.607 7.57981C371.316 7.71781 371.078 7.92481 370.894 8.20081C370.71 8.46147 370.572 8.79114 370.48 9.18981L369.583 13.3988C369.537 13.5981 369.56 13.7745 369.652 13.9278C369.759 14.0811 369.905 14.2115 370.089 14.3188C370.273 14.4261 370.465 14.5028 370.664 14.5488C370.879 14.5948 371.078 14.6178 371.262 14.6178C371.599 14.6178 371.891 14.5488 372.136 14.4108C372.397 14.2728 372.611 14.0811 372.78 13.8358C372.949 13.5751 373.064 13.2685 373.125 12.9158L373.93 9.18981ZM388.089 5.00381L386.64 11.8348L391.47 5.00381H394.046L391.608 16.5268H389.032L390.458 9.74181L385.651 16.5268H383.121L385.559 5.00381H388.089ZM47.1988 32.0038L45.7498 38.8348L50.5798 32.0038H53.1558L50.7178 43.5268H48.1418L49.5678 36.7418L44.7608 43.5268H42.2308L44.6688 32.0038H47.1988ZM61.0745 34.4418C60.7985 34.2885 60.4841 34.1735 60.1315 34.0968C59.7941 34.0048 59.4491 33.9511 59.0965 33.9358C58.6825 33.9358 58.2915 34.0048 57.9235 34.1428C57.5555 34.2655 57.2411 34.4725 56.9805 34.7638C56.7198 35.0398 56.5435 35.4078 56.4515 35.8678L55.6925 39.4788C55.6158 39.8315 55.6081 40.1458 55.6695 40.4218C55.7308 40.6825 55.8458 40.8971 56.0145 41.0658C56.1985 41.2345 56.4285 41.3648 56.7045 41.4568C56.9805 41.5335 57.2948 41.5718 57.6475 41.5718C57.8928 41.5718 58.1381 41.5641 58.3835 41.5488C58.6441 41.5181 58.8741 41.4875 59.0735 41.4568C59.2728 41.4108 59.4338 41.3801 59.5565 41.3648C59.6791 41.3341 59.7405 41.3188 59.7405 41.3188L59.7635 43.3888C59.2575 43.5115 58.7438 43.6111 58.2225 43.6878C57.7011 43.7645 57.1798 43.7951 56.6585 43.7798C55.7845 43.7645 55.0485 43.6035 54.4505 43.2968C53.8525 42.9901 53.4385 42.5225 53.2085 41.8938C52.9785 41.2651 52.9631 40.4678 53.1625 39.5018L53.8985 36.1438C54.0978 35.2545 54.4121 34.4725 54.8415 33.7978C55.2861 33.1231 55.8688 32.6018 56.5895 32.2338C57.3255 31.8658 58.2225 31.6971 59.2805 31.7278C59.7711 31.7431 60.2465 31.8198 60.7065 31.9578C61.1818 32.0958 61.6265 32.2721 62.0405 32.4868L61.0745 34.4418ZM70.5451 41.0658C70.5298 41.3111 70.5604 41.5105 70.6371 41.6638C70.7291 41.8171 70.8594 41.9551 71.0281 42.0778L69.1421 43.8948C69.1574 43.8948 69.0808 43.8565 68.9121 43.7798C68.7588 43.7031 68.5824 43.5805 68.3831 43.4118C68.1991 43.2431 68.0534 43.0131 67.9461 42.7218C67.8388 42.4151 67.8311 42.0318 67.9231 41.5718L69.4641 34.3728H65.8301L63.8981 43.5038H61.3451L63.8061 31.9808H72.4771L70.5451 41.0658ZM81.529 39.2488C81.253 40.5981 80.678 41.6868 79.804 42.5148C78.9454 43.3275 77.8107 43.7338 76.4 43.7338C75.388 43.7338 74.606 43.5268 74.054 43.1128C73.5174 42.6835 73.1724 42.1315 73.019 41.4568C72.8657 40.7668 72.8657 40.0308 73.019 39.2488L73.686 36.2128C73.9007 35.2315 74.238 34.4111 74.698 33.7518C75.1734 33.0925 75.7637 32.5941 76.469 32.2568C77.1897 31.9041 78.0177 31.7278 78.953 31.7278C80.287 31.7278 81.2377 32.1265 81.805 32.9238C82.3724 33.7058 82.5027 34.8021 82.196 36.2128L81.529 39.2488ZM79.62 36.0748C79.6967 35.7068 79.7044 35.3925 79.643 35.1318C79.5817 34.8558 79.4437 34.6488 79.229 34.5108C79.0297 34.3575 78.746 34.2808 78.378 34.2808C78.01 34.2808 77.6804 34.3498 77.389 34.4878C77.113 34.6258 76.8754 34.8251 76.676 35.0858C76.492 35.3465 76.354 35.6761 76.262 36.0748L75.549 39.4328C75.4877 39.7395 75.4877 40.0308 75.549 40.3068C75.6104 40.5828 75.7484 40.8051 75.963 40.9738C76.1777 41.1425 76.492 41.2268 76.906 41.2268C77.2894 41.2268 77.6114 41.1501 77.872 40.9968C78.148 40.8435 78.3704 40.6288 78.539 40.3528C78.7077 40.0768 78.8304 39.7701 78.907 39.4328L79.62 36.0748ZM91.2032 32.0038H95.0672L92.6292 43.4808H90.0762L92.0542 34.1658H91.3412C91.0192 34.1658 90.7279 34.2041 90.4672 34.2808C90.2219 34.3575 89.9919 34.4955 89.7772 34.6948C89.5779 34.8941 89.3786 35.1855 89.1792 35.5688L86.8332 40.2608C86.4039 41.1041 85.9899 41.7788 85.5912 42.2848C85.2079 42.7755 84.7709 43.1588 84.2802 43.4348C83.8049 43.6955 83.2146 43.9025 82.5092 44.0558L81.4742 42.8368C81.8116 42.6681 82.1029 42.5148 82.3482 42.3768C82.6089 42.2388 82.8542 42.0395 83.0842 41.7788C83.3296 41.5181 83.5902 41.1271 83.8662 40.6058L86.5112 35.4538C86.6952 35.0858 86.9176 34.7025 87.1782 34.3038C87.4389 33.9051 87.7456 33.5295 88.0982 33.1768C88.4662 32.8241 88.9032 32.5405 89.4092 32.3258C89.9152 32.1111 90.5132 32.0038 91.2032 32.0038ZM102.063 36.0058L102.914 32.0038H105.444L103.006 43.5038H100.476L101.557 38.4208H98.1528L97.0718 43.5038H94.5188L96.9568 32.0038H99.5098L98.6588 36.0058H102.063ZM109.73 32.0038L108.281 38.8348L113.111 32.0038H115.687L113.249 43.5268H110.673L112.099 36.7418L107.292 43.5268H104.762L107.2 32.0038H109.73ZM120.156 40.0998C120.079 40.4831 120.056 40.8128 120.087 41.0888C120.133 41.3648 120.24 41.5948 120.409 41.7788C120.593 41.9475 120.846 42.0931 121.168 42.2158L119.696 43.9638C119.267 43.8411 118.891 43.6801 118.569 43.4808C118.262 43.2661 118.017 43.0131 117.833 42.7218C117.649 42.4151 117.534 42.0701 117.488 41.6868C117.442 41.3035 117.465 40.8895 117.557 40.4448L118.845 34.3728H116.706L117.212 31.9808H124.181L123.675 34.3728H121.375L120.156 40.0998ZM126.466 40.0768C126.42 40.2761 126.413 40.4601 126.443 40.6288C126.474 40.7821 126.528 40.9201 126.604 41.0428C126.696 41.1655 126.819 41.2575 126.972 41.3188C127.126 41.3801 127.302 41.4108 127.501 41.4108C127.915 41.4108 128.406 41.3188 128.973 41.1348C129.541 40.9508 130.093 40.7361 130.629 40.4908L131.089 42.6988C130.476 43.0361 129.801 43.3045 129.065 43.5038C128.329 43.7031 127.616 43.8028 126.926 43.8028C126.39 43.8028 125.899 43.7338 125.454 43.5958C125.025 43.4578 124.665 43.2508 124.373 42.9748C124.097 42.6988 123.906 42.3461 123.798 41.9168C123.706 41.4875 123.722 40.9815 123.844 40.3988L124.856 35.6838C125.04 34.8405 125.362 34.1275 125.822 33.5448C126.298 32.9621 126.873 32.5175 127.547 32.2108C128.237 31.9041 128.996 31.7508 129.824 31.7508C130.652 31.7508 131.342 31.8965 131.894 32.1878C132.462 32.4791 132.86 32.9085 133.09 33.4758C133.32 34.0431 133.343 34.7561 133.159 35.6148L132.4 39.2028L126.604 39.5018L126.466 40.0768ZM130.468 36.3048C130.53 35.9828 130.56 35.6531 130.56 35.3158C130.56 34.9785 130.476 34.7025 130.307 34.4878C130.154 34.2578 129.847 34.1581 129.387 34.1888C128.912 34.2041 128.536 34.3038 128.26 34.4878C128 34.6565 127.793 34.8941 127.639 35.2008C127.501 35.4921 127.379 35.8525 127.271 36.2818L127.087 37.1788L130.307 36.9718L130.468 36.3048ZM142.055 32.0038H145.919L143.481 43.4808H140.928L142.906 34.1658H142.193C141.871 34.1658 141.58 34.2041 141.319 34.2808C141.074 34.3575 140.844 34.4955 140.629 34.6948C140.43 34.8941 140.231 35.1855 140.031 35.5688L137.685 40.2608C137.256 41.1041 136.842 41.7788 136.443 42.2848C136.06 42.7755 135.623 43.1588 135.132 43.4348C134.657 43.6955 134.067 43.9025 133.361 44.0558L132.326 42.8368C132.664 42.6681 132.955 42.5148 133.2 42.3768C133.461 42.2388 133.706 42.0395 133.936 41.7788C134.182 41.5181 134.442 41.1271 134.718 40.6058L137.363 35.4538C137.547 35.0858 137.77 34.7025 138.03 34.3038C138.291 33.9051 138.598 33.5295 138.95 33.1768C139.318 32.8241 139.755 32.5405 140.261 32.3258C140.767 32.1111 141.365 32.0038 142.055 32.0038ZM151.834 36.5348C152.524 36.5348 153.145 36.6575 153.697 36.9028C154.264 37.1328 154.686 37.5085 154.962 38.0298C155.238 38.5358 155.284 39.2028 155.1 40.0308C154.977 40.6288 154.709 41.2115 154.295 41.7788C153.881 42.3308 153.336 42.7908 152.662 43.1588C151.987 43.5268 151.19 43.7108 150.27 43.7108C149.978 43.7108 149.626 43.7031 149.212 43.6878C148.813 43.6725 148.391 43.6495 147.947 43.6188C147.517 43.5881 147.111 43.5575 146.728 43.5268C146.344 43.5115 146.03 43.4961 145.785 43.4808C145.555 43.4655 145.44 43.4578 145.44 43.4578L147.878 32.0038H150.431L149.465 36.5348H151.834ZM150.385 41.1118C150.737 41.1118 151.052 41.0811 151.328 41.0198C151.619 40.9431 151.864 40.8205 152.064 40.6518C152.263 40.4831 152.393 40.2531 152.455 39.9618C152.501 39.7778 152.501 39.6168 152.455 39.4788C152.409 39.3408 152.324 39.2258 152.202 39.1338C152.094 39.0418 151.949 38.9805 151.765 38.9498C151.581 38.9038 151.374 38.8808 151.144 38.8808H148.982L148.522 41.0658C148.69 41.0658 148.859 41.0735 149.028 41.0888C149.212 41.0888 149.38 41.0965 149.534 41.1118C149.702 41.1118 149.856 41.1118 149.994 41.1118C150.147 41.1118 150.277 41.1118 150.385 41.1118ZM167.481 40.0998C167.405 40.4831 167.382 40.8128 167.412 41.0888C167.458 41.3648 167.566 41.5948 167.734 41.7788C167.918 41.9475 168.171 42.0931 168.493 42.2158L167.021 43.9638C166.592 43.8411 166.216 43.6801 165.894 43.4808C165.588 43.2661 165.342 43.0131 165.158 42.7218C164.974 42.4151 164.859 42.0701 164.813 41.6868C164.767 41.3035 164.79 40.8895 164.882 40.4448L166.17 34.3728H164.031L164.537 31.9808H171.506L171 34.3728H168.7L167.481 40.0998ZM179.909 39.5708C179.725 40.5061 179.411 41.2958 178.966 41.9398C178.537 42.5838 178 43.0745 177.356 43.4118C176.712 43.7338 175.961 43.8948 175.102 43.8948C174.918 43.8948 174.734 43.8795 174.55 43.8488C174.366 43.8181 174.19 43.7798 174.021 43.7338C173.853 43.6878 173.692 43.6265 173.538 43.5498C173.4 43.4885 173.27 43.4195 173.147 43.3428L172.066 48.4718L169.651 47.8968L172.112 36.3278C172.419 34.8711 173.025 33.7595 173.929 32.9928C174.849 32.2108 176.007 31.8198 177.402 31.8198C178.721 31.8198 179.664 32.2185 180.231 33.0158C180.799 33.8131 180.929 34.9171 180.622 36.3278L179.909 39.5708ZM178.115 36.1898C178.192 35.8218 178.192 35.5075 178.115 35.2468C178.039 34.9708 177.885 34.7561 177.655 34.6028C177.425 34.4495 177.126 34.3728 176.758 34.3728C176.406 34.3728 176.084 34.4418 175.792 34.5798C175.501 34.7178 175.263 34.9248 175.079 35.2008C174.895 35.4615 174.757 35.7911 174.665 36.1898L173.768 40.3988C173.722 40.5981 173.745 40.7745 173.837 40.9278C173.945 41.0811 174.09 41.2115 174.274 41.3188C174.458 41.4261 174.65 41.5028 174.849 41.5488C175.064 41.5948 175.263 41.6178 175.447 41.6178C175.785 41.6178 176.076 41.5488 176.321 41.4108C176.582 41.2728 176.797 41.0811 176.965 40.8358C177.134 40.5751 177.249 40.2685 177.31 39.9158L178.115 36.1898ZM184.011 40.0768C183.965 40.2761 183.957 40.4601 183.988 40.6288C184.019 40.7821 184.072 40.9201 184.149 41.0428C184.241 41.1655 184.364 41.2575 184.517 41.3188C184.67 41.3801 184.847 41.4108 185.046 41.4108C185.46 41.4108 185.951 41.3188 186.518 41.1348C187.085 40.9508 187.637 40.7361 188.174 40.4908L188.634 42.6988C188.021 43.0361 187.346 43.3045 186.61 43.5038C185.874 43.7031 185.161 43.8028 184.471 43.8028C183.934 43.8028 183.444 43.7338 182.999 43.5958C182.57 43.4578 182.209 43.2508 181.918 42.9748C181.642 42.6988 181.45 42.3461 181.343 41.9168C181.251 41.4875 181.266 40.9815 181.389 40.3988L182.401 35.6838C182.585 34.8405 182.907 34.1275 183.367 33.5448C183.842 32.9621 184.417 32.5175 185.092 32.2108C185.782 31.9041 186.541 31.7508 187.369 31.7508C188.197 31.7508 188.887 31.8965 189.439 32.1878C190.006 32.4791 190.405 32.9085 190.635 33.4758C190.865 34.0431 190.888 34.7561 190.704 35.6148L189.945 39.2028L184.149 39.5018L184.011 40.0768ZM188.013 36.3048C188.074 35.9828 188.105 35.6531 188.105 35.3158C188.105 34.9785 188.021 34.7025 187.852 34.4878C187.699 34.2578 187.392 34.1581 186.932 34.1888C186.457 34.2041 186.081 34.3038 185.805 34.4878C185.544 34.6565 185.337 34.8941 185.184 35.2008C185.046 35.4921 184.923 35.8525 184.816 36.2818L184.632 37.1788L187.852 36.9718L188.013 36.3048ZM198.772 39.8238C198.971 40.2071 199.14 40.5061 199.278 40.7208C199.431 40.9201 199.577 41.0581 199.715 41.1348C199.868 41.2115 200.037 41.2498 200.221 41.2498H200.336L199.784 43.5038H199.439C198.872 43.5038 198.389 43.3811 197.99 43.1358C197.607 42.8905 197.277 42.5685 197.001 42.1698C196.74 41.7711 196.495 41.3495 196.265 40.9048L194.977 38.3978L194.172 39.0188L193.229 43.5038H190.676L193.183 31.7278L195.667 32.0038L194.862 35.8218L199.209 31.9808H202.36L197.162 36.6038L198.772 39.8238ZM212.425 32.3028C212.271 32.7781 212.141 33.2075 212.034 33.5908C211.942 33.9588 211.865 34.2731 211.804 34.5338L209.918 43.3888C209.918 43.3888 209.81 43.3965 209.596 43.4118C209.396 43.4271 209.12 43.4501 208.768 43.4808C208.43 43.4961 208.047 43.5115 207.618 43.5268C207.204 43.5421 206.782 43.5575 206.353 43.5728C205.939 43.5881 205.555 43.5958 205.203 43.5958C204.497 43.5958 203.922 43.4885 203.478 43.2738C203.048 43.0591 202.726 42.7678 202.512 42.3998C202.297 42.0318 202.174 41.6101 202.144 41.1348C202.128 40.6441 202.174 40.1305 202.282 39.5938L203.202 35.3388C203.34 34.6641 203.531 34.1045 203.777 33.6598C204.037 33.1998 204.329 32.8395 204.651 32.5788C204.988 32.3028 205.356 32.1111 205.755 32.0038C206.153 31.8811 206.583 31.8198 207.043 31.8198C207.518 31.8198 207.955 31.8505 208.354 31.9118C208.752 31.9731 209.082 32.0421 209.343 32.1188C209.619 32.1955 209.81 32.2568 209.918 32.3028C209.918 32.3028 209.948 32.2415 210.01 32.1188C210.086 31.9808 210.171 31.8505 210.263 31.7278L212.425 32.3028ZM204.812 39.6168C204.72 40.1228 204.704 40.5138 204.766 40.7898C204.827 41.0505 204.965 41.2345 205.18 41.3418C205.41 41.4338 205.709 41.4798 206.077 41.4798C206.215 41.4798 206.353 41.4798 206.491 41.4798C206.629 41.4798 206.767 41.4798 206.905 41.4798C207.043 41.4645 207.181 41.4491 207.319 41.4338C207.472 41.4185 207.625 41.4031 207.779 41.3878L209.205 34.6028C209.097 34.5415 208.967 34.4878 208.814 34.4418C208.66 34.3805 208.492 34.3268 208.308 34.2808C208.139 34.2348 207.97 34.2041 207.802 34.1888C207.648 34.1581 207.51 34.1428 207.388 34.1428C207.265 34.1428 207.119 34.1505 206.951 34.1658C206.797 34.1811 206.636 34.2348 206.468 34.3268C206.299 34.4035 206.146 34.5261 206.008 34.6948C205.87 34.8635 205.77 35.1011 205.709 35.4078L204.812 39.6168ZM227.89 37.3398L230.052 40.0768L228.051 41.6638L224.67 37.3398L229.891 33.0158L231.225 34.6718L227.89 37.3398ZM222.807 37.3398L224.969 40.0768L222.991 41.6638L219.587 37.3398L224.831 33.0158L226.142 34.6718L222.807 37.3398ZM238.939 43.5038L241.837 29.9338H236.984L234.109 43.5038H231.556L234.983 27.4038H244.896L241.492 43.5038H238.939ZM245.784 31.8198C246.106 30.2558 246.788 29.0675 247.831 28.2548C248.874 27.4268 250.154 27.0128 251.672 27.0128C253.205 27.0128 254.294 27.4728 254.938 28.3928C255.597 29.3128 255.766 30.5241 255.444 32.0268L253.903 39.2258C253.704 40.1611 253.328 40.9738 252.776 41.6638C252.239 42.3385 251.572 42.8598 250.775 43.2278C249.978 43.5805 249.088 43.7568 248.107 43.7568C247.202 43.7568 246.42 43.5728 245.761 43.2048C245.117 42.8368 244.657 42.3078 244.381 41.6178C244.105 40.9125 244.067 40.0615 244.266 39.0648L245.784 31.8198ZM246.911 38.7888C246.804 39.2795 246.788 39.7011 246.865 40.0538C246.942 40.4065 247.118 40.6825 247.394 40.8818C247.685 41.0658 248.084 41.1578 248.59 41.1578C249.081 41.1578 249.518 41.0581 249.901 40.8588C250.284 40.6595 250.606 40.3758 250.867 40.0078C251.128 39.6398 251.304 39.2181 251.396 38.7428L252.684 32.6708C252.822 32.0115 252.876 31.4671 252.845 31.0378C252.814 30.5931 252.661 30.2635 252.385 30.0488C252.109 29.8188 251.672 29.7038 251.074 29.7038C250.553 29.7038 250.1 29.8111 249.717 30.0258C249.349 30.2405 249.042 30.5701 248.797 31.0148C248.552 31.4441 248.36 31.9885 248.222 32.6478L246.911 38.7888ZM262.922 29.9568L260.047 43.5038H257.494L260.392 29.9568H257.034L257.586 27.4038H266.878L266.326 29.9568H262.922ZM273.171 27.4038C273.769 27.4038 274.344 27.4881 274.896 27.6568C275.464 27.8255 275.947 28.1168 276.345 28.5308C276.744 28.9448 277.012 29.5275 277.15 30.2788C277.288 31.0148 277.235 31.9501 276.989 33.0848C276.729 34.3268 276.368 35.3388 275.908 36.1208C275.464 36.9028 274.95 37.5008 274.367 37.9148C273.8 38.3288 273.202 38.6125 272.573 38.7658C271.945 38.9191 271.324 38.9958 270.71 38.9958H268.226L267.283 43.5038H264.73L268.157 27.4038H273.171ZM268.755 36.5808H270.273C270.871 36.5808 271.393 36.5425 271.837 36.4658C272.282 36.3891 272.665 36.2358 272.987 36.0058C273.325 35.7605 273.608 35.4078 273.838 34.9478C274.068 34.4878 274.268 33.8668 274.436 33.0848C274.59 32.3641 274.643 31.7968 274.597 31.3828C274.551 30.9535 274.406 30.6391 274.16 30.4398C273.93 30.2251 273.608 30.0871 273.194 30.0258C272.78 29.9645 272.274 29.9338 271.676 29.9338H270.158L268.755 36.5808ZM287.496 43.5038H284.46L284.437 39.2718H280.734L278.917 43.5038H276.042L283.379 27.4038H286.944L287.496 43.5038ZM281.93 36.5808H284.437L284.414 30.6928L281.93 36.5808ZM302.191 27.4038L298.764 43.5038H296.211L297.568 37.1098C297.246 37.3245 296.916 37.5008 296.579 37.6388C296.257 37.7615 295.927 37.8458 295.59 37.8918C295.268 37.9378 294.93 37.9608 294.578 37.9608C293.612 37.9608 292.807 37.7615 292.163 37.3628C291.519 36.9641 291.074 36.4045 290.829 35.6838C290.583 34.9478 290.568 34.0738 290.783 33.0618L291.979 27.4038H294.532L293.359 32.8548C293.236 33.4528 293.221 33.9665 293.313 34.3958C293.42 34.8098 293.642 35.1241 293.98 35.3388C294.332 35.5535 294.823 35.6608 295.452 35.6608C295.774 35.6608 296.096 35.5995 296.418 35.4768C296.74 35.3388 297.039 35.1625 297.315 34.9478C297.591 34.7178 297.821 34.4571 298.005 34.1658C298.204 33.8745 298.334 33.5678 298.396 33.2458L299.638 27.4038H302.191ZM300.219 43.5038L303.646 27.4038H311.351L310.822 29.9338H305.647L304.796 33.9818H307.947L306.912 36.3968H304.267L303.255 41.1808H308.384L307.878 43.5038H300.219ZM319.128 33.9818L320.508 27.4038H323.015L319.611 43.5038H317.081L318.599 36.3968H313.723L312.228 43.5038H309.675L313.102 27.4038H315.655L314.252 33.9818H319.128ZM323.903 31.8198C324.225 30.2558 324.907 29.0675 325.95 28.2548C326.993 27.4268 328.273 27.0128 329.791 27.0128C331.324 27.0128 332.413 27.4728 333.057 28.3928C333.716 29.3128 333.885 30.5241 333.563 32.0268L332.022 39.2258C331.823 40.1611 331.447 40.9738 330.895 41.6638C330.358 42.3385 329.691 42.8598 328.894 43.2278C328.097 43.5805 327.207 43.7568 326.226 43.7568C325.321 43.7568 324.539 43.5728 323.88 43.2048C323.236 42.8368 322.776 42.3078 322.5 41.6178C322.224 40.9125 322.186 40.0615 322.385 39.0648L323.903 31.8198ZM325.03 38.7888C324.923 39.2795 324.907 39.7011 324.984 40.0538C325.061 40.4065 325.237 40.6825 325.513 40.8818C325.804 41.0658 326.203 41.1578 326.709 41.1578C327.2 41.1578 327.637 41.0581 328.02 40.8588C328.403 40.6595 328.725 40.3758 328.986 40.0078C329.247 39.6398 329.423 39.2181 329.515 38.7428L330.803 32.6708C330.941 32.0115 330.995 31.4671 330.964 31.0378C330.933 30.5931 330.78 30.2635 330.504 30.0488C330.228 29.8188 329.791 29.7038 329.193 29.7038C328.672 29.7038 328.219 29.8111 327.836 30.0258C327.468 30.2405 327.161 30.5701 326.916 31.0148C326.671 31.4441 326.479 31.9885 326.341 32.6478L325.03 38.7888ZM336.786 37.3398L334.601 34.6718L336.602 33.0158L340.006 37.3398L334.785 41.6638L333.474 40.0768L336.786 37.3398ZM341.869 37.3398L339.684 34.6718L341.685 33.0158L345.089 37.3398L339.845 41.6638L338.557 40.0768L341.869 37.3398Z" fill="white"/>
</g>
<defs>
<clipPath id="clip0_395_758">
<rect width="394" height="49" fill="white" transform="translate(0.666748)"/>
</clipPath>
</defs>
</svg>
