<svg width="555" height="58" viewBox="0 0 555 58" fill="none" xmlns="http://www.w3.org/2000/svg">
<path d="M35.9766 9.42016L55.2002 44.1627H47.9561L40.3102 30.3649C39.7825 30.8282 39.1641 31.2086 38.455 31.5065C37.7619 31.7711 36.9781 31.9531 36.1036 32.0524C35.2726 32.1517 34.3568 32.2013 33.3561 32.2013C30.6151 32.2013 27.9725 31.7711 25.4283 30.9109C22.8841 30.0506 20.6161 28.8429 18.6242 27.2877C16.6048 25.6995 14.9898 23.8135 13.7794 21.6297L7 9.42016H14.2441L20.7166 21.183C21.4438 22.4734 22.3238 23.5819 23.3568 24.5084C24.4057 25.4017 25.6017 26.08 26.9449 26.5432C28.3316 27.0065 29.9169 27.2381 31.7007 27.2381C32.6144 27.2381 33.4178 27.1057 34.1109 26.8411C34.7765 26.5432 35.3078 26.1627 35.705 25.6995C36.0746 25.2032 36.2586 24.6407 36.2568 24.012C36.2987 23.3833 36.1171 22.7216 35.7122 22.0267L28.7325 9.42016H35.9766ZM58.0089 14.9293L74.2085 44.1627H66.9644L50.83 14.9293H41.3017L38.2777 9.42016H64.6438L67.6678 14.9293H58.0089ZM73.213 18.9495C71.3146 15.5745 71.1141 13.0102 72.6115 11.2566C74.0813 9.46979 76.9697 8.57642 81.2771 8.57642C85.6279 8.57642 89.5444 9.56906 93.0258 11.5543C96.5507 13.5396 99.2076 16.1536 100.996 19.3962L109.566 34.9311C110.683 36.9494 111.078 38.7031 110.753 40.1921C110.442 41.648 109.487 42.7729 107.886 43.5671C106.258 44.3281 104.052 44.7086 101.267 44.7086C98.7001 44.7086 96.1505 44.3115 93.6175 43.5174C91.1288 42.7233 88.8722 41.5818 86.8483 40.0929C84.7976 38.5708 83.1588 36.7344 81.9319 34.5837L73.213 18.9495ZM88.9411 33.9881C89.519 35.0469 90.2333 35.9568 91.0853 36.7178C91.9367 37.4789 92.933 38.0744 94.0751 38.5046C95.2324 38.9016 96.529 39.1002 97.9648 39.1002C99.357 39.1002 100.418 38.8851 101.147 38.455C101.876 38.0248 102.28 37.4127 102.358 36.6186C102.436 35.8244 102.178 34.9146 101.585 33.8888L94.3216 20.7859C93.5283 19.3631 92.7017 18.1885 91.8424 17.262C90.9563 16.3025 89.928 15.5911 88.7591 15.1279C87.5626 14.6315 86.1159 14.3834 84.4191 14.3834C82.9398 14.3834 81.8492 14.615 81.1473 15.0782C80.4888 15.5414 80.2118 16.2529 80.3148 17.2124C80.3909 18.1389 80.8253 19.3135 81.6193 20.7363L88.9411 33.9881ZM130.888 9.42016C133.759 9.42016 136.447 9.80067 138.953 10.5617C141.457 11.3227 143.659 12.3981 145.556 13.7878C147.497 15.1775 148.978 16.7988 150 18.6517C150.567 19.6444 150.897 20.5377 150.994 21.3319C151.089 22.126 150.986 22.8374 150.683 23.466C150.38 24.0948 149.906 24.6738 149.259 25.2032C150.519 25.5671 151.873 26.1462 153.317 26.9403C154.806 27.7344 156.22 28.7271 157.561 29.9183C158.873 31.0763 159.946 32.4164 160.779 33.9385C161.923 35.9899 162.381 37.7932 162.154 39.3484C161.943 40.8704 161.043 42.0616 159.454 42.9218C157.838 43.749 155.506 44.1627 152.461 44.1627H138.103L118.879 9.42016H130.888ZM137.102 23.6149C138.799 23.6149 140.103 23.4826 141.014 23.2179C141.94 22.9201 142.475 22.4403 142.62 21.7786C142.738 21.0837 142.466 20.1572 141.805 18.9992C141.256 17.9734 140.558 17.1628 139.714 16.5672C138.914 15.9716 137.945 15.5414 136.811 15.2768C135.677 15.012 134.371 14.8797 132.891 14.8797H129.106L133.97 23.6149H137.102ZM147.72 39.1002C148.808 39.1002 149.873 38.9679 150.914 38.7031C151.928 38.4054 152.639 37.8759 153.049 37.1149C153.459 36.3539 153.268 35.262 152.474 33.8392C151.841 32.7142 151.026 31.7877 150.027 31.0598C149.029 30.3318 147.813 29.7859 146.378 29.4219C144.987 29.0579 143.356 28.8759 141.486 28.8759H136.852L142.499 39.1002H147.72ZM202.572 44.1627H193.957L186.283 35.0303H175.775L178.229 44.1627H170.071L161.942 9.42016H172.058L202.572 44.1627ZM174.331 29.2234H181.445L170.792 16.5175L174.331 29.2234ZM210.401 15.0286C209.397 14.7639 208.283 14.5488 207.057 14.3834C205.875 14.2179 204.784 14.1352 203.783 14.1352C202.13 14.1352 200.897 14.3007 200.085 14.6315C199.273 14.9624 198.839 15.4587 198.781 16.1205C198.723 16.7823 198.969 17.626 199.519 18.6517L208.515 34.9311C209.108 35.9568 209.819 36.784 210.647 37.4127C211.449 38.0083 212.386 38.455 213.461 38.7528C214.508 39.0175 215.663 39.1498 216.924 39.1498C218.273 39.1498 219.561 39.0505 220.788 38.852C222.015 38.6535 223.032 38.4384 223.84 38.2068C224.691 37.9752 225.212 37.8428 225.402 37.8098L229.353 43.0211C227.748 43.5505 226.135 43.9642 224.512 44.2619C222.96 44.5928 221.337 44.7583 219.64 44.7583C216.942 44.7583 214.406 44.3778 212.032 43.6167C209.673 42.8226 207.583 41.6976 205.761 40.2417C203.938 38.7859 202.469 37.0487 201.353 35.0303L192.399 18.8006C191.188 16.6168 190.673 14.797 190.852 13.3411C191.004 11.8521 191.763 10.7271 193.13 9.96612C194.498 9.20509 196.378 8.82458 198.771 8.82458C200.337 8.82458 202.093 8.97347 204.038 9.27127C205.999 9.53597 207.923 9.96612 209.812 10.5617L210.401 15.0286ZM287.214 44.1627L271.119 29.0745H268.769L277.099 44.1627H269.985L261.655 29.0745H259.502L260.13 44.1627H251.385L251.815 26.7418L232.945 9.42016H240.842L256.914 24.558H259.133L250.762 9.42016H257.875L266.246 24.558H268.269L267.012 9.42016H276.018L276.028 26.7418L295.894 44.1627H287.214ZM327.917 38.7528H331.964L337.853 49.4237H331.849L327.638 44.2123H305.383L306.854 49.4237H300.849L294.96 38.7528H298.614L295.556 16.5175C295.459 15.7234 295.393 14.9128 295.356 14.0856C295.336 13.2253 295.514 12.4477 295.893 11.7529C296.243 11.0249 296.936 10.4459 297.97 10.0158C299.004 9.5856 300.499 9.37053 302.457 9.37053H311.724L327.917 38.7528ZM320.673 38.7528L307.062 14.036H306.149C305.453 14.036 304.833 14.1021 304.291 14.2345C303.764 14.3337 303.362 14.5819 303.084 14.979C302.822 15.3429 302.752 15.9385 302.876 16.7657L306.25 38.7528H320.673ZM338.288 44.1627L319.065 9.42016H340.928L343.976 14.8797H329.292L334.156 23.6149H343.097L344.502 28.8263H336.997L342.727 39.1498H357.281L360.021 44.1627H338.288ZM363.801 14.9293L380 44.1627H372.756L356.622 14.9293H347.094L344.069 9.42016H370.435L373.46 14.9293H363.801Z" fill="#DEF37B"/>
</svg>
