<svg width="392" height="50" viewBox="0 0 392 50" fill="none" xmlns="http://www.w3.org/2000/svg">
<g clip-path="url(#clip0_395_740)">
<path d="M44.3975 0.903809C44.9955 0.903809 45.5705 0.988143 46.1225 1.15681C46.6899 1.32548 47.1729 1.61681 47.5715 2.03081C47.9702 2.44481 48.2385 3.02747 48.3765 3.77881C48.5145 4.51481 48.4609 5.45014 48.2155 6.58481C47.9549 7.82681 47.5945 8.83881 47.1345 9.62081C46.6899 10.4028 46.1762 11.0008 45.5935 11.4148C45.0262 11.8288 44.4282 12.1125 43.7995 12.2658C43.1709 12.4191 42.5499 12.4958 41.9365 12.4958H39.4525L38.5095 17.0038H35.9565L39.3835 0.903809H44.3975ZM39.9815 10.0808H41.4995C42.0975 10.0808 42.6189 10.0425 43.0635 9.96581C43.5082 9.88914 43.8915 9.73581 44.2135 9.50581C44.5509 9.26047 44.8345 8.90781 45.0645 8.44781C45.2945 7.98781 45.4939 7.36681 45.6625 6.58481C45.8159 5.86414 45.8695 5.29681 45.8235 4.88281C45.7775 4.45347 45.6319 4.13914 45.3865 3.93981C45.1565 3.72514 44.8345 3.58714 44.4205 3.52581C44.0065 3.46447 43.5005 3.43381 42.9025 3.43381H41.3845L39.9815 10.0808ZM56.8357 12.7488C56.5597 14.0981 55.9847 15.1868 55.1107 16.0148C54.252 16.8275 53.1173 17.2338 51.7067 17.2338C50.6947 17.2338 49.9127 17.0268 49.3607 16.6128C48.824 16.1835 48.479 15.6315 48.3257 14.9568C48.1723 14.2668 48.1723 13.5308 48.3257 12.7488L48.9927 9.71281C49.2073 8.73147 49.5447 7.91114 50.0047 7.25181C50.48 6.59247 51.0703 6.09414 51.7757 5.75681C52.4963 5.40414 53.3243 5.22781 54.2597 5.22781C55.5937 5.22781 56.5443 5.62647 57.1117 6.42381C57.679 7.20581 57.8093 8.30214 57.5027 9.71281L56.8357 12.7488ZM54.9267 9.57481C55.0033 9.20681 55.011 8.89247 54.9497 8.63181C54.8883 8.35581 54.7503 8.14881 54.5357 8.01081C54.3363 7.85747 54.0527 7.78081 53.6847 7.78081C53.3167 7.78081 52.987 7.84981 52.6957 7.98781C52.4197 8.12581 52.182 8.32514 51.9827 8.58581C51.7987 8.84647 51.6607 9.17614 51.5687 9.57481L50.8557 12.9328C50.7943 13.2395 50.7943 13.5308 50.8557 13.8068C50.917 14.0828 51.055 14.3051 51.2697 14.4738C51.4843 14.6425 51.7987 14.7268 52.2127 14.7268C52.596 14.7268 52.918 14.6501 53.1787 14.4968C53.4547 14.3435 53.677 14.1288 53.8457 13.8528C54.0143 13.5768 54.137 13.2701 54.2137 12.9328L54.9267 9.57481ZM66.1419 7.94181C65.8659 7.78847 65.5515 7.67347 65.1989 7.59681C64.8615 7.50481 64.5165 7.45114 64.1639 7.43581C63.7499 7.43581 63.3589 7.50481 62.9909 7.64281C62.6229 7.76547 62.3085 7.97247 62.0479 8.26381C61.7872 8.53981 61.6109 8.90781 61.5189 9.36781L60.7599 12.9788C60.6832 13.3315 60.6755 13.6458 60.7369 13.9218C60.7982 14.1825 60.9132 14.3971 61.0819 14.5658C61.2659 14.7345 61.4959 14.8648 61.7719 14.9568C62.0479 15.0335 62.3622 15.0718 62.7149 15.0718C62.9602 15.0718 63.2055 15.0641 63.4509 15.0488C63.7115 15.0181 63.9415 14.9875 64.1409 14.9568C64.3402 14.9108 64.5012 14.8801 64.6239 14.8648C64.7465 14.8341 64.8079 14.8188 64.8079 14.8188L64.8309 16.8888C64.3249 17.0115 63.8112 17.1111 63.2899 17.1878C62.7685 17.2645 62.2472 17.2951 61.7259 17.2798C60.8519 17.2645 60.1159 17.1035 59.5179 16.7968C58.9199 16.4901 58.5059 16.0225 58.2759 15.3938C58.0459 14.7651 58.0305 13.9678 58.2299 13.0018L58.9659 9.64381C59.1652 8.75447 59.4795 7.97247 59.9089 7.29781C60.3535 6.62314 60.9362 6.10181 61.6569 5.73381C62.3929 5.36581 63.2899 5.19714 64.3479 5.22781C64.8385 5.24314 65.3139 5.31981 65.7739 5.45781C66.2492 5.59581 66.6939 5.77214 67.1079 5.98681L66.1419 7.94181ZM74.9915 7.94181C74.7155 7.78847 74.4011 7.67347 74.0485 7.59681C73.7111 7.50481 73.3661 7.45114 73.0135 7.43581C72.5995 7.43581 72.2085 7.50481 71.8405 7.64281C71.4725 7.76547 71.1581 7.97247 70.8975 8.26381C70.6368 8.53981 70.4605 8.90781 70.3685 9.36781L69.6095 12.9788C69.5328 13.3315 69.5251 13.6458 69.5865 13.9218C69.6478 14.1825 69.7628 14.3971 69.9315 14.5658C70.1155 14.7345 70.3455 14.8648 70.6215 14.9568C70.8975 15.0335 71.2118 15.0718 71.5645 15.0718C71.8098 15.0718 72.0551 15.0641 72.3005 15.0488C72.5611 15.0181 72.7911 14.9875 72.9905 14.9568C73.1898 14.9108 73.3508 14.8801 73.4735 14.8648C73.5961 14.8341 73.6575 14.8188 73.6575 14.8188L73.6805 16.8888C73.1745 17.0115 72.6608 17.1111 72.1395 17.1878C71.6181 17.2645 71.0968 17.2951 70.5755 17.2798C69.7015 17.2645 68.9655 17.1035 68.3675 16.7968C67.7695 16.4901 67.3555 16.0225 67.1255 15.3938C66.8955 14.7651 66.8801 13.9678 67.0795 13.0018L67.8155 9.64381C68.0148 8.75447 68.3291 7.97247 68.7585 7.29781C69.2031 6.62314 69.7858 6.10181 70.5065 5.73381C71.2425 5.36581 72.1395 5.19714 73.1975 5.22781C73.6881 5.24314 74.1635 5.31981 74.6235 5.45781C75.0988 5.59581 75.5435 5.77214 75.9575 5.98681L74.9915 7.94181ZM80.2301 5.50381L78.7811 12.3348L83.6111 5.50381H86.1871L83.7491 17.0268H81.1731L82.5991 10.2418L77.7921 17.0268H75.2621L77.7001 5.50381H80.2301ZM95.9227 1.61681L95.8997 1.7778C95.8077 2.23781 95.5931 2.66714 95.2557 3.06581C94.9337 3.46447 94.5504 3.78647 94.1057 4.03181C93.6611 4.26181 93.2011 4.37681 92.7257 4.37681C92.2504 4.37681 91.8364 4.26181 91.4837 4.03181C91.1464 3.78647 90.9011 3.46447 90.7477 3.06581C90.5944 2.66714 90.5637 2.23781 90.6557 1.7778L90.7017 1.61681H92.4727L92.4267 1.7778C92.3654 1.97714 92.3884 2.16114 92.4957 2.32981C92.6184 2.48314 92.7871 2.55981 93.0017 2.55981C93.2624 2.55981 93.4771 2.47547 93.6457 2.3068C93.8144 2.13814 93.9294 1.96181 93.9907 1.7778L94.0367 1.61681H95.9227ZM90.4947 5.50381L89.0457 12.3348L93.8757 5.50381H96.4517L94.0137 17.0268H91.4377L92.8637 10.2418L88.0567 17.0268H85.5267L87.9647 5.50381H90.4947ZM104.37 7.94181C104.094 7.78847 103.78 7.67347 103.427 7.59681C103.09 7.50481 102.745 7.45114 102.392 7.43581C101.978 7.43581 101.587 7.50481 101.219 7.64281C100.851 7.76547 100.537 7.97247 100.276 8.26381C100.016 8.53981 99.8394 8.90781 99.7474 9.36781L98.9884 12.9788C98.9117 13.3315 98.9041 13.6458 98.9654 13.9218C99.0267 14.1825 99.1417 14.3971 99.3104 14.5658C99.4944 14.7345 99.7244 14.8648 100 14.9568C100.276 15.0335 100.591 15.0718 100.943 15.0718C101.189 15.0718 101.434 15.0641 101.679 15.0488C101.94 15.0181 102.17 14.9875 102.369 14.9568C102.569 14.9108 102.73 14.8801 102.852 14.8648C102.975 14.8341 103.036 14.8188 103.036 14.8188L103.059 16.8888C102.553 17.0115 102.04 17.1111 101.518 17.1878C100.997 17.2645 100.476 17.2951 99.9544 17.2798C99.0804 17.2645 98.3444 17.1035 97.7464 16.7968C97.1484 16.4901 96.7344 16.0225 96.5044 15.3938C96.2744 14.7651 96.2591 13.9678 96.4584 13.0018L97.1944 9.64381C97.3937 8.75447 97.7081 7.97247 98.1374 7.29781C98.5821 6.62314 99.1647 6.10181 99.8854 5.73381C100.621 5.36581 101.518 5.19714 102.576 5.22781C103.067 5.24314 103.542 5.31981 104.002 5.45781C104.478 5.59581 104.922 5.77214 105.336 5.98681L104.37 7.94181ZM112.76 13.3238C112.959 13.7071 113.128 14.0061 113.266 14.2208C113.419 14.4201 113.565 14.5581 113.703 14.6348C113.856 14.7115 114.025 14.7498 114.209 14.7498H114.324L113.772 17.0038H113.427C112.86 17.0038 112.377 16.8811 111.978 16.6358C111.595 16.3905 111.265 16.0685 110.989 15.6698C110.728 15.2711 110.483 14.8495 110.253 14.4048L108.965 11.8978L108.16 12.5188L107.217 17.0038H104.664L107.171 5.22781L109.655 5.50381L108.85 9.32181L113.197 5.48081H116.348L111.15 10.1038L112.76 13.3238ZM120.547 5.50381L119.098 12.3348L123.928 5.50381H126.504L124.066 17.0268H121.49L122.916 10.2418L118.109 17.0268H115.579L118.017 5.50381H120.547ZM136.24 1.61681L136.217 1.7778C136.125 2.23781 135.91 2.66714 135.573 3.06581C135.251 3.46447 134.868 3.78647 134.423 4.03181C133.978 4.26181 133.518 4.37681 133.043 4.37681C132.568 4.37681 132.154 4.26181 131.801 4.03181C131.464 3.78647 131.218 3.46447 131.065 3.06581C130.912 2.66714 130.881 2.23781 130.973 1.7778L131.019 1.61681H132.79L132.744 1.7778C132.683 1.97714 132.706 2.16114 132.813 2.32981C132.936 2.48314 133.104 2.55981 133.319 2.55981C133.58 2.55981 133.794 2.47547 133.963 2.3068C134.132 2.13814 134.247 1.96181 134.308 1.7778L134.354 1.61681H136.24ZM130.812 5.50381L129.363 12.3348L134.193 5.50381H136.769L134.331 17.0268H131.755L133.181 10.2418L128.374 17.0268H125.844L128.282 5.50381H130.812ZM151.824 13.0708C151.64 14.0061 151.326 14.7958 150.881 15.4398C150.452 16.0838 149.915 16.5745 149.271 16.9118C148.627 17.2338 147.876 17.3948 147.017 17.3948C146.833 17.3948 146.649 17.3795 146.465 17.3488C146.281 17.3181 146.105 17.2798 145.936 17.2338C145.767 17.1878 145.606 17.1265 145.453 17.0498C145.315 16.9885 145.185 16.9195 145.062 16.8428L143.981 21.9718L141.566 21.3968L144.027 9.82781C144.334 8.37114 144.939 7.25947 145.844 6.49281C146.764 5.71081 147.922 5.31981 149.317 5.31981C150.636 5.31981 151.579 5.71847 152.146 6.51581C152.713 7.31314 152.844 8.41714 152.537 9.82781L151.824 13.0708ZM150.03 9.68981C150.107 9.32181 150.107 9.00747 150.03 8.74681C149.953 8.47081 149.8 8.25614 149.57 8.10281C149.34 7.94947 149.041 7.87281 148.673 7.87281C148.32 7.87281 147.998 7.94181 147.707 8.07981C147.416 8.21781 147.178 8.42481 146.994 8.70081C146.81 8.96147 146.672 9.29114 146.58 9.68981L145.683 13.8988C145.637 14.0981 145.66 14.2745 145.752 14.4278C145.859 14.5811 146.005 14.7115 146.189 14.8188C146.373 14.9261 146.565 15.0028 146.764 15.0488C146.979 15.0948 147.178 15.1178 147.362 15.1178C147.699 15.1178 147.991 15.0488 148.236 14.9108C148.497 14.7728 148.711 14.5811 148.88 14.3358C149.049 14.0751 149.164 13.7685 149.225 13.4158L150.03 9.68981ZM154.96 7.96481L154.799 5.98681C155.32 5.77214 155.849 5.59581 156.386 5.45781C156.922 5.31981 157.444 5.24314 157.95 5.22781C158.9 5.19714 159.659 5.37347 160.227 5.75681C160.809 6.14014 161.193 6.66914 161.377 7.34381C161.576 8.00314 161.584 8.76981 161.4 9.64381L160.687 13.0018C160.487 13.9831 160.135 14.7881 159.629 15.4168C159.123 16.0301 158.502 16.4901 157.766 16.7968C157.045 17.0881 156.24 17.2491 155.351 17.2798C154.829 17.2951 154.323 17.2645 153.833 17.1878C153.342 17.1111 152.874 17.0115 152.43 16.8888L153.327 14.8188C153.327 14.8188 153.38 14.8341 153.488 14.8648C153.595 14.8801 153.748 14.9108 153.948 14.9568C154.147 14.9875 154.362 15.0181 154.592 15.0488C154.837 15.0641 155.082 15.0718 155.328 15.0718C155.803 15.0718 156.232 14.9951 156.616 14.8418C157.014 14.6885 157.344 14.4585 157.605 14.1518C157.881 13.8451 158.065 13.4541 158.157 12.9788L158.272 12.4958H155.236L155.029 10.0808H158.778L158.939 9.36781C159.046 8.89247 159.023 8.50914 158.87 8.21781C158.716 7.92647 158.471 7.71947 158.134 7.59681C157.812 7.45881 157.421 7.40514 156.961 7.43581C156.623 7.45114 156.278 7.51247 155.926 7.61981C155.588 7.71181 155.266 7.82681 154.96 7.96481ZM170.667 14.5658C170.652 14.8111 170.682 15.0105 170.759 15.1638C170.851 15.3171 170.981 15.4551 171.15 15.5778L169.264 17.3948C169.279 17.3948 169.203 17.3565 169.034 17.2798C168.881 17.2031 168.704 17.0805 168.505 16.9118C168.321 16.7431 168.175 16.5131 168.068 16.2218C167.961 15.9151 167.953 15.5318 168.045 15.0718L169.586 7.87281H165.952L164.02 17.0038H161.467L163.928 5.48081H172.599L170.667 14.5658ZM173.831 9.94281L174.36 7.48181H181.72L181.191 9.94281H173.831ZM186.448 5.50381L184.999 12.3348L189.829 5.50381H192.405L189.967 17.0268H187.391L188.817 10.2418L184.01 17.0268H181.48L183.918 5.50381H186.448ZM200.323 7.94181C200.047 7.78847 199.733 7.67347 199.38 7.59681C199.043 7.50481 198.698 7.45114 198.345 7.43581C197.931 7.43581 197.54 7.50481 197.172 7.64281C196.804 7.76547 196.49 7.97247 196.229 8.26381C195.969 8.53981 195.792 8.90781 195.7 9.36781L194.941 12.9788C194.865 13.3315 194.857 13.6458 194.918 13.9218C194.98 14.1825 195.095 14.3971 195.263 14.5658C195.447 14.7345 195.677 14.8648 195.953 14.9568C196.229 15.0335 196.544 15.0718 196.896 15.0718C197.142 15.0718 197.387 15.0641 197.632 15.0488C197.893 15.0181 198.123 14.9875 198.322 14.9568C198.522 14.9108 198.683 14.8801 198.805 14.8648C198.928 14.8341 198.989 14.8188 198.989 14.8188L199.012 16.8888C198.506 17.0115 197.993 17.1111 197.471 17.1878C196.95 17.2645 196.429 17.2951 195.907 17.2798C195.033 17.2645 194.297 17.1035 193.699 16.7968C193.101 16.4901 192.687 16.0225 192.457 15.3938C192.227 14.7651 192.212 13.9678 192.411 13.0018L193.147 9.64381C193.347 8.75447 193.661 7.97247 194.09 7.29781C194.535 6.62314 195.118 6.10181 195.838 5.73381C196.574 5.36581 197.471 5.19714 198.529 5.22781C199.02 5.24314 199.495 5.31981 199.955 5.45781C200.431 5.59581 200.875 5.77214 201.289 5.98681L200.323 7.94181ZM209.794 14.5658C209.779 14.8111 209.809 15.0105 209.886 15.1638C209.978 15.3171 210.108 15.4551 210.277 15.5778L208.391 17.3948C208.406 17.3948 208.33 17.3565 208.161 17.2798C208.008 17.2031 207.831 17.0805 207.632 16.9118C207.448 16.7431 207.302 16.5131 207.195 16.2218C207.088 15.9151 207.08 15.5318 207.172 15.0718L208.713 7.87281H205.079L203.147 17.0038H200.594L203.055 5.48081H211.726L209.794 14.5658ZM220.778 12.7488C220.502 14.0981 219.927 15.1868 219.053 16.0148C218.194 16.8275 217.06 17.2338 215.649 17.2338C214.637 17.2338 213.855 17.0268 213.303 16.6128C212.766 16.1835 212.421 15.6315 212.268 14.9568C212.115 14.2668 212.115 13.5308 212.268 12.7488L212.935 9.71281C213.15 8.73147 213.487 7.91114 213.947 7.25181C214.422 6.59247 215.013 6.09414 215.718 5.75681C216.439 5.40414 217.267 5.22781 218.202 5.22781C219.536 5.22781 220.487 5.62647 221.054 6.42381C221.621 7.20581 221.752 8.30214 221.445 9.71281L220.778 12.7488ZM218.869 9.57481C218.946 9.20681 218.953 8.89247 218.892 8.63181C218.831 8.35581 218.693 8.14881 218.478 8.01081C218.279 7.85747 217.995 7.78081 217.627 7.78081C217.259 7.78081 216.929 7.84981 216.638 7.98781C216.362 8.12581 216.124 8.32514 215.925 8.58581C215.741 8.84647 215.603 9.17614 215.511 9.57481L214.798 12.9328C214.737 13.2395 214.737 13.5308 214.798 13.8068C214.859 14.0828 214.997 14.3051 215.212 14.4738C215.427 14.6425 215.741 14.7268 216.155 14.7268C216.538 14.7268 216.86 14.6501 217.121 14.4968C217.397 14.3435 217.619 14.1288 217.788 13.8528C217.957 13.5768 218.079 13.2701 218.156 12.9328L218.869 9.57481ZM230.452 5.50381H234.316L231.878 16.9808H229.325L231.303 7.66581H230.59C230.268 7.66581 229.977 7.70414 229.716 7.78081C229.471 7.85747 229.241 7.99547 229.026 8.19481C228.827 8.39414 228.627 8.68547 228.428 9.06881L226.082 13.7608C225.653 14.6041 225.239 15.2788 224.84 15.7848C224.457 16.2755 224.02 16.6588 223.529 16.9348C223.054 17.1955 222.463 17.4025 221.758 17.5558L220.723 16.3368C221.06 16.1681 221.352 16.0148 221.597 15.8768C221.858 15.7388 222.103 15.5395 222.333 15.2788C222.578 15.0181 222.839 14.6271 223.115 14.1058L225.76 8.95381C225.944 8.58581 226.166 8.20247 226.427 7.80381C226.688 7.40514 226.994 7.02947 227.347 6.67681C227.715 6.32414 228.152 6.04047 228.658 5.82581C229.164 5.61114 229.762 5.50381 230.452 5.50381ZM241.312 9.50581L242.163 5.50381H244.693L242.255 17.0038H239.725L240.806 11.9208H237.402L236.321 17.0038H233.768L236.206 5.50381H238.759L237.908 9.50581H241.312ZM248.979 5.50381L247.53 12.3348L252.36 5.50381H254.936L252.498 17.0268H249.922L251.348 10.2418L246.541 17.0268H244.011L246.449 5.50381H248.979ZM259.405 13.5998C259.328 13.9831 259.305 14.3128 259.336 14.5888C259.382 14.8648 259.489 15.0948 259.658 15.2788C259.842 15.4475 260.095 15.5931 260.417 15.7158L258.945 17.4638C258.515 17.3411 258.14 17.1801 257.818 16.9808C257.511 16.7661 257.266 16.5131 257.082 16.2218C256.898 15.9151 256.783 15.5701 256.737 15.1868C256.691 14.8035 256.714 14.3895 256.806 13.9448L258.094 7.87281H255.955L256.461 5.48081H263.43L262.924 7.87281H260.624L259.405 13.5998ZM265.715 13.5768C265.669 13.7761 265.661 13.9601 265.692 14.1288C265.722 14.2821 265.776 14.4201 265.853 14.5428C265.945 14.6655 266.067 14.7575 266.221 14.8188C266.374 14.8801 266.55 14.9108 266.75 14.9108C267.164 14.9108 267.654 14.8188 268.222 14.6348C268.789 14.4508 269.341 14.2361 269.878 13.9908L270.338 16.1988C269.724 16.5361 269.05 16.8045 268.314 17.0038C267.578 17.2031 266.865 17.3028 266.175 17.3028C265.638 17.3028 265.147 17.2338 264.703 17.0958C264.273 16.9578 263.913 16.7508 263.622 16.4748C263.346 16.1988 263.154 15.8461 263.047 15.4168C262.955 14.9875 262.97 14.4815 263.093 13.8988L264.105 9.18381C264.289 8.34047 264.611 7.62747 265.071 7.04481C265.546 6.46214 266.121 6.01747 266.796 5.71081C267.486 5.40414 268.245 5.25081 269.073 5.25081C269.901 5.25081 270.591 5.39647 271.143 5.68781C271.71 5.97914 272.109 6.40847 272.339 6.97581C272.569 7.54314 272.592 8.25614 272.408 9.11481L271.649 12.7028L265.853 13.0018L265.715 13.5768ZM269.717 9.80481C269.778 9.48281 269.809 9.15314 269.809 8.81581C269.809 8.47847 269.724 8.20247 269.556 7.98781C269.402 7.75781 269.096 7.65814 268.636 7.68881C268.16 7.70414 267.785 7.80381 267.509 7.98781C267.248 8.15647 267.041 8.39414 266.888 8.70081C266.75 8.99214 266.627 9.35247 266.52 9.78181L266.336 10.6788L269.556 10.4718L269.717 9.80481ZM281.304 5.50381H285.168L282.73 16.9808H280.177L282.155 7.66581H281.442C281.12 7.66581 280.828 7.70414 280.568 7.78081C280.322 7.85747 280.092 7.99547 279.878 8.19481C279.678 8.39414 279.479 8.68547 279.28 9.06881L276.934 13.7608C276.504 14.6041 276.09 15.2788 275.692 15.7848C275.308 16.2755 274.871 16.6588 274.381 16.9348C273.905 17.1955 273.315 17.4025 272.61 17.5558L271.575 16.3368C271.912 16.1681 272.203 16.0148 272.449 15.8768C272.709 15.7388 272.955 15.5395 273.185 15.2788C273.43 15.0181 273.691 14.6271 273.967 14.1058L276.612 8.95381C276.796 8.58581 277.018 8.20247 277.279 7.80381C277.539 7.40514 277.846 7.02947 278.199 6.67681C278.567 6.32414 279.004 6.04047 279.51 5.82581C280.016 5.61114 280.614 5.50381 281.304 5.50381ZM291.082 10.0348C291.772 10.0348 292.393 10.1575 292.945 10.4028C293.513 10.6328 293.934 11.0085 294.21 11.5298C294.486 12.0358 294.532 12.7028 294.348 13.5308C294.226 14.1288 293.957 14.7115 293.543 15.2788C293.129 15.8308 292.585 16.2908 291.91 16.6588C291.236 17.0268 290.438 17.2108 289.518 17.2108C289.227 17.2108 288.874 17.2031 288.46 17.1878C288.062 17.1725 287.64 17.1495 287.195 17.1188C286.766 17.0881 286.36 17.0575 285.976 17.0268C285.593 17.0115 285.279 16.9961 285.033 16.9808C284.803 16.9655 284.688 16.9578 284.688 16.9578L287.126 5.50381H289.679L288.713 10.0348H291.082ZM289.633 14.6118C289.986 14.6118 290.3 14.5811 290.576 14.5198C290.868 14.4431 291.113 14.3205 291.312 14.1518C291.512 13.9831 291.642 13.7531 291.703 13.4618C291.749 13.2778 291.749 13.1168 291.703 12.9788C291.657 12.8408 291.573 12.7258 291.45 12.6338C291.343 12.5418 291.197 12.4805 291.013 12.4498C290.829 12.4038 290.622 12.3808 290.392 12.3808H288.23L287.77 14.5658C287.939 14.5658 288.108 14.5735 288.276 14.5888C288.46 14.5888 288.629 14.5965 288.782 14.6118C288.951 14.6118 289.104 14.6118 289.242 14.6118C289.396 14.6118 289.526 14.6118 289.633 14.6118ZM295.339 18.5218C295.507 18.3071 295.638 18.0848 295.73 17.8548C295.837 17.6401 295.944 17.4178 296.052 17.1878C295.76 17.1111 295.546 16.9501 295.408 16.7048C295.27 16.4595 295.231 16.1758 295.293 15.8538C295.369 15.4858 295.569 15.1638 295.891 14.8878C296.228 14.6118 296.588 14.4738 296.972 14.4738C297.34 14.4738 297.623 14.6118 297.823 14.8878C298.022 15.1638 298.083 15.4858 298.007 15.8538C297.915 16.3751 297.746 16.8275 297.501 17.2108C297.271 17.5941 297.018 17.9085 296.742 18.1538C296.481 18.4145 296.259 18.6061 296.075 18.7288C295.891 18.8515 295.806 18.9128 295.822 18.9128L295.339 18.5218ZM316.769 5.80281C316.615 6.27814 316.485 6.70747 316.378 7.09081C316.286 7.45881 316.209 7.77314 316.148 8.03381L314.262 16.8888C314.262 16.8888 314.154 16.8965 313.94 16.9118C313.74 16.9271 313.464 16.9501 313.112 16.9808C312.774 16.9961 312.391 17.0115 311.962 17.0268C311.548 17.0421 311.126 17.0575 310.697 17.0728C310.283 17.0881 309.899 17.0958 309.547 17.0958C308.841 17.0958 308.266 16.9885 307.822 16.7738C307.392 16.5591 307.07 16.2678 306.856 15.8998C306.641 15.5318 306.518 15.1101 306.488 14.6348C306.472 14.1441 306.518 13.6305 306.626 13.0938L307.546 8.83881C307.684 8.16414 307.875 7.60447 308.121 7.15981C308.381 6.69981 308.673 6.33947 308.995 6.07881C309.332 5.80281 309.7 5.61114 310.099 5.50381C310.497 5.38114 310.927 5.31981 311.387 5.31981C311.862 5.31981 312.299 5.35047 312.698 5.41181C313.096 5.47314 313.426 5.54214 313.687 5.61881C313.963 5.69547 314.154 5.75681 314.262 5.80281C314.262 5.80281 314.292 5.74147 314.354 5.61881C314.43 5.48081 314.515 5.35047 314.607 5.22781L316.769 5.80281ZM309.156 13.1168C309.064 13.6228 309.048 14.0138 309.11 14.2898C309.171 14.5505 309.309 14.7345 309.524 14.8418C309.754 14.9338 310.053 14.9798 310.421 14.9798C310.559 14.9798 310.697 14.9798 310.835 14.9798C310.973 14.9798 311.111 14.9798 311.249 14.9798C311.387 14.9645 311.525 14.9491 311.663 14.9338C311.816 14.9185 311.969 14.9031 312.123 14.8878L313.549 8.10281C313.441 8.04147 313.311 7.98781 313.158 7.94181C313.004 7.88047 312.836 7.82681 312.652 7.78081C312.483 7.73481 312.314 7.70414 312.146 7.68881C311.992 7.65814 311.854 7.64281 311.732 7.64281C311.609 7.64281 311.463 7.65047 311.295 7.66581C311.141 7.68114 310.98 7.73481 310.812 7.82681C310.643 7.90347 310.49 8.02614 310.352 8.19481C310.214 8.36347 310.114 8.60114 310.053 8.90781L309.156 13.1168ZM324.454 13.3238C324.654 13.7071 324.822 14.0061 324.96 14.2208C325.114 14.4201 325.259 14.5581 325.397 14.6348C325.551 14.7115 325.719 14.7498 325.903 14.7498H326.018L325.466 17.0038H325.121C324.554 17.0038 324.071 16.8811 323.672 16.6358C323.289 16.3905 322.959 16.0685 322.683 15.6698C322.423 15.2711 322.177 14.8495 321.947 14.4048L320.659 11.8978L319.854 12.5188L318.911 17.0038H316.358L318.865 5.22781L321.349 5.50381L320.544 9.32181L324.891 5.48081H328.042L322.844 10.1038L324.454 13.3238ZM332.403 13.5998C332.326 13.9831 332.303 14.3128 332.334 14.5888C332.38 14.8648 332.487 15.0948 332.656 15.2788C332.84 15.4475 333.093 15.5931 333.415 15.7158L331.943 17.4638C331.513 17.3411 331.138 17.1801 330.816 16.9808C330.509 16.7661 330.264 16.5131 330.08 16.2218C329.896 15.9151 329.781 15.5701 329.735 15.1868C329.689 14.8035 329.712 14.3895 329.804 13.9448L331.092 7.87281H328.953L329.459 5.48081H336.428L335.922 7.87281H333.622L332.403 13.5998ZM341.105 1.27181C341.488 1.27181 341.779 1.40981 341.979 1.68581C342.193 1.94647 342.255 2.26081 342.163 2.62881C342.086 3.01214 341.887 3.34181 341.565 3.61781C341.258 3.87847 340.905 4.00881 340.507 4.00881C340.123 4.00881 339.824 3.87847 339.61 3.61781C339.41 3.34181 339.349 3.01214 339.426 2.62881C339.502 2.26081 339.702 1.94647 340.024 1.68581C340.361 1.40981 340.721 1.27181 341.105 1.27181ZM344.739 1.27181C345.137 1.27181 345.436 1.40981 345.636 1.68581C345.85 1.94647 345.919 2.26081 345.843 2.62881C345.766 3.01214 345.559 3.34181 345.222 3.61781C344.9 3.87847 344.547 4.00881 344.164 4.00881C343.78 4.00881 343.481 3.87847 343.267 3.61781C343.067 3.34181 343.006 3.01214 343.083 2.62881C343.159 2.26081 343.359 1.94647 343.681 1.68581C344.003 1.40981 344.355 1.27181 344.739 1.27181ZM338.713 13.5768C338.667 13.7761 338.659 13.9601 338.69 14.1288C338.72 14.2821 338.774 14.4201 338.851 14.5428C338.943 14.6655 339.065 14.7575 339.219 14.8188C339.372 14.8801 339.548 14.9108 339.748 14.9108C340.162 14.9108 340.652 14.8188 341.22 14.6348C341.787 14.4508 342.339 14.2361 342.876 13.9908L343.336 16.1988C342.722 16.5361 342.048 16.8045 341.312 17.0038C340.576 17.2031 339.863 17.3028 339.173 17.3028C338.636 17.3028 338.145 17.2338 337.701 17.0958C337.271 16.9578 336.911 16.7508 336.62 16.4748C336.344 16.1988 336.152 15.8461 336.045 15.4168C335.953 14.9875 335.968 14.4815 336.091 13.8988L337.103 9.18381C337.287 8.34047 337.609 7.62747 338.069 7.04481C338.544 6.46214 339.119 6.01747 339.794 5.71081C340.484 5.40414 341.243 5.25081 342.071 5.25081C342.899 5.25081 343.589 5.39647 344.141 5.68781C344.708 5.97914 345.107 6.40847 345.337 6.97581C345.567 7.54314 345.59 8.25614 345.406 9.11481L344.647 12.7028L338.851 13.0018L338.713 13.5768ZM342.715 9.80481C342.776 9.48281 342.807 9.15314 342.807 8.81581C342.807 8.47847 342.722 8.20247 342.554 7.98781C342.4 7.75781 342.094 7.65814 341.634 7.68881C341.158 7.70414 340.783 7.80381 340.507 7.98781C340.246 8.15647 340.039 8.39414 339.886 8.70081C339.748 8.99214 339.625 9.35247 339.518 9.78181L339.334 10.6788L342.554 10.4718L342.715 9.80481ZM354.511 13.0708C354.327 14.0061 354.013 14.7958 353.568 15.4398C353.139 16.0838 352.602 16.5745 351.958 16.9118C351.314 17.2338 350.563 17.3948 349.704 17.3948C349.52 17.3948 349.336 17.3795 349.152 17.3488C348.968 17.3181 348.792 17.2798 348.623 17.2338C348.455 17.1878 348.294 17.1265 348.14 17.0498C348.002 16.9885 347.872 16.9195 347.749 16.8428L346.668 21.9718L344.253 21.3968L346.714 9.82781C347.021 8.37114 347.627 7.25947 348.531 6.49281C349.451 5.71081 350.609 5.31981 352.004 5.31981C353.323 5.31981 354.266 5.71847 354.833 6.51581C355.401 7.31314 355.531 8.41714 355.224 9.82781L354.511 13.0708ZM352.717 9.68981C352.794 9.32181 352.794 9.00747 352.717 8.74681C352.641 8.47081 352.487 8.25614 352.257 8.10281C352.027 7.94947 351.728 7.87281 351.36 7.87281C351.008 7.87281 350.686 7.94181 350.394 8.07981C350.103 8.21781 349.865 8.42481 349.681 8.70081C349.497 8.96147 349.359 9.29114 349.267 9.68981L348.37 13.8988C348.324 14.0981 348.347 14.2745 348.439 14.4278C348.547 14.5811 348.692 14.7115 348.876 14.8188C349.06 14.9261 349.252 15.0028 349.451 15.0488C349.666 15.0948 349.865 15.1178 350.049 15.1178C350.387 15.1178 350.678 15.0488 350.923 14.9108C351.184 14.7728 351.399 14.5811 351.567 14.3358C351.736 14.0751 351.851 13.7685 351.912 13.4158L352.717 9.68981ZM355.646 18.5218C355.815 18.3071 355.945 18.0848 356.037 17.8548C356.145 17.6401 356.252 17.4178 356.359 17.1878C356.068 17.1111 355.853 16.9501 355.715 16.7048C355.577 16.4595 355.539 16.1758 355.6 15.8538C355.677 15.4858 355.876 15.1638 356.198 14.8878C356.536 14.6118 356.896 14.4738 357.279 14.4738C357.647 14.4738 357.931 14.6118 358.13 14.8878C358.33 15.1638 358.391 15.4858 358.314 15.8538C358.222 16.3751 358.054 16.8275 357.808 17.2108C357.578 17.5941 357.325 17.9085 357.049 18.1538C356.789 18.4145 356.566 18.6061 356.382 18.7288C356.198 18.8515 356.114 18.9128 356.129 18.9128L355.646 18.5218ZM8.75419 34.9418C8.47819 34.7885 8.16385 34.6735 7.81119 34.5968C7.47385 34.5048 7.12885 34.4511 6.77619 34.4358C6.36219 34.4358 5.97119 34.5048 5.60319 34.6428C5.23519 34.7655 4.92085 34.9725 4.66019 35.2638C4.39952 35.5398 4.22319 35.9078 4.13119 36.3678L3.37219 39.9788C3.29552 40.3315 3.28785 40.6458 3.34919 40.9218C3.41052 41.1825 3.52552 41.3971 3.69419 41.5658C3.87819 41.7345 4.10819 41.8648 4.38419 41.9568C4.66019 42.0335 4.97452 42.0718 5.32719 42.0718C5.57252 42.0718 5.81785 42.0641 6.06319 42.0488C6.32385 42.0181 6.55385 41.9875 6.75319 41.9568C6.95252 41.9108 7.11352 41.8801 7.23619 41.8648C7.35885 41.8341 7.42019 41.8188 7.42019 41.8188L7.44319 43.8888C6.93719 44.0115 6.42352 44.1111 5.90219 44.1878C5.38085 44.2645 4.85952 44.2951 4.33819 44.2798C3.46419 44.2645 2.72819 44.1035 2.13019 43.7968C1.53219 43.4901 1.11819 43.0225 0.88819 42.3938C0.65819 41.7651 0.642857 40.9678 0.84219 40.0018L1.57819 36.6438C1.77752 35.7545 2.09185 34.9725 2.52119 34.2978C2.96585 33.6231 3.54852 33.1018 4.26919 32.7338C5.00519 32.3658 5.90219 32.1971 6.96019 32.2278C7.45085 32.2431 7.92619 32.3198 8.38619 32.4578C8.86152 32.5958 9.30619 32.7721 9.72019 32.9868L8.75419 34.9418ZM14.1538 40.5998C14.0771 40.9831 14.0541 41.3128 14.0848 41.5888C14.1308 41.8648 14.2381 42.0948 14.4068 42.2788C14.5908 42.4475 14.8438 42.5931 15.1658 42.7158L13.6938 44.4638C13.2645 44.3411 12.8888 44.1801 12.5668 43.9808C12.2601 43.7661 12.0148 43.5131 11.8308 43.2218C11.6468 42.9151 11.5318 42.5701 11.4858 42.1868C11.4398 41.8035 11.4628 41.3895 11.5548 40.9448L12.8428 34.8728H10.7038L11.2098 32.4808H18.1788L17.6728 34.8728H15.3728L14.1538 40.5998ZM26.5819 40.0708C26.3979 41.0061 26.0835 41.7958 25.6389 42.4398C25.2095 43.0838 24.6729 43.5745 24.0289 43.9118C23.3849 44.2338 22.6335 44.3948 21.7749 44.3948C21.5909 44.3948 21.4069 44.3795 21.2229 44.3488C21.0389 44.3181 20.8625 44.2798 20.6939 44.2338C20.5252 44.1878 20.3642 44.1265 20.2109 44.0498C20.0729 43.9885 19.9425 43.9195 19.8199 43.8428L18.7389 48.9718L16.3239 48.3968L18.7849 36.8278C19.0915 35.3711 19.6972 34.2595 20.6019 33.4928C21.5219 32.7108 22.6795 32.3198 24.0749 32.3198C25.3935 32.3198 26.3365 32.7185 26.9039 33.5158C27.4712 34.3131 27.6015 35.4171 27.2949 36.8278L26.5819 40.0708ZM24.7879 36.6898C24.8645 36.3218 24.8645 36.0075 24.7879 35.7468C24.7112 35.4708 24.5579 35.2561 24.3279 35.1028C24.0979 34.9495 23.7989 34.8728 23.4309 34.8728C23.0782 34.8728 22.7562 34.9418 22.4649 35.0798C22.1735 35.2178 21.9359 35.4248 21.7519 35.7008C21.5679 35.9615 21.4299 36.2911 21.3379 36.6898L20.4409 40.8988C20.3949 41.0981 20.4179 41.2745 20.5099 41.4278C20.6172 41.5811 20.7629 41.7115 20.9469 41.8188C21.1309 41.9261 21.3225 42.0028 21.5219 42.0488C21.7365 42.0948 21.9359 42.1178 22.1199 42.1178C22.4572 42.1178 22.7485 42.0488 22.9939 41.9108C23.2545 41.7728 23.4692 41.5811 23.6379 41.3358C23.8065 41.0751 23.9215 40.7685 23.9829 40.4158L24.7879 36.6898ZM32.5006 32.5038L31.0516 39.3348L35.8816 32.5038H38.4576L36.0196 44.0268H33.4436L34.8696 37.2418L30.0626 44.0268H27.5326L29.9706 32.5038H32.5006ZM49.1822 32.5038H51.9882L49.5502 44.0268H47.0202L48.3082 37.9318L44.6282 44.0268H42.7192L41.5692 37.9318L40.2812 44.0268H37.7282L40.1662 32.5038H43.0182L44.3752 40.5998L49.1822 32.5038ZM54.4922 40.5768C54.4462 40.7761 54.4385 40.9601 54.4692 41.1288C54.4999 41.2821 54.5535 41.4201 54.6302 41.5428C54.7222 41.6655 54.8449 41.7575 54.9982 41.8188C55.1515 41.8801 55.3279 41.9108 55.5272 41.9108C55.9412 41.9108 56.4319 41.8188 56.9992 41.6348C57.5665 41.4508 58.1185 41.2361 58.6552 40.9908L59.1152 43.1988C58.5019 43.5361 57.8272 43.8045 57.0912 44.0038C56.3552 44.2031 55.6422 44.3028 54.9522 44.3028C54.4155 44.3028 53.9249 44.2338 53.4802 44.0958C53.0509 43.9578 52.6905 43.7508 52.3992 43.4748C52.1232 43.1988 51.9315 42.8461 51.8242 42.4168C51.7322 41.9875 51.7475 41.4815 51.8702 40.8988L52.8822 36.1838C53.0662 35.3405 53.3882 34.6275 53.8482 34.0448C54.3235 33.4621 54.8985 33.0175 55.5732 32.7108C56.2632 32.4041 57.0222 32.2508 57.8502 32.2508C58.6782 32.2508 59.3682 32.3965 59.9202 32.6878C60.4875 32.9791 60.8862 33.4085 61.1162 33.9758C61.3462 34.5431 61.3692 35.2561 61.1852 36.1148L60.4262 39.7028L54.6302 40.0018L54.4922 40.5768ZM58.4942 36.8048C58.5555 36.4828 58.5862 36.1531 58.5862 35.8158C58.5862 35.4785 58.5019 35.2025 58.3332 34.9878C58.1799 34.7578 57.8732 34.6581 57.4132 34.6888C56.9379 34.7041 56.5622 34.8038 56.2862 34.9878C56.0255 35.1565 55.8185 35.3941 55.6652 35.7008C55.5272 35.9921 55.4045 36.3525 55.2972 36.7818L55.1132 37.6788L58.3332 37.4718L58.4942 36.8048ZM70.4032 40.0708C70.2192 41.0061 69.9048 41.7958 69.4602 42.4398C69.0308 43.0838 68.4942 43.5745 67.8502 43.9118C67.2062 44.2338 66.4548 44.3948 65.5962 44.3948C65.4122 44.3948 65.2282 44.3795 65.0442 44.3488C64.8602 44.3181 64.6838 44.2798 64.5152 44.2338C64.3465 44.1878 64.1855 44.1265 64.0322 44.0498C63.8942 43.9885 63.7638 43.9195 63.6412 43.8428L62.5602 48.9718L60.1452 48.3968L62.6062 36.8278C62.9128 35.3711 63.5185 34.2595 64.4232 33.4928C65.3432 32.7108 66.5008 32.3198 67.8962 32.3198C69.2148 32.3198 70.1578 32.7185 70.7252 33.5158C71.2925 34.3131 71.4228 35.4171 71.1162 36.8278L70.4032 40.0708ZM68.6092 36.6898C68.6858 36.3218 68.6858 36.0075 68.6092 35.7468C68.5325 35.4708 68.3792 35.2561 68.1492 35.1028C67.9192 34.9495 67.6202 34.8728 67.2522 34.8728C66.8995 34.8728 66.5775 34.9418 66.2862 35.0798C65.9948 35.2178 65.7572 35.4248 65.5732 35.7008C65.3892 35.9615 65.2512 36.2911 65.1592 36.6898L64.2622 40.8988C64.2162 41.0981 64.2392 41.2745 64.3312 41.4278C64.4385 41.5811 64.5842 41.7115 64.7682 41.8188C64.9522 41.9261 65.1438 42.0028 65.3432 42.0488C65.5578 42.0948 65.7572 42.1178 65.9412 42.1178C66.2785 42.1178 66.5698 42.0488 66.8152 41.9108C67.0758 41.7728 67.2905 41.5811 67.4592 41.3358C67.6278 41.0751 67.7428 40.7685 67.8042 40.4158L68.6092 36.6898ZM71.5379 45.5218C71.7066 45.3071 71.8369 45.0848 71.9289 44.8548C72.0362 44.6401 72.1436 44.4178 72.2509 44.1878C71.9596 44.1111 71.7449 43.9501 71.6069 43.7048C71.4689 43.4595 71.4306 43.1758 71.4919 42.8538C71.5686 42.4858 71.7679 42.1638 72.0899 41.8878C72.4272 41.6118 72.7876 41.4738 73.1709 41.4738C73.5389 41.4738 73.8226 41.6118 74.0219 41.8878C74.2212 42.1638 74.2826 42.4858 74.2059 42.8538C74.1139 43.3751 73.9452 43.8275 73.6999 44.2108C73.4699 44.5941 73.2169 44.9085 72.9409 45.1538C72.6802 45.4145 72.4579 45.6061 72.2739 45.7288C72.0899 45.8515 72.0056 45.9128 72.0209 45.9128L71.5379 45.5218ZM91.3351 41.5658C91.3198 41.8111 91.3505 42.0105 91.4271 42.1638C91.5191 42.3171 91.6495 42.4551 91.8181 42.5778L89.9321 44.3948C89.9475 44.3948 89.8708 44.3565 89.7021 44.2798C89.5488 44.2031 89.3725 44.0805 89.1731 43.9118C88.9891 43.7431 88.8435 43.5131 88.7361 43.2218C88.6288 42.9151 88.6211 42.5318 88.7131 42.0718L90.2541 34.8728H86.6201L84.6881 44.0038H82.1351L84.5961 32.4808H93.2671L91.3351 41.5658ZM102.365 40.0708C102.181 41.0061 101.867 41.7958 101.422 42.4398C100.993 43.0838 100.456 43.5745 99.8121 43.9118C99.1681 44.2338 98.4167 44.3948 97.5581 44.3948C97.3741 44.3948 97.1901 44.3795 97.0061 44.3488C96.8221 44.3181 96.6457 44.2798 96.4771 44.2338C96.3084 44.1878 96.1474 44.1265 95.9941 44.0498C95.8561 43.9885 95.7257 43.9195 95.6031 43.8428L94.5221 48.9718L92.1071 48.3968L94.5681 36.8278C94.8747 35.3711 95.4804 34.2595 96.3851 33.4928C97.3051 32.7108 98.4627 32.3198 99.8581 32.3198C101.177 32.3198 102.12 32.7185 102.687 33.5158C103.254 34.3131 103.385 35.4171 103.078 36.8278L102.365 40.0708ZM100.571 36.6898C100.648 36.3218 100.648 36.0075 100.571 35.7468C100.494 35.4708 100.341 35.2561 100.111 35.1028C99.8811 34.9495 99.5821 34.8728 99.2141 34.8728C98.8614 34.8728 98.5394 34.9418 98.2481 35.0798C97.9567 35.2178 97.7191 35.4248 97.5351 35.7008C97.3511 35.9615 97.2131 36.2911 97.1211 36.6898L96.2241 40.8988C96.1781 41.0981 96.2011 41.2745 96.2931 41.4278C96.4004 41.5811 96.5461 41.7115 96.7301 41.8188C96.9141 41.9261 97.1057 42.0028 97.3051 42.0488C97.5197 42.0948 97.7191 42.1178 97.9031 42.1178C98.2404 42.1178 98.5317 42.0488 98.7771 41.9108C99.0377 41.7728 99.2524 41.5811 99.4211 41.3358C99.5897 41.0751 99.7047 40.7685 99.7661 40.4158L100.571 36.6898ZM112.539 39.7488C112.263 41.0981 111.688 42.1868 110.814 43.0148C109.955 43.8275 108.82 44.2338 107.41 44.2338C106.398 44.2338 105.616 44.0268 105.064 43.6128C104.527 43.1835 104.182 42.6315 104.029 41.9568C103.875 41.2668 103.875 40.5308 104.029 39.7488L104.696 36.7128C104.91 35.7315 105.248 34.9111 105.708 34.2518C106.183 33.5925 106.773 33.0941 107.479 32.7568C108.199 32.4041 109.027 32.2278 109.963 32.2278C111.297 32.2278 112.247 32.6265 112.815 33.4238C113.382 34.2058 113.512 35.3021 113.206 36.7128L112.539 39.7488ZM110.63 36.5748C110.706 36.2068 110.714 35.8925 110.653 35.6318C110.591 35.3558 110.453 35.1488 110.239 35.0108C110.039 34.8575 109.756 34.7808 109.388 34.7808C109.02 34.7808 108.69 34.8498 108.399 34.9878C108.123 35.1258 107.885 35.3251 107.686 35.5858C107.502 35.8465 107.364 36.1761 107.272 36.5748L106.559 39.9328C106.497 40.2395 106.497 40.5308 106.559 40.8068C106.62 41.0828 106.758 41.3051 106.973 41.4738C107.187 41.6425 107.502 41.7268 107.916 41.7268C108.299 41.7268 108.621 41.6501 108.882 41.4968C109.158 41.3435 109.38 41.1288 109.549 40.8528C109.717 40.5768 109.84 40.2701 109.917 39.9328L110.63 36.5748ZM124.007 41.4968H125.295L124.145 46.9018H122.029L122.167 44.0268H115.175L114.071 46.9018H111.955L113.105 41.4968H114.669L117.452 35.9538C117.636 35.5858 117.851 35.2025 118.096 34.8038C118.357 34.3898 118.656 34.0065 118.993 33.6538C119.346 33.3011 119.767 33.0175 120.258 32.8028C120.764 32.5881 121.362 32.4808 122.052 32.4808H125.916L124.007 41.4968ZM117.314 41.4968H121.454L122.926 34.6428H122.213C121.968 34.6428 121.738 34.6658 121.523 34.7118C121.308 34.7425 121.109 34.8115 120.925 34.9188C120.741 35.0261 120.565 35.1718 120.396 35.3558C120.227 35.5398 120.074 35.7775 119.936 36.0688L117.314 41.4968ZM128.625 37.1958H134.053L133.616 39.2888H128.188L128.625 37.1958ZM140.7 39.7488C140.424 41.0981 139.849 42.1868 138.975 43.0148C138.117 43.8275 136.982 44.2338 135.571 44.2338C134.559 44.2338 133.777 44.0268 133.225 43.6128C132.689 43.1835 132.344 42.6315 132.19 41.9568C132.037 41.2668 132.037 40.5308 132.19 39.7488L132.857 36.7128C133.072 35.7315 133.409 34.9111 133.869 34.2518C134.345 33.5925 134.935 33.0941 135.64 32.7568C136.361 32.4041 137.189 32.2278 138.124 32.2278C139.458 32.2278 140.409 32.6265 140.976 33.4238C141.544 34.2058 141.674 35.3021 141.367 36.7128L140.7 39.7488ZM138.791 36.5748C138.868 36.2068 138.876 35.8925 138.814 35.6318C138.753 35.3558 138.615 35.1488 138.4 35.0108C138.201 34.8575 137.917 34.7808 137.549 34.7808C137.181 34.7808 136.852 34.8498 136.56 34.9878C136.284 35.1258 136.047 35.3251 135.847 35.5858C135.663 35.8465 135.525 36.1761 135.433 36.5748L134.72 39.9328C134.659 40.2395 134.659 40.5308 134.72 40.8068C134.782 41.0828 134.92 41.3051 135.134 41.4738C135.349 41.6425 135.663 41.7268 136.077 41.7268C136.461 41.7268 136.783 41.6501 137.043 41.4968C137.319 41.3435 137.542 41.1288 137.71 40.8528C137.879 40.5768 138.002 40.2701 138.078 39.9328L138.791 36.5748ZM125.911 44.0038L128.372 32.4808H130.902L128.464 44.0038H125.911ZM150.033 34.9418C149.757 34.7885 149.443 34.6735 149.09 34.5968C148.753 34.5048 148.408 34.4511 148.055 34.4358C147.641 34.4358 147.25 34.5048 146.882 34.6428C146.514 34.7655 146.2 34.9725 145.939 35.2638C145.679 35.5398 145.502 35.9078 145.41 36.3678L144.651 39.9788C144.575 40.3315 144.567 40.6458 144.628 40.9218C144.69 41.1825 144.805 41.3971 144.973 41.5658C145.157 41.7345 145.387 41.8648 145.663 41.9568C145.939 42.0335 146.254 42.0718 146.606 42.0718C146.852 42.0718 147.097 42.0641 147.342 42.0488C147.603 42.0181 147.833 41.9875 148.032 41.9568C148.232 41.9108 148.393 41.8801 148.515 41.8648C148.638 41.8341 148.699 41.8188 148.699 41.8188L148.722 43.8888C148.216 44.0115 147.703 44.1111 147.181 44.1878C146.66 44.2645 146.139 44.2951 145.617 44.2798C144.743 44.2645 144.007 44.1035 143.409 43.7968C142.811 43.4901 142.397 43.0225 142.167 42.3938C141.937 41.7651 141.922 40.9678 142.121 40.0018L142.857 36.6438C143.057 35.7545 143.371 34.9725 143.8 34.2978C144.245 33.6231 144.828 33.1018 145.548 32.7338C146.284 32.3658 147.181 32.1971 148.239 32.2278C148.73 32.2431 149.205 32.3198 149.665 32.4578C150.141 32.5958 150.585 32.7721 150.999 32.9868L150.033 34.9418ZM153.455 40.5768C153.409 40.7761 153.401 40.9601 153.432 41.1288C153.463 41.2821 153.516 41.4201 153.593 41.5428C153.685 41.6655 153.808 41.7575 153.961 41.8188C154.114 41.8801 154.291 41.9108 154.49 41.9108C154.904 41.9108 155.395 41.8188 155.962 41.6348C156.529 41.4508 157.081 41.2361 157.618 40.9908L158.078 43.1988C157.465 43.5361 156.79 43.8045 156.054 44.0038C155.318 44.2031 154.605 44.3028 153.915 44.3028C153.378 44.3028 152.888 44.2338 152.443 44.0958C152.014 43.9578 151.653 43.7508 151.362 43.4748C151.086 43.1988 150.894 42.8461 150.787 42.4168C150.695 41.9875 150.71 41.4815 150.833 40.8988L151.845 36.1838C152.029 35.3405 152.351 34.6275 152.811 34.0448C153.286 33.4621 153.861 33.0175 154.536 32.7108C155.226 32.4041 155.985 32.2508 156.813 32.2508C157.641 32.2508 158.331 32.3965 158.883 32.6878C159.45 32.9791 159.849 33.4085 160.079 33.9758C160.309 34.5431 160.332 35.2561 160.148 36.1148L159.389 39.7028L153.593 40.0018L153.455 40.5768ZM157.457 36.8048C157.518 36.4828 157.549 36.1531 157.549 35.8158C157.549 35.4785 157.465 35.2025 157.296 34.9878C157.143 34.7578 156.836 34.6581 156.376 34.6888C155.901 34.7041 155.525 34.8038 155.249 34.9878C154.988 35.1565 154.781 35.3941 154.628 35.7008C154.49 35.9921 154.367 36.3525 154.26 36.7818L154.076 37.6788L157.296 37.4718L157.457 36.8048ZM169.366 40.0708C169.182 41.0061 168.868 41.7958 168.423 42.4398C167.994 43.0838 167.457 43.5745 166.813 43.9118C166.169 44.2338 165.418 44.3948 164.559 44.3948C164.375 44.3948 164.191 44.3795 164.007 44.3488C163.823 44.3181 163.647 44.2798 163.478 44.2338C163.309 44.1878 163.148 44.1265 162.995 44.0498C162.857 43.9885 162.727 43.9195 162.604 43.8428L161.523 48.9718L159.108 48.3968L161.569 36.8278C161.876 35.3711 162.481 34.2595 163.386 33.4928C164.306 32.7108 165.464 32.3198 166.859 32.3198C168.178 32.3198 169.121 32.7185 169.688 33.5158C170.255 34.3131 170.386 35.4171 170.079 36.8278L169.366 40.0708ZM167.572 36.6898C167.649 36.3218 167.649 36.0075 167.572 35.7468C167.495 35.4708 167.342 35.2561 167.112 35.1028C166.882 34.9495 166.583 34.8728 166.215 34.8728C165.862 34.8728 165.54 34.9418 165.249 35.0798C164.958 35.2178 164.72 35.4248 164.536 35.7008C164.352 35.9615 164.214 36.2911 164.122 36.6898L163.225 40.8988C163.179 41.0981 163.202 41.2745 163.294 41.4278C163.401 41.5811 163.547 41.7115 163.731 41.8188C163.915 41.9261 164.107 42.0028 164.306 42.0488C164.521 42.0948 164.72 42.1178 164.904 42.1178C165.241 42.1178 165.533 42.0488 165.778 41.9108C166.039 41.7728 166.253 41.5811 166.422 41.3358C166.591 41.0751 166.706 40.7685 166.767 40.4158L167.572 36.6898ZM181.731 32.5038L180.282 39.3348L185.112 32.5038H187.688L185.25 44.0268H182.674L184.1 37.2418L179.293 44.0268H176.763L179.201 32.5038H181.731ZM202.053 37.6328C202.467 37.9395 202.743 38.3535 202.881 38.8748C203.034 39.3961 203.05 39.9635 202.927 40.5768C202.804 41.1748 202.536 41.7575 202.122 42.3248C201.708 42.8768 201.164 43.3368 200.489 43.7048C199.814 44.0728 199.017 44.2568 198.097 44.2568C197.806 44.2568 197.461 44.2491 197.062 44.2338C196.663 44.2185 196.249 44.1955 195.82 44.1648C195.391 44.1341 194.992 44.1035 194.624 44.0728C194.256 44.0575 193.957 44.0421 193.727 44.0268C193.497 44.0115 193.382 44.0038 193.382 44.0038L195.82 32.4808C195.82 32.4808 195.92 32.4731 196.119 32.4578C196.334 32.4271 196.633 32.3965 197.016 32.3658C197.415 32.3198 197.882 32.2891 198.419 32.2738C198.956 32.2431 199.554 32.2278 200.213 32.2278C200.673 32.2278 201.118 32.2815 201.547 32.3888C201.976 32.4961 202.352 32.6571 202.674 32.8718C203.011 33.0865 203.264 33.3701 203.433 33.7228C203.617 34.0601 203.694 34.4741 203.663 34.9648C203.632 35.4401 203.464 35.9308 203.157 36.4368C202.866 36.9275 202.498 37.3261 202.053 37.6328ZM199.799 34.4588C199.661 34.4588 199.515 34.4588 199.362 34.4588C199.209 34.4588 199.048 34.4665 198.879 34.4818C198.726 34.4818 198.565 34.4895 198.396 34.5048C198.243 34.5048 198.089 34.5048 197.936 34.5048L197.384 37.0578H198.557C199.109 37.0578 199.554 36.9888 199.891 36.8508C200.228 36.7128 200.481 36.5365 200.65 36.3218C200.834 36.1071 200.949 35.8925 200.995 35.6778C201.041 35.4785 201.033 35.3098 200.972 35.1718C200.911 35.0185 200.819 34.8881 200.696 34.7808C200.589 34.6735 200.451 34.5968 200.282 34.5508C200.129 34.4895 199.968 34.4588 199.799 34.4588ZM198.212 41.6578C198.565 41.6578 198.894 41.6195 199.201 41.5428C199.508 41.4661 199.768 41.3435 199.983 41.1748C200.198 40.9908 200.336 40.7531 200.397 40.4618C200.443 40.2778 200.435 40.1091 200.374 39.9558C200.328 39.8025 200.236 39.6798 200.098 39.5878C199.975 39.4805 199.814 39.4038 199.615 39.3578C199.431 39.2965 199.224 39.2658 198.994 39.2658H196.924L196.418 41.6118C196.587 41.6118 196.755 41.6195 196.924 41.6348C197.093 41.6348 197.254 41.6425 197.407 41.6578C197.56 41.6578 197.706 41.6578 197.844 41.6578C197.982 41.6578 198.105 41.6578 198.212 41.6578ZM206.934 40.5768C206.888 40.7761 206.881 40.9601 206.911 41.1288C206.942 41.2821 206.996 41.4201 207.072 41.5428C207.164 41.6655 207.287 41.7575 207.44 41.8188C207.594 41.8801 207.77 41.9108 207.969 41.9108C208.383 41.9108 208.874 41.8188 209.441 41.6348C210.009 41.4508 210.561 41.2361 211.097 40.9908L211.557 43.1988C210.944 43.5361 210.269 43.8045 209.533 44.0038C208.797 44.2031 208.084 44.3028 207.394 44.3028C206.858 44.3028 206.367 44.2338 205.922 44.0958C205.493 43.9578 205.133 43.7508 204.841 43.4748C204.565 43.1988 204.374 42.8461 204.266 42.4168C204.174 41.9875 204.19 41.4815 204.312 40.8988L205.324 36.1838C205.508 35.3405 205.83 34.6275 206.29 34.0448C206.766 33.4621 207.341 33.0175 208.015 32.7108C208.705 32.4041 209.464 32.2508 210.292 32.2508C211.12 32.2508 211.81 32.3965 212.362 32.6878C212.93 32.9791 213.328 33.4085 213.558 33.9758C213.788 34.5431 213.811 35.2561 213.627 36.1148L212.868 39.7028L207.072 40.0018L206.934 40.5768ZM210.936 36.8048C210.998 36.4828 211.028 36.1531 211.028 35.8158C211.028 35.4785 210.944 35.2025 210.775 34.9878C210.622 34.7578 210.315 34.6581 209.855 34.6888C209.38 34.7041 209.004 34.8038 208.728 34.9878C208.468 35.1565 208.261 35.3941 208.107 35.7008C207.969 35.9921 207.847 36.3525 207.739 36.7818L207.555 37.6788L210.775 37.4718L210.936 36.8048ZM224.317 41.4968H225.605L224.455 46.9018H222.339L222.477 44.0268H215.485L214.381 46.9018H212.265L213.415 41.4968H214.979L217.762 35.9538C217.946 35.5858 218.161 35.2025 218.406 34.8038C218.667 34.3898 218.966 34.0065 219.303 33.6538C219.656 33.3011 220.078 33.0175 220.568 32.8028C221.074 32.5881 221.672 32.4808 222.362 32.4808H226.226L224.317 41.4968ZM217.624 41.4968H221.764L223.236 34.6428H222.523C222.278 34.6428 222.048 34.6658 221.833 34.7118C221.619 34.7425 221.419 34.8115 221.235 34.9188C221.051 35.0261 220.875 35.1718 220.706 35.3558C220.538 35.5398 220.384 35.7775 220.246 36.0688L217.624 41.4968ZM227.234 48.8108L229.856 44.0038L228.131 32.4808H230.569L231.765 40.5768L236.135 32.4808H238.573L229.718 48.8108H227.234ZM249.132 41.4738H252.904L251.754 46.8788H249.638L249.776 44.0038H248.603L249.132 41.4738ZM249.753 32.5038H252.306L249.868 44.0038H237.77L240.208 32.5038H242.761L240.852 41.4738H243.06L244.969 32.5038H247.522L245.613 41.4738H247.844L249.753 32.5038ZM258.727 32.5038L257.278 39.3348L262.108 32.5038H264.684L262.246 44.0268H259.67L261.096 37.2418L256.289 44.0268H253.759L256.197 32.5038H258.727ZM274.42 28.6168L274.397 28.7778C274.305 29.2378 274.09 29.6671 273.753 30.0658C273.431 30.4645 273.047 30.7865 272.603 31.0318C272.158 31.2618 271.698 31.3768 271.223 31.3768C270.747 31.3768 270.333 31.2618 269.981 31.0318C269.643 30.7865 269.398 30.4645 269.245 30.0658C269.091 29.6671 269.061 29.2378 269.153 28.7778L269.199 28.6168H270.97L270.924 28.7778C270.862 28.9771 270.885 29.1611 270.993 29.3298C271.115 29.4831 271.284 29.5598 271.499 29.5598C271.759 29.5598 271.974 29.4755 272.143 29.3068C272.311 29.1381 272.426 28.9618 272.488 28.7778L272.534 28.6168H274.42ZM268.992 32.5038L267.543 39.3348L272.373 32.5038H274.949L272.511 44.0268H269.935L271.361 37.2418L266.554 44.0268H264.024L266.462 32.5038H268.992ZM292.833 32.5038H295.386L292.948 44.0038H280.85L283.288 32.5038H285.841L283.932 41.4738H286.14L288.049 32.5038H290.602L288.693 41.4738H290.924L292.833 32.5038ZM304.108 39.7488C303.832 41.0981 303.257 42.1868 302.383 43.0148C301.524 43.8275 300.39 44.2338 298.979 44.2338C297.967 44.2338 297.185 44.0268 296.633 43.6128C296.096 43.1835 295.751 42.6315 295.598 41.9568C295.445 41.2668 295.445 40.5308 295.598 39.7488L296.265 36.7128C296.48 35.7315 296.817 34.9111 297.277 34.2518C297.752 33.5925 298.343 33.0941 299.048 32.7568C299.769 32.4041 300.597 32.2278 301.532 32.2278C302.866 32.2278 303.817 32.6265 304.384 33.4238C304.951 34.2058 305.082 35.3021 304.775 36.7128L304.108 39.7488ZM302.199 36.5748C302.276 36.2068 302.283 35.8925 302.222 35.6318C302.161 35.3558 302.023 35.1488 301.808 35.0108C301.609 34.8575 301.325 34.7808 300.957 34.7808C300.589 34.7808 300.259 34.8498 299.968 34.9878C299.692 35.1258 299.454 35.3251 299.255 35.5858C299.071 35.8465 298.933 36.1761 298.841 36.5748L298.128 39.9328C298.067 40.2395 298.067 40.5308 298.128 40.8068C298.189 41.0828 298.327 41.3051 298.542 41.4738C298.757 41.6425 299.071 41.7268 299.485 41.7268C299.868 41.7268 300.19 41.6501 300.451 41.4968C300.727 41.3435 300.949 41.1288 301.118 40.8528C301.287 40.5768 301.409 40.2701 301.486 39.9328L302.199 36.5748ZM305.847 48.8108L308.469 44.0038L306.744 32.4808H309.182L310.378 40.5768L314.748 32.4808H317.186L308.331 48.8108H305.847ZM332.19 27.6738C332.037 27.8731 331.906 28.0878 331.799 28.3178C331.707 28.5478 331.623 28.7701 331.546 28.9848C331.807 29.0768 332.014 29.2455 332.167 29.4908C332.32 29.7361 332.366 30.0121 332.305 30.3188C332.228 30.7021 332.021 31.0318 331.684 31.3078C331.347 31.5838 330.979 31.7218 330.58 31.7218C330.197 31.7218 329.905 31.5838 329.706 31.3078C329.507 31.0318 329.445 30.7021 329.522 30.3188C329.629 29.7975 329.798 29.3451 330.028 28.9618C330.273 28.5785 330.526 28.2641 330.787 28.0188C331.048 27.7735 331.27 27.5895 331.454 27.4668C331.638 27.3441 331.722 27.2828 331.707 27.2828L332.19 27.6738ZM328.096 27.6738C327.927 27.8731 327.782 28.0878 327.659 28.3178C327.552 28.5478 327.452 28.7701 327.36 28.9848C327.651 29.0768 327.866 29.2455 328.004 29.4908C328.157 29.7361 328.196 30.0121 328.119 30.3188C328.042 30.7021 327.843 31.0318 327.521 31.3078C327.199 31.5838 326.846 31.7218 326.463 31.7218C326.08 31.7218 325.781 31.5838 325.566 31.3078C325.367 31.0318 325.305 30.7021 325.382 30.3188C325.489 29.7975 325.658 29.3451 325.888 28.9618C326.133 28.5785 326.386 28.2641 326.647 28.0188C326.908 27.7735 327.13 27.5895 327.314 27.4668C327.498 27.3441 327.59 27.2828 327.59 27.2828L328.096 27.6738ZM331.003 44.0038L334.43 27.9038H342.135L341.606 30.4338H336.454L333.579 44.0038H331.003ZM349.075 39.7488C348.799 41.0981 348.224 42.1868 347.35 43.0148C346.491 43.8275 345.357 44.2338 343.946 44.2338C342.934 44.2338 342.152 44.0268 341.6 43.6128C341.063 43.1835 340.718 42.6315 340.565 41.9568C340.412 41.2668 340.412 40.5308 340.565 39.7488L341.232 36.7128C341.447 35.7315 341.784 34.9111 342.244 34.2518C342.719 33.5925 343.31 33.0941 344.015 32.7568C344.736 32.4041 345.564 32.2278 346.499 32.2278C347.833 32.2278 348.784 32.6265 349.351 33.4238C349.918 34.2058 350.049 35.3021 349.742 36.7128L349.075 39.7488ZM347.166 36.5748C347.243 36.2068 347.25 35.8925 347.189 35.6318C347.128 35.3558 346.99 35.1488 346.775 35.0108C346.576 34.8575 346.292 34.7808 345.924 34.7808C345.556 34.7808 345.226 34.8498 344.935 34.9878C344.659 35.1258 344.421 35.3251 344.222 35.5858C344.038 35.8465 343.9 36.1761 343.808 36.5748L343.095 39.9328C343.034 40.2395 343.034 40.5308 343.095 40.8068C343.156 41.0828 343.294 41.3051 343.509 41.4738C343.724 41.6425 344.038 41.7268 344.452 41.7268C344.835 41.7268 345.157 41.6501 345.418 41.4968C345.694 41.3435 345.916 41.1288 346.085 40.8528C346.254 40.5768 346.376 40.2701 346.453 39.9328L347.166 36.5748ZM358.749 32.5038H362.613L360.175 43.9808H357.622L359.6 34.6658H358.887C358.565 34.6658 358.274 34.7041 358.013 34.7808C357.768 34.8575 357.538 34.9955 357.323 35.1948C357.124 35.3941 356.924 35.6855 356.725 36.0688L354.379 40.7608C353.95 41.6041 353.536 42.2788 353.137 42.7848C352.754 43.2755 352.317 43.6588 351.826 43.9348C351.351 44.1955 350.76 44.4025 350.055 44.5558L349.02 43.3368C349.357 43.1681 349.649 43.0148 349.894 42.8768C350.155 42.7388 350.4 42.5395 350.63 42.2788C350.875 42.0181 351.136 41.6271 351.412 41.1058L354.057 35.9538C354.241 35.5858 354.463 35.2025 354.724 34.8038C354.985 34.4051 355.291 34.0295 355.644 33.6768C356.012 33.3241 356.449 33.0405 356.955 32.8258C357.461 32.6111 358.059 32.5038 358.749 32.5038ZM371.334 39.7488C371.058 41.0981 370.483 42.1868 369.609 43.0148C368.75 43.8275 367.615 44.2338 366.205 44.2338C365.193 44.2338 364.411 44.0268 363.859 43.6128C363.322 43.1835 362.977 42.6315 362.824 41.9568C362.67 41.2668 362.67 40.5308 362.824 39.7488L363.491 36.7128C363.705 35.7315 364.043 34.9111 364.503 34.2518C364.978 33.5925 365.568 33.0941 366.274 32.7568C366.994 32.4041 367.822 32.2278 368.758 32.2278C370.092 32.2278 371.042 32.6265 371.61 33.4238C372.177 34.2058 372.307 35.3021 372.001 36.7128L371.334 39.7488ZM369.425 36.5748C369.501 36.2068 369.509 35.8925 369.448 35.6318C369.386 35.3558 369.248 35.1488 369.034 35.0108C368.834 34.8575 368.551 34.7808 368.183 34.7808C367.815 34.7808 367.485 34.8498 367.194 34.9878C366.918 35.1258 366.68 35.3251 366.481 35.5858C366.297 35.8465 366.159 36.1761 366.067 36.5748L365.354 39.9328C365.292 40.2395 365.292 40.5308 365.354 40.8068C365.415 41.0828 365.553 41.3051 365.768 41.4738C365.982 41.6425 366.297 41.7268 366.711 41.7268C367.094 41.7268 367.416 41.6501 367.677 41.4968C367.953 41.3435 368.175 41.1288 368.344 40.8528C368.512 40.5768 368.635 40.2701 368.712 39.9328L369.425 36.5748ZM380.64 34.9418C380.364 34.7885 380.049 34.6735 379.697 34.5968C379.359 34.5048 379.014 34.4511 378.662 34.4358C378.248 34.4358 377.857 34.5048 377.489 34.6428C377.121 34.7655 376.806 34.9725 376.546 35.2638C376.285 35.5398 376.109 35.9078 376.017 36.3678L375.258 39.9788C375.181 40.3315 375.173 40.6458 375.235 40.9218C375.296 41.1825 375.411 41.3971 375.58 41.5658C375.764 41.7345 375.994 41.8648 376.27 41.9568C376.546 42.0335 376.86 42.0718 377.213 42.0718C377.458 42.0718 377.703 42.0641 377.949 42.0488C378.209 42.0181 378.439 41.9875 378.639 41.9568C378.838 41.9108 378.999 41.8801 379.122 41.8648C379.244 41.8341 379.306 41.8188 379.306 41.8188L379.329 43.8888C378.823 44.0115 378.309 44.1111 377.788 44.1878C377.266 44.2645 376.745 44.2951 376.224 44.2798C375.35 44.2645 374.614 44.1035 374.016 43.7968C373.418 43.4901 373.004 43.0225 372.774 42.3938C372.544 41.7651 372.528 40.9678 372.728 40.0018L373.464 36.6438C373.663 35.7545 373.977 34.9725 374.407 34.2978C374.851 33.6231 375.434 33.1018 376.155 32.7338C376.891 32.3658 377.788 32.1971 378.846 32.2278C379.336 32.2431 379.812 32.3198 380.272 32.4578C380.747 32.5958 381.192 32.7721 381.606 32.9868L380.64 34.9418ZM383.969 31.3078C384.138 31.0931 384.268 30.8785 384.36 30.6638C384.468 30.4338 384.56 30.2038 384.636 29.9738C384.36 29.8971 384.146 29.7361 383.992 29.4908C383.854 29.2301 383.816 28.9541 383.877 28.6628C383.954 28.2948 384.153 27.9728 384.475 27.6968C384.813 27.4208 385.173 27.2828 385.556 27.2828C385.955 27.2828 386.254 27.4208 386.453 27.6968C386.653 27.9728 386.714 28.2948 386.637 28.6628C386.53 29.1841 386.354 29.6365 386.108 30.0198C385.863 30.4031 385.61 30.7251 385.349 30.9858C385.089 31.2311 384.866 31.4151 384.682 31.5378C384.498 31.6605 384.406 31.7218 384.406 31.7218L383.969 31.3078ZM388.086 31.3078C388.255 31.0931 388.393 30.8785 388.5 30.6638C388.623 30.4338 388.715 30.2038 388.776 29.9738C388.516 29.8971 388.309 29.7361 388.155 29.4908C388.017 29.2301 387.979 28.9541 388.04 28.6628C388.117 28.2948 388.309 27.9728 388.615 27.6968C388.937 27.4208 389.29 27.2828 389.673 27.2828C390.072 27.2828 390.379 27.4208 390.593 27.6968C390.808 27.9728 390.877 28.2948 390.8 28.6628C390.693 29.1841 390.517 29.6365 390.271 30.0198C390.026 30.4031 389.773 30.7251 389.512 30.9858C389.252 31.2311 389.029 31.4151 388.845 31.5378C388.661 31.6605 388.569 31.7218 388.569 31.7218L388.086 31.3078Z" fill="white"/>
</g>
<defs>
<clipPath id="clip0_395_740">
<rect width="391" height="49" fill="white" transform="translate(0.5 0.5)"/>
</clipPath>
</defs>
</svg>
