<svg width="302" height="34" viewBox="0 0 302 34" fill="none" xmlns="http://www.w3.org/2000/svg">
<g clip-path="url(#clip0_395_738)">
<path d="M23.9324 29.1375L9.20459 2.06089H25.9546L28.2897 6.3158H17.0397L20.7658 13.1236H27.6158L28.6925 17.1851H22.9425L27.3325 25.2307H38.4825L40.5824 29.1375H23.9324ZM44.489 29.1375L29.7612 2.06089H46.5112L48.8463 6.3158H37.6463L50.089 29.1375H44.489ZM52.8802 9.48764C51.4258 6.85733 51.2722 4.85882 52.4194 3.49209C53.5455 2.09957 55.7586 1.40332 59.0586 1.40332C62.3919 1.40332 65.3922 2.17694 68.0595 3.72418C70.7602 5.27141 72.7954 7.30861 74.1654 9.83577L80.732 21.9429C81.5871 23.5159 81.8899 24.8826 81.6404 26.043C81.4031 27.1777 80.6712 28.0545 79.4448 28.6734C78.1972 29.2665 76.5068 29.563 74.3735 29.563C72.4068 29.563 70.4533 29.2536 68.5131 28.6347C66.6062 28.0158 64.8775 27.1261 63.327 25.9657C61.7554 24.7795 60.4998 23.3483 59.5602 21.6721L52.8802 9.48764ZM64.93 21.2079C65.3726 22.0331 65.9201 22.7423 66.5726 23.3354C67.2251 23.9285 67.9886 24.3927 68.8632 24.7279C69.75 25.0373 70.7433 25.1921 71.8433 25.1921C72.91 25.1921 73.7227 25.0244 74.2815 24.6892C74.8402 24.354 75.1495 23.8769 75.2092 23.258C75.269 22.6391 75.0715 21.93 74.6167 21.1306L69.0525 10.9188C68.4443 9.80998 67.8111 8.89453 67.153 8.17248C66.4738 7.42465 65.6864 6.87023 64.7907 6.5092C63.8739 6.12239 62.7654 5.92899 61.4654 5.92899C60.3321 5.92899 59.4966 6.1095 58.959 6.47052C58.4547 6.83154 58.2421 7.38597 58.3213 8.1338C58.3794 8.85585 58.7126 9.7713 59.3208 10.8801L64.93 21.2079ZM84.753 2.06089C86.053 2.06089 87.4192 2.20272 88.8515 2.48638C90.3172 2.77004 91.7685 3.26 93.2055 3.95626C94.6424 4.65252 96.0284 5.63244 97.3634 6.89601C98.6772 8.1338 99.849 9.70683 100.879 11.6151C102.023 13.7038 102.633 15.4058 102.711 16.7209C102.821 18.0361 102.528 19.0418 101.832 19.7381C101.169 20.4343 100.26 20.9114 99.1042 21.1692C97.9488 21.4271 96.7044 21.5561 95.371 21.5561H89.971L94.1308 29.1375H88.5808L73.853 2.06089H84.753ZM87.7944 17.4946H91.0944C92.3944 17.4946 93.4749 17.4301 94.336 17.3012C95.197 17.1722 95.8191 16.9143 96.2023 16.5275C96.5977 16.1149 96.7286 15.5218 96.5949 14.7482C96.4613 13.9746 96.0392 12.9302 95.3286 11.6151C94.6692 10.4031 94.0044 9.44896 93.3341 8.7527C92.6427 8.03066 91.8931 7.50202 91.0851 7.16678C90.2894 6.80576 89.3993 6.57367 88.4149 6.47052C87.4304 6.36737 86.2881 6.3158 84.9881 6.3158H81.6881L87.7944 17.4946ZM124.247 11.2669L127.106 2.06089H133.906L130.076 13.317L150.634 29.1375H143.934L128.917 17.0304L128.388 18.8871L133.934 29.1375H128.034L113.306 2.06089H119.206L124.247 11.2669ZM149.987 2.06089C151.287 2.06089 152.653 2.20272 154.086 2.48638C155.551 2.77004 157.003 3.26 158.44 3.95626C159.877 4.65252 161.263 5.63244 162.598 6.89601C163.911 8.1338 165.083 9.70683 166.113 11.6151C167.257 13.7038 167.868 15.4058 167.945 16.7209C168.056 18.0361 167.763 19.0418 167.066 19.7381C166.403 20.4343 165.494 20.9114 164.338 21.1692C163.183 21.4271 161.939 21.5561 160.605 21.5561H155.205L159.365 29.1375H153.815L139.087 2.06089H149.987ZM153.029 17.4946H156.329C157.629 17.4946 158.709 17.4301 159.57 17.3012C160.431 17.1722 161.053 16.9143 161.437 16.5275C161.832 16.1149 161.963 15.5218 161.829 14.7482C161.696 13.9746 161.273 12.9302 160.563 11.6151C159.904 10.4031 159.239 9.44896 158.568 8.7527C157.877 8.03066 157.127 7.50202 156.319 7.16678C155.524 6.80576 154.634 6.57367 153.649 6.47052C152.665 6.36737 151.522 6.3158 150.222 6.3158H146.922L153.029 17.4946ZM164.527 2.06089H170.127L180.42 20.9758L183.677 2.06089H189.227L203.955 29.1375H198.405L188.437 10.8027L184.855 29.1375H179.255L164.527 2.06089ZM193.433 2.06089H199.033L209.326 20.9758L212.583 2.06089H218.133L232.861 29.1375H227.311L217.343 10.8027L213.761 29.1375H208.161L193.433 2.06089ZM222.339 2.06089H227.939L238.232 20.9758L241.489 2.06089H247.039L261.767 29.1375H256.217L246.25 10.8027L242.667 29.1375H237.067L222.339 2.06089ZM287.52 24.9213H290.62L295.132 33.2377H290.532L287.305 29.1762H270.255L271.382 33.2377H266.782L262.27 24.9213H265.07L262.726 7.59227C262.653 6.97337 262.602 6.34159 262.574 5.6969C262.558 5.02643 262.695 4.42043 262.985 3.8789C263.253 3.31158 263.784 2.8603 264.576 2.52507C265.368 2.18983 266.514 2.02221 268.014 2.02221H275.114L287.52 24.9213ZM281.97 24.9213L271.542 5.65822H270.842C270.309 5.65822 269.834 5.7098 269.419 5.81295C269.015 5.89031 268.707 6.08371 268.494 6.39316C268.293 6.67682 268.24 7.14099 268.335 7.78567L270.92 24.9213H281.97Z" fill="#DEF37B"/>
</g>
<defs>
<clipPath id="clip0_395_738">
<rect width="301" height="33" fill="white" transform="translate(0.5 0.5)"/>
</clipPath>
</defs>
</svg>
