<svg width="314" height="49" viewBox="0 0 314 49" fill="none" xmlns="http://www.w3.org/2000/svg">
<g clip-path="url(#clip0_395_766)">
<path d="M3.9104 0.403809H6.4864L4.0944 11.6508L12.7194 0.403809H15.2724L11.8454 16.5038H9.2924L11.6154 5.60181L3.0594 16.5038H0.483398L3.9104 0.403809ZM16.8393 7.25781L17.3913 5.07281C17.8666 4.95014 18.3113 4.85814 18.7253 4.79681C19.1393 4.73547 19.5533 4.71247 19.9673 4.72781C20.7186 4.74314 21.3013 4.88881 21.7153 5.16481C22.1446 5.42547 22.4359 5.76281 22.5893 6.17681C22.7426 6.57547 22.8039 7.00481 22.7733 7.46481C22.7579 7.77147 22.6736 8.10881 22.5203 8.47681C22.3669 8.82947 22.1676 9.16681 21.9223 9.48881C21.6769 9.81081 21.3856 10.0791 21.0483 10.2938C21.4009 10.4778 21.6846 10.8535 21.8993 11.4208C22.1139 11.9881 22.1446 12.6015 21.9913 13.2608C21.8533 13.8588 21.5773 14.4261 21.1633 14.9628C20.7646 15.4841 20.2356 15.9135 19.5763 16.2508C18.9169 16.5881 18.1273 16.7568 17.2073 16.7568C16.5019 16.7568 15.8349 16.6878 15.2063 16.5498C14.5776 16.4118 13.9873 16.2201 13.4353 15.9748L14.6083 13.6978C14.8229 13.8205 15.0683 13.9278 15.3443 14.0198C15.6203 14.1118 15.9193 14.1808 16.2413 14.2268C16.5633 14.2728 16.8853 14.2958 17.2073 14.2958C17.6059 14.2958 17.9509 14.2421 18.2423 14.1348C18.5489 14.0275 18.8019 13.8818 19.0013 13.6978C19.2006 13.5138 19.3386 13.3068 19.4153 13.0768C19.4766 12.8928 19.4996 12.7241 19.4843 12.5708C19.4843 12.4021 19.4383 12.2565 19.3463 12.1338C19.2696 12.0111 19.1469 11.9191 18.9783 11.8578C18.8249 11.7965 18.6333 11.7658 18.4033 11.7658H16.7013L16.4483 9.55781H17.6673C18.2193 9.55781 18.6639 9.48881 19.0013 9.35081C19.3386 9.21281 19.5916 9.03647 19.7603 8.82181C19.9443 8.60714 20.0593 8.39247 20.1053 8.17781C20.1513 7.97847 20.1513 7.80981 20.1053 7.67181C20.0746 7.51847 20.0133 7.39581 19.9213 7.30381C19.8446 7.19647 19.7373 7.11981 19.5993 7.07381C19.4613 7.01247 19.3079 6.97414 19.1393 6.95881C18.8479 6.92814 18.5719 6.92814 18.3113 6.95881C18.0506 6.98947 17.7976 7.03547 17.5523 7.09681C17.3223 7.14281 17.0846 7.19647 16.8393 7.25781ZM31.5222 10.1328C31.9362 10.4395 32.2122 10.8535 32.3502 11.3748C32.5036 11.8961 32.5189 12.4635 32.3962 13.0768C32.2736 13.6748 32.0052 14.2575 31.5912 14.8248C31.1772 15.3768 30.6329 15.8368 29.9582 16.2048C29.2836 16.5728 28.4862 16.7568 27.5662 16.7568C27.2749 16.7568 26.9299 16.7491 26.5312 16.7338C26.1326 16.7185 25.7186 16.6955 25.2892 16.6648C24.8599 16.6341 24.4612 16.6035 24.0932 16.5728C23.7252 16.5575 23.4262 16.5421 23.1962 16.5268C22.9662 16.5115 22.8512 16.5038 22.8512 16.5038L25.2892 4.98081C25.2892 4.98081 25.3889 4.97314 25.5882 4.95781C25.8029 4.92714 26.1019 4.89647 26.4852 4.86581C26.8839 4.81981 27.3516 4.78914 27.8882 4.77381C28.4249 4.74314 29.0229 4.72781 29.6822 4.72781C30.1422 4.72781 30.5869 4.78147 31.0162 4.88881C31.4456 4.99614 31.8212 5.15714 32.1432 5.37181C32.4806 5.58647 32.7336 5.87014 32.9022 6.22281C33.0862 6.56014 33.1629 6.97414 33.1322 7.46481C33.1016 7.94014 32.9329 8.43081 32.6262 8.93681C32.3349 9.42747 31.9669 9.82614 31.5222 10.1328ZM29.2682 6.95881C29.1302 6.95881 28.9846 6.95881 28.8312 6.95881C28.6779 6.95881 28.5169 6.96647 28.3482 6.98181C28.1949 6.98181 28.0339 6.98947 27.8652 7.00481C27.7119 7.00481 27.5586 7.00481 27.4052 7.00481L26.8532 9.55781H28.0262C28.5782 9.55781 29.0229 9.48881 29.3602 9.35081C29.6976 9.21281 29.9506 9.03647 30.1192 8.82181C30.3032 8.60714 30.4182 8.39247 30.4642 8.17781C30.5102 7.97847 30.5026 7.80981 30.4412 7.67181C30.3799 7.51847 30.2879 7.38814 30.1652 7.28081C30.0579 7.17347 29.9199 7.09681 29.7512 7.05081C29.5979 6.98947 29.4369 6.95881 29.2682 6.95881ZM27.6812 14.1578C28.0339 14.1578 28.3636 14.1195 28.6702 14.0428C28.9769 13.9661 29.2376 13.8435 29.4522 13.6748C29.6669 13.4908 29.8049 13.2531 29.8662 12.9618C29.9122 12.7778 29.9046 12.6091 29.8432 12.4558C29.7972 12.3025 29.7052 12.1798 29.5672 12.0878C29.4446 11.9805 29.2836 11.9038 29.0842 11.8578C28.9002 11.7965 28.6932 11.7658 28.4632 11.7658H26.3932L25.8872 14.1118C26.0559 14.1118 26.2246 14.1195 26.3932 14.1348C26.5619 14.1348 26.7229 14.1425 26.8762 14.1578C27.0296 14.1578 27.1752 14.1578 27.3132 14.1578C27.4512 14.1578 27.5739 14.1578 27.6812 14.1578ZM36.4038 13.0768C36.3578 13.2761 36.3501 13.4601 36.3808 13.6288C36.4115 13.7821 36.4651 13.9201 36.5418 14.0428C36.6338 14.1655 36.7565 14.2575 36.9098 14.3188C37.0631 14.3801 37.2395 14.4108 37.4388 14.4108C37.8528 14.4108 38.3435 14.3188 38.9108 14.1348C39.4781 13.9508 40.0301 13.7361 40.5668 13.4908L41.0268 15.6988C40.4135 16.0361 39.7388 16.3045 39.0028 16.5038C38.2668 16.7031 37.5538 16.8028 36.8638 16.8028C36.3271 16.8028 35.8365 16.7338 35.3918 16.5958C34.9625 16.4578 34.6021 16.2508 34.3108 15.9748C34.0348 15.6988 33.8431 15.3461 33.7358 14.9168C33.6438 14.4875 33.6591 13.9815 33.7818 13.3988L34.7938 8.68381C34.9778 7.84047 35.2998 7.12747 35.7598 6.54481C36.2351 5.96214 36.8101 5.51747 37.4848 5.21081C38.1748 4.90414 38.9338 4.75081 39.7618 4.75081C40.5898 4.75081 41.2798 4.89647 41.8318 5.18781C42.3991 5.47914 42.7978 5.90847 43.0278 6.47581C43.2578 7.04314 43.2808 7.75614 43.0968 8.61481L42.3378 12.2028L36.5418 12.5018L36.4038 13.0768ZM40.4058 9.30481C40.4671 8.98281 40.4978 8.65314 40.4978 8.31581C40.4978 7.97847 40.4135 7.70247 40.2448 7.48781C40.0915 7.25781 39.7848 7.15814 39.3248 7.18881C38.8495 7.20414 38.4738 7.30381 38.1978 7.48781C37.9371 7.65647 37.7301 7.89414 37.5768 8.20081C37.4388 8.49214 37.3161 8.85247 37.2088 9.28181L37.0248 10.1788L40.2448 9.97181L40.4058 9.30481ZM51.6248 7.44181C51.3488 7.28847 51.0344 7.17347 50.6818 7.09681C50.3444 7.00481 49.9994 6.95114 49.6468 6.93581C49.2328 6.93581 48.8418 7.00481 48.4738 7.14281C48.1058 7.26547 47.7914 7.47247 47.5308 7.76381C47.2701 8.03981 47.0938 8.40781 47.0018 8.86781L46.2428 12.4788C46.1661 12.8315 46.1584 13.1458 46.2198 13.4218C46.2811 13.6825 46.3961 13.8971 46.5648 14.0658C46.7488 14.2345 46.9788 14.3648 47.2548 14.4568C47.5308 14.5335 47.8451 14.5718 48.1978 14.5718C48.4431 14.5718 48.6884 14.5641 48.9338 14.5488C49.1944 14.5181 49.4244 14.4875 49.6238 14.4568C49.8231 14.4108 49.9841 14.3801 50.1068 14.3648C50.2294 14.3341 50.2908 14.3188 50.2908 14.3188L50.3138 16.3888C49.8078 16.5115 49.2941 16.6111 48.7728 16.6878C48.2514 16.7645 47.7301 16.7951 47.2088 16.7798C46.3348 16.7645 45.5988 16.6035 45.0008 16.2968C44.4028 15.9901 43.9888 15.5225 43.7588 14.8938C43.5288 14.2651 43.5134 13.4678 43.7128 12.5018L44.4488 9.14381C44.6481 8.25447 44.9624 7.47247 45.3918 6.79781C45.8364 6.12314 46.4191 5.60181 47.1398 5.23381C47.8758 4.86581 48.7728 4.69714 49.8308 4.72781C50.3214 4.74314 50.7968 4.81981 51.2568 4.95781C51.7321 5.09581 52.1768 5.27214 52.5908 5.48681L51.6248 7.44181ZM57.0244 13.0998C56.9477 13.4831 56.9247 13.8128 56.9554 14.0888C57.0014 14.3648 57.1087 14.5948 57.2774 14.7788C57.4614 14.9475 57.7144 15.0931 58.0364 15.2158L56.5644 16.9638C56.1351 16.8411 55.7594 16.6801 55.4374 16.4808C55.1307 16.2661 54.8854 16.0131 54.7014 15.7218C54.5174 15.4151 54.4024 15.0701 54.3564 14.6868C54.3104 14.3035 54.3334 13.8895 54.4254 13.4448L55.7134 7.37281H53.5744L54.0804 4.98081H61.0494L60.5434 7.37281H58.2434L57.0244 13.0998ZM67.6815 9.00581L68.5325 5.00381H71.0625L68.6245 16.5038H66.0945L67.1755 11.4208H63.7715L62.6905 16.5038H60.1375L62.5755 5.00381H65.1285L64.2775 9.00581H67.6815ZM80.6617 16.5038L83.1227 4.98081H85.6527L83.2147 16.5038H80.6617ZM76.7977 9.53481C77.4877 9.53481 78.1087 9.65747 78.6607 9.90281C79.2281 10.1328 79.6497 10.5085 79.9257 11.0298C80.2017 11.5358 80.2477 12.2028 80.0637 13.0308C79.9411 13.6288 79.6727 14.2115 79.2587 14.7788C78.8447 15.3308 78.3004 15.7908 77.6257 16.1588C76.9511 16.5268 76.1537 16.7108 75.2337 16.7108C74.9424 16.7108 74.5897 16.7031 74.1757 16.6878C73.7771 16.6725 73.3554 16.6495 72.9107 16.6188C72.4814 16.5881 72.0751 16.5575 71.6917 16.5268C71.3084 16.5115 70.9941 16.4961 70.7487 16.4808C70.5187 16.4655 70.4037 16.4578 70.4037 16.4578L72.8417 5.00381H75.3947L74.4287 9.53481H76.7977ZM75.3487 14.1118C75.7014 14.1118 76.0157 14.0811 76.2917 14.0198C76.5831 13.9431 76.8284 13.8205 77.0277 13.6518C77.2271 13.4831 77.3574 13.2531 77.4187 12.9618C77.4647 12.7778 77.4647 12.6168 77.4187 12.4788C77.3727 12.3408 77.2884 12.2258 77.1657 12.1338C77.0584 12.0418 76.9127 11.9805 76.7287 11.9498C76.5447 11.9038 76.3377 11.8808 76.1077 11.8808H73.9457L73.4857 14.0658C73.6544 14.0658 73.8231 14.0735 73.9917 14.0888C74.1757 14.0888 74.3444 14.0965 74.4977 14.1118C74.6664 14.1118 74.8197 14.1118 74.9577 14.1118C75.1111 14.1118 75.2414 14.1118 75.3487 14.1118ZM95.4887 1.11681L95.4657 1.2778C95.3737 1.73781 95.159 2.16714 94.8217 2.56581C94.4997 2.96447 94.1163 3.28647 93.6717 3.53181C93.227 3.76181 92.767 3.87681 92.2917 3.87681C91.8163 3.87681 91.4023 3.76181 91.0497 3.53181C90.7123 3.28647 90.467 2.96447 90.3137 2.56581C90.1603 2.16714 90.1297 1.73781 90.2217 1.2778L90.2677 1.11681H92.0387L91.9927 1.2778C91.9313 1.47714 91.9543 1.66114 92.0617 1.82981C92.1843 1.98314 92.353 2.05981 92.5677 2.05981C92.8283 2.05981 93.043 1.97547 93.2117 1.8068C93.3803 1.63814 93.4953 1.46181 93.5567 1.2778L93.6027 1.11681H95.4887ZM90.0607 5.00381L88.6117 11.8348L93.4417 5.00381H96.0177L93.5797 16.5268H91.0037L92.4297 9.74181L87.6227 16.5268H85.0927L87.5307 5.00381H90.0607ZM110.382 7.44181C110.106 7.28847 109.792 7.17347 109.439 7.09681C109.102 7.00481 108.757 6.95114 108.404 6.93581C107.99 6.93581 107.599 7.00481 107.231 7.14281C106.863 7.26547 106.549 7.47247 106.288 7.76381C106.028 8.03981 105.851 8.40781 105.759 8.86781L105 12.4788C104.924 12.8315 104.916 13.1458 104.977 13.4218C105.039 13.6825 105.154 13.8971 105.322 14.0658C105.506 14.2345 105.736 14.3648 106.012 14.4568C106.288 14.5335 106.603 14.5718 106.955 14.5718C107.201 14.5718 107.446 14.5641 107.691 14.5488C107.952 14.5181 108.182 14.4875 108.381 14.4568C108.581 14.4108 108.742 14.3801 108.864 14.3648C108.987 14.3341 109.048 14.3188 109.048 14.3188L109.071 16.3888C108.565 16.5115 108.052 16.6111 107.53 16.6878C107.009 16.7645 106.488 16.7951 105.966 16.7798C105.092 16.7645 104.356 16.6035 103.758 16.2968C103.16 15.9901 102.746 15.5225 102.516 14.8938C102.286 14.2651 102.271 13.4678 102.47 12.5018L103.206 9.14381C103.406 8.25447 103.72 7.47247 104.149 6.79781C104.594 6.12314 105.177 5.60181 105.897 5.23381C106.633 4.86581 107.53 4.69714 108.588 4.72781C109.079 4.74314 109.554 4.81981 110.014 4.95781C110.49 5.09581 110.934 5.27214 111.348 5.48681L110.382 7.44181ZM115.782 13.0998C115.705 13.4831 115.682 13.8128 115.713 14.0888C115.759 14.3648 115.866 14.5948 116.035 14.7788C116.219 14.9475 116.472 15.0931 116.794 15.2158L115.322 16.9638C114.893 16.8411 114.517 16.6801 114.195 16.4808C113.888 16.2661 113.643 16.0131 113.459 15.7218C113.275 15.4151 113.16 15.0701 113.114 14.6868C113.068 14.3035 113.091 13.8895 113.183 13.4448L114.471 7.37281H112.332L112.838 4.98081H119.807L119.301 7.37281H117.001L115.782 13.0998ZM128.21 12.5708C128.026 13.5061 127.712 14.2958 127.267 14.9398C126.838 15.5838 126.301 16.0745 125.657 16.4118C125.013 16.7338 124.262 16.8948 123.403 16.8948C123.219 16.8948 123.035 16.8795 122.851 16.8488C122.667 16.8181 122.491 16.7798 122.322 16.7338C122.154 16.6878 121.993 16.6265 121.839 16.5498C121.701 16.4885 121.571 16.4195 121.448 16.3428L120.367 21.4718L117.952 20.8968L120.413 9.32781C120.72 7.87114 121.326 6.75947 122.23 5.99281C123.15 5.21081 124.308 4.81981 125.703 4.81981C127.022 4.81981 127.965 5.21847 128.532 6.01581C129.1 6.81314 129.23 7.91714 128.923 9.32781L128.21 12.5708ZM126.416 9.18981C126.493 8.82181 126.493 8.50747 126.416 8.24681C126.34 7.97081 126.186 7.75614 125.956 7.60281C125.726 7.44947 125.427 7.37281 125.059 7.37281C124.707 7.37281 124.385 7.44181 124.093 7.57981C123.802 7.71781 123.564 7.92481 123.38 8.20081C123.196 8.46147 123.058 8.79114 122.966 9.18981L122.069 13.3988C122.023 13.5981 122.046 13.7745 122.138 13.9278C122.246 14.0811 122.391 14.2115 122.575 14.3188C122.759 14.4261 122.951 14.5028 123.15 14.5488C123.365 14.5948 123.564 14.6178 123.748 14.6178C124.086 14.6178 124.377 14.5488 124.622 14.4108C124.883 14.2728 125.098 14.0811 125.266 13.8358C125.435 13.5751 125.55 13.2685 125.611 12.9158L126.416 9.18981ZM134.129 5.00381L132.68 11.8348L137.51 5.00381H140.086L137.648 16.5268H135.072L136.498 9.74181L131.691 16.5268H129.161L131.599 5.00381H134.129ZM150.811 5.00381H153.617L151.179 16.5268H148.649L149.937 10.4318L146.257 16.5268H144.348L143.198 10.4318L141.91 16.5268H139.357L141.795 5.00381H144.647L146.004 13.0998L150.811 5.00381ZM156.121 13.0768C156.075 13.2761 156.067 13.4601 156.098 13.6288C156.128 13.7821 156.182 13.9201 156.259 14.0428C156.351 14.1655 156.473 14.2575 156.627 14.3188C156.78 14.3801 156.956 14.4108 157.156 14.4108C157.57 14.4108 158.06 14.3188 158.628 14.1348C159.195 13.9508 159.747 13.7361 160.284 13.4908L160.744 15.6988C160.13 16.0361 159.456 16.3045 158.72 16.5038C157.984 16.7031 157.271 16.8028 156.581 16.8028C156.044 16.8028 155.553 16.7338 155.109 16.5958C154.679 16.4578 154.319 16.2508 154.028 15.9748C153.752 15.6988 153.56 15.3461 153.453 14.9168C153.361 14.4875 153.376 13.9815 153.499 13.3988L154.511 8.68381C154.695 7.84047 155.017 7.12747 155.477 6.54481C155.952 5.96214 156.527 5.51747 157.202 5.21081C157.892 4.90414 158.651 4.75081 159.479 4.75081C160.307 4.75081 160.997 4.89647 161.549 5.18781C162.116 5.47914 162.515 5.90847 162.745 6.47581C162.975 7.04314 162.998 7.75614 162.814 8.61481L162.055 12.2028L156.259 12.5018L156.121 13.0768ZM160.123 9.30481C160.184 8.98281 160.215 8.65314 160.215 8.31581C160.215 7.97847 160.13 7.70247 159.962 7.48781C159.808 7.25781 159.502 7.15814 159.042 7.18881C158.566 7.20414 158.191 7.30381 157.915 7.48781C157.654 7.65647 157.447 7.89414 157.294 8.20081C157.156 8.49214 157.033 8.85247 156.926 9.28181L156.742 10.1788L159.962 9.97181L160.123 9.30481ZM172.031 12.5708C171.847 13.5061 171.533 14.2958 171.088 14.9398C170.659 15.5838 170.122 16.0745 169.478 16.4118C168.834 16.7338 168.083 16.8948 167.224 16.8948C167.04 16.8948 166.856 16.8795 166.672 16.8488C166.488 16.8181 166.312 16.7798 166.143 16.7338C165.975 16.6878 165.814 16.6265 165.66 16.5498C165.522 16.4885 165.392 16.4195 165.269 16.3428L164.188 21.4718L161.773 20.8968L164.234 9.32781C164.541 7.87114 165.147 6.75947 166.051 5.99281C166.971 5.21081 168.129 4.81981 169.524 4.81981C170.843 4.81981 171.786 5.21847 172.353 6.01581C172.921 6.81314 173.051 7.91714 172.744 9.32781L172.031 12.5708ZM170.237 9.18981C170.314 8.82181 170.314 8.50747 170.237 8.24681C170.161 7.97081 170.007 7.75614 169.777 7.60281C169.547 7.44947 169.248 7.37281 168.88 7.37281C168.528 7.37281 168.206 7.44181 167.914 7.57981C167.623 7.71781 167.385 7.92481 167.201 8.20081C167.017 8.46147 166.879 8.79114 166.787 9.18981L165.89 13.3988C165.844 13.5981 165.867 13.7745 165.959 13.9278C166.067 14.0811 166.212 14.2115 166.396 14.3188C166.58 14.4261 166.772 14.5028 166.971 14.5488C167.186 14.5948 167.385 14.6178 167.569 14.6178C167.907 14.6178 168.198 14.5488 168.443 14.4108C168.704 14.2728 168.919 14.0811 169.087 13.8358C169.256 13.5751 169.371 13.2685 169.432 12.9158L170.237 9.18981ZM173.166 18.0218C173.335 17.8071 173.465 17.5848 173.557 17.3548C173.665 17.1401 173.772 16.9178 173.879 16.6878C173.588 16.6111 173.373 16.4501 173.235 16.2048C173.097 15.9595 173.059 15.6758 173.12 15.3538C173.197 14.9858 173.396 14.6638 173.718 14.3878C174.056 14.1118 174.416 13.9738 174.799 13.9738C175.167 13.9738 175.451 14.1118 175.65 14.3878C175.85 14.6638 175.911 14.9858 175.834 15.3538C175.742 15.8751 175.574 16.3275 175.328 16.7108C175.098 17.0941 174.845 17.4085 174.569 17.6538C174.309 17.9145 174.086 18.1061 173.902 18.2288C173.718 18.3515 173.634 18.4128 173.649 18.4128L173.166 18.0218ZM192.342 10.1328C192.756 10.4395 193.032 10.8535 193.17 11.3748C193.324 11.8961 193.339 12.4635 193.216 13.0768C193.094 13.6748 192.825 14.2575 192.411 14.8248C191.997 15.3768 191.453 15.8368 190.778 16.2048C190.104 16.5728 189.306 16.7568 188.386 16.7568C188.095 16.7568 187.75 16.7491 187.351 16.7338C186.953 16.7185 186.539 16.6955 186.109 16.6648C185.68 16.6341 185.281 16.6035 184.913 16.5728C184.545 16.5575 184.246 16.5421 184.016 16.5268C183.786 16.5115 183.671 16.5038 183.671 16.5038L186.109 4.98081C186.109 4.98081 186.209 4.97314 186.408 4.95781C186.623 4.92714 186.922 4.89647 187.305 4.86581C187.704 4.81981 188.172 4.78914 188.708 4.77381C189.245 4.74314 189.843 4.72781 190.502 4.72781C190.962 4.72781 191.407 4.78147 191.836 4.88881C192.266 4.99614 192.641 5.15714 192.963 5.37181C193.301 5.58647 193.554 5.87014 193.722 6.22281C193.906 6.56014 193.983 6.97414 193.952 7.46481C193.922 7.94014 193.753 8.43081 193.446 8.93681C193.155 9.42747 192.787 9.82614 192.342 10.1328ZM190.088 6.95881C189.95 6.95881 189.805 6.95881 189.651 6.95881C189.498 6.95881 189.337 6.96647 189.168 6.98181C189.015 6.98181 188.854 6.98947 188.685 7.00481C188.532 7.00481 188.379 7.00481 188.225 7.00481L187.673 9.55781H188.846C189.398 9.55781 189.843 9.48881 190.18 9.35081C190.518 9.21281 190.771 9.03647 190.939 8.82181C191.123 8.60714 191.238 8.39247 191.284 8.17781C191.33 7.97847 191.323 7.80981 191.261 7.67181C191.2 7.51847 191.108 7.38814 190.985 7.28081C190.878 7.17347 190.74 7.09681 190.571 7.05081C190.418 6.98947 190.257 6.95881 190.088 6.95881ZM188.501 14.1578C188.854 14.1578 189.184 14.1195 189.49 14.0428C189.797 13.9661 190.058 13.8435 190.272 13.6748C190.487 13.4908 190.625 13.2531 190.686 12.9618C190.732 12.7778 190.725 12.6091 190.663 12.4558C190.617 12.3025 190.525 12.1798 190.387 12.0878C190.265 11.9805 190.104 11.9038 189.904 11.8578C189.72 11.7965 189.513 11.7658 189.283 11.7658H187.213L186.707 14.1118C186.876 14.1118 187.045 14.1195 187.213 14.1348C187.382 14.1348 187.543 14.1425 187.696 14.1578C187.85 14.1578 187.995 14.1578 188.133 14.1578C188.271 14.1578 188.394 14.1578 188.501 14.1578ZM199.041 5.00381L197.592 11.8348L202.422 5.00381H204.998L202.56 16.5268H199.984L201.41 9.74181L196.603 16.5268H194.073L196.511 5.00381H199.041ZM215.079 13.9968H216.367L215.217 19.4018H213.101L213.239 16.5268H206.247L205.143 19.4018H203.027L204.177 13.9968H205.741L208.524 8.45381C208.708 8.08581 208.922 7.70247 209.168 7.30381C209.428 6.88981 209.727 6.50647 210.065 6.15381C210.417 5.80114 210.839 5.51747 211.33 5.30281C211.836 5.08814 212.434 4.98081 213.124 4.98081H216.988L215.079 13.9968ZM208.386 13.9968H212.526L213.998 7.14281H213.285C213.039 7.14281 212.809 7.16581 212.595 7.21181C212.38 7.24247 212.181 7.31147 211.997 7.41881C211.813 7.52614 211.636 7.67181 211.468 7.85581C211.299 8.03981 211.146 8.27747 211.008 8.56881L208.386 13.9968ZM220.134 13.0768C220.088 13.2761 220.081 13.4601 220.111 13.6288C220.142 13.7821 220.196 13.9201 220.272 14.0428C220.364 14.1655 220.487 14.2575 220.64 14.3188C220.794 14.3801 220.97 14.4108 221.169 14.4108C221.583 14.4108 222.074 14.3188 222.641 14.1348C223.209 13.9508 223.761 13.7361 224.297 13.4908L224.757 15.6988C224.144 16.0361 223.469 16.3045 222.733 16.5038C221.997 16.7031 221.284 16.8028 220.594 16.8028C220.058 16.8028 219.567 16.7338 219.122 16.5958C218.693 16.4578 218.333 16.2508 218.041 15.9748C217.765 15.6988 217.574 15.3461 217.466 14.9168C217.374 14.4875 217.39 13.9815 217.512 13.3988L218.524 8.68381C218.708 7.84047 219.03 7.12747 219.49 6.54481C219.966 5.96214 220.541 5.51747 221.215 5.21081C221.905 4.90414 222.664 4.75081 223.492 4.75081C224.32 4.75081 225.01 4.89647 225.562 5.18781C226.13 5.47914 226.528 5.90847 226.758 6.47581C226.988 7.04314 227.011 7.75614 226.827 8.61481L226.068 12.2028L220.272 12.5018L220.134 13.0768ZM224.136 9.30481C224.198 8.98281 224.228 8.65314 224.228 8.31581C224.228 7.97847 224.144 7.70247 223.975 7.48781C223.822 7.25781 223.515 7.15814 223.055 7.18881C222.58 7.20414 222.204 7.30381 221.928 7.48781C221.668 7.65647 221.461 7.89414 221.307 8.20081C221.169 8.49214 221.047 8.85247 220.939 9.28181L220.755 10.1788L223.975 9.97181L224.136 9.30481ZM235.999 12.2488C235.723 13.5981 235.148 14.6868 234.274 15.5148C233.415 16.3275 232.281 16.7338 230.87 16.7338C229.858 16.7338 229.076 16.5268 228.524 16.1128C227.987 15.6835 227.642 15.1315 227.489 14.4568C227.336 13.7668 227.336 13.0308 227.489 12.2488L228.156 9.21281C228.371 8.23147 228.708 7.41114 229.168 6.75181C229.643 6.09247 230.234 5.59414 230.939 5.25681C231.66 4.90414 232.488 4.72781 233.423 4.72781C234.757 4.72781 235.708 5.12647 236.275 5.92381C236.842 6.70581 236.973 7.80214 236.666 9.21281L235.999 12.2488ZM234.09 9.07481C234.167 8.70681 234.174 8.39247 234.113 8.13181C234.052 7.85581 233.914 7.64881 233.699 7.51081C233.5 7.35747 233.216 7.28081 232.848 7.28081C232.48 7.28081 232.15 7.34981 231.859 7.48781C231.583 7.62581 231.345 7.82514 231.146 8.08581C230.962 8.34647 230.824 8.67614 230.732 9.07481L230.019 12.4328C229.958 12.7395 229.958 13.0308 230.019 13.3068C230.08 13.5828 230.218 13.8051 230.433 13.9738C230.648 14.1425 230.962 14.2268 231.376 14.2268C231.759 14.2268 232.081 14.1501 232.342 13.9968C232.618 13.8435 232.84 13.6288 233.009 13.3528C233.178 13.0768 233.3 12.7701 233.377 12.4328L234.09 9.07481ZM243.534 4.81981C244.393 4.81981 245.075 4.98081 245.581 5.30281C246.087 5.62481 246.417 6.10781 246.57 6.75181C246.739 7.39581 246.724 8.19314 246.524 9.14381L245.857 12.2488C245.566 13.6441 244.968 14.7481 244.063 15.5608C243.159 16.3581 242.047 16.7568 240.728 16.7568C239.87 16.7568 239.149 16.5881 238.566 16.2508C237.999 15.8981 237.6 15.3921 237.37 14.7328C237.156 14.0581 237.148 13.2301 237.347 12.2488L238.796 5.46381C238.919 4.89647 239.134 4.32147 239.44 3.73881C239.762 3.15614 240.184 2.62714 240.705 2.15181C241.181 1.70714 241.748 1.33147 242.407 1.02481C243.067 0.718143 243.818 0.511143 244.661 0.403809L244.937 1.99081C244.416 2.09814 243.941 2.25147 243.511 2.45081C243.097 2.65014 242.722 2.91847 242.384 3.25581C242.139 3.51647 241.932 3.81547 241.763 4.15281C241.595 4.49014 241.457 4.90414 241.349 5.39481L241.303 5.60181C241.503 5.47914 241.725 5.35647 241.97 5.23381C242.231 5.11114 242.492 5.01147 242.752 4.93481C243.028 4.85814 243.289 4.81981 243.534 4.81981ZM242.706 7.11981C242.522 7.11981 242.323 7.15047 242.108 7.21181C241.894 7.25781 241.687 7.34214 241.487 7.46481C241.288 7.57214 241.112 7.72547 240.958 7.92481C240.82 8.10881 240.721 8.33114 240.659 8.59181L239.854 12.3868C239.778 12.7701 239.762 13.0998 239.808 13.3758C239.854 13.6365 239.985 13.8435 240.199 13.9968C240.414 14.1348 240.736 14.2038 241.165 14.2038C241.533 14.2038 241.863 14.1271 242.154 13.9738C242.446 13.8205 242.683 13.6135 242.867 13.3528C243.067 13.0768 243.205 12.7548 243.281 12.3868L244.04 8.79881C244.117 8.44614 244.117 8.14714 244.04 7.90181C243.964 7.64114 243.81 7.44947 243.58 7.32681C243.366 7.18881 243.074 7.11981 242.706 7.11981ZM255.489 5.00381H259.353L256.915 16.4808H254.362L256.34 7.16581H255.627C255.305 7.16581 255.013 7.20414 254.753 7.28081C254.507 7.35747 254.277 7.49547 254.063 7.69481C253.863 7.89414 253.664 8.18547 253.465 8.56881L251.119 13.2608C250.689 14.1041 250.275 14.7788 249.877 15.2848C249.493 15.7755 249.056 16.1588 248.566 16.4348C248.09 16.6955 247.5 16.9025 246.795 17.0558L245.76 15.8368C246.097 15.6681 246.388 15.5148 246.634 15.3768C246.894 15.2388 247.14 15.0395 247.37 14.7788C247.615 14.5181 247.876 14.1271 248.152 13.6058L250.797 8.45381C250.981 8.08581 251.203 7.70247 251.464 7.30381C251.724 6.90514 252.031 6.52947 252.384 6.17681C252.752 5.82414 253.189 5.54047 253.695 5.32581C254.201 5.11114 254.799 5.00381 255.489 5.00381ZM268.073 12.2488C267.797 13.5981 267.222 14.6868 266.348 15.5148C265.49 16.3275 264.355 16.7338 262.944 16.7338C261.932 16.7338 261.15 16.5268 260.598 16.1128C260.062 15.6835 259.717 15.1315 259.563 14.4568C259.41 13.7668 259.41 13.0308 259.563 12.2488L260.23 9.21281C260.445 8.23147 260.782 7.41114 261.242 6.75181C261.718 6.09247 262.308 5.59414 263.013 5.25681C263.734 4.90414 264.562 4.72781 265.497 4.72781C266.831 4.72781 267.782 5.12647 268.349 5.92381C268.917 6.70581 269.047 7.80214 268.74 9.21281L268.073 12.2488ZM266.164 9.07481C266.241 8.70681 266.249 8.39247 266.187 8.13181C266.126 7.85581 265.988 7.64881 265.773 7.51081C265.574 7.35747 265.29 7.28081 264.922 7.28081C264.554 7.28081 264.225 7.34981 263.933 7.48781C263.657 7.62581 263.42 7.82514 263.22 8.08581C263.036 8.34647 262.898 8.67614 262.806 9.07481L262.093 12.4328C262.032 12.7395 262.032 13.0308 262.093 13.3068C262.155 13.5828 262.293 13.8051 262.507 13.9738C262.722 14.1425 263.036 14.2268 263.45 14.2268C263.834 14.2268 264.156 14.1501 264.416 13.9968C264.692 13.8435 264.915 13.6288 265.083 13.3528C265.252 13.0768 265.375 12.7701 265.451 12.4328L266.164 9.07481ZM271.101 5.00381H277.426L276.897 7.53381H273.148L271.239 16.5038H268.663L271.101 5.00381ZM279.251 13.0768C279.205 13.2761 279.198 13.4601 279.228 13.6288C279.259 13.7821 279.313 13.9201 279.389 14.0428C279.481 14.1655 279.604 14.2575 279.757 14.3188C279.911 14.3801 280.087 14.4108 280.286 14.4108C280.7 14.4108 281.191 14.3188 281.758 14.1348C282.326 13.9508 282.878 13.7361 283.414 13.4908L283.874 15.6988C283.261 16.0361 282.586 16.3045 281.85 16.5038C281.114 16.7031 280.401 16.8028 279.711 16.8028C279.175 16.8028 278.684 16.7338 278.239 16.5958C277.81 16.4578 277.45 16.2508 277.158 15.9748C276.882 15.6988 276.691 15.3461 276.583 14.9168C276.491 14.4875 276.507 13.9815 276.629 13.3988L277.641 8.68381C277.825 7.84047 278.147 7.12747 278.607 6.54481C279.083 5.96214 279.658 5.51747 280.332 5.21081C281.022 4.90414 281.781 4.75081 282.609 4.75081C283.437 4.75081 284.127 4.89647 284.679 5.18781C285.247 5.47914 285.645 5.90847 285.875 6.47581C286.105 7.04314 286.128 7.75614 285.944 8.61481L285.185 12.2028L279.389 12.5018L279.251 13.0768ZM283.253 9.30481C283.315 8.98281 283.345 8.65314 283.345 8.31581C283.345 7.97847 283.261 7.70247 283.092 7.48781C282.939 7.25781 282.632 7.15814 282.172 7.18881C281.697 7.20414 281.321 7.30381 281.045 7.48781C280.785 7.65647 280.578 7.89414 280.424 8.20081C280.286 8.49214 280.164 8.85247 280.056 9.28181L279.872 10.1788L283.092 9.97181L283.253 9.30481ZM295.162 12.5708C294.978 13.5061 294.664 14.2958 294.219 14.9398C293.79 15.5838 293.253 16.0745 292.609 16.4118C291.965 16.7338 291.214 16.8948 290.355 16.8948C290.171 16.8948 289.987 16.8795 289.803 16.8488C289.619 16.8181 289.443 16.7798 289.274 16.7338C289.106 16.6878 288.945 16.6265 288.791 16.5498C288.653 16.4885 288.523 16.4195 288.4 16.3428L287.319 21.4718L284.904 20.8968L287.365 9.32781C287.672 7.87114 288.278 6.75947 289.182 5.99281C290.102 5.21081 291.26 4.81981 292.655 4.81981C293.974 4.81981 294.917 5.21847 295.484 6.01581C296.052 6.81314 296.182 7.91714 295.875 9.32781L295.162 12.5708ZM293.368 9.18981C293.445 8.82181 293.445 8.50747 293.368 8.24681C293.292 7.97081 293.138 7.75614 292.908 7.60281C292.678 7.44947 292.379 7.37281 292.011 7.37281C291.659 7.37281 291.337 7.44181 291.045 7.57981C290.754 7.71781 290.516 7.92481 290.332 8.20081C290.148 8.46147 290.01 8.79114 289.918 9.18981L289.021 13.3988C288.975 13.5981 288.998 13.7745 289.09 13.9278C289.198 14.0811 289.343 14.2115 289.527 14.3188C289.711 14.4261 289.903 14.5028 290.102 14.5488C290.317 14.5948 290.516 14.6178 290.7 14.6178C291.038 14.6178 291.329 14.5488 291.574 14.4108C291.835 14.2728 292.05 14.0811 292.218 13.8358C292.387 13.5751 292.502 13.2685 292.563 12.9158L293.368 9.18981ZM307.527 5.00381L306.078 11.8348L310.908 5.00381H313.484L311.046 16.5268H308.47L309.896 9.74181L305.089 16.5268H302.559L304.997 5.00381H307.527ZM24.6403 48.3108L27.2623 43.5038L25.5373 31.9808H27.9753L29.1713 40.0768L33.5413 31.9808H35.9793L27.1243 48.3108H24.6403ZM40.9029 43.5038L41.5929 40.2608C41.4703 40.3681 41.2786 40.4831 41.0179 40.6058C40.7573 40.7285 40.4583 40.8358 40.1209 40.9278C39.7989 41.0045 39.4769 41.0428 39.1549 41.0428C38.6949 41.0428 38.2579 40.9738 37.8439 40.8358C37.4299 40.6978 37.0773 40.4831 36.7859 40.1918C36.4946 39.8851 36.2953 39.4941 36.1879 39.0188C36.0806 38.5281 36.0959 37.9378 36.2339 37.2478L37.3379 32.0038H39.9369L38.8329 37.1788C38.7716 37.4395 38.7563 37.6695 38.7869 37.8688C38.8329 38.0681 38.9096 38.2291 39.0169 38.3518C39.1396 38.4745 39.2929 38.5665 39.4769 38.6278C39.6609 38.6891 39.8679 38.7198 40.0979 38.7198C40.3586 38.7198 40.6039 38.6738 40.8339 38.5818C41.0793 38.4745 41.3016 38.3365 41.5009 38.1678C41.7156 37.9991 41.8919 37.7998 42.0299 37.5698C42.1679 37.3398 42.2676 37.0945 42.3289 36.8338L42.8349 34.4418C42.9116 34.1198 43.0343 33.7978 43.2029 33.4758C43.3716 33.1538 43.5939 32.8625 43.8699 32.6018C44.1459 32.3258 44.4756 32.1111 44.8589 31.9578C45.2576 31.7891 45.7176 31.7048 46.2389 31.7048L46.6529 33.4988C46.1929 33.5908 45.8556 33.7901 45.6409 34.0968C45.4416 34.3881 45.2959 34.7331 45.2039 35.1318L43.4329 43.5038H40.9029ZM56.4955 32.3028C56.3421 32.7781 56.2118 33.2075 56.1045 33.5908C56.0125 33.9588 55.9358 34.2731 55.8745 34.5338L53.9885 43.3888C53.9885 43.3888 53.8811 43.3965 53.6665 43.4118C53.4671 43.4271 53.1911 43.4501 52.8385 43.4808C52.5011 43.4961 52.1178 43.5115 51.6885 43.5268C51.2745 43.5421 50.8528 43.5575 50.4235 43.5728C50.0095 43.5881 49.6261 43.5958 49.2735 43.5958C48.5681 43.5958 47.9931 43.4885 47.5485 43.2738C47.1191 43.0591 46.7971 42.7678 46.5825 42.3998C46.3678 42.0318 46.2451 41.6101 46.2145 41.1348C46.1991 40.6441 46.2451 40.1305 46.3525 39.5938L47.2725 35.3388C47.4105 34.6641 47.6021 34.1045 47.8475 33.6598C48.1081 33.1998 48.3995 32.8395 48.7215 32.5788C49.0588 32.3028 49.4268 32.1111 49.8255 32.0038C50.2241 31.8811 50.6535 31.8198 51.1135 31.8198C51.5888 31.8198 52.0258 31.8505 52.4245 31.9118C52.8231 31.9731 53.1528 32.0421 53.4135 32.1188C53.6895 32.1955 53.8811 32.2568 53.9885 32.3028C53.9885 32.3028 54.0191 32.2415 54.0805 32.1188C54.1571 31.9808 54.2415 31.8505 54.3335 31.7278L56.4955 32.3028ZM48.8825 39.6168C48.7905 40.1228 48.7751 40.5138 48.8365 40.7898C48.8978 41.0505 49.0358 41.2345 49.2505 41.3418C49.4805 41.4338 49.7795 41.4798 50.1475 41.4798C50.2855 41.4798 50.4235 41.4798 50.5615 41.4798C50.6995 41.4798 50.8375 41.4798 50.9755 41.4798C51.1135 41.4645 51.2515 41.4491 51.3895 41.4338C51.5428 41.4185 51.6961 41.4031 51.8495 41.3878L53.2755 34.6028C53.1681 34.5415 53.0378 34.4878 52.8845 34.4418C52.7311 34.3805 52.5625 34.3268 52.3785 34.2808C52.2098 34.2348 52.0411 34.2041 51.8725 34.1888C51.7191 34.1581 51.5811 34.1428 51.4585 34.1428C51.3358 34.1428 51.1901 34.1505 51.0215 34.1658C50.8681 34.1811 50.7071 34.2348 50.5385 34.3268C50.3698 34.4035 50.2165 34.5261 50.0785 34.6948C49.9405 34.8635 49.8408 35.1011 49.7795 35.4078L48.8825 39.6168ZM64.6409 34.4418C64.3649 34.2885 64.0506 34.1735 63.6979 34.0968C63.3606 34.0048 63.0156 33.9511 62.6629 33.9358C62.2489 33.9358 61.8579 34.0048 61.4899 34.1428C61.1219 34.2655 60.8076 34.4725 60.5469 34.7638C60.2862 35.0398 60.1099 35.4078 60.0179 35.8678L59.2589 39.4788C59.1822 39.8315 59.1746 40.1458 59.2359 40.4218C59.2972 40.6825 59.4122 40.8971 59.5809 41.0658C59.7649 41.2345 59.9949 41.3648 60.2709 41.4568C60.5469 41.5335 60.8612 41.5718 61.2139 41.5718C61.4592 41.5718 61.7046 41.5641 61.9499 41.5488C62.2106 41.5181 62.4406 41.4875 62.6399 41.4568C62.8392 41.4108 63.0002 41.3801 63.1229 41.3648C63.2456 41.3341 63.3069 41.3188 63.3069 41.3188L63.3299 43.3888C62.8239 43.5115 62.3102 43.6111 61.7889 43.6878C61.2676 43.7645 60.7462 43.7951 60.2249 43.7798C59.3509 43.7645 58.6149 43.6035 58.0169 43.2968C57.4189 42.9901 57.0049 42.5225 56.7749 41.8938C56.5449 41.2651 56.5296 40.4678 56.7289 39.5018L57.4649 36.1438C57.6642 35.2545 57.9786 34.4725 58.4079 33.7978C58.8526 33.1231 59.4352 32.6018 60.1559 32.2338C60.8919 31.8658 61.7889 31.6971 62.8469 31.7278C63.3376 31.7431 63.8129 31.8198 64.2729 31.9578C64.7482 32.0958 65.1929 32.2721 65.6069 32.4868L64.6409 34.4418ZM70.0405 40.0998C69.9638 40.4831 69.9408 40.8128 69.9715 41.0888C70.0175 41.3648 70.1248 41.5948 70.2935 41.7788C70.4775 41.9475 70.7305 42.0931 71.0525 42.2158L69.5805 43.9638C69.1512 43.8411 68.7755 43.6801 68.4535 43.4808C68.1468 43.2661 67.9015 43.0131 67.7175 42.7218C67.5335 42.4151 67.4185 42.0701 67.3725 41.6868C67.3265 41.3035 67.3495 40.8895 67.4415 40.4448L68.7295 34.3728H66.5905L67.0965 31.9808H74.0655L73.5595 34.3728H71.2595L70.0405 40.0998ZM80.6976 36.0058L81.5486 32.0038H84.0786L81.6406 43.5038H79.1106L80.1916 38.4208H76.7876L75.7066 43.5038H73.1536L75.5916 32.0038H78.1446L77.2936 36.0058H80.6976ZM88.3649 32.0038L86.9159 38.8348L91.7459 32.0038H94.3219L91.8839 43.5268H89.3079L90.7339 36.7418L85.9269 43.5268H83.3969L85.8349 32.0038H88.3649ZM101.78 39.8238C101.98 40.2071 102.148 40.5061 102.286 40.7208C102.44 40.9201 102.585 41.0581 102.723 41.1348C102.877 41.2115 103.045 41.2498 103.229 41.2498H103.344L102.792 43.5038H102.447C101.88 43.5038 101.397 43.3811 100.998 43.1358C100.615 42.8905 100.285 42.5685 100.009 42.1698C99.7488 41.7711 99.5035 41.3495 99.2735 40.9048L97.9855 38.3978L97.1805 39.0188L96.2375 43.5038H93.6845L96.1915 31.7278L98.6755 32.0038L97.8705 35.8218L102.217 31.9808H105.368L100.17 36.6038L101.78 39.8238ZM119.625 34.4418C119.349 34.2885 119.035 34.1735 118.682 34.0968C118.345 34.0048 118 33.9511 117.647 33.9358C117.233 33.9358 116.842 34.0048 116.474 34.1428C116.106 34.2655 115.792 34.4725 115.531 34.7638C115.271 35.0398 115.094 35.4078 115.002 35.8678L114.243 39.4788C114.167 39.8315 114.159 40.1458 114.22 40.4218C114.282 40.6825 114.397 40.8971 114.565 41.0658C114.749 41.2345 114.979 41.3648 115.255 41.4568C115.531 41.5335 115.846 41.5718 116.198 41.5718C116.444 41.5718 116.689 41.5641 116.934 41.5488C117.195 41.5181 117.425 41.4875 117.624 41.4568C117.824 41.4108 117.985 41.3801 118.107 41.3648C118.23 41.3341 118.291 41.3188 118.291 41.3188L118.314 43.3888C117.808 43.5115 117.295 43.6111 116.773 43.6878C116.252 43.7645 115.731 43.7951 115.209 43.7798C114.335 43.7645 113.599 43.6035 113.001 43.2968C112.403 42.9901 111.989 42.5225 111.759 41.8938C111.529 41.2651 111.514 40.4678 111.713 39.5018L112.449 36.1438C112.649 35.2545 112.963 34.4725 113.392 33.7978C113.837 33.1231 114.42 32.6018 115.14 32.2338C115.876 31.8658 116.773 31.6971 117.831 31.7278C118.322 31.7431 118.797 31.8198 119.257 31.9578C119.733 32.0958 120.177 32.2721 120.591 32.4868L119.625 34.4418ZM128.015 39.8238C128.214 40.2071 128.383 40.5061 128.521 40.7208C128.674 40.9201 128.82 41.0581 128.958 41.1348C129.111 41.2115 129.28 41.2498 129.464 41.2498H129.579L129.027 43.5038H128.682C128.114 43.5038 127.631 43.3811 127.233 43.1358C126.849 42.8905 126.52 42.5685 126.244 42.1698C125.983 41.7711 125.738 41.3495 125.508 40.9048L124.22 38.3978L123.415 39.0188L122.472 43.5038H119.919L122.426 31.7278L124.91 32.0038L124.105 35.8218L128.452 31.9808H131.603L126.405 36.6038L128.015 39.8238ZM139.413 37.1328C139.827 37.4395 140.103 37.8535 140.241 38.3748C140.395 38.8961 140.41 39.4635 140.287 40.0768C140.165 40.6748 139.896 41.2575 139.482 41.8248C139.068 42.3768 138.524 42.8368 137.849 43.2048C137.175 43.5728 136.377 43.7568 135.457 43.7568C135.166 43.7568 134.821 43.7491 134.422 43.7338C134.024 43.7185 133.61 43.6955 133.18 43.6648C132.751 43.6341 132.352 43.6035 131.984 43.5728C131.616 43.5575 131.317 43.5421 131.087 43.5268C130.857 43.5115 130.742 43.5038 130.742 43.5038L133.18 31.9808C133.18 31.9808 133.28 31.9731 133.479 31.9578C133.694 31.9271 133.993 31.8965 134.376 31.8658C134.775 31.8198 135.243 31.7891 135.779 31.7738C136.316 31.7431 136.914 31.7278 137.573 31.7278C138.033 31.7278 138.478 31.7815 138.907 31.8888C139.337 31.9961 139.712 32.1571 140.034 32.3718C140.372 32.5865 140.625 32.8701 140.793 33.2228C140.977 33.5601 141.054 33.9741 141.023 34.4648C140.993 34.9401 140.824 35.4308 140.517 35.9368C140.226 36.4275 139.858 36.8261 139.413 37.1328ZM137.159 33.9588C137.021 33.9588 136.876 33.9588 136.722 33.9588C136.569 33.9588 136.408 33.9665 136.239 33.9818C136.086 33.9818 135.925 33.9895 135.756 34.0048C135.603 34.0048 135.45 34.0048 135.296 34.0048L134.744 36.5578H135.917C136.469 36.5578 136.914 36.4888 137.251 36.3508C137.589 36.2128 137.842 36.0365 138.01 35.8218C138.194 35.6071 138.309 35.3925 138.355 35.1778C138.401 34.9785 138.394 34.8098 138.332 34.6718C138.271 34.5185 138.179 34.3881 138.056 34.2808C137.949 34.1735 137.811 34.0968 137.642 34.0508C137.489 33.9895 137.328 33.9588 137.159 33.9588ZM135.572 41.1578C135.925 41.1578 136.255 41.1195 136.561 41.0428C136.868 40.9661 137.129 40.8435 137.343 40.6748C137.558 40.4908 137.696 40.2531 137.757 39.9618C137.803 39.7778 137.796 39.6091 137.734 39.4558C137.688 39.3025 137.596 39.1798 137.458 39.0878C137.336 38.9805 137.175 38.9038 136.975 38.8578C136.791 38.7965 136.584 38.7658 136.354 38.7658H134.284L133.778 41.1118C133.947 41.1118 134.116 41.1195 134.284 41.1348C134.453 41.1348 134.614 41.1425 134.767 41.1578C134.921 41.1578 135.066 41.1578 135.204 41.1578C135.342 41.1578 135.465 41.1578 135.572 41.1578ZM151.977 32.3028C151.823 32.7781 151.693 33.2075 151.586 33.5908C151.494 33.9588 151.417 34.2731 151.356 34.5338L149.47 43.3888C149.47 43.3888 149.362 43.3965 149.148 43.4118C148.948 43.4271 148.672 43.4501 148.32 43.4808C147.982 43.4961 147.599 43.5115 147.17 43.5268C146.756 43.5421 146.334 43.5575 145.905 43.5728C145.491 43.5881 145.107 43.5958 144.755 43.5958C144.049 43.5958 143.474 43.4885 143.03 43.2738C142.6 43.0591 142.278 42.7678 142.064 42.3998C141.849 42.0318 141.726 41.6101 141.696 41.1348C141.68 40.6441 141.726 40.1305 141.834 39.5938L142.754 35.3388C142.892 34.6641 143.083 34.1045 143.329 33.6598C143.589 33.1998 143.881 32.8395 144.203 32.5788C144.54 32.3028 144.908 32.1111 145.307 32.0038C145.705 31.8811 146.135 31.8198 146.595 31.8198C147.07 31.8198 147.507 31.8505 147.906 31.9118C148.304 31.9731 148.634 32.0421 148.895 32.1188C149.171 32.1955 149.362 32.2568 149.47 32.3028C149.47 32.3028 149.5 32.2415 149.562 32.1188C149.638 31.9808 149.723 31.8505 149.815 31.7278L151.977 32.3028ZM144.364 39.6168C144.272 40.1228 144.256 40.5138 144.318 40.7898C144.379 41.0505 144.517 41.2345 144.732 41.3418C144.962 41.4338 145.261 41.4798 145.629 41.4798C145.767 41.4798 145.905 41.4798 146.043 41.4798C146.181 41.4798 146.319 41.4798 146.457 41.4798C146.595 41.4645 146.733 41.4491 146.871 41.4338C147.024 41.4185 147.177 41.4031 147.331 41.3878L148.757 34.6028C148.649 34.5415 148.519 34.4878 148.366 34.4418C148.212 34.3805 148.044 34.3268 147.86 34.2808C147.691 34.2348 147.522 34.2041 147.354 34.1888C147.2 34.1581 147.062 34.1428 146.94 34.1428C146.817 34.1428 146.671 34.1505 146.503 34.1658C146.349 34.1811 146.188 34.2348 146.02 34.3268C145.851 34.4035 145.698 34.5261 145.56 34.6948C145.422 34.8635 145.322 35.1011 145.261 35.4078L144.364 39.6168ZM162.284 40.9968H163.572L162.422 46.4018H160.306L160.444 43.5268H153.452L152.348 46.4018H150.232L151.382 40.9968H152.946L155.729 35.4538C155.913 35.0858 156.128 34.7025 156.373 34.3038C156.634 33.8898 156.933 33.5065 157.27 33.1538C157.623 32.8011 158.045 32.5175 158.535 32.3028C159.041 32.0881 159.639 31.9808 160.329 31.9808H164.193L162.284 40.9968ZM155.591 40.9968H159.731L161.203 34.1428H160.49C160.245 34.1428 160.015 34.1658 159.8 34.2118C159.586 34.2425 159.386 34.3115 159.202 34.4188C159.018 34.5261 158.842 34.6718 158.673 34.8558C158.505 35.0398 158.351 35.2775 158.213 35.5688L155.591 40.9968ZM175.022 32.3028C174.868 32.7781 174.738 33.2075 174.631 33.5908C174.539 33.9588 174.462 34.2731 174.401 34.5338L172.515 43.3888C172.515 43.3888 172.407 43.3965 172.193 43.4118C171.993 43.4271 171.717 43.4501 171.365 43.4808C171.027 43.4961 170.644 43.5115 170.215 43.5268C169.801 43.5421 169.379 43.5575 168.95 43.5728C168.536 43.5881 168.152 43.5958 167.8 43.5958C167.094 43.5958 166.519 43.4885 166.075 43.2738C165.645 43.0591 165.323 42.7678 165.109 42.3998C164.894 42.0318 164.771 41.6101 164.741 41.1348C164.725 40.6441 164.771 40.1305 164.879 39.5938L165.799 35.3388C165.937 34.6641 166.128 34.1045 166.374 33.6598C166.634 33.1998 166.926 32.8395 167.248 32.5788C167.585 32.3028 167.953 32.1111 168.352 32.0038C168.75 31.8811 169.18 31.8198 169.64 31.8198C170.115 31.8198 170.552 31.8505 170.951 31.9118C171.349 31.9731 171.679 32.0421 171.94 32.1188C172.216 32.1955 172.407 32.2568 172.515 32.3028C172.515 32.3028 172.545 32.2415 172.607 32.1188C172.683 31.9808 172.768 31.8505 172.86 31.7278L175.022 32.3028ZM167.409 39.6168C167.317 40.1228 167.301 40.5138 167.363 40.7898C167.424 41.0505 167.562 41.2345 167.777 41.3418C168.007 41.4338 168.306 41.4798 168.674 41.4798C168.812 41.4798 168.95 41.4798 169.088 41.4798C169.226 41.4798 169.364 41.4798 169.502 41.4798C169.64 41.4645 169.778 41.4491 169.916 41.4338C170.069 41.4185 170.222 41.4031 170.376 41.3878L171.802 34.6028C171.694 34.5415 171.564 34.4878 171.411 34.4418C171.257 34.3805 171.089 34.3268 170.905 34.2808C170.736 34.2348 170.567 34.2041 170.399 34.1888C170.245 34.1581 170.107 34.1428 169.985 34.1428C169.862 34.1428 169.716 34.1505 169.548 34.1658C169.394 34.1811 169.233 34.2348 169.065 34.3268C168.896 34.4035 168.743 34.5261 168.605 34.6948C168.467 34.8635 168.367 35.1011 168.306 35.4078L167.409 39.6168ZM190.487 37.3398L192.649 40.0768L190.648 41.6638L187.267 37.3398L192.488 33.0158L193.822 34.6718L190.487 37.3398ZM185.404 37.3398L187.566 40.0768L185.588 41.6638L182.184 37.3398L187.428 33.0158L188.739 34.6718L185.404 37.3398ZM202.686 32.8088L207.125 27.4038H210.552L203.836 35.6148L207.079 43.5038H203.928L201.72 38.1448L197.327 43.5038H193.9L200.57 35.4078L197.304 27.4038H200.478L202.686 32.8088ZM219.681 43.5038H216.645L216.622 39.2718H212.919L211.102 43.5038H208.227L215.564 27.4038H219.129L219.681 43.5038ZM214.115 36.5808H216.622L216.599 30.6928L214.115 36.5808ZM224.578 34.0278H226.165C226.655 34.0278 227.123 33.9358 227.568 33.7518C228.012 33.5525 228.388 33.2688 228.695 32.9008C229.017 32.5328 229.231 32.0958 229.339 31.5898C229.415 31.2831 229.431 31.0071 229.385 30.7618C229.354 30.5165 229.262 30.3095 229.109 30.1408C228.955 29.9568 228.748 29.8188 228.488 29.7268C228.242 29.6348 227.936 29.5888 227.568 29.5888C227.338 29.5888 227.085 29.6041 226.809 29.6348C226.548 29.6655 226.287 29.7115 226.027 29.7728C225.766 29.8341 225.528 29.9108 225.314 30.0028L225.061 27.9788C225.475 27.7948 225.873 27.6415 226.257 27.5188C226.655 27.3961 227.039 27.3118 227.407 27.2658C227.79 27.2045 228.166 27.1738 228.534 27.1738C229.377 27.1738 230.09 27.3501 230.673 27.7028C231.271 28.0401 231.692 28.5231 231.938 29.1518C232.198 29.7651 232.244 30.4781 232.076 31.2908C231.968 31.7815 231.792 32.2491 231.547 32.6938C231.317 33.1231 231.01 33.5065 230.627 33.8438C230.259 34.1658 229.806 34.4265 229.27 34.6258C230.067 34.9631 230.634 35.4768 230.972 36.1668C231.324 36.8415 231.393 37.6771 231.179 38.6738C231.041 39.3178 230.795 39.9465 230.443 40.5598C230.105 41.1578 229.653 41.7021 229.086 42.1928C228.518 42.6681 227.828 43.0515 227.016 43.3428C226.203 43.6341 225.26 43.7798 224.187 43.7798C223.727 43.7798 223.282 43.7415 222.853 43.6648C222.423 43.5881 222.04 43.5038 221.703 43.4118C221.381 43.3045 221.12 43.2125 220.921 43.1358C220.737 43.0591 220.645 43.0208 220.645 43.0208L221.542 40.6058C221.542 40.6058 221.626 40.6441 221.795 40.7208C221.979 40.7975 222.216 40.8895 222.508 40.9968C222.814 41.0888 223.152 41.1731 223.52 41.2498C223.888 41.3265 224.263 41.3648 224.647 41.3648C225.337 41.3648 225.935 41.2575 226.441 41.0428C226.947 40.8281 227.361 40.5291 227.683 40.1458C228.005 39.7471 228.212 39.3025 228.304 38.8118C228.38 38.4591 228.403 38.1371 228.373 37.8458C228.357 37.5545 228.281 37.3091 228.143 37.1098C228.005 36.8951 227.813 36.7341 227.568 36.6268C227.322 36.5041 227.016 36.4428 226.648 36.4428H224.762L224.578 34.0278ZM240.308 27.4038H245.322L241.895 43.5038H239.342L240.308 38.9958H237.847C237.755 38.9958 237.663 38.9958 237.571 38.9958C237.479 38.9958 237.387 38.9958 237.295 38.9958C237.203 38.9958 237.111 38.9881 237.019 38.9728L234.466 43.5038H231.752L234.88 38.1448C234.574 37.8841 234.321 37.5315 234.121 37.0868C233.937 36.6421 233.83 36.0901 233.799 35.4308C233.784 34.7715 233.868 33.9895 234.052 33.0848C234.298 31.9501 234.643 31.0148 235.087 30.2788C235.547 29.5275 236.061 28.9448 236.628 28.5308C237.211 28.1168 237.817 27.8255 238.445 27.6568C239.089 27.4881 239.71 27.4038 240.308 27.4038ZM239.296 36.5808H240.814L242.217 29.9338H240.699C240.101 29.9338 239.58 29.9645 239.135 30.0258C238.706 30.0871 238.33 30.2251 238.008 30.4398C237.686 30.6391 237.41 30.9535 237.18 31.3828C236.966 31.7968 236.782 32.3641 236.628 33.0848C236.475 33.8668 236.414 34.4878 236.444 34.9478C236.475 35.4078 236.598 35.7605 236.812 36.0058C237.042 36.2358 237.364 36.3891 237.778 36.4658C238.192 36.5425 238.698 36.5808 239.296 36.5808ZM243.544 43.5038L246.971 27.4038H254.676L254.147 29.9338H248.972L248.121 33.9818H251.272L250.237 36.3968H247.592L246.58 41.1808H251.709L251.203 43.5038H243.544ZM260.659 27.4038C261.671 27.4038 262.507 27.5801 263.166 27.9328C263.826 28.2855 264.286 28.7838 264.546 29.4278C264.822 30.0718 264.868 30.8231 264.684 31.6818C264.592 32.1418 264.447 32.5558 264.247 32.9238C264.048 33.2918 263.803 33.6215 263.511 33.9128C263.22 34.2041 262.883 34.4725 262.499 34.7178C262.837 34.8865 263.143 35.1548 263.419 35.5228C263.711 35.8908 263.918 36.3508 264.04 36.9028C264.163 37.4395 264.148 38.0605 263.994 38.7658C263.795 39.7165 263.427 40.5521 262.89 41.2728C262.369 41.9781 261.702 42.5301 260.889 42.9288C260.077 43.3121 259.134 43.5038 258.06 43.5038H253L256.427 27.4038H260.659ZM258.681 33.9818C259.279 33.9818 259.778 33.9205 260.176 33.7978C260.59 33.6598 260.92 33.4375 261.165 33.1308C261.411 32.8088 261.587 32.3795 261.694 31.8428C261.802 31.3675 261.794 30.9918 261.671 30.7158C261.564 30.4398 261.349 30.2405 261.027 30.1178C260.705 29.9951 260.284 29.9338 259.762 29.9338H258.428L257.577 33.9818H258.681ZM257.876 41.1578C258.26 41.1578 258.674 41.0965 259.118 40.9738C259.563 40.8358 259.969 40.5905 260.337 40.2378C260.705 39.8851 260.958 39.3791 261.096 38.7198C261.204 38.1985 261.188 37.7691 261.05 37.4318C260.912 37.0945 260.644 36.8415 260.245 36.6728C259.862 36.5041 259.341 36.4198 258.681 36.4198H257.048L256.036 41.1578H257.876ZM275.721 43.5038H272.685L272.662 39.2718H268.959L267.142 43.5038H264.267L271.604 27.4038H275.169L275.721 43.5038ZM270.155 36.5808H272.662L272.639 30.6928L270.155 36.5808ZM281.055 37.3398L278.87 34.6718L280.871 33.0158L284.275 37.3398L279.054 41.6638L277.743 40.0768L281.055 37.3398ZM286.138 37.3398L283.953 34.6718L285.954 33.0158L289.358 37.3398L284.114 41.6638L282.826 40.0768L286.138 37.3398Z" fill="white"/>
</g>
<defs>
<clipPath id="clip0_395_766">
<rect width="314" height="49" fill="white"/>
</clipPath>
</defs>
</svg>
