<svg width="366" height="53" viewBox="0 0 366 53" fill="none" xmlns="http://www.w3.org/2000/svg">
<g clip-path="url(#clip0_395_808)">
<path d="M5.0498 13.8C4.96647 14.2167 4.94147 14.575 4.9748 14.875C5.0248 15.175 5.14147 15.425 5.3248 15.625C5.5248 15.8083 5.7998 15.9667 6.1498 16.1L4.5498 18C4.08313 17.8667 3.6748 17.6917 3.3248 17.475C2.99147 17.2417 2.7248 16.9667 2.5248 16.65C2.3248 16.3167 2.1998 15.9417 2.1498 15.525C2.0998 15.1083 2.1248 14.6583 2.2248 14.175L3.6248 7.575H1.2998L1.8498 4.975H9.4248L8.8748 7.575H6.3748L5.0498 13.8ZM9.58359 22.725L12.4336 17.5L10.5586 4.975H13.2086L14.5086 13.775L19.2586 4.975H21.9086L12.2836 22.725H9.58359ZM26.4853 13.8C26.402 14.2167 26.377 14.575 26.4103 14.875C26.4603 15.175 26.577 15.425 26.7603 15.625C26.9603 15.8083 27.2353 15.9667 27.5853 16.1L25.9853 18C25.5187 17.8667 25.1103 17.6917 24.7603 17.475C24.427 17.2417 24.1603 16.9667 23.9603 16.65C23.7603 16.3167 23.6353 15.9417 23.5853 15.525C23.5353 15.1083 23.5603 14.6583 23.6603 14.175L25.0603 7.575H22.7353L23.2853 4.975H30.8603L30.3103 7.575H27.8103L26.4853 13.8ZM44.326 4.8C45.2593 4.8 46.001 4.975 46.551 5.325C47.101 5.675 47.4593 6.2 47.626 6.9C47.8093 7.6 47.7926 8.46667 47.576 9.5L46.851 12.875C46.5343 14.3917 45.8843 15.5917 44.901 16.475C43.9176 17.3417 42.7093 17.775 41.276 17.775C40.3426 17.775 39.5593 17.5917 38.926 17.225C38.3093 16.8417 37.876 16.2917 37.626 15.575C37.3926 14.8417 37.3843 13.9417 37.601 12.875L39.176 5.5C39.3093 4.88333 39.5426 4.25833 39.876 3.625C40.226 2.99167 40.6843 2.41667 41.251 1.9C41.7676 1.41667 42.3843 1.00833 43.101 0.675C43.8176 0.341667 44.6343 0.116667 45.551 0L45.851 1.725C45.2843 1.84167 44.7676 2.00833 44.301 2.225C43.851 2.44167 43.4426 2.73333 43.076 3.1C42.8093 3.38333 42.5843 3.70833 42.401 4.075C42.2176 4.44167 42.0676 4.89167 41.951 5.425L41.901 5.65C42.1176 5.51667 42.3593 5.38333 42.626 5.25C42.9093 5.11667 43.1926 5.00833 43.476 4.925C43.776 4.84167 44.0593 4.8 44.326 4.8ZM43.426 7.3C43.226 7.3 43.0093 7.33333 42.776 7.4C42.5426 7.45 42.3176 7.54167 42.101 7.675C41.8843 7.79167 41.6926 7.95833 41.526 8.175C41.376 8.375 41.2676 8.61667 41.201 8.9L40.326 13.025C40.2426 13.4417 40.226 13.8 40.276 14.1C40.326 14.3833 40.4676 14.6083 40.701 14.775C40.9343 14.925 41.2843 15 41.751 15C42.151 15 42.5093 14.9167 42.826 14.75C43.1426 14.5833 43.401 14.3583 43.601 14.075C43.8176 13.775 43.9676 13.425 44.051 13.025L44.876 9.125C44.9593 8.74167 44.9593 8.41667 44.876 8.15C44.7926 7.86667 44.626 7.65833 44.376 7.525C44.1426 7.375 43.826 7.3 43.426 7.3ZM48.6949 22.725L51.5449 17.5L49.6699 4.975H52.3199L53.6199 13.775L58.3699 4.975H61.0199L51.3949 22.725H48.6949ZM71.6967 14.775H73.0967L71.8467 20.65H69.5467L69.6967 17.525H62.0967L60.8967 20.65H58.5967L59.8467 14.775H61.5467L64.5717 8.75C64.7717 8.35 65.005 7.93333 65.2717 7.5C65.555 7.05 65.88 6.63333 66.2467 6.25C66.63 5.86667 67.0883 5.55833 67.6217 5.325C68.1717 5.09167 68.8217 4.975 69.5717 4.975H73.7717L71.6967 14.775ZM64.4217 14.775H68.9217L70.5217 7.325H69.7467C69.48 7.325 69.23 7.35 68.9967 7.4C68.7633 7.43333 68.5467 7.50833 68.3467 7.625C68.1467 7.74167 67.955 7.9 67.7717 8.1C67.5883 8.3 67.4217 8.55833 67.2717 8.875L64.4217 14.775ZM77.1918 13.775C77.1418 13.9917 77.1335 14.1917 77.1668 14.375C77.2001 14.5417 77.2585 14.6917 77.3418 14.825C77.4418 14.9583 77.5751 15.0583 77.7418 15.125C77.9085 15.1917 78.1001 15.225 78.3168 15.225C78.7668 15.225 79.3001 15.125 79.9168 14.925C80.5335 14.725 81.1335 14.4917 81.7168 14.225L82.2168 16.625C81.5501 16.9917 80.8168 17.2833 80.0168 17.5C79.2168 17.7167 78.4418 17.825 77.6918 17.825C77.1085 17.825 76.5751 17.75 76.0918 17.6C75.6251 17.45 75.2335 17.225 74.9168 16.925C74.6168 16.625 74.4085 16.2417 74.2918 15.775C74.1918 15.3083 74.2085 14.7583 74.3418 14.125L75.4418 9C75.6418 8.08333 75.9918 7.30833 76.4918 6.675C77.0085 6.04167 77.6335 5.55833 78.3668 5.225C79.1168 4.89167 79.9418 4.725 80.8418 4.725C81.7418 4.725 82.4918 4.88333 83.0918 5.2C83.7085 5.51667 84.1418 5.98333 84.3918 6.6C84.6418 7.21667 84.6668 7.99167 84.4668 8.925L83.6418 12.825L77.3418 13.15L77.1918 13.775ZM81.5418 9.675C81.6085 9.325 81.6418 8.96667 81.6418 8.6C81.6418 8.23333 81.5501 7.93333 81.3668 7.7C81.2001 7.45 80.8668 7.34167 80.3668 7.375C79.8501 7.39167 79.4418 7.5 79.1418 7.7C78.8585 7.88333 78.6335 8.14167 78.4668 8.475C78.3168 8.79167 78.1835 9.18333 78.0668 9.65L77.8668 10.625L81.3668 10.4L81.5418 9.675ZM89.9863 13.8C89.903 14.2167 89.878 14.575 89.9113 14.875C89.9613 15.175 90.078 15.425 90.2613 15.625C90.4613 15.8083 90.7363 15.9667 91.0863 16.1L89.4863 18C89.0197 17.8667 88.6113 17.6917 88.2613 17.475C87.928 17.2417 87.6613 16.9667 87.4613 16.65C87.2613 16.3167 87.1363 15.9417 87.0863 15.525C87.0363 15.1083 87.0613 14.6583 87.1613 14.175L88.5613 7.575H86.2363L86.7863 4.975H94.3613L93.8113 7.575H91.3113L89.9863 13.8ZM108.577 9.35L109.502 5H112.252L109.602 17.5H106.852L108.027 11.975H104.327L103.152 17.5H100.377L103.027 5H105.802L104.877 9.35H108.577ZM114.936 13.775C114.886 13.9917 114.878 14.1917 114.911 14.375C114.944 14.5417 115.003 14.6917 115.086 14.825C115.186 14.9583 115.319 15.0583 115.486 15.125C115.653 15.1917 115.844 15.225 116.061 15.225C116.511 15.225 117.044 15.125 117.661 14.925C118.278 14.725 118.878 14.4917 119.461 14.225L119.961 16.625C119.294 16.9917 118.561 17.2833 117.761 17.5C116.961 17.7167 116.186 17.825 115.436 17.825C114.853 17.825 114.319 17.75 113.836 17.6C113.369 17.45 112.978 17.225 112.661 16.925C112.361 16.625 112.153 16.2417 112.036 15.775C111.936 15.3083 111.953 14.7583 112.086 14.125L113.186 9C113.386 8.08333 113.736 7.30833 114.236 6.675C114.753 6.04167 115.378 5.55833 116.111 5.225C116.861 4.89167 117.686 4.725 118.586 4.725C119.486 4.725 120.236 4.88333 120.836 5.2C121.453 5.51667 121.886 5.98333 122.136 6.6C122.386 7.21667 122.411 7.99167 122.211 8.925L121.386 12.825L115.086 13.15L114.936 13.775ZM119.286 9.675C119.353 9.325 119.386 8.96667 119.386 8.6C119.386 8.23333 119.294 7.93333 119.111 7.7C118.944 7.45 118.611 7.34167 118.111 7.375C117.594 7.39167 117.186 7.5 116.886 7.7C116.603 7.88333 116.378 8.14167 116.211 8.475C116.061 8.79167 115.928 9.18333 115.811 9.65L115.611 10.625L119.111 10.4L119.286 9.675ZM134.531 5H137.581L134.931 17.525H132.181L133.581 10.9L129.581 17.525H127.506L126.256 10.9L124.856 17.525H122.081L124.731 5H127.831L129.306 13.8L134.531 5ZM145.027 9.35L145.952 5H148.702L146.052 17.5H143.302L144.477 11.975H140.777L139.602 17.5H136.827L139.477 5H142.252L141.327 9.35H145.027ZM157.986 12.875C157.686 14.3417 157.061 15.525 156.111 16.425C155.178 17.3083 153.945 17.75 152.411 17.75C151.311 17.75 150.461 17.525 149.861 17.075C149.278 16.6083 148.903 16.0083 148.736 15.275C148.57 14.525 148.57 13.725 148.736 12.875L149.461 9.575C149.695 8.50833 150.061 7.61667 150.561 6.9C151.078 6.18333 151.72 5.64167 152.486 5.275C153.27 4.89167 154.17 4.7 155.186 4.7C156.636 4.7 157.67 5.13333 158.286 6C158.903 6.85 159.045 8.04167 158.711 9.575L157.986 12.875ZM155.911 9.425C155.995 9.025 156.003 8.68333 155.936 8.4C155.87 8.1 155.72 7.875 155.486 7.725C155.27 7.55833 154.961 7.475 154.561 7.475C154.161 7.475 153.803 7.55 153.486 7.7C153.186 7.85 152.928 8.06667 152.711 8.35C152.511 8.63333 152.361 8.99167 152.261 9.425L151.486 13.075C151.42 13.4083 151.42 13.725 151.486 14.025C151.553 14.325 151.703 14.5667 151.936 14.75C152.17 14.9333 152.511 15.025 152.961 15.025C153.378 15.025 153.728 14.9417 154.011 14.775C154.311 14.6083 154.553 14.375 154.736 14.075C154.92 13.775 155.053 13.4417 155.136 13.075L155.911 9.425ZM168.802 12.875C168.502 14.3417 167.877 15.525 166.927 16.425C165.993 17.3083 164.76 17.75 163.227 17.75C162.127 17.75 161.277 17.525 160.677 17.075C160.093 16.6083 159.718 16.0083 159.552 15.275C159.385 14.525 159.385 13.725 159.552 12.875L160.277 9.575C160.51 8.50833 160.877 7.61667 161.377 6.9C161.893 6.18333 162.535 5.64167 163.302 5.275C164.085 4.89167 164.985 4.7 166.002 4.7C167.452 4.7 168.485 5.13333 169.102 6C169.718 6.85 169.86 8.04167 169.527 9.575L168.802 12.875ZM166.727 9.425C166.81 9.025 166.818 8.68333 166.752 8.4C166.685 8.1 166.535 7.875 166.302 7.725C166.085 7.55833 165.777 7.475 165.377 7.475C164.977 7.475 164.618 7.55 164.302 7.7C164.002 7.85 163.743 8.06667 163.527 8.35C163.327 8.63333 163.177 8.99167 163.077 9.425L162.302 13.075C162.235 13.4083 162.235 13.725 162.302 14.025C162.368 14.325 162.518 14.5667 162.752 14.75C162.985 14.9333 163.327 15.025 163.777 15.025C164.193 15.025 164.543 14.9417 164.827 14.775C165.127 14.6083 165.368 14.375 165.552 14.075C165.735 13.775 165.868 13.4417 165.952 13.075L166.727 9.425ZM179.617 12.875C179.317 14.3417 178.692 15.525 177.742 16.425C176.809 17.3083 175.576 17.75 174.042 17.75C172.942 17.75 172.092 17.525 171.492 17.075C170.909 16.6083 170.534 16.0083 170.367 15.275C170.201 14.525 170.201 13.725 170.367 12.875L171.092 9.575C171.326 8.50833 171.692 7.61667 172.192 6.9C172.709 6.18333 173.351 5.64167 174.117 5.275C174.901 4.89167 175.801 4.7 176.817 4.7C178.267 4.7 179.301 5.13333 179.917 6C180.534 6.85 180.676 8.04167 180.342 9.575L179.617 12.875ZM177.542 9.425C177.626 9.025 177.634 8.68333 177.567 8.4C177.501 8.1 177.351 7.875 177.117 7.725C176.901 7.55833 176.592 7.475 176.192 7.475C175.792 7.475 175.434 7.55 175.117 7.7C174.817 7.85 174.559 8.06667 174.342 8.35C174.142 8.63333 173.992 8.99167 173.892 9.425L173.117 13.075C173.051 13.4083 173.051 13.725 173.117 14.025C173.184 14.325 173.334 14.5667 173.567 14.75C173.801 14.9333 174.142 15.025 174.592 15.025C175.009 15.025 175.359 14.9417 175.642 14.775C175.942 14.6083 176.184 14.375 176.367 14.075C176.551 13.775 176.684 13.4417 176.767 13.075L177.542 9.425ZM190.433 12.875C190.133 14.3417 189.508 15.525 188.558 16.425C187.624 17.3083 186.391 17.75 184.858 17.75C183.758 17.75 182.908 17.525 182.308 17.075C181.724 16.6083 181.349 16.0083 181.183 15.275C181.016 14.525 181.016 13.725 181.183 12.875L181.908 9.575C182.141 8.50833 182.508 7.61667 183.008 6.9C183.524 6.18333 184.166 5.64167 184.933 5.275C185.716 4.89167 186.616 4.7 187.633 4.7C189.083 4.7 190.116 5.13333 190.733 6C191.349 6.85 191.491 8.04167 191.158 9.575L190.433 12.875ZM188.358 9.425C188.441 9.025 188.449 8.68333 188.383 8.4C188.316 8.1 188.166 7.875 187.933 7.725C187.716 7.55833 187.408 7.475 187.008 7.475C186.608 7.475 186.249 7.55 185.933 7.7C185.633 7.85 185.374 8.06667 185.158 8.35C184.958 8.63333 184.808 8.99167 184.708 9.425L183.933 13.075C183.866 13.4083 183.866 13.725 183.933 14.025C183.999 14.325 184.149 14.5667 184.383 14.75C184.616 14.9333 184.958 15.025 185.408 15.025C185.824 15.025 186.174 14.9417 186.458 14.775C186.758 14.6083 186.999 14.375 187.183 14.075C187.366 13.775 187.499 13.4417 187.583 13.075L188.358 9.425ZM201.248 12.875C200.948 14.3417 200.323 15.525 199.373 16.425C198.44 17.3083 197.206 17.75 195.673 17.75C194.573 17.75 193.723 17.525 193.123 17.075C192.54 16.6083 192.165 16.0083 191.998 15.275C191.831 14.525 191.831 13.725 191.998 12.875L192.723 9.575C192.956 8.50833 193.323 7.61667 193.823 6.9C194.34 6.18333 194.981 5.64167 195.748 5.275C196.531 4.89167 197.431 4.7 198.448 4.7C199.898 4.7 200.931 5.13333 201.548 6C202.165 6.85 202.306 8.04167 201.973 9.575L201.248 12.875ZM199.173 9.425C199.256 9.025 199.265 8.68333 199.198 8.4C199.131 8.1 198.981 7.875 198.748 7.725C198.531 7.55833 198.223 7.475 197.823 7.475C197.423 7.475 197.065 7.55 196.748 7.7C196.448 7.85 196.19 8.06667 195.973 8.35C195.773 8.63333 195.623 8.99167 195.523 9.425L194.748 13.075C194.681 13.4083 194.681 13.725 194.748 14.025C194.815 14.325 194.965 14.5667 195.198 14.75C195.431 14.9333 195.773 15.025 196.223 15.025C196.64 15.025 196.99 14.9417 197.273 14.775C197.573 14.6083 197.815 14.375 197.998 14.075C198.181 13.775 198.315 13.4417 198.398 13.075L199.173 9.425ZM212.063 12.875C211.763 14.3417 211.138 15.525 210.188 16.425C209.255 17.3083 208.022 17.75 206.488 17.75C205.388 17.75 204.538 17.525 203.938 17.075C203.355 16.6083 202.98 16.0083 202.813 15.275C202.647 14.525 202.647 13.725 202.813 12.875L203.538 9.575C203.772 8.50833 204.138 7.61667 204.638 6.9C205.155 6.18333 205.797 5.64167 206.563 5.275C207.347 4.89167 208.247 4.7 209.263 4.7C210.713 4.7 211.747 5.13333 212.363 6C212.98 6.85 213.122 8.04167 212.788 9.575L212.063 12.875ZM209.988 9.425C210.072 9.025 210.08 8.68333 210.013 8.4C209.947 8.1 209.797 7.875 209.563 7.725C209.347 7.55833 209.038 7.475 208.638 7.475C208.238 7.475 207.88 7.55 207.563 7.7C207.263 7.85 207.005 8.06667 206.788 8.35C206.588 8.63333 206.438 8.99167 206.338 9.425L205.563 13.075C205.497 13.4083 205.497 13.725 205.563 14.025C205.63 14.325 205.78 14.5667 206.013 14.75C206.247 14.9333 206.588 15.025 207.038 15.025C207.455 15.025 207.805 14.9417 208.088 14.775C208.388 14.6083 208.63 14.375 208.813 14.075C208.997 13.775 209.13 13.4417 209.213 13.075L209.988 9.425ZM222.879 12.875C222.579 14.3417 221.954 15.525 221.004 16.425C220.071 17.3083 218.837 17.75 217.304 17.75C216.204 17.75 215.354 17.525 214.754 17.075C214.171 16.6083 213.796 16.0083 213.629 15.275C213.462 14.525 213.462 13.725 213.629 12.875L214.354 9.575C214.587 8.50833 214.954 7.61667 215.454 6.9C215.971 6.18333 216.612 5.64167 217.379 5.275C218.162 4.89167 219.062 4.7 220.079 4.7C221.529 4.7 222.562 5.13333 223.179 6C223.796 6.85 223.937 8.04167 223.604 9.575L222.879 12.875ZM220.804 9.425C220.887 9.025 220.896 8.68333 220.829 8.4C220.762 8.1 220.612 7.875 220.379 7.725C220.162 7.55833 219.854 7.475 219.454 7.475C219.054 7.475 218.696 7.55 218.379 7.7C218.079 7.85 217.821 8.06667 217.604 8.35C217.404 8.63333 217.254 8.99167 217.154 9.425L216.379 13.075C216.312 13.4083 216.312 13.725 216.379 14.025C216.446 14.325 216.596 14.5667 216.829 14.75C217.062 14.9333 217.404 15.025 217.854 15.025C218.271 15.025 218.621 14.9417 218.904 14.775C219.204 14.6083 219.446 14.375 219.629 14.075C219.812 13.775 219.946 13.4417 220.029 13.075L220.804 9.425ZM233.694 12.875C233.394 14.3417 232.769 15.525 231.819 16.425C230.886 17.3083 229.653 17.75 228.119 17.75C227.019 17.75 226.169 17.525 225.569 17.075C224.986 16.6083 224.611 16.0083 224.444 15.275C224.278 14.525 224.278 13.725 224.444 12.875L225.169 9.575C225.403 8.50833 225.769 7.61667 226.269 6.9C226.786 6.18333 227.428 5.64167 228.194 5.275C228.978 4.89167 229.878 4.7 230.894 4.7C232.344 4.7 233.378 5.13333 233.994 6C234.611 6.85 234.753 8.04167 234.419 9.575L233.694 12.875ZM231.619 9.425C231.703 9.025 231.711 8.68333 231.644 8.4C231.578 8.1 231.428 7.875 231.194 7.725C230.978 7.55833 230.669 7.475 230.269 7.475C229.869 7.475 229.511 7.55 229.194 7.7C228.894 7.85 228.636 8.06667 228.419 8.35C228.219 8.63333 228.069 8.99167 227.969 9.425L227.194 13.075C227.128 13.4083 227.128 13.725 227.194 14.025C227.261 14.325 227.411 14.5667 227.644 14.75C227.878 14.9333 228.219 15.025 228.669 15.025C229.086 15.025 229.436 14.9417 229.719 14.775C230.019 14.6083 230.261 14.375 230.444 14.075C230.628 13.775 230.761 13.4417 230.844 13.075L231.619 9.425ZM244.51 12.875C244.21 14.3417 243.585 15.525 242.635 16.425C241.701 17.3083 240.468 17.75 238.935 17.75C237.835 17.75 236.985 17.525 236.385 17.075C235.801 16.6083 235.426 16.0083 235.26 15.275C235.093 14.525 235.093 13.725 235.26 12.875L235.985 9.575C236.218 8.50833 236.585 7.61667 237.085 6.9C237.601 6.18333 238.243 5.64167 239.01 5.275C239.793 4.89167 240.693 4.7 241.71 4.7C243.16 4.7 244.193 5.13333 244.81 6C245.426 6.85 245.568 8.04167 245.235 9.575L244.51 12.875ZM242.435 9.425C242.518 9.025 242.526 8.68333 242.46 8.4C242.393 8.1 242.243 7.875 242.01 7.725C241.793 7.55833 241.485 7.475 241.085 7.475C240.685 7.475 240.326 7.55 240.01 7.7C239.71 7.85 239.451 8.06667 239.235 8.35C239.035 8.63333 238.885 8.99167 238.785 9.425L238.01 13.075C237.943 13.4083 237.943 13.725 238.01 14.025C238.076 14.325 238.226 14.5667 238.46 14.75C238.693 14.9333 239.035 15.025 239.485 15.025C239.901 15.025 240.251 14.9417 240.535 14.775C240.835 14.6083 241.076 14.375 241.26 14.075C241.443 13.775 241.576 13.4417 241.66 13.075L242.435 9.425ZM255.325 12.875C255.025 14.3417 254.4 15.525 253.45 16.425C252.517 17.3083 251.284 17.75 249.75 17.75C248.65 17.75 247.8 17.525 247.2 17.075C246.617 16.6083 246.242 16.0083 246.075 15.275C245.909 14.525 245.909 13.725 246.075 12.875L246.8 9.575C247.034 8.50833 247.4 7.61667 247.9 6.9C248.417 6.18333 249.059 5.64167 249.825 5.275C250.609 4.89167 251.509 4.7 252.525 4.7C253.975 4.7 255.009 5.13333 255.625 6C256.242 6.85 256.384 8.04167 256.05 9.575L255.325 12.875ZM253.25 9.425C253.334 9.025 253.342 8.68333 253.275 8.4C253.209 8.1 253.059 7.875 252.825 7.725C252.609 7.55833 252.3 7.475 251.9 7.475C251.5 7.475 251.142 7.55 250.825 7.7C250.525 7.85 250.267 8.06667 250.05 8.35C249.85 8.63333 249.7 8.99167 249.6 9.425L248.825 13.075C248.759 13.4083 248.759 13.725 248.825 14.025C248.892 14.325 249.042 14.5667 249.275 14.75C249.509 14.9333 249.85 15.025 250.3 15.025C250.717 15.025 251.067 14.9417 251.35 14.775C251.65 14.6083 251.892 14.375 252.075 14.075C252.259 13.775 252.392 13.4417 252.475 13.075L253.25 9.425ZM266.141 12.875C265.841 14.3417 265.216 15.525 264.266 16.425C263.332 17.3083 262.099 17.75 260.566 17.75C259.466 17.75 258.616 17.525 258.016 17.075C257.432 16.6083 257.057 16.0083 256.891 15.275C256.724 14.525 256.724 13.725 256.891 12.875L257.616 9.575C257.849 8.50833 258.216 7.61667 258.716 6.9C259.232 6.18333 259.874 5.64167 260.641 5.275C261.424 4.89167 262.324 4.7 263.341 4.7C264.791 4.7 265.824 5.13333 266.441 6C267.057 6.85 267.199 8.04167 266.866 9.575L266.141 12.875ZM264.066 9.425C264.149 9.025 264.157 8.68333 264.091 8.4C264.024 8.1 263.874 7.875 263.641 7.725C263.424 7.55833 263.116 7.475 262.716 7.475C262.316 7.475 261.957 7.55 261.641 7.7C261.341 7.85 261.082 8.06667 260.866 8.35C260.666 8.63333 260.516 8.99167 260.416 9.425L259.641 13.075C259.574 13.4083 259.574 13.725 259.641 14.025C259.707 14.325 259.857 14.5667 260.091 14.75C260.324 14.9333 260.666 15.025 261.116 15.025C261.532 15.025 261.882 14.9417 262.166 14.775C262.466 14.6083 262.707 14.375 262.891 14.075C263.074 13.775 263.207 13.4417 263.291 13.075L264.066 9.425ZM276.956 12.875C276.656 14.3417 276.031 15.525 275.081 16.425C274.148 17.3083 272.914 17.75 271.381 17.75C270.281 17.75 269.431 17.525 268.831 17.075C268.248 16.6083 267.873 16.0083 267.706 15.275C267.539 14.525 267.539 13.725 267.706 12.875L268.431 9.575C268.664 8.50833 269.031 7.61667 269.531 6.9C270.048 6.18333 270.689 5.64167 271.456 5.275C272.239 4.89167 273.139 4.7 274.156 4.7C275.606 4.7 276.639 5.13333 277.256 6C277.873 6.85 278.014 8.04167 277.681 9.575L276.956 12.875ZM274.881 9.425C274.964 9.025 274.973 8.68333 274.906 8.4C274.839 8.1 274.689 7.875 274.456 7.725C274.239 7.55833 273.931 7.475 273.531 7.475C273.131 7.475 272.773 7.55 272.456 7.7C272.156 7.85 271.898 8.06667 271.681 8.35C271.481 8.63333 271.331 8.99167 271.231 9.425L270.456 13.075C270.389 13.4083 270.389 13.725 270.456 14.025C270.523 14.325 270.673 14.5667 270.906 14.75C271.139 14.9333 271.481 15.025 271.931 15.025C272.348 15.025 272.698 14.9417 272.981 14.775C273.281 14.6083 273.523 14.375 273.706 14.075C273.889 13.775 274.023 13.4417 274.106 13.075L274.881 9.425ZM280.246 5H287.121L286.546 7.75H282.471L280.396 17.5H277.596L280.246 5ZM295.706 12.875C295.406 14.3417 294.781 15.525 293.831 16.425C292.898 17.3083 291.664 17.75 290.131 17.75C289.031 17.75 288.181 17.525 287.581 17.075C286.998 16.6083 286.623 16.0083 286.456 15.275C286.289 14.525 286.289 13.725 286.456 12.875L287.181 9.575C287.414 8.50833 287.781 7.61667 288.281 6.9C288.798 6.18333 289.439 5.64167 290.206 5.275C290.989 4.89167 291.889 4.7 292.906 4.7C294.356 4.7 295.389 5.13333 296.006 6C296.623 6.85 296.764 8.04167 296.431 9.575L295.706 12.875ZM293.631 9.425C293.714 9.025 293.723 8.68333 293.656 8.4C293.589 8.1 293.439 7.875 293.206 7.725C292.989 7.55833 292.681 7.475 292.281 7.475C291.881 7.475 291.523 7.55 291.206 7.7C290.906 7.85 290.648 8.06667 290.431 8.35C290.231 8.63333 290.081 8.99167 289.981 9.425L289.206 13.075C289.139 13.4083 289.139 13.725 289.206 14.025C289.273 14.325 289.423 14.5667 289.656 14.75C289.889 14.9333 290.231 15.025 290.681 15.025C291.098 15.025 291.448 14.9417 291.731 14.775C292.031 14.6083 292.273 14.375 292.456 14.075C292.639 13.775 292.773 13.4417 292.856 13.075L293.631 9.425ZM309.078 13.8C308.995 14.2167 308.97 14.575 309.003 14.875C309.053 15.175 309.17 15.425 309.353 15.625C309.553 15.8083 309.828 15.9667 310.178 16.1L308.578 18C308.112 17.8667 307.703 17.6917 307.353 17.475C307.02 17.2417 306.753 16.9667 306.553 16.65C306.353 16.3167 306.228 15.9417 306.178 15.525C306.128 15.1083 306.153 14.6583 306.253 14.175L307.653 7.575H305.328L305.878 4.975H313.453L312.903 7.575H310.403L309.078 13.8ZM315.937 13.775C315.887 13.9917 315.879 14.1917 315.912 14.375C315.945 14.5417 316.004 14.6917 316.087 14.825C316.187 14.9583 316.32 15.0583 316.487 15.125C316.654 15.1917 316.845 15.225 317.062 15.225C317.512 15.225 318.045 15.125 318.662 14.925C319.279 14.725 319.879 14.4917 320.462 14.225L320.962 16.625C320.295 16.9917 319.562 17.2833 318.762 17.5C317.962 17.7167 317.187 17.825 316.437 17.825C315.854 17.825 315.32 17.75 314.837 17.6C314.37 17.45 313.979 17.225 313.662 16.925C313.362 16.625 313.154 16.2417 313.037 15.775C312.937 15.3083 312.954 14.7583 313.087 14.125L314.187 9C314.387 8.08333 314.737 7.30833 315.237 6.675C315.754 6.04167 316.379 5.55833 317.112 5.225C317.862 4.89167 318.687 4.725 319.587 4.725C320.487 4.725 321.237 4.88333 321.837 5.2C322.454 5.51667 322.887 5.98333 323.137 6.6C323.387 7.21667 323.412 7.99167 323.212 8.925L322.387 12.825L316.087 13.15L315.937 13.775ZM320.287 9.675C320.354 9.325 320.387 8.96667 320.387 8.6C320.387 8.23333 320.295 7.93333 320.112 7.7C319.945 7.45 319.612 7.34167 319.112 7.375C318.595 7.39167 318.187 7.5 317.887 7.7C317.604 7.88333 317.379 8.14167 317.212 8.475C317.062 8.79167 316.929 9.18333 316.812 9.65L316.612 10.625L320.112 10.4L320.287 9.675ZM331.982 13.5C332.198 13.9167 332.382 14.2417 332.532 14.475C332.698 14.6917 332.857 14.8417 333.007 14.925C333.173 15.0083 333.357 15.05 333.557 15.05H333.682L333.082 17.5H332.707C332.09 17.5 331.565 17.3667 331.132 17.1C330.715 16.8333 330.357 16.4833 330.057 16.05C329.773 15.6167 329.507 15.1583 329.257 14.675L327.857 11.95L326.982 12.625L325.957 17.5H323.182L325.907 4.7L328.607 5L327.732 9.15L332.457 4.975H335.882L330.232 10L331.982 13.5ZM344.371 7.65C344.071 7.48333 343.73 7.35833 343.346 7.275C342.98 7.175 342.605 7.11667 342.221 7.1C341.771 7.1 341.346 7.175 340.946 7.325C340.546 7.45833 340.205 7.68333 339.921 8C339.638 8.3 339.446 8.7 339.346 9.2L338.521 13.125C338.438 13.5083 338.43 13.85 338.496 14.15C338.563 14.4333 338.688 14.6667 338.871 14.85C339.071 15.0333 339.321 15.175 339.621 15.275C339.921 15.3583 340.263 15.4 340.646 15.4C340.913 15.4 341.18 15.3917 341.446 15.375C341.73 15.3417 341.98 15.3083 342.196 15.275C342.413 15.225 342.588 15.1917 342.721 15.175C342.855 15.1417 342.921 15.125 342.921 15.125L342.946 17.375C342.396 17.5083 341.838 17.6167 341.271 17.7C340.705 17.7833 340.138 17.8167 339.571 17.8C338.621 17.7833 337.821 17.6083 337.171 17.275C336.521 16.9417 336.071 16.4333 335.821 15.75C335.571 15.0667 335.555 14.2 335.771 13.15L336.571 9.5C336.788 8.53333 337.13 7.68333 337.596 6.95C338.08 6.21667 338.713 5.65 339.496 5.25C340.296 4.85 341.271 4.66667 342.421 4.7C342.955 4.71667 343.471 4.8 343.971 4.95C344.488 5.1 344.971 5.29167 345.421 5.525L344.371 7.65ZM350.24 13.8C350.157 14.2167 350.132 14.575 350.165 14.875C350.215 15.175 350.332 15.425 350.515 15.625C350.715 15.8083 350.99 15.9667 351.34 16.1L349.74 18C349.274 17.8667 348.865 17.6917 348.515 17.475C348.182 17.2417 347.915 16.9667 347.715 16.65C347.515 16.3167 347.39 15.9417 347.34 15.525C347.29 15.1083 347.315 14.6583 347.415 14.175L348.815 7.575H346.49L347.04 4.975H354.615L354.065 7.575H351.565L350.24 13.8ZM365.449 5.325C365.283 5.84167 365.141 6.30833 365.024 6.725C364.924 7.125 364.841 7.46667 364.774 7.75L362.724 17.375C362.724 17.375 362.608 17.3833 362.374 17.4C362.158 17.4167 361.858 17.4417 361.474 17.475C361.108 17.4917 360.691 17.5083 360.224 17.525C359.774 17.5417 359.316 17.5583 358.849 17.575C358.399 17.5917 357.983 17.6 357.599 17.6C356.833 17.6 356.208 17.4833 355.724 17.25C355.258 17.0167 354.908 16.7 354.674 16.3C354.441 15.9 354.308 15.4417 354.274 14.925C354.258 14.3917 354.308 13.8333 354.424 13.25L355.424 8.625C355.574 7.89167 355.783 7.28333 356.049 6.8C356.333 6.3 356.649 5.90833 356.999 5.625C357.366 5.325 357.766 5.11667 358.199 5C358.633 4.86667 359.099 4.8 359.599 4.8C360.116 4.8 360.591 4.83333 361.024 4.9C361.458 4.96667 361.816 5.04167 362.099 5.125C362.399 5.20833 362.608 5.275 362.724 5.325C362.724 5.325 362.758 5.25833 362.824 5.125C362.908 4.975 362.999 4.83333 363.099 4.7L365.449 5.325ZM357.174 13.275C357.074 13.825 357.058 14.25 357.124 14.55C357.191 14.8333 357.341 15.0333 357.574 15.15C357.824 15.25 358.149 15.3 358.549 15.3C358.699 15.3 358.849 15.3 358.999 15.3C359.149 15.3 359.299 15.3 359.449 15.3C359.599 15.2833 359.749 15.2667 359.899 15.25C360.066 15.2333 360.233 15.2167 360.399 15.2L361.949 7.825C361.833 7.75833 361.691 7.7 361.524 7.65C361.358 7.58333 361.174 7.525 360.974 7.475C360.791 7.425 360.608 7.39167 360.424 7.375C360.258 7.34167 360.108 7.325 359.974 7.325C359.841 7.325 359.683 7.33333 359.499 7.35C359.333 7.36667 359.158 7.425 358.974 7.525C358.791 7.60833 358.624 7.74167 358.474 7.925C358.324 8.10833 358.216 8.36667 358.149 8.7L357.174 13.275ZM5.0498 43.8C4.96647 44.2167 4.94147 44.575 4.9748 44.875C5.0248 45.175 5.14147 45.425 5.3248 45.625C5.5248 45.8083 5.7998 45.9667 6.1498 46.1L4.5498 48C4.08313 47.8667 3.6748 47.6917 3.3248 47.475C2.99147 47.2417 2.7248 46.9667 2.5248 46.65C2.3248 46.3167 2.1998 45.9417 2.1498 45.525C2.0998 45.1083 2.1248 44.6583 2.2248 44.175L3.6248 37.575H1.2998L1.8498 34.975H9.4248L8.8748 37.575H6.3748L5.0498 43.8ZM9.58359 52.725L12.4336 47.5L10.5586 34.975H13.2086L14.5086 43.775L19.2586 34.975H21.9086L12.2836 52.725H9.58359ZM26.4853 43.8C26.402 44.2167 26.377 44.575 26.4103 44.875C26.4603 45.175 26.577 45.425 26.7603 45.625C26.9603 45.8083 27.2353 45.9667 27.5853 46.1L25.9853 48C25.5187 47.8667 25.1103 47.6917 24.7603 47.475C24.427 47.2417 24.1603 46.9667 23.9603 46.65C23.7603 46.3167 23.6353 45.9417 23.5853 45.525C23.5353 45.1083 23.5603 44.6583 23.6603 44.175L25.0603 37.575H22.7353L23.2853 34.975H30.8603L30.3103 37.575H27.8103L26.4853 43.8ZM44.326 34.8C45.2593 34.8 46.001 34.975 46.551 35.325C47.101 35.675 47.4593 36.2 47.626 36.9C47.8093 37.6 47.7926 38.4667 47.576 39.5L46.851 42.875C46.5343 44.3917 45.8843 45.5917 44.901 46.475C43.9176 47.3417 42.7093 47.775 41.276 47.775C40.3426 47.775 39.5593 47.5917 38.926 47.225C38.3093 46.8417 37.876 46.2917 37.626 45.575C37.3926 44.8417 37.3843 43.9417 37.601 42.875L39.176 35.5C39.3093 34.8833 39.5426 34.2583 39.876 33.625C40.226 32.9917 40.6843 32.4167 41.251 31.9C41.7676 31.4167 42.3843 31.0083 43.101 30.675C43.8176 30.3417 44.6343 30.1167 45.551 30L45.851 31.725C45.2843 31.8417 44.7676 32.0083 44.301 32.225C43.851 32.4417 43.4426 32.7333 43.076 33.1C42.8093 33.3833 42.5843 33.7083 42.401 34.075C42.2176 34.4417 42.0676 34.8917 41.951 35.425L41.901 35.65C42.1176 35.5167 42.3593 35.3833 42.626 35.25C42.9093 35.1167 43.1926 35.0083 43.476 34.925C43.776 34.8417 44.0593 34.8 44.326 34.8ZM43.426 37.3C43.226 37.3 43.0093 37.3333 42.776 37.4C42.5426 37.45 42.3176 37.5417 42.101 37.675C41.8843 37.7917 41.6926 37.9583 41.526 38.175C41.376 38.375 41.2676 38.6167 41.201 38.9L40.326 43.025C40.2426 43.4417 40.226 43.8 40.276 44.1C40.326 44.3833 40.4676 44.6083 40.701 44.775C40.9343 44.925 41.2843 45 41.751 45C42.151 45 42.5093 44.9167 42.826 44.75C43.1426 44.5833 43.401 44.3583 43.601 44.075C43.8176 43.775 43.9676 43.425 44.051 43.025L44.876 39.125C44.9593 38.7417 44.9593 38.4167 44.876 38.15C44.7926 37.8667 44.626 37.6583 44.376 37.525C44.1426 37.375 43.826 37.3 43.426 37.3ZM48.6949 52.725L51.5449 47.5L49.6699 34.975H52.3199L53.6199 43.775L58.3699 34.975H61.0199L51.3949 52.725H48.6949ZM71.6967 44.775H73.0967L71.8467 50.65H69.5467L69.6967 47.525H62.0967L60.8967 50.65H58.5967L59.8467 44.775H61.5467L64.5717 38.75C64.7717 38.35 65.005 37.9333 65.2717 37.5C65.555 37.05 65.88 36.6333 66.2467 36.25C66.63 35.8667 67.0883 35.5583 67.6217 35.325C68.1717 35.0917 68.8217 34.975 69.5717 34.975H73.7717L71.6967 44.775ZM64.4217 44.775H68.9217L70.5217 37.325H69.7467C69.48 37.325 69.23 37.35 68.9967 37.4C68.7633 37.4333 68.5467 37.5083 68.3467 37.625C68.1467 37.7417 67.955 37.9 67.7717 38.1C67.5883 38.3 67.4217 38.5583 67.2717 38.875L64.4217 44.775ZM77.1918 43.775C77.1418 43.9917 77.1335 44.1917 77.1668 44.375C77.2001 44.5417 77.2585 44.6917 77.3418 44.825C77.4418 44.9583 77.5751 45.0583 77.7418 45.125C77.9085 45.1917 78.1001 45.225 78.3168 45.225C78.7668 45.225 79.3001 45.125 79.9168 44.925C80.5335 44.725 81.1335 44.4917 81.7168 44.225L82.2168 46.625C81.5501 46.9917 80.8168 47.2833 80.0168 47.5C79.2168 47.7167 78.4418 47.825 77.6918 47.825C77.1085 47.825 76.5751 47.75 76.0918 47.6C75.6251 47.45 75.2335 47.225 74.9168 46.925C74.6168 46.625 74.4085 46.2417 74.2918 45.775C74.1918 45.3083 74.2085 44.7583 74.3418 44.125L75.4418 39C75.6418 38.0833 75.9918 37.3083 76.4918 36.675C77.0085 36.0417 77.6335 35.5583 78.3668 35.225C79.1168 34.8917 79.9418 34.725 80.8418 34.725C81.7418 34.725 82.4918 34.8833 83.0918 35.2C83.7085 35.5167 84.1418 35.9833 84.3918 36.6C84.6418 37.2167 84.6668 37.9917 84.4668 38.925L83.6418 42.825L77.3418 43.15L77.1918 43.775ZM81.5418 39.675C81.6085 39.325 81.6418 38.9667 81.6418 38.6C81.6418 38.2333 81.5501 37.9333 81.3668 37.7C81.2001 37.45 80.8668 37.3417 80.3668 37.375C79.8501 37.3917 79.4418 37.5 79.1418 37.7C78.8585 37.8833 78.6335 38.1417 78.4668 38.475C78.3168 38.7917 78.1835 39.1833 78.0668 39.65L77.8668 40.625L81.3668 40.4L81.5418 39.675ZM89.9863 43.8C89.903 44.2167 89.878 44.575 89.9113 44.875C89.9613 45.175 90.078 45.425 90.2613 45.625C90.4613 45.8083 90.7363 45.9667 91.0863 46.1L89.4863 48C89.0197 47.8667 88.6113 47.6917 88.2613 47.475C87.928 47.2417 87.6613 46.9667 87.4613 46.65C87.2613 46.3167 87.1363 45.9417 87.0863 45.525C87.0363 45.1083 87.0613 44.6583 87.1613 44.175L88.5613 37.575H86.2363L86.7863 34.975H94.3613L93.8113 37.575H91.3113L89.9863 43.8ZM108.577 39.35L109.502 35H112.252L109.602 47.5H106.852L108.027 41.975H104.327L103.152 47.5H100.377L103.027 35H105.802L104.877 39.35H108.577ZM114.936 43.775C114.886 43.9917 114.878 44.1917 114.911 44.375C114.944 44.5417 115.003 44.6917 115.086 44.825C115.186 44.9583 115.319 45.0583 115.486 45.125C115.653 45.1917 115.844 45.225 116.061 45.225C116.511 45.225 117.044 45.125 117.661 44.925C118.278 44.725 118.878 44.4917 119.461 44.225L119.961 46.625C119.294 46.9917 118.561 47.2833 117.761 47.5C116.961 47.7167 116.186 47.825 115.436 47.825C114.853 47.825 114.319 47.75 113.836 47.6C113.369 47.45 112.978 47.225 112.661 46.925C112.361 46.625 112.153 46.2417 112.036 45.775C111.936 45.3083 111.953 44.7583 112.086 44.125L113.186 39C113.386 38.0833 113.736 37.3083 114.236 36.675C114.753 36.0417 115.378 35.5583 116.111 35.225C116.861 34.8917 117.686 34.725 118.586 34.725C119.486 34.725 120.236 34.8833 120.836 35.2C121.453 35.5167 121.886 35.9833 122.136 36.6C122.386 37.2167 122.411 37.9917 122.211 38.925L121.386 42.825L115.086 43.15L114.936 43.775ZM119.286 39.675C119.353 39.325 119.386 38.9667 119.386 38.6C119.386 38.2333 119.294 37.9333 119.111 37.7C118.944 37.45 118.611 37.3417 118.111 37.375C117.594 37.3917 117.186 37.5 116.886 37.7C116.603 37.8833 116.378 38.1417 116.211 38.475C116.061 38.7917 115.928 39.1833 115.811 39.65L115.611 40.625L119.111 40.4L119.286 39.675ZM134.531 35H137.581L134.931 47.525H132.181L133.581 40.9L129.581 47.525H127.506L126.256 40.9L124.856 47.525H122.081L124.731 35H127.831L129.306 43.8L134.531 35ZM145.027 39.35L145.952 35H148.702L146.052 47.5H143.302L144.477 41.975H140.777L139.602 47.5H136.827L139.477 35H142.252L141.327 39.35H145.027ZM157.986 42.875C157.686 44.3417 157.061 45.525 156.111 46.425C155.178 47.3083 153.945 47.75 152.411 47.75C151.311 47.75 150.461 47.525 149.861 47.075C149.278 46.6083 148.903 46.0083 148.736 45.275C148.57 44.525 148.57 43.725 148.736 42.875L149.461 39.575C149.695 38.5083 150.061 37.6167 150.561 36.9C151.078 36.1833 151.72 35.6417 152.486 35.275C153.27 34.8917 154.17 34.7 155.186 34.7C156.636 34.7 157.67 35.1333 158.286 36C158.903 36.85 159.045 38.0417 158.711 39.575L157.986 42.875ZM155.911 39.425C155.995 39.025 156.003 38.6833 155.936 38.4C155.87 38.1 155.72 37.875 155.486 37.725C155.27 37.5583 154.961 37.475 154.561 37.475C154.161 37.475 153.803 37.55 153.486 37.7C153.186 37.85 152.928 38.0667 152.711 38.35C152.511 38.6333 152.361 38.9917 152.261 39.425L151.486 43.075C151.42 43.4083 151.42 43.725 151.486 44.025C151.553 44.325 151.703 44.5667 151.936 44.75C152.17 44.9333 152.511 45.025 152.961 45.025C153.378 45.025 153.728 44.9417 154.011 44.775C154.311 44.6083 154.553 44.375 154.736 44.075C154.92 43.775 155.053 43.4417 155.136 43.075L155.911 39.425ZM168.802 42.875C168.502 44.3417 167.877 45.525 166.927 46.425C165.993 47.3083 164.76 47.75 163.227 47.75C162.127 47.75 161.277 47.525 160.677 47.075C160.093 46.6083 159.718 46.0083 159.552 45.275C159.385 44.525 159.385 43.725 159.552 42.875L160.277 39.575C160.51 38.5083 160.877 37.6167 161.377 36.9C161.893 36.1833 162.535 35.6417 163.302 35.275C164.085 34.8917 164.985 34.7 166.002 34.7C167.452 34.7 168.485 35.1333 169.102 36C169.718 36.85 169.86 38.0417 169.527 39.575L168.802 42.875ZM166.727 39.425C166.81 39.025 166.818 38.6833 166.752 38.4C166.685 38.1 166.535 37.875 166.302 37.725C166.085 37.5583 165.777 37.475 165.377 37.475C164.977 37.475 164.618 37.55 164.302 37.7C164.002 37.85 163.743 38.0667 163.527 38.35C163.327 38.6333 163.177 38.9917 163.077 39.425L162.302 43.075C162.235 43.4083 162.235 43.725 162.302 44.025C162.368 44.325 162.518 44.5667 162.752 44.75C162.985 44.9333 163.327 45.025 163.777 45.025C164.193 45.025 164.543 44.9417 164.827 44.775C165.127 44.6083 165.368 44.375 165.552 44.075C165.735 43.775 165.868 43.4417 165.952 43.075L166.727 39.425ZM179.617 42.875C179.317 44.3417 178.692 45.525 177.742 46.425C176.809 47.3083 175.576 47.75 174.042 47.75C172.942 47.75 172.092 47.525 171.492 47.075C170.909 46.6083 170.534 46.0083 170.367 45.275C170.201 44.525 170.201 43.725 170.367 42.875L171.092 39.575C171.326 38.5083 171.692 37.6167 172.192 36.9C172.709 36.1833 173.351 35.6417 174.117 35.275C174.901 34.8917 175.801 34.7 176.817 34.7C178.267 34.7 179.301 35.1333 179.917 36C180.534 36.85 180.676 38.0417 180.342 39.575L179.617 42.875ZM177.542 39.425C177.626 39.025 177.634 38.6833 177.567 38.4C177.501 38.1 177.351 37.875 177.117 37.725C176.901 37.5583 176.592 37.475 176.192 37.475C175.792 37.475 175.434 37.55 175.117 37.7C174.817 37.85 174.559 38.0667 174.342 38.35C174.142 38.6333 173.992 38.9917 173.892 39.425L173.117 43.075C173.051 43.4083 173.051 43.725 173.117 44.025C173.184 44.325 173.334 44.5667 173.567 44.75C173.801 44.9333 174.142 45.025 174.592 45.025C175.009 45.025 175.359 44.9417 175.642 44.775C175.942 44.6083 176.184 44.375 176.367 44.075C176.551 43.775 176.684 43.4417 176.767 43.075L177.542 39.425ZM190.433 42.875C190.133 44.3417 189.508 45.525 188.558 46.425C187.624 47.3083 186.391 47.75 184.858 47.75C183.758 47.75 182.908 47.525 182.308 47.075C181.724 46.6083 181.349 46.0083 181.183 45.275C181.016 44.525 181.016 43.725 181.183 42.875L181.908 39.575C182.141 38.5083 182.508 37.6167 183.008 36.9C183.524 36.1833 184.166 35.6417 184.933 35.275C185.716 34.8917 186.616 34.7 187.633 34.7C189.083 34.7 190.116 35.1333 190.733 36C191.349 36.85 191.491 38.0417 191.158 39.575L190.433 42.875ZM188.358 39.425C188.441 39.025 188.449 38.6833 188.383 38.4C188.316 38.1 188.166 37.875 187.933 37.725C187.716 37.5583 187.408 37.475 187.008 37.475C186.608 37.475 186.249 37.55 185.933 37.7C185.633 37.85 185.374 38.0667 185.158 38.35C184.958 38.6333 184.808 38.9917 184.708 39.425L183.933 43.075C183.866 43.4083 183.866 43.725 183.933 44.025C183.999 44.325 184.149 44.5667 184.383 44.75C184.616 44.9333 184.958 45.025 185.408 45.025C185.824 45.025 186.174 44.9417 186.458 44.775C186.758 44.6083 186.999 44.375 187.183 44.075C187.366 43.775 187.499 43.4417 187.583 43.075L188.358 39.425ZM201.248 42.875C200.948 44.3417 200.323 45.525 199.373 46.425C198.44 47.3083 197.206 47.75 195.673 47.75C194.573 47.75 193.723 47.525 193.123 47.075C192.54 46.6083 192.165 46.0083 191.998 45.275C191.831 44.525 191.831 43.725 191.998 42.875L192.723 39.575C192.956 38.5083 193.323 37.6167 193.823 36.9C194.34 36.1833 194.981 35.6417 195.748 35.275C196.531 34.8917 197.431 34.7 198.448 34.7C199.898 34.7 200.931 35.1333 201.548 36C202.165 36.85 202.306 38.0417 201.973 39.575L201.248 42.875ZM199.173 39.425C199.256 39.025 199.265 38.6833 199.198 38.4C199.131 38.1 198.981 37.875 198.748 37.725C198.531 37.5583 198.223 37.475 197.823 37.475C197.423 37.475 197.065 37.55 196.748 37.7C196.448 37.85 196.19 38.0667 195.973 38.35C195.773 38.6333 195.623 38.9917 195.523 39.425L194.748 43.075C194.681 43.4083 194.681 43.725 194.748 44.025C194.815 44.325 194.965 44.5667 195.198 44.75C195.431 44.9333 195.773 45.025 196.223 45.025C196.64 45.025 196.99 44.9417 197.273 44.775C197.573 44.6083 197.815 44.375 197.998 44.075C198.181 43.775 198.315 43.4417 198.398 43.075L199.173 39.425ZM212.063 42.875C211.763 44.3417 211.138 45.525 210.188 46.425C209.255 47.3083 208.022 47.75 206.488 47.75C205.388 47.75 204.538 47.525 203.938 47.075C203.355 46.6083 202.98 46.0083 202.813 45.275C202.647 44.525 202.647 43.725 202.813 42.875L203.538 39.575C203.772 38.5083 204.138 37.6167 204.638 36.9C205.155 36.1833 205.797 35.6417 206.563 35.275C207.347 34.8917 208.247 34.7 209.263 34.7C210.713 34.7 211.747 35.1333 212.363 36C212.98 36.85 213.122 38.0417 212.788 39.575L212.063 42.875ZM209.988 39.425C210.072 39.025 210.08 38.6833 210.013 38.4C209.947 38.1 209.797 37.875 209.563 37.725C209.347 37.5583 209.038 37.475 208.638 37.475C208.238 37.475 207.88 37.55 207.563 37.7C207.263 37.85 207.005 38.0667 206.788 38.35C206.588 38.6333 206.438 38.9917 206.338 39.425L205.563 43.075C205.497 43.4083 205.497 43.725 205.563 44.025C205.63 44.325 205.78 44.5667 206.013 44.75C206.247 44.9333 206.588 45.025 207.038 45.025C207.455 45.025 207.805 44.9417 208.088 44.775C208.388 44.6083 208.63 44.375 208.813 44.075C208.997 43.775 209.13 43.4417 209.213 43.075L209.988 39.425ZM222.879 42.875C222.579 44.3417 221.954 45.525 221.004 46.425C220.071 47.3083 218.837 47.75 217.304 47.75C216.204 47.75 215.354 47.525 214.754 47.075C214.171 46.6083 213.796 46.0083 213.629 45.275C213.462 44.525 213.462 43.725 213.629 42.875L214.354 39.575C214.587 38.5083 214.954 37.6167 215.454 36.9C215.971 36.1833 216.612 35.6417 217.379 35.275C218.162 34.8917 219.062 34.7 220.079 34.7C221.529 34.7 222.562 35.1333 223.179 36C223.796 36.85 223.937 38.0417 223.604 39.575L222.879 42.875ZM220.804 39.425C220.887 39.025 220.896 38.6833 220.829 38.4C220.762 38.1 220.612 37.875 220.379 37.725C220.162 37.5583 219.854 37.475 219.454 37.475C219.054 37.475 218.696 37.55 218.379 37.7C218.079 37.85 217.821 38.0667 217.604 38.35C217.404 38.6333 217.254 38.9917 217.154 39.425L216.379 43.075C216.312 43.4083 216.312 43.725 216.379 44.025C216.446 44.325 216.596 44.5667 216.829 44.75C217.062 44.9333 217.404 45.025 217.854 45.025C218.271 45.025 218.621 44.9417 218.904 44.775C219.204 44.6083 219.446 44.375 219.629 44.075C219.812 43.775 219.946 43.4417 220.029 43.075L220.804 39.425ZM233.694 42.875C233.394 44.3417 232.769 45.525 231.819 46.425C230.886 47.3083 229.653 47.75 228.119 47.75C227.019 47.75 226.169 47.525 225.569 47.075C224.986 46.6083 224.611 46.0083 224.444 45.275C224.278 44.525 224.278 43.725 224.444 42.875L225.169 39.575C225.403 38.5083 225.769 37.6167 226.269 36.9C226.786 36.1833 227.428 35.6417 228.194 35.275C228.978 34.8917 229.878 34.7 230.894 34.7C232.344 34.7 233.378 35.1333 233.994 36C234.611 36.85 234.753 38.0417 234.419 39.575L233.694 42.875ZM231.619 39.425C231.703 39.025 231.711 38.6833 231.644 38.4C231.578 38.1 231.428 37.875 231.194 37.725C230.978 37.5583 230.669 37.475 230.269 37.475C229.869 37.475 229.511 37.55 229.194 37.7C228.894 37.85 228.636 38.0667 228.419 38.35C228.219 38.6333 228.069 38.9917 227.969 39.425L227.194 43.075C227.128 43.4083 227.128 43.725 227.194 44.025C227.261 44.325 227.411 44.5667 227.644 44.75C227.878 44.9333 228.219 45.025 228.669 45.025C229.086 45.025 229.436 44.9417 229.719 44.775C230.019 44.6083 230.261 44.375 230.444 44.075C230.628 43.775 230.761 43.4417 230.844 43.075L231.619 39.425ZM244.51 42.875C244.21 44.3417 243.585 45.525 242.635 46.425C241.701 47.3083 240.468 47.75 238.935 47.75C237.835 47.75 236.985 47.525 236.385 47.075C235.801 46.6083 235.426 46.0083 235.26 45.275C235.093 44.525 235.093 43.725 235.26 42.875L235.985 39.575C236.218 38.5083 236.585 37.6167 237.085 36.9C237.601 36.1833 238.243 35.6417 239.01 35.275C239.793 34.8917 240.693 34.7 241.71 34.7C243.16 34.7 244.193 35.1333 244.81 36C245.426 36.85 245.568 38.0417 245.235 39.575L244.51 42.875ZM242.435 39.425C242.518 39.025 242.526 38.6833 242.46 38.4C242.393 38.1 242.243 37.875 242.01 37.725C241.793 37.5583 241.485 37.475 241.085 37.475C240.685 37.475 240.326 37.55 240.01 37.7C239.71 37.85 239.451 38.0667 239.235 38.35C239.035 38.6333 238.885 38.9917 238.785 39.425L238.01 43.075C237.943 43.4083 237.943 43.725 238.01 44.025C238.076 44.325 238.226 44.5667 238.46 44.75C238.693 44.9333 239.035 45.025 239.485 45.025C239.901 45.025 240.251 44.9417 240.535 44.775C240.835 44.6083 241.076 44.375 241.26 44.075C241.443 43.775 241.576 43.4417 241.66 43.075L242.435 39.425ZM255.325 42.875C255.025 44.3417 254.4 45.525 253.45 46.425C252.517 47.3083 251.284 47.75 249.75 47.75C248.65 47.75 247.8 47.525 247.2 47.075C246.617 46.6083 246.242 46.0083 246.075 45.275C245.909 44.525 245.909 43.725 246.075 42.875L246.8 39.575C247.034 38.5083 247.4 37.6167 247.9 36.9C248.417 36.1833 249.059 35.6417 249.825 35.275C250.609 34.8917 251.509 34.7 252.525 34.7C253.975 34.7 255.009 35.1333 255.625 36C256.242 36.85 256.384 38.0417 256.05 39.575L255.325 42.875ZM253.25 39.425C253.334 39.025 253.342 38.6833 253.275 38.4C253.209 38.1 253.059 37.875 252.825 37.725C252.609 37.5583 252.3 37.475 251.9 37.475C251.5 37.475 251.142 37.55 250.825 37.7C250.525 37.85 250.267 38.0667 250.05 38.35C249.85 38.6333 249.7 38.9917 249.6 39.425L248.825 43.075C248.759 43.4083 248.759 43.725 248.825 44.025C248.892 44.325 249.042 44.5667 249.275 44.75C249.509 44.9333 249.85 45.025 250.3 45.025C250.717 45.025 251.067 44.9417 251.35 44.775C251.65 44.6083 251.892 44.375 252.075 44.075C252.259 43.775 252.392 43.4417 252.475 43.075L253.25 39.425ZM266.141 42.875C265.841 44.3417 265.216 45.525 264.266 46.425C263.332 47.3083 262.099 47.75 260.566 47.75C259.466 47.75 258.616 47.525 258.016 47.075C257.432 46.6083 257.057 46.0083 256.891 45.275C256.724 44.525 256.724 43.725 256.891 42.875L257.616 39.575C257.849 38.5083 258.216 37.6167 258.716 36.9C259.232 36.1833 259.874 35.6417 260.641 35.275C261.424 34.8917 262.324 34.7 263.341 34.7C264.791 34.7 265.824 35.1333 266.441 36C267.057 36.85 267.199 38.0417 266.866 39.575L266.141 42.875ZM264.066 39.425C264.149 39.025 264.157 38.6833 264.091 38.4C264.024 38.1 263.874 37.875 263.641 37.725C263.424 37.5583 263.116 37.475 262.716 37.475C262.316 37.475 261.957 37.55 261.641 37.7C261.341 37.85 261.082 38.0667 260.866 38.35C260.666 38.6333 260.516 38.9917 260.416 39.425L259.641 43.075C259.574 43.4083 259.574 43.725 259.641 44.025C259.707 44.325 259.857 44.5667 260.091 44.75C260.324 44.9333 260.666 45.025 261.116 45.025C261.532 45.025 261.882 44.9417 262.166 44.775C262.466 44.6083 262.707 44.375 262.891 44.075C263.074 43.775 263.207 43.4417 263.291 43.075L264.066 39.425ZM276.956 42.875C276.656 44.3417 276.031 45.525 275.081 46.425C274.148 47.3083 272.914 47.75 271.381 47.75C270.281 47.75 269.431 47.525 268.831 47.075C268.248 46.6083 267.873 46.0083 267.706 45.275C267.539 44.525 267.539 43.725 267.706 42.875L268.431 39.575C268.664 38.5083 269.031 37.6167 269.531 36.9C270.048 36.1833 270.689 35.6417 271.456 35.275C272.239 34.8917 273.139 34.7 274.156 34.7C275.606 34.7 276.639 35.1333 277.256 36C277.873 36.85 278.014 38.0417 277.681 39.575L276.956 42.875ZM274.881 39.425C274.964 39.025 274.973 38.6833 274.906 38.4C274.839 38.1 274.689 37.875 274.456 37.725C274.239 37.5583 273.931 37.475 273.531 37.475C273.131 37.475 272.773 37.55 272.456 37.7C272.156 37.85 271.898 38.0667 271.681 38.35C271.481 38.6333 271.331 38.9917 271.231 39.425L270.456 43.075C270.389 43.4083 270.389 43.725 270.456 44.025C270.523 44.325 270.673 44.5667 270.906 44.75C271.139 44.9333 271.481 45.025 271.931 45.025C272.348 45.025 272.698 44.9417 272.981 44.775C273.281 44.6083 273.523 44.375 273.706 44.075C273.889 43.775 274.023 43.4417 274.106 43.075L274.881 39.425ZM280.246 35H287.121L286.546 37.75H282.471L280.396 47.5H277.596L280.246 35ZM295.706 42.875C295.406 44.3417 294.781 45.525 293.831 46.425C292.898 47.3083 291.664 47.75 290.131 47.75C289.031 47.75 288.181 47.525 287.581 47.075C286.998 46.6083 286.623 46.0083 286.456 45.275C286.289 44.525 286.289 43.725 286.456 42.875L287.181 39.575C287.414 38.5083 287.781 37.6167 288.281 36.9C288.798 36.1833 289.439 35.6417 290.206 35.275C290.989 34.8917 291.889 34.7 292.906 34.7C294.356 34.7 295.389 35.1333 296.006 36C296.623 36.85 296.764 38.0417 296.431 39.575L295.706 42.875ZM293.631 39.425C293.714 39.025 293.723 38.6833 293.656 38.4C293.589 38.1 293.439 37.875 293.206 37.725C292.989 37.5583 292.681 37.475 292.281 37.475C291.881 37.475 291.523 37.55 291.206 37.7C290.906 37.85 290.648 38.0667 290.431 38.35C290.231 38.6333 290.081 38.9917 289.981 39.425L289.206 43.075C289.139 43.4083 289.139 43.725 289.206 44.025C289.273 44.325 289.423 44.5667 289.656 44.75C289.889 44.9333 290.231 45.025 290.681 45.025C291.098 45.025 291.448 44.9417 291.731 44.775C292.031 44.6083 292.273 44.375 292.456 44.075C292.639 43.775 292.773 43.4417 292.856 43.075L293.631 39.425ZM309.078 43.8C308.995 44.2167 308.97 44.575 309.003 44.875C309.053 45.175 309.17 45.425 309.353 45.625C309.553 45.8083 309.828 45.9667 310.178 46.1L308.578 48C308.112 47.8667 307.703 47.6917 307.353 47.475C307.02 47.2417 306.753 46.9667 306.553 46.65C306.353 46.3167 306.228 45.9417 306.178 45.525C306.128 45.1083 306.153 44.6583 306.253 44.175L307.653 37.575H305.328L305.878 34.975H313.453L312.903 37.575H310.403L309.078 43.8ZM315.937 43.775C315.887 43.9917 315.879 44.1917 315.912 44.375C315.945 44.5417 316.004 44.6917 316.087 44.825C316.187 44.9583 316.32 45.0583 316.487 45.125C316.654 45.1917 316.845 45.225 317.062 45.225C317.512 45.225 318.045 45.125 318.662 44.925C319.279 44.725 319.879 44.4917 320.462 44.225L320.962 46.625C320.295 46.9917 319.562 47.2833 318.762 47.5C317.962 47.7167 317.187 47.825 316.437 47.825C315.854 47.825 315.32 47.75 314.837 47.6C314.37 47.45 313.979 47.225 313.662 46.925C313.362 46.625 313.154 46.2417 313.037 45.775C312.937 45.3083 312.954 44.7583 313.087 44.125L314.187 39C314.387 38.0833 314.737 37.3083 315.237 36.675C315.754 36.0417 316.379 35.5583 317.112 35.225C317.862 34.8917 318.687 34.725 319.587 34.725C320.487 34.725 321.237 34.8833 321.837 35.2C322.454 35.5167 322.887 35.9833 323.137 36.6C323.387 37.2167 323.412 37.9917 323.212 38.925L322.387 42.825L316.087 43.15L315.937 43.775ZM320.287 39.675C320.354 39.325 320.387 38.9667 320.387 38.6C320.387 38.2333 320.295 37.9333 320.112 37.7C319.945 37.45 319.612 37.3417 319.112 37.375C318.595 37.3917 318.187 37.5 317.887 37.7C317.604 37.8833 317.379 38.1417 317.212 38.475C317.062 38.7917 316.929 39.1833 316.812 39.65L316.612 40.625L320.112 40.4L320.287 39.675ZM331.982 43.5C332.198 43.9167 332.382 44.2417 332.532 44.475C332.698 44.6917 332.857 44.8417 333.007 44.925C333.173 45.0083 333.357 45.05 333.557 45.05H333.682L333.082 47.5H332.707C332.09 47.5 331.565 47.3667 331.132 47.1C330.715 46.8333 330.357 46.4833 330.057 46.05C329.773 45.6167 329.507 45.1583 329.257 44.675L327.857 41.95L326.982 42.625L325.957 47.5H323.182L325.907 34.7L328.607 35L327.732 39.15L332.457 34.975H335.882L330.232 40L331.982 43.5ZM344.371 37.65C344.071 37.4833 343.73 37.3583 343.346 37.275C342.98 37.175 342.605 37.1167 342.221 37.1C341.771 37.1 341.346 37.175 340.946 37.325C340.546 37.4583 340.205 37.6833 339.921 38C339.638 38.3 339.446 38.7 339.346 39.2L338.521 43.125C338.438 43.5083 338.43 43.85 338.496 44.15C338.563 44.4333 338.688 44.6667 338.871 44.85C339.071 45.0333 339.321 45.175 339.621 45.275C339.921 45.3583 340.263 45.4 340.646 45.4C340.913 45.4 341.18 45.3917 341.446 45.375C341.73 45.3417 341.98 45.3083 342.196 45.275C342.413 45.225 342.588 45.1917 342.721 45.175C342.855 45.1417 342.921 45.125 342.921 45.125L342.946 47.375C342.396 47.5083 341.838 47.6167 341.271 47.7C340.705 47.7833 340.138 47.8167 339.571 47.8C338.621 47.7833 337.821 47.6083 337.171 47.275C336.521 46.9417 336.071 46.4333 335.821 45.75C335.571 45.0667 335.555 44.2 335.771 43.15L336.571 39.5C336.788 38.5333 337.13 37.6833 337.596 36.95C338.08 36.2167 338.713 35.65 339.496 35.25C340.296 34.85 341.271 34.6667 342.421 34.7C342.955 34.7167 343.471 34.8 343.971 34.95C344.488 35.1 344.971 35.2917 345.421 35.525L344.371 37.65ZM350.24 43.8C350.157 44.2167 350.132 44.575 350.165 44.875C350.215 45.175 350.332 45.425 350.515 45.625C350.715 45.8083 350.99 45.9667 351.34 46.1L349.74 48C349.274 47.8667 348.865 47.6917 348.515 47.475C348.182 47.2417 347.915 46.9667 347.715 46.65C347.515 46.3167 347.39 45.9417 347.34 45.525C347.29 45.1083 347.315 44.6583 347.415 44.175L348.815 37.575H346.49L347.04 34.975H354.615L354.065 37.575H351.565L350.24 43.8ZM365.449 35.325C365.283 35.8417 365.141 36.3083 365.024 36.725C364.924 37.125 364.841 37.4667 364.774 37.75L362.724 47.375C362.724 47.375 362.608 47.3833 362.374 47.4C362.158 47.4167 361.858 47.4417 361.474 47.475C361.108 47.4917 360.691 47.5083 360.224 47.525C359.774 47.5417 359.316 47.5583 358.849 47.575C358.399 47.5917 357.983 47.6 357.599 47.6C356.833 47.6 356.208 47.4833 355.724 47.25C355.258 47.0167 354.908 46.7 354.674 46.3C354.441 45.9 354.308 45.4417 354.274 44.925C354.258 44.3917 354.308 43.8333 354.424 43.25L355.424 38.625C355.574 37.8917 355.783 37.2833 356.049 36.8C356.333 36.3 356.649 35.9083 356.999 35.625C357.366 35.325 357.766 35.1167 358.199 35C358.633 34.8667 359.099 34.8 359.599 34.8C360.116 34.8 360.591 34.8333 361.024 34.9C361.458 34.9667 361.816 35.0417 362.099 35.125C362.399 35.2083 362.608 35.275 362.724 35.325C362.724 35.325 362.758 35.2583 362.824 35.125C362.908 34.975 362.999 34.8333 363.099 34.7L365.449 35.325ZM357.174 43.275C357.074 43.825 357.058 44.25 357.124 44.55C357.191 44.8333 357.341 45.0333 357.574 45.15C357.824 45.25 358.149 45.3 358.549 45.3C358.699 45.3 358.849 45.3 358.999 45.3C359.149 45.3 359.299 45.3 359.449 45.3C359.599 45.2833 359.749 45.2667 359.899 45.25C360.066 45.2333 360.233 45.2167 360.399 45.2L361.949 37.825C361.833 37.7583 361.691 37.7 361.524 37.65C361.358 37.5833 361.174 37.525 360.974 37.475C360.791 37.425 360.608 37.3917 360.424 37.375C360.258 37.3417 360.108 37.325 359.974 37.325C359.841 37.325 359.683 37.3333 359.499 37.35C359.333 37.3667 359.158 37.425 358.974 37.525C358.791 37.6083 358.624 37.7417 358.474 37.925C358.324 38.1083 358.216 38.3667 358.149 38.7L357.174 43.275Z" fill="white"/>
</g>
<defs>
<clipPath id="clip0_395_808">
<rect width="365" height="53" fill="white" transform="translate(0.5)"/>
</clipPath>
</defs>
</svg>
