<svg width="446" height="34" viewBox="0 0 446 34" fill="none" xmlns="http://www.w3.org/2000/svg">
<g clip-path="url(#clip0_395_721)">
<path d="M19.0042 12.6971H22.4542C23.5209 12.6971 24.4109 12.5423 25.1241 12.2329C25.8161 11.8977 26.2421 11.4206 26.4018 10.8017C26.5949 10.1828 26.4596 9.4479 25.9959 8.59692C25.7401 8.08118 25.3933 7.617 24.9553 7.20441C24.5507 6.79181 24.0656 6.44368 23.4999 6.16002C22.9131 5.85057 22.273 5.61849 21.5796 5.46376C20.9195 5.30904 20.1895 5.23168 19.3895 5.23168C18.8895 5.23168 18.3606 5.25747 17.8029 5.30904C17.2785 5.36061 16.7752 5.43798 16.293 5.54113C15.8108 5.64427 15.3997 5.77321 15.0598 5.92794L11.7217 2.52401C12.3683 2.21456 13.0237 1.95669 13.6881 1.75039C14.3858 1.54409 15.1029 1.40227 15.8396 1.3249C16.5884 1.22175 17.3628 1.17018 18.1628 1.17018C19.9962 1.17018 21.7891 1.46673 23.5415 2.05984C25.3062 2.62716 26.8882 3.43946 28.2876 4.49674C29.6991 5.52823 30.7812 6.72734 31.534 8.09407C31.9766 8.91926 32.2375 9.70578 32.3167 10.4536C32.4081 11.1756 32.2694 11.8203 31.9008 12.3876C31.5443 12.9291 30.9201 13.3675 30.028 13.7028C32.226 14.2701 34.1669 15.134 35.8507 16.2944C37.5467 17.429 38.8479 18.8344 39.7541 20.5106C40.3412 21.5937 40.6739 22.651 40.7521 23.6825C40.8425 24.6882 40.609 25.6036 40.0516 26.4288C39.473 27.2282 38.501 27.8729 37.1357 28.3629C35.7703 28.8528 33.921 29.0978 31.5877 29.0978C30.5877 29.0978 29.5682 29.0333 28.5292 28.9044C27.4903 28.7754 26.5408 28.6336 25.6807 28.4789C24.8329 28.2984 24.1395 28.1437 23.6005 28.0147C23.0949 27.8858 22.8421 27.8213 22.8421 27.8213L21.4655 23.7598C21.4655 23.7598 21.7016 23.8243 22.1739 23.9532C22.6795 24.0822 23.3229 24.2369 24.1041 24.4174C24.8975 24.5721 25.747 24.7139 26.6526 24.8429C27.5582 24.9718 28.4277 25.0363 29.261 25.0363C30.761 25.0363 31.9131 24.8558 32.7174 24.4948C33.5217 24.1337 34.0099 23.6309 34.1818 22.9862C34.3326 22.3157 34.1701 21.5679 33.6942 20.7427C33.3751 20.1496 32.9815 19.6081 32.5136 19.1181C32.0789 18.6281 31.5743 18.2155 30.9997 17.8803C30.404 17.5193 29.7656 17.2485 29.0844 17.068C28.3821 16.8617 27.6309 16.7586 26.8309 16.7586H22.7309L19.0042 12.6971ZM42.1265 1.55699C44.3265 1.55699 46.3861 1.85354 48.3052 2.44665C50.2244 3.03976 51.9108 3.87784 53.3646 4.96091C54.8517 6.04398 55.9867 7.30756 56.7695 8.75165C57.2032 9.52526 57.4568 10.2215 57.5304 10.8404C57.604 11.4593 57.5247 12.0137 57.2927 12.5037C57.0607 12.9936 56.697 13.4449 56.2016 13.8575C57.1673 14.1412 58.2036 14.5924 59.3105 15.2113C60.4507 15.8302 61.5344 16.6038 62.5614 17.5322C63.5674 18.4347 64.3895 19.4791 65.0277 20.6653C65.9039 22.2642 66.2551 23.6696 66.0811 24.8816C65.9194 26.0678 65.2298 26.9961 64.0123 27.6666C62.7736 28.3113 60.9877 28.6336 58.6543 28.6336H47.6543L32.9265 1.55699H42.1265ZM46.8878 12.6197C48.1878 12.6197 49.1866 12.5166 49.8843 12.3103C50.5942 12.0782 51.0046 11.7043 51.1155 11.1885C51.2053 10.647 50.9972 9.92497 50.4913 9.02241C50.0698 8.223 49.5357 7.59122 48.8888 7.12704C48.2753 6.66287 47.5341 6.32764 46.6651 6.12134C45.7961 5.91504 44.795 5.81189 43.6616 5.81189H40.7616L44.4878 12.6197H46.8878ZM55.0227 24.6882C55.856 24.6882 56.6716 24.585 57.4693 24.3787C58.2458 24.1466 58.7912 23.734 59.1054 23.1409C59.4196 22.5478 59.2726 21.6968 58.6644 20.588C58.1796 19.7112 57.5548 18.9892 56.7901 18.4218C56.0255 17.8545 55.0936 17.429 53.9946 17.1454C52.9289 16.8617 51.6794 16.7199 50.2461 16.7199H46.6961L51.0227 24.6882H55.0227ZM72.9961 28.6336L58.2683 1.55699H75.0183L77.3534 5.81189H66.1034L69.8296 12.6197H76.6796L77.7562 16.6812H72.0062L76.3962 24.7268H87.5462L89.6461 28.6336H72.9961ZM87.9496 12.6971H91.3996C92.4662 12.6971 93.3562 12.5423 94.0694 12.2329C94.7615 11.8977 95.1874 11.4206 95.3471 10.8017C95.5402 10.1828 95.4049 9.4479 94.9412 8.59692C94.6854 8.08118 94.3386 7.617 93.9006 7.20441C93.496 6.79181 93.0109 6.44368 92.4452 6.16002C91.8584 5.85057 91.2183 5.61849 90.5249 5.46376C89.8649 5.30904 89.1348 5.23168 88.3348 5.23168C87.8348 5.23168 87.306 5.25747 86.7482 5.30904C86.2238 5.36061 85.7205 5.43798 85.2383 5.54113C84.7561 5.64427 84.3451 5.77321 84.0051 5.92794L80.6671 2.52401C81.3136 2.21456 81.969 1.95669 82.6334 1.75039C83.3311 1.54409 84.0483 1.40227 84.7849 1.3249C85.5337 1.22175 86.3082 1.17018 87.1082 1.17018C88.9415 1.17018 90.7344 1.46673 92.4869 2.05984C94.2515 2.62716 95.8335 3.43946 97.2329 4.49674C98.6444 5.52823 99.7266 6.72734 100.479 8.09407C100.922 8.91926 101.183 9.70578 101.262 10.4536C101.353 11.1756 101.215 11.8203 100.846 12.3876C100.49 12.9291 99.8654 13.3675 98.9733 13.7028C101.171 14.2701 103.112 15.134 104.796 16.2944C106.492 17.429 107.793 18.8344 108.699 20.5106C109.287 21.5937 109.619 22.651 109.697 23.6825C109.788 24.6882 109.554 25.6036 108.997 26.4288C108.418 27.2282 107.446 27.8729 106.081 28.3629C104.716 28.8528 102.866 29.0978 100.533 29.0978C99.533 29.0978 98.5135 29.0333 97.4746 28.9044C96.4356 28.7754 95.4861 28.6336 94.626 28.4789C93.7782 28.2984 93.0848 28.1437 92.5459 28.0147C92.0402 27.8858 91.7874 27.8213 91.7874 27.8213L90.4108 23.7598C90.4108 23.7598 90.6469 23.8243 91.1192 23.9532C91.6248 24.0822 92.2682 24.2369 93.0494 24.4174C93.8428 24.5721 94.6923 24.7139 95.5979 24.8429C96.5035 24.9718 97.373 25.0363 98.2063 25.0363C99.7063 25.0363 100.858 24.8558 101.663 24.4948C102.467 24.1337 102.955 23.6309 103.127 22.9862C103.278 22.3157 103.115 21.5679 102.64 20.7427C102.32 20.1496 101.927 19.6081 101.459 19.1181C101.024 18.6281 100.52 18.2155 99.945 17.8803C99.3493 17.5193 98.7109 17.2485 98.0297 17.068C97.3274 16.8617 96.5762 16.7586 95.7762 16.7586H91.6762L87.9496 12.6971ZM138.146 24.4174H141.246L145.758 32.7338H141.158L137.931 28.6723H120.881L122.008 32.7338H117.408L112.896 24.4174H115.696L113.352 7.08836C113.279 6.46947 113.228 5.83768 113.2 5.193C113.184 4.52253 113.321 3.91653 113.611 3.37499C113.88 2.80767 114.41 2.35639 115.202 2.02116C115.994 1.68592 117.14 1.51831 118.64 1.51831H125.74L138.146 24.4174ZM132.596 24.4174L122.168 5.15432H121.468C120.935 5.15432 120.461 5.20589 120.045 5.30904C119.642 5.3864 119.334 5.57981 119.12 5.88926C118.919 6.17292 118.866 6.63709 118.961 7.28177L121.546 24.4174H132.596ZM152.991 5.61849L150.764 1.55699H159.464L174.192 28.6336H168.642L156.154 5.69585L152.991 5.61849ZM149.42 12.7357C150.354 12.7357 151.315 12.8518 152.305 13.0839C153.308 13.2902 154.282 13.6254 155.229 14.0896C156.176 14.5537 157.045 15.1469 157.837 15.8689C158.661 16.5909 159.342 17.4419 159.878 18.4218L162.149 22.5994C162.83 23.8372 163.125 24.8687 163.034 25.6939C162.943 26.5191 162.576 27.1895 161.931 27.7053C161.266 28.1952 160.351 28.5434 159.187 28.7497C158.056 28.956 156.774 29.0591 155.34 29.0591C154.674 29.0591 153.93 29.0462 153.109 29.0204C152.288 28.9946 151.456 28.956 150.614 28.9044C149.805 28.8528 149.046 28.8012 148.337 28.7497C147.682 28.7239 147.145 28.6981 146.724 28.6723C146.336 28.6465 146.142 28.6336 146.142 28.6336L131.414 1.55699H136.864L142.92 12.7357H149.42ZM156.179 21.9031L154.571 18.9634C154.375 18.6024 154.149 18.3058 153.892 18.0737C153.648 17.8158 153.373 17.6224 153.067 17.4935C152.774 17.3388 152.456 17.2356 152.114 17.1841C151.772 17.1325 151.417 17.1067 151.05 17.1067H145.3L149.582 24.9589C149.582 24.9589 149.659 24.9718 149.814 24.9976C149.98 24.9976 150.191 25.0105 150.445 25.0363C150.679 25.0363 150.939 25.0492 151.227 25.075C151.527 25.075 151.804 25.0879 152.059 25.1137C152.325 25.1137 152.542 25.1137 152.709 25.1137C153.842 25.1137 154.712 25.0363 155.319 24.8816C155.925 24.7268 156.329 24.5076 156.53 24.224C156.731 23.9403 156.79 23.6051 156.706 23.2183C156.623 22.8315 156.447 22.3931 156.179 21.9031ZM177.165 1.55699H182.765L193.058 20.4719L196.315 1.55699H201.865L216.593 28.6336H211.043L201.075 10.2989L197.493 28.6336H191.893L177.165 1.55699ZM231.025 10.763L233.885 1.55699H240.685L236.854 12.8131L257.413 28.6336H250.713L235.696 16.5265L235.167 18.3832L240.713 28.6336H234.813L220.085 1.55699H225.985L231.025 10.763ZM256.766 1.55699C258.066 1.55699 259.432 1.69882 260.865 1.98248C262.33 2.26614 263.781 2.7561 265.218 3.45235C266.655 4.14861 268.041 5.12853 269.376 6.39211C270.69 7.6299 271.862 9.20292 272.892 11.1111C274.036 13.1999 274.646 14.9019 274.724 16.217C274.834 17.5322 274.541 18.5379 273.845 19.2341C273.182 19.9304 272.273 20.4075 271.117 20.6653C269.962 20.9232 268.717 21.0521 267.384 21.0521H261.984L266.144 28.6336H260.594L245.866 1.55699H256.766ZM259.807 16.9906H263.107C264.407 16.9906 265.488 16.9262 266.349 16.7972C267.21 16.6683 267.832 16.4104 268.215 16.0236C268.611 15.611 268.742 15.0179 268.608 14.2443C268.474 13.4707 268.052 12.4263 267.342 11.1111C266.682 9.89918 266.017 8.94505 265.347 8.24879C264.656 7.52675 263.906 6.99811 263.098 6.66287C262.302 6.30185 261.412 6.06977 260.428 5.96662C259.443 5.86347 258.301 5.81189 257.001 5.81189H253.701L259.807 16.9906ZM286.033 28.6336L271.305 1.55699H288.055L290.391 5.81189H279.141L282.867 12.6197H289.717L290.793 16.6812H285.043L289.433 24.7268H300.583L302.683 28.6336H286.033ZM330.64 28.6336H324.04L318.16 21.5163H310.11L311.99 28.6336H305.74L299.512 1.55699H307.262L330.64 28.6336ZM309.003 16.9906H314.453L306.293 7.08836L309.003 16.9906ZM332.825 5.85057L345.236 28.6336H339.686L327.325 5.85057H320.025L317.708 1.55699H337.908L340.225 5.85057H332.825ZM344.473 8.98373C343.019 6.35343 342.865 4.35491 344.012 2.98818C345.139 1.59567 347.352 0.899414 350.652 0.899414C353.985 0.899414 356.985 1.67303 359.653 3.22027C362.353 4.76751 364.388 6.8047 365.758 9.33186L372.325 21.439C373.18 23.012 373.483 24.3787 373.233 25.5391C372.996 26.6738 372.264 27.5506 371.038 28.1694C369.79 28.7626 368.1 29.0591 365.967 29.0591C364 29.0591 362.046 28.7497 360.106 28.1308C358.199 27.5119 356.471 26.6222 354.92 25.4618C353.348 24.2756 352.093 22.8444 351.153 21.1682L344.473 8.98373ZM356.523 20.704C356.966 21.5292 357.513 22.2384 358.166 22.8315C358.818 23.4246 359.582 23.8888 360.456 24.224C361.343 24.5334 362.336 24.6882 363.436 24.6882C364.503 24.6882 365.316 24.5205 365.875 24.1853C366.433 23.8501 366.743 23.373 366.802 22.7541C366.862 22.1352 366.664 21.4261 366.21 20.6267L360.646 10.4149C360.037 9.30607 359.404 8.39062 358.746 7.66858C358.067 6.92075 357.279 6.36632 356.384 6.0053C355.467 5.61849 354.358 5.42508 353.058 5.42508C351.925 5.42508 351.09 5.60559 350.552 5.96662C350.048 6.32764 349.835 6.88207 349.914 7.6299C349.972 8.35194 350.306 9.26739 350.914 10.3763L356.523 20.704ZM376.346 1.55699C377.646 1.55699 379.012 1.69882 380.445 1.98248C381.91 2.26614 383.362 2.7561 384.799 3.45235C386.235 4.14861 387.621 5.12853 388.956 6.39211C390.27 7.6299 391.442 9.20292 392.472 11.1111C393.616 13.1999 394.227 14.9019 394.304 16.217C394.414 17.5322 394.121 18.5379 393.425 19.2341C392.762 19.9304 391.853 20.4075 390.697 20.6653C389.542 20.9232 388.297 21.0521 386.964 21.0521H381.564L385.724 28.6336H380.174L365.446 1.55699H376.346ZM379.387 16.9906H382.687C383.987 16.9906 385.068 16.9262 385.929 16.7972C386.79 16.6683 387.412 16.4104 387.795 16.0236C388.191 15.611 388.322 15.0179 388.188 14.2443C388.054 13.4707 387.632 12.4263 386.922 11.1111C386.262 9.89918 385.597 8.94505 384.927 8.24879C384.236 7.52675 383.486 6.99811 382.678 6.66287C381.882 6.30185 380.992 6.06977 380.008 5.96662C379.023 5.86347 377.881 5.81189 376.581 5.81189H373.281L379.387 16.9906ZM412.512 5.61849L410.286 1.55699H418.986L433.713 28.6336H428.163L415.676 5.69585L412.512 5.61849ZM408.942 12.7357C409.875 12.7357 410.837 12.8518 411.827 13.0839C412.829 13.2902 413.804 13.6254 414.751 14.0896C415.698 14.5537 416.567 15.1469 417.358 15.8689C418.183 16.5909 418.863 17.4419 419.399 18.4218L421.671 22.5994C422.351 23.8372 422.646 24.8687 422.555 25.6939C422.465 26.5191 422.097 27.1895 421.453 27.7053C420.788 28.1952 419.873 28.5434 418.708 28.7497C417.577 28.956 416.295 29.0591 414.862 29.0591C414.195 29.0591 413.451 29.0462 412.63 29.0204C411.809 28.9946 410.977 28.956 410.135 28.9044C409.326 28.8528 408.567 28.8012 407.858 28.7497C407.204 28.7239 406.666 28.6981 406.245 28.6723C405.857 28.6465 405.663 28.6336 405.663 28.6336L390.936 1.55699H396.386L402.442 12.7357H408.942ZM415.701 21.9031L414.093 18.9634C413.897 18.6024 413.671 18.3058 413.414 18.0737C413.169 17.8158 412.894 17.6224 412.589 17.4935C412.295 17.3388 411.978 17.2356 411.635 17.1841C411.293 17.1325 410.939 17.1067 410.572 17.1067H404.822L409.103 24.9589C409.103 24.9589 409.181 24.9718 409.335 24.9976C409.502 24.9976 409.712 25.0105 409.967 25.0363C410.2 25.0363 410.461 25.0492 410.749 25.075C411.049 25.075 411.326 25.0879 411.58 25.1137C411.847 25.1137 412.064 25.1137 412.23 25.1137C413.364 25.1137 414.234 25.0363 414.84 24.8816C415.447 24.7268 415.851 24.5076 416.052 24.224C416.253 23.9403 416.311 23.6051 416.228 23.2183C416.144 22.8315 415.969 22.3931 415.701 21.9031Z" fill="#DEF37B"/>
</g>
<defs>
<clipPath id="clip0_395_721">
<rect width="445" height="33" fill="white" transform="translate(0.5 0.5)"/>
</clipPath>
</defs>
</svg>
