<svg width="248" height="22" viewBox="0 0 248 22" fill="none" xmlns="http://www.w3.org/2000/svg">
<g clip-path="url(#clip0_395_659)">
<path d="M8.2944 7.0481C7.27631 5.20689 7.16879 3.80793 7.97184 2.85122C8.76011 1.87646 10.3093 1.38908 12.6192 1.38908C14.9526 1.38908 17.0528 1.93061 18.9199 3.01368C20.8103 4.09675 22.235 5.52278 23.194 7.29179L27.7906 15.7668C28.3892 16.8679 28.6011 17.8246 28.4265 18.6369C28.2604 19.4312 27.7481 20.0449 26.8896 20.4781C26.0163 20.8933 24.833 21.1009 23.3397 21.1009C21.963 21.1009 20.5956 20.8843 19.2374 20.4511C17.9025 20.0178 16.6925 19.3951 15.6071 18.5828C14.507 17.7524 13.6281 16.7506 12.9704 15.5773L8.2944 7.0481ZM16.7293 15.2523C17.039 15.83 17.4223 16.3264 17.879 16.7415C18.3358 17.1567 18.8702 17.4816 19.4824 17.7163C20.1032 17.9329 20.7986 18.0412 21.5686 18.0412C22.3152 18.0412 22.8841 17.9239 23.2753 17.6892C23.6664 17.4546 23.8829 17.1206 23.9247 16.6874C23.9665 16.2542 23.8282 15.7578 23.5099 15.1982L19.615 8.04994C19.1892 7.27374 18.746 6.63293 18.2853 6.12749C17.8099 5.60401 17.2587 5.21591 16.6317 4.9632C15.9899 4.69243 15.214 4.55705 14.304 4.55705C13.5107 4.55705 12.9259 4.68341 12.5495 4.93612C12.1965 5.18884 12.0477 5.57694 12.1032 6.10042C12.1438 6.60585 12.377 7.24666 12.8028 8.02286L16.7293 15.2523ZM36.6699 1.84938L49.4014 15.1711L47.7299 1.84938H51.6149L61.9244 20.803H58.0744L52.5764 10.7576L53.9444 20.803H51.0394L41.5036 10.7847L46.9794 20.803H43.0944L32.7849 1.84938H36.6699ZM64.8668 20.803L54.5574 1.84938H66.2824L67.9169 4.82781H60.0419L62.6502 9.59331H67.4452L68.1989 12.4364H64.1739L67.2469 18.0683H75.0519L76.5218 20.803H64.8668ZM76.577 1.84938C77.487 1.84938 78.4433 1.94866 79.446 2.14722C80.472 2.34579 81.4879 2.68876 82.4937 3.17614C83.4996 3.66352 84.4698 4.34946 85.4043 5.23396C86.3239 6.10042 87.1442 7.20154 87.8649 8.53732C88.6659 9.99946 89.0934 11.1908 89.1474 12.1114C89.2248 13.032 89.0197 13.736 88.5323 14.2234C88.0681 14.7108 87.4317 15.0447 86.6229 15.2253C85.814 15.4058 84.943 15.496 84.0096 15.496H80.2296L83.1415 20.803H79.2565L68.947 1.84938H76.577ZM78.706 12.653H81.016C81.926 12.653 82.6823 12.6078 83.2851 12.5176C83.8878 12.4273 84.3233 12.2468 84.5915 11.9761C84.8683 11.6872 84.9599 11.2721 84.8663 10.7305C84.7728 10.189 84.4773 9.45793 83.9799 8.53732C83.5184 7.68892 83.053 7.02103 82.5838 6.53365C82.0998 6.02821 81.575 5.65817 81.0095 5.4235C80.4525 5.17079 79.8294 5.00833 79.1403 4.93612C78.4512 4.86392 77.6516 4.82781 76.7416 4.82781H74.4316L78.706 12.653ZM89.4028 7.0481C88.3847 5.20689 88.2772 3.80793 89.0802 2.85122C89.8685 1.87646 91.4176 1.38908 93.7276 1.38908C96.061 1.38908 98.1612 1.93061 100.028 3.01368C101.919 4.09675 103.343 5.52278 104.302 7.29179L108.899 15.7668C109.498 16.8679 109.71 17.8246 109.535 18.6369C109.369 19.4312 108.856 20.0449 107.998 20.4781C107.125 20.8933 105.941 21.1009 104.448 21.1009C103.071 21.1009 101.704 20.8843 100.346 20.4511C99.0109 20.0178 97.8009 19.3951 96.7155 18.5828C95.6154 17.7524 94.7365 16.7506 94.0788 15.5773L89.4028 7.0481ZM97.8376 15.2523C98.1474 15.83 98.5307 16.3264 98.9874 16.7415C99.4442 17.1567 99.9786 17.4816 100.591 17.7163C101.212 17.9329 101.907 18.0412 102.677 18.0412C103.424 18.0412 103.993 17.9239 104.384 17.6892C104.775 17.4546 104.991 17.1206 105.033 16.6874C105.075 16.2542 104.937 15.7578 104.618 15.1982L100.723 8.04994C100.298 7.27374 99.8544 6.63293 99.3937 6.12749C98.9183 5.60401 98.3671 5.21591 97.7401 4.9632C97.0983 4.69243 96.3224 4.55705 95.4124 4.55705C94.6191 4.55705 94.0343 4.68341 93.6579 4.93612C93.3049 5.18884 93.1561 5.57694 93.2116 6.10042C93.2522 6.60585 93.4854 7.24666 93.9112 8.02286L97.8376 15.2523ZM125.628 20.803L116.953 4.82781H109.568L118.278 20.803H114.393L104.084 1.84938H119.169L129.513 20.803H125.628ZM129.761 1.84938C130.671 1.84938 131.627 1.94866 132.63 2.14722C133.656 2.34579 134.671 2.68876 135.677 3.17614C136.683 3.66352 137.653 4.34946 138.588 5.23396C139.508 6.10042 140.328 7.20154 141.049 8.53732C141.849 9.99946 142.277 11.1908 142.331 12.1114C142.408 13.032 142.203 13.736 141.716 14.2234C141.252 14.7108 140.615 15.0447 139.806 15.2253C138.998 15.4058 138.127 15.496 137.193 15.496H133.413L136.325 20.803H132.44L122.131 1.84938H129.761ZM131.89 12.653H134.2C135.11 12.653 135.866 12.6078 136.469 12.5176C137.071 12.4273 137.507 12.2468 137.775 11.9761C138.052 11.6872 138.143 11.2721 138.05 10.7305C137.956 10.189 137.661 9.45793 137.164 8.53732C136.702 7.68892 136.237 7.02103 135.767 6.53365C135.283 6.02821 134.759 5.65817 134.193 5.4235C133.636 5.17079 133.013 5.00833 132.324 4.93612C131.635 4.86392 130.835 4.82781 129.925 4.82781H127.615L131.89 12.653ZM139.938 1.84938H143.858L151.063 15.0899L153.343 1.84938H157.228L167.538 20.803H163.653L156.675 7.96871L154.168 20.803H150.248L139.938 1.84938ZM167.978 1.84938H175.608L185.917 20.803H182.032L179.155 15.496H175.41C175.27 15.496 175.13 15.496 174.99 15.496C174.85 15.496 174.71 15.496 174.57 15.496C174.43 15.496 174.283 15.487 174.128 15.4689L174.612 20.803H170.482L170.075 14.4942C169.357 14.1873 168.632 13.7721 167.899 13.2487C167.191 12.7252 166.495 12.0753 165.813 11.2991C165.154 10.5229 164.528 9.60233 163.936 8.53732C163.215 7.20154 162.838 6.10042 162.805 5.23396C162.78 4.34946 163 3.66352 163.464 3.17614C163.952 2.68876 164.593 2.34579 165.387 2.14722C166.204 1.94866 167.068 1.84938 167.978 1.84938ZM175.287 12.653H177.597L173.322 4.82781H171.012C170.102 4.82781 169.338 4.86392 168.721 4.93612C168.127 5.00833 167.688 5.17079 167.405 5.4235C167.107 5.65817 166.99 6.02821 167.054 6.53365C167.127 7.02103 167.394 7.68892 167.856 8.53732C168.376 9.45793 168.882 10.189 169.372 10.7305C169.862 11.2721 170.389 11.6872 170.952 11.9761C171.524 12.2468 172.162 12.4273 172.866 12.5176C173.57 12.6078 174.377 12.653 175.287 12.653ZM187.719 4.85489L196.406 20.803H192.521L183.869 4.85489H178.759L177.137 1.84938H191.277L192.899 4.85489H187.719ZM193.224 1.84938H197.144L204.349 15.0899L206.629 1.84938H210.514L220.824 20.803H216.939L209.962 7.96871L207.454 20.803H203.534L193.224 1.84938ZM213.459 1.84938H217.379L224.584 15.0899L226.864 1.84938H230.749L241.058 20.803H237.173L230.196 7.96871L227.688 20.803H223.768L213.459 1.84938Z" fill="white"/>
</g>
<defs>
<clipPath id="clip0_395_659">
<rect width="247" height="21" fill="white" transform="translate(0.5 0.5)"/>
</clipPath>
</defs>
</svg>
