<svg width="286" height="33" viewBox="0 0 286 33" fill="none" xmlns="http://www.w3.org/2000/svg">
<path d="M39.2343 27.9901L26.8416 5.16834H16.2916L28.7343 27.9901H23.1843L8.45654 0.913436H30.0066L44.7843 27.9901H39.2343ZM73.0156 27.9901H66.4156L60.536 20.8728H52.486L54.3656 27.9901H48.1156L41.8878 0.913436H49.6378L73.0156 27.9901ZM51.3791 16.3471H56.8291L48.6684 6.44481L51.3791 16.3471ZM72.3839 0.913436C73.6839 0.913436 75.0501 1.05526 76.4824 1.33892C77.9481 1.62258 79.3994 2.11254 80.8363 2.8088C82.2733 3.50506 83.6593 4.48497 84.9942 5.74855C86.3081 6.98634 87.4798 8.55937 88.5095 10.4676C89.6537 12.5564 90.2644 14.2583 90.3416 15.5735C90.4521 16.8886 90.1592 17.8943 89.4628 18.5906C88.7998 19.2868 87.8905 19.7639 86.7351 20.0218C85.5796 20.2797 84.3352 20.4086 83.0019 20.4086H77.6019L81.7617 27.9901H76.2117L61.4839 0.913436H72.3839ZM75.4252 16.3471H78.7252C80.0252 16.3471 81.1058 16.2826 81.9668 16.1537C82.8279 16.0248 83.45 15.7669 83.8332 15.3801C84.2286 14.9675 84.3594 14.3744 84.2258 13.6007C84.0921 12.8271 83.67 11.7827 82.9595 10.4676C82.3001 9.25563 81.6353 8.3015 80.965 7.60524C80.2736 6.88319 79.5239 6.35455 78.716 6.01932C77.9203 5.6583 77.0302 5.42621 76.0457 5.32306C75.0612 5.21991 73.919 5.16834 72.619 5.16834H69.319L75.4252 16.3471ZM125.701 27.9901H119.101L113.221 20.8728H105.171L107.051 27.9901H100.801L94.5734 0.913436H102.323L125.701 27.9901ZM104.065 16.3471H109.515L101.354 6.44481L104.065 16.3471ZM150.444 23.7738H153.544L158.055 32.0902H153.455L150.229 28.0287H133.179L134.305 32.0902H129.705L125.194 23.7738H127.994L125.65 6.44481C125.576 5.82591 125.526 5.19413 125.498 4.54944C125.482 3.87897 125.619 3.27297 125.908 2.73144C126.177 2.16412 126.707 1.71284 127.5 1.3776C128.292 1.04237 129.438 0.874756 130.938 0.874756H138.038L150.444 23.7738ZM144.894 23.7738L134.466 4.51076H133.766C133.232 4.51076 132.758 4.56234 132.343 4.66548C131.939 4.74285 131.631 4.93625 131.418 5.2457C131.217 5.52936 131.164 5.99353 131.258 6.63821L133.844 23.7738H144.894ZM158.389 27.9901L143.662 0.913436H160.412L162.747 5.16834H151.497L155.223 11.9761H162.073L163.149 16.0376H157.399L161.789 24.0833H172.939L175.039 27.9901H158.389ZM178.946 27.9901L164.218 0.913436H180.968L183.303 5.16834H172.053L175.779 11.9761H182.629L183.706 16.0376H177.956L182.346 24.0833H193.496L195.596 27.9901H178.946ZM193.975 0.913436C196.175 0.913436 198.234 1.20999 200.154 1.80309C202.073 2.3962 203.759 3.23429 205.213 4.31736C206.7 5.40042 207.835 6.664 208.618 8.10809C209.051 8.88171 209.305 9.57797 209.379 10.1968C209.452 10.8157 209.373 11.3701 209.141 11.8601C208.909 12.3501 208.545 12.8013 208.05 13.2139C209.016 13.4976 210.052 13.9489 211.159 14.5678C212.299 15.1867 213.383 15.9603 214.41 16.8886C215.416 17.7912 216.238 18.8356 216.876 20.0218C217.752 21.6206 218.103 23.026 217.929 24.238C217.768 25.4242 217.078 26.3526 215.861 27.023C214.622 27.6677 212.836 27.9901 210.503 27.9901H199.503L184.775 0.913436H193.975ZM198.736 11.9761C200.036 11.9761 201.035 11.873 201.733 11.6667C202.442 11.4346 202.853 11.0607 202.964 10.545C203.054 10.0034 202.845 9.28141 202.34 8.37886C201.918 7.57945 201.384 6.94766 200.737 6.48349C200.124 6.01932 199.382 5.68408 198.513 5.47779C197.644 5.27149 196.643 5.16834 195.51 5.16834H192.61L196.336 11.9761H198.736ZM206.871 24.0446C207.704 24.0446 208.52 23.9415 209.318 23.7352C210.094 23.5031 210.639 23.0905 210.954 22.4974C211.268 21.9043 211.121 21.0533 210.513 19.9444C210.028 19.0677 209.403 18.3456 208.638 17.7783C207.874 17.211 206.942 16.7855 205.843 16.5018C204.777 16.2182 203.528 16.0763 202.094 16.0763H198.544L202.871 24.0446H206.871ZM210.117 0.913436H215.717L226.009 19.8284L229.267 0.913436H234.817L249.544 27.9901H243.994L234.027 9.65533L230.444 27.9901H224.844L210.117 0.913436ZM260.323 0.913436L275.051 27.9901H269.501L263.643 17.2368C263.239 17.5978 262.765 17.8943 262.222 18.1264C261.691 18.3327 261.09 18.4745 260.42 18.5519C259.783 18.6293 259.082 18.668 258.315 18.668C256.215 18.668 254.191 18.3327 252.241 17.6622C250.292 16.9918 248.555 16.0505 247.029 14.8385C245.481 13.6007 244.244 12.1309 243.317 10.4289L238.123 0.913436H243.673L248.632 10.0808C249.189 11.0865 249.863 11.9504 250.654 12.6724C251.458 13.3687 252.374 13.8973 253.403 14.2583C254.466 14.6193 255.68 14.7999 257.047 14.7999C257.747 14.7999 258.362 14.6967 258.893 14.4904C259.403 14.2583 259.81 13.9618 260.115 13.6007C260.398 13.2139 260.539 12.7756 260.538 12.2856C260.57 11.7956 260.43 11.2799 260.12 10.7384L254.773 0.913436H260.323Z" fill="#DEF37B"/>
</svg>
