<svg width="184" height="29" viewBox="0 0 184 29" fill="none" xmlns="http://www.w3.org/2000/svg">
<path d="M48.8055 27.9903H42.2055L36.3259 20.873H28.2759L30.1555 27.9903H23.9055L17.6777 0.913574H25.4277L48.8055 27.9903ZM27.1691 16.3473H32.6191L24.4583 6.44495L27.1691 16.3473ZM48.2279 10.1197L51.0875 0.913574H57.8875L54.0571 12.1698L74.6153 27.9903H67.9153L52.8986 15.8831L52.3694 17.7398L57.9153 27.9903H52.0153L37.2875 0.913574H43.1875L48.2279 10.1197ZM79.7324 0.913574H86.0824L85.8296 22.4589C85.8167 23.542 85.706 24.4445 85.4974 25.1666C85.2888 25.8886 84.9685 26.4946 84.5364 26.9846C84.0833 27.4487 83.4896 27.8226 82.7552 28.1063C82.0542 28.39 81.1882 28.6349 80.1572 28.8412L76.628 26.7912C77.1957 26.5075 77.7117 26.2625 78.1761 26.0562C78.6526 25.8241 79.0281 25.4889 79.3023 25.0505C79.5555 24.5863 79.6896 23.9159 79.7048 23.0391L79.7123 17.0049L61.3324 0.913574H67.0824L79.7322 12.6339L79.7324 0.913574ZM99.3265 0.913574H106.426L121.186 28.0289H115.636L102.855 4.54958H102.155C101.555 4.54958 101.064 4.60116 100.681 4.70431C100.278 4.78167 100.003 4.97507 99.8567 5.28452C99.7223 5.56818 99.7025 6.03235 99.7972 6.67704L102.474 22.4589C102.723 23.903 102.78 25.0505 102.643 25.9015C102.486 26.7267 102.064 27.3714 101.378 27.8355C100.703 28.2739 99.7051 28.6221 98.383 28.8799L94.4539 26.8298C94.9548 26.5462 95.3603 26.2883 95.6702 26.0562C96.0134 25.8241 96.2389 25.4889 96.3465 25.0505C96.4663 24.5863 96.4671 23.9159 96.349 23.0391L93.8888 6.48363C93.7819 5.86473 93.7311 5.23295 93.7364 4.58826C93.7539 3.91779 93.9075 3.31179 94.1973 2.77026C94.4993 2.20294 95.0463 1.75166 95.8384 1.41642C96.6638 1.08119 97.8265 0.913574 99.3265 0.913574ZM110.198 0.913574H115.798L126.09 19.8286L129.348 0.913574H134.898L149.625 27.9903H144.075L134.108 9.65547L130.525 27.9903H124.925L110.198 0.913574ZM160.417 0.913574L175.145 27.9903H169.595L163.737 17.237C163.333 17.598 162.859 17.8945 162.316 18.1266C161.785 18.3329 161.185 18.4747 160.515 18.5521C159.878 18.6295 159.176 18.6682 158.41 18.6682C156.31 18.6682 154.285 18.3329 152.336 17.6624C150.387 16.992 148.649 16.0507 147.123 14.8387C145.576 13.6009 144.339 12.1311 143.411 10.4291L138.217 0.913574H143.767L148.726 10.081C149.283 11.0867 149.958 11.9506 150.749 12.6726C151.553 13.3689 152.469 13.8975 153.498 14.2585C154.56 14.6195 155.775 14.8001 157.141 14.8001C157.841 14.8001 158.457 14.6969 158.988 14.4906C159.498 14.2585 159.905 13.962 160.209 13.6009C160.493 13.2141 160.633 12.7758 160.632 12.2858C160.664 11.7958 160.525 11.2801 160.215 10.7386L154.867 0.913574H160.417Z" fill="#DEF37B"/>
</svg>
