<svg width="182" height="22" viewBox="0 0 182 22" fill="none" xmlns="http://www.w3.org/2000/svg">
<g clip-path="url(#clip0_395_665)">
<path d="M28.333 20.803L19.6581 4.82781H12.2731L20.983 20.803H17.098L6.78857 1.84938H21.8736L32.218 20.803H28.333ZM32.4654 1.84938C33.3754 1.84938 34.3318 1.94866 35.3344 2.14722C36.3604 2.34579 37.3763 2.68876 38.3821 3.17614C39.388 3.66352 40.3582 4.34946 41.2927 5.23396C42.2123 6.10042 43.0326 7.20154 43.7533 8.53732C44.5543 9.99946 44.9818 11.1908 45.0358 12.1114C45.1132 13.032 44.9081 13.736 44.4207 14.2234C43.9565 14.7108 43.3201 15.0447 42.5113 15.2253C41.7024 15.4058 40.8314 15.496 39.898 15.496H36.118L39.0299 20.803H35.1449L24.8354 1.84938H32.4654ZM34.5944 12.653H36.9044C37.8144 12.653 38.5707 12.6078 39.1735 12.5176C39.7762 12.4273 40.2117 12.2468 40.4799 11.9761C40.7567 11.6872 40.8483 11.2721 40.7547 10.7305C40.6612 10.189 40.3657 9.45793 39.8683 8.53732C39.4068 7.68892 38.9414 7.02103 38.4722 6.53365C37.9882 6.02821 37.4634 5.65817 36.8979 5.4235C36.3409 5.17079 35.7178 5.00833 35.0287 4.93612C34.3396 4.86392 33.54 4.82781 32.63 4.82781H30.32L34.5944 12.653ZM45.2912 7.0481C44.2731 5.20689 44.1656 3.80793 44.9686 2.85122C45.7569 1.87646 47.306 1.38908 49.616 1.38908C51.9494 1.38908 54.0496 1.93061 55.9167 3.01368C57.8071 4.09675 59.2318 5.52278 60.1908 7.29179L64.7874 15.7668C65.386 16.8679 65.5979 17.8246 65.4233 18.6369C65.2572 19.4312 64.7449 20.0449 63.8864 20.4781C63.0131 20.8933 61.8298 21.1009 60.3365 21.1009C58.9598 21.1009 57.5924 20.8843 56.2342 20.4511C54.8993 20.0178 53.6893 19.3951 52.6039 18.5828C51.5038 17.7524 50.6249 16.7506 49.9672 15.5773L45.2912 7.0481ZM53.7261 15.2523C54.0358 15.83 54.4191 16.3264 54.8758 16.7415C55.3326 17.1567 55.867 17.4816 56.4792 17.7163C57.1 17.9329 57.7954 18.0412 58.5654 18.0412C59.312 18.0412 59.8809 17.9239 60.2721 17.6892C60.6632 17.4546 60.8797 17.1206 60.9215 16.6874C60.9633 16.2542 60.825 15.7578 60.5067 15.1982L56.6118 8.04994C56.186 7.27374 55.7428 6.63293 55.2821 6.12749C54.8067 5.60401 54.2555 5.21591 53.6285 4.9632C52.9867 4.69243 52.2108 4.55705 51.3008 4.55705C50.5075 4.55705 49.9227 4.68341 49.5463 4.93612C49.1933 5.18884 49.0445 5.57694 49.1 6.10042C49.1406 6.60585 49.3738 7.24666 49.7996 8.02286L53.7261 15.2523ZM70.2816 20.803L59.9722 1.84938H71.6972L73.3317 4.82781H65.4917L74.2016 20.803H70.2816ZM81.1373 1.84938C82.0473 1.84938 83.0036 1.94866 84.0063 2.14722C85.0322 2.34579 86.0482 2.68876 87.054 3.17614C88.0599 3.66352 89.0301 4.34946 89.9645 5.23396C90.8842 6.10042 91.7045 7.20154 92.4252 8.53732C93.2262 9.99946 93.6536 11.1908 93.7077 12.1114C93.7851 13.032 93.58 13.736 93.0926 14.2234C92.6284 14.7108 91.992 15.0447 91.1831 15.2253C90.3743 15.4058 89.5032 15.496 88.5699 15.496H84.7899L87.7018 20.803H83.8168L73.5073 1.84938H81.1373ZM83.2662 12.653H85.5762C86.4862 12.653 87.2426 12.6078 87.8454 12.5176C88.4481 12.4273 88.8836 12.2468 89.1518 11.9761C89.4286 11.6872 89.5202 11.2721 89.4266 10.7305C89.3331 10.189 89.0376 9.45793 88.5402 8.53732C88.0787 7.68892 87.6133 7.02103 87.1441 6.53365C86.6601 6.02821 86.1353 5.65817 85.5698 5.4235C85.0128 5.17079 84.3897 5.00833 83.7006 4.93612C83.0114 4.86392 82.2119 4.82781 81.3019 4.82781H78.9919L83.2662 12.653ZM118.459 20.803H113.839L109.724 15.8209H104.089L105.404 20.803H101.029L96.6699 1.84938H102.095L118.459 20.803ZM103.314 12.653H107.129L101.416 5.72134L103.314 12.653ZM114.272 1.84938L127.004 15.1711L125.332 1.84938H129.217L139.527 20.803H135.677L130.179 10.7576L131.547 20.803H128.642L119.106 10.7847L124.582 20.803H120.697L110.387 1.84938H114.272ZM136.045 1.84938L148.776 15.1711L147.105 1.84938H150.99L161.299 20.803H157.449L151.951 10.7576L153.319 20.803H150.414L140.878 10.7847L146.354 20.803H142.469L132.16 1.84938H136.045ZM181.076 20.803H176.456L172.341 15.8209H166.706L168.021 20.803H163.646L159.287 1.84938H164.712L181.076 20.803ZM165.931 12.653H169.746L164.033 5.72134L165.931 12.653Z" fill="white"/>
</g>
<defs>
<clipPath id="clip0_395_665">
<rect width="181" height="21" fill="white" transform="translate(0.5 0.5)"/>
</clipPath>
</defs>
</svg>
