<svg width="1312" height="69" viewBox="0 0 1312 69" fill="none" xmlns="http://www.w3.org/2000/svg">
<mask id="path-1-inside-1_365_609" fill="white">
<path d="M0 0.399902H1312V68.1799H0V0.399902Z"/>
</mask>
<path d="M0 1.3999H1312V-0.600098H0V1.3999Z" fill="#552BEF" mask="url(#path-1-inside-1_365_609)"/>
<path d="M9.99 20.6999C11.31 20.6999 12.4 20.9299 13.26 21.3899C14.12 21.8499 14.72 22.4999 15.06 23.3399C15.42 24.1799 15.48 25.1599 15.24 26.2799C15.12 26.8799 14.93 27.4199 14.67 27.8999C14.41 28.3799 14.09 28.8099 13.71 29.1899C13.33 29.5699 12.89 29.9199 12.39 30.2399C12.83 30.4599 13.23 30.8099 13.59 31.2899C13.97 31.7699 14.24 32.3699 14.4 33.0899C14.56 33.7899 14.54 34.5999 14.34 35.5199C14.08 36.7599 13.6 37.8499 12.9 38.7899C12.22 39.7099 11.35 40.4299 10.29 40.9499C9.23 41.4499 8 41.6999 6.6 41.6999H0L4.47 20.6999H9.99ZM7.41 29.2799C8.19 29.2799 8.84 29.1999 9.36 29.0399C9.9 28.8599 10.33 28.5699 10.65 28.1699C10.97 27.7499 11.2 27.1899 11.34 26.4899C11.48 25.8699 11.47 25.3799 11.31 25.0199C11.17 24.6599 10.89 24.3999 10.47 24.2399C10.05 24.0799 9.5 23.9999 8.82 23.9999H7.08L5.97 29.2799H7.41ZM6.36 38.6399C6.86 38.6399 7.4 38.5599 7.98 38.3999C8.56 38.2199 9.09 37.8999 9.57 37.4399C10.05 36.9799 10.38 36.3199 10.56 35.4599C10.7 34.7799 10.68 34.2199 10.5 33.7799C10.32 33.3399 9.97 33.0099 9.45 32.7899C8.95 32.5699 8.27 32.4599 7.41 32.4599H5.28L3.96 38.6399H6.36Z" fill="white"/>
<path d="M27.1751 36.1499C26.8151 37.9099 26.0651 39.3299 24.9251 40.4099C23.8051 41.4699 22.3251 41.9999 20.4851 41.9999C19.1651 41.9999 18.1451 41.7299 17.4251 41.1899C16.7251 40.6299 16.2751 39.9099 16.0751 39.0299C15.8751 38.1299 15.8751 37.1699 16.0751 36.1499L16.9451 32.1899C17.2251 30.9099 17.6651 29.8399 18.2651 28.9799C18.8851 28.1199 19.6551 27.4699 20.5751 27.0299C21.5151 26.5699 22.5951 26.3399 23.8151 26.3399C25.5551 26.3399 26.7951 26.8599 27.5351 27.8999C28.2751 28.9199 28.4451 30.3499 28.0451 32.1899L27.1751 36.1499ZM24.6851 32.0099C24.7851 31.5299 24.7951 31.1199 24.7151 30.7799C24.6351 30.4199 24.4551 30.1499 24.1751 29.9699C23.9151 29.7699 23.5451 29.6699 23.0651 29.6699C22.5851 29.6699 22.1551 29.7599 21.7751 29.9399C21.4151 30.1199 21.1051 30.3799 20.8451 30.7199C20.6051 31.0599 20.4251 31.4899 20.3051 32.0099L19.3751 36.3899C19.2951 36.7899 19.2951 37.1699 19.3751 37.5299C19.4551 37.8899 19.6351 38.1799 19.9151 38.3999C20.1951 38.6199 20.6051 38.7299 21.1451 38.7299C21.6451 38.7299 22.0651 38.6299 22.4051 38.4299C22.7651 38.2299 23.0551 37.9499 23.2751 37.5899C23.4951 37.2299 23.6551 36.8299 23.7551 36.3899L24.6851 32.0099Z" fill="white"/>
<path d="M40.1236 38.5199C40.1036 38.8399 40.1436 39.0999 40.2436 39.2999C40.3636 39.4999 40.5336 39.6799 40.7536 39.8399L38.2936 42.2099C38.3136 42.2099 38.2136 42.1599 37.9936 42.0599C37.7936 41.9599 37.5636 41.7999 37.3036 41.5799C37.0636 41.3599 36.8736 41.0599 36.7336 40.6799C36.5936 40.2799 36.5836 39.7799 36.7036 39.1799L38.7136 29.7899H33.9736L31.4536 41.6999H28.1236L31.3336 26.6699H42.6436L40.1236 38.5199Z" fill="white"/>
<path d="M54.5105 36.5699C54.2705 37.7899 53.8605 38.8199 53.2805 39.6599C52.7205 40.4999 52.0205 41.1399 51.1805 41.5799C50.3405 41.9999 49.3605 42.2099 48.2405 42.2099C48.0005 42.2099 47.7605 42.1899 47.5205 42.1499C47.2805 42.1099 47.0505 42.0599 46.8305 41.9999C46.6105 41.9399 46.4005 41.8599 46.2005 41.7599C46.0205 41.6799 45.8505 41.5899 45.6905 41.4899L44.2805 48.1799L41.1305 47.4299L44.3405 32.3399C44.7405 30.4399 45.5305 28.9899 46.7105 27.9899C47.9105 26.9699 49.4205 26.4599 51.2405 26.4599C52.9605 26.4599 54.1905 26.9799 54.9305 28.0199C55.6705 29.0599 55.8405 30.4999 55.4405 32.3399L54.5105 36.5699ZM52.1705 32.1599C52.2705 31.6799 52.2705 31.2699 52.1705 30.9299C52.0705 30.5699 51.8705 30.2899 51.5705 30.0899C51.2705 29.8899 50.8805 29.7899 50.4005 29.7899C49.9405 29.7899 49.5205 29.8799 49.1405 30.0599C48.7605 30.2399 48.4505 30.5099 48.2105 30.8699C47.9705 31.2099 47.7905 31.6399 47.6705 32.1599L46.5005 37.6499C46.4405 37.9099 46.4705 38.1399 46.5905 38.3399C46.7305 38.5399 46.9205 38.7099 47.1605 38.8499C47.4005 38.9899 47.6505 39.0899 47.9105 39.1499C48.1905 39.2099 48.4505 39.2399 48.6905 39.2399C49.1305 39.2399 49.5105 39.1499 49.8305 38.9699C50.1705 38.7899 50.4505 38.5399 50.6705 38.2199C50.8905 37.8799 51.0405 37.4799 51.1205 37.0199L52.1705 32.1599Z" fill="white"/>
<path d="M67.7805 36.1499C67.4205 37.9099 66.6705 39.3299 65.5305 40.4099C64.4105 41.4699 62.9305 41.9999 61.0905 41.9999C59.7705 41.9999 58.7505 41.7299 58.0305 41.1899C57.3305 40.6299 56.8805 39.9099 56.6805 39.0299C56.4805 38.1299 56.4805 37.1699 56.6805 36.1499L57.5505 32.1899C57.8305 30.9099 58.2705 29.8399 58.8705 28.9799C59.4905 28.1199 60.2605 27.4699 61.1805 27.0299C62.1205 26.5699 63.2005 26.3399 64.4205 26.3399C66.1605 26.3399 67.4005 26.8599 68.1405 27.8999C68.8805 28.9199 69.0506 30.3499 68.6506 32.1899L67.7805 36.1499ZM65.2906 32.0099C65.3906 31.5299 65.4005 31.1199 65.3205 30.7799C65.2405 30.4199 65.0605 30.1499 64.7805 29.9699C64.5205 29.7699 64.1505 29.6699 63.6705 29.6699C63.1905 29.6699 62.7605 29.7599 62.3805 29.9399C62.0205 30.1199 61.7105 30.3799 61.4505 30.7199C61.2105 31.0599 61.0305 31.4899 60.9105 32.0099L59.9805 36.3899C59.9005 36.7899 59.9005 37.1699 59.9805 37.5299C60.0605 37.8899 60.2405 38.1799 60.5205 38.3999C60.8005 38.6199 61.2105 38.7299 61.7505 38.7299C62.2505 38.7299 62.6705 38.6299 63.0105 38.4299C63.3705 38.2299 63.6605 37.9499 63.8805 37.5899C64.1005 37.2299 64.2606 36.8299 64.3605 36.3899L65.2906 32.0099Z" fill="white"/>
<path d="M79.9191 29.8799C79.5591 29.6799 79.1491 29.5299 78.6891 29.4299C78.2491 29.3099 77.7991 29.2399 77.3391 29.2199C76.7991 29.2199 76.2891 29.3099 75.8091 29.4899C75.3291 29.6499 74.9191 29.9199 74.5791 30.2999C74.2391 30.6599 74.0091 31.1399 73.8891 31.7399L72.8991 36.4499C72.7991 36.9099 72.7891 37.3199 72.8691 37.6799C72.9491 38.0199 73.0991 38.2999 73.3191 38.5199C73.5591 38.7399 73.8591 38.9099 74.2191 39.0299C74.5791 39.1299 74.9891 39.1799 75.4491 39.1799C75.7691 39.1799 76.0891 39.1699 76.4091 39.1499C76.7491 39.1099 77.0491 39.0699 77.3091 39.0299C77.5691 38.9699 77.7791 38.9299 77.9391 38.9099C78.0991 38.8699 78.1791 38.8499 78.1791 38.8499L78.2091 41.5499C77.5491 41.7099 76.8791 41.8399 76.1991 41.9399C75.5191 42.0399 74.8391 42.0799 74.1591 42.0599C73.0191 42.0399 72.0591 41.8299 71.2791 41.4299C70.4991 41.0299 69.9591 40.4199 69.6591 39.5999C69.3591 38.7799 69.3391 37.7399 69.5991 36.4799L70.5591 32.0999C70.8191 30.9399 71.2291 29.9199 71.7891 29.0399C72.3691 28.1599 73.1291 27.4799 74.0691 26.9999C75.0291 26.5199 76.1991 26.2999 77.5791 26.3399C78.2191 26.3599 78.8391 26.4599 79.4391 26.6399C80.0591 26.8199 80.6391 27.0499 81.1791 27.3299L79.9191 29.8799Z" fill="white"/>
<path d="M83.302 25.7099C83.482 24.7899 83.802 23.9999 84.262 23.3399C84.722 22.6599 85.252 22.1099 85.852 21.6899C86.472 21.2499 87.122 20.9299 87.802 20.7299C88.502 20.5099 89.182 20.3999 89.842 20.3999C90.622 20.3999 91.322 20.5299 91.942 20.7899C92.582 21.0499 93.112 21.4299 93.532 21.9299C93.952 22.4099 94.232 22.9999 94.372 23.6999C94.532 24.3799 94.522 25.1499 94.342 26.0099C94.222 26.6699 93.992 27.2699 93.652 27.8099C93.332 28.3299 92.942 28.8299 92.482 29.3099C92.042 29.7699 91.552 30.2399 91.012 30.7199C90.512 31.1599 90.092 31.5499 89.752 31.8899C89.412 32.2299 89.122 32.5699 88.882 32.9099C88.662 33.2299 88.472 33.5899 88.312 33.9899C88.172 34.3699 88.042 34.8299 87.922 35.3699L87.352 38.0999H84.052L84.652 35.3099C84.792 34.6699 84.982 34.0799 85.222 33.5399C85.462 32.9999 85.742 32.4999 86.062 32.0399C86.382 31.5799 86.712 31.1599 87.052 30.7799C87.412 30.3799 87.772 30.0099 88.132 29.6699C88.592 29.2299 89.022 28.8099 89.422 28.4099C89.822 27.9899 90.162 27.5799 90.442 27.1799C90.742 26.7599 90.942 26.3299 91.042 25.8899C91.122 25.4899 91.102 25.1099 90.982 24.7499C90.862 24.3899 90.652 24.0999 90.352 23.8799C90.052 23.6599 89.662 23.5499 89.182 23.5499C88.922 23.5499 88.662 23.5999 88.402 23.6999C88.142 23.7799 87.892 23.9099 87.652 24.0899C87.432 24.2699 87.232 24.4999 87.052 24.7799C86.892 25.0399 86.772 25.3499 86.692 25.7099H83.302ZM85.612 38.5799C86.112 38.5799 86.492 38.7599 86.752 39.1199C87.012 39.4599 87.092 39.8899 86.992 40.4099C86.892 40.9099 86.632 41.3399 86.212 41.6999C85.792 42.0399 85.332 42.2099 84.832 42.2099C84.332 42.2099 83.942 42.0399 83.662 41.6999C83.402 41.3399 83.322 40.9099 83.422 40.4099C83.522 39.8899 83.782 39.4599 84.202 39.1199C84.642 38.7599 85.112 38.5799 85.612 38.5799Z" fill="white"/>
</svg>
