<svg width="95" height="29" viewBox="0 0 95 29" fill="none" xmlns="http://www.w3.org/2000/svg">
<path d="M9.99 0.909863C11.31 0.909863 12.4 1.13986 13.26 1.59986C14.12 2.05986 14.72 2.70986 15.06 3.54986C15.42 4.38986 15.48 5.36986 15.24 6.48986C15.12 7.08986 14.93 7.62986 14.67 8.10986C14.41 8.58986 14.09 9.01986 13.71 9.39986C13.33 9.77986 12.89 10.1299 12.39 10.4499C12.83 10.6699 13.23 11.0199 13.59 11.4999C13.97 11.9799 14.24 12.5799 14.4 13.2999C14.56 13.9999 14.54 14.8099 14.34 15.7299C14.08 16.9699 13.6 18.0599 12.9 18.9999C12.22 19.9199 11.35 20.6399 10.29 21.1599C9.23 21.6599 8 21.9099 6.6 21.9099H0L4.47 0.909863H9.99ZM7.41 9.48986C8.19 9.48986 8.84 9.40986 9.36 9.24986C9.9 9.06986 10.33 8.77986 10.65 8.37986C10.97 7.95986 11.2 7.39986 11.34 6.69986C11.48 6.07986 11.47 5.58986 11.31 5.22986C11.17 4.86986 10.89 4.60986 10.47 4.44986C10.05 4.28986 9.5 4.20986 8.82 4.20986H7.08L5.97 9.48986H7.41ZM6.36 18.8499C6.86 18.8499 7.4 18.7699 7.98 18.6099C8.56 18.4299 9.09 18.1099 9.57 17.6499C10.05 17.1899 10.38 16.5299 10.56 15.6699C10.7 14.9899 10.68 14.4299 10.5 13.9899C10.32 13.5499 9.97 13.2199 9.45 12.9999C8.95 12.7799 8.27 12.6699 7.41 12.6699H5.28L3.96 18.8499H6.36Z" fill="white"/>
<path d="M27.1751 16.3599C26.8151 18.1199 26.0651 19.5399 24.9251 20.6199C23.8051 21.6799 22.3251 22.2099 20.4851 22.2099C19.1651 22.2099 18.1451 21.9399 17.4251 21.3999C16.7251 20.8399 16.2751 20.1199 16.0751 19.2399C15.8751 18.3399 15.8751 17.3799 16.0751 16.3599L16.9451 12.3999C17.2251 11.1199 17.6651 10.0499 18.2651 9.18986C18.8851 8.32986 19.6551 7.67986 20.5751 7.23986C21.5151 6.77986 22.5951 6.54986 23.8151 6.54986C25.5551 6.54986 26.7951 7.06986 27.5351 8.10986C28.2751 9.12986 28.4451 10.5599 28.0451 12.3999L27.1751 16.3599ZM24.6851 12.2199C24.7851 11.7399 24.7951 11.3299 24.7151 10.9899C24.6351 10.6299 24.4551 10.3599 24.1751 10.1799C23.9151 9.97986 23.5451 9.87986 23.0651 9.87986C22.5851 9.87986 22.1551 9.96986 21.7751 10.1499C21.4151 10.3299 21.1051 10.5899 20.8451 10.9299C20.6051 11.2699 20.4251 11.6999 20.3051 12.2199L19.3751 16.5999C19.2951 16.9999 19.2951 17.3799 19.3751 17.7399C19.4551 18.0999 19.6351 18.3899 19.9151 18.6099C20.1951 18.8299 20.6051 18.9399 21.1451 18.9399C21.6451 18.9399 22.0651 18.8399 22.4051 18.6399C22.7651 18.4399 23.0551 18.1599 23.2751 17.7999C23.4951 17.4399 23.6551 17.0399 23.7551 16.5999L24.6851 12.2199Z" fill="white"/>
<path d="M40.1236 18.7299C40.1036 19.0499 40.1436 19.3099 40.2436 19.5099C40.3636 19.7099 40.5336 19.8899 40.7536 20.0499L38.2936 22.4199C38.3136 22.4199 38.2136 22.3699 37.9936 22.2699C37.7936 22.1699 37.5636 22.0099 37.3036 21.7899C37.0636 21.5699 36.8736 21.2699 36.7336 20.8899C36.5936 20.4899 36.5836 19.9899 36.7036 19.3899L38.7136 9.99986H33.9736L31.4536 21.9099H28.1236L31.3336 6.87986H42.6436L40.1236 18.7299Z" fill="white"/>
<path d="M54.5105 16.7799C54.2705 17.9999 53.8605 19.0299 53.2805 19.8699C52.7205 20.7099 52.0205 21.3499 51.1805 21.7899C50.3405 22.2099 49.3605 22.4199 48.2405 22.4199C48.0005 22.4199 47.7605 22.3999 47.5205 22.3599C47.2805 22.3199 47.0505 22.2699 46.8305 22.2099C46.6105 22.1499 46.4005 22.0699 46.2005 21.9699C46.0205 21.8899 45.8505 21.7999 45.6905 21.6999L44.2805 28.3899L41.1305 27.6399L44.3405 12.5499C44.7405 10.6499 45.5305 9.19986 46.7105 8.19986C47.9105 7.17986 49.4205 6.66986 51.2405 6.66986C52.9605 6.66986 54.1905 7.18986 54.9305 8.22986C55.6705 9.26986 55.8405 10.7099 55.4405 12.5499L54.5105 16.7799ZM52.1705 12.3699C52.2705 11.8899 52.2705 11.4799 52.1705 11.1399C52.0705 10.7799 51.8705 10.4999 51.5705 10.2999C51.2705 10.0999 50.8805 9.99986 50.4005 9.99986C49.9405 9.99986 49.5205 10.0899 49.1405 10.2699C48.7605 10.4499 48.4505 10.7199 48.2105 11.0799C47.9705 11.4199 47.7905 11.8499 47.6705 12.3699L46.5005 17.8599C46.4405 18.1199 46.4705 18.3499 46.5905 18.5499C46.7305 18.7499 46.9205 18.9199 47.1605 19.0599C47.4005 19.1999 47.6505 19.2999 47.9105 19.3599C48.1905 19.4199 48.4505 19.4499 48.6905 19.4499C49.1305 19.4499 49.5105 19.3599 49.8305 19.1799C50.1705 18.9999 50.4505 18.7499 50.6705 18.4299C50.8905 18.0899 51.0405 17.6899 51.1205 17.2299L52.1705 12.3699Z" fill="white"/>
<path d="M67.7805 16.3599C67.4205 18.1199 66.6705 19.5399 65.5305 20.6199C64.4105 21.6799 62.9305 22.2099 61.0905 22.2099C59.7705 22.2099 58.7505 21.9399 58.0305 21.3999C57.3305 20.8399 56.8805 20.1199 56.6805 19.2399C56.4805 18.3399 56.4805 17.3799 56.6805 16.3599L57.5505 12.3999C57.8305 11.1199 58.2705 10.0499 58.8705 9.18986C59.4905 8.32986 60.2605 7.67986 61.1805 7.23986C62.1205 6.77986 63.2005 6.54986 64.4205 6.54986C66.1605 6.54986 67.4005 7.06986 68.1405 8.10986C68.8805 9.12986 69.0506 10.5599 68.6506 12.3999L67.7805 16.3599ZM65.2906 12.2199C65.3906 11.7399 65.4005 11.3299 65.3205 10.9899C65.2405 10.6299 65.0605 10.3599 64.7805 10.1799C64.5205 9.97986 64.1505 9.87986 63.6705 9.87986C63.1905 9.87986 62.7605 9.96986 62.3805 10.1499C62.0205 10.3299 61.7105 10.5899 61.4505 10.9299C61.2105 11.2699 61.0305 11.6999 60.9105 12.2199L59.9805 16.5999C59.9005 16.9999 59.9005 17.3799 59.9805 17.7399C60.0605 18.0999 60.2405 18.3899 60.5205 18.6099C60.8005 18.8299 61.2105 18.9399 61.7505 18.9399C62.2505 18.9399 62.6705 18.8399 63.0105 18.6399C63.3705 18.4399 63.6605 18.1599 63.8805 17.7999C64.1005 17.4399 64.2606 17.0399 64.3605 16.5999L65.2906 12.2199Z" fill="white"/>
<path d="M79.9191 10.0899C79.5591 9.88986 79.1491 9.73986 78.6891 9.63986C78.2491 9.51986 77.7991 9.44986 77.3391 9.42986C76.7991 9.42986 76.2891 9.51986 75.8091 9.69986C75.3291 9.85986 74.9191 10.1299 74.5791 10.5099C74.2391 10.8699 74.0091 11.3499 73.8891 11.9499L72.8991 16.6599C72.7991 17.1199 72.7891 17.5299 72.8691 17.8899C72.9491 18.2299 73.0991 18.5099 73.3191 18.7299C73.5591 18.9499 73.8591 19.1199 74.2191 19.2399C74.5791 19.3399 74.9891 19.3899 75.4491 19.3899C75.7691 19.3899 76.0891 19.3799 76.4091 19.3599C76.7491 19.3199 77.0491 19.2799 77.3091 19.2399C77.5691 19.1799 77.7791 19.1399 77.9391 19.1199C78.0991 19.0799 78.1791 19.0599 78.1791 19.0599L78.2091 21.7599C77.5491 21.9199 76.8791 22.0499 76.1991 22.1499C75.5191 22.2499 74.8391 22.2899 74.1591 22.2699C73.0191 22.2499 72.0591 22.0399 71.2791 21.6399C70.4991 21.2399 69.9591 20.6299 69.6591 19.8099C69.3591 18.9899 69.3391 17.9499 69.5991 16.6899L70.5591 12.3099C70.8191 11.1499 71.2291 10.1299 71.7891 9.24986C72.3691 8.36986 73.1291 7.68986 74.0691 7.20986C75.0291 6.72986 76.1991 6.50986 77.5791 6.54986C78.2191 6.56986 78.8391 6.66986 79.4391 6.84986C80.0591 7.02986 80.6391 7.25986 81.1791 7.53986L79.9191 10.0899Z" fill="white"/>
<path d="M83.302 5.91986C83.482 4.99986 83.802 4.20986 84.262 3.54986C84.722 2.86986 85.252 2.31986 85.852 1.89986C86.472 1.45986 87.122 1.13986 87.802 0.939863C88.502 0.719863 89.182 0.609863 89.842 0.609863C90.622 0.609863 91.322 0.739863 91.942 0.999864C92.582 1.25986 93.112 1.63986 93.532 2.13986C93.952 2.61986 94.232 3.20986 94.372 3.90986C94.532 4.58986 94.522 5.35986 94.342 6.21986C94.222 6.87986 93.992 7.47986 93.652 8.01986C93.332 8.53986 92.942 9.03986 92.482 9.51986C92.042 9.97986 91.552 10.4499 91.012 10.9299C90.512 11.3699 90.092 11.7599 89.752 12.0999C89.412 12.4399 89.122 12.7799 88.882 13.1199C88.662 13.4399 88.472 13.7999 88.312 14.1999C88.172 14.5799 88.042 15.0399 87.922 15.5799L87.352 18.3099H84.052L84.652 15.5199C84.792 14.8799 84.982 14.2899 85.222 13.7499C85.462 13.2099 85.742 12.7099 86.062 12.2499C86.382 11.7899 86.712 11.3699 87.052 10.9899C87.412 10.5899 87.772 10.2199 88.132 9.87986C88.592 9.43986 89.022 9.01986 89.422 8.61986C89.822 8.19986 90.162 7.78986 90.442 7.38986C90.742 6.96986 90.942 6.53986 91.042 6.09986C91.122 5.69986 91.102 5.31986 90.982 4.95986C90.862 4.59986 90.652 4.30986 90.352 4.08986C90.052 3.86986 89.662 3.75986 89.182 3.75986C88.922 3.75986 88.662 3.80986 88.402 3.90986C88.142 3.98986 87.892 4.11986 87.652 4.29986C87.432 4.47986 87.232 4.70986 87.052 4.98986C86.892 5.24986 86.772 5.55986 86.692 5.91986H83.302ZM85.612 18.7899C86.112 18.7899 86.492 18.9699 86.752 19.3299C87.012 19.6699 87.092 20.0999 86.992 20.6199C86.892 21.1199 86.632 21.5499 86.212 21.9099C85.792 22.2499 85.332 22.4199 84.832 22.4199C84.332 22.4199 83.942 22.2499 83.662 21.9099C83.402 21.5499 83.322 21.1199 83.422 20.6199C83.522 20.0999 83.782 19.6699 84.202 19.3299C84.642 18.9699 85.112 18.7899 85.612 18.7899Z" fill="white"/>
</svg>
