<svg width="95" height="29" viewBox="0 0 95 29" fill="none" xmlns="http://www.w3.org/2000/svg">
<path d="M9.99 1.08467C11.31 1.08467 12.4 1.31467 13.26 1.77467C14.12 2.23467 14.72 2.88467 15.06 3.72467C15.42 4.56467 15.48 5.54467 15.24 6.66467C15.12 7.26467 14.93 7.80467 14.67 8.28467C14.41 8.76467 14.09 9.19467 13.71 9.57467C13.33 9.95467 12.89 10.3047 12.39 10.6247C12.83 10.8447 13.23 11.1947 13.59 11.6747C13.97 12.1547 14.24 12.7547 14.4 13.4747C14.56 14.1747 14.54 14.9847 14.34 15.9047C14.08 17.1447 13.6 18.2347 12.9 19.1747C12.22 20.0947 11.35 20.8147 10.29 21.3347C9.23 21.8347 8 22.0847 6.6 22.0847H0L4.47 1.08467H9.99ZM7.41 9.66467C8.19 9.66467 8.84 9.58467 9.36 9.42467C9.9 9.24467 10.33 8.95467 10.65 8.55467C10.97 8.13467 11.2 7.57467 11.34 6.87467C11.48 6.25467 11.47 5.76467 11.31 5.40467C11.17 5.04467 10.89 4.78467 10.47 4.62467C10.05 4.46467 9.5 4.38467 8.82 4.38467H7.08L5.97 9.66467H7.41ZM6.36 19.0247C6.86 19.0247 7.4 18.9447 7.98 18.7847C8.56 18.6047 9.09 18.2847 9.57 17.8247C10.05 17.3647 10.38 16.7047 10.56 15.8447C10.7 15.1647 10.68 14.6047 10.5 14.1647C10.32 13.7247 9.97 13.3947 9.45 13.1747C8.95 12.9547 8.27 12.8447 7.41 12.8447H5.28L3.96 19.0247H6.36Z" fill="white"/>
<path d="M27.1751 16.5347C26.8151 18.2947 26.0651 19.7147 24.9251 20.7947C23.8051 21.8547 22.3251 22.3847 20.4851 22.3847C19.1651 22.3847 18.1451 22.1147 17.4251 21.5747C16.7251 21.0147 16.2751 20.2947 16.0751 19.4147C15.8751 18.5147 15.8751 17.5547 16.0751 16.5347L16.9451 12.5747C17.2251 11.2947 17.6651 10.2247 18.2651 9.36467C18.8851 8.50467 19.6551 7.85467 20.5751 7.41467C21.5151 6.95467 22.5951 6.72467 23.8151 6.72467C25.5551 6.72467 26.7951 7.24467 27.5351 8.28467C28.2751 9.30467 28.4451 10.7347 28.0451 12.5747L27.1751 16.5347ZM24.6851 12.3947C24.7851 11.9147 24.7951 11.5047 24.7151 11.1647C24.6351 10.8047 24.4551 10.5347 24.1751 10.3547C23.9151 10.1547 23.5451 10.0547 23.0651 10.0547C22.5851 10.0547 22.1551 10.1447 21.7751 10.3247C21.4151 10.5047 21.1051 10.7647 20.8451 11.1047C20.6051 11.4447 20.4251 11.8747 20.3051 12.3947L19.3751 16.7747C19.2951 17.1747 19.2951 17.5547 19.3751 17.9147C19.4551 18.2747 19.6351 18.5647 19.9151 18.7847C20.1951 19.0047 20.6051 19.1147 21.1451 19.1147C21.6451 19.1147 22.0651 19.0147 22.4051 18.8147C22.7651 18.6147 23.0551 18.3347 23.2751 17.9747C23.4951 17.6147 23.6551 17.2147 23.7551 16.7747L24.6851 12.3947Z" fill="white"/>
<path d="M40.1236 18.9047C40.1036 19.2247 40.1436 19.4847 40.2436 19.6847C40.3636 19.8847 40.5336 20.0647 40.7536 20.2247L38.2936 22.5947C38.3136 22.5947 38.2136 22.5447 37.9936 22.4447C37.7936 22.3447 37.5636 22.1847 37.3036 21.9647C37.0636 21.7447 36.8736 21.4447 36.7336 21.0647C36.5936 20.6647 36.5836 20.1647 36.7036 19.5647L38.7136 10.1747H33.9736L31.4536 22.0847H28.1236L31.3336 7.05467H42.6436L40.1236 18.9047Z" fill="white"/>
<path d="M54.5105 16.9547C54.2705 18.1747 53.8605 19.2047 53.2805 20.0447C52.7205 20.8847 52.0205 21.5247 51.1805 21.9647C50.3405 22.3847 49.3605 22.5947 48.2405 22.5947C48.0005 22.5947 47.7605 22.5747 47.5205 22.5347C47.2805 22.4947 47.0505 22.4447 46.8305 22.3847C46.6105 22.3247 46.4005 22.2447 46.2005 22.1447C46.0205 22.0647 45.8505 21.9747 45.6905 21.8747L44.2805 28.5647L41.1305 27.8147L44.3405 12.7247C44.7405 10.8247 45.5305 9.37467 46.7105 8.37467C47.9105 7.35467 49.4205 6.84467 51.2405 6.84467C52.9605 6.84467 54.1905 7.36467 54.9305 8.40467C55.6705 9.44467 55.8405 10.8847 55.4405 12.7247L54.5105 16.9547ZM52.1705 12.5447C52.2705 12.0647 52.2705 11.6547 52.1705 11.3147C52.0705 10.9547 51.8705 10.6747 51.5705 10.4747C51.2705 10.2747 50.8805 10.1747 50.4005 10.1747C49.9405 10.1747 49.5205 10.2647 49.1405 10.4447C48.7605 10.6247 48.4505 10.8947 48.2105 11.2547C47.9705 11.5947 47.7905 12.0247 47.6705 12.5447L46.5005 18.0347C46.4405 18.2947 46.4705 18.5247 46.5905 18.7247C46.7305 18.9247 46.9205 19.0947 47.1605 19.2347C47.4005 19.3747 47.6505 19.4747 47.9105 19.5347C48.1905 19.5947 48.4505 19.6247 48.6905 19.6247C49.1305 19.6247 49.5105 19.5347 49.8305 19.3547C50.1705 19.1747 50.4505 18.9247 50.6705 18.6047C50.8905 18.2647 51.0405 17.8647 51.1205 17.4047L52.1705 12.5447Z" fill="white"/>
<path d="M67.7805 16.5347C67.4205 18.2947 66.6705 19.7147 65.5305 20.7947C64.4105 21.8547 62.9305 22.3847 61.0905 22.3847C59.7705 22.3847 58.7505 22.1147 58.0305 21.5747C57.3305 21.0147 56.8805 20.2947 56.6805 19.4147C56.4805 18.5147 56.4805 17.5547 56.6805 16.5347L57.5505 12.5747C57.8305 11.2947 58.2705 10.2247 58.8705 9.36467C59.4905 8.50467 60.2605 7.85467 61.1805 7.41467C62.1205 6.95467 63.2005 6.72467 64.4205 6.72467C66.1605 6.72467 67.4005 7.24467 68.1405 8.28467C68.8805 9.30467 69.0506 10.7347 68.6506 12.5747L67.7805 16.5347ZM65.2906 12.3947C65.3906 11.9147 65.4005 11.5047 65.3205 11.1647C65.2405 10.8047 65.0605 10.5347 64.7805 10.3547C64.5205 10.1547 64.1505 10.0547 63.6705 10.0547C63.1905 10.0547 62.7605 10.1447 62.3805 10.3247C62.0205 10.5047 61.7105 10.7647 61.4505 11.1047C61.2105 11.4447 61.0305 11.8747 60.9105 12.3947L59.9805 16.7747C59.9005 17.1747 59.9005 17.5547 59.9805 17.9147C60.0605 18.2747 60.2405 18.5647 60.5205 18.7847C60.8005 19.0047 61.2105 19.1147 61.7505 19.1147C62.2505 19.1147 62.6705 19.0147 63.0105 18.8147C63.3705 18.6147 63.6605 18.3347 63.8805 17.9747C64.1005 17.6147 64.2606 17.2147 64.3605 16.7747L65.2906 12.3947Z" fill="white"/>
<path d="M79.9191 10.2647C79.5591 10.0647 79.1491 9.91467 78.6891 9.81467C78.2491 9.69467 77.7991 9.62467 77.3391 9.60467C76.7991 9.60467 76.2891 9.69467 75.8091 9.87467C75.3291 10.0347 74.9191 10.3047 74.5791 10.6847C74.2391 11.0447 74.0091 11.5247 73.8891 12.1247L72.8991 16.8347C72.7991 17.2947 72.7891 17.7047 72.8691 18.0647C72.9491 18.4047 73.0991 18.6847 73.3191 18.9047C73.5591 19.1247 73.8591 19.2947 74.2191 19.4147C74.5791 19.5147 74.9891 19.5647 75.4491 19.5647C75.7691 19.5647 76.0891 19.5547 76.4091 19.5347C76.7491 19.4947 77.0491 19.4547 77.3091 19.4147C77.5691 19.3547 77.7791 19.3147 77.9391 19.2947C78.0991 19.2547 78.1791 19.2347 78.1791 19.2347L78.2091 21.9347C77.5491 22.0947 76.8791 22.2247 76.1991 22.3247C75.5191 22.4247 74.8391 22.4647 74.1591 22.4447C73.0191 22.4247 72.0591 22.2147 71.2791 21.8147C70.4991 21.4147 69.9591 20.8047 69.6591 19.9847C69.3591 19.1647 69.3391 18.1247 69.5991 16.8647L70.5591 12.4847C70.8191 11.3247 71.2291 10.3047 71.7891 9.42467C72.3691 8.54467 73.1291 7.86467 74.0691 7.38467C75.0291 6.90467 76.1991 6.68467 77.5791 6.72467C78.2191 6.74467 78.8391 6.84467 79.4391 7.02467C80.0591 7.20467 80.6391 7.43467 81.1791 7.71467L79.9191 10.2647Z" fill="white"/>
<path d="M83.302 6.09467C83.482 5.17467 83.802 4.38467 84.262 3.72467C84.722 3.04467 85.252 2.49467 85.852 2.07467C86.472 1.63467 87.122 1.31467 87.802 1.11467C88.502 0.894668 89.182 0.784668 89.842 0.784668C90.622 0.784668 91.322 0.914668 91.942 1.17467C92.582 1.43467 93.112 1.81467 93.532 2.31467C93.952 2.79467 94.232 3.38467 94.372 4.08467C94.532 4.76467 94.522 5.53467 94.342 6.39467C94.222 7.05467 93.992 7.65467 93.652 8.19467C93.332 8.71467 92.942 9.21467 92.482 9.69467C92.042 10.1547 91.552 10.6247 91.012 11.1047C90.512 11.5447 90.092 11.9347 89.752 12.2747C89.412 12.6147 89.122 12.9547 88.882 13.2947C88.662 13.6147 88.472 13.9747 88.312 14.3747C88.172 14.7547 88.042 15.2147 87.922 15.7547L87.352 18.4847H84.052L84.652 15.6947C84.792 15.0547 84.982 14.4647 85.222 13.9247C85.462 13.3847 85.742 12.8847 86.062 12.4247C86.382 11.9647 86.712 11.5447 87.052 11.1647C87.412 10.7647 87.772 10.3947 88.132 10.0547C88.592 9.61467 89.022 9.19467 89.422 8.79467C89.822 8.37467 90.162 7.96467 90.442 7.56467C90.742 7.14467 90.942 6.71467 91.042 6.27467C91.122 5.87467 91.102 5.49467 90.982 5.13467C90.862 4.77467 90.652 4.48467 90.352 4.26467C90.052 4.04467 89.662 3.93467 89.182 3.93467C88.922 3.93467 88.662 3.98467 88.402 4.08467C88.142 4.16467 87.892 4.29467 87.652 4.47467C87.432 4.65467 87.232 4.88467 87.052 5.16467C86.892 5.42467 86.772 5.73467 86.692 6.09467H83.302ZM85.612 18.9647C86.112 18.9647 86.492 19.1447 86.752 19.5047C87.012 19.8447 87.092 20.2747 86.992 20.7947C86.892 21.2947 86.632 21.7247 86.212 22.0847C85.792 22.4247 85.332 22.5947 84.832 22.5947C84.332 22.5947 83.942 22.4247 83.662 22.0847C83.402 21.7247 83.322 21.2947 83.422 20.7947C83.522 20.2747 83.782 19.8447 84.202 19.5047C84.642 19.1447 85.112 18.9647 85.612 18.9647Z" fill="white"/>
</svg>
