<svg width="95" height="29" viewBox="0 0 95 29" fill="none" xmlns="http://www.w3.org/2000/svg">
<path d="M9.99 0.634961C11.31 0.634961 12.4 0.864961 13.26 1.32496C14.12 1.78496 14.72 2.43496 15.06 3.27496C15.42 4.11496 15.48 5.09496 15.24 6.21496C15.12 6.81496 14.93 7.35496 14.67 7.83496C14.41 8.31496 14.09 8.74496 13.71 9.12496C13.33 9.50496 12.89 9.85496 12.39 10.175C12.83 10.395 13.23 10.745 13.59 11.225C13.97 11.705 14.24 12.305 14.4 13.025C14.56 13.725 14.54 14.535 14.34 15.455C14.08 16.695 13.6 17.785 12.9 18.725C12.22 19.645 11.35 20.365 10.29 20.885C9.23 21.385 8 21.635 6.6 21.635H0L4.47 0.634961H9.99ZM7.41 9.21496C8.19 9.21496 8.84 9.13496 9.36 8.97496C9.9 8.79496 10.33 8.50496 10.65 8.10496C10.97 7.68496 11.2 7.12496 11.34 6.42496C11.48 5.80496 11.47 5.31496 11.31 4.95496C11.17 4.59496 10.89 4.33496 10.47 4.17496C10.05 4.01496 9.5 3.93496 8.82 3.93496H7.08L5.97 9.21496H7.41ZM6.36 18.575C6.86 18.575 7.4 18.495 7.98 18.335C8.56 18.155 9.09 17.835 9.57 17.375C10.05 16.915 10.38 16.255 10.56 15.395C10.7 14.715 10.68 14.155 10.5 13.715C10.32 13.275 9.97 12.945 9.45 12.725C8.95 12.505 8.27 12.395 7.41 12.395H5.28L3.96 18.575H6.36Z" fill="white"/>
<path d="M27.1751 16.085C26.8151 17.845 26.0651 19.265 24.9251 20.345C23.8051 21.405 22.3251 21.935 20.4851 21.935C19.1651 21.935 18.1451 21.665 17.4251 21.125C16.7251 20.565 16.2751 19.845 16.0751 18.965C15.8751 18.065 15.8751 17.105 16.0751 16.085L16.9451 12.125C17.2251 10.845 17.6651 9.77496 18.2651 8.91496C18.8851 8.05496 19.6551 7.40496 20.5751 6.96496C21.5151 6.50496 22.5951 6.27496 23.8151 6.27496C25.5551 6.27496 26.7951 6.79496 27.5351 7.83496C28.2751 8.85496 28.4451 10.285 28.0451 12.125L27.1751 16.085ZM24.6851 11.945C24.7851 11.465 24.7951 11.055 24.7151 10.715C24.6351 10.355 24.4551 10.085 24.1751 9.90496C23.9151 9.70496 23.5451 9.60496 23.0651 9.60496C22.5851 9.60496 22.1551 9.69496 21.7751 9.87496C21.4151 10.055 21.1051 10.315 20.8451 10.655C20.6051 10.995 20.4251 11.425 20.3051 11.945L19.3751 16.325C19.2951 16.725 19.2951 17.105 19.3751 17.465C19.4551 17.825 19.6351 18.115 19.9151 18.335C20.1951 18.555 20.6051 18.665 21.1451 18.665C21.6451 18.665 22.0651 18.565 22.4051 18.365C22.7651 18.165 23.0551 17.885 23.2751 17.525C23.4951 17.165 23.6551 16.765 23.7551 16.325L24.6851 11.945Z" fill="white"/>
<path d="M40.1236 18.455C40.1036 18.775 40.1436 19.035 40.2436 19.235C40.3636 19.435 40.5336 19.615 40.7536 19.775L38.2936 22.145C38.3136 22.145 38.2136 22.095 37.9936 21.995C37.7936 21.895 37.5636 21.735 37.3036 21.515C37.0636 21.295 36.8736 20.995 36.7336 20.615C36.5936 20.215 36.5836 19.715 36.7036 19.115L38.7136 9.72496H33.9736L31.4536 21.635H28.1236L31.3336 6.60496H42.6436L40.1236 18.455Z" fill="white"/>
<path d="M54.5105 16.505C54.2705 17.725 53.8605 18.755 53.2805 19.595C52.7205 20.435 52.0205 21.075 51.1805 21.515C50.3405 21.935 49.3605 22.145 48.2405 22.145C48.0005 22.145 47.7605 22.125 47.5205 22.085C47.2805 22.045 47.0505 21.995 46.8305 21.935C46.6105 21.875 46.4005 21.795 46.2005 21.695C46.0205 21.615 45.8505 21.525 45.6905 21.425L44.2805 28.115L41.1305 27.365L44.3405 12.275C44.7405 10.375 45.5305 8.92496 46.7105 7.92496C47.9105 6.90496 49.4205 6.39496 51.2405 6.39496C52.9605 6.39496 54.1905 6.91496 54.9305 7.95496C55.6705 8.99496 55.8405 10.435 55.4405 12.275L54.5105 16.505ZM52.1705 12.095C52.2705 11.615 52.2705 11.205 52.1705 10.865C52.0705 10.505 51.8705 10.225 51.5705 10.025C51.2705 9.82496 50.8805 9.72496 50.4005 9.72496C49.9405 9.72496 49.5205 9.81496 49.1405 9.99496C48.7605 10.175 48.4505 10.445 48.2105 10.805C47.9705 11.145 47.7905 11.575 47.6705 12.095L46.5005 17.585C46.4405 17.845 46.4705 18.075 46.5905 18.275C46.7305 18.475 46.9205 18.645 47.1605 18.785C47.4005 18.925 47.6505 19.025 47.9105 19.085C48.1905 19.145 48.4505 19.175 48.6905 19.175C49.1305 19.175 49.5105 19.085 49.8305 18.905C50.1705 18.725 50.4505 18.475 50.6705 18.155C50.8905 17.815 51.0405 17.415 51.1205 16.955L52.1705 12.095Z" fill="white"/>
<path d="M67.7805 16.085C67.4205 17.845 66.6705 19.265 65.5305 20.345C64.4105 21.405 62.9305 21.935 61.0905 21.935C59.7705 21.935 58.7505 21.665 58.0305 21.125C57.3305 20.565 56.8805 19.845 56.6805 18.965C56.4805 18.065 56.4805 17.105 56.6805 16.085L57.5505 12.125C57.8305 10.845 58.2705 9.77496 58.8705 8.91496C59.4905 8.05496 60.2605 7.40496 61.1805 6.96496C62.1205 6.50496 63.2005 6.27496 64.4205 6.27496C66.1605 6.27496 67.4005 6.79496 68.1405 7.83496C68.8805 8.85496 69.0506 10.285 68.6506 12.125L67.7805 16.085ZM65.2906 11.945C65.3906 11.465 65.4005 11.055 65.3205 10.715C65.2405 10.355 65.0605 10.085 64.7805 9.90496C64.5205 9.70496 64.1505 9.60496 63.6705 9.60496C63.1905 9.60496 62.7605 9.69496 62.3805 9.87496C62.0205 10.055 61.7105 10.315 61.4505 10.655C61.2105 10.995 61.0305 11.425 60.9105 11.945L59.9805 16.325C59.9005 16.725 59.9005 17.105 59.9805 17.465C60.0605 17.825 60.2405 18.115 60.5205 18.335C60.8005 18.555 61.2105 18.665 61.7505 18.665C62.2505 18.665 62.6705 18.565 63.0105 18.365C63.3705 18.165 63.6605 17.885 63.8805 17.525C64.1005 17.165 64.2606 16.765 64.3605 16.325L65.2906 11.945Z" fill="white"/>
<path d="M79.9191 9.81496C79.5591 9.61496 79.1491 9.46496 78.6891 9.36496C78.2491 9.24496 77.7991 9.17496 77.3391 9.15496C76.7991 9.15496 76.2891 9.24496 75.8091 9.42496C75.3291 9.58496 74.9191 9.85496 74.5791 10.235C74.2391 10.595 74.0091 11.075 73.8891 11.675L72.8991 16.385C72.7991 16.845 72.7891 17.255 72.8691 17.615C72.9491 17.955 73.0991 18.235 73.3191 18.455C73.5591 18.675 73.8591 18.845 74.2191 18.965C74.5791 19.065 74.9891 19.115 75.4491 19.115C75.7691 19.115 76.0891 19.105 76.4091 19.085C76.7491 19.045 77.0491 19.005 77.3091 18.965C77.5691 18.905 77.7791 18.865 77.9391 18.845C78.0991 18.805 78.1791 18.785 78.1791 18.785L78.2091 21.485C77.5491 21.645 76.8791 21.775 76.1991 21.875C75.5191 21.975 74.8391 22.015 74.1591 21.995C73.0191 21.975 72.0591 21.765 71.2791 21.365C70.4991 20.965 69.9591 20.355 69.6591 19.535C69.3591 18.715 69.3391 17.675 69.5991 16.415L70.5591 12.035C70.8191 10.875 71.2291 9.85496 71.7891 8.97496C72.3691 8.09496 73.1291 7.41496 74.0691 6.93496C75.0291 6.45496 76.1991 6.23496 77.5791 6.27496C78.2191 6.29496 78.8391 6.39496 79.4391 6.57496C80.0591 6.75496 80.6391 6.98496 81.1791 7.26496L79.9191 9.81496Z" fill="white"/>
<path d="M83.302 5.64496C83.482 4.72496 83.802 3.93496 84.262 3.27496C84.722 2.59496 85.252 2.04496 85.852 1.62496C86.472 1.18496 87.122 0.864961 87.802 0.66496C88.502 0.444961 89.182 0.334961 89.842 0.334961C90.622 0.334961 91.322 0.464961 91.942 0.724961C92.582 0.984962 93.112 1.36496 93.532 1.86496C93.952 2.34496 94.232 2.93496 94.372 3.63496C94.532 4.31496 94.522 5.08496 94.342 5.94496C94.222 6.60496 93.992 7.20496 93.652 7.74496C93.332 8.26496 92.942 8.76496 92.482 9.24496C92.042 9.70496 91.552 10.175 91.012 10.655C90.512 11.095 90.092 11.485 89.752 11.825C89.412 12.165 89.122 12.505 88.882 12.845C88.662 13.165 88.472 13.525 88.312 13.925C88.172 14.305 88.042 14.765 87.922 15.305L87.352 18.035H84.052L84.652 15.245C84.792 14.605 84.982 14.015 85.222 13.475C85.462 12.935 85.742 12.435 86.062 11.975C86.382 11.515 86.712 11.095 87.052 10.715C87.412 10.315 87.772 9.94496 88.132 9.60496C88.592 9.16496 89.022 8.74496 89.422 8.34496C89.822 7.92496 90.162 7.51496 90.442 7.11496C90.742 6.69496 90.942 6.26496 91.042 5.82496C91.122 5.42496 91.102 5.04496 90.982 4.68496C90.862 4.32496 90.652 4.03496 90.352 3.81496C90.052 3.59496 89.662 3.48496 89.182 3.48496C88.922 3.48496 88.662 3.53496 88.402 3.63496C88.142 3.71496 87.892 3.84496 87.652 4.02496C87.432 4.20496 87.232 4.43496 87.052 4.71496C86.892 4.97496 86.772 5.28496 86.692 5.64496H83.302ZM85.612 18.515C86.112 18.515 86.492 18.695 86.752 19.055C87.012 19.395 87.092 19.825 86.992 20.345C86.892 20.845 86.632 21.275 86.212 21.635C85.792 21.975 85.332 22.145 84.832 22.145C84.332 22.145 83.942 21.975 83.662 21.635C83.402 21.275 83.322 20.845 83.422 20.345C83.522 19.825 83.782 19.395 84.202 19.055C84.642 18.695 85.112 18.515 85.612 18.515Z" fill="white"/>
</svg>
