<svg width="1312" height="47" viewBox="0 0 1312 47" fill="none" xmlns="http://www.w3.org/2000/svg">
<path d="M12.45 17.5H9.15L9.125 12.9H5.1L3.125 17.5H0L7.975 0H11.85L12.45 17.5ZM6.4 9.975H9.125L9.1 3.575L6.4 9.975Z" fill="white"/>
<path d="M26.5799 13.8C26.4965 14.2167 26.4715 14.575 26.5049 14.875C26.5549 15.175 26.6716 15.425 26.8549 15.625C27.0549 15.8083 27.3299 15.9667 27.6799 16.1L26.0799 18C25.6132 17.8667 25.2049 17.6917 24.8549 17.475C24.5215 17.2417 24.2549 16.9667 24.0549 16.65C23.8549 16.3167 23.7299 15.9417 23.6799 15.525C23.6299 15.1083 23.6549 14.6583 23.7549 14.175L25.1549 7.575H22.8299L23.3799 4.975H30.9549L30.4049 7.575H27.9049L26.5799 13.8Z" fill="white"/>
<path d="M31.1137 22.725L33.9637 17.5L32.0887 4.975H34.7387L36.0387 13.775L40.7887 4.975H43.4387L33.8137 22.725H31.1137Z" fill="white"/>
<path d="M48.0154 13.8C47.9321 14.2167 47.9071 14.575 47.9404 14.875C47.9904 15.175 48.1071 15.425 48.2904 15.625C48.4904 15.8083 48.7654 15.9667 49.1154 16.1L47.5154 18C47.0488 17.8667 46.6404 17.6917 46.2904 17.475C45.9571 17.2417 45.6904 16.9667 45.4904 16.65C45.2904 16.3167 45.1654 15.9417 45.1154 15.525C45.0654 15.1083 45.0904 14.6583 45.1904 14.175L46.5904 7.575H44.2654L44.8154 4.975H52.3904L51.8404 7.575H49.3404L48.0154 13.8Z" fill="white"/>
<path d="M68.4811 12.875C68.1811 14.3417 67.5561 15.525 66.6061 16.425C65.6727 17.3083 64.4394 17.75 62.9061 17.75C61.8061 17.75 60.9561 17.525 60.3561 17.075C59.7727 16.6083 59.3977 16.0083 59.2311 15.275C59.0644 14.525 59.0644 13.725 59.2311 12.875L59.9561 9.575C60.1894 8.50833 60.5561 7.61667 61.0561 6.9C61.5727 6.18333 62.2144 5.64167 62.9811 5.275C63.7644 4.89167 64.6644 4.7 65.6811 4.7C67.1311 4.7 68.1644 5.13333 68.7811 6C69.3977 6.85 69.5394 8.04167 69.2061 9.575L68.4811 12.875ZM66.4061 9.425C66.4894 9.025 66.4977 8.68333 66.4311 8.4C66.3644 8.1 66.2144 7.875 65.9811 7.725C65.7644 7.55833 65.4561 7.475 65.0561 7.475C64.6561 7.475 64.2977 7.55 63.9811 7.7C63.6811 7.85 63.4227 8.06667 63.2061 8.35C63.0061 8.63333 62.8561 8.99167 62.7561 9.425L61.9811 13.075C61.9144 13.4083 61.9144 13.725 61.9811 14.025C62.0477 14.325 62.1977 14.5667 62.4311 14.75C62.6644 14.9333 63.0061 15.025 63.4561 15.025C63.8727 15.025 64.2227 14.9417 64.5061 14.775C64.8061 14.6083 65.0477 14.375 65.2311 14.075C65.4144 13.775 65.5477 13.4417 65.6311 13.075L66.4061 9.425Z" fill="white"/>
<path d="M74.8465 13.8C74.7631 14.2167 74.7382 14.575 74.7715 14.875C74.8215 15.175 74.9381 15.425 75.1215 15.625C75.3215 15.8083 75.5965 15.9667 75.9465 16.1L74.3465 18C73.8798 17.8667 73.4715 17.6917 73.1215 17.475C72.7881 17.2417 72.5215 16.9667 72.3215 16.65C72.1215 16.3167 71.9965 15.9417 71.9465 15.525C71.8965 15.1083 71.9215 14.6583 72.0215 14.175L73.4215 7.575H71.0965L71.6465 4.975H79.2215L78.6715 7.575H76.1715L74.8465 13.8Z" fill="white"/>
<path d="M87.6053 10.575C88.0553 10.9083 88.3553 11.3583 88.5053 11.925C88.6719 12.4917 88.6886 13.1083 88.5553 13.775C88.4219 14.425 88.1303 15.0583 87.6803 15.675C87.2303 16.275 86.6386 16.775 85.9053 17.175C85.1719 17.575 84.3053 17.775 83.3053 17.775C82.9886 17.775 82.6136 17.7667 82.1803 17.75C81.7469 17.7333 81.2969 17.7083 80.8303 17.675C80.3636 17.6417 79.9303 17.6083 79.5303 17.575C79.1303 17.5583 78.8053 17.5417 78.5553 17.525C78.3053 17.5083 78.1803 17.5 78.1803 17.5L80.8303 4.975C80.8303 4.975 80.9386 4.96667 81.1553 4.95C81.3886 4.91667 81.7136 4.88333 82.1303 4.85C82.5636 4.8 83.0719 4.76667 83.6553 4.75C84.2386 4.71667 84.8886 4.7 85.6053 4.7C86.1053 4.7 86.5886 4.75833 87.0553 4.875C87.5219 4.99167 87.9303 5.16667 88.2803 5.4C88.6469 5.63333 88.9219 5.94167 89.1053 6.325C89.3053 6.69167 89.3886 7.14167 89.3553 7.675C89.3219 8.19167 89.1386 8.725 88.8053 9.275C88.4886 9.80833 88.0886 10.2417 87.6053 10.575ZM85.1553 7.125C85.0053 7.125 84.8469 7.125 84.6803 7.125C84.5136 7.125 84.3386 7.13333 84.1553 7.15C83.9886 7.15 83.8136 7.15833 83.6303 7.175C83.4636 7.175 83.2969 7.175 83.1303 7.175L82.5303 9.95H83.8053C84.4053 9.95 84.8886 9.875 85.2553 9.725C85.6219 9.575 85.8969 9.38333 86.0803 9.15C86.2803 8.91667 86.4053 8.68333 86.4553 8.45C86.5053 8.23333 86.4969 8.05 86.4303 7.9C86.3636 7.73333 86.2636 7.59167 86.1303 7.475C86.0136 7.35833 85.8636 7.275 85.6803 7.225C85.5136 7.15833 85.3386 7.125 85.1553 7.125ZM83.4303 14.95C83.8136 14.95 84.1719 14.9083 84.5053 14.825C84.8386 14.7417 85.1219 14.6083 85.3553 14.425C85.5886 14.225 85.7386 13.9667 85.8053 13.65C85.8553 13.45 85.8469 13.2667 85.7803 13.1C85.7303 12.9333 85.6303 12.8 85.4803 12.7C85.3469 12.5833 85.1719 12.5 84.9553 12.45C84.7553 12.3833 84.5303 12.35 84.2803 12.35H82.0303L81.4803 14.9C81.6636 14.9 81.8469 14.9083 82.0303 14.925C82.2136 14.925 82.3886 14.9333 82.5553 14.95C82.7219 14.95 82.8803 14.95 83.0303 14.95C83.1803 14.95 83.3136 14.95 83.4303 14.95Z" fill="white"/>
<path d="M92.9113 13.775C92.8613 13.9917 92.853 14.1917 92.8863 14.375C92.9197 14.5417 92.978 14.6917 93.0613 14.825C93.1613 14.9583 93.2947 15.0583 93.4613 15.125C93.628 15.1917 93.8197 15.225 94.0363 15.225C94.4863 15.225 95.0197 15.125 95.6363 14.925C96.253 14.725 96.853 14.4917 97.4363 14.225L97.9363 16.625C97.2697 16.9917 96.5363 17.2833 95.7363 17.5C94.9363 17.7167 94.1613 17.825 93.4113 17.825C92.828 17.825 92.2947 17.75 91.8113 17.6C91.3447 17.45 90.953 17.225 90.6363 16.925C90.3363 16.625 90.128 16.2417 90.0113 15.775C89.9113 15.3083 89.928 14.7583 90.0613 14.125L91.1613 9C91.3613 8.08333 91.7113 7.30833 92.2113 6.675C92.728 6.04167 93.353 5.55833 94.0863 5.225C94.8363 4.89167 95.6613 4.725 96.5613 4.725C97.4613 4.725 98.2113 4.88333 98.8113 5.2C99.428 5.51667 99.8613 5.98333 100.111 6.6C100.361 7.21667 100.386 7.99167 100.186 8.925L99.3613 12.825L93.0613 13.15L92.9113 13.775ZM97.2613 9.675C97.328 9.325 97.3613 8.96667 97.3613 8.6C97.3613 8.23333 97.2697 7.93333 97.0863 7.7C96.9197 7.45 96.5863 7.34167 96.0863 7.375C95.5697 7.39167 95.1613 7.5 94.8613 7.7C94.578 7.88333 94.353 8.14167 94.1863 8.475C94.0363 8.79167 93.903 9.18333 93.7863 9.65L93.5863 10.625L97.0863 10.4L97.2613 9.675Z" fill="white"/>
<path d="M105.706 13.8C105.623 14.2167 105.598 14.575 105.631 14.875C105.681 15.175 105.798 15.425 105.981 15.625C106.181 15.8083 106.456 15.9667 106.806 16.1L105.206 18C104.739 17.8667 104.331 17.6917 103.981 17.475C103.648 17.2417 103.381 16.9667 103.181 16.65C102.981 16.3167 102.856 15.9417 102.806 15.525C102.756 15.1083 102.781 14.6583 102.881 14.175L104.281 7.575H101.956L102.506 4.975H110.081L109.531 7.575H107.031L105.706 13.8Z" fill="white"/>
</svg>
