<svg width="616" height="51" viewBox="0 0 616 51" fill="none" xmlns="http://www.w3.org/2000/svg">
<path d="M55.4 49.9217L33.0931 8.84247H14.1031L36.5 49.9217H26.51L0 1.18364H38.79L65.39 49.9217H55.4ZM66.0262 1.18364C68.3662 1.18364 70.8253 1.43893 73.4035 1.94952C76.0418 2.46011 78.6541 3.34203 81.2406 4.5953C83.8271 5.84856 86.3219 7.61241 88.7249 9.88688C91.0899 12.1149 93.1989 14.9463 95.0519 18.3812C97.1119 22.141 98.2109 25.2045 98.3499 27.5718C98.5489 29.9391 98.0219 31.7493 96.7679 33.0026C95.5749 34.2559 93.9379 35.1146 91.8579 35.5788C89.7789 36.0429 87.5389 36.275 85.1386 36.275H75.4186L82.9062 49.9217H72.9162L46.4062 1.18364H66.0262ZM71.5006 28.9643H77.4406C79.7806 28.9643 81.7256 28.8483 83.2755 28.6162C84.8254 28.3841 85.9449 27.9199 86.6349 27.2237C87.3469 26.481 87.5819 25.4134 87.3419 24.0209C87.1009 22.6284 86.3409 20.7485 85.0623 18.3812C83.8754 16.1996 82.6787 14.4822 81.4722 13.2289C80.2276 11.9292 78.8783 10.9777 77.424 10.3743C75.9917 9.72438 74.3896 9.30664 72.6175 9.12097C70.8454 8.9353 68.7894 8.84247 66.4494 8.84247H60.5094L71.5006 28.9643ZM99.0069 14.5518C96.3889 9.81718 96.1119 6.2199 98.1769 3.75979C100.204 1.25326 104.188 0 110.128 0C116.128 0 121.528 1.39252 126.33 4.17754C131.191 6.96257 134.854 10.6295 137.32 15.1784L149.14 36.9713C150.679 39.8027 151.224 42.2628 150.775 44.3516C150.348 46.394 149.031 47.9721 146.823 49.0862C144.577 50.1537 141.535 50.6875 137.695 50.6875C134.155 50.6875 130.638 50.1305 127.146 49.0165C123.714 47.9025 120.602 46.3011 117.811 44.2124C114.982 42.0772 112.722 39.501 111.031 36.4839L99.0069 14.5518ZM120.696 35.6484C121.493 37.1337 122.479 38.4102 123.653 39.4778C124.828 40.5454 126.202 41.3809 127.776 41.9843C129.372 42.5413 131.16 42.8198 133.14 42.8198C135.06 42.8198 136.523 42.5181 137.529 41.9147C138.535 41.3113 139.091 40.4526 139.199 39.3386C139.307 38.2245 138.951 36.9481 138.132 35.5091L128.117 17.1279C127.022 15.132 125.882 13.4842 124.698 12.1845C123.475 10.8384 122.058 9.84048 120.446 9.19059C118.795 8.49434 116.8 8.14621 114.46 8.14621C112.42 8.14621 110.916 8.47113 109.949 9.12097C109.041 9.77078 108.658 10.7688 108.801 12.1149C108.905 13.4146 109.505 15.0624 110.6 17.0583L120.696 35.6484ZM163.268 49.9217L136.758 1.18364H166.908L171.111 8.84247H150.951L173.348 49.9217H163.268ZM241.363 49.9217H229.483L218.899 37.1105H204.409L207.793 49.9217H196.543L185.333 1.18364H199.283L241.363 49.9217ZM202.417 28.9643H212.227L197.538 11.1401L202.417 28.9643ZM230.596 1.18364L263.334 35.4395L259.036 1.18364H269.026L295.536 49.9217H285.636L271.498 24.0905L275.016 49.9217H267.546L243.025 24.1601L257.106 49.9217H247.116L220.606 1.18364H230.596ZM286.582 1.18364L319.32 35.4395L315.022 1.18364H325.012L351.522 49.9217H341.622L327.484 24.0905L331.002 49.9217H323.532L299.011 24.1601L313.092 49.9217H303.102L276.592 1.18364H286.582ZM402.378 49.9217H390.498L379.915 37.1105H365.425L368.808 49.9217H357.558L346.348 1.18364H360.298L402.378 49.9217ZM363.433 28.9643H373.243L358.553 11.1401L363.433 28.9643Z" fill="#DEF37B"/>
</svg>
