<svg width="324" height="78" viewBox="0 0 324 78" fill="none" xmlns="http://www.w3.org/2000/svg">
<g clip-path="url(#clip0_395_856)">
<path d="M293.5 0.5H34.5C17.9315 0.5 4.5 13.9315 4.5 30.5V47.5C4.5 64.0685 17.9315 77.5 34.5 77.5H293.5C310.069 77.5 323.5 64.0685 323.5 47.5V30.5C323.5 13.9315 310.069 0.5 293.5 0.5Z" fill="#FF5100"/>
<path d="M36.1466 23.9531C37.4466 23.9531 38.8056 24.1005 40.2236 24.3954C41.675 24.6902 43.1015 25.1994 44.5032 25.9231C45.905 26.6468 47.2414 27.6653 48.5124 28.9786C49.7637 30.2651 50.8559 31.9001 51.789 33.8835C52.8276 36.0545 53.3522 37.8235 53.3629 39.1904C53.4069 40.5573 53.0631 41.6026 52.3315 42.3263C51.6333 43.05 50.6999 43.5458 49.5314 43.8138C48.3629 44.0819 47.112 44.2159 45.7786 44.2159H40.3786L44.155 52.0958H38.605L25.2466 23.9531H36.1466ZM38.4074 39.9945H41.7074C43.0074 39.9945 44.0912 39.9275 44.9588 39.7934C45.8263 39.6594 46.4615 39.3914 46.8642 38.9894C47.2805 38.5605 47.4414 37.9441 47.3468 37.14C47.2523 36.3359 46.883 35.2504 46.239 33.8835C45.6409 32.6238 45.0243 31.6321 44.3893 30.9084C43.7344 30.1579 43.0115 29.6085 42.2205 29.26C41.4431 28.8848 40.5647 28.6436 39.5854 28.5364C38.6062 28.4291 37.4665 28.3755 36.1665 28.3755H32.8665L38.4074 39.9945ZM64.0444 52.0958L50.6861 23.9531H67.4361L69.556 28.3755H58.306L61.6878 35.4514H68.5378L69.409 39.6728H63.659L67.6421 48.0352H78.7921L80.6944 52.0958H64.0444ZM84.6011 52.0958L71.2427 23.9531H87.9927L90.1126 28.3755H78.9126L90.2011 52.0958H84.6011ZM90.5787 23.9531H96.1787L105.515 43.6128L109.729 23.9531H115.279L128.637 52.0958H123.087L114.047 33.0392L109.537 52.0958H103.937L90.5787 23.9531ZM136.794 28.4962C136.035 28.2817 135.19 28.1075 134.258 27.9735C133.358 27.8395 132.526 27.7725 131.759 27.7725C130.492 27.7725 129.541 27.9065 128.906 28.1745C128.271 28.4425 127.918 28.8446 127.848 29.3806C127.778 29.9167 127.933 30.6002 128.314 31.431L134.564 44.6179C134.979 45.4488 135.491 46.1189 136.1 46.6281C136.691 47.1106 137.391 47.4724 138.203 47.7136C138.995 47.928 139.874 48.0352 140.841 48.0352C141.874 48.0352 142.865 47.9548 143.813 47.794C144.76 47.6332 145.548 47.459 146.176 47.2714C146.837 47.0838 147.241 46.9765 147.388 46.9497L150.21 51.1711C148.96 51.6 147.708 51.935 146.453 52.1762C145.251 52.4443 144 52.5783 142.7 52.5783C140.633 52.5783 138.705 52.2701 136.916 51.6536C135.141 51.0103 133.584 50.099 132.245 48.9197C130.906 47.7404 129.849 46.3333 129.074 44.6983L122.853 31.5516C122.012 29.7827 121.689 28.3085 121.883 27.1292C122.058 25.9231 122.684 25.0118 123.762 24.3954C124.839 23.7789 126.295 23.4707 128.128 23.4707C129.328 23.4707 130.667 23.5913 132.146 23.8325C133.638 24.0469 135.095 24.3954 136.519 24.8778L136.794 28.4962ZM154.322 28.4157L165.581 52.0958H160.031L148.822 28.4157H141.522L139.423 23.9531H159.623L161.722 28.4157H154.322ZM173.305 23.9531C174.605 23.9531 175.964 24.1005 177.382 24.3954C178.833 24.6902 180.26 25.1994 181.661 25.9231C183.063 26.6468 184.4 27.6653 185.671 28.9786C186.922 30.2651 188.014 31.9001 188.947 33.8835C189.986 36.0545 190.51 37.8235 190.521 39.1904C190.565 40.5573 190.221 41.6026 189.49 42.3263C188.791 43.05 187.858 43.5458 186.69 43.8138C185.521 44.0819 184.27 44.2159 182.937 44.2159H177.537L181.313 52.0958H175.763L162.405 23.9531H173.305ZM175.566 39.9945H178.866C180.166 39.9945 181.249 39.9275 182.117 39.7934C182.985 39.6594 183.62 39.3914 184.022 38.9894C184.439 38.5605 184.6 37.9441 184.505 37.14C184.411 36.3359 184.041 35.2504 183.397 33.8835C182.799 32.6238 182.183 31.6321 181.547 30.9084C180.893 30.1579 180.17 29.6085 179.379 29.26C178.601 28.8848 177.723 28.6436 176.744 28.5364C175.764 28.4291 174.625 28.3755 173.325 28.3755H170.025L175.566 39.9945ZM225.253 52.0958H218.653L213.133 44.6983H205.083L206.603 52.0958H200.353L195.494 23.9531H203.244L225.253 52.0958ZM204.205 39.9945H209.655L201.995 29.7023L204.205 39.9945ZM247.829 47.6734H253.229L257.715 57.1213H253.115L249.699 52.0958H228.399L215.04 23.9531H220.59L231.829 47.6734H242.379L231.14 23.9531H236.59L247.829 47.6734ZM245.217 23.9531H250.817L260.153 43.6128L264.367 23.9531H269.917L283.276 52.0958H277.726L268.685 33.0392L264.176 52.0958H258.576L245.217 23.9531ZM285.274 23.9531H296.174L309.532 52.0958H303.982L300.256 44.2159H294.906C294.706 44.2159 294.506 44.2159 294.306 44.2159C294.106 44.2159 293.906 44.2159 293.706 44.2159C293.506 44.2159 293.296 44.2025 293.076 44.1757L293.382 52.0958H287.482L287.356 42.7283C286.352 42.2727 285.346 41.6562 284.338 40.879C283.364 40.1017 282.417 39.1368 281.498 37.9843C280.613 36.8318 279.785 35.4648 279.016 33.8835C278.083 31.9001 277.624 30.2651 277.639 28.9786C277.668 27.6653 278.032 26.6468 278.73 25.9231C279.462 25.1994 280.402 24.6902 281.551 24.3954C282.733 24.1005 283.974 23.9531 285.274 23.9531ZM294.934 39.9945H298.234L292.693 28.3755H289.393C288.093 28.3755 287 28.4291 286.112 28.5364C285.258 28.6436 284.62 28.8848 284.197 29.26C283.755 29.6085 283.561 30.1579 283.616 30.9084C283.685 31.6321 284.018 32.6238 284.616 33.8835C285.293 35.2504 285.963 36.3359 286.624 37.14C287.285 37.9441 288.007 38.5605 288.791 38.9894C289.588 39.3914 290.487 39.6594 291.486 39.7934C292.485 39.9275 293.634 39.9945 294.934 39.9945Z" fill="white"/>
</g>
<defs>
<clipPath id="clip0_395_856">
<rect width="323" height="78" fill="white" transform="translate(0.5)"/>
</clipPath>
</defs>
</svg>
