<svg width="324" height="79" viewBox="0 0 324 79" fill="none" xmlns="http://www.w3.org/2000/svg">
<g clip-path="url(#clip0_370_3907)">
<path d="M293.5 1H34.5C17.9315 1 4.5 14.4315 4.5 31V48C4.5 64.5685 17.9315 78 34.5 78H293.5C310.069 78 323.5 64.5685 323.5 48V31C323.5 14.4315 310.069 1 293.5 1Z" fill="#FF5100"/>
<path d="M36.1466 24.4531C37.4466 24.4531 38.8056 24.6005 40.2236 24.8954C41.675 25.1902 43.1015 25.6994 44.5032 26.4231C45.905 27.1468 47.2414 28.1653 48.5124 29.4786C49.7637 30.7651 50.8559 32.4001 51.789 34.3835C52.8276 36.5545 53.3522 38.3235 53.3629 39.6904C53.4069 41.0573 53.0631 42.1026 52.3315 42.8263C51.6333 43.55 50.6999 44.0458 49.5314 44.3138C48.3629 44.5819 47.112 44.7159 45.7786 44.7159H40.3786L44.155 52.5958H38.605L25.2466 24.4531H36.1466ZM38.4074 40.4945H41.7074C43.0074 40.4945 44.0912 40.4275 44.9588 40.2934C45.8263 40.1594 46.4615 39.8914 46.8642 39.4894C47.2805 39.0605 47.4414 38.4441 47.3468 37.64C47.2523 36.8359 46.883 35.7504 46.239 34.3835C45.6409 33.1238 45.0243 32.1321 44.3893 31.4084C43.7344 30.6579 43.0115 30.1085 42.2205 29.76C41.4431 29.3848 40.5647 29.1436 39.5854 29.0364C38.6062 28.9291 37.4665 28.8755 36.1665 28.8755H32.8665L38.4074 40.4945ZM64.0444 52.5958L50.6861 24.4531H67.4361L69.556 28.8755H58.306L61.6878 35.9514H68.5378L69.409 40.1728H63.659L67.6421 48.5352H78.7921L80.6944 52.5958H64.0444ZM84.6011 52.5958L71.2427 24.4531H87.9927L90.1126 28.8755H78.9126L90.2011 52.5958H84.6011ZM90.5787 24.4531H96.1787L105.515 44.1128L109.729 24.4531H115.279L128.637 52.5958H123.087L114.047 33.5392L109.537 52.5958H103.937L90.5787 24.4531ZM136.794 28.9962C136.035 28.7817 135.19 28.6075 134.258 28.4735C133.358 28.3395 132.526 28.2725 131.759 28.2725C130.492 28.2725 129.541 28.4065 128.906 28.6745C128.271 28.9425 127.918 29.3446 127.848 29.8806C127.778 30.4167 127.933 31.1002 128.314 31.931L134.564 45.1179C134.979 45.9488 135.491 46.6189 136.1 47.1281C136.691 47.6106 137.391 47.9724 138.203 48.2136C138.995 48.428 139.874 48.5352 140.841 48.5352C141.874 48.5352 142.865 48.4548 143.813 48.294C144.76 48.1332 145.548 47.959 146.176 47.7714C146.837 47.5838 147.241 47.4765 147.388 47.4497L150.21 51.6711C148.96 52.1 147.708 52.435 146.453 52.6762C145.251 52.9443 144 53.0783 142.7 53.0783C140.633 53.0783 138.705 52.7701 136.916 52.1536C135.141 51.5103 133.584 50.599 132.245 49.4197C130.906 48.2404 129.849 46.8333 129.074 45.1983L122.853 32.0516C122.012 30.2827 121.689 28.8085 121.883 27.6292C122.058 26.4231 122.684 25.5118 123.762 24.8954C124.839 24.2789 126.295 23.9707 128.128 23.9707C129.328 23.9707 130.667 24.0913 132.146 24.3325C133.638 24.5469 135.095 24.8954 136.519 25.3778L136.794 28.9962ZM154.322 28.9157L165.581 52.5958H160.031L148.822 28.9157H141.522L139.423 24.4531H159.623L161.722 28.9157H154.322ZM173.305 24.4531C174.605 24.4531 175.964 24.6005 177.382 24.8954C178.833 25.1902 180.26 25.6994 181.661 26.4231C183.063 27.1468 184.4 28.1653 185.671 29.4786C186.922 30.7651 188.014 32.4001 188.947 34.3835C189.986 36.5545 190.51 38.3235 190.521 39.6904C190.565 41.0573 190.221 42.1026 189.49 42.8263C188.791 43.55 187.858 44.0458 186.69 44.3138C185.521 44.5819 184.27 44.7159 182.937 44.7159H177.537L181.313 52.5958H175.763L162.405 24.4531H173.305ZM175.566 40.4945H178.866C180.166 40.4945 181.249 40.4275 182.117 40.2934C182.985 40.1594 183.62 39.8914 184.022 39.4894C184.439 39.0605 184.6 38.4441 184.505 37.64C184.411 36.8359 184.041 35.7504 183.397 34.3835C182.799 33.1238 182.183 32.1321 181.547 31.4084C180.893 30.6579 180.17 30.1085 179.379 29.76C178.601 29.3848 177.723 29.1436 176.744 29.0364C175.764 28.9291 174.625 28.8755 173.325 28.8755H170.025L175.566 40.4945ZM225.253 52.5958H218.653L213.133 45.1983H205.083L206.603 52.5958H200.353L195.494 24.4531H203.244L225.253 52.5958ZM204.205 40.4945H209.655L201.995 30.2023L204.205 40.4945ZM247.829 48.1734H253.229L257.715 57.6213H253.115L249.699 52.5958H228.399L215.04 24.4531H220.59L231.829 48.1734H242.379L231.14 24.4531H236.59L247.829 48.1734ZM245.217 24.4531H250.817L260.153 44.1128L264.367 24.4531H269.917L283.276 52.5958H277.726L268.685 33.5392L264.176 52.5958H258.576L245.217 24.4531ZM285.274 24.4531H296.174L309.532 52.5958H303.982L300.256 44.7159H294.906C294.706 44.7159 294.506 44.7159 294.306 44.7159C294.106 44.7159 293.906 44.7159 293.706 44.7159C293.506 44.7159 293.296 44.7025 293.076 44.6757L293.382 52.5958H287.482L287.356 43.2283C286.352 42.7727 285.346 42.1562 284.338 41.379C283.364 40.6017 282.417 39.6368 281.498 38.4843C280.613 37.3318 279.785 35.9648 279.016 34.3835C278.083 32.4001 277.624 30.7651 277.639 29.4786C277.668 28.1653 278.032 27.1468 278.73 26.4231C279.462 25.6994 280.402 25.1902 281.551 24.8954C282.733 24.6005 283.974 24.4531 285.274 24.4531ZM294.934 40.4945H298.234L292.693 28.8755H289.393C288.093 28.8755 287 28.9291 286.112 29.0364C285.258 29.1436 284.62 29.3848 284.197 29.76C283.755 30.1085 283.561 30.6579 283.616 31.4084C283.685 32.1321 284.018 33.1238 284.616 34.3835C285.293 35.7504 285.963 36.8359 286.624 37.64C287.285 38.4441 288.007 39.0605 288.791 39.4894C289.588 39.8914 290.487 40.1594 291.486 40.2934C292.485 40.4275 293.634 40.4945 294.934 40.4945Z" fill="white"/>
</g>
<defs>
<clipPath id="clip0_370_3907">
<rect width="323" height="78" fill="white" transform="translate(0.5 0.5)"/>
</clipPath>
</defs>
</svg>
