<svg width="68" height="36" viewBox="0 0 68 36" fill="none" xmlns="http://www.w3.org/2000/svg">
<g clip-path="url(#clip0_365_407)">
<path d="M63.3586 11.8805C63.4183 11.0451 63.3586 10.8371 63.0319 10.8371C62.8536 10.8371 62.7055 11.0161 62.4671 11.7015L58.7777 21.8735C58.3013 23.1557 57.7656 23.7524 56.8725 23.7235C55.9503 23.6945 55.3242 23.0073 55.1169 21.5751L53.8378 12.6273C53.7188 11.8822 53.63 11.6435 53.392 11.6435C53.125 11.6435 53.0653 11.8225 52.9156 12.6273L51.4271 21.2171L48.6001 20.68L51.7845 4.90023C52.3799 2.00685 53.0346 1.11173 54.4925 1.11173C55.743 1.11173 56.5457 2.18587 56.7837 4.51149L57.9746 15.6077C58.0036 15.727 58.0633 15.756 58.1533 15.756C58.2432 15.756 58.3013 15.6963 58.332 15.6366L61.7544 6.27104C62.7665 3.52771 63.8076 2.42287 65.1465 2.54222C66.6943 2.69056 67.1707 3.73573 67.1707 6.80816V25.362L62.3498 26.2861L63.3619 11.8788L63.3586 11.8805ZM6.93364 16.8318C6.96254 16.0868 7.14116 15.7287 7.37929 15.7287C7.64639 15.7287 7.79608 15.9367 7.9747 16.8029L9.99899 26.2878C10.7423 29.8376 11.7256 31.3584 13.243 31.3584C14.8505 31.3584 15.8626 29.8973 16.9632 26.0184L23.6587 2.6326C23.7471 2.27454 23.8373 1.94718 23.8373 1.70848C23.8373 1.1714 23.5107 0.87303 22.587 1.05205L16.6945 2.12619L15.2366 22.8266C15.1771 23.5717 15.0291 23.9298 14.7603 23.9298C14.4626 23.9298 14.3146 23.6314 14.1955 22.8556L11.8736 6.4211C11.4568 3.52772 10.5944 2.12619 9.16545 2.12619C7.55791 2.12619 6.63593 3.37938 5.98101 6.57116L0 35.4146L5.95207 34.2808L6.93364 16.8318ZM23.9853 16.5931C23.9853 21.5445 25.8599 24.2298 29.1039 24.2298C32.734 24.2298 35.2941 20.7107 35.2941 11.9709C35.2941 9.91294 35.2652 7.55662 35.1461 5.67774C34.3721 6.48247 33.1524 7.55662 32.1998 8.18408C32.3189 9.28722 32.3784 11.1064 32.3784 13.3144C32.3784 17.1916 31.9923 21.4865 30.5634 21.4865C29.7298 21.4865 29.4628 19.5479 29.4628 17.0126C29.4628 13.8515 29.8795 10.092 30.1466 9.01783C29.2246 9.3162 26.3668 9.79361 24.2847 9.91294C24.1061 11.6725 23.987 14.3868 23.987 16.5948L23.9853 16.5931ZM42.0796 21.4558C45.2644 21.4558 47.0195 18.4738 47.0195 13.253C47.0195 11.3144 46.9602 10.092 46.9312 9.46451C46.3955 9.19683 45.3237 8.68873 44.2825 7.97266C44.3115 8.77742 44.4015 10.5387 44.4015 12.9836C44.4015 16.8608 43.8965 19.0381 43.0917 19.0381C42.2292 19.0381 41.9013 17.6059 41.9013 13.132C41.9013 9.97091 42.0493 7.10649 42.0796 6.33075C40.3531 5.10825 38.0329 3.19865 37.497 2.6019C37.1993 7.49355 37.1398 10.4466 37.1398 13.132C37.1398 18.143 39.1045 21.4541 42.0796 21.4541V21.4558Z" fill="white"/>
</g>
<defs>
<clipPath id="clip0_365_407">
<rect width="68" height="34.8293" fill="white" transform="translate(0 0.585365)"/>
</clipPath>
</defs>
</svg>
