<svg width="212" height="110" viewBox="0 0 212 110" fill="none" xmlns="http://www.w3.org/2000/svg">
<g clip-path="url(#clip0_365_625)">
<path d="M197.53 35.7542C197.716 33.1396 197.53 32.4887 196.511 32.4887C195.955 32.4887 195.494 33.0489 194.75 35.194L183.248 67.0279C181.763 71.0405 180.093 72.908 177.308 72.8173C174.433 72.7266 172.481 70.5762 171.835 66.0941L167.847 38.0913C167.476 35.7597 167.199 35.0126 166.457 35.0126C165.625 35.0126 165.439 35.5728 164.972 38.0913L160.331 64.9736L151.518 63.2928L161.446 13.9091C163.302 4.85408 165.343 2.05275 169.888 2.05275C173.787 2.05275 176.29 5.41433 177.032 12.6925L180.744 47.4185C180.835 47.792 181.021 47.8827 181.301 47.8827C181.582 47.8827 181.763 47.6959 181.859 47.5092L192.528 18.1991C195.684 9.61371 198.93 6.15606 203.104 6.52957C207.929 6.99379 209.415 10.2647 209.415 19.88V77.9451L194.385 80.8373L197.54 35.7489L197.53 35.7542ZM21.6166 51.2496C21.7067 48.9179 22.2636 47.7973 23.006 47.7973C23.8388 47.7973 24.3054 48.4483 24.8623 51.159L31.1733 80.8426C33.4908 91.9519 36.5562 96.7114 41.2869 96.7114C46.2985 96.7114 49.454 92.1386 52.8853 79.9994L73.7595 6.8124C74.0352 5.69185 74.3163 4.66734 74.3163 3.92031C74.3163 2.23951 73.2981 1.30574 70.4183 1.86601L52.0474 5.22757L47.5023 70.0107C47.3167 72.3424 46.8554 73.463 46.0174 73.463C45.0893 73.463 44.6279 72.5292 44.2567 70.1014L37.0177 18.6687C35.7182 9.61372 33.0295 5.22757 28.5746 5.22757C23.5629 5.22757 20.6885 9.1495 18.6467 19.1383L0 109.406L18.5565 105.857L21.6166 51.2496ZM74.7777 50.5026C74.7777 65.9981 80.6221 74.4021 90.7356 74.4021C102.053 74.4021 110.035 63.3888 110.035 36.037C110.035 29.5966 109.944 22.2224 109.573 16.3423C107.16 18.8608 103.358 22.2224 100.388 24.1861C100.759 27.6384 100.945 33.3317 100.945 40.2416C100.945 52.3755 99.7407 65.8167 95.2859 65.8167C92.6872 65.8167 91.8546 59.7498 91.8546 51.8152C91.8546 41.9226 93.1538 30.1569 93.9866 26.7953C91.112 27.7291 82.2024 29.2232 75.711 29.5966C75.1543 35.1032 74.783 43.5979 74.783 50.5079L74.7777 50.5026ZM131.189 65.7205C141.118 65.7205 146.59 56.3882 146.59 40.0496C146.59 33.9827 146.405 30.1569 146.315 28.1932C144.645 27.3555 141.303 25.7654 138.057 23.5244C138.148 26.043 138.428 31.5548 138.428 39.2065C138.428 51.3404 136.854 58.1544 134.345 58.1544C131.656 58.1544 130.633 53.6721 130.633 39.6708C130.633 29.778 131.095 20.8137 131.189 18.386C125.807 14.5601 118.573 8.58388 116.902 6.71632C115.974 22.025 115.789 31.2668 115.789 39.6708C115.789 55.3529 121.914 65.7152 131.189 65.7152V65.7205Z" fill="white"/>
</g>
<defs>
<clipPath id="clip0_365_625">
<rect width="212" height="109" fill="white" transform="translate(0 0.405273)"/>
</clipPath>
</defs>
</svg>
