<svg width="95" height="28" viewBox="0 0 95 28" fill="none" xmlns="http://www.w3.org/2000/svg">
<path d="M9.99 0.360058C11.31 0.360058 12.4 0.590058 13.26 1.05006C14.12 1.51006 14.72 2.16006 15.06 3.00006C15.42 3.84006 15.48 4.82006 15.24 5.94006C15.12 6.54006 14.93 7.08006 14.67 7.56006C14.41 8.04006 14.09 8.47006 13.71 8.85006C13.33 9.23006 12.89 9.58006 12.39 9.90006C12.83 10.1201 13.23 10.4701 13.59 10.9501C13.97 11.4301 14.24 12.0301 14.4 12.7501C14.56 13.4501 14.54 14.2601 14.34 15.1801C14.08 16.4201 13.6 17.5101 12.9 18.4501C12.22 19.3701 11.35 20.0901 10.29 20.6101C9.23 21.1101 8 21.3601 6.6 21.3601H0L4.47 0.360058H9.99ZM7.41 8.94006C8.19 8.94006 8.84 8.86006 9.36 8.70006C9.9 8.52006 10.33 8.23006 10.65 7.83006C10.97 7.41006 11.2 6.85006 11.34 6.15006C11.48 5.53006 11.47 5.04006 11.31 4.68006C11.17 4.32006 10.89 4.06006 10.47 3.90006C10.05 3.74006 9.5 3.66006 8.82 3.66006H7.08L5.97 8.94006H7.41ZM6.36 18.3001C6.86 18.3001 7.4 18.2201 7.98 18.0601C8.56 17.8801 9.09 17.5601 9.57 17.1001C10.05 16.6401 10.38 15.9801 10.56 15.1201C10.7 14.4401 10.68 13.8801 10.5 13.4401C10.32 13.0001 9.97 12.6701 9.45 12.4501C8.95 12.2301 8.27 12.1201 7.41 12.1201H5.28L3.96 18.3001H6.36Z" fill="white"/>
<path d="M27.1751 15.8101C26.8151 17.5701 26.0651 18.9901 24.9251 20.0701C23.8051 21.1301 22.3251 21.6601 20.4851 21.6601C19.1651 21.6601 18.1451 21.3901 17.4251 20.8501C16.7251 20.2901 16.2751 19.5701 16.0751 18.6901C15.8751 17.7901 15.8751 16.8301 16.0751 15.8101L16.9451 11.8501C17.2251 10.5701 17.6651 9.50006 18.2651 8.64006C18.8851 7.78006 19.6551 7.13006 20.5751 6.69006C21.5151 6.23006 22.5951 6.00006 23.8151 6.00006C25.5551 6.00006 26.7951 6.52006 27.5351 7.56006C28.2751 8.58006 28.4451 10.0101 28.0451 11.8501L27.1751 15.8101ZM24.6851 11.6701C24.7851 11.1901 24.7951 10.7801 24.7151 10.4401C24.6351 10.0801 24.4551 9.81006 24.1751 9.63006C23.9151 9.43006 23.5451 9.33006 23.0651 9.33006C22.5851 9.33006 22.1551 9.42006 21.7751 9.60006C21.4151 9.78006 21.1051 10.0401 20.8451 10.3801C20.6051 10.7201 20.4251 11.1501 20.3051 11.6701L19.3751 16.0501C19.2951 16.4501 19.2951 16.8301 19.3751 17.1901C19.4551 17.5501 19.6351 17.8401 19.9151 18.0601C20.1951 18.2801 20.6051 18.3901 21.1451 18.3901C21.6451 18.3901 22.0651 18.2901 22.4051 18.0901C22.7651 17.8901 23.0551 17.6101 23.2751 17.2501C23.4951 16.8901 23.6551 16.4901 23.7551 16.0501L24.6851 11.6701Z" fill="white"/>
<path d="M40.1236 18.1801C40.1036 18.5001 40.1436 18.7601 40.2436 18.9601C40.3636 19.1601 40.5336 19.3401 40.7536 19.5001L38.2936 21.8701C38.3136 21.8701 38.2136 21.8201 37.9936 21.7201C37.7936 21.6201 37.5636 21.4601 37.3036 21.2401C37.0636 21.0201 36.8736 20.7201 36.7336 20.3401C36.5936 19.9401 36.5836 19.4401 36.7036 18.8401L38.7136 9.45006H33.9736L31.4536 21.3601H28.1236L31.3336 6.33006H42.6436L40.1236 18.1801Z" fill="white"/>
<path d="M54.5105 16.2301C54.2705 17.4501 53.8605 18.4801 53.2805 19.3201C52.7205 20.1601 52.0205 20.8001 51.1805 21.2401C50.3405 21.6601 49.3605 21.8701 48.2405 21.8701C48.0005 21.8701 47.7605 21.8501 47.5205 21.8101C47.2805 21.7701 47.0505 21.7201 46.8305 21.6601C46.6105 21.6001 46.4005 21.5201 46.2005 21.4201C46.0205 21.3401 45.8505 21.2501 45.6905 21.1501L44.2805 27.8401L41.1305 27.0901L44.3405 12.0001C44.7405 10.1001 45.5305 8.65006 46.7105 7.65006C47.9105 6.63006 49.4205 6.12006 51.2405 6.12006C52.9605 6.12006 54.1905 6.64006 54.9305 7.68006C55.6705 8.72006 55.8405 10.1601 55.4405 12.0001L54.5105 16.2301ZM52.1705 11.8201C52.2705 11.3401 52.2705 10.9301 52.1705 10.5901C52.0705 10.2301 51.8705 9.95006 51.5705 9.75006C51.2705 9.55006 50.8805 9.45006 50.4005 9.45006C49.9405 9.45006 49.5205 9.54006 49.1405 9.72006C48.7605 9.90006 48.4505 10.1701 48.2105 10.5301C47.9705 10.8701 47.7905 11.3001 47.6705 11.8201L46.5005 17.3101C46.4405 17.5701 46.4705 17.8001 46.5905 18.0001C46.7305 18.2001 46.9205 18.3701 47.1605 18.5101C47.4005 18.6501 47.6505 18.7501 47.9105 18.8101C48.1905 18.8701 48.4505 18.9001 48.6905 18.9001C49.1305 18.9001 49.5105 18.8101 49.8305 18.6301C50.1705 18.4501 50.4505 18.2001 50.6705 17.8801C50.8905 17.5401 51.0405 17.1401 51.1205 16.6801L52.1705 11.8201Z" fill="white"/>
<path d="M67.7805 15.8101C67.4205 17.5701 66.6705 18.9901 65.5305 20.0701C64.4105 21.1301 62.9305 21.6601 61.0905 21.6601C59.7705 21.6601 58.7505 21.3901 58.0305 20.8501C57.3305 20.2901 56.8805 19.5701 56.6805 18.6901C56.4805 17.7901 56.4805 16.8301 56.6805 15.8101L57.5505 11.8501C57.8305 10.5701 58.2705 9.50006 58.8705 8.64006C59.4905 7.78006 60.2605 7.13006 61.1805 6.69006C62.1205 6.23006 63.2005 6.00006 64.4205 6.00006C66.1605 6.00006 67.4005 6.52006 68.1405 7.56006C68.8805 8.58006 69.0506 10.0101 68.6506 11.8501L67.7805 15.8101ZM65.2906 11.6701C65.3906 11.1901 65.4005 10.7801 65.3205 10.4401C65.2405 10.0801 65.0605 9.81006 64.7805 9.63006C64.5205 9.43006 64.1505 9.33006 63.6705 9.33006C63.1905 9.33006 62.7605 9.42006 62.3805 9.60006C62.0205 9.78006 61.7105 10.0401 61.4505 10.3801C61.2105 10.7201 61.0305 11.1501 60.9105 11.6701L59.9805 16.0501C59.9005 16.4501 59.9005 16.8301 59.9805 17.1901C60.0605 17.5501 60.2405 17.8401 60.5205 18.0601C60.8005 18.2801 61.2105 18.3901 61.7505 18.3901C62.2505 18.3901 62.6705 18.2901 63.0105 18.0901C63.3705 17.8901 63.6605 17.6101 63.8805 17.2501C64.1005 16.8901 64.2606 16.4901 64.3605 16.0501L65.2906 11.6701Z" fill="white"/>
<path d="M79.9191 9.54006C79.5591 9.34006 79.1491 9.19006 78.6891 9.09006C78.2491 8.97006 77.7991 8.90006 77.3391 8.88006C76.7991 8.88006 76.2891 8.97006 75.8091 9.15006C75.3291 9.31006 74.9191 9.58006 74.5791 9.96006C74.2391 10.3201 74.0091 10.8001 73.8891 11.4001L72.8991 16.1101C72.7991 16.5701 72.7891 16.9801 72.8691 17.3401C72.9491 17.6801 73.0991 17.9601 73.3191 18.1801C73.5591 18.4001 73.8591 18.5701 74.2191 18.6901C74.5791 18.7901 74.9891 18.8401 75.4491 18.8401C75.7691 18.8401 76.0891 18.8301 76.4091 18.8101C76.7491 18.7701 77.0491 18.7301 77.3091 18.6901C77.5691 18.6301 77.7791 18.5901 77.9391 18.5701C78.0991 18.5301 78.1791 18.5101 78.1791 18.5101L78.2091 21.2101C77.5491 21.3701 76.8791 21.5001 76.1991 21.6001C75.5191 21.7001 74.8391 21.7401 74.1591 21.7201C73.0191 21.7001 72.0591 21.4901 71.2791 21.0901C70.4991 20.6901 69.9591 20.0801 69.6591 19.2601C69.3591 18.4401 69.3391 17.4001 69.5991 16.1401L70.5591 11.7601C70.8191 10.6001 71.2291 9.58006 71.7891 8.70006C72.3691 7.82006 73.1291 7.14006 74.0691 6.66006C75.0291 6.18006 76.1991 5.96006 77.5791 6.00006C78.2191 6.02006 78.8391 6.12006 79.4391 6.30006C80.0591 6.48006 80.6391 6.71006 81.1791 6.99006L79.9191 9.54006Z" fill="white"/>
<path d="M83.302 5.37006C83.482 4.45006 83.802 3.66006 84.262 3.00006C84.722 2.32006 85.252 1.77006 85.852 1.35006C86.472 0.910059 87.122 0.590059 87.802 0.390058C88.502 0.170058 89.182 0.0600586 89.842 0.0600586C90.622 0.0600586 91.322 0.190059 91.942 0.450059C92.582 0.710059 93.112 1.09006 93.532 1.59006C93.952 2.07006 94.232 2.66006 94.372 3.36006C94.532 4.04006 94.522 4.81006 94.342 5.67006C94.222 6.33006 93.992 6.93006 93.652 7.47006C93.332 7.99006 92.942 8.49006 92.482 8.97006C92.042 9.43006 91.552 9.90006 91.012 10.3801C90.512 10.8201 90.092 11.2101 89.752 11.5501C89.412 11.8901 89.122 12.2301 88.882 12.5701C88.662 12.8901 88.472 13.2501 88.312 13.6501C88.172 14.0301 88.042 14.4901 87.922 15.0301L87.352 17.7601H84.052L84.652 14.9701C84.792 14.3301 84.982 13.7401 85.222 13.2001C85.462 12.6601 85.742 12.1601 86.062 11.7001C86.382 11.2401 86.712 10.8201 87.052 10.4401C87.412 10.0401 87.772 9.67006 88.132 9.33006C88.592 8.89006 89.022 8.47006 89.422 8.07006C89.822 7.65006 90.162 7.24006 90.442 6.84006C90.742 6.42006 90.942 5.99006 91.042 5.55006C91.122 5.15006 91.102 4.77006 90.982 4.41006C90.862 4.05006 90.652 3.76006 90.352 3.54006C90.052 3.32006 89.662 3.21006 89.182 3.21006C88.922 3.21006 88.662 3.26006 88.402 3.36006C88.142 3.44006 87.892 3.57006 87.652 3.75006C87.432 3.93006 87.232 4.16006 87.052 4.44006C86.892 4.70006 86.772 5.01006 86.692 5.37006H83.302ZM85.612 18.2401C86.112 18.2401 86.492 18.4201 86.752 18.7801C87.012 19.1201 87.092 19.5501 86.992 20.0701C86.892 20.5701 86.632 21.0001 86.212 21.3601C85.792 21.7001 85.332 21.8701 84.832 21.8701C84.332 21.8701 83.942 21.7001 83.662 21.3601C83.402 21.0001 83.322 20.5701 83.422 20.0701C83.522 19.5501 83.782 19.1201 84.202 18.7801C84.642 18.4201 85.112 18.2401 85.612 18.2401Z" fill="white"/>
</svg>
