<svg width="365" height="54" viewBox="0 0 365 54" fill="none" xmlns="http://www.w3.org/2000/svg">
<g clip-path="url(#clip0_395_815)">
<path d="M4.55005 14.3C4.46672 14.7167 4.44172 15.075 4.47505 15.375C4.52505 15.675 4.64172 15.925 4.82505 16.125C5.02505 16.3083 5.30005 16.4667 5.65005 16.6L4.05005 18.5C3.58338 18.3667 3.17505 18.1917 2.82505 17.975C2.49172 17.7417 2.22505 17.4667 2.02505 17.15C1.82505 16.8167 1.70005 16.4417 1.65005 16.025C1.60005 15.6083 1.62505 15.1583 1.72505 14.675L3.12505 8.075H0.800049L1.35005 5.475H8.92505L8.37505 8.075H5.87505L4.55005 14.3ZM9.08384 23.225L11.9338 18L10.0588 5.475H12.7088L14.0088 14.275L18.7589 5.475H21.4088L11.7838 23.225H9.08384ZM25.9855 14.3C25.9022 14.7167 25.8772 15.075 25.9105 15.375C25.9605 15.675 26.0772 15.925 26.2605 16.125C26.4605 16.3083 26.7356 16.4667 27.0856 16.6L25.4855 18.5C25.0189 18.3667 24.6105 18.1917 24.2605 17.975C23.9272 17.7417 23.6606 17.4667 23.4606 17.15C23.2606 16.8167 23.1356 16.4417 23.0856 16.025C23.0356 15.6083 23.0605 15.1583 23.1605 14.675L24.5605 8.075H22.2355L22.7855 5.475H30.3605L29.8105 8.075H27.3105L25.9855 14.3ZM43.8262 5.3C44.7595 5.3 45.5013 5.475 46.0513 5.825C46.6013 6.175 46.9596 6.7 47.1263 7.4C47.3096 8.1 47.2928 8.96667 47.0762 10L46.3512 13.375C46.0345 14.8917 45.3845 16.0917 44.4012 16.975C43.4178 17.8417 42.2095 18.275 40.7762 18.275C39.8428 18.275 39.0596 18.0917 38.4263 17.725C37.8096 17.3417 37.3763 16.7917 37.1263 16.075C36.8929 15.3417 36.8845 14.4417 37.1012 13.375L38.6763 6C38.8096 5.38333 39.0429 4.75833 39.3763 4.125C39.7263 3.49167 40.1846 2.91667 40.7513 2.4C41.2679 1.91667 41.8845 1.50833 42.6012 1.175C43.3178 0.841667 44.1346 0.616667 45.0513 0.5L45.3512 2.225C44.7845 2.34167 44.2679 2.50833 43.8013 2.725C43.3513 2.94167 42.9428 3.23333 42.5762 3.6C42.3095 3.88333 42.0845 4.20833 41.9012 4.575C41.7178 4.94167 41.5678 5.39167 41.4512 5.925L41.4012 6.15C41.6178 6.01667 41.8596 5.88333 42.1263 5.75C42.4096 5.61667 42.6928 5.50833 42.9762 5.425C43.2762 5.34167 43.5595 5.3 43.8262 5.3ZM42.9263 7.8C42.7263 7.8 42.5095 7.83333 42.2762 7.9C42.0428 7.95 41.8178 8.04167 41.6012 8.175C41.3845 8.29167 41.1928 8.45833 41.0262 8.675C40.8762 8.875 40.7678 9.11667 40.7012 9.4L39.8262 13.525C39.7428 13.9417 39.7262 14.3 39.7762 14.6C39.8262 14.8833 39.9678 15.1083 40.2012 15.275C40.4345 15.425 40.7846 15.5 41.2513 15.5C41.6513 15.5 42.0095 15.4167 42.3262 15.25C42.6428 15.0833 42.9012 14.8583 43.1012 14.575C43.3178 14.275 43.4679 13.925 43.5513 13.525L44.3763 9.625C44.4596 9.24167 44.4596 8.91667 44.3763 8.65C44.2929 8.36667 44.1263 8.15833 43.8763 8.025C43.6429 7.875 43.3263 7.8 42.9263 7.8ZM48.1951 23.225L51.0452 18L49.1702 5.475H51.8201L53.1201 14.275L57.8701 5.475H60.5201L50.8951 23.225H48.1951ZM71.1969 15.275H72.5969L71.3469 21.15H69.0469L69.1969 18.025H61.597L60.3969 21.15H58.097L59.347 15.275H61.047L64.0719 9.25C64.2719 8.85 64.5052 8.43333 64.7719 8C65.0552 7.55 65.3802 7.13333 65.7469 6.75C66.1302 6.36667 66.5885 6.05833 67.1219 5.825C67.6719 5.59167 68.3219 5.475 69.0719 5.475H73.2719L71.1969 15.275ZM63.922 15.275H68.4219L70.0219 7.825H69.2469C68.9802 7.825 68.7302 7.85 68.4969 7.9C68.2635 7.93333 68.0469 8.00833 67.8469 8.125C67.6469 8.24167 67.4552 8.4 67.2719 8.6C67.0885 8.8 66.9219 9.05833 66.7719 9.375L63.922 15.275ZM76.692 14.275C76.642 14.4917 76.6337 14.6917 76.667 14.875C76.7003 15.0417 76.7587 15.1917 76.842 15.325C76.942 15.4583 77.0753 15.5583 77.242 15.625C77.4087 15.6917 77.6003 15.725 77.817 15.725C78.267 15.725 78.8003 15.625 79.417 15.425C80.0337 15.225 80.6337 14.9917 81.217 14.725L81.717 17.125C81.0503 17.4917 80.317 17.7833 79.517 18C78.717 18.2167 77.942 18.325 77.192 18.325C76.6087 18.325 76.0753 18.25 75.592 18.1C75.1253 17.95 74.7337 17.725 74.417 17.425C74.117 17.125 73.9087 16.7417 73.792 16.275C73.692 15.8083 73.7087 15.2583 73.842 14.625L74.942 9.5C75.142 8.58333 75.492 7.80833 75.992 7.175C76.5087 6.54167 77.1337 6.05833 77.867 5.725C78.617 5.39167 79.442 5.225 80.342 5.225C81.242 5.225 81.992 5.38333 82.592 5.7C83.2087 6.01667 83.642 6.48333 83.892 7.1C84.142 7.71667 84.167 8.49167 83.967 9.425L83.142 13.325L76.842 13.65L76.692 14.275ZM81.042 10.175C81.1087 9.825 81.142 9.46667 81.142 9.1C81.142 8.73333 81.0503 8.43333 80.867 8.2C80.7003 7.95 80.367 7.84167 79.867 7.875C79.3503 7.89167 78.942 8 78.642 8.2C78.3587 8.38333 78.1337 8.64167 77.967 8.975C77.817 9.29167 77.6837 9.68333 77.567 10.15L77.367 11.125L80.867 10.9L81.042 10.175ZM89.4865 14.3C89.4032 14.7167 89.3782 15.075 89.4115 15.375C89.4615 15.675 89.5782 15.925 89.7615 16.125C89.9615 16.3083 90.2365 16.4667 90.5865 16.6L88.9865 18.5C88.5199 18.3667 88.1115 18.1917 87.7615 17.975C87.4282 17.7417 87.1615 17.4667 86.9615 17.15C86.7615 16.8167 86.6365 16.4417 86.5865 16.025C86.5365 15.6083 86.5615 15.1583 86.6615 14.675L88.0615 8.075H85.7365L86.2865 5.475H93.8615L93.3115 8.075H90.8115L89.4865 14.3ZM108.077 9.85L109.002 5.5H111.752L109.102 18H106.352L107.527 12.475H103.827L102.652 18H99.8771L102.527 5.5H105.302L104.377 9.85H108.077ZM114.436 14.275C114.386 14.4917 114.378 14.6917 114.411 14.875C114.444 15.0417 114.503 15.1917 114.586 15.325C114.686 15.4583 114.819 15.5583 114.986 15.625C115.153 15.6917 115.344 15.725 115.561 15.725C116.011 15.725 116.544 15.625 117.161 15.425C117.778 15.225 118.378 14.9917 118.961 14.725L119.461 17.125C118.794 17.4917 118.061 17.7833 117.261 18C116.461 18.2167 115.686 18.325 114.936 18.325C114.353 18.325 113.819 18.25 113.336 18.1C112.869 17.95 112.478 17.725 112.161 17.425C111.861 17.125 111.653 16.7417 111.536 16.275C111.436 15.8083 111.453 15.2583 111.586 14.625L112.686 9.5C112.886 8.58333 113.236 7.80833 113.736 7.175C114.253 6.54167 114.878 6.05833 115.611 5.725C116.361 5.39167 117.186 5.225 118.086 5.225C118.986 5.225 119.736 5.38333 120.336 5.7C120.953 6.01667 121.386 6.48333 121.636 7.1C121.886 7.71667 121.911 8.49167 121.711 9.425L120.886 13.325L114.586 13.65L114.436 14.275ZM118.786 10.175C118.853 9.825 118.886 9.46667 118.886 9.1C118.886 8.73333 118.794 8.43333 118.611 8.2C118.444 7.95 118.111 7.84167 117.611 7.875C117.094 7.89167 116.686 8 116.386 8.2C116.103 8.38333 115.878 8.64167 115.711 8.975C115.561 9.29167 115.428 9.68333 115.311 10.15L115.111 11.125L118.611 10.9L118.786 10.175ZM134.031 5.5H137.081L134.431 18.025H131.681L133.081 11.4L129.081 18.025H127.006L125.756 11.4L124.356 18.025H121.581L124.231 5.5H127.331L128.806 14.3L134.031 5.5ZM144.527 9.85L145.452 5.5H148.202L145.552 18H142.802L143.977 12.475H140.277L139.102 18H136.327L138.977 5.5H141.752L140.827 9.85H144.527ZM157.486 13.375C157.186 14.8417 156.561 16.025 155.611 16.925C154.678 17.8083 153.445 18.25 151.911 18.25C150.811 18.25 149.961 18.025 149.361 17.575C148.778 17.1083 148.403 16.5083 148.236 15.775C148.07 15.025 148.07 14.225 148.236 13.375L148.961 10.075C149.195 9.00833 149.561 8.11667 150.061 7.4C150.578 6.68333 151.22 6.14167 151.986 5.775C152.77 5.39167 153.67 5.2 154.686 5.2C156.136 5.2 157.17 5.63333 157.786 6.5C158.403 7.35 158.545 8.54167 158.211 10.075L157.486 13.375ZM155.411 9.925C155.495 9.525 155.503 9.18333 155.436 8.9C155.37 8.6 155.22 8.375 154.986 8.225C154.77 8.05833 154.461 7.975 154.061 7.975C153.661 7.975 153.303 8.05 152.986 8.2C152.686 8.35 152.428 8.56667 152.211 8.85C152.011 9.13333 151.861 9.49167 151.761 9.925L150.986 13.575C150.92 13.9083 150.92 14.225 150.986 14.525C151.053 14.825 151.203 15.0667 151.436 15.25C151.67 15.4333 152.011 15.525 152.461 15.525C152.878 15.525 153.228 15.4417 153.511 15.275C153.811 15.1083 154.053 14.875 154.236 14.575C154.42 14.275 154.553 13.9417 154.636 13.575L155.411 9.925ZM168.302 13.375C168.002 14.8417 167.377 16.025 166.427 16.925C165.493 17.8083 164.26 18.25 162.727 18.25C161.627 18.25 160.777 18.025 160.177 17.575C159.593 17.1083 159.218 16.5083 159.052 15.775C158.885 15.025 158.885 14.225 159.052 13.375L159.777 10.075C160.01 9.00833 160.377 8.11667 160.877 7.4C161.393 6.68333 162.035 6.14167 162.802 5.775C163.585 5.39167 164.485 5.2 165.502 5.2C166.952 5.2 167.985 5.63333 168.602 6.5C169.218 7.35 169.36 8.54167 169.027 10.075L168.302 13.375ZM166.227 9.925C166.31 9.525 166.318 9.18333 166.252 8.9C166.185 8.6 166.035 8.375 165.802 8.225C165.585 8.05833 165.277 7.975 164.877 7.975C164.477 7.975 164.118 8.05 163.802 8.2C163.502 8.35 163.243 8.56667 163.027 8.85C162.827 9.13333 162.677 9.49167 162.577 9.925L161.802 13.575C161.735 13.9083 161.735 14.225 161.802 14.525C161.868 14.825 162.018 15.0667 162.252 15.25C162.485 15.4333 162.827 15.525 163.277 15.525C163.693 15.525 164.043 15.4417 164.327 15.275C164.627 15.1083 164.868 14.875 165.052 14.575C165.235 14.275 165.368 13.9417 165.452 13.575L166.227 9.925ZM179.117 13.375C178.817 14.8417 178.192 16.025 177.242 16.925C176.309 17.8083 175.076 18.25 173.542 18.25C172.442 18.25 171.592 18.025 170.992 17.575C170.409 17.1083 170.034 16.5083 169.867 15.775C169.701 15.025 169.701 14.225 169.867 13.375L170.592 10.075C170.826 9.00833 171.192 8.11667 171.692 7.4C172.209 6.68333 172.851 6.14167 173.617 5.775C174.401 5.39167 175.301 5.2 176.317 5.2C177.767 5.2 178.801 5.63333 179.417 6.5C180.034 7.35 180.176 8.54167 179.842 10.075L179.117 13.375ZM177.042 9.925C177.126 9.525 177.134 9.18333 177.067 8.9C177.001 8.6 176.851 8.375 176.617 8.225C176.401 8.05833 176.092 7.975 175.692 7.975C175.292 7.975 174.934 8.05 174.617 8.2C174.317 8.35 174.059 8.56667 173.842 8.85C173.642 9.13333 173.492 9.49167 173.392 9.925L172.617 13.575C172.551 13.9083 172.551 14.225 172.617 14.525C172.684 14.825 172.834 15.0667 173.067 15.25C173.301 15.4333 173.642 15.525 174.092 15.525C174.509 15.525 174.859 15.4417 175.142 15.275C175.442 15.1083 175.684 14.875 175.867 14.575C176.051 14.275 176.184 13.9417 176.267 13.575L177.042 9.925ZM189.933 13.375C189.633 14.8417 189.008 16.025 188.058 16.925C187.124 17.8083 185.891 18.25 184.358 18.25C183.258 18.25 182.408 18.025 181.808 17.575C181.224 17.1083 180.849 16.5083 180.683 15.775C180.516 15.025 180.516 14.225 180.683 13.375L181.408 10.075C181.641 9.00833 182.008 8.11667 182.508 7.4C183.024 6.68333 183.666 6.14167 184.433 5.775C185.216 5.39167 186.116 5.2 187.133 5.2C188.583 5.2 189.616 5.63333 190.233 6.5C190.849 7.35 190.991 8.54167 190.658 10.075L189.933 13.375ZM187.858 9.925C187.941 9.525 187.949 9.18333 187.883 8.9C187.816 8.6 187.666 8.375 187.433 8.225C187.216 8.05833 186.908 7.975 186.508 7.975C186.108 7.975 185.749 8.05 185.433 8.2C185.133 8.35 184.874 8.56667 184.658 8.85C184.458 9.13333 184.308 9.49167 184.208 9.925L183.433 13.575C183.366 13.9083 183.366 14.225 183.433 14.525C183.499 14.825 183.649 15.0667 183.883 15.25C184.116 15.4333 184.458 15.525 184.908 15.525C185.324 15.525 185.674 15.4417 185.958 15.275C186.258 15.1083 186.499 14.875 186.683 14.575C186.866 14.275 186.999 13.9417 187.083 13.575L187.858 9.925ZM200.748 13.375C200.448 14.8417 199.823 16.025 198.873 16.925C197.94 17.8083 196.706 18.25 195.173 18.25C194.073 18.25 193.223 18.025 192.623 17.575C192.04 17.1083 191.665 16.5083 191.498 15.775C191.331 15.025 191.331 14.225 191.498 13.375L192.223 10.075C192.456 9.00833 192.823 8.11667 193.323 7.4C193.84 6.68333 194.481 6.14167 195.248 5.775C196.031 5.39167 196.931 5.2 197.948 5.2C199.398 5.2 200.431 5.63333 201.048 6.5C201.665 7.35 201.806 8.54167 201.473 10.075L200.748 13.375ZM198.673 9.925C198.756 9.525 198.765 9.18333 198.698 8.9C198.631 8.6 198.481 8.375 198.248 8.225C198.031 8.05833 197.723 7.975 197.323 7.975C196.923 7.975 196.565 8.05 196.248 8.2C195.948 8.35 195.69 8.56667 195.473 8.85C195.273 9.13333 195.123 9.49167 195.023 9.925L194.248 13.575C194.181 13.9083 194.181 14.225 194.248 14.525C194.315 14.825 194.465 15.0667 194.698 15.25C194.931 15.4333 195.273 15.525 195.723 15.525C196.14 15.525 196.49 15.4417 196.773 15.275C197.073 15.1083 197.315 14.875 197.498 14.575C197.681 14.275 197.815 13.9417 197.898 13.575L198.673 9.925ZM211.563 13.375C211.263 14.8417 210.638 16.025 209.688 16.925C208.755 17.8083 207.522 18.25 205.988 18.25C204.888 18.25 204.038 18.025 203.438 17.575C202.855 17.1083 202.48 16.5083 202.313 15.775C202.147 15.025 202.147 14.225 202.313 13.375L203.038 10.075C203.272 9.00833 203.638 8.11667 204.138 7.4C204.655 6.68333 205.297 6.14167 206.063 5.775C206.847 5.39167 207.747 5.2 208.763 5.2C210.213 5.2 211.247 5.63333 211.863 6.5C212.48 7.35 212.622 8.54167 212.288 10.075L211.563 13.375ZM209.488 9.925C209.572 9.525 209.58 9.18333 209.513 8.9C209.447 8.6 209.297 8.375 209.063 8.225C208.847 8.05833 208.538 7.975 208.138 7.975C207.738 7.975 207.38 8.05 207.063 8.2C206.763 8.35 206.505 8.56667 206.288 8.85C206.088 9.13333 205.938 9.49167 205.838 9.925L205.063 13.575C204.997 13.9083 204.997 14.225 205.063 14.525C205.13 14.825 205.28 15.0667 205.513 15.25C205.747 15.4333 206.088 15.525 206.538 15.525C206.955 15.525 207.305 15.4417 207.588 15.275C207.888 15.1083 208.13 14.875 208.313 14.575C208.497 14.275 208.63 13.9417 208.713 13.575L209.488 9.925ZM222.379 13.375C222.079 14.8417 221.454 16.025 220.504 16.925C219.571 17.8083 218.337 18.25 216.804 18.25C215.704 18.25 214.854 18.025 214.254 17.575C213.671 17.1083 213.296 16.5083 213.129 15.775C212.962 15.025 212.962 14.225 213.129 13.375L213.854 10.075C214.087 9.00833 214.454 8.11667 214.954 7.4C215.471 6.68333 216.112 6.14167 216.879 5.775C217.662 5.39167 218.562 5.2 219.579 5.2C221.029 5.2 222.062 5.63333 222.679 6.5C223.296 7.35 223.437 8.54167 223.104 10.075L222.379 13.375ZM220.304 9.925C220.387 9.525 220.396 9.18333 220.329 8.9C220.262 8.6 220.112 8.375 219.879 8.225C219.662 8.05833 219.354 7.975 218.954 7.975C218.554 7.975 218.196 8.05 217.879 8.2C217.579 8.35 217.321 8.56667 217.104 8.85C216.904 9.13333 216.754 9.49167 216.654 9.925L215.879 13.575C215.812 13.9083 215.812 14.225 215.879 14.525C215.946 14.825 216.096 15.0667 216.329 15.25C216.562 15.4333 216.904 15.525 217.354 15.525C217.771 15.525 218.121 15.4417 218.404 15.275C218.704 15.1083 218.946 14.875 219.129 14.575C219.312 14.275 219.446 13.9417 219.529 13.575L220.304 9.925ZM233.194 13.375C232.894 14.8417 232.269 16.025 231.319 16.925C230.386 17.8083 229.153 18.25 227.619 18.25C226.519 18.25 225.669 18.025 225.069 17.575C224.486 17.1083 224.111 16.5083 223.944 15.775C223.778 15.025 223.778 14.225 223.944 13.375L224.669 10.075C224.903 9.00833 225.269 8.11667 225.769 7.4C226.286 6.68333 226.928 6.14167 227.694 5.775C228.478 5.39167 229.378 5.2 230.394 5.2C231.844 5.2 232.878 5.63333 233.494 6.5C234.111 7.35 234.253 8.54167 233.919 10.075L233.194 13.375ZM231.119 9.925C231.203 9.525 231.211 9.18333 231.144 8.9C231.078 8.6 230.928 8.375 230.694 8.225C230.478 8.05833 230.169 7.975 229.769 7.975C229.369 7.975 229.011 8.05 228.694 8.2C228.394 8.35 228.136 8.56667 227.919 8.85C227.719 9.13333 227.569 9.49167 227.469 9.925L226.694 13.575C226.628 13.9083 226.628 14.225 226.694 14.525C226.761 14.825 226.911 15.0667 227.144 15.25C227.378 15.4333 227.719 15.525 228.169 15.525C228.586 15.525 228.936 15.4417 229.219 15.275C229.519 15.1083 229.761 14.875 229.944 14.575C230.128 14.275 230.261 13.9417 230.344 13.575L231.119 9.925ZM244.01 13.375C243.71 14.8417 243.085 16.025 242.135 16.925C241.201 17.8083 239.968 18.25 238.435 18.25C237.335 18.25 236.485 18.025 235.885 17.575C235.301 17.1083 234.926 16.5083 234.76 15.775C234.593 15.025 234.593 14.225 234.76 13.375L235.485 10.075C235.718 9.00833 236.085 8.11667 236.585 7.4C237.101 6.68333 237.743 6.14167 238.51 5.775C239.293 5.39167 240.193 5.2 241.21 5.2C242.66 5.2 243.693 5.63333 244.31 6.5C244.926 7.35 245.068 8.54167 244.735 10.075L244.01 13.375ZM241.935 9.925C242.018 9.525 242.026 9.18333 241.96 8.9C241.893 8.6 241.743 8.375 241.51 8.225C241.293 8.05833 240.985 7.975 240.585 7.975C240.185 7.975 239.826 8.05 239.51 8.2C239.21 8.35 238.951 8.56667 238.735 8.85C238.535 9.13333 238.385 9.49167 238.285 9.925L237.51 13.575C237.443 13.9083 237.443 14.225 237.51 14.525C237.576 14.825 237.726 15.0667 237.96 15.25C238.193 15.4333 238.535 15.525 238.985 15.525C239.401 15.525 239.751 15.4417 240.035 15.275C240.335 15.1083 240.576 14.875 240.76 14.575C240.943 14.275 241.076 13.9417 241.16 13.575L241.935 9.925ZM254.825 13.375C254.525 14.8417 253.9 16.025 252.95 16.925C252.017 17.8083 250.784 18.25 249.25 18.25C248.15 18.25 247.3 18.025 246.7 17.575C246.117 17.1083 245.742 16.5083 245.575 15.775C245.409 15.025 245.409 14.225 245.575 13.375L246.3 10.075C246.534 9.00833 246.9 8.11667 247.4 7.4C247.917 6.68333 248.559 6.14167 249.325 5.775C250.109 5.39167 251.009 5.2 252.025 5.2C253.475 5.2 254.509 5.63333 255.125 6.5C255.742 7.35 255.884 8.54167 255.55 10.075L254.825 13.375ZM252.75 9.925C252.834 9.525 252.842 9.18333 252.775 8.9C252.709 8.6 252.559 8.375 252.325 8.225C252.109 8.05833 251.8 7.975 251.4 7.975C251 7.975 250.642 8.05 250.325 8.2C250.025 8.35 249.767 8.56667 249.55 8.85C249.35 9.13333 249.2 9.49167 249.1 9.925L248.325 13.575C248.259 13.9083 248.259 14.225 248.325 14.525C248.392 14.825 248.542 15.0667 248.775 15.25C249.009 15.4333 249.35 15.525 249.8 15.525C250.217 15.525 250.567 15.4417 250.85 15.275C251.15 15.1083 251.392 14.875 251.575 14.575C251.759 14.275 251.892 13.9417 251.975 13.575L252.75 9.925ZM265.641 13.375C265.341 14.8417 264.716 16.025 263.766 16.925C262.832 17.8083 261.599 18.25 260.066 18.25C258.966 18.25 258.116 18.025 257.516 17.575C256.932 17.1083 256.557 16.5083 256.391 15.775C256.224 15.025 256.224 14.225 256.391 13.375L257.116 10.075C257.349 9.00833 257.716 8.11667 258.216 7.4C258.732 6.68333 259.374 6.14167 260.141 5.775C260.924 5.39167 261.824 5.2 262.841 5.2C264.291 5.2 265.324 5.63333 265.941 6.5C266.557 7.35 266.699 8.54167 266.366 10.075L265.641 13.375ZM263.566 9.925C263.649 9.525 263.657 9.18333 263.591 8.9C263.524 8.6 263.374 8.375 263.141 8.225C262.924 8.05833 262.616 7.975 262.216 7.975C261.816 7.975 261.457 8.05 261.141 8.2C260.841 8.35 260.582 8.56667 260.366 8.85C260.166 9.13333 260.016 9.49167 259.916 9.925L259.141 13.575C259.074 13.9083 259.074 14.225 259.141 14.525C259.207 14.825 259.357 15.0667 259.591 15.25C259.824 15.4333 260.166 15.525 260.616 15.525C261.032 15.525 261.382 15.4417 261.666 15.275C261.966 15.1083 262.207 14.875 262.391 14.575C262.574 14.275 262.707 13.9417 262.791 13.575L263.566 9.925ZM276.456 13.375C276.156 14.8417 275.531 16.025 274.581 16.925C273.648 17.8083 272.414 18.25 270.881 18.25C269.781 18.25 268.931 18.025 268.331 17.575C267.748 17.1083 267.373 16.5083 267.206 15.775C267.039 15.025 267.039 14.225 267.206 13.375L267.931 10.075C268.164 9.00833 268.531 8.11667 269.031 7.4C269.548 6.68333 270.189 6.14167 270.956 5.775C271.739 5.39167 272.639 5.2 273.656 5.2C275.106 5.2 276.139 5.63333 276.756 6.5C277.373 7.35 277.514 8.54167 277.181 10.075L276.456 13.375ZM274.381 9.925C274.464 9.525 274.473 9.18333 274.406 8.9C274.339 8.6 274.189 8.375 273.956 8.225C273.739 8.05833 273.431 7.975 273.031 7.975C272.631 7.975 272.273 8.05 271.956 8.2C271.656 8.35 271.398 8.56667 271.181 8.85C270.981 9.13333 270.831 9.49167 270.731 9.925L269.956 13.575C269.889 13.9083 269.889 14.225 269.956 14.525C270.023 14.825 270.173 15.0667 270.406 15.25C270.639 15.4333 270.981 15.525 271.431 15.525C271.848 15.525 272.198 15.4417 272.481 15.275C272.781 15.1083 273.023 14.875 273.206 14.575C273.389 14.275 273.523 13.9417 273.606 13.575L274.381 9.925ZM279.746 5.5H286.621L286.046 8.25H281.971L279.896 18H277.096L279.746 5.5ZM295.206 13.375C294.906 14.8417 294.281 16.025 293.331 16.925C292.398 17.8083 291.164 18.25 289.631 18.25C288.531 18.25 287.681 18.025 287.081 17.575C286.498 17.1083 286.123 16.5083 285.956 15.775C285.789 15.025 285.789 14.225 285.956 13.375L286.681 10.075C286.914 9.00833 287.281 8.11667 287.781 7.4C288.298 6.68333 288.939 6.14167 289.706 5.775C290.489 5.39167 291.389 5.2 292.406 5.2C293.856 5.2 294.889 5.63333 295.506 6.5C296.123 7.35 296.264 8.54167 295.931 10.075L295.206 13.375ZM293.131 9.925C293.214 9.525 293.223 9.18333 293.156 8.9C293.089 8.6 292.939 8.375 292.706 8.225C292.489 8.05833 292.181 7.975 291.781 7.975C291.381 7.975 291.023 8.05 290.706 8.2C290.406 8.35 290.148 8.56667 289.931 8.85C289.731 9.13333 289.581 9.49167 289.481 9.925L288.706 13.575C288.639 13.9083 288.639 14.225 288.706 14.525C288.773 14.825 288.923 15.0667 289.156 15.25C289.389 15.4333 289.731 15.525 290.181 15.525C290.598 15.525 290.948 15.4417 291.231 15.275C291.531 15.1083 291.773 14.875 291.956 14.575C292.139 14.275 292.273 13.9417 292.356 13.575L293.131 9.925ZM308.578 14.3C308.495 14.7167 308.47 15.075 308.503 15.375C308.553 15.675 308.67 15.925 308.853 16.125C309.053 16.3083 309.328 16.4667 309.678 16.6L308.078 18.5C307.612 18.3667 307.203 18.1917 306.853 17.975C306.52 17.7417 306.253 17.4667 306.053 17.15C305.853 16.8167 305.728 16.4417 305.678 16.025C305.628 15.6083 305.653 15.1583 305.753 14.675L307.153 8.075H304.828L305.378 5.475H312.953L312.403 8.075H309.903L308.578 14.3ZM315.437 14.275C315.387 14.4917 315.379 14.6917 315.412 14.875C315.445 15.0417 315.504 15.1917 315.587 15.325C315.687 15.4583 315.82 15.5583 315.987 15.625C316.154 15.6917 316.345 15.725 316.562 15.725C317.012 15.725 317.545 15.625 318.162 15.425C318.779 15.225 319.379 14.9917 319.962 14.725L320.462 17.125C319.795 17.4917 319.062 17.7833 318.262 18C317.462 18.2167 316.687 18.325 315.937 18.325C315.354 18.325 314.82 18.25 314.337 18.1C313.87 17.95 313.479 17.725 313.162 17.425C312.862 17.125 312.654 16.7417 312.537 16.275C312.437 15.8083 312.454 15.2583 312.587 14.625L313.687 9.5C313.887 8.58333 314.237 7.80833 314.737 7.175C315.254 6.54167 315.879 6.05833 316.612 5.725C317.362 5.39167 318.187 5.225 319.087 5.225C319.987 5.225 320.737 5.38333 321.337 5.7C321.954 6.01667 322.387 6.48333 322.637 7.1C322.887 7.71667 322.912 8.49167 322.712 9.425L321.887 13.325L315.587 13.65L315.437 14.275ZM319.787 10.175C319.854 9.825 319.887 9.46667 319.887 9.1C319.887 8.73333 319.795 8.43333 319.612 8.2C319.445 7.95 319.112 7.84167 318.612 7.875C318.095 7.89167 317.687 8 317.387 8.2C317.104 8.38333 316.879 8.64167 316.712 8.975C316.562 9.29167 316.429 9.68333 316.312 10.15L316.112 11.125L319.612 10.9L319.787 10.175ZM331.482 14C331.698 14.4167 331.882 14.7417 332.032 14.975C332.198 15.1917 332.357 15.3417 332.507 15.425C332.673 15.5083 332.857 15.55 333.057 15.55H333.182L332.582 18H332.207C331.59 18 331.065 17.8667 330.632 17.6C330.215 17.3333 329.857 16.9833 329.557 16.55C329.273 16.1167 329.007 15.6583 328.757 15.175L327.357 12.45L326.482 13.125L325.457 18H322.682L325.407 5.2L328.107 5.5L327.232 9.65L331.957 5.475H335.382L329.732 10.5L331.482 14ZM343.871 8.15C343.571 7.98333 343.23 7.85833 342.846 7.775C342.48 7.675 342.105 7.61667 341.721 7.6C341.271 7.6 340.846 7.675 340.446 7.825C340.046 7.95833 339.705 8.18333 339.421 8.5C339.138 8.8 338.946 9.2 338.846 9.7L338.021 13.625C337.938 14.0083 337.93 14.35 337.996 14.65C338.063 14.9333 338.188 15.1667 338.371 15.35C338.571 15.5333 338.821 15.675 339.121 15.775C339.421 15.8583 339.763 15.9 340.146 15.9C340.413 15.9 340.68 15.8917 340.946 15.875C341.23 15.8417 341.48 15.8083 341.696 15.775C341.913 15.725 342.088 15.6917 342.221 15.675C342.355 15.6417 342.421 15.625 342.421 15.625L342.446 17.875C341.896 18.0083 341.338 18.1167 340.771 18.2C340.205 18.2833 339.638 18.3167 339.071 18.3C338.121 18.2833 337.321 18.1083 336.671 17.775C336.021 17.4417 335.571 16.9333 335.321 16.25C335.071 15.5667 335.055 14.7 335.271 13.65L336.071 10C336.288 9.03333 336.63 8.18333 337.096 7.45C337.58 6.71667 338.213 6.15 338.996 5.75C339.796 5.35 340.771 5.16667 341.921 5.2C342.455 5.21667 342.971 5.3 343.471 5.45C343.988 5.6 344.471 5.79167 344.921 6.025L343.871 8.15ZM349.74 14.3C349.657 14.7167 349.632 15.075 349.665 15.375C349.715 15.675 349.832 15.925 350.015 16.125C350.215 16.3083 350.49 16.4667 350.84 16.6L349.24 18.5C348.774 18.3667 348.365 18.1917 348.015 17.975C347.682 17.7417 347.415 17.4667 347.215 17.15C347.015 16.8167 346.89 16.4417 346.84 16.025C346.79 15.6083 346.815 15.1583 346.915 14.675L348.315 8.075H345.99L346.54 5.475H354.115L353.565 8.075H351.065L349.74 14.3ZM364.949 5.825C364.783 6.34167 364.641 6.80833 364.524 7.225C364.424 7.625 364.341 7.96667 364.274 8.25L362.224 17.875C362.224 17.875 362.108 17.8833 361.874 17.9C361.658 17.9167 361.358 17.9417 360.974 17.975C360.608 17.9917 360.191 18.0083 359.724 18.025C359.274 18.0417 358.816 18.0583 358.349 18.075C357.899 18.0917 357.483 18.1 357.099 18.1C356.333 18.1 355.708 17.9833 355.224 17.75C354.758 17.5167 354.408 17.2 354.174 16.8C353.941 16.4 353.808 15.9417 353.774 15.425C353.758 14.8917 353.808 14.3333 353.924 13.75L354.924 9.125C355.074 8.39167 355.283 7.78333 355.549 7.3C355.833 6.8 356.149 6.40833 356.499 6.125C356.866 5.825 357.266 5.61667 357.699 5.5C358.133 5.36667 358.599 5.3 359.099 5.3C359.616 5.3 360.091 5.33333 360.524 5.4C360.958 5.46667 361.316 5.54167 361.599 5.625C361.899 5.70833 362.108 5.775 362.224 5.825C362.224 5.825 362.258 5.75833 362.324 5.625C362.408 5.475 362.499 5.33333 362.599 5.2L364.949 5.825ZM356.674 13.775C356.574 14.325 356.558 14.75 356.624 15.05C356.691 15.3333 356.841 15.5333 357.074 15.65C357.324 15.75 357.649 15.8 358.049 15.8C358.199 15.8 358.349 15.8 358.499 15.8C358.649 15.8 358.799 15.8 358.949 15.8C359.099 15.7833 359.249 15.7667 359.399 15.75C359.566 15.7333 359.733 15.7167 359.899 15.7L361.449 8.325C361.333 8.25833 361.191 8.2 361.024 8.15C360.858 8.08333 360.674 8.025 360.474 7.975C360.291 7.925 360.108 7.89167 359.924 7.875C359.758 7.84167 359.608 7.825 359.474 7.825C359.341 7.825 359.183 7.83333 358.999 7.85C358.833 7.86667 358.658 7.925 358.474 8.025C358.291 8.10833 358.124 8.24167 357.974 8.425C357.824 8.60833 357.716 8.86667 357.649 9.2L356.674 13.775ZM4.55005 44.3C4.46672 44.7167 4.44172 45.075 4.47505 45.375C4.52505 45.675 4.64172 45.925 4.82505 46.125C5.02505 46.3083 5.30005 46.4667 5.65005 46.6L4.05005 48.5C3.58338 48.3667 3.17505 48.1917 2.82505 47.975C2.49172 47.7417 2.22505 47.4667 2.02505 47.15C1.82505 46.8167 1.70005 46.4417 1.65005 46.025C1.60005 45.6083 1.62505 45.1583 1.72505 44.675L3.12505 38.075H0.800049L1.35005 35.475H8.92505L8.37505 38.075H5.87505L4.55005 44.3ZM9.08384 53.225L11.9338 48L10.0588 35.475H12.7088L14.0088 44.275L18.7589 35.475H21.4088L11.7838 53.225H9.08384ZM25.9855 44.3C25.9022 44.7167 25.8772 45.075 25.9105 45.375C25.9605 45.675 26.0772 45.925 26.2605 46.125C26.4605 46.3083 26.7356 46.4667 27.0856 46.6L25.4855 48.5C25.0189 48.3667 24.6105 48.1917 24.2605 47.975C23.9272 47.7417 23.6606 47.4667 23.4606 47.15C23.2606 46.8167 23.1356 46.4417 23.0856 46.025C23.0356 45.6083 23.0605 45.1583 23.1605 44.675L24.5605 38.075H22.2355L22.7855 35.475H30.3605L29.8105 38.075H27.3105L25.9855 44.3ZM43.8262 35.3C44.7595 35.3 45.5013 35.475 46.0513 35.825C46.6013 36.175 46.9596 36.7 47.1263 37.4C47.3096 38.1 47.2928 38.9667 47.0762 40L46.3512 43.375C46.0345 44.8917 45.3845 46.0917 44.4012 46.975C43.4178 47.8417 42.2095 48.275 40.7762 48.275C39.8428 48.275 39.0596 48.0917 38.4263 47.725C37.8096 47.3417 37.3763 46.7917 37.1263 46.075C36.8929 45.3417 36.8845 44.4417 37.1012 43.375L38.6763 36C38.8096 35.3833 39.0429 34.7583 39.3763 34.125C39.7263 33.4917 40.1846 32.9167 40.7513 32.4C41.2679 31.9167 41.8845 31.5083 42.6012 31.175C43.3178 30.8417 44.1346 30.6167 45.0513 30.5L45.3512 32.225C44.7845 32.3417 44.2679 32.5083 43.8013 32.725C43.3513 32.9417 42.9428 33.2333 42.5762 33.6C42.3095 33.8833 42.0845 34.2083 41.9012 34.575C41.7178 34.9417 41.5678 35.3917 41.4512 35.925L41.4012 36.15C41.6178 36.0167 41.8596 35.8833 42.1263 35.75C42.4096 35.6167 42.6928 35.5083 42.9762 35.425C43.2762 35.3417 43.5595 35.3 43.8262 35.3ZM42.9263 37.8C42.7263 37.8 42.5095 37.8333 42.2762 37.9C42.0428 37.95 41.8178 38.0417 41.6012 38.175C41.3845 38.2917 41.1928 38.4583 41.0262 38.675C40.8762 38.875 40.7678 39.1167 40.7012 39.4L39.8262 43.525C39.7428 43.9417 39.7262 44.3 39.7762 44.6C39.8262 44.8833 39.9678 45.1083 40.2012 45.275C40.4345 45.425 40.7846 45.5 41.2513 45.5C41.6513 45.5 42.0095 45.4167 42.3262 45.25C42.6428 45.0833 42.9012 44.8583 43.1012 44.575C43.3178 44.275 43.4679 43.925 43.5513 43.525L44.3763 39.625C44.4596 39.2417 44.4596 38.9167 44.3763 38.65C44.2929 38.3667 44.1263 38.1583 43.8763 38.025C43.6429 37.875 43.3263 37.8 42.9263 37.8ZM48.1951 53.225L51.0452 48L49.1702 35.475H51.8201L53.1201 44.275L57.8701 35.475H60.5201L50.8951 53.225H48.1951ZM71.1969 45.275H72.5969L71.3469 51.15H69.0469L69.1969 48.025H61.597L60.3969 51.15H58.097L59.347 45.275H61.047L64.0719 39.25C64.2719 38.85 64.5052 38.4333 64.7719 38C65.0552 37.55 65.3802 37.1333 65.7469 36.75C66.1302 36.3667 66.5885 36.0583 67.1219 35.825C67.6719 35.5917 68.3219 35.475 69.0719 35.475H73.2719L71.1969 45.275ZM63.922 45.275H68.4219L70.0219 37.825H69.2469C68.9802 37.825 68.7302 37.85 68.4969 37.9C68.2635 37.9333 68.0469 38.0083 67.8469 38.125C67.6469 38.2417 67.4552 38.4 67.2719 38.6C67.0885 38.8 66.9219 39.0583 66.7719 39.375L63.922 45.275ZM76.692 44.275C76.642 44.4917 76.6337 44.6917 76.667 44.875C76.7003 45.0417 76.7587 45.1917 76.842 45.325C76.942 45.4583 77.0753 45.5583 77.242 45.625C77.4087 45.6917 77.6003 45.725 77.817 45.725C78.267 45.725 78.8003 45.625 79.417 45.425C80.0337 45.225 80.6337 44.9917 81.217 44.725L81.717 47.125C81.0503 47.4917 80.317 47.7833 79.517 48C78.717 48.2167 77.942 48.325 77.192 48.325C76.6087 48.325 76.0753 48.25 75.592 48.1C75.1253 47.95 74.7337 47.725 74.417 47.425C74.117 47.125 73.9087 46.7417 73.792 46.275C73.692 45.8083 73.7087 45.2583 73.842 44.625L74.942 39.5C75.142 38.5833 75.492 37.8083 75.992 37.175C76.5087 36.5417 77.1337 36.0583 77.867 35.725C78.617 35.3917 79.442 35.225 80.342 35.225C81.242 35.225 81.992 35.3833 82.592 35.7C83.2087 36.0167 83.642 36.4833 83.892 37.1C84.142 37.7167 84.167 38.4917 83.967 39.425L83.142 43.325L76.842 43.65L76.692 44.275ZM81.042 40.175C81.1087 39.825 81.142 39.4667 81.142 39.1C81.142 38.7333 81.0503 38.4333 80.867 38.2C80.7003 37.95 80.367 37.8417 79.867 37.875C79.3503 37.8917 78.942 38 78.642 38.2C78.3587 38.3833 78.1337 38.6417 77.967 38.975C77.817 39.2917 77.6837 39.6833 77.567 40.15L77.367 41.125L80.867 40.9L81.042 40.175ZM89.4865 44.3C89.4032 44.7167 89.3782 45.075 89.4115 45.375C89.4615 45.675 89.5782 45.925 89.7615 46.125C89.9615 46.3083 90.2365 46.4667 90.5865 46.6L88.9865 48.5C88.5199 48.3667 88.1115 48.1917 87.7615 47.975C87.4282 47.7417 87.1615 47.4667 86.9615 47.15C86.7615 46.8167 86.6365 46.4417 86.5865 46.025C86.5365 45.6083 86.5615 45.1583 86.6615 44.675L88.0615 38.075H85.7365L86.2865 35.475H93.8615L93.3115 38.075H90.8115L89.4865 44.3ZM108.077 39.85L109.002 35.5H111.752L109.102 48H106.352L107.527 42.475H103.827L102.652 48H99.8771L102.527 35.5H105.302L104.377 39.85H108.077ZM114.436 44.275C114.386 44.4917 114.378 44.6917 114.411 44.875C114.444 45.0417 114.503 45.1917 114.586 45.325C114.686 45.4583 114.819 45.5583 114.986 45.625C115.153 45.6917 115.344 45.725 115.561 45.725C116.011 45.725 116.544 45.625 117.161 45.425C117.778 45.225 118.378 44.9917 118.961 44.725L119.461 47.125C118.794 47.4917 118.061 47.7833 117.261 48C116.461 48.2167 115.686 48.325 114.936 48.325C114.353 48.325 113.819 48.25 113.336 48.1C112.869 47.95 112.478 47.725 112.161 47.425C111.861 47.125 111.653 46.7417 111.536 46.275C111.436 45.8083 111.453 45.2583 111.586 44.625L112.686 39.5C112.886 38.5833 113.236 37.8083 113.736 37.175C114.253 36.5417 114.878 36.0583 115.611 35.725C116.361 35.3917 117.186 35.225 118.086 35.225C118.986 35.225 119.736 35.3833 120.336 35.7C120.953 36.0167 121.386 36.4833 121.636 37.1C121.886 37.7167 121.911 38.4917 121.711 39.425L120.886 43.325L114.586 43.65L114.436 44.275ZM118.786 40.175C118.853 39.825 118.886 39.4667 118.886 39.1C118.886 38.7333 118.794 38.4333 118.611 38.2C118.444 37.95 118.111 37.8417 117.611 37.875C117.094 37.8917 116.686 38 116.386 38.2C116.103 38.3833 115.878 38.6417 115.711 38.975C115.561 39.2917 115.428 39.6833 115.311 40.15L115.111 41.125L118.611 40.9L118.786 40.175ZM134.031 35.5H137.081L134.431 48.025H131.681L133.081 41.4L129.081 48.025H127.006L125.756 41.4L124.356 48.025H121.581L124.231 35.5H127.331L128.806 44.3L134.031 35.5ZM144.527 39.85L145.452 35.5H148.202L145.552 48H142.802L143.977 42.475H140.277L139.102 48H136.327L138.977 35.5H141.752L140.827 39.85H144.527ZM157.486 43.375C157.186 44.8417 156.561 46.025 155.611 46.925C154.678 47.8083 153.445 48.25 151.911 48.25C150.811 48.25 149.961 48.025 149.361 47.575C148.778 47.1083 148.403 46.5083 148.236 45.775C148.07 45.025 148.07 44.225 148.236 43.375L148.961 40.075C149.195 39.0083 149.561 38.1167 150.061 37.4C150.578 36.6833 151.22 36.1417 151.986 35.775C152.77 35.3917 153.67 35.2 154.686 35.2C156.136 35.2 157.17 35.6333 157.786 36.5C158.403 37.35 158.545 38.5417 158.211 40.075L157.486 43.375ZM155.411 39.925C155.495 39.525 155.503 39.1833 155.436 38.9C155.37 38.6 155.22 38.375 154.986 38.225C154.77 38.0583 154.461 37.975 154.061 37.975C153.661 37.975 153.303 38.05 152.986 38.2C152.686 38.35 152.428 38.5667 152.211 38.85C152.011 39.1333 151.861 39.4917 151.761 39.925L150.986 43.575C150.92 43.9083 150.92 44.225 150.986 44.525C151.053 44.825 151.203 45.0667 151.436 45.25C151.67 45.4333 152.011 45.525 152.461 45.525C152.878 45.525 153.228 45.4417 153.511 45.275C153.811 45.1083 154.053 44.875 154.236 44.575C154.42 44.275 154.553 43.9417 154.636 43.575L155.411 39.925ZM168.302 43.375C168.002 44.8417 167.377 46.025 166.427 46.925C165.493 47.8083 164.26 48.25 162.727 48.25C161.627 48.25 160.777 48.025 160.177 47.575C159.593 47.1083 159.218 46.5083 159.052 45.775C158.885 45.025 158.885 44.225 159.052 43.375L159.777 40.075C160.01 39.0083 160.377 38.1167 160.877 37.4C161.393 36.6833 162.035 36.1417 162.802 35.775C163.585 35.3917 164.485 35.2 165.502 35.2C166.952 35.2 167.985 35.6333 168.602 36.5C169.218 37.35 169.36 38.5417 169.027 40.075L168.302 43.375ZM166.227 39.925C166.31 39.525 166.318 39.1833 166.252 38.9C166.185 38.6 166.035 38.375 165.802 38.225C165.585 38.0583 165.277 37.975 164.877 37.975C164.477 37.975 164.118 38.05 163.802 38.2C163.502 38.35 163.243 38.5667 163.027 38.85C162.827 39.1333 162.677 39.4917 162.577 39.925L161.802 43.575C161.735 43.9083 161.735 44.225 161.802 44.525C161.868 44.825 162.018 45.0667 162.252 45.25C162.485 45.4333 162.827 45.525 163.277 45.525C163.693 45.525 164.043 45.4417 164.327 45.275C164.627 45.1083 164.868 44.875 165.052 44.575C165.235 44.275 165.368 43.9417 165.452 43.575L166.227 39.925ZM179.117 43.375C178.817 44.8417 178.192 46.025 177.242 46.925C176.309 47.8083 175.076 48.25 173.542 48.25C172.442 48.25 171.592 48.025 170.992 47.575C170.409 47.1083 170.034 46.5083 169.867 45.775C169.701 45.025 169.701 44.225 169.867 43.375L170.592 40.075C170.826 39.0083 171.192 38.1167 171.692 37.4C172.209 36.6833 172.851 36.1417 173.617 35.775C174.401 35.3917 175.301 35.2 176.317 35.2C177.767 35.2 178.801 35.6333 179.417 36.5C180.034 37.35 180.176 38.5417 179.842 40.075L179.117 43.375ZM177.042 39.925C177.126 39.525 177.134 39.1833 177.067 38.9C177.001 38.6 176.851 38.375 176.617 38.225C176.401 38.0583 176.092 37.975 175.692 37.975C175.292 37.975 174.934 38.05 174.617 38.2C174.317 38.35 174.059 38.5667 173.842 38.85C173.642 39.1333 173.492 39.4917 173.392 39.925L172.617 43.575C172.551 43.9083 172.551 44.225 172.617 44.525C172.684 44.825 172.834 45.0667 173.067 45.25C173.301 45.4333 173.642 45.525 174.092 45.525C174.509 45.525 174.859 45.4417 175.142 45.275C175.442 45.1083 175.684 44.875 175.867 44.575C176.051 44.275 176.184 43.9417 176.267 43.575L177.042 39.925ZM189.933 43.375C189.633 44.8417 189.008 46.025 188.058 46.925C187.124 47.8083 185.891 48.25 184.358 48.25C183.258 48.25 182.408 48.025 181.808 47.575C181.224 47.1083 180.849 46.5083 180.683 45.775C180.516 45.025 180.516 44.225 180.683 43.375L181.408 40.075C181.641 39.0083 182.008 38.1167 182.508 37.4C183.024 36.6833 183.666 36.1417 184.433 35.775C185.216 35.3917 186.116 35.2 187.133 35.2C188.583 35.2 189.616 35.6333 190.233 36.5C190.849 37.35 190.991 38.5417 190.658 40.075L189.933 43.375ZM187.858 39.925C187.941 39.525 187.949 39.1833 187.883 38.9C187.816 38.6 187.666 38.375 187.433 38.225C187.216 38.0583 186.908 37.975 186.508 37.975C186.108 37.975 185.749 38.05 185.433 38.2C185.133 38.35 184.874 38.5667 184.658 38.85C184.458 39.1333 184.308 39.4917 184.208 39.925L183.433 43.575C183.366 43.9083 183.366 44.225 183.433 44.525C183.499 44.825 183.649 45.0667 183.883 45.25C184.116 45.4333 184.458 45.525 184.908 45.525C185.324 45.525 185.674 45.4417 185.958 45.275C186.258 45.1083 186.499 44.875 186.683 44.575C186.866 44.275 186.999 43.9417 187.083 43.575L187.858 39.925ZM200.748 43.375C200.448 44.8417 199.823 46.025 198.873 46.925C197.94 47.8083 196.706 48.25 195.173 48.25C194.073 48.25 193.223 48.025 192.623 47.575C192.04 47.1083 191.665 46.5083 191.498 45.775C191.331 45.025 191.331 44.225 191.498 43.375L192.223 40.075C192.456 39.0083 192.823 38.1167 193.323 37.4C193.84 36.6833 194.481 36.1417 195.248 35.775C196.031 35.3917 196.931 35.2 197.948 35.2C199.398 35.2 200.431 35.6333 201.048 36.5C201.665 37.35 201.806 38.5417 201.473 40.075L200.748 43.375ZM198.673 39.925C198.756 39.525 198.765 39.1833 198.698 38.9C198.631 38.6 198.481 38.375 198.248 38.225C198.031 38.0583 197.723 37.975 197.323 37.975C196.923 37.975 196.565 38.05 196.248 38.2C195.948 38.35 195.69 38.5667 195.473 38.85C195.273 39.1333 195.123 39.4917 195.023 39.925L194.248 43.575C194.181 43.9083 194.181 44.225 194.248 44.525C194.315 44.825 194.465 45.0667 194.698 45.25C194.931 45.4333 195.273 45.525 195.723 45.525C196.14 45.525 196.49 45.4417 196.773 45.275C197.073 45.1083 197.315 44.875 197.498 44.575C197.681 44.275 197.815 43.9417 197.898 43.575L198.673 39.925ZM211.563 43.375C211.263 44.8417 210.638 46.025 209.688 46.925C208.755 47.8083 207.522 48.25 205.988 48.25C204.888 48.25 204.038 48.025 203.438 47.575C202.855 47.1083 202.48 46.5083 202.313 45.775C202.147 45.025 202.147 44.225 202.313 43.375L203.038 40.075C203.272 39.0083 203.638 38.1167 204.138 37.4C204.655 36.6833 205.297 36.1417 206.063 35.775C206.847 35.3917 207.747 35.2 208.763 35.2C210.213 35.2 211.247 35.6333 211.863 36.5C212.48 37.35 212.622 38.5417 212.288 40.075L211.563 43.375ZM209.488 39.925C209.572 39.525 209.58 39.1833 209.513 38.9C209.447 38.6 209.297 38.375 209.063 38.225C208.847 38.0583 208.538 37.975 208.138 37.975C207.738 37.975 207.38 38.05 207.063 38.2C206.763 38.35 206.505 38.5667 206.288 38.85C206.088 39.1333 205.938 39.4917 205.838 39.925L205.063 43.575C204.997 43.9083 204.997 44.225 205.063 44.525C205.13 44.825 205.28 45.0667 205.513 45.25C205.747 45.4333 206.088 45.525 206.538 45.525C206.955 45.525 207.305 45.4417 207.588 45.275C207.888 45.1083 208.13 44.875 208.313 44.575C208.497 44.275 208.63 43.9417 208.713 43.575L209.488 39.925ZM222.379 43.375C222.079 44.8417 221.454 46.025 220.504 46.925C219.571 47.8083 218.337 48.25 216.804 48.25C215.704 48.25 214.854 48.025 214.254 47.575C213.671 47.1083 213.296 46.5083 213.129 45.775C212.962 45.025 212.962 44.225 213.129 43.375L213.854 40.075C214.087 39.0083 214.454 38.1167 214.954 37.4C215.471 36.6833 216.112 36.1417 216.879 35.775C217.662 35.3917 218.562 35.2 219.579 35.2C221.029 35.2 222.062 35.6333 222.679 36.5C223.296 37.35 223.437 38.5417 223.104 40.075L222.379 43.375ZM220.304 39.925C220.387 39.525 220.396 39.1833 220.329 38.9C220.262 38.6 220.112 38.375 219.879 38.225C219.662 38.0583 219.354 37.975 218.954 37.975C218.554 37.975 218.196 38.05 217.879 38.2C217.579 38.35 217.321 38.5667 217.104 38.85C216.904 39.1333 216.754 39.4917 216.654 39.925L215.879 43.575C215.812 43.9083 215.812 44.225 215.879 44.525C215.946 44.825 216.096 45.0667 216.329 45.25C216.562 45.4333 216.904 45.525 217.354 45.525C217.771 45.525 218.121 45.4417 218.404 45.275C218.704 45.1083 218.946 44.875 219.129 44.575C219.312 44.275 219.446 43.9417 219.529 43.575L220.304 39.925ZM233.194 43.375C232.894 44.8417 232.269 46.025 231.319 46.925C230.386 47.8083 229.153 48.25 227.619 48.25C226.519 48.25 225.669 48.025 225.069 47.575C224.486 47.1083 224.111 46.5083 223.944 45.775C223.778 45.025 223.778 44.225 223.944 43.375L224.669 40.075C224.903 39.0083 225.269 38.1167 225.769 37.4C226.286 36.6833 226.928 36.1417 227.694 35.775C228.478 35.3917 229.378 35.2 230.394 35.2C231.844 35.2 232.878 35.6333 233.494 36.5C234.111 37.35 234.253 38.5417 233.919 40.075L233.194 43.375ZM231.119 39.925C231.203 39.525 231.211 39.1833 231.144 38.9C231.078 38.6 230.928 38.375 230.694 38.225C230.478 38.0583 230.169 37.975 229.769 37.975C229.369 37.975 229.011 38.05 228.694 38.2C228.394 38.35 228.136 38.5667 227.919 38.85C227.719 39.1333 227.569 39.4917 227.469 39.925L226.694 43.575C226.628 43.9083 226.628 44.225 226.694 44.525C226.761 44.825 226.911 45.0667 227.144 45.25C227.378 45.4333 227.719 45.525 228.169 45.525C228.586 45.525 228.936 45.4417 229.219 45.275C229.519 45.1083 229.761 44.875 229.944 44.575C230.128 44.275 230.261 43.9417 230.344 43.575L231.119 39.925ZM244.01 43.375C243.71 44.8417 243.085 46.025 242.135 46.925C241.201 47.8083 239.968 48.25 238.435 48.25C237.335 48.25 236.485 48.025 235.885 47.575C235.301 47.1083 234.926 46.5083 234.76 45.775C234.593 45.025 234.593 44.225 234.76 43.375L235.485 40.075C235.718 39.0083 236.085 38.1167 236.585 37.4C237.101 36.6833 237.743 36.1417 238.51 35.775C239.293 35.3917 240.193 35.2 241.21 35.2C242.66 35.2 243.693 35.6333 244.31 36.5C244.926 37.35 245.068 38.5417 244.735 40.075L244.01 43.375ZM241.935 39.925C242.018 39.525 242.026 39.1833 241.96 38.9C241.893 38.6 241.743 38.375 241.51 38.225C241.293 38.0583 240.985 37.975 240.585 37.975C240.185 37.975 239.826 38.05 239.51 38.2C239.21 38.35 238.951 38.5667 238.735 38.85C238.535 39.1333 238.385 39.4917 238.285 39.925L237.51 43.575C237.443 43.9083 237.443 44.225 237.51 44.525C237.576 44.825 237.726 45.0667 237.96 45.25C238.193 45.4333 238.535 45.525 238.985 45.525C239.401 45.525 239.751 45.4417 240.035 45.275C240.335 45.1083 240.576 44.875 240.76 44.575C240.943 44.275 241.076 43.9417 241.16 43.575L241.935 39.925ZM254.825 43.375C254.525 44.8417 253.9 46.025 252.95 46.925C252.017 47.8083 250.784 48.25 249.25 48.25C248.15 48.25 247.3 48.025 246.7 47.575C246.117 47.1083 245.742 46.5083 245.575 45.775C245.409 45.025 245.409 44.225 245.575 43.375L246.3 40.075C246.534 39.0083 246.9 38.1167 247.4 37.4C247.917 36.6833 248.559 36.1417 249.325 35.775C250.109 35.3917 251.009 35.2 252.025 35.2C253.475 35.2 254.509 35.6333 255.125 36.5C255.742 37.35 255.884 38.5417 255.55 40.075L254.825 43.375ZM252.75 39.925C252.834 39.525 252.842 39.1833 252.775 38.9C252.709 38.6 252.559 38.375 252.325 38.225C252.109 38.0583 251.8 37.975 251.4 37.975C251 37.975 250.642 38.05 250.325 38.2C250.025 38.35 249.767 38.5667 249.55 38.85C249.35 39.1333 249.2 39.4917 249.1 39.925L248.325 43.575C248.259 43.9083 248.259 44.225 248.325 44.525C248.392 44.825 248.542 45.0667 248.775 45.25C249.009 45.4333 249.35 45.525 249.8 45.525C250.217 45.525 250.567 45.4417 250.85 45.275C251.15 45.1083 251.392 44.875 251.575 44.575C251.759 44.275 251.892 43.9417 251.975 43.575L252.75 39.925ZM265.641 43.375C265.341 44.8417 264.716 46.025 263.766 46.925C262.832 47.8083 261.599 48.25 260.066 48.25C258.966 48.25 258.116 48.025 257.516 47.575C256.932 47.1083 256.557 46.5083 256.391 45.775C256.224 45.025 256.224 44.225 256.391 43.375L257.116 40.075C257.349 39.0083 257.716 38.1167 258.216 37.4C258.732 36.6833 259.374 36.1417 260.141 35.775C260.924 35.3917 261.824 35.2 262.841 35.2C264.291 35.2 265.324 35.6333 265.941 36.5C266.557 37.35 266.699 38.5417 266.366 40.075L265.641 43.375ZM263.566 39.925C263.649 39.525 263.657 39.1833 263.591 38.9C263.524 38.6 263.374 38.375 263.141 38.225C262.924 38.0583 262.616 37.975 262.216 37.975C261.816 37.975 261.457 38.05 261.141 38.2C260.841 38.35 260.582 38.5667 260.366 38.85C260.166 39.1333 260.016 39.4917 259.916 39.925L259.141 43.575C259.074 43.9083 259.074 44.225 259.141 44.525C259.207 44.825 259.357 45.0667 259.591 45.25C259.824 45.4333 260.166 45.525 260.616 45.525C261.032 45.525 261.382 45.4417 261.666 45.275C261.966 45.1083 262.207 44.875 262.391 44.575C262.574 44.275 262.707 43.9417 262.791 43.575L263.566 39.925ZM276.456 43.375C276.156 44.8417 275.531 46.025 274.581 46.925C273.648 47.8083 272.414 48.25 270.881 48.25C269.781 48.25 268.931 48.025 268.331 47.575C267.748 47.1083 267.373 46.5083 267.206 45.775C267.039 45.025 267.039 44.225 267.206 43.375L267.931 40.075C268.164 39.0083 268.531 38.1167 269.031 37.4C269.548 36.6833 270.189 36.1417 270.956 35.775C271.739 35.3917 272.639 35.2 273.656 35.2C275.106 35.2 276.139 35.6333 276.756 36.5C277.373 37.35 277.514 38.5417 277.181 40.075L276.456 43.375ZM274.381 39.925C274.464 39.525 274.473 39.1833 274.406 38.9C274.339 38.6 274.189 38.375 273.956 38.225C273.739 38.0583 273.431 37.975 273.031 37.975C272.631 37.975 272.273 38.05 271.956 38.2C271.656 38.35 271.398 38.5667 271.181 38.85C270.981 39.1333 270.831 39.4917 270.731 39.925L269.956 43.575C269.889 43.9083 269.889 44.225 269.956 44.525C270.023 44.825 270.173 45.0667 270.406 45.25C270.639 45.4333 270.981 45.525 271.431 45.525C271.848 45.525 272.198 45.4417 272.481 45.275C272.781 45.1083 273.023 44.875 273.206 44.575C273.389 44.275 273.523 43.9417 273.606 43.575L274.381 39.925ZM279.746 35.5H286.621L286.046 38.25H281.971L279.896 48H277.096L279.746 35.5ZM295.206 43.375C294.906 44.8417 294.281 46.025 293.331 46.925C292.398 47.8083 291.164 48.25 289.631 48.25C288.531 48.25 287.681 48.025 287.081 47.575C286.498 47.1083 286.123 46.5083 285.956 45.775C285.789 45.025 285.789 44.225 285.956 43.375L286.681 40.075C286.914 39.0083 287.281 38.1167 287.781 37.4C288.298 36.6833 288.939 36.1417 289.706 35.775C290.489 35.3917 291.389 35.2 292.406 35.2C293.856 35.2 294.889 35.6333 295.506 36.5C296.123 37.35 296.264 38.5417 295.931 40.075L295.206 43.375ZM293.131 39.925C293.214 39.525 293.223 39.1833 293.156 38.9C293.089 38.6 292.939 38.375 292.706 38.225C292.489 38.0583 292.181 37.975 291.781 37.975C291.381 37.975 291.023 38.05 290.706 38.2C290.406 38.35 290.148 38.5667 289.931 38.85C289.731 39.1333 289.581 39.4917 289.481 39.925L288.706 43.575C288.639 43.9083 288.639 44.225 288.706 44.525C288.773 44.825 288.923 45.0667 289.156 45.25C289.389 45.4333 289.731 45.525 290.181 45.525C290.598 45.525 290.948 45.4417 291.231 45.275C291.531 45.1083 291.773 44.875 291.956 44.575C292.139 44.275 292.273 43.9417 292.356 43.575L293.131 39.925ZM308.578 44.3C308.495 44.7167 308.47 45.075 308.503 45.375C308.553 45.675 308.67 45.925 308.853 46.125C309.053 46.3083 309.328 46.4667 309.678 46.6L308.078 48.5C307.612 48.3667 307.203 48.1917 306.853 47.975C306.52 47.7417 306.253 47.4667 306.053 47.15C305.853 46.8167 305.728 46.4417 305.678 46.025C305.628 45.6083 305.653 45.1583 305.753 44.675L307.153 38.075H304.828L305.378 35.475H312.953L312.403 38.075H309.903L308.578 44.3ZM315.437 44.275C315.387 44.4917 315.379 44.6917 315.412 44.875C315.445 45.0417 315.504 45.1917 315.587 45.325C315.687 45.4583 315.82 45.5583 315.987 45.625C316.154 45.6917 316.345 45.725 316.562 45.725C317.012 45.725 317.545 45.625 318.162 45.425C318.779 45.225 319.379 44.9917 319.962 44.725L320.462 47.125C319.795 47.4917 319.062 47.7833 318.262 48C317.462 48.2167 316.687 48.325 315.937 48.325C315.354 48.325 314.82 48.25 314.337 48.1C313.87 47.95 313.479 47.725 313.162 47.425C312.862 47.125 312.654 46.7417 312.537 46.275C312.437 45.8083 312.454 45.2583 312.587 44.625L313.687 39.5C313.887 38.5833 314.237 37.8083 314.737 37.175C315.254 36.5417 315.879 36.0583 316.612 35.725C317.362 35.3917 318.187 35.225 319.087 35.225C319.987 35.225 320.737 35.3833 321.337 35.7C321.954 36.0167 322.387 36.4833 322.637 37.1C322.887 37.7167 322.912 38.4917 322.712 39.425L321.887 43.325L315.587 43.65L315.437 44.275ZM319.787 40.175C319.854 39.825 319.887 39.4667 319.887 39.1C319.887 38.7333 319.795 38.4333 319.612 38.2C319.445 37.95 319.112 37.8417 318.612 37.875C318.095 37.8917 317.687 38 317.387 38.2C317.104 38.3833 316.879 38.6417 316.712 38.975C316.562 39.2917 316.429 39.6833 316.312 40.15L316.112 41.125L319.612 40.9L319.787 40.175ZM331.482 44C331.698 44.4167 331.882 44.7417 332.032 44.975C332.198 45.1917 332.357 45.3417 332.507 45.425C332.673 45.5083 332.857 45.55 333.057 45.55H333.182L332.582 48H332.207C331.59 48 331.065 47.8667 330.632 47.6C330.215 47.3333 329.857 46.9833 329.557 46.55C329.273 46.1167 329.007 45.6583 328.757 45.175L327.357 42.45L326.482 43.125L325.457 48H322.682L325.407 35.2L328.107 35.5L327.232 39.65L331.957 35.475H335.382L329.732 40.5L331.482 44ZM343.871 38.15C343.571 37.9833 343.23 37.8583 342.846 37.775C342.48 37.675 342.105 37.6167 341.721 37.6C341.271 37.6 340.846 37.675 340.446 37.825C340.046 37.9583 339.705 38.1833 339.421 38.5C339.138 38.8 338.946 39.2 338.846 39.7L338.021 43.625C337.938 44.0083 337.93 44.35 337.996 44.65C338.063 44.9333 338.188 45.1667 338.371 45.35C338.571 45.5333 338.821 45.675 339.121 45.775C339.421 45.8583 339.763 45.9 340.146 45.9C340.413 45.9 340.68 45.8917 340.946 45.875C341.23 45.8417 341.48 45.8083 341.696 45.775C341.913 45.725 342.088 45.6917 342.221 45.675C342.355 45.6417 342.421 45.625 342.421 45.625L342.446 47.875C341.896 48.0083 341.338 48.1167 340.771 48.2C340.205 48.2833 339.638 48.3167 339.071 48.3C338.121 48.2833 337.321 48.1083 336.671 47.775C336.021 47.4417 335.571 46.9333 335.321 46.25C335.071 45.5667 335.055 44.7 335.271 43.65L336.071 40C336.288 39.0333 336.63 38.1833 337.096 37.45C337.58 36.7167 338.213 36.15 338.996 35.75C339.796 35.35 340.771 35.1667 341.921 35.2C342.455 35.2167 342.971 35.3 343.471 35.45C343.988 35.6 344.471 35.7917 344.921 36.025L343.871 38.15ZM349.74 44.3C349.657 44.7167 349.632 45.075 349.665 45.375C349.715 45.675 349.832 45.925 350.015 46.125C350.215 46.3083 350.49 46.4667 350.84 46.6L349.24 48.5C348.774 48.3667 348.365 48.1917 348.015 47.975C347.682 47.7417 347.415 47.4667 347.215 47.15C347.015 46.8167 346.89 46.4417 346.84 46.025C346.79 45.6083 346.815 45.1583 346.915 44.675L348.315 38.075H345.99L346.54 35.475H354.115L353.565 38.075H351.065L349.74 44.3ZM364.949 35.825C364.783 36.3417 364.641 36.8083 364.524 37.225C364.424 37.625 364.341 37.9667 364.274 38.25L362.224 47.875C362.224 47.875 362.108 47.8833 361.874 47.9C361.658 47.9167 361.358 47.9417 360.974 47.975C360.608 47.9917 360.191 48.0083 359.724 48.025C359.274 48.0417 358.816 48.0583 358.349 48.075C357.899 48.0917 357.483 48.1 357.099 48.1C356.333 48.1 355.708 47.9833 355.224 47.75C354.758 47.5167 354.408 47.2 354.174 46.8C353.941 46.4 353.808 45.9417 353.774 45.425C353.758 44.8917 353.808 44.3333 353.924 43.75L354.924 39.125C355.074 38.3917 355.283 37.7833 355.549 37.3C355.833 36.8 356.149 36.4083 356.499 36.125C356.866 35.825 357.266 35.6167 357.699 35.5C358.133 35.3667 358.599 35.3 359.099 35.3C359.616 35.3 360.091 35.3333 360.524 35.4C360.958 35.4667 361.316 35.5417 361.599 35.625C361.899 35.7083 362.108 35.775 362.224 35.825C362.224 35.825 362.258 35.7583 362.324 35.625C362.408 35.475 362.499 35.3333 362.599 35.2L364.949 35.825ZM356.674 43.775C356.574 44.325 356.558 44.75 356.624 45.05C356.691 45.3333 356.841 45.5333 357.074 45.65C357.324 45.75 357.649 45.8 358.049 45.8C358.199 45.8 358.349 45.8 358.499 45.8C358.649 45.8 358.799 45.8 358.949 45.8C359.099 45.7833 359.249 45.7667 359.399 45.75C359.566 45.7333 359.733 45.7167 359.899 45.7L361.449 38.325C361.333 38.2583 361.191 38.2 361.024 38.15C360.858 38.0833 360.674 38.025 360.474 37.975C360.291 37.925 360.108 37.8917 359.924 37.875C359.758 37.8417 359.608 37.825 359.474 37.825C359.341 37.825 359.183 37.8333 358.999 37.85C358.833 37.8667 358.658 37.925 358.474 38.025C358.291 38.1083 358.124 38.2417 357.974 38.425C357.824 38.6083 357.716 38.8667 357.649 39.2L356.674 43.775Z" fill="white"/>
</g>
<defs>
<clipPath id="clip0_395_815">
<rect width="365" height="53" fill="white" transform="translate(0 0.5)"/>
</clipPath>
</defs>
</svg>
