<svg width="146" height="22" viewBox="0 0 146 22" fill="none" xmlns="http://www.w3.org/2000/svg">
<g clip-path="url(#clip0_395_668)">
<path d="M12.8902 1.84938C14.4302 1.84938 15.8719 2.05697 17.2152 2.47214C18.5586 2.88732 19.7392 3.47398 20.7568 4.23213C21.7978 4.99027 22.5923 5.87478 23.1402 6.88564C23.4438 7.42717 23.6213 7.91455 23.6728 8.34778C23.7243 8.78101 23.6689 9.16911 23.5065 9.51208C23.3441 9.85505 23.0895 10.1709 22.7427 10.4598C23.4187 10.6583 24.1441 10.9742 24.9189 11.4074C25.7171 11.8407 26.4757 12.3822 27.1946 13.032C27.8987 13.6638 28.4742 14.3949 28.921 15.2253C29.5343 16.3444 29.7801 17.3282 29.6584 18.1766C29.5451 19.007 29.0624 19.6568 28.2102 20.1261C27.3431 20.5774 26.0929 20.803 24.4596 20.803H16.7596L6.4502 1.84938H12.8902ZM16.223 9.59331C17.133 9.59331 17.8322 9.5211 18.3206 9.3767C18.8175 9.21423 19.1048 8.95249 19.1824 8.59147C19.2453 8.2124 19.0996 7.70697 18.7455 7.07518C18.4505 6.51559 18.0766 6.07334 17.6238 5.74842C17.1943 5.4235 16.6754 5.18884 16.0671 5.04443C15.4589 4.90002 14.758 4.82781 13.9647 4.82781H11.9347L14.543 9.59331H16.223ZM21.9175 18.0412C22.5008 18.0412 23.0717 17.969 23.6301 17.8246C24.1737 17.6622 24.5554 17.3733 24.7754 16.9582C24.9953 16.543 24.8924 15.9473 24.4666 15.1711C24.1273 14.5574 23.6899 14.0519 23.1547 13.6548C22.6194 13.2577 21.9671 12.9598 21.1978 12.7613C20.4518 12.5627 19.5772 12.4634 18.5739 12.4634H16.0888L19.1175 18.0412H21.9175ZM26.8376 7.0481C25.8195 5.20689 25.7119 3.80793 26.515 2.85122C27.3033 1.87646 28.8524 1.38908 31.1624 1.38908C33.4957 1.38908 35.5959 1.93061 37.4631 3.01368C39.3535 4.09675 40.7782 5.52278 41.7372 7.29179L46.3338 15.7668C46.9324 16.8679 47.1443 17.8246 46.9696 18.6369C46.8035 19.4312 46.2912 20.0449 45.4327 20.4781C44.5595 20.8933 43.3762 21.1009 41.8828 21.1009C40.5062 21.1009 39.1387 20.8843 37.7806 20.4511C36.4457 20.0178 35.2356 19.3951 34.1503 18.5828C33.0502 17.7524 32.1713 16.7506 31.5136 15.5773L26.8376 7.0481ZM35.2724 15.2523C35.5822 15.83 35.9655 16.3264 36.4222 16.7415C36.8789 17.1567 37.4134 17.4816 38.0256 17.7163C38.6464 17.9329 39.3417 18.0412 40.1117 18.0412C40.8584 18.0412 41.4273 17.9239 41.8184 17.6892C42.2095 17.4546 42.426 17.1206 42.4678 16.6874C42.5097 16.2542 42.3714 15.7578 42.0531 15.1982L38.1581 8.04994C37.7324 7.27374 37.2892 6.63293 36.8285 6.12749C36.3531 5.60401 35.8019 5.21591 35.1749 4.9632C34.5331 4.69243 33.7572 4.55705 32.8472 4.55705C32.0539 4.55705 31.469 4.68341 31.0927 4.93612C30.7397 5.18884 30.5909 5.57694 30.6463 6.10042C30.687 6.60585 30.9202 7.24666 31.346 8.02286L35.2724 15.2523ZM63.063 20.803L54.3881 4.82781H47.0031L55.713 20.803H51.828L41.5185 1.84938H56.6035L66.948 20.803H63.063ZM67.1954 1.84938C68.1054 1.84938 69.0617 1.94866 70.0643 2.14722C71.0903 2.34579 72.1062 2.68876 73.1121 3.17614C74.118 3.66352 75.0881 4.34946 76.0226 5.23396C76.9423 6.10042 77.7625 7.20154 78.4833 8.53732C79.2842 9.99946 79.7117 11.1908 79.7658 12.1114C79.8432 13.032 79.6381 13.736 79.1506 14.2234C78.6865 14.7108 78.05 15.0447 77.2412 15.2253C76.4324 15.4058 75.5613 15.496 74.628 15.496H70.848L73.7598 20.803H69.8748L59.5654 1.84938H67.1954ZM69.3243 12.653H71.6343C72.5443 12.653 73.3007 12.6078 73.9034 12.5176C74.5062 12.4273 74.9417 12.2468 75.2099 11.9761C75.4867 11.6872 75.5783 11.2721 75.4847 10.7305C75.3912 10.189 75.0957 9.45793 74.5983 8.53732C74.1367 7.68892 73.6714 7.02103 73.2022 6.53365C72.7182 6.02821 72.1934 5.65817 71.6279 5.4235C71.0709 5.17079 70.4478 5.00833 69.7587 4.93612C69.0695 4.86392 68.2699 4.82781 67.3599 4.82781H65.0499L69.3243 12.653ZM80.0211 7.0481C79.0031 5.20689 78.8955 3.80793 79.6986 2.85122C80.4869 1.87646 82.036 1.38908 84.346 1.38908C86.6793 1.38908 88.7795 1.93061 90.6467 3.01368C92.5371 4.09675 93.9618 5.52278 94.9207 7.29179L99.5174 15.7668C100.116 16.8679 100.328 17.8246 100.153 18.6369C99.9871 19.4312 99.4748 20.0449 98.6163 20.4781C97.7431 20.8933 96.5597 21.1009 95.0664 21.1009C93.6897 21.1009 92.3223 20.8843 90.9641 20.4511C89.6293 20.0178 88.4192 19.3951 87.3339 18.5828C86.2338 17.7524 85.3549 16.7506 84.6971 15.5773L80.0211 7.0481ZM88.456 15.2523C88.7658 15.83 89.1491 16.3264 89.6058 16.7415C90.0625 17.1567 90.597 17.4816 91.2092 17.7163C91.8299 17.9329 92.5253 18.0412 93.2953 18.0412C94.042 18.0412 94.6109 17.9239 95.002 17.6892C95.3931 17.4546 95.6096 17.1206 95.6514 16.6874C95.6933 16.2542 95.555 15.7578 95.2367 15.1982L91.3417 8.04994C90.916 7.27374 90.4728 6.63293 90.0121 6.12749C89.5367 5.60401 88.9854 5.21591 88.3585 4.9632C87.7167 4.69243 86.9408 4.55705 86.0308 4.55705C85.2375 4.55705 84.6526 4.68341 84.2763 4.93612C83.9233 5.18884 83.7745 5.57694 83.8299 6.10042C83.8706 6.60585 84.1038 7.24666 84.5295 8.02286L88.456 15.2523ZM106.973 4.90904C106.435 4.76464 105.837 4.6473 105.18 4.55705C104.546 4.46679 103.96 4.42166 103.424 4.42166C102.537 4.42166 101.876 4.51192 101.441 4.69243C101.005 4.87294 100.772 5.14371 100.741 5.50473C100.71 5.86575 100.842 6.32606 101.137 6.88564L105.961 15.7668C106.28 16.3264 106.661 16.7777 107.105 17.1206C107.535 17.4455 108.038 17.6892 108.614 17.8517C109.176 17.9961 109.795 18.0683 110.471 18.0683C111.195 18.0683 111.885 18.0142 112.543 17.9058C113.201 17.7975 113.747 17.6802 114.18 17.5538C114.637 17.4275 114.916 17.3553 115.018 17.3372L117.136 20.1803C116.276 20.4691 115.411 20.6947 114.541 20.8572C113.709 21.0377 112.837 21.128 111.927 21.128C110.481 21.128 109.121 20.9204 107.847 20.5052C106.583 20.072 105.462 19.4582 104.484 18.664C103.507 17.8697 102.719 16.9221 102.121 15.8209L97.3187 6.96687C96.6696 5.7755 96.393 4.78269 96.4892 3.98844C96.5705 3.17614 96.9778 2.5624 97.7111 2.14722C98.4443 1.73205 99.4526 1.52446 100.736 1.52446C101.576 1.52446 102.517 1.60569 103.56 1.76815C104.612 1.91256 105.644 2.14722 106.657 2.47214L106.973 4.90904ZM124.777 4.69243L123.218 1.84938H129.308L139.618 20.803H135.733L126.991 4.74658L124.777 4.69243ZM122.278 9.67454C122.931 9.67454 123.604 9.75577 124.297 9.91823C124.999 10.0626 125.681 10.2973 126.344 10.6222C127.007 10.9471 127.615 11.3623 128.169 11.8677C128.747 12.3732 129.223 12.9689 129.598 13.6548L131.188 16.5791C131.665 17.4455 131.871 18.1676 131.807 18.7452C131.744 19.3229 131.487 19.7922 131.036 20.1532C130.57 20.4962 129.929 20.7399 129.114 20.8843C128.323 21.0287 127.425 21.1009 126.422 21.1009C125.955 21.1009 125.434 21.0919 124.86 21.0738C124.285 21.0558 123.703 21.0287 123.113 20.9926C122.547 20.9565 122.016 20.9204 121.519 20.8843C121.061 20.8662 120.685 20.8482 120.39 20.8301C120.119 20.8121 119.983 20.803 119.983 20.803L109.673 1.84938H113.488L117.728 9.67454H122.278ZM127.009 16.0917L125.883 14.0339C125.746 13.7812 125.588 13.5736 125.408 13.4111C125.237 13.2306 125.045 13.0952 124.831 13.005C124.625 12.8967 124.403 12.8245 124.163 12.7884C123.924 12.7523 123.676 12.7342 123.419 12.7342H119.394L122.391 18.2308C122.391 18.2308 122.445 18.2398 122.553 18.2578C122.67 18.2578 122.817 18.2669 122.995 18.2849C123.159 18.2849 123.341 18.2939 123.543 18.312C123.753 18.312 123.947 18.321 124.125 18.3391C124.311 18.3391 124.463 18.3391 124.58 18.3391C125.373 18.3391 125.982 18.2849 126.407 18.1766C126.831 18.0683 127.114 17.9149 127.255 17.7163C127.395 17.5177 127.436 17.2831 127.378 17.0123C127.32 16.7415 127.197 16.4347 127.009 16.0917Z" fill="white"/>
</g>
<defs>
<clipPath id="clip0_395_668">
<rect width="145" height="21" fill="white" transform="translate(0.5 0.5)"/>
</clipPath>
</defs>
</svg>
