<svg width="223" height="54" viewBox="0 0 223 54" fill="none" xmlns="http://www.w3.org/2000/svg">
<g clip-path="url(#clip0_395_697)">
<path d="M4.7501 0.5H7.5501L4.9501 12.725L14.3251 0.5H17.1001L13.3751 18H10.6001L13.1251 6.15L3.8251 18H1.0251L4.7501 0.5ZM30.5851 9.85L31.5101 5.5H34.2601L31.6101 18H28.8601L30.0351 12.475H26.3351L25.1601 18H22.3851L25.0351 5.5H27.8101L26.8851 9.85H30.5851ZM36.944 14.275C36.894 14.4917 36.8857 14.6917 36.919 14.875C36.9524 15.0417 37.0107 15.1917 37.094 15.325C37.194 15.4583 37.3274 15.5583 37.494 15.625C37.6607 15.6917 37.8524 15.725 38.069 15.725C38.519 15.725 39.0524 15.625 39.669 15.425C40.2857 15.225 40.8857 14.9917 41.469 14.725L41.969 17.125C41.3024 17.4917 40.569 17.7833 39.769 18C38.969 18.2167 38.194 18.325 37.444 18.325C36.8607 18.325 36.3274 18.25 35.844 18.1C35.3774 17.95 34.9857 17.725 34.669 17.425C34.369 17.125 34.1607 16.7417 34.044 16.275C33.944 15.8083 33.9607 15.2583 34.094 14.625L35.194 9.5C35.394 8.58333 35.744 7.80833 36.244 7.175C36.7607 6.54167 37.3857 6.05833 38.119 5.725C38.869 5.39167 39.694 5.225 40.594 5.225C41.494 5.225 42.244 5.38333 42.844 5.7C43.4607 6.01667 43.894 6.48333 44.144 7.1C44.394 7.71667 44.419 8.49167 44.219 9.425L43.394 13.325L37.094 13.65L36.944 14.275ZM41.294 10.175C41.3607 9.825 41.394 9.46667 41.394 9.1C41.394 8.73333 41.3024 8.43333 41.119 8.2C40.9524 7.95 40.619 7.84167 40.119 7.875C39.6024 7.89167 39.194 8 38.894 8.2C38.6107 8.38333 38.3857 8.64167 38.219 8.975C38.069 9.29167 37.9357 9.68333 37.819 10.15L37.619 11.125L41.119 10.9L41.294 10.175ZM51.5636 5.3C52.4969 5.3 53.2386 5.475 53.7886 5.825C54.3386 6.175 54.6969 6.7 54.8636 7.4C55.0469 8.1 55.0302 8.96667 54.8136 10L54.0886 13.375C53.7719 14.8917 53.1219 16.0917 52.1386 16.975C51.1552 17.8417 49.9469 18.275 48.5136 18.275C47.5802 18.275 46.7969 18.0917 46.1636 17.725C45.5469 17.3417 45.1136 16.7917 44.8636 16.075C44.6302 15.3417 44.6219 14.4417 44.8386 13.375L46.4136 6C46.5469 5.38333 46.7802 4.75833 47.1136 4.125C47.4636 3.49167 47.9219 2.91667 48.4886 2.4C49.0052 1.91667 49.6219 1.50833 50.3386 1.175C51.0552 0.841667 51.8719 0.616667 52.7886 0.5L53.0886 2.225C52.5219 2.34167 52.0052 2.50833 51.5386 2.725C51.0886 2.94167 50.6802 3.23333 50.3136 3.6C50.0469 3.88333 49.8219 4.20833 49.6386 4.575C49.4552 4.94167 49.3052 5.39167 49.1886 5.925L49.1386 6.15C49.3552 6.01667 49.5969 5.88333 49.8636 5.75C50.1469 5.61667 50.4302 5.50833 50.7136 5.425C51.0136 5.34167 51.2969 5.3 51.5636 5.3ZM50.6636 7.8C50.4636 7.8 50.2469 7.83333 50.0136 7.9C49.7802 7.95 49.5552 8.04167 49.3386 8.175C49.1219 8.29167 48.9302 8.45833 48.7636 8.675C48.6136 8.875 48.5052 9.11667 48.4386 9.4L47.5636 13.525C47.4802 13.9417 47.4636 14.3 47.5136 14.6C47.5636 14.8833 47.7052 15.1083 47.9386 15.275C48.1719 15.425 48.5219 15.5 48.9886 15.5C49.3886 15.5 49.7469 15.4167 50.0636 15.25C50.3802 15.0833 50.6386 14.8583 50.8386 14.575C51.0552 14.275 51.2052 13.925 51.2886 13.525L52.1136 9.625C52.1969 9.24167 52.1969 8.91667 52.1136 8.65C52.0302 8.36667 51.8636 8.15833 51.6136 8.025C51.3802 7.875 51.0636 7.8 50.6636 7.8ZM64.8575 13.375C64.5575 14.8417 63.9325 16.025 62.9825 16.925C62.0492 17.8083 60.8159 18.25 59.2825 18.25C58.1825 18.25 57.3325 18.025 56.7325 17.575C56.1492 17.1083 55.7742 16.5083 55.6075 15.775C55.4409 15.025 55.4409 14.225 55.6075 13.375L56.3325 10.075C56.5659 9.00833 56.9325 8.11667 57.4325 7.4C57.9492 6.68333 58.5909 6.14167 59.3575 5.775C60.1409 5.39167 61.0409 5.2 62.0575 5.2C63.5075 5.2 64.5409 5.63333 65.1575 6.5C65.7742 7.35 65.9159 8.54167 65.5825 10.075L64.8575 13.375ZM62.7825 9.925C62.8659 9.525 62.8742 9.18333 62.8075 8.9C62.7409 8.6 62.5909 8.375 62.3575 8.225C62.1409 8.05833 61.8325 7.975 61.4325 7.975C61.0325 7.975 60.6742 8.05 60.3575 8.2C60.0575 8.35 59.7992 8.56667 59.5825 8.85C59.3825 9.13333 59.2325 9.49167 59.1325 9.925L58.3575 13.575C58.2909 13.9083 58.2909 14.225 58.3575 14.525C58.4242 14.825 58.5742 15.0667 58.8075 15.25C59.0409 15.4333 59.3825 15.525 59.8325 15.525C60.2492 15.525 60.5992 15.4417 60.8825 15.275C61.1825 15.1083 61.4242 14.875 61.6075 14.575C61.7909 14.275 61.9242 13.9417 62.0075 13.575L62.7825 9.925ZM75.373 5.5H79.573L76.923 17.975H74.148L76.298 7.85H75.523C75.173 7.85 74.8563 7.89167 74.573 7.975C74.3063 8.05833 74.0563 8.20833 73.823 8.425C73.6063 8.64167 73.3896 8.95833 73.173 9.375L70.623 14.475C70.1563 15.3917 69.7063 16.125 69.273 16.675C68.8563 17.2083 68.3813 17.625 67.848 17.925C67.3313 18.2083 66.6896 18.4333 65.923 18.6L64.798 17.275C65.1646 17.0917 65.4813 16.925 65.748 16.775C66.0313 16.625 66.298 16.4083 66.548 16.125C66.8146 15.8417 67.098 15.4167 67.398 14.85L70.273 9.25C70.473 8.85 70.7146 8.43333 70.998 8C71.2813 7.56667 71.6146 7.15833 71.998 6.775C72.398 6.39167 72.873 6.08333 73.423 5.85C73.973 5.61667 74.623 5.5 75.373 5.5ZM86.0019 10.425C86.7519 10.425 87.4269 10.5583 88.0269 10.825C88.6435 11.075 89.1019 11.4833 89.4019 12.05C89.7019 12.6 89.7519 13.325 89.5519 14.225C89.4185 14.875 89.1269 15.5083 88.6769 16.125C88.2269 16.725 87.6352 17.225 86.9019 17.625C86.1685 18.025 85.3019 18.225 84.3019 18.225C83.9852 18.225 83.6019 18.2167 83.1519 18.2C82.7185 18.1833 82.2602 18.1583 81.7769 18.125C81.3102 18.0917 80.8685 18.0583 80.4519 18.025C80.0352 18.0083 79.6935 17.9917 79.4269 17.975C79.1769 17.9583 79.0519 17.95 79.0519 17.95L81.7019 5.5H84.4769L83.4269 10.425H86.0019ZM84.4269 15.4C84.8102 15.4 85.1519 15.3667 85.4519 15.3C85.7685 15.2167 86.0352 15.0833 86.2519 14.9C86.4685 14.7167 86.6102 14.4667 86.6769 14.15C86.7269 13.95 86.7269 13.775 86.6769 13.625C86.6269 13.475 86.5352 13.35 86.4019 13.25C86.2852 13.15 86.1269 13.0833 85.9269 13.05C85.7269 13 85.5019 12.975 85.2519 12.975H82.9019L82.4019 15.35C82.5852 15.35 82.7685 15.3583 82.9519 15.375C83.1519 15.375 83.3352 15.3833 83.5019 15.4C83.6852 15.4 83.8519 15.4 84.0019 15.4C84.1685 15.4 84.3102 15.4 84.4269 15.4ZM103.578 5.5H106.353L103.703 18H90.5532L93.2032 5.5H95.9782L93.9032 15.25H96.3032L98.3782 5.5H101.153L99.0782 15.25H101.503L103.578 5.5ZM115.834 13.375C115.534 14.8417 114.909 16.025 113.959 16.925C113.026 17.8083 111.792 18.25 110.259 18.25C109.159 18.25 108.309 18.025 107.709 17.575C107.126 17.1083 106.751 16.5083 106.584 15.775C106.417 15.025 106.417 14.225 106.584 13.375L107.309 10.075C107.542 9.00833 107.909 8.11667 108.409 7.4C108.926 6.68333 109.567 6.14167 110.334 5.775C111.117 5.39167 112.017 5.2 113.034 5.2C114.484 5.2 115.517 5.63333 116.134 6.5C116.751 7.35 116.892 8.54167 116.559 10.075L115.834 13.375ZM113.759 9.925C113.842 9.525 113.851 9.18333 113.784 8.9C113.717 8.6 113.567 8.375 113.334 8.225C113.117 8.05833 112.809 7.975 112.409 7.975C112.009 7.975 111.651 8.05 111.334 8.2C111.034 8.35 110.776 8.56667 110.559 8.85C110.359 9.13333 110.209 9.49167 110.109 9.925L109.334 13.575C109.267 13.9083 109.267 14.225 109.334 14.525C109.401 14.825 109.551 15.0667 109.784 15.25C110.017 15.4333 110.359 15.525 110.809 15.525C111.226 15.525 111.576 15.4417 111.859 15.275C112.159 15.1083 112.401 14.875 112.584 14.575C112.767 14.275 112.901 13.9417 112.984 13.575L113.759 9.925ZM120.049 14.275C119.999 14.4917 119.991 14.6917 120.024 14.875C120.058 15.0417 120.116 15.1917 120.199 15.325C120.299 15.4583 120.433 15.5583 120.599 15.625C120.766 15.6917 120.958 15.725 121.174 15.725C121.624 15.725 122.158 15.625 122.774 15.425C123.391 15.225 123.991 14.9917 124.574 14.725L125.074 17.125C124.408 17.4917 123.674 17.7833 122.874 18C122.074 18.2167 121.299 18.325 120.549 18.325C119.966 18.325 119.433 18.25 118.949 18.1C118.483 17.95 118.091 17.725 117.774 17.425C117.474 17.125 117.266 16.7417 117.149 16.275C117.049 15.8083 117.066 15.2583 117.199 14.625L118.299 9.5C118.499 8.58333 118.849 7.80833 119.349 7.175C119.866 6.54167 120.491 6.05833 121.224 5.725C121.974 5.39167 122.799 5.225 123.699 5.225C124.599 5.225 125.349 5.38333 125.949 5.7C126.566 6.01667 126.999 6.48333 127.249 7.1C127.499 7.71667 127.524 8.49167 127.324 9.425L126.499 13.325L120.199 13.65L120.049 14.275ZM124.399 10.175C124.466 9.825 124.499 9.46667 124.499 9.1C124.499 8.73333 124.408 8.43333 124.224 8.2C124.058 7.95 123.724 7.84167 123.224 7.875C122.708 7.89167 122.299 8 121.999 8.2C121.716 8.38333 121.491 8.64167 121.324 8.975C121.174 9.29167 121.041 9.68333 120.924 10.15L120.724 11.125L124.224 10.9L124.399 10.175ZM144.301 13.375C144.001 14.8417 143.376 16.025 142.426 16.925C141.492 17.8083 140.259 18.25 138.726 18.25C137.626 18.25 136.776 18.025 136.176 17.575C135.592 17.1083 135.217 16.5083 135.051 15.775C134.884 15.025 134.884 14.225 135.051 13.375L135.776 10.075C136.009 9.00833 136.376 8.11667 136.876 7.4C137.392 6.68333 138.034 6.14167 138.801 5.775C139.584 5.39167 140.484 5.2 141.501 5.2C142.951 5.2 143.984 5.63333 144.601 6.5C145.217 7.35 145.359 8.54167 145.026 10.075L144.301 13.375ZM142.226 9.925C142.309 9.525 142.317 9.18333 142.251 8.9C142.184 8.6 142.034 8.375 141.801 8.225C141.584 8.05833 141.276 7.975 140.876 7.975C140.476 7.975 140.117 8.05 139.801 8.2C139.501 8.35 139.242 8.56667 139.026 8.85C138.826 9.13333 138.676 9.49167 138.576 9.925L137.801 13.575C137.734 13.9083 137.734 14.225 137.801 14.525C137.867 14.825 138.017 15.0667 138.251 15.25C138.484 15.4333 138.826 15.525 139.276 15.525C139.692 15.525 140.042 15.4417 140.326 15.275C140.626 15.1083 140.867 14.875 141.051 14.575C141.234 14.275 141.367 13.9417 141.451 13.575L142.226 9.925ZM155.091 15.35C155.075 15.6167 155.108 15.8333 155.191 16C155.291 16.1667 155.433 16.3167 155.616 16.45L153.566 18.425C153.583 18.425 153.5 18.3833 153.316 18.3C153.15 18.2167 152.958 18.0833 152.741 17.9C152.541 17.7167 152.383 17.4667 152.266 17.15C152.15 16.8167 152.141 16.4 152.241 15.9L153.916 8.075H149.966L147.866 18H145.091L147.766 5.475H157.191L155.091 15.35ZM162.405 5.5L160.83 12.925L166.08 5.5H168.88L166.23 18.025H163.43L164.98 10.65L159.755 18.025H157.005L159.655 5.5H162.405ZM177.488 8.15C177.188 7.98333 176.846 7.85833 176.463 7.775C176.096 7.675 175.721 7.61667 175.338 7.6C174.888 7.6 174.463 7.675 174.063 7.825C173.663 7.95833 173.321 8.18333 173.038 8.5C172.754 8.8 172.563 9.2 172.463 9.7L171.638 13.625C171.554 14.0083 171.546 14.35 171.613 14.65C171.679 14.9333 171.804 15.1667 171.988 15.35C172.188 15.5333 172.438 15.675 172.738 15.775C173.038 15.8583 173.379 15.9 173.763 15.9C174.029 15.9 174.296 15.8917 174.563 15.875C174.846 15.8417 175.096 15.8083 175.313 15.775C175.529 15.725 175.704 15.6917 175.838 15.675C175.971 15.6417 176.038 15.625 176.038 15.625L176.063 17.875C175.513 18.0083 174.954 18.1167 174.388 18.2C173.821 18.2833 173.254 18.3167 172.688 18.3C171.738 18.2833 170.938 18.1083 170.288 17.775C169.638 17.4417 169.188 16.9333 168.938 16.25C168.688 15.5667 168.671 14.7 168.888 13.65L169.688 10C169.904 9.03333 170.246 8.18333 170.713 7.45C171.196 6.71667 171.829 6.15 172.613 5.75C173.413 5.35 174.388 5.16667 175.538 5.2C176.071 5.21667 176.588 5.3 177.088 5.45C177.604 5.6 178.088 5.79167 178.538 6.025L177.488 8.15ZM189.557 5.825C189.39 6.34167 189.248 6.80833 189.132 7.225C189.032 7.625 188.948 7.96667 188.882 8.25L186.832 17.875C186.832 17.875 186.715 17.8833 186.482 17.9C186.265 17.9167 185.965 17.9417 185.582 17.975C185.215 17.9917 184.798 18.0083 184.332 18.025C183.882 18.0417 183.423 18.0583 182.957 18.075C182.507 18.0917 182.09 18.1 181.707 18.1C180.94 18.1 180.315 17.9833 179.832 17.75C179.365 17.5167 179.015 17.2 178.782 16.8C178.548 16.4 178.415 15.9417 178.382 15.425C178.365 14.8917 178.415 14.3333 178.532 13.75L179.532 9.125C179.682 8.39167 179.89 7.78333 180.157 7.3C180.44 6.8 180.757 6.40833 181.107 6.125C181.473 5.825 181.873 5.61667 182.307 5.5C182.74 5.36667 183.207 5.3 183.707 5.3C184.223 5.3 184.698 5.33333 185.132 5.4C185.565 5.46667 185.923 5.54167 186.207 5.625C186.507 5.70833 186.715 5.775 186.832 5.825C186.832 5.825 186.865 5.75833 186.932 5.625C187.015 5.475 187.107 5.33333 187.207 5.2L189.557 5.825ZM181.282 13.775C181.182 14.325 181.165 14.75 181.232 15.05C181.298 15.3333 181.448 15.5333 181.682 15.65C181.932 15.75 182.257 15.8 182.657 15.8C182.807 15.8 182.957 15.8 183.107 15.8C183.257 15.8 183.407 15.8 183.557 15.8C183.707 15.7833 183.857 15.7667 184.007 15.75C184.173 15.7333 184.34 15.7167 184.507 15.7L186.057 8.325C185.94 8.25833 185.798 8.2 185.632 8.15C185.465 8.08333 185.282 8.025 185.082 7.975C184.898 7.925 184.715 7.89167 184.532 7.875C184.365 7.84167 184.215 7.825 184.082 7.825C183.948 7.825 183.79 7.83333 183.607 7.85C183.44 7.86667 183.265 7.925 183.082 8.025C182.898 8.10833 182.732 8.24167 182.582 8.425C182.432 8.60833 182.323 8.86667 182.257 9.2L181.282 13.775ZM197.235 9.85L198.16 5.5H200.91L198.26 18H195.51L196.685 12.475H192.985L191.81 18H189.035L191.685 5.5H194.46L193.535 9.85H197.235ZM205.569 5.5L203.994 12.925L209.244 5.5H212.044L209.394 18.025H206.594L208.144 10.65L202.919 18.025H200.169L202.819 5.5H205.569ZM214.752 14.275C214.702 14.4917 214.693 14.6917 214.727 14.875C214.76 15.0417 214.818 15.1917 214.902 15.325C215.002 15.4583 215.135 15.5583 215.302 15.625C215.468 15.6917 215.66 15.725 215.877 15.725C216.327 15.725 216.86 15.625 217.477 15.425C218.093 15.225 218.693 14.9917 219.277 14.725L219.777 17.125C219.11 17.4917 218.377 17.7833 217.577 18C216.777 18.2167 216.002 18.325 215.252 18.325C214.668 18.325 214.135 18.25 213.652 18.1C213.185 17.95 212.793 17.725 212.477 17.425C212.177 17.125 211.968 16.7417 211.852 16.275C211.752 15.8083 211.768 15.2583 211.902 14.625L213.002 9.5C213.202 8.58333 213.552 7.80833 214.052 7.175C214.568 6.54167 215.193 6.05833 215.927 5.725C216.677 5.39167 217.502 5.225 218.402 5.225C219.302 5.225 220.052 5.38333 220.652 5.7C221.268 6.01667 221.702 6.48333 221.952 7.1C222.202 7.71667 222.227 8.49167 222.027 9.425L221.202 13.325L214.902 13.65L214.752 14.275ZM219.102 10.175C219.168 9.825 219.202 9.46667 219.202 9.1C219.202 8.73333 219.11 8.43333 218.927 8.2C218.76 7.95 218.427 7.84167 217.927 7.875C217.41 7.89167 217.002 8 216.702 8.2C216.418 8.38333 216.193 8.64167 216.027 8.975C215.877 9.29167 215.743 9.68333 215.627 10.15L215.427 11.125L218.927 10.9L219.102 10.175ZM10.9751 45.35C10.9584 45.6167 10.9918 45.8333 11.0751 46C11.1751 46.1667 11.3168 46.3167 11.5001 46.45L9.4501 48.425C9.46677 48.425 9.38343 48.3833 9.2001 48.3C9.03343 48.2167 8.84177 48.0833 8.6251 47.9C8.4251 47.7167 8.26677 47.4667 8.1501 47.15C8.03343 46.8167 8.0251 46.4 8.1251 45.9L9.8001 38.075H5.8501L3.7501 48H0.975098L3.6501 35.475H13.0751L10.9751 45.35ZM22.9642 43.725C22.7642 44.7417 22.4225 45.6 21.9392 46.3C21.4725 47 20.8892 47.5333 20.1892 47.9C19.4892 48.25 18.6725 48.425 17.7392 48.425C17.5392 48.425 17.3392 48.4083 17.1392 48.375C16.9392 48.3417 16.7475 48.3 16.5642 48.25C16.3808 48.2 16.2058 48.1333 16.0392 48.05C15.8892 47.9833 15.7475 47.9083 15.6142 47.825L14.4392 53.4L11.8142 52.775L14.4892 40.2C14.8225 38.6167 15.4808 37.4083 16.4642 36.575C17.4642 35.725 18.7225 35.3 20.2392 35.3C21.6725 35.3 22.6975 35.7333 23.3142 36.6C23.9308 37.4667 24.0725 38.6667 23.7392 40.2L22.9642 43.725ZM21.0142 40.05C21.0975 39.65 21.0975 39.3083 21.0142 39.025C20.9308 38.725 20.7642 38.4917 20.5142 38.325C20.2642 38.1583 19.9392 38.075 19.5392 38.075C19.1558 38.075 18.8058 38.15 18.4892 38.3C18.1725 38.45 17.9142 38.675 17.7142 38.975C17.5142 39.2583 17.3642 39.6167 17.2642 40.05L16.2892 44.625C16.2392 44.8417 16.2642 45.0333 16.3642 45.2C16.4808 45.3667 16.6392 45.5083 16.8392 45.625C17.0392 45.7417 17.2475 45.825 17.4642 45.875C17.6975 45.925 17.9142 45.95 18.1142 45.95C18.4808 45.95 18.7975 45.875 19.0642 45.725C19.3475 45.575 19.5808 45.3667 19.7642 45.1C19.9475 44.8167 20.0725 44.4833 20.1392 44.1L21.0142 40.05ZM27.4226 44.275C27.3726 44.4917 27.3642 44.6917 27.3976 44.875C27.4309 45.0417 27.4892 45.1917 27.5726 45.325C27.6726 45.4583 27.8059 45.5583 27.9726 45.625C28.1392 45.6917 28.3309 45.725 28.5476 45.725C28.9976 45.725 29.5309 45.625 30.1476 45.425C30.7642 45.225 31.3642 44.9917 31.9476 44.725L32.4476 47.125C31.7809 47.4917 31.0476 47.7833 30.2476 48C29.4476 48.2167 28.6726 48.325 27.9226 48.325C27.3392 48.325 26.8059 48.25 26.3226 48.1C25.8559 47.95 25.4642 47.725 25.1476 47.425C24.8476 47.125 24.6392 46.7417 24.5226 46.275C24.4226 45.8083 24.4392 45.2583 24.5726 44.625L25.6726 39.5C25.8726 38.5833 26.2226 37.8083 26.7226 37.175C27.2392 36.5417 27.8642 36.0583 28.5976 35.725C29.3476 35.3917 30.1726 35.225 31.0726 35.225C31.9726 35.225 32.7226 35.3833 33.3226 35.7C33.9392 36.0167 34.3726 36.4833 34.6226 37.1C34.8726 37.7167 34.8976 38.4917 34.6976 39.425L33.8726 43.325L27.5726 43.65L27.4226 44.275ZM31.7726 40.175C31.8392 39.825 31.8726 39.4667 31.8726 39.1C31.8726 38.7333 31.7809 38.4333 31.5976 38.2C31.4309 37.95 31.0976 37.8417 30.5976 37.875C30.0809 37.8917 29.6726 38 29.3726 38.2C29.0892 38.3833 28.8642 38.6417 28.6976 38.975C28.5476 39.2917 28.4142 39.6833 28.2976 40.15L28.0976 41.125L31.5976 40.9L31.7726 40.175ZM40.0421 35.5L38.4671 42.925L43.7171 35.5H46.5171L43.8671 48.025H41.0671L42.6171 40.65L37.3921 48.025H34.6421L37.2921 35.5H40.0421ZM58.1743 35.5H61.2243L58.5743 48.025H55.8243L57.2243 41.4L53.2243 48.025H51.1493L49.8993 41.4L48.4993 48.025H45.7243L48.3743 35.5H51.4743L52.9493 44.3L58.1743 35.5ZM61.621 53.225L64.471 48L62.596 35.475H65.246L66.546 44.275L71.296 35.475H73.946L64.321 53.225H61.621ZM85.4228 45.25H89.5228L88.2728 51.125H85.9728L86.1228 48H84.8478L85.4228 45.25ZM86.0978 35.5H88.8728L86.2228 48H73.0728L75.7228 35.5H78.4978L76.4228 45.25H78.8228L80.8978 35.5H83.6728L81.5978 45.25H84.0228L86.0978 35.5ZM93.8776 44.275C93.8276 44.4917 93.8193 44.6917 93.8526 44.875C93.886 45.0417 93.9443 45.1917 94.0276 45.325C94.1276 45.4583 94.261 45.5583 94.4276 45.625C94.5943 45.6917 94.786 45.725 95.0026 45.725C95.4526 45.725 95.986 45.625 96.6026 45.425C97.2193 45.225 97.8193 44.9917 98.4026 44.725L98.9026 47.125C98.236 47.4917 97.5026 47.7833 96.7026 48C95.9026 48.2167 95.1276 48.325 94.3776 48.325C93.7943 48.325 93.261 48.25 92.7776 48.1C92.311 47.95 91.9193 47.725 91.6026 47.425C91.3026 47.125 91.0943 46.7417 90.9776 46.275C90.8776 45.8083 90.8943 45.2583 91.0276 44.625L92.1276 39.5C92.3276 38.5833 92.6776 37.8083 93.1776 37.175C93.6943 36.5417 94.3193 36.0583 95.0526 35.725C95.8026 35.3917 96.6276 35.225 97.5276 35.225C98.4276 35.225 99.1776 35.3833 99.7776 35.7C100.394 36.0167 100.828 36.4833 101.078 37.1C101.328 37.7167 101.353 38.4917 101.153 39.425L100.328 43.325L94.0276 43.65L93.8776 44.275ZM98.2276 40.175C98.2943 39.825 98.3276 39.4667 98.3276 39.1C98.3276 38.7333 98.236 38.4333 98.0526 38.2C97.886 37.95 97.5526 37.8417 97.0526 37.875C96.536 37.8917 96.1276 38 95.8276 38.2C95.5443 38.3833 95.3193 38.6417 95.1526 38.975C95.0026 39.2917 94.8693 39.6833 94.7526 40.15L94.5526 41.125L98.0526 40.9L98.2276 40.175ZM110.422 38.15C110.122 37.9833 109.78 37.8583 109.397 37.775C109.03 37.675 108.655 37.6167 108.272 37.6C107.822 37.6 107.397 37.675 106.997 37.825C106.597 37.9583 106.255 38.1833 105.972 38.5C105.689 38.8 105.497 39.2 105.397 39.7L104.572 43.625C104.489 44.0083 104.48 44.35 104.547 44.65C104.614 44.9333 104.739 45.1667 104.922 45.35C105.122 45.5333 105.372 45.675 105.672 45.775C105.972 45.8583 106.314 45.9 106.697 45.9C106.964 45.9 107.23 45.8917 107.497 45.875C107.78 45.8417 108.03 45.8083 108.247 45.775C108.464 45.725 108.639 45.6917 108.772 45.675C108.905 45.6417 108.972 45.625 108.972 45.625L108.997 47.875C108.447 48.0083 107.889 48.1167 107.322 48.2C106.755 48.2833 106.189 48.3167 105.622 48.3C104.672 48.2833 103.872 48.1083 103.222 47.775C102.572 47.4417 102.122 46.9333 101.872 46.25C101.622 45.5667 101.605 44.7 101.822 43.65L102.622 40C102.839 39.0333 103.18 38.1833 103.647 37.45C104.13 36.7167 104.764 36.15 105.547 35.75C106.347 35.35 107.322 35.1667 108.472 35.2C109.005 35.2167 109.522 35.3 110.022 35.45C110.539 35.6 111.022 35.7917 111.472 36.025L110.422 38.15ZM116.291 44.3C116.208 44.7167 116.183 45.075 116.216 45.375C116.266 45.675 116.383 45.925 116.566 46.125C116.766 46.3083 117.041 46.4667 117.391 46.6L115.791 48.5C115.325 48.3667 114.916 48.1917 114.566 47.975C114.233 47.7417 113.966 47.4667 113.766 47.15C113.566 46.8167 113.441 46.4417 113.391 46.025C113.341 45.6083 113.366 45.1583 113.466 44.675L114.866 38.075H112.541L113.091 35.475H120.666L120.116 38.075H117.616L116.291 44.3ZM129.05 41.075C129.5 41.4083 129.8 41.8583 129.95 42.425C130.117 42.9917 130.133 43.6083 130 44.275C129.867 44.925 129.575 45.5583 129.125 46.175C128.675 46.775 128.083 47.275 127.35 47.675C126.617 48.075 125.75 48.275 124.75 48.275C124.433 48.275 124.058 48.2667 123.625 48.25C123.192 48.2333 122.742 48.2083 122.275 48.175C121.808 48.1417 121.375 48.1083 120.975 48.075C120.575 48.0583 120.25 48.0417 120 48.025C119.75 48.0083 119.625 48 119.625 48L122.275 35.475C122.275 35.475 122.383 35.4667 122.6 35.45C122.833 35.4167 123.158 35.3833 123.575 35.35C124.008 35.3 124.517 35.2667 125.1 35.25C125.683 35.2167 126.333 35.2 127.05 35.2C127.55 35.2 128.033 35.2583 128.5 35.375C128.967 35.4917 129.375 35.6667 129.725 35.9C130.092 36.1333 130.367 36.4417 130.55 36.825C130.75 37.1917 130.833 37.6417 130.8 38.175C130.767 38.6917 130.583 39.225 130.25 39.775C129.933 40.3083 129.533 40.7417 129.05 41.075ZM126.6 37.625C126.45 37.625 126.292 37.625 126.125 37.625C125.958 37.625 125.783 37.6333 125.6 37.65C125.433 37.65 125.258 37.6583 125.075 37.675C124.908 37.675 124.742 37.675 124.575 37.675L123.975 40.45H125.25C125.85 40.45 126.333 40.375 126.7 40.225C127.067 40.075 127.342 39.8833 127.525 39.65C127.725 39.4167 127.85 39.1833 127.9 38.95C127.95 38.7333 127.942 38.55 127.875 38.4C127.808 38.2333 127.708 38.0917 127.575 37.975C127.458 37.8583 127.308 37.775 127.125 37.725C126.958 37.6583 126.783 37.625 126.6 37.625ZM124.875 45.45C125.258 45.45 125.617 45.4083 125.95 45.325C126.283 45.2417 126.567 45.1083 126.8 44.925C127.033 44.725 127.183 44.4667 127.25 44.15C127.3 43.95 127.292 43.7667 127.225 43.6C127.175 43.4333 127.075 43.3 126.925 43.2C126.792 43.0833 126.617 43 126.4 42.95C126.2 42.8833 125.975 42.85 125.725 42.85H123.475L122.925 45.4C123.108 45.4 123.292 45.4083 123.475 45.425C123.658 45.425 123.833 45.4333 124 45.45C124.167 45.45 124.325 45.45 124.475 45.45C124.625 45.45 124.758 45.45 124.875 45.45ZM142.706 35.825C142.539 36.3417 142.398 36.8083 142.281 37.225C142.181 37.625 142.098 37.9667 142.031 38.25L139.981 47.875C139.981 47.875 139.864 47.8833 139.631 47.9C139.414 47.9167 139.114 47.9417 138.731 47.975C138.364 47.9917 137.948 48.0083 137.481 48.025C137.031 48.0417 136.573 48.0583 136.106 48.075C135.656 48.0917 135.239 48.1 134.856 48.1C134.089 48.1 133.464 47.9833 132.981 47.75C132.514 47.5167 132.164 47.2 131.931 46.8C131.698 46.4 131.564 45.9417 131.531 45.425C131.514 44.8917 131.564 44.3333 131.681 43.75L132.681 39.125C132.831 38.3917 133.039 37.7833 133.306 37.3C133.589 36.8 133.906 36.4083 134.256 36.125C134.623 35.825 135.023 35.6167 135.456 35.5C135.889 35.3667 136.356 35.3 136.856 35.3C137.373 35.3 137.848 35.3333 138.281 35.4C138.714 35.4667 139.073 35.5417 139.356 35.625C139.656 35.7083 139.864 35.775 139.981 35.825C139.981 35.825 140.014 35.7583 140.081 35.625C140.164 35.475 140.256 35.3333 140.356 35.2L142.706 35.825ZM134.431 43.775C134.331 44.325 134.314 44.75 134.381 45.05C134.448 45.3333 134.598 45.5333 134.831 45.65C135.081 45.75 135.406 45.8 135.806 45.8C135.956 45.8 136.106 45.8 136.256 45.8C136.406 45.8 136.556 45.8 136.706 45.8C136.856 45.7833 137.006 45.7667 137.156 45.75C137.323 45.7333 137.489 45.7167 137.656 45.7L139.206 38.325C139.089 38.2583 138.948 38.2 138.781 38.15C138.614 38.0833 138.431 38.025 138.231 37.975C138.048 37.925 137.864 37.8917 137.681 37.875C137.514 37.8417 137.364 37.825 137.231 37.825C137.098 37.825 136.939 37.8333 136.756 37.85C136.589 37.8667 136.414 37.925 136.231 38.025C136.048 38.1083 135.881 38.2417 135.731 38.425C135.581 38.6083 135.473 38.8667 135.406 39.2L134.431 43.775Z" fill="white"/>
</g>
<defs>
<clipPath id="clip0_395_697">
<rect width="223" height="54" fill="white"/>
</clipPath>
</defs>
</svg>
