<svg width="636" height="251" viewBox="0 0 636 251" fill="none" xmlns="http://www.w3.org/2000/svg">
<g clip-path="url(#clip0_395_861)">
<path d="M623.648 177.592C647.216 199.583 612.69 203.078 598.938 204.174L345.415 219.785L162.535 234.071C142.39 235.676 131.042 229.121 110.679 214.334C69.9529 184.76 60.2708 180.156 41.1621 162.286C30.9251 152.713 48.684 143.787 70.2945 142.065L57.6993 143.348C71.4512 142.253 96.9556 133.848 75.1183 119.178C55.2605 105.838 28.0549 83.958 8.29241 70.6142C-1.45121 64.0357 2.75169 49.1648 30.2557 46.9742L350.485 21.4695C369.886 19.9243 385.675 16.3173 398.313 26.8718C423.592 47.9793 463.051 83.136 475.897 92.1061C489.782 104.156 455.848 75.7488 490.705 104.303C512.315 102.582 527.831 97.9593 550.925 116.258C574.019 134.557 587.558 143.92 623.648 177.592Z" fill="black" stroke="#552BEF" stroke-width="6"/>
<path d="M91.6088 71.8978C95.5566 71.5871 99.3044 71.8185 102.852 72.5918C106.4 73.3652 109.573 74.6029 112.372 76.3047C115.231 78.0019 117.489 80.0667 119.147 82.499C120.061 83.8001 120.638 84.9903 120.879 86.0698C121.12 87.1492 121.075 88.1367 120.744 89.0322C120.414 89.9278 119.841 90.7738 119.024 91.5703C120.807 91.9334 122.745 92.5817 124.84 93.5152C126.995 94.444 129.075 95.6533 131.081 97.143C133.045 98.5902 134.703 100.313 136.057 102.312C137.909 105.004 138.786 107.429 138.687 109.588C138.604 111.699 137.53 113.431 135.463 114.784C133.353 116.094 130.205 116.914 126.018 117.243L106.279 118.797L75.0999 73.1971L91.6088 71.8978ZM102.094 90.706C104.426 90.5224 106.201 90.1997 107.416 89.7379C108.65 89.229 109.32 88.5126 109.429 87.5887C109.495 86.6224 108.995 85.3804 107.929 83.8625C107.032 82.5143 105.963 81.4772 104.721 80.7512C103.538 80.0205 102.149 79.5349 100.554 79.2943C98.9583 79.0538 97.1437 79.0135 95.11 79.1736L89.9061 79.5831L97.7869 91.045L102.094 90.706ZM118.809 110.809C120.304 110.691 121.75 110.394 123.145 109.918C124.498 109.4 125.404 108.596 125.864 107.508C126.323 106.419 125.91 104.941 124.624 103.074C123.6 101.599 122.353 100.416 120.881 99.5246C119.409 98.6336 117.662 98.016 115.641 97.6717C113.679 97.3227 111.411 97.2494 108.839 97.4518L102.469 97.9532L111.631 111.374L118.809 110.809ZM128.666 82.1618C125.595 77.7354 124.968 74.2379 126.787 71.6692C128.564 69.0581 132.413 67.5195 138.334 67.0534C144.316 66.5827 149.836 67.5212 154.893 69.8691C160.011 72.2122 164.021 75.5121 166.922 79.7688L180.83 100.161C182.64 102.81 183.424 105.174 183.179 107.253C182.953 109.284 181.793 110.932 179.701 112.195C177.567 113.415 174.585 114.176 170.757 114.478C167.228 114.755 163.668 114.486 160.078 113.67C156.547 112.85 153.289 111.527 150.303 109.703C147.275 107.836 144.771 105.493 142.791 102.674L128.666 82.1618ZM152.345 101.099C153.284 102.489 154.391 103.661 155.666 104.613C156.941 105.565 158.392 106.275 160.021 106.742C161.666 107.161 163.476 107.293 165.45 107.138C167.364 106.987 168.793 106.577 169.737 105.908C170.681 105.239 171.152 104.355 171.15 103.257C171.149 102.159 170.67 100.938 169.714 99.5944L157.937 82.3981C156.651 80.5314 155.355 79.0087 154.047 77.8302C152.697 76.6093 151.187 75.7442 149.516 75.2349C147.803 74.6833 145.78 74.4992 143.447 74.6828C141.414 74.8429 139.946 75.2788 139.045 75.9904C138.203 76.6974 137.919 77.7037 138.192 79.0094C138.423 80.2726 139.182 81.8376 140.468 83.7043L152.345 101.099ZM224.978 109.455L198.735 71.0181L179.804 72.508L206.136 110.938L196.177 111.722L164.998 66.122L203.668 63.0786L234.937 108.671L224.978 109.455ZM230.82 60.9416C233.153 60.758 235.63 60.8148 238.25 61.1121C240.929 61.4046 243.62 62.0624 246.32 63.0855C249.021 64.1086 251.68 65.6384 254.297 67.675C256.872 69.6691 259.251 72.2736 261.433 75.4884C263.853 79.005 265.247 81.9158 265.617 84.2207C266.046 86.521 265.697 88.3333 264.569 89.6577C263.502 90.9774 261.954 91.9459 259.926 92.5632C257.897 93.1805 255.687 93.5832 253.294 93.7715L243.604 94.5342L252.399 107.297L242.44 108.081L211.261 62.481L230.82 60.9416ZM238.986 87.6896L244.908 87.2236C247.24 87.04 249.168 86.7738 250.69 86.4252C252.213 86.0765 253.284 85.5346 253.904 84.7993C254.541 84.0169 254.672 82.954 254.296 81.6106C253.921 80.2672 252.98 78.4878 251.474 76.2722C250.078 74.2311 248.718 72.6449 247.393 71.5135C246.025 70.3397 244.587 69.5146 243.079 69.0384C241.588 68.5151 239.95 68.2321 238.165 68.1895C236.38 68.1469 234.322 68.2174 231.989 68.401L226.067 68.867L238.986 87.6896ZM265.002 71.4319C261.931 67.0055 261.305 63.508 263.123 60.9393C264.9 58.3282 268.749 56.7896 274.671 56.3235C280.652 55.8528 286.172 56.7913 291.23 59.1392C296.347 61.4823 300.357 64.7823 303.259 69.0389L317.166 89.4312C318.977 92.0804 319.76 94.4443 319.516 96.523C319.289 98.5545 318.129 100.202 316.037 101.465C313.903 102.685 310.921 103.446 307.093 103.748C303.564 104.025 300.004 103.756 296.414 102.941C292.884 102.12 289.626 100.798 286.64 98.9731C283.611 97.1062 281.107 94.7633 279.127 91.9444L265.002 71.4319ZM288.681 90.3687C289.62 91.7593 290.727 92.9307 292.002 93.883C293.277 94.8353 294.729 95.5448 296.357 96.0116C298.002 96.4313 299.812 96.5634 301.786 96.4081C303.7 96.2575 305.129 95.8475 306.073 95.1783C307.017 94.5091 307.488 93.6253 307.487 92.527C307.485 91.4288 307.006 90.2079 306.05 88.8645L294.274 71.6682C292.988 69.8015 291.691 68.2788 290.383 67.1003C289.033 65.8794 287.523 65.0143 285.852 64.505C284.139 63.9534 282.116 63.7694 279.784 63.9529C277.75 64.113 276.282 64.5489 275.381 65.2605C274.539 65.9675 274.255 66.9738 274.529 68.2795C274.759 69.5427 275.518 71.1077 276.804 72.9744L288.681 90.3687ZM333.558 60.6133C332.142 60.3586 330.58 60.184 328.872 60.0896C327.225 59.9904 325.713 59.995 324.337 60.1033C322.064 60.2821 320.392 60.6426 319.321 61.1845C318.25 61.7265 317.72 62.4547 317.731 63.3691C317.742 64.2835 318.196 65.4148 319.093 66.763L333.686 88.1311C334.642 89.4746 335.733 90.5329 336.957 91.306C338.14 92.0367 339.49 92.5483 341.009 92.8407C342.484 93.0907 344.09 93.1474 345.824 93.0109C347.679 92.8649 349.435 92.5894 351.095 92.1842C352.755 91.779 354.124 91.3737 355.202 90.9685C356.341 90.5585 357.039 90.3205 357.295 90.2546L363.439 96.9791C361.307 97.8792 359.145 98.6214 356.955 99.2056C354.867 99.8276 352.657 100.23 350.324 100.414C346.615 100.706 343.077 100.458 339.709 99.6705C336.358 98.8359 333.33 97.5181 330.626 95.7173C327.922 93.9164 325.664 91.6914 323.854 89.0422L309.324 67.7377C307.362 64.8717 306.404 62.43 306.451 60.4126C306.456 58.3527 307.346 56.7266 309.122 55.5343C310.898 54.3419 313.43 53.6163 316.72 53.3574C318.874 53.1879 321.308 53.2023 324.022 53.4005C326.754 53.5516 329.459 53.9337 332.137 54.5467L333.558 60.6133ZM379.144 56.4763L374.436 49.6388L390.048 48.4102L421.227 94.01L411.268 94.7938L384.834 56.1658L379.144 56.4763ZM373.986 69.5135C375.661 69.3817 377.407 69.4503 379.225 69.7191C381.059 69.9408 382.867 70.3935 384.647 71.0772C386.428 71.7608 388.092 72.6825 389.639 73.8422C391.245 74.9972 392.615 76.3996 393.749 78.0495L398.558 85.0849C399.997 87.1685 400.707 88.9432 400.689 90.4091C400.671 91.8751 400.129 93.1076 399.063 94.1068C397.955 95.0635 396.375 95.8057 394.322 96.3335C392.328 96.8565 390.045 97.2192 387.473 97.4216C386.277 97.5158 384.94 97.5981 383.462 97.6687C381.984 97.7392 380.485 97.7886 378.964 97.8167C377.504 97.8401 376.133 97.8565 374.852 97.8658C373.673 97.9128 372.703 97.9433 371.943 97.9574C371.243 97.9667 370.893 97.9714 370.893 97.9714L339.713 52.3716L349.493 51.6019L362.322 70.4315L373.986 69.5135ZM387.723 84.7021L384.322 79.7525C383.907 79.1444 383.449 78.6541 382.948 78.2817C382.464 77.8621 381.936 77.5604 381.365 77.3765C380.812 77.1455 380.223 77.0088 379.6 76.9663C378.977 76.9238 378.336 76.9284 377.678 76.9802L367.36 77.7923L376.421 91.0147C376.421 91.0147 376.562 91.0265 376.843 91.0501C377.143 91.0266 377.523 91.0196 377.984 91.029C378.403 90.9961 378.872 90.982 379.393 90.9868C379.932 90.9444 380.431 90.9279 380.892 90.9374C381.371 90.8998 381.76 90.8692 382.059 90.8456C384.093 90.6856 385.64 90.4265 386.702 90.0684C387.763 89.7102 388.449 89.2672 388.76 88.7393C389.071 88.2114 389.117 87.6128 388.9 86.9435C388.682 86.2741 388.29 85.527 387.723 84.7021ZM155.673 149.234L165.722 148.443L187.511 180.297L190.037 146.529L199.996 145.745L231.175 191.345L221.216 192.129L200.113 161.251L196.901 194.043L186.852 194.833L155.673 149.234ZM240.782 155.716C237.711 151.289 237.085 147.792 238.904 145.223C240.68 142.612 244.529 141.073 250.451 140.607C256.432 140.137 261.952 141.075 267.01 143.423C272.127 145.766 276.137 149.066 279.039 153.323L292.946 173.715C294.757 176.364 295.54 178.728 295.296 180.807C295.069 182.838 293.91 184.486 291.817 185.749C289.683 186.969 286.702 187.73 282.873 188.032C279.344 188.309 275.785 188.04 272.194 187.224C268.664 186.404 265.406 185.081 262.42 183.257C259.392 181.39 256.887 179.047 254.907 176.228L240.782 155.716ZM264.462 174.653C265.401 176.043 266.507 177.215 267.782 178.167C269.057 179.119 270.509 179.829 272.137 180.296C273.783 180.715 275.592 180.847 277.566 180.692C279.48 180.541 280.909 180.131 281.853 179.462C282.797 178.793 283.268 177.909 283.267 176.811C283.265 175.713 282.787 174.492 281.83 173.148L270.054 155.952C268.768 154.085 267.471 152.563 266.163 151.384C264.814 150.163 263.303 149.298 261.633 148.789C259.919 148.237 257.897 148.053 255.564 148.237C253.53 148.397 252.062 148.833 251.161 149.544C250.319 150.251 250.035 151.258 250.309 152.563C250.54 153.827 251.298 155.392 252.584 157.258L264.462 174.653ZM302.481 145.3L328.75 183.666L318.791 184.45L292.612 146.076L279.512 147.107L274.602 139.874L310.85 137.021L315.76 144.254L302.481 145.3ZM332.351 135.329C336.299 135.018 340.047 135.249 343.594 136.023C347.142 136.796 350.316 138.034 353.114 139.736C355.973 141.433 358.231 143.498 359.889 145.93C360.803 147.231 361.38 148.421 361.621 149.501C361.862 150.58 361.817 151.568 361.486 152.463C361.156 153.359 360.583 154.205 359.766 155.001C361.549 155.364 363.487 156.013 365.582 156.946C367.737 157.875 369.817 159.084 371.823 160.574C373.787 162.021 375.445 163.744 376.799 165.743C378.651 168.434 379.528 170.86 379.429 173.019C379.347 175.13 378.272 176.862 376.205 178.215C374.095 179.525 370.947 180.345 366.76 180.674L347.021 182.228L315.842 136.628L332.351 135.329ZM342.836 154.137C345.168 153.953 346.943 153.631 348.159 153.169C349.392 152.66 350.063 151.944 350.171 151.02C350.237 150.053 349.737 148.811 348.671 147.293C347.774 145.945 346.705 144.908 345.463 144.182C344.28 143.451 342.891 142.966 341.296 142.725C339.7 142.485 337.886 142.444 335.852 142.605L330.648 143.014L338.529 154.476L342.836 154.137ZM359.551 174.24C361.046 174.122 362.492 173.825 363.887 173.349C365.24 172.831 366.146 172.027 366.606 170.939C367.065 169.85 366.652 168.372 365.366 166.505C364.343 165.03 363.095 163.847 361.623 162.956C360.151 162.065 358.405 161.447 356.383 161.103C354.421 160.754 352.154 160.68 349.581 160.883L343.211 161.384L352.373 174.805L359.551 174.24ZM392.496 178.649L361.317 133.049L391.374 130.684L396.31 137.846L376.123 139.435L384.004 150.897L396.296 149.93L398.94 156.93L388.622 157.742L397.911 171.289L417.92 169.715L422.373 176.298L392.496 178.649ZM423.572 135.769L449.84 174.136L439.881 174.92L413.702 136.546L400.603 137.577L395.692 130.344L431.94 127.491L436.851 134.724L423.572 135.769ZM476.453 131.196L471.745 124.358L487.356 123.13L518.536 168.729L508.576 169.513L482.143 130.885L476.453 131.196ZM471.295 144.233C472.97 144.101 474.716 144.17 476.533 144.439C478.368 144.66 480.176 145.113 481.956 145.797C483.737 146.48 485.4 147.402 486.947 148.562C488.554 149.717 489.924 151.119 491.058 152.769L495.867 159.804C497.305 161.888 498.016 163.663 497.997 165.129C497.979 166.594 497.438 167.827 496.372 168.826C495.264 169.783 493.683 170.525 491.63 171.053C489.637 171.576 487.354 171.939 484.782 172.141C483.586 172.235 482.249 172.318 480.771 172.388C479.293 172.459 477.793 172.508 476.273 172.536C474.812 172.56 473.442 172.576 472.16 172.585C470.982 172.632 470.012 172.663 469.252 172.677C468.551 172.686 468.201 172.691 468.201 172.691L437.022 127.091L446.802 126.321L459.631 145.151L471.295 144.233ZM485.032 159.421L481.631 154.472C481.216 153.864 480.758 153.374 480.257 153.001C479.772 152.582 479.245 152.28 478.674 152.096C478.12 151.865 477.532 151.728 476.909 151.686C476.285 151.643 475.645 151.648 474.987 151.7L464.669 152.512L473.73 165.734C473.73 165.734 473.87 165.746 474.152 165.77C474.451 165.746 474.831 165.739 475.292 165.748C475.711 165.716 476.181 165.701 476.702 165.706C477.24 165.664 477.74 165.647 478.201 165.657C478.68 165.619 479.068 165.589 479.368 165.565C481.401 165.405 482.949 165.146 484.01 164.788C485.072 164.43 485.758 163.987 486.069 163.459C486.379 162.931 486.426 162.332 486.208 161.663C485.991 160.994 485.598 160.246 485.032 159.421Z" fill="#DEF37B"/>
</g>
<defs>
<clipPath id="clip0_395_861">
<rect width="635" height="251" fill="white" transform="translate(0.5)"/>
</clipPath>
</defs>
</svg>
