<svg width="223" height="55" viewBox="0 0 223 55" fill="none" xmlns="http://www.w3.org/2000/svg">
<path d="M4.7501 1H7.5501L4.9501 13.225L14.3251 1H17.1001L13.3751 18.5H10.6001L13.1251 6.65L3.8251 18.5H1.0251L4.7501 1ZM30.5851 10.35L31.5101 6H34.2601L31.6101 18.5H28.8601L30.0351 12.975H26.3351L25.1601 18.5H22.3851L25.0351 6H27.8101L26.8851 10.35H30.5851ZM36.944 14.775C36.894 14.9917 36.8857 15.1917 36.919 15.375C36.9524 15.5417 37.0107 15.6917 37.094 15.825C37.194 15.9583 37.3274 16.0583 37.494 16.125C37.6607 16.1917 37.8524 16.225 38.069 16.225C38.519 16.225 39.0524 16.125 39.669 15.925C40.2857 15.725 40.8857 15.4917 41.469 15.225L41.969 17.625C41.3024 17.9917 40.569 18.2833 39.769 18.5C38.969 18.7167 38.194 18.825 37.444 18.825C36.8607 18.825 36.3274 18.75 35.844 18.6C35.3774 18.45 34.9857 18.225 34.669 17.925C34.369 17.625 34.1607 17.2417 34.044 16.775C33.944 16.3083 33.9607 15.7583 34.094 15.125L35.194 10C35.394 9.08333 35.744 8.30833 36.244 7.675C36.7607 7.04167 37.3857 6.55833 38.119 6.225C38.869 5.89167 39.694 5.725 40.594 5.725C41.494 5.725 42.244 5.88333 42.844 6.2C43.4607 6.51667 43.894 6.98333 44.144 7.6C44.394 8.21667 44.419 8.99167 44.219 9.925L43.394 13.825L37.094 14.15L36.944 14.775ZM41.294 10.675C41.3607 10.325 41.394 9.96667 41.394 9.6C41.394 9.23333 41.3024 8.93333 41.119 8.7C40.9524 8.45 40.619 8.34167 40.119 8.375C39.6024 8.39167 39.194 8.5 38.894 8.7C38.6107 8.88333 38.3857 9.14167 38.219 9.475C38.069 9.79167 37.9357 10.1833 37.819 10.65L37.619 11.625L41.119 11.4L41.294 10.675ZM51.5636 5.8C52.4969 5.8 53.2386 5.975 53.7886 6.325C54.3386 6.675 54.6969 7.2 54.8636 7.9C55.0469 8.6 55.0302 9.46667 54.8136 10.5L54.0886 13.875C53.7719 15.3917 53.1219 16.5917 52.1386 17.475C51.1552 18.3417 49.9469 18.775 48.5136 18.775C47.5802 18.775 46.7969 18.5917 46.1636 18.225C45.5469 17.8417 45.1136 17.2917 44.8636 16.575C44.6302 15.8417 44.6219 14.9417 44.8386 13.875L46.4136 6.5C46.5469 5.88333 46.7802 5.25833 47.1136 4.625C47.4636 3.99167 47.9219 3.41667 48.4886 2.9C49.0052 2.41667 49.6219 2.00833 50.3386 1.675C51.0552 1.34167 51.8719 1.11667 52.7886 1L53.0886 2.725C52.5219 2.84167 52.0052 3.00833 51.5386 3.225C51.0886 3.44167 50.6802 3.73333 50.3136 4.1C50.0469 4.38333 49.8219 4.70833 49.6386 5.075C49.4552 5.44167 49.3052 5.89167 49.1886 6.425L49.1386 6.65C49.3552 6.51667 49.5969 6.38333 49.8636 6.25C50.1469 6.11667 50.4302 6.00833 50.7136 5.925C51.0136 5.84167 51.2969 5.8 51.5636 5.8ZM50.6636 8.3C50.4636 8.3 50.2469 8.33333 50.0136 8.4C49.7802 8.45 49.5552 8.54167 49.3386 8.675C49.1219 8.79167 48.9302 8.95833 48.7636 9.175C48.6136 9.375 48.5052 9.61667 48.4386 9.9L47.5636 14.025C47.4802 14.4417 47.4636 14.8 47.5136 15.1C47.5636 15.3833 47.7052 15.6083 47.9386 15.775C48.1719 15.925 48.5219 16 48.9886 16C49.3886 16 49.7469 15.9167 50.0636 15.75C50.3802 15.5833 50.6386 15.3583 50.8386 15.075C51.0552 14.775 51.2052 14.425 51.2886 14.025L52.1136 10.125C52.1969 9.74167 52.1969 9.41667 52.1136 9.15C52.0302 8.86667 51.8636 8.65833 51.6136 8.525C51.3802 8.375 51.0636 8.3 50.6636 8.3ZM64.8575 13.875C64.5575 15.3417 63.9325 16.525 62.9825 17.425C62.0492 18.3083 60.8159 18.75 59.2825 18.75C58.1825 18.75 57.3325 18.525 56.7325 18.075C56.1492 17.6083 55.7742 17.0083 55.6075 16.275C55.4409 15.525 55.4409 14.725 55.6075 13.875L56.3325 10.575C56.5659 9.50833 56.9325 8.61667 57.4325 7.9C57.9492 7.18333 58.5909 6.64167 59.3575 6.275C60.1409 5.89167 61.0409 5.7 62.0575 5.7C63.5075 5.7 64.5409 6.13333 65.1575 7C65.7742 7.85 65.9159 9.04167 65.5825 10.575L64.8575 13.875ZM62.7825 10.425C62.8659 10.025 62.8742 9.68333 62.8075 9.4C62.7409 9.1 62.5909 8.875 62.3575 8.725C62.1409 8.55833 61.8325 8.475 61.4325 8.475C61.0325 8.475 60.6742 8.55 60.3575 8.7C60.0575 8.85 59.7992 9.06667 59.5825 9.35C59.3825 9.63333 59.2325 9.99167 59.1325 10.425L58.3575 14.075C58.2909 14.4083 58.2909 14.725 58.3575 15.025C58.4242 15.325 58.5742 15.5667 58.8075 15.75C59.0409 15.9333 59.3825 16.025 59.8325 16.025C60.2492 16.025 60.5992 15.9417 60.8825 15.775C61.1825 15.6083 61.4242 15.375 61.6075 15.075C61.7909 14.775 61.9242 14.4417 62.0075 14.075L62.7825 10.425ZM75.373 6H79.573L76.923 18.475H74.148L76.298 8.35H75.523C75.173 8.35 74.8563 8.39167 74.573 8.475C74.3063 8.55833 74.0563 8.70833 73.823 8.925C73.6063 9.14167 73.3896 9.45833 73.173 9.875L70.623 14.975C70.1563 15.8917 69.7063 16.625 69.273 17.175C68.8563 17.7083 68.3813 18.125 67.848 18.425C67.3313 18.7083 66.6896 18.9333 65.923 19.1L64.798 17.775C65.1646 17.5917 65.4813 17.425 65.748 17.275C66.0313 17.125 66.298 16.9083 66.548 16.625C66.8146 16.3417 67.098 15.9167 67.398 15.35L70.273 9.75C70.473 9.35 70.7146 8.93333 70.998 8.5C71.2813 8.06667 71.6146 7.65833 71.998 7.275C72.398 6.89167 72.873 6.58333 73.423 6.35C73.973 6.11667 74.623 6 75.373 6ZM86.0019 10.925C86.7519 10.925 87.4269 11.0583 88.0269 11.325C88.6435 11.575 89.1019 11.9833 89.4019 12.55C89.7019 13.1 89.7519 13.825 89.5519 14.725C89.4185 15.375 89.1269 16.0083 88.6769 16.625C88.2269 17.225 87.6352 17.725 86.9019 18.125C86.1685 18.525 85.3019 18.725 84.3019 18.725C83.9852 18.725 83.6019 18.7167 83.1519 18.7C82.7185 18.6833 82.2602 18.6583 81.7769 18.625C81.3102 18.5917 80.8685 18.5583 80.4519 18.525C80.0352 18.5083 79.6935 18.4917 79.4269 18.475C79.1769 18.4583 79.0519 18.45 79.0519 18.45L81.7019 6H84.4769L83.4269 10.925H86.0019ZM84.4269 15.9C84.8102 15.9 85.1519 15.8667 85.4519 15.8C85.7685 15.7167 86.0352 15.5833 86.2519 15.4C86.4685 15.2167 86.6102 14.9667 86.6769 14.65C86.7269 14.45 86.7269 14.275 86.6769 14.125C86.6269 13.975 86.5352 13.85 86.4019 13.75C86.2852 13.65 86.1269 13.5833 85.9269 13.55C85.7269 13.5 85.5019 13.475 85.2519 13.475H82.9019L82.4019 15.85C82.5852 15.85 82.7685 15.8583 82.9519 15.875C83.1519 15.875 83.3352 15.8833 83.5019 15.9C83.6852 15.9 83.8519 15.9 84.0019 15.9C84.1685 15.9 84.3102 15.9 84.4269 15.9ZM103.578 6H106.353L103.703 18.5H90.5532L93.2032 6H95.9782L93.9032 15.75H96.3032L98.3782 6H101.153L99.0782 15.75H101.503L103.578 6ZM115.834 13.875C115.534 15.3417 114.909 16.525 113.959 17.425C113.026 18.3083 111.792 18.75 110.259 18.75C109.159 18.75 108.309 18.525 107.709 18.075C107.126 17.6083 106.751 17.0083 106.584 16.275C106.417 15.525 106.417 14.725 106.584 13.875L107.309 10.575C107.542 9.50833 107.909 8.61667 108.409 7.9C108.926 7.18333 109.567 6.64167 110.334 6.275C111.117 5.89167 112.017 5.7 113.034 5.7C114.484 5.7 115.517 6.13333 116.134 7C116.751 7.85 116.892 9.04167 116.559 10.575L115.834 13.875ZM113.759 10.425C113.842 10.025 113.851 9.68333 113.784 9.4C113.717 9.1 113.567 8.875 113.334 8.725C113.117 8.55833 112.809 8.475 112.409 8.475C112.009 8.475 111.651 8.55 111.334 8.7C111.034 8.85 110.776 9.06667 110.559 9.35C110.359 9.63333 110.209 9.99167 110.109 10.425L109.334 14.075C109.267 14.4083 109.267 14.725 109.334 15.025C109.401 15.325 109.551 15.5667 109.784 15.75C110.017 15.9333 110.359 16.025 110.809 16.025C111.226 16.025 111.576 15.9417 111.859 15.775C112.159 15.6083 112.401 15.375 112.584 15.075C112.767 14.775 112.901 14.4417 112.984 14.075L113.759 10.425ZM120.049 14.775C119.999 14.9917 119.991 15.1917 120.024 15.375C120.058 15.5417 120.116 15.6917 120.199 15.825C120.299 15.9583 120.433 16.0583 120.599 16.125C120.766 16.1917 120.958 16.225 121.174 16.225C121.624 16.225 122.158 16.125 122.774 15.925C123.391 15.725 123.991 15.4917 124.574 15.225L125.074 17.625C124.408 17.9917 123.674 18.2833 122.874 18.5C122.074 18.7167 121.299 18.825 120.549 18.825C119.966 18.825 119.433 18.75 118.949 18.6C118.483 18.45 118.091 18.225 117.774 17.925C117.474 17.625 117.266 17.2417 117.149 16.775C117.049 16.3083 117.066 15.7583 117.199 15.125L118.299 10C118.499 9.08333 118.849 8.30833 119.349 7.675C119.866 7.04167 120.491 6.55833 121.224 6.225C121.974 5.89167 122.799 5.725 123.699 5.725C124.599 5.725 125.349 5.88333 125.949 6.2C126.566 6.51667 126.999 6.98333 127.249 7.6C127.499 8.21667 127.524 8.99167 127.324 9.925L126.499 13.825L120.199 14.15L120.049 14.775ZM124.399 10.675C124.466 10.325 124.499 9.96667 124.499 9.6C124.499 9.23333 124.408 8.93333 124.224 8.7C124.058 8.45 123.724 8.34167 123.224 8.375C122.708 8.39167 122.299 8.5 121.999 8.7C121.716 8.88333 121.491 9.14167 121.324 9.475C121.174 9.79167 121.041 10.1833 120.924 10.65L120.724 11.625L124.224 11.4L124.399 10.675ZM144.301 13.875C144.001 15.3417 143.376 16.525 142.426 17.425C141.492 18.3083 140.259 18.75 138.726 18.75C137.626 18.75 136.776 18.525 136.176 18.075C135.592 17.6083 135.217 17.0083 135.051 16.275C134.884 15.525 134.884 14.725 135.051 13.875L135.776 10.575C136.009 9.50833 136.376 8.61667 136.876 7.9C137.392 7.18333 138.034 6.64167 138.801 6.275C139.584 5.89167 140.484 5.7 141.501 5.7C142.951 5.7 143.984 6.13333 144.601 7C145.217 7.85 145.359 9.04167 145.026 10.575L144.301 13.875ZM142.226 10.425C142.309 10.025 142.317 9.68333 142.251 9.4C142.184 9.1 142.034 8.875 141.801 8.725C141.584 8.55833 141.276 8.475 140.876 8.475C140.476 8.475 140.117 8.55 139.801 8.7C139.501 8.85 139.242 9.06667 139.026 9.35C138.826 9.63333 138.676 9.99167 138.576 10.425L137.801 14.075C137.734 14.4083 137.734 14.725 137.801 15.025C137.867 15.325 138.017 15.5667 138.251 15.75C138.484 15.9333 138.826 16.025 139.276 16.025C139.692 16.025 140.042 15.9417 140.326 15.775C140.626 15.6083 140.867 15.375 141.051 15.075C141.234 14.775 141.367 14.4417 141.451 14.075L142.226 10.425ZM155.091 15.85C155.075 16.1167 155.108 16.3333 155.191 16.5C155.291 16.6667 155.433 16.8167 155.616 16.95L153.566 18.925C153.583 18.925 153.5 18.8833 153.316 18.8C153.15 18.7167 152.958 18.5833 152.741 18.4C152.541 18.2167 152.383 17.9667 152.266 17.65C152.15 17.3167 152.141 16.9 152.241 16.4L153.916 8.575H149.966L147.866 18.5H145.091L147.766 5.975H157.191L155.091 15.85ZM162.405 6L160.83 13.425L166.08 6H168.88L166.23 18.525H163.43L164.98 11.15L159.755 18.525H157.005L159.655 6H162.405ZM177.488 8.65C177.188 8.48333 176.846 8.35833 176.463 8.275C176.096 8.175 175.721 8.11667 175.338 8.1C174.888 8.1 174.463 8.175 174.063 8.325C173.663 8.45833 173.321 8.68333 173.038 9C172.754 9.3 172.563 9.7 172.463 10.2L171.638 14.125C171.554 14.5083 171.546 14.85 171.613 15.15C171.679 15.4333 171.804 15.6667 171.988 15.85C172.188 16.0333 172.438 16.175 172.738 16.275C173.038 16.3583 173.379 16.4 173.763 16.4C174.029 16.4 174.296 16.3917 174.563 16.375C174.846 16.3417 175.096 16.3083 175.313 16.275C175.529 16.225 175.704 16.1917 175.838 16.175C175.971 16.1417 176.038 16.125 176.038 16.125L176.063 18.375C175.513 18.5083 174.954 18.6167 174.388 18.7C173.821 18.7833 173.254 18.8167 172.688 18.8C171.738 18.7833 170.938 18.6083 170.288 18.275C169.638 17.9417 169.188 17.4333 168.938 16.75C168.688 16.0667 168.671 15.2 168.888 14.15L169.688 10.5C169.904 9.53333 170.246 8.68333 170.713 7.95C171.196 7.21667 171.829 6.65 172.613 6.25C173.413 5.85 174.388 5.66667 175.538 5.7C176.071 5.71667 176.588 5.8 177.088 5.95C177.604 6.1 178.088 6.29167 178.538 6.525L177.488 8.65ZM189.557 6.325C189.39 6.84167 189.248 7.30833 189.132 7.725C189.032 8.125 188.948 8.46667 188.882 8.75L186.832 18.375C186.832 18.375 186.715 18.3833 186.482 18.4C186.265 18.4167 185.965 18.4417 185.582 18.475C185.215 18.4917 184.798 18.5083 184.332 18.525C183.882 18.5417 183.423 18.5583 182.957 18.575C182.507 18.5917 182.09 18.6 181.707 18.6C180.94 18.6 180.315 18.4833 179.832 18.25C179.365 18.0167 179.015 17.7 178.782 17.3C178.548 16.9 178.415 16.4417 178.382 15.925C178.365 15.3917 178.415 14.8333 178.532 14.25L179.532 9.625C179.682 8.89167 179.89 8.28333 180.157 7.8C180.44 7.3 180.757 6.90833 181.107 6.625C181.473 6.325 181.873 6.11667 182.307 6C182.74 5.86667 183.207 5.8 183.707 5.8C184.223 5.8 184.698 5.83333 185.132 5.9C185.565 5.96667 185.923 6.04167 186.207 6.125C186.507 6.20833 186.715 6.275 186.832 6.325C186.832 6.325 186.865 6.25833 186.932 6.125C187.015 5.975 187.107 5.83333 187.207 5.7L189.557 6.325ZM181.282 14.275C181.182 14.825 181.165 15.25 181.232 15.55C181.298 15.8333 181.448 16.0333 181.682 16.15C181.932 16.25 182.257 16.3 182.657 16.3C182.807 16.3 182.957 16.3 183.107 16.3C183.257 16.3 183.407 16.3 183.557 16.3C183.707 16.2833 183.857 16.2667 184.007 16.25C184.173 16.2333 184.34 16.2167 184.507 16.2L186.057 8.825C185.94 8.75833 185.798 8.7 185.632 8.65C185.465 8.58333 185.282 8.525 185.082 8.475C184.898 8.425 184.715 8.39167 184.532 8.375C184.365 8.34167 184.215 8.325 184.082 8.325C183.948 8.325 183.79 8.33333 183.607 8.35C183.44 8.36667 183.265 8.425 183.082 8.525C182.898 8.60833 182.732 8.74167 182.582 8.925C182.432 9.10833 182.323 9.36667 182.257 9.7L181.282 14.275ZM197.235 10.35L198.16 6H200.91L198.26 18.5H195.51L196.685 12.975H192.985L191.81 18.5H189.035L191.685 6H194.46L193.535 10.35H197.235ZM205.569 6L203.994 13.425L209.244 6H212.044L209.394 18.525H206.594L208.144 11.15L202.919 18.525H200.169L202.819 6H205.569ZM214.752 14.775C214.702 14.9917 214.693 15.1917 214.727 15.375C214.76 15.5417 214.818 15.6917 214.902 15.825C215.002 15.9583 215.135 16.0583 215.302 16.125C215.468 16.1917 215.66 16.225 215.877 16.225C216.327 16.225 216.86 16.125 217.477 15.925C218.093 15.725 218.693 15.4917 219.277 15.225L219.777 17.625C219.11 17.9917 218.377 18.2833 217.577 18.5C216.777 18.7167 216.002 18.825 215.252 18.825C214.668 18.825 214.135 18.75 213.652 18.6C213.185 18.45 212.793 18.225 212.477 17.925C212.177 17.625 211.968 17.2417 211.852 16.775C211.752 16.3083 211.768 15.7583 211.902 15.125L213.002 10C213.202 9.08333 213.552 8.30833 214.052 7.675C214.568 7.04167 215.193 6.55833 215.927 6.225C216.677 5.89167 217.502 5.725 218.402 5.725C219.302 5.725 220.052 5.88333 220.652 6.2C221.268 6.51667 221.702 6.98333 221.952 7.6C222.202 8.21667 222.227 8.99167 222.027 9.925L221.202 13.825L214.902 14.15L214.752 14.775ZM219.102 10.675C219.168 10.325 219.202 9.96667 219.202 9.6C219.202 9.23333 219.11 8.93333 218.927 8.7C218.76 8.45 218.427 8.34167 217.927 8.375C217.41 8.39167 217.002 8.5 216.702 8.7C216.418 8.88333 216.193 9.14167 216.027 9.475C215.877 9.79167 215.743 10.1833 215.627 10.65L215.427 11.625L218.927 11.4L219.102 10.675ZM10.9751 45.85C10.9584 46.1167 10.9918 46.3333 11.0751 46.5C11.1751 46.6667 11.3168 46.8167 11.5001 46.95L9.4501 48.925C9.46677 48.925 9.38343 48.8833 9.2001 48.8C9.03343 48.7167 8.84177 48.5833 8.6251 48.4C8.4251 48.2167 8.26677 47.9667 8.1501 47.65C8.03343 47.3167 8.0251 46.9 8.1251 46.4L9.8001 38.575H5.8501L3.7501 48.5H0.975098L3.6501 35.975H13.0751L10.9751 45.85ZM22.9642 44.225C22.7642 45.2417 22.4225 46.1 21.9392 46.8C21.4725 47.5 20.8892 48.0333 20.1892 48.4C19.4892 48.75 18.6725 48.925 17.7392 48.925C17.5392 48.925 17.3392 48.9083 17.1392 48.875C16.9392 48.8417 16.7475 48.8 16.5642 48.75C16.3808 48.7 16.2058 48.6333 16.0392 48.55C15.8892 48.4833 15.7475 48.4083 15.6142 48.325L14.4392 53.9L11.8142 53.275L14.4892 40.7C14.8225 39.1167 15.4808 37.9083 16.4642 37.075C17.4642 36.225 18.7225 35.8 20.2392 35.8C21.6725 35.8 22.6975 36.2333 23.3142 37.1C23.9308 37.9667 24.0725 39.1667 23.7392 40.7L22.9642 44.225ZM21.0142 40.55C21.0975 40.15 21.0975 39.8083 21.0142 39.525C20.9308 39.225 20.7642 38.9917 20.5142 38.825C20.2642 38.6583 19.9392 38.575 19.5392 38.575C19.1558 38.575 18.8058 38.65 18.4892 38.8C18.1725 38.95 17.9142 39.175 17.7142 39.475C17.5142 39.7583 17.3642 40.1167 17.2642 40.55L16.2892 45.125C16.2392 45.3417 16.2642 45.5333 16.3642 45.7C16.4808 45.8667 16.6392 46.0083 16.8392 46.125C17.0392 46.2417 17.2475 46.325 17.4642 46.375C17.6975 46.425 17.9142 46.45 18.1142 46.45C18.4808 46.45 18.7975 46.375 19.0642 46.225C19.3475 46.075 19.5808 45.8667 19.7642 45.6C19.9475 45.3167 20.0725 44.9833 20.1392 44.6L21.0142 40.55ZM27.4226 44.775C27.3726 44.9917 27.3642 45.1917 27.3976 45.375C27.4309 45.5417 27.4892 45.6917 27.5726 45.825C27.6726 45.9583 27.8059 46.0583 27.9726 46.125C28.1392 46.1917 28.3309 46.225 28.5476 46.225C28.9976 46.225 29.5309 46.125 30.1476 45.925C30.7642 45.725 31.3642 45.4917 31.9476 45.225L32.4476 47.625C31.7809 47.9917 31.0476 48.2833 30.2476 48.5C29.4476 48.7167 28.6726 48.825 27.9226 48.825C27.3392 48.825 26.8059 48.75 26.3226 48.6C25.8559 48.45 25.4642 48.225 25.1476 47.925C24.8476 47.625 24.6392 47.2417 24.5226 46.775C24.4226 46.3083 24.4392 45.7583 24.5726 45.125L25.6726 40C25.8726 39.0833 26.2226 38.3083 26.7226 37.675C27.2392 37.0417 27.8642 36.5583 28.5976 36.225C29.3476 35.8917 30.1726 35.725 31.0726 35.725C31.9726 35.725 32.7226 35.8833 33.3226 36.2C33.9392 36.5167 34.3726 36.9833 34.6226 37.6C34.8726 38.2167 34.8976 38.9917 34.6976 39.925L33.8726 43.825L27.5726 44.15L27.4226 44.775ZM31.7726 40.675C31.8392 40.325 31.8726 39.9667 31.8726 39.6C31.8726 39.2333 31.7809 38.9333 31.5976 38.7C31.4309 38.45 31.0976 38.3417 30.5976 38.375C30.0809 38.3917 29.6726 38.5 29.3726 38.7C29.0892 38.8833 28.8642 39.1417 28.6976 39.475C28.5476 39.7917 28.4142 40.1833 28.2976 40.65L28.0976 41.625L31.5976 41.4L31.7726 40.675ZM40.0421 36L38.4671 43.425L43.7171 36H46.5171L43.8671 48.525H41.0671L42.6171 41.15L37.3921 48.525H34.6421L37.2921 36H40.0421ZM58.1743 36H61.2243L58.5743 48.525H55.8243L57.2243 41.9L53.2243 48.525H51.1493L49.8993 41.9L48.4993 48.525H45.7243L48.3743 36H51.4743L52.9493 44.8L58.1743 36ZM61.621 53.725L64.471 48.5L62.596 35.975H65.246L66.546 44.775L71.296 35.975H73.946L64.321 53.725H61.621ZM85.4228 45.75H89.5228L88.2728 51.625H85.9728L86.1228 48.5H84.8478L85.4228 45.75ZM86.0978 36H88.8728L86.2228 48.5H73.0728L75.7228 36H78.4978L76.4228 45.75H78.8228L80.8978 36H83.6728L81.5978 45.75H84.0228L86.0978 36ZM93.8776 44.775C93.8276 44.9917 93.8193 45.1917 93.8526 45.375C93.886 45.5417 93.9443 45.6917 94.0276 45.825C94.1276 45.9583 94.261 46.0583 94.4276 46.125C94.5943 46.1917 94.786 46.225 95.0026 46.225C95.4526 46.225 95.986 46.125 96.6026 45.925C97.2193 45.725 97.8193 45.4917 98.4026 45.225L98.9026 47.625C98.236 47.9917 97.5026 48.2833 96.7026 48.5C95.9026 48.7167 95.1276 48.825 94.3776 48.825C93.7943 48.825 93.261 48.75 92.7776 48.6C92.311 48.45 91.9193 48.225 91.6026 47.925C91.3026 47.625 91.0943 47.2417 90.9776 46.775C90.8776 46.3083 90.8943 45.7583 91.0276 45.125L92.1276 40C92.3276 39.0833 92.6776 38.3083 93.1776 37.675C93.6943 37.0417 94.3193 36.5583 95.0526 36.225C95.8026 35.8917 96.6276 35.725 97.5276 35.725C98.4276 35.725 99.1776 35.8833 99.7776 36.2C100.394 36.5167 100.828 36.9833 101.078 37.6C101.328 38.2167 101.353 38.9917 101.153 39.925L100.328 43.825L94.0276 44.15L93.8776 44.775ZM98.2276 40.675C98.2943 40.325 98.3276 39.9667 98.3276 39.6C98.3276 39.2333 98.236 38.9333 98.0526 38.7C97.886 38.45 97.5526 38.3417 97.0526 38.375C96.536 38.3917 96.1276 38.5 95.8276 38.7C95.5443 38.8833 95.3193 39.1417 95.1526 39.475C95.0026 39.7917 94.8693 40.1833 94.7526 40.65L94.5526 41.625L98.0526 41.4L98.2276 40.675ZM110.422 38.65C110.122 38.4833 109.78 38.3583 109.397 38.275C109.03 38.175 108.655 38.1167 108.272 38.1C107.822 38.1 107.397 38.175 106.997 38.325C106.597 38.4583 106.255 38.6833 105.972 39C105.689 39.3 105.497 39.7 105.397 40.2L104.572 44.125C104.489 44.5083 104.48 44.85 104.547 45.15C104.614 45.4333 104.739 45.6667 104.922 45.85C105.122 46.0333 105.372 46.175 105.672 46.275C105.972 46.3583 106.314 46.4 106.697 46.4C106.964 46.4 107.23 46.3917 107.497 46.375C107.78 46.3417 108.03 46.3083 108.247 46.275C108.464 46.225 108.639 46.1917 108.772 46.175C108.905 46.1417 108.972 46.125 108.972 46.125L108.997 48.375C108.447 48.5083 107.889 48.6167 107.322 48.7C106.755 48.7833 106.189 48.8167 105.622 48.8C104.672 48.7833 103.872 48.6083 103.222 48.275C102.572 47.9417 102.122 47.4333 101.872 46.75C101.622 46.0667 101.605 45.2 101.822 44.15L102.622 40.5C102.839 39.5333 103.18 38.6833 103.647 37.95C104.13 37.2167 104.764 36.65 105.547 36.25C106.347 35.85 107.322 35.6667 108.472 35.7C109.005 35.7167 109.522 35.8 110.022 35.95C110.539 36.1 111.022 36.2917 111.472 36.525L110.422 38.65ZM116.291 44.8C116.208 45.2167 116.183 45.575 116.216 45.875C116.266 46.175 116.383 46.425 116.566 46.625C116.766 46.8083 117.041 46.9667 117.391 47.1L115.791 49C115.325 48.8667 114.916 48.6917 114.566 48.475C114.233 48.2417 113.966 47.9667 113.766 47.65C113.566 47.3167 113.441 46.9417 113.391 46.525C113.341 46.1083 113.366 45.6583 113.466 45.175L114.866 38.575H112.541L113.091 35.975H120.666L120.116 38.575H117.616L116.291 44.8ZM129.05 41.575C129.5 41.9083 129.8 42.3583 129.95 42.925C130.117 43.4917 130.133 44.1083 130 44.775C129.867 45.425 129.575 46.0583 129.125 46.675C128.675 47.275 128.083 47.775 127.35 48.175C126.617 48.575 125.75 48.775 124.75 48.775C124.433 48.775 124.058 48.7667 123.625 48.75C123.192 48.7333 122.742 48.7083 122.275 48.675C121.808 48.6417 121.375 48.6083 120.975 48.575C120.575 48.5583 120.25 48.5417 120 48.525C119.75 48.5083 119.625 48.5 119.625 48.5L122.275 35.975C122.275 35.975 122.383 35.9667 122.6 35.95C122.833 35.9167 123.158 35.8833 123.575 35.85C124.008 35.8 124.517 35.7667 125.1 35.75C125.683 35.7167 126.333 35.7 127.05 35.7C127.55 35.7 128.033 35.7583 128.5 35.875C128.967 35.9917 129.375 36.1667 129.725 36.4C130.092 36.6333 130.367 36.9417 130.55 37.325C130.75 37.6917 130.833 38.1417 130.8 38.675C130.767 39.1917 130.583 39.725 130.25 40.275C129.933 40.8083 129.533 41.2417 129.05 41.575ZM126.6 38.125C126.45 38.125 126.292 38.125 126.125 38.125C125.958 38.125 125.783 38.1333 125.6 38.15C125.433 38.15 125.258 38.1583 125.075 38.175C124.908 38.175 124.742 38.175 124.575 38.175L123.975 40.95H125.25C125.85 40.95 126.333 40.875 126.7 40.725C127.067 40.575 127.342 40.3833 127.525 40.15C127.725 39.9167 127.85 39.6833 127.9 39.45C127.95 39.2333 127.942 39.05 127.875 38.9C127.808 38.7333 127.708 38.5917 127.575 38.475C127.458 38.3583 127.308 38.275 127.125 38.225C126.958 38.1583 126.783 38.125 126.6 38.125ZM124.875 45.95C125.258 45.95 125.617 45.9083 125.95 45.825C126.283 45.7417 126.567 45.6083 126.8 45.425C127.033 45.225 127.183 44.9667 127.25 44.65C127.3 44.45 127.292 44.2667 127.225 44.1C127.175 43.9333 127.075 43.8 126.925 43.7C126.792 43.5833 126.617 43.5 126.4 43.45C126.2 43.3833 125.975 43.35 125.725 43.35H123.475L122.925 45.9C123.108 45.9 123.292 45.9083 123.475 45.925C123.658 45.925 123.833 45.9333 124 45.95C124.167 45.95 124.325 45.95 124.475 45.95C124.625 45.95 124.758 45.95 124.875 45.95ZM142.706 36.325C142.539 36.8417 142.398 37.3083 142.281 37.725C142.181 38.125 142.098 38.4667 142.031 38.75L139.981 48.375C139.981 48.375 139.864 48.3833 139.631 48.4C139.414 48.4167 139.114 48.4417 138.731 48.475C138.364 48.4917 137.948 48.5083 137.481 48.525C137.031 48.5417 136.573 48.5583 136.106 48.575C135.656 48.5917 135.239 48.6 134.856 48.6C134.089 48.6 133.464 48.4833 132.981 48.25C132.514 48.0167 132.164 47.7 131.931 47.3C131.698 46.9 131.564 46.4417 131.531 45.925C131.514 45.3917 131.564 44.8333 131.681 44.25L132.681 39.625C132.831 38.8917 133.039 38.2833 133.306 37.8C133.589 37.3 133.906 36.9083 134.256 36.625C134.623 36.325 135.023 36.1167 135.456 36C135.889 35.8667 136.356 35.8 136.856 35.8C137.373 35.8 137.848 35.8333 138.281 35.9C138.714 35.9667 139.073 36.0417 139.356 36.125C139.656 36.2083 139.864 36.275 139.981 36.325C139.981 36.325 140.014 36.2583 140.081 36.125C140.164 35.975 140.256 35.8333 140.356 35.7L142.706 36.325ZM134.431 44.275C134.331 44.825 134.314 45.25 134.381 45.55C134.448 45.8333 134.598 46.0333 134.831 46.15C135.081 46.25 135.406 46.3 135.806 46.3C135.956 46.3 136.106 46.3 136.256 46.3C136.406 46.3 136.556 46.3 136.706 46.3C136.856 46.2833 137.006 46.2667 137.156 46.25C137.323 46.2333 137.489 46.2167 137.656 46.2L139.206 38.825C139.089 38.7583 138.948 38.7 138.781 38.65C138.614 38.5833 138.431 38.525 138.231 38.475C138.048 38.425 137.864 38.3917 137.681 38.375C137.514 38.3417 137.364 38.325 137.231 38.325C137.098 38.325 136.939 38.3333 136.756 38.35C136.589 38.3667 136.414 38.425 136.231 38.525C136.048 38.6083 135.881 38.7417 135.731 38.925C135.581 39.1083 135.473 39.3667 135.406 39.7L134.431 44.275Z" fill="white"/>
</svg>
