<svg width="131" height="24" viewBox="0 0 131 24" fill="none" xmlns="http://www.w3.org/2000/svg">
<g clip-path="url(#clip0_395_662)">
<path d="M13.5252 8.64746H15.9402C16.6869 8.64746 17.3098 8.53915 17.8091 8.32254C18.2935 8.08788 18.5917 7.75393 18.7035 7.3207C18.8387 6.88748 18.7439 6.37302 18.4194 5.77734C18.2403 5.41631 17.9975 5.09139 17.691 4.80257C17.4077 4.51376 17.0681 4.27007 16.6722 4.0715C16.2614 3.85489 15.8133 3.69243 15.328 3.58412C14.8659 3.47582 14.3549 3.42166 13.7949 3.42166C13.4449 3.42166 13.0747 3.43972 12.6843 3.47582C12.3172 3.51192 11.9648 3.56607 11.6273 3.63828C11.2898 3.71048 11.0021 3.80074 10.7641 3.90904L8.42749 1.5263C8.88007 1.30968 9.33888 1.12917 9.80394 0.984763C10.2923 0.840354 10.7943 0.741073 11.3099 0.68692C11.8341 0.614715 12.3762 0.578613 12.9362 0.578613C14.2196 0.578613 15.4746 0.786201 16.7013 1.20138C17.9366 1.5985 19.044 2.16711 20.0235 2.90721C21.0116 3.62925 21.7691 4.46863 22.2961 5.42534C22.6058 6.00297 22.7885 6.55353 22.8439 7.07701C22.9079 7.58245 22.8108 8.03372 22.5528 8.43085C22.3033 8.80992 21.8663 9.11679 21.2418 9.35146C22.7804 9.74858 24.1391 10.3533 25.3177 11.1656C26.505 11.9598 27.4158 12.9436 28.0501 14.1169C28.4611 14.8751 28.694 15.6152 28.7487 16.3372C28.812 17.0412 28.6485 17.682 28.2583 18.2597C27.8533 18.8193 27.173 19.2705 26.2172 19.6135C25.2615 19.9565 23.9669 20.128 22.3336 20.128C21.6336 20.128 20.92 20.0828 20.1927 19.9926C19.4654 19.9023 18.8008 19.803 18.1987 19.6947C17.6053 19.5684 17.1199 19.4601 16.7426 19.3698C16.3887 19.2796 16.2117 19.2344 16.2117 19.2344L15.2481 16.3914C15.2481 16.3914 15.4134 16.4365 15.7439 16.5268C16.0979 16.617 16.5482 16.7253 17.0951 16.8517C17.6505 16.96 18.2451 17.0593 18.879 17.1495C19.513 17.2398 20.1216 17.2849 20.7049 17.2849C21.7549 17.2849 22.5614 17.1586 23.1244 16.9058C23.6874 16.6531 24.0291 16.3011 24.1495 15.8499C24.2551 15.3805 24.1413 14.857 23.8082 14.2794C23.5848 13.8642 23.3093 13.4852 22.9817 13.1422C22.6775 12.7992 22.3242 12.5104 21.922 12.2757C21.505 12.023 21.0581 11.8335 20.5813 11.7071C20.0897 11.5627 19.5639 11.4905 19.0039 11.4905H16.1339L13.5252 8.64746ZM29.7108 0.849379C31.2508 0.849379 32.6925 1.05697 34.0359 1.47214C35.3793 1.88732 36.5598 2.47398 37.5775 3.23213C38.6184 3.99027 39.4129 4.87478 39.9609 5.88564C40.2644 6.42717 40.442 6.91455 40.4935 7.34778C40.545 7.78101 40.4895 8.16911 40.3271 8.51208C40.1647 8.85505 39.9101 9.17094 39.5634 9.45976C40.2393 9.65832 40.9647 9.97422 41.7396 10.4074C42.5378 10.8407 43.2963 11.3822 44.0152 12.032C44.7194 12.6638 45.2949 13.3949 45.7416 14.2253C46.355 15.3444 46.6008 16.3282 46.479 17.1766C46.3658 18.007 45.8831 18.6568 45.0308 19.1261C44.1638 19.5774 42.9136 19.803 41.2803 19.803H33.5803L23.2708 0.849379H29.7108ZM33.0437 8.59331C33.9537 8.59331 34.6529 8.5211 35.1412 8.3767C35.6382 8.21423 35.9255 7.95249 36.0031 7.59147C36.0659 7.2124 35.9203 6.70697 35.5661 6.07518C35.2711 5.51559 34.8972 5.07334 34.4444 4.74842C34.015 4.4235 33.4961 4.18884 32.8878 4.04443C32.2795 3.90002 31.5787 3.82781 30.7854 3.82781H28.7554L31.3637 8.59331H33.0437ZM38.7381 17.0412C39.3215 17.0412 39.8923 16.969 40.4507 16.8246C40.9943 16.6622 41.3761 16.3733 41.596 15.9582C41.816 15.543 41.7131 14.9473 41.2873 14.1711C40.9479 13.5574 40.5106 13.0519 39.9753 12.6548C39.4401 12.2577 38.7878 11.9598 38.0185 11.7613C37.2725 11.5627 36.3978 11.4634 35.3945 11.4634H32.9095L35.9381 17.0412H38.7381ZM51.3195 19.803L41.0101 0.849379H52.7351L54.3696 3.82781H46.4946L49.1029 8.59331H53.8979L54.6516 11.4364H50.6266L53.6996 17.0683H61.5046L62.9745 19.803H51.3195ZM61.7869 8.64746H64.2019C64.9486 8.64746 65.5716 8.53915 66.0708 8.32254C66.5553 8.08788 66.8534 7.75393 66.9652 7.3207C67.1004 6.88748 67.0057 6.37302 66.6811 5.77734C66.502 5.41631 66.2592 5.09139 65.9527 4.80257C65.6695 4.51376 65.3299 4.27007 64.9339 4.0715C64.5231 3.85489 64.0751 3.69243 63.5897 3.58412C63.1276 3.47582 62.6166 3.42166 62.0566 3.42166C61.7066 3.42166 61.3364 3.43972 60.946 3.47582C60.5789 3.51192 60.2266 3.56607 59.889 3.63828C59.5515 3.71048 59.2638 3.80074 59.0258 3.90904L56.6892 1.5263C57.1417 1.30968 57.6006 1.12917 58.0656 0.984763C58.554 0.840354 59.056 0.741073 59.5717 0.68692C60.0959 0.614715 60.6379 0.578613 61.1979 0.578613C62.4813 0.578613 63.7363 0.786201 64.963 1.20138C66.1983 1.5985 67.3057 2.16711 68.2852 2.90721C69.2733 3.62925 70.0308 4.46863 70.5578 5.42534C70.8676 6.00297 71.0502 6.55353 71.1056 7.07701C71.1696 7.58245 71.0726 8.03372 70.8145 8.43085C70.565 8.80992 70.128 9.11679 69.5036 9.35146C71.0422 9.74858 72.4008 10.3533 73.5795 11.1656C74.7667 11.9598 75.6775 12.9436 76.3118 14.1169C76.7228 14.8751 76.9557 15.6152 77.0104 16.3372C77.0737 17.0412 76.9102 17.682 76.52 18.2597C76.1151 18.8193 75.4347 19.2705 74.4789 19.6135C73.5232 19.9565 72.2286 20.128 70.5953 20.128C69.8953 20.128 69.1817 20.0828 68.4544 19.9926C67.7272 19.9023 67.0625 19.803 66.4605 19.6947C65.867 19.5684 65.3816 19.4601 65.0043 19.3698C64.6504 19.2796 64.4734 19.2344 64.4734 19.2344L63.5098 16.3914C63.5098 16.3914 63.6751 16.4365 64.0057 16.5268C64.3596 16.617 64.81 16.7253 65.3568 16.8517C65.9122 16.96 66.5068 17.0593 67.1408 17.1495C67.7747 17.2398 68.3833 17.2849 68.9666 17.2849C70.0166 17.2849 70.8231 17.1586 71.3862 16.9058C71.9492 16.6531 72.2908 16.3011 72.4112 15.8499C72.5168 15.3805 72.403 14.857 72.0699 14.2794C71.8465 13.8642 71.571 13.4852 71.2434 13.1422C70.9392 12.7992 70.586 12.5104 70.1838 12.2757C69.7668 12.023 69.3198 11.8335 68.843 11.7071C68.3514 11.5627 67.8256 11.4905 67.2656 11.4905H64.3956L61.7869 8.64746ZM96.9246 16.8517H99.0946L102.253 22.6732H99.0328L96.7742 19.8301H84.8392L85.6278 22.6732H82.4078L79.2496 16.8517H81.2096L79.569 4.72134C79.5175 4.28812 79.4819 3.84587 79.4623 3.39459C79.4512 2.92526 79.5471 2.50106 79.7499 2.12198C79.938 1.72486 80.3092 1.40897 80.8637 1.1743C81.4181 0.939635 82.2204 0.822303 83.2704 0.822303H88.2404L96.9246 16.8517ZM93.0396 16.8517L85.7401 3.36751H85.2501C84.8767 3.36751 84.5446 3.40361 84.2538 3.47582C83.9715 3.52997 83.7557 3.66535 83.6065 3.88197C83.4658 4.08053 83.4286 4.40545 83.4949 4.85673L85.3046 16.8517H93.0396ZM107.316 3.69243L105.757 0.849379H111.847L122.157 19.803H118.272L109.53 3.74658L107.316 3.69243ZM104.816 8.67454C105.47 8.67454 106.143 8.75577 106.836 8.91823C107.538 9.06264 108.22 9.2973 108.883 9.62222C109.545 9.94714 110.154 10.3623 110.708 10.8677C111.285 11.3732 111.761 11.9689 112.137 12.6548L113.727 15.5791C114.203 16.4455 114.41 17.1676 114.346 17.7452C114.282 18.3229 114.025 18.7922 113.574 19.1532C113.109 19.4962 112.468 19.7399 111.653 19.8843C110.861 20.0287 109.964 20.1009 108.96 20.1009C108.494 20.1009 107.973 20.0919 107.398 20.0738C106.824 20.0558 106.241 20.0287 105.652 19.9926C105.086 19.9565 104.554 19.9204 104.058 19.8843C103.6 19.8662 103.223 19.8482 102.929 19.8301C102.657 19.8121 102.522 19.803 102.522 19.803L92.2121 0.849379H96.0271L100.266 8.67454H104.816ZM109.548 15.0917L108.422 13.0339C108.285 12.7812 108.127 12.5736 107.947 12.4111C107.776 12.2306 107.583 12.0952 107.369 12.005C107.164 11.8967 106.941 11.8245 106.702 11.7884C106.462 11.7523 106.214 11.7342 105.958 11.7342H101.933L104.93 17.2308C104.93 17.2308 104.984 17.2398 105.092 17.2578C105.208 17.2578 105.356 17.2669 105.534 17.2849C105.697 17.2849 105.88 17.2939 106.081 17.312C106.291 17.312 106.485 17.321 106.663 17.3391C106.85 17.3391 107.002 17.3391 107.118 17.3391C107.912 17.3391 108.521 17.2849 108.945 17.1766C109.37 17.0683 109.653 16.9149 109.793 16.7163C109.934 16.5177 109.975 16.2831 109.917 16.0123C109.858 15.7415 109.735 15.4347 109.548 15.0917Z" fill="white"/>
</g>
<defs>
<clipPath id="clip0_395_662">
<rect width="130" height="23" fill="white" transform="translate(0.5 0.5)"/>
</clipPath>
</defs>
</svg>
