<svg width="381" height="49" viewBox="0 0 381 49" fill="none" xmlns="http://www.w3.org/2000/svg">
<g clip-path="url(#clip0_395_749)">
<path d="M9.1617 0.403809C9.7597 0.403809 10.3347 0.488143 10.8867 0.65681C11.454 0.825476 11.937 1.11681 12.3357 1.53081C12.7343 1.94481 13.0027 2.52747 13.1407 3.27881C13.2787 4.01481 13.225 4.95014 12.9797 6.08481C12.719 7.32681 12.3587 8.33881 11.8987 9.12081C11.454 9.90281 10.9403 10.5008 10.3577 10.9148C9.79037 11.3288 9.19237 11.6125 8.5637 11.7658C7.93503 11.9191 7.31403 11.9958 6.7007 11.9958H4.2167L3.2737 16.5038H0.720703L4.1477 0.403809H9.1617ZM4.7457 9.58081H6.2637C6.8617 9.58081 7.38303 9.54247 7.8277 9.46581C8.27237 9.38914 8.6557 9.23581 8.9777 9.00581C9.31503 8.76047 9.5987 8.40781 9.8287 7.94781C10.0587 7.48781 10.258 6.86681 10.4267 6.08481C10.58 5.36414 10.6337 4.79681 10.5877 4.38281C10.5417 3.95347 10.396 3.63914 10.1507 3.43981C9.9207 3.22514 9.5987 3.08714 9.1847 3.02581C8.7707 2.96447 8.2647 2.93381 7.6667 2.93381H6.1487L4.7457 9.58081ZM21.5998 12.2488C21.3238 13.5981 20.7488 14.6868 19.8748 15.5148C19.0162 16.3275 17.8815 16.7338 16.4708 16.7338C15.4588 16.7338 14.6768 16.5268 14.1248 16.1128C13.5882 15.6835 13.2432 15.1315 13.0898 14.4568C12.9365 13.7668 12.9365 13.0308 13.0898 12.2488L13.7568 9.21281C13.9715 8.23147 14.3088 7.41114 14.7688 6.75181C15.2442 6.09247 15.8345 5.59414 16.5398 5.25681C17.2605 4.90414 18.0885 4.72781 19.0238 4.72781C20.3578 4.72781 21.3085 5.12647 21.8758 5.92381C22.4432 6.70581 22.5735 7.80214 22.2668 9.21281L21.5998 12.2488ZM19.6908 9.07481C19.7675 8.70681 19.7752 8.39247 19.7138 8.13181C19.6525 7.85581 19.5145 7.64881 19.2998 7.51081C19.1005 7.35747 18.8168 7.28081 18.4488 7.28081C18.0808 7.28081 17.7512 7.34981 17.4598 7.48781C17.1838 7.62581 16.9462 7.82514 16.7468 8.08581C16.5628 8.34647 16.4248 8.67614 16.3328 9.07481L15.6198 12.4328C15.5585 12.7395 15.5585 13.0308 15.6198 13.3068C15.6812 13.5828 15.8192 13.8051 16.0338 13.9738C16.2485 14.1425 16.5628 14.2268 16.9768 14.2268C17.3602 14.2268 17.6822 14.1501 17.9428 13.9968C18.2188 13.8435 18.4412 13.6288 18.6098 13.3528C18.7785 13.0768 18.9012 12.7701 18.9778 12.4328L19.6908 9.07481ZM30.906 7.44181C30.63 7.28847 30.3157 7.17347 29.963 7.09681C29.6257 7.00481 29.2807 6.95114 28.928 6.93581C28.514 6.93581 28.123 7.00481 27.755 7.14281C27.387 7.26547 27.0727 7.47247 26.812 7.76381C26.5514 8.03981 26.375 8.40781 26.283 8.86781L25.524 12.4788C25.4474 12.8315 25.4397 13.1458 25.501 13.4218C25.5624 13.6825 25.6774 13.8971 25.846 14.0658C26.03 14.2345 26.26 14.3648 26.536 14.4568C26.812 14.5335 27.1264 14.5718 27.479 14.5718C27.7244 14.5718 27.9697 14.5641 28.215 14.5488C28.4757 14.5181 28.7057 14.4875 28.905 14.4568C29.1044 14.4108 29.2654 14.3801 29.388 14.3648C29.5107 14.3341 29.572 14.3188 29.572 14.3188L29.595 16.3888C29.089 16.5115 28.5754 16.6111 28.054 16.6878C27.5327 16.7645 27.0114 16.7951 26.49 16.7798C25.616 16.7645 24.88 16.6035 24.282 16.2968C23.684 15.9901 23.27 15.5225 23.04 14.8938C22.81 14.2651 22.7947 13.4678 22.994 12.5018L23.73 9.14381C23.9294 8.25447 24.2437 7.47247 24.673 6.79781C25.1177 6.12314 25.7004 5.60181 26.421 5.23381C27.157 4.86581 28.054 4.69714 29.112 4.72781C29.6027 4.74314 30.078 4.81981 30.538 4.95781C31.0134 5.09581 31.458 5.27214 31.872 5.48681L30.906 7.44181ZM39.7556 7.44181C39.4796 7.28847 39.1653 7.17347 38.8126 7.09681C38.4753 7.00481 38.1303 6.95114 37.7776 6.93581C37.3636 6.93581 36.9726 7.00481 36.6046 7.14281C36.2366 7.26547 35.9223 7.47247 35.6616 7.76381C35.401 8.03981 35.2246 8.40781 35.1326 8.86781L34.3736 12.4788C34.297 12.8315 34.2893 13.1458 34.3506 13.4218C34.412 13.6825 34.527 13.8971 34.6956 14.0658C34.8796 14.2345 35.1096 14.3648 35.3856 14.4568C35.6616 14.5335 35.976 14.5718 36.3286 14.5718C36.574 14.5718 36.8193 14.5641 37.0646 14.5488C37.3253 14.5181 37.5553 14.4875 37.7546 14.4568C37.954 14.4108 38.115 14.3801 38.2376 14.3648C38.3603 14.3341 38.4216 14.3188 38.4216 14.3188L38.4446 16.3888C37.9386 16.5115 37.425 16.6111 36.9036 16.6878C36.3823 16.7645 35.861 16.7951 35.3396 16.7798C34.4656 16.7645 33.7296 16.6035 33.1316 16.2968C32.5336 15.9901 32.1196 15.5225 31.8896 14.8938C31.6596 14.2651 31.6443 13.4678 31.8436 12.5018L32.5796 9.14381C32.779 8.25447 33.0933 7.47247 33.5226 6.79781C33.9673 6.12314 34.55 5.60181 35.2706 5.23381C36.0066 4.86581 36.9036 4.69714 37.9616 4.72781C38.4523 4.74314 38.9276 4.81981 39.3876 4.95781C39.863 5.09581 40.3076 5.27214 40.7216 5.48681L39.7556 7.44181ZM44.9942 5.00381L43.5452 11.8348L48.3752 5.00381H50.9512L48.5132 16.5268H45.9372L47.3632 9.74181L42.5562 16.5268H40.0262L42.4642 5.00381H44.9942ZM60.6869 1.11681L60.6639 1.2778C60.5719 1.73781 60.3572 2.16714 60.0199 2.56581C59.6979 2.96447 59.3146 3.28647 58.8699 3.53181C58.4252 3.76181 57.9652 3.87681 57.4899 3.87681C57.0146 3.87681 56.6006 3.76181 56.2479 3.53181C55.9106 3.28647 55.6652 2.96447 55.5119 2.56581C55.3586 2.16714 55.3279 1.73781 55.4199 1.2778L55.4659 1.11681H57.2369L57.1909 1.2778C57.1296 1.47714 57.1526 1.66114 57.2599 1.82981C57.3826 1.98314 57.5512 2.05981 57.7659 2.05981C58.0266 2.05981 58.2412 1.97547 58.4099 1.8068C58.5786 1.63814 58.6936 1.46181 58.7549 1.2778L58.8009 1.11681H60.6869ZM55.2589 5.00381L53.8099 11.8348L58.6399 5.00381H61.2159L58.7779 16.5268H56.2019L57.6279 9.74181L52.8209 16.5268H50.2909L52.7289 5.00381H55.2589ZM69.1345 7.44181C68.8585 7.28847 68.5442 7.17347 68.1915 7.09681C67.8542 7.00481 67.5092 6.95114 67.1565 6.93581C66.7425 6.93581 66.3515 7.00481 65.9835 7.14281C65.6155 7.26547 65.3012 7.47247 65.0405 7.76381C64.7799 8.03981 64.6035 8.40781 64.5115 8.86781L63.7525 12.4788C63.6759 12.8315 63.6682 13.1458 63.7295 13.4218C63.7909 13.6825 63.9059 13.8971 64.0745 14.0658C64.2585 14.2345 64.4885 14.3648 64.7645 14.4568C65.0405 14.5335 65.3549 14.5718 65.7075 14.5718C65.9529 14.5718 66.1982 14.5641 66.4435 14.5488C66.7042 14.5181 66.9342 14.4875 67.1335 14.4568C67.3329 14.4108 67.4939 14.3801 67.6165 14.3648C67.7392 14.3341 67.8005 14.3188 67.8005 14.3188L67.8235 16.3888C67.3175 16.5115 66.8039 16.6111 66.2825 16.6878C65.7612 16.7645 65.2399 16.7951 64.7185 16.7798C63.8445 16.7645 63.1085 16.6035 62.5105 16.2968C61.9125 15.9901 61.4985 15.5225 61.2685 14.8938C61.0385 14.2651 61.0232 13.4678 61.2225 12.5018L61.9585 9.14381C62.1579 8.25447 62.4722 7.47247 62.9015 6.79781C63.3462 6.12314 63.9289 5.60181 64.6495 5.23381C65.3855 4.86581 66.2825 4.69714 67.3405 4.72781C67.8312 4.74314 68.3065 4.81981 68.7665 4.95781C69.2419 5.09581 69.6865 5.27214 70.1005 5.48681L69.1345 7.44181ZM77.5241 12.8238C77.7235 13.2071 77.8921 13.5061 78.0301 13.7208C78.1835 13.9201 78.3291 14.0581 78.4671 14.1348C78.6205 14.2115 78.7891 14.2498 78.9731 14.2498H79.0881L78.5361 16.5038H78.1911C77.6238 16.5038 77.1408 16.3811 76.7421 16.1358C76.3588 15.8905 76.0291 15.5685 75.7531 15.1698C75.4925 14.7711 75.2471 14.3495 75.0171 13.9048L73.7291 11.3978L72.9241 12.0188L71.9811 16.5038H69.4281L71.9351 4.72781L74.4191 5.00381L73.6141 8.82181L77.9611 4.98081H81.1121L75.9141 9.60381L77.5241 12.8238ZM85.3116 5.00381L83.8626 11.8348L88.6926 5.00381H91.2686L88.8306 16.5268H86.2546L87.6806 9.74181L82.8736 16.5268H80.3436L82.7816 5.00381H85.3116ZM101.004 1.11681L100.981 1.2778C100.889 1.73781 100.675 2.16714 100.337 2.56581C100.015 2.96447 99.6319 3.28647 99.1873 3.53181C98.7426 3.76181 98.2826 3.87681 97.8073 3.87681C97.3319 3.87681 96.9179 3.76181 96.5653 3.53181C96.2279 3.28647 95.9826 2.96447 95.8293 2.56581C95.6759 2.16714 95.6453 1.73781 95.7373 1.2778L95.7833 1.11681H97.5543L97.5083 1.2778C97.4469 1.47714 97.4699 1.66114 97.5773 1.82981C97.6999 1.98314 97.8686 2.05981 98.0833 2.05981C98.3439 2.05981 98.5586 1.97547 98.7273 1.8068C98.8959 1.63814 99.0109 1.46181 99.0723 1.2778L99.1183 1.11681H101.004ZM95.5763 5.00381L94.1273 11.8348L98.9573 5.00381H101.533L99.0953 16.5268H96.5193L97.9453 9.74181L93.1383 16.5268H90.6083L93.0463 5.00381H95.5763ZM116.588 12.5708C116.404 13.5061 116.09 14.2958 115.645 14.9398C115.216 15.5838 114.679 16.0745 114.035 16.4118C113.391 16.7338 112.64 16.8948 111.781 16.8948C111.597 16.8948 111.413 16.8795 111.229 16.8488C111.045 16.8181 110.869 16.7798 110.7 16.7338C110.531 16.6878 110.37 16.6265 110.217 16.5498C110.079 16.4885 109.949 16.4195 109.826 16.3428L108.745 21.4718L106.33 20.8968L108.791 9.32781C109.098 7.87114 109.703 6.75947 110.608 5.99281C111.528 5.21081 112.686 4.81981 114.081 4.81981C115.4 4.81981 116.343 5.21847 116.91 6.01581C117.477 6.81314 117.608 7.91714 117.301 9.32781L116.588 12.5708ZM114.794 9.18981C114.871 8.82181 114.871 8.50747 114.794 8.24681C114.717 7.97081 114.564 7.75614 114.334 7.60281C114.104 7.44947 113.805 7.37281 113.437 7.37281C113.084 7.37281 112.762 7.44181 112.471 7.57981C112.18 7.71781 111.942 7.92481 111.758 8.20081C111.574 8.46147 111.436 8.79114 111.344 9.18981L110.447 13.3988C110.401 13.5981 110.424 13.7745 110.516 13.9278C110.623 14.0811 110.769 14.2115 110.953 14.3188C111.137 14.4261 111.329 14.5028 111.528 14.5488C111.743 14.5948 111.942 14.6178 112.126 14.6178C112.463 14.6178 112.755 14.5488 113 14.4108C113.261 14.2728 113.475 14.0811 113.644 13.8358C113.813 13.5751 113.928 13.2685 113.989 12.9158L114.794 9.18981ZM119.724 7.46481L119.563 5.48681C120.084 5.27214 120.613 5.09581 121.15 4.95781C121.687 4.81981 122.208 4.74314 122.714 4.72781C123.665 4.69714 124.424 4.87347 124.991 5.25681C125.574 5.64014 125.957 6.16914 126.141 6.84381C126.34 7.50314 126.348 8.26981 126.164 9.14381L125.451 12.5018C125.252 13.4831 124.899 14.2881 124.393 14.9168C123.887 15.5301 123.266 15.9901 122.53 16.2968C121.809 16.5881 121.004 16.7491 120.115 16.7798C119.594 16.7951 119.088 16.7645 118.597 16.6878C118.106 16.6111 117.639 16.5115 117.194 16.3888L118.091 14.3188C118.091 14.3188 118.145 14.3341 118.252 14.3648C118.359 14.3801 118.513 14.4108 118.712 14.4568C118.911 14.4875 119.126 14.5181 119.356 14.5488C119.601 14.5641 119.847 14.5718 120.092 14.5718C120.567 14.5718 120.997 14.4951 121.38 14.3418C121.779 14.1885 122.108 13.9585 122.369 13.6518C122.645 13.3451 122.829 12.9541 122.921 12.4788L123.036 11.9958H120L119.793 9.58081H123.542L123.703 8.86781C123.81 8.39247 123.787 8.00914 123.634 7.71781C123.481 7.42647 123.235 7.21947 122.898 7.09681C122.576 6.95881 122.185 6.90514 121.725 6.93581C121.388 6.95114 121.043 7.01247 120.69 7.11981C120.353 7.21181 120.031 7.32681 119.724 7.46481ZM135.431 14.0658C135.416 14.3111 135.447 14.5105 135.523 14.6638C135.615 14.8171 135.746 14.9551 135.914 15.0778L134.028 16.8948C134.044 16.8948 133.967 16.8565 133.798 16.7798C133.645 16.7031 133.469 16.5805 133.269 16.4118C133.085 16.2431 132.94 16.0131 132.832 15.7218C132.725 15.4151 132.717 15.0318 132.809 14.5718L134.35 7.37281H130.716L128.784 16.5038H126.231L128.692 4.98081H137.363L135.431 14.0658ZM138.595 9.44281L139.124 6.98181H146.484L145.955 9.44281H138.595ZM151.212 5.00381L149.763 11.8348L154.593 5.00381H157.169L154.731 16.5268H152.155L153.581 9.74181L148.774 16.5268H146.244L148.682 5.00381H151.212ZM165.088 7.44181C164.812 7.28847 164.497 7.17347 164.145 7.09681C163.807 7.00481 163.462 6.95114 163.11 6.93581C162.696 6.93581 162.305 7.00481 161.937 7.14281C161.569 7.26547 161.254 7.47247 160.994 7.76381C160.733 8.03981 160.557 8.40781 160.465 8.86781L159.706 12.4788C159.629 12.8315 159.621 13.1458 159.683 13.4218C159.744 13.6825 159.859 13.8971 160.028 14.0658C160.212 14.2345 160.442 14.3648 160.718 14.4568C160.994 14.5335 161.308 14.5718 161.661 14.5718C161.906 14.5718 162.151 14.5641 162.397 14.5488C162.657 14.5181 162.887 14.4875 163.087 14.4568C163.286 14.4108 163.447 14.3801 163.57 14.3648C163.692 14.3341 163.754 14.3188 163.754 14.3188L163.777 16.3888C163.271 16.5115 162.757 16.6111 162.236 16.6878C161.714 16.7645 161.193 16.7951 160.672 16.7798C159.798 16.7645 159.062 16.6035 158.464 16.2968C157.866 15.9901 157.452 15.5225 157.222 14.8938C156.992 14.2651 156.976 13.4678 157.176 12.5018L157.912 9.14381C158.111 8.25447 158.425 7.47247 158.855 6.79781C159.299 6.12314 159.882 5.60181 160.603 5.23381C161.339 4.86581 162.236 4.69714 163.294 4.72781C163.784 4.74314 164.26 4.81981 164.72 4.95781C165.195 5.09581 165.64 5.27214 166.054 5.48681L165.088 7.44181ZM174.558 14.0658C174.543 14.3111 174.574 14.5105 174.65 14.6638C174.742 14.8171 174.873 14.9551 175.041 15.0778L173.155 16.8948C173.171 16.8948 173.094 16.8565 172.925 16.7798C172.772 16.7031 172.596 16.5805 172.396 16.4118C172.212 16.2431 172.067 16.0131 171.959 15.7218C171.852 15.4151 171.844 15.0318 171.936 14.5718L173.477 7.37281H169.843L167.911 16.5038H165.358L167.819 4.98081H176.49L174.558 14.0658ZM185.542 12.2488C185.266 13.5981 184.691 14.6868 183.817 15.5148C182.958 16.3275 181.824 16.7338 180.413 16.7338C179.401 16.7338 178.619 16.5268 178.067 16.1128C177.53 15.6835 177.185 15.1315 177.032 14.4568C176.879 13.7668 176.879 13.0308 177.032 12.2488L177.699 9.21281C177.914 8.23147 178.251 7.41114 178.711 6.75181C179.186 6.09247 179.777 5.59414 180.482 5.25681C181.203 4.90414 182.031 4.72781 182.966 4.72781C184.3 4.72781 185.251 5.12647 185.818 5.92381C186.385 6.70581 186.516 7.80214 186.209 9.21281L185.542 12.2488ZM183.633 9.07481C183.71 8.70681 183.717 8.39247 183.656 8.13181C183.595 7.85581 183.457 7.64881 183.242 7.51081C183.043 7.35747 182.759 7.28081 182.391 7.28081C182.023 7.28081 181.693 7.34981 181.402 7.48781C181.126 7.62581 180.888 7.82514 180.689 8.08581C180.505 8.34647 180.367 8.67614 180.275 9.07481L179.562 12.4328C179.501 12.7395 179.501 13.0308 179.562 13.3068C179.623 13.5828 179.761 13.8051 179.976 13.9738C180.191 14.1425 180.505 14.2268 180.919 14.2268C181.302 14.2268 181.624 14.1501 181.885 13.9968C182.161 13.8435 182.383 13.6288 182.552 13.3528C182.721 13.0768 182.843 12.7701 182.92 12.4328L183.633 9.07481ZM195.216 5.00381H199.08L196.642 16.4808H194.089L196.067 7.16581H195.354C195.032 7.16581 194.741 7.20414 194.48 7.28081C194.235 7.35747 194.005 7.49547 193.79 7.69481C193.591 7.89414 193.392 8.18547 193.192 8.56881L190.846 13.2608C190.417 14.1041 190.003 14.7788 189.604 15.2848C189.221 15.7755 188.784 16.1588 188.293 16.4348C187.818 16.6955 187.228 16.9025 186.522 17.0558L185.487 15.8368C185.825 15.6681 186.116 15.5148 186.361 15.3768C186.622 15.2388 186.867 15.0395 187.097 14.7788C187.343 14.5181 187.603 14.1271 187.879 13.6058L190.524 8.45381C190.708 8.08581 190.931 7.70247 191.191 7.30381C191.452 6.90514 191.759 6.52947 192.111 6.17681C192.479 5.82414 192.916 5.54047 193.422 5.32581C193.928 5.11114 194.526 5.00381 195.216 5.00381ZM206.076 9.00581L206.927 5.00381H209.457L207.019 16.5038H204.489L205.57 11.4208H202.166L201.085 16.5038H198.532L200.97 5.00381H203.523L202.672 9.00581H206.076ZM213.743 5.00381L212.294 11.8348L217.124 5.00381H219.7L217.262 16.5268H214.686L216.112 9.74181L211.305 16.5268H208.775L211.213 5.00381H213.743ZM224.169 13.0998C224.092 13.4831 224.069 13.8128 224.1 14.0888C224.146 14.3648 224.253 14.5948 224.422 14.7788C224.606 14.9475 224.859 15.0931 225.181 15.2158L223.709 16.9638C223.279 16.8411 222.904 16.6801 222.582 16.4808C222.275 16.2661 222.03 16.0131 221.846 15.7218C221.662 15.4151 221.547 15.0701 221.501 14.6868C221.455 14.3035 221.478 13.8895 221.57 13.4448L222.858 7.37281H220.719L221.225 4.98081H228.194L227.688 7.37281H225.388L224.169 13.0998ZM230.479 13.0768C230.433 13.2761 230.425 13.4601 230.456 13.6288C230.487 13.7821 230.54 13.9201 230.617 14.0428C230.709 14.1655 230.832 14.2575 230.985 14.3188C231.138 14.3801 231.315 14.4108 231.514 14.4108C231.928 14.4108 232.419 14.3188 232.986 14.1348C233.553 13.9508 234.105 13.7361 234.642 13.4908L235.102 15.6988C234.489 16.0361 233.814 16.3045 233.078 16.5038C232.342 16.7031 231.629 16.8028 230.939 16.8028C230.402 16.8028 229.912 16.7338 229.467 16.5958C229.038 16.4578 228.677 16.2508 228.386 15.9748C228.11 15.6988 227.918 15.3461 227.811 14.9168C227.719 14.4875 227.734 13.9815 227.857 13.3988L228.869 8.68381C229.053 7.84047 229.375 7.12747 229.835 6.54481C230.31 5.96214 230.885 5.51747 231.56 5.21081C232.25 4.90414 233.009 4.75081 233.837 4.75081C234.665 4.75081 235.355 4.89647 235.907 5.18781C236.474 5.47914 236.873 5.90847 237.103 6.47581C237.333 7.04314 237.356 7.75614 237.172 8.61481L236.413 12.2028L230.617 12.5018L230.479 13.0768ZM234.481 9.30481C234.542 8.98281 234.573 8.65314 234.573 8.31581C234.573 7.97847 234.489 7.70247 234.32 7.48781C234.167 7.25781 233.86 7.15814 233.4 7.18881C232.925 7.20414 232.549 7.30381 232.273 7.48781C232.012 7.65647 231.805 7.89414 231.652 8.20081C231.514 8.49214 231.391 8.85247 231.284 9.28181L231.1 10.1788L234.32 9.97181L234.481 9.30481ZM246.068 5.00381H249.932L247.494 16.4808H244.941L246.919 7.16581H246.206C245.884 7.16581 245.593 7.20414 245.332 7.28081C245.087 7.35747 244.857 7.49547 244.642 7.69481C244.443 7.89414 244.243 8.18547 244.044 8.56881L241.698 13.2608C241.269 14.1041 240.855 14.7788 240.456 15.2848C240.073 15.7755 239.636 16.1588 239.145 16.4348C238.67 16.6955 238.079 16.9025 237.374 17.0558L236.339 15.8368C236.676 15.6681 236.968 15.5148 237.213 15.3768C237.474 15.2388 237.719 15.0395 237.949 14.7788C238.194 14.5181 238.455 14.1271 238.731 13.6058L241.376 8.45381C241.56 8.08581 241.782 7.70247 242.043 7.30381C242.304 6.90514 242.61 6.52947 242.963 6.17681C243.331 5.82414 243.768 5.54047 244.274 5.32581C244.78 5.11114 245.378 5.00381 246.068 5.00381ZM255.846 9.53481C256.536 9.53481 257.157 9.65747 257.709 9.90281C258.277 10.1328 258.698 10.5085 258.974 11.0298C259.25 11.5358 259.296 12.2028 259.112 13.0308C258.99 13.6288 258.721 14.2115 258.307 14.7788C257.893 15.3308 257.349 15.7908 256.674 16.1588C256 16.5268 255.202 16.7108 254.282 16.7108C253.991 16.7108 253.638 16.7031 253.224 16.6878C252.826 16.6725 252.404 16.6495 251.959 16.6188C251.53 16.5881 251.124 16.5575 250.74 16.5268C250.357 16.5115 250.043 16.4961 249.797 16.4808C249.567 16.4655 249.452 16.4578 249.452 16.4578L251.89 5.00381H254.443L253.477 9.53481H255.846ZM254.397 14.1118C254.75 14.1118 255.064 14.0811 255.34 14.0198C255.632 13.9431 255.877 13.8205 256.076 13.6518C256.276 13.4831 256.406 13.2531 256.467 12.9618C256.513 12.7778 256.513 12.6168 256.467 12.4788C256.421 12.3408 256.337 12.2258 256.214 12.1338C256.107 12.0418 255.961 11.9805 255.777 11.9498C255.593 11.9038 255.386 11.8808 255.156 11.8808H252.994L252.534 14.0658C252.703 14.0658 252.872 14.0735 253.04 14.0888C253.224 14.0888 253.393 14.0965 253.546 14.1118C253.715 14.1118 253.868 14.1118 254.006 14.1118C254.16 14.1118 254.29 14.1118 254.397 14.1118ZM260.103 18.0218C260.271 17.8071 260.402 17.5848 260.494 17.3548C260.601 17.1401 260.708 16.9178 260.816 16.6878C260.524 16.6111 260.31 16.4501 260.172 16.2048C260.034 15.9595 259.995 15.6758 260.057 15.3538C260.133 14.9858 260.333 14.6638 260.655 14.3878C260.992 14.1118 261.352 13.9738 261.736 13.9738C262.104 13.9738 262.387 14.1118 262.587 14.3878C262.786 14.6638 262.847 14.9858 262.771 15.3538C262.679 15.8751 262.51 16.3275 262.265 16.7108C262.035 17.0941 261.782 17.4085 261.506 17.6538C261.245 17.9145 261.023 18.1061 260.839 18.2288C260.655 18.3515 260.57 18.4128 260.586 18.4128L260.103 18.0218ZM281.533 5.30281C281.38 5.77814 281.249 6.20747 281.142 6.59081C281.05 6.95881 280.973 7.27314 280.912 7.53381L279.026 16.3888C279.026 16.3888 278.919 16.3965 278.704 16.4118C278.505 16.4271 278.229 16.4501 277.876 16.4808C277.539 16.4961 277.155 16.5115 276.726 16.5268C276.312 16.5421 275.89 16.5575 275.461 16.5728C275.047 16.5881 274.664 16.5958 274.311 16.5958C273.606 16.5958 273.031 16.4885 272.586 16.2738C272.157 16.0591 271.835 15.7678 271.62 15.3998C271.405 15.0318 271.283 14.6101 271.252 14.1348C271.237 13.6441 271.283 13.1305 271.39 12.5938L272.31 8.33881C272.448 7.66414 272.64 7.10447 272.885 6.65981C273.146 6.19981 273.437 5.83947 273.759 5.57881C274.096 5.30281 274.464 5.11114 274.863 5.00381C275.262 4.88114 275.691 4.81981 276.151 4.81981C276.626 4.81981 277.063 4.85047 277.462 4.91181C277.861 4.97314 278.19 5.04214 278.451 5.11881C278.727 5.19547 278.919 5.25681 279.026 5.30281C279.026 5.30281 279.057 5.24147 279.118 5.11881C279.195 4.98081 279.279 4.85047 279.371 4.72781L281.533 5.30281ZM273.92 12.6168C273.828 13.1228 273.813 13.5138 273.874 13.7898C273.935 14.0505 274.073 14.2345 274.288 14.3418C274.518 14.4338 274.817 14.4798 275.185 14.4798C275.323 14.4798 275.461 14.4798 275.599 14.4798C275.737 14.4798 275.875 14.4798 276.013 14.4798C276.151 14.4645 276.289 14.4491 276.427 14.4338C276.58 14.4185 276.734 14.4031 276.887 14.3878L278.313 7.60281C278.206 7.54147 278.075 7.48781 277.922 7.44181C277.769 7.38047 277.6 7.32681 277.416 7.28081C277.247 7.23481 277.079 7.20414 276.91 7.18881C276.757 7.15814 276.619 7.14281 276.496 7.14281C276.373 7.14281 276.228 7.15047 276.059 7.16581C275.906 7.18114 275.745 7.23481 275.576 7.32681C275.407 7.40347 275.254 7.52614 275.116 7.69481C274.978 7.86347 274.878 8.10114 274.817 8.40781L273.92 12.6168ZM289.678 10.1328C290.092 10.4395 290.368 10.8535 290.506 11.3748C290.66 11.8961 290.675 12.4635 290.552 13.0768C290.43 13.6748 290.161 14.2575 289.747 14.8248C289.333 15.3768 288.789 15.8368 288.114 16.2048C287.44 16.5728 286.642 16.7568 285.722 16.7568C285.431 16.7568 285.086 16.7491 284.687 16.7338C284.289 16.7185 283.875 16.6955 283.445 16.6648C283.016 16.6341 282.617 16.6035 282.249 16.5728C281.881 16.5575 281.582 16.5421 281.352 16.5268C281.122 16.5115 281.007 16.5038 281.007 16.5038L283.445 4.98081C283.445 4.98081 283.545 4.97314 283.744 4.95781C283.959 4.92714 284.258 4.89647 284.641 4.86581C285.04 4.81981 285.508 4.78914 286.044 4.77381C286.581 4.74314 287.179 4.72781 287.838 4.72781C288.298 4.72781 288.743 4.78147 289.172 4.88881C289.602 4.99614 289.977 5.15714 290.299 5.37181C290.637 5.58647 290.89 5.87014 291.058 6.22281C291.242 6.56014 291.319 6.97414 291.288 7.46481C291.258 7.94014 291.089 8.43081 290.782 8.93681C290.491 9.42747 290.123 9.82614 289.678 10.1328ZM287.424 6.95881C287.286 6.95881 287.141 6.95881 286.987 6.95881C286.834 6.95881 286.673 6.96647 286.504 6.98181C286.351 6.98181 286.19 6.98947 286.021 7.00481C285.868 7.00481 285.715 7.00481 285.561 7.00481L285.009 9.55781H286.182C286.734 9.55781 287.179 9.48881 287.516 9.35081C287.854 9.21281 288.107 9.03647 288.275 8.82181C288.459 8.60714 288.574 8.39247 288.62 8.17781C288.666 7.97847 288.659 7.80981 288.597 7.67181C288.536 7.51847 288.444 7.38814 288.321 7.28081C288.214 7.17347 288.076 7.09681 287.907 7.05081C287.754 6.98947 287.593 6.95881 287.424 6.95881ZM285.837 14.1578C286.19 14.1578 286.52 14.1195 286.826 14.0428C287.133 13.9661 287.394 13.8435 287.608 13.6748C287.823 13.4908 287.961 13.2531 288.022 12.9618C288.068 12.7778 288.061 12.6091 287.999 12.4558C287.953 12.3025 287.861 12.1798 287.723 12.0878C287.601 11.9805 287.44 11.9038 287.24 11.8578C287.056 11.7965 286.849 11.7658 286.619 11.7658H284.549L284.043 14.1118C284.212 14.1118 284.381 14.1195 284.549 14.1348C284.718 14.1348 284.879 14.1425 285.032 14.1578C285.186 14.1578 285.331 14.1578 285.469 14.1578C285.607 14.1578 285.73 14.1578 285.837 14.1578ZM296.538 13.0998C296.461 13.4831 296.438 13.8128 296.469 14.0888C296.515 14.3648 296.622 14.5948 296.791 14.7788C296.975 14.9475 297.228 15.0931 297.55 15.2158L296.078 16.9638C295.649 16.8411 295.273 16.6801 294.951 16.4808C294.644 16.2661 294.399 16.0131 294.215 15.7218C294.031 15.4151 293.916 15.0701 293.87 14.6868C293.824 14.3035 293.847 13.8895 293.939 13.4448L295.227 7.37281H293.088L293.594 4.98081H300.563L300.057 7.37281H297.757L296.538 13.0998ZM308.92 12.2488C308.644 13.5981 308.069 14.6868 307.195 15.5148C306.336 16.3275 305.202 16.7338 303.791 16.7338C302.779 16.7338 301.997 16.5268 301.445 16.1128C300.908 15.6835 300.563 15.1315 300.41 14.4568C300.257 13.7668 300.257 13.0308 300.41 12.2488L301.077 9.21281C301.292 8.23147 301.629 7.41114 302.089 6.75181C302.564 6.09247 303.155 5.59414 303.86 5.25681C304.581 4.90414 305.409 4.72781 306.344 4.72781C307.678 4.72781 308.629 5.12647 309.196 5.92381C309.763 6.70581 309.894 7.80214 309.587 9.21281L308.92 12.2488ZM307.011 9.07481C307.088 8.70681 307.095 8.39247 307.034 8.13181C306.973 7.85581 306.835 7.64881 306.62 7.51081C306.421 7.35747 306.137 7.28081 305.769 7.28081C305.401 7.28081 305.071 7.34981 304.78 7.48781C304.504 7.62581 304.266 7.82514 304.067 8.08581C303.883 8.34647 303.745 8.67614 303.653 9.07481L302.94 12.4328C302.879 12.7395 302.879 13.0308 302.94 13.3068C303.001 13.5828 303.139 13.8051 303.354 13.9738C303.569 14.1425 303.883 14.2268 304.297 14.2268C304.68 14.2268 305.002 14.1501 305.263 13.9968C305.539 13.8435 305.761 13.6288 305.93 13.3528C306.099 13.0768 306.221 12.7701 306.298 12.4328L307.011 9.07481ZM318.916 12.5708C318.732 13.5061 318.418 14.2958 317.973 14.9398C317.544 15.5838 317.007 16.0745 316.363 16.4118C315.719 16.7338 314.968 16.8948 314.109 16.8948C313.925 16.8948 313.741 16.8795 313.557 16.8488C313.373 16.8181 313.197 16.7798 313.028 16.7338C312.86 16.6878 312.699 16.6265 312.545 16.5498C312.407 16.4885 312.277 16.4195 312.154 16.3428L311.073 21.4718L308.658 20.8968L311.119 9.32781C311.426 7.87114 312.032 6.75947 312.936 5.99281C313.856 5.21081 315.014 4.81981 316.409 4.81981C317.728 4.81981 318.671 5.21847 319.238 6.01581C319.806 6.81314 319.936 7.91714 319.629 9.32781L318.916 12.5708ZM317.122 9.18981C317.199 8.82181 317.199 8.50747 317.122 8.24681C317.046 7.97081 316.892 7.75614 316.662 7.60281C316.432 7.44947 316.133 7.37281 315.765 7.37281C315.413 7.37281 315.091 7.44181 314.799 7.57981C314.508 7.71781 314.27 7.92481 314.086 8.20081C313.902 8.46147 313.764 8.79114 313.672 9.18981L312.775 13.3988C312.729 13.5981 312.752 13.7745 312.844 13.9278C312.952 14.0811 313.097 14.2115 313.281 14.3188C313.465 14.4261 313.657 14.5028 313.856 14.5488C314.071 14.5948 314.27 14.6178 314.454 14.6178C314.792 14.6178 315.083 14.5488 315.328 14.4108C315.589 14.2728 315.804 14.0811 315.972 13.8358C316.141 13.5751 316.256 13.2685 316.317 12.9158L317.122 9.18981ZM332.914 8.52281L335.858 4.98081H339.216L334.041 11.0988L336.41 16.5038H333.581L332.201 13.2838L329.556 16.5038H326.152L331.051 10.7538L328.59 4.98081H331.35L332.914 8.52281ZM343.073 5.00381L341.624 11.8348L346.454 5.00381H349.03L346.592 16.5268H344.016L345.442 9.74181L340.635 16.5268H338.105L340.543 5.00381H343.073ZM353.499 13.0998C353.422 13.4831 353.399 13.8128 353.43 14.0888C353.476 14.3648 353.583 14.5948 353.752 14.7788C353.936 14.9475 354.189 15.0931 354.511 15.2158L353.039 16.9638C352.61 16.8411 352.234 16.6801 351.912 16.4808C351.605 16.2661 351.36 16.0131 351.176 15.7218C350.992 15.4151 350.877 15.0701 350.831 14.6868C350.785 14.3035 350.808 13.8895 350.9 13.4448L352.188 7.37281H350.049L350.555 4.98081H357.524L357.018 7.37281H354.718L353.499 13.0998ZM365.881 12.2488C365.605 13.5981 365.03 14.6868 364.156 15.5148C363.297 16.3275 362.163 16.7338 360.752 16.7338C359.74 16.7338 358.958 16.5268 358.406 16.1128C357.869 15.6835 357.524 15.1315 357.371 14.4568C357.218 13.7668 357.218 13.0308 357.371 12.2488L358.038 9.21281C358.253 8.23147 358.59 7.41114 359.05 6.75181C359.525 6.09247 360.116 5.59414 360.821 5.25681C361.542 4.90414 362.37 4.72781 363.305 4.72781C364.639 4.72781 365.59 5.12647 366.157 5.92381C366.724 6.70581 366.855 7.80214 366.548 9.21281L365.881 12.2488ZM363.972 9.07481C364.049 8.70681 364.056 8.39247 363.995 8.13181C363.934 7.85581 363.796 7.64881 363.581 7.51081C363.382 7.35747 363.098 7.28081 362.73 7.28081C362.362 7.28081 362.032 7.34981 361.741 7.48781C361.465 7.62581 361.227 7.82514 361.028 8.08581C360.844 8.34647 360.706 8.67614 360.614 9.07481L359.901 12.4328C359.84 12.7395 359.84 13.0308 359.901 13.3068C359.962 13.5828 360.1 13.8051 360.315 13.9738C360.53 14.1425 360.844 14.2268 361.258 14.2268C361.641 14.2268 361.963 14.1501 362.224 13.9968C362.5 13.8435 362.722 13.6288 362.891 13.3528C363.06 13.0768 363.182 12.7701 363.259 12.4328L363.972 9.07481ZM375.187 10.1328C375.601 10.4395 375.877 10.8535 376.015 11.3748C376.169 11.8961 376.184 12.4635 376.061 13.0768C375.939 13.6748 375.67 14.2575 375.256 14.8248C374.842 15.3768 374.298 15.8368 373.623 16.2048C372.949 16.5728 372.151 16.7568 371.231 16.7568C370.94 16.7568 370.595 16.7491 370.196 16.7338C369.798 16.7185 369.384 16.6955 368.954 16.6648C368.525 16.6341 368.126 16.6035 367.758 16.5728C367.39 16.5575 367.091 16.5421 366.861 16.5268C366.631 16.5115 366.516 16.5038 366.516 16.5038L368.954 4.98081C368.954 4.98081 369.054 4.97314 369.253 4.95781C369.468 4.92714 369.767 4.89647 370.15 4.86581C370.549 4.81981 371.017 4.78914 371.553 4.77381C372.09 4.74314 372.688 4.72781 373.347 4.72781C373.807 4.72781 374.252 4.78147 374.681 4.88881C375.111 4.99614 375.486 5.15714 375.808 5.37181C376.146 5.58647 376.399 5.87014 376.567 6.22281C376.751 6.56014 376.828 6.97414 376.797 7.46481C376.767 7.94014 376.598 8.43081 376.291 8.93681C376 9.42747 375.632 9.82614 375.187 10.1328ZM372.933 6.95881C372.795 6.95881 372.65 6.95881 372.496 6.95881C372.343 6.95881 372.182 6.96647 372.013 6.98181C371.86 6.98181 371.699 6.98947 371.53 7.00481C371.377 7.00481 371.224 7.00481 371.07 7.00481L370.518 9.55781H371.691C372.243 9.55781 372.688 9.48881 373.025 9.35081C373.363 9.21281 373.616 9.03647 373.784 8.82181C373.968 8.60714 374.083 8.39247 374.129 8.17781C374.175 7.97847 374.168 7.80981 374.106 7.67181C374.045 7.51847 373.953 7.38814 373.83 7.28081C373.723 7.17347 373.585 7.09681 373.416 7.05081C373.263 6.98947 373.102 6.95881 372.933 6.95881ZM371.346 14.1578C371.699 14.1578 372.029 14.1195 372.335 14.0428C372.642 13.9661 372.903 13.8435 373.117 13.6748C373.332 13.4908 373.47 13.2531 373.531 12.9618C373.577 12.7778 373.57 12.6091 373.508 12.4558C373.462 12.3025 373.37 12.1798 373.232 12.0878C373.11 11.9805 372.949 11.9038 372.749 11.8578C372.565 11.7965 372.358 11.7658 372.128 11.7658H370.058L369.552 14.1118C369.721 14.1118 369.89 14.1195 370.058 14.1348C370.227 14.1348 370.388 14.1425 370.541 14.1578C370.695 14.1578 370.84 14.1578 370.978 14.1578C371.116 14.1578 371.239 14.1578 371.346 14.1578ZM377.102 18.0218C377.27 17.8071 377.401 17.5848 377.493 17.3548C377.6 17.1401 377.707 16.9178 377.815 16.6878C377.523 16.6111 377.309 16.4501 377.171 16.2048C377.033 15.9595 376.994 15.6758 377.056 15.3538C377.132 14.9858 377.332 14.6638 377.654 14.3878C377.991 14.1118 378.351 13.9738 378.735 13.9738C379.103 13.9738 379.386 14.1118 379.586 14.3878C379.785 14.6638 379.846 14.9858 379.77 15.3538C379.678 15.8751 379.509 16.3275 379.264 16.7108C379.034 17.0941 378.781 17.4085 378.505 17.6538C378.244 17.9145 378.022 18.1061 377.838 18.2288C377.654 18.3515 377.569 18.4128 377.585 18.4128L377.102 18.0218ZM23.5647 31.8198C24.4234 31.8198 25.1057 31.9808 25.6117 32.3028C26.1177 32.6248 26.4474 33.1078 26.6007 33.7518C26.7694 34.3958 26.754 35.1931 26.5547 36.1438L25.8877 39.2488C25.5964 40.6441 24.9984 41.7481 24.0937 42.5608C23.189 43.3581 22.0774 43.7568 20.7587 43.7568C19.9 43.7568 19.1794 43.5881 18.5967 43.2508C18.0294 42.8981 17.6307 42.3921 17.4007 41.7328C17.186 41.0581 17.1784 40.2301 17.3777 39.2488L18.8267 32.4638C18.9494 31.8965 19.164 31.3215 19.4707 30.7388C19.7927 30.1561 20.2144 29.6271 20.7357 29.1518C21.211 28.7071 21.7784 28.3315 22.4377 28.0248C23.097 27.7181 23.8484 27.5111 24.6917 27.4038L24.9677 28.9908C24.4464 29.0981 23.971 29.2515 23.5417 29.4508C23.1277 29.6501 22.752 29.9185 22.4147 30.2558C22.1694 30.5165 21.9624 30.8155 21.7937 31.1528C21.625 31.4901 21.487 31.9041 21.3797 32.3948L21.3337 32.6018C21.533 32.4791 21.7554 32.3565 22.0007 32.2338C22.2614 32.1111 22.522 32.0115 22.7827 31.9348C23.0587 31.8581 23.3194 31.8198 23.5647 31.8198ZM22.7367 34.1198C22.5527 34.1198 22.3534 34.1505 22.1387 34.2118C21.924 34.2578 21.717 34.3421 21.5177 34.4648C21.3184 34.5721 21.142 34.7255 20.9887 34.9248C20.8507 35.1088 20.751 35.3311 20.6897 35.5918L19.8847 39.3868C19.808 39.7701 19.7927 40.0998 19.8387 40.3758C19.8847 40.6365 20.015 40.8435 20.2297 40.9968C20.4444 41.1348 20.7664 41.2038 21.1957 41.2038C21.5637 41.2038 21.8934 41.1271 22.1847 40.9738C22.476 40.8205 22.7137 40.6135 22.8977 40.3528C23.097 40.0768 23.235 39.7548 23.3117 39.3868L24.0707 35.7988C24.1474 35.4461 24.1474 35.1471 24.0707 34.9018C23.994 34.6411 23.8407 34.4495 23.6107 34.3268C23.396 34.1888 23.1047 34.1198 22.7367 34.1198ZM35.5191 32.0038H39.3831L36.9451 43.4808H34.3921L36.3701 34.1658H35.6571C35.3351 34.1658 35.0438 34.2041 34.7831 34.2808C34.5378 34.3575 34.3078 34.4955 34.0931 34.6948C33.8938 34.8941 33.6945 35.1855 33.4951 35.5688L31.1491 40.2608C30.7198 41.1041 30.3058 41.7788 29.9071 42.2848C29.5238 42.7755 29.0868 43.1588 28.5961 43.4348C28.1208 43.6955 27.5305 43.9025 26.8251 44.0558L25.7901 42.8368C26.1275 42.6681 26.4188 42.5148 26.6641 42.3768C26.9248 42.2388 27.1701 42.0395 27.4001 41.7788C27.6455 41.5181 27.9061 41.1271 28.1821 40.6058L30.8271 35.4538C31.0111 35.0858 31.2335 34.7025 31.4941 34.3038C31.7548 33.9051 32.0615 33.5295 32.4141 33.1768C32.7821 32.8241 33.2191 32.5405 33.7251 32.3258C34.2311 32.1111 34.8291 32.0038 35.5191 32.0038ZM48.1037 39.2488C47.8277 40.5981 47.2527 41.6868 46.3787 42.5148C45.5201 43.3275 44.3854 43.7338 42.9747 43.7338C41.9627 43.7338 41.1807 43.5268 40.6287 43.1128C40.0921 42.6835 39.7471 42.1315 39.5937 41.4568C39.4404 40.7668 39.4404 40.0308 39.5937 39.2488L40.2607 36.2128C40.4754 35.2315 40.8127 34.4111 41.2727 33.7518C41.7481 33.0925 42.3384 32.5941 43.0437 32.2568C43.7644 31.9041 44.5924 31.7278 45.5277 31.7278C46.8617 31.7278 47.8124 32.1265 48.3797 32.9238C48.9471 33.7058 49.0774 34.8021 48.7707 36.2128L48.1037 39.2488ZM46.1947 36.0748C46.2714 35.7068 46.2791 35.3925 46.2177 35.1318C46.1564 34.8558 46.0184 34.6488 45.8037 34.5108C45.6044 34.3575 45.3207 34.2808 44.9527 34.2808C44.5847 34.2808 44.2551 34.3498 43.9637 34.4878C43.6877 34.6258 43.4501 34.8251 43.2507 35.0858C43.0667 35.3465 42.9287 35.6761 42.8367 36.0748L42.1237 39.4328C42.0624 39.7395 42.0624 40.0308 42.1237 40.3068C42.1851 40.5828 42.3231 40.8051 42.5377 40.9738C42.7524 41.1425 43.0667 41.2268 43.4807 41.2268C43.8641 41.2268 44.1861 41.1501 44.4467 40.9968C44.7227 40.8435 44.9451 40.6288 45.1137 40.3528C45.2824 40.0768 45.4051 39.7701 45.4817 39.4328L46.1947 36.0748ZM51.1309 32.0038H57.4559L56.9269 34.5338H53.1779L51.2689 43.5038H48.6929L51.1309 32.0038ZM59.2817 40.0768C59.2357 40.2761 59.2281 40.4601 59.2587 40.6288C59.2894 40.7821 59.3431 40.9201 59.4197 41.0428C59.5117 41.1655 59.6344 41.2575 59.7877 41.3188C59.9411 41.3801 60.1174 41.4108 60.3167 41.4108C60.7307 41.4108 61.2214 41.3188 61.7887 41.1348C62.3561 40.9508 62.9081 40.7361 63.4447 40.4908L63.9047 42.6988C63.2914 43.0361 62.6167 43.3045 61.8807 43.5038C61.1447 43.7031 60.4317 43.8028 59.7417 43.8028C59.2051 43.8028 58.7144 43.7338 58.2697 43.5958C57.8404 43.4578 57.4801 43.2508 57.1887 42.9748C56.9127 42.6988 56.7211 42.3461 56.6137 41.9168C56.5217 41.4875 56.5371 40.9815 56.6597 40.3988L57.6717 35.6838C57.8557 34.8405 58.1777 34.1275 58.6377 33.5448C59.1131 32.9621 59.6881 32.5175 60.3627 32.2108C61.0527 31.9041 61.8117 31.7508 62.6397 31.7508C63.4677 31.7508 64.1577 31.8965 64.7097 32.1878C65.2771 32.4791 65.6757 32.9085 65.9057 33.4758C66.1357 34.0431 66.1587 34.7561 65.9747 35.6148L65.2157 39.2028L59.4197 39.5018L59.2817 40.0768ZM63.2837 36.3048C63.3451 35.9828 63.3757 35.6531 63.3757 35.3158C63.3757 34.9785 63.2914 34.7025 63.1227 34.4878C62.9694 34.2578 62.6627 34.1581 62.2027 34.1888C61.7274 34.2041 61.3517 34.3038 61.0757 34.4878C60.8151 34.6565 60.6081 34.8941 60.4547 35.2008C60.3167 35.4921 60.1941 35.8525 60.0867 36.2818L59.9027 37.1788L63.1227 36.9718L63.2837 36.3048ZM75.1927 39.5708C75.0087 40.5061 74.6944 41.2958 74.2497 41.9398C73.8204 42.5838 73.2837 43.0745 72.6397 43.4118C71.9957 43.7338 71.2444 43.8948 70.3857 43.8948C70.2017 43.8948 70.0177 43.8795 69.8337 43.8488C69.6497 43.8181 69.4734 43.7798 69.3047 43.7338C69.136 43.6878 68.975 43.6265 68.8217 43.5498C68.6837 43.4885 68.5534 43.4195 68.4307 43.3428L67.3497 48.4718L64.9347 47.8968L67.3957 36.3278C67.7024 34.8711 68.308 33.7595 69.2127 32.9928C70.1327 32.2108 71.2904 31.8198 72.6857 31.8198C74.0044 31.8198 74.9474 32.2185 75.5147 33.0158C76.082 33.8131 76.2124 34.9171 75.9057 36.3278L75.1927 39.5708ZM73.3987 36.1898C73.4754 35.8218 73.4754 35.5075 73.3987 35.2468C73.322 34.9708 73.1687 34.7561 72.9387 34.6028C72.7087 34.4495 72.4097 34.3728 72.0417 34.3728C71.689 34.3728 71.367 34.4418 71.0757 34.5798C70.7844 34.7178 70.5467 34.9248 70.3627 35.2008C70.1787 35.4615 70.0407 35.7911 69.9487 36.1898L69.0517 40.3988C69.0057 40.5981 69.0287 40.7745 69.1207 40.9278C69.228 41.0811 69.3737 41.2115 69.5577 41.3188C69.7417 41.4261 69.9334 41.5028 70.1327 41.5488C70.3474 41.5948 70.5467 41.6178 70.7307 41.6178C71.068 41.6178 71.3594 41.5488 71.6047 41.4108C71.8654 41.2728 72.08 41.0811 72.2487 40.8358C72.4174 40.5751 72.5324 40.2685 72.5937 39.9158L73.3987 36.1898ZM76.3274 45.0218C76.4961 44.8071 76.6264 44.5848 76.7184 44.3548C76.8258 44.1401 76.9331 43.9178 77.0404 43.6878C76.7491 43.6111 76.5344 43.4501 76.3964 43.2048C76.2584 42.9595 76.2201 42.6758 76.2814 42.3538C76.3581 41.9858 76.5574 41.6638 76.8794 41.3878C77.2168 41.1118 77.5771 40.9738 77.9604 40.9738C78.3284 40.9738 78.6121 41.1118 78.8114 41.3878C79.0108 41.6638 79.0721 41.9858 78.9954 42.3538C78.9034 42.8751 78.7348 43.3275 78.4894 43.7108C78.2594 44.0941 78.0064 44.4085 77.7304 44.6538C77.4698 44.9145 77.2474 45.1061 77.0634 45.2288C76.8794 45.3515 76.7951 45.4128 76.8104 45.4128L76.3274 45.0218ZM87.9367 48.3108L90.5587 43.5038L88.8337 31.9808H91.2717L92.4677 40.0768L96.8377 31.9808H99.2757L90.4207 48.3108H87.9367ZM104.199 43.5038L104.889 40.2608C104.767 40.3681 104.575 40.4831 104.314 40.6058C104.054 40.7285 103.755 40.8358 103.417 40.9278C103.095 41.0045 102.773 41.0428 102.451 41.0428C101.991 41.0428 101.554 40.9738 101.14 40.8358C100.726 40.6978 100.374 40.4831 100.082 40.1918C99.791 39.8851 99.5916 39.4941 99.4843 39.0188C99.377 38.5281 99.3923 37.9378 99.5303 37.2478L100.634 32.0038H103.233L102.129 37.1788C102.068 37.4395 102.053 37.6695 102.083 37.8688C102.129 38.0681 102.206 38.2291 102.313 38.3518C102.436 38.4745 102.589 38.5665 102.773 38.6278C102.957 38.6891 103.164 38.7198 103.394 38.7198C103.655 38.7198 103.9 38.6738 104.13 38.5818C104.376 38.4745 104.598 38.3365 104.797 38.1678C105.012 37.9991 105.188 37.7998 105.326 37.5698C105.464 37.3398 105.564 37.0945 105.625 36.8338L106.131 34.4418C106.208 34.1198 106.331 33.7978 106.499 33.4758C106.668 33.1538 106.89 32.8625 107.166 32.6018C107.442 32.3258 107.772 32.1111 108.155 31.9578C108.554 31.7891 109.014 31.7048 109.535 31.7048L109.949 33.4988C109.489 33.5908 109.152 33.7901 108.937 34.0968C108.738 34.3881 108.592 34.7331 108.5 35.1318L106.729 43.5038H104.199ZM119.792 32.3028C119.638 32.7781 119.508 33.2075 119.401 33.5908C119.309 33.9588 119.232 34.2731 119.171 34.5338L117.285 43.3888C117.285 43.3888 117.177 43.3965 116.963 43.4118C116.763 43.4271 116.487 43.4501 116.135 43.4808C115.797 43.4961 115.414 43.5115 114.985 43.5268C114.571 43.5421 114.149 43.5575 113.72 43.5728C113.306 43.5881 112.922 43.5958 112.57 43.5958C111.864 43.5958 111.289 43.4885 110.845 43.2738C110.415 43.0591 110.093 42.7678 109.879 42.3998C109.664 42.0318 109.541 41.6101 109.511 41.1348C109.495 40.6441 109.541 40.1305 109.649 39.5938L110.569 35.3388C110.707 34.6641 110.898 34.1045 111.144 33.6598C111.404 33.1998 111.696 32.8395 112.018 32.5788C112.355 32.3028 112.723 32.1111 113.122 32.0038C113.52 31.8811 113.95 31.8198 114.41 31.8198C114.885 31.8198 115.322 31.8505 115.721 31.9118C116.119 31.9731 116.449 32.0421 116.71 32.1188C116.986 32.1955 117.177 32.2568 117.285 32.3028C117.285 32.3028 117.315 32.2415 117.377 32.1188C117.453 31.9808 117.538 31.8505 117.63 31.7278L119.792 32.3028ZM112.179 39.6168C112.087 40.1228 112.071 40.5138 112.133 40.7898C112.194 41.0505 112.332 41.2345 112.547 41.3418C112.777 41.4338 113.076 41.4798 113.444 41.4798C113.582 41.4798 113.72 41.4798 113.858 41.4798C113.996 41.4798 114.134 41.4798 114.272 41.4798C114.41 41.4645 114.548 41.4491 114.686 41.4338C114.839 41.4185 114.992 41.4031 115.146 41.3878L116.572 34.6028C116.464 34.5415 116.334 34.4878 116.181 34.4418C116.027 34.3805 115.859 34.3268 115.675 34.2808C115.506 34.2348 115.337 34.2041 115.169 34.1888C115.015 34.1581 114.877 34.1428 114.755 34.1428C114.632 34.1428 114.486 34.1505 114.318 34.1658C114.164 34.1811 114.003 34.2348 113.835 34.3268C113.666 34.4035 113.513 34.5261 113.375 34.6948C113.237 34.8635 113.137 35.1011 113.076 35.4078L112.179 39.6168ZM127.937 34.4418C127.661 34.2885 127.347 34.1735 126.994 34.0968C126.657 34.0048 126.312 33.9511 125.959 33.9358C125.545 33.9358 125.154 34.0048 124.786 34.1428C124.418 34.2655 124.104 34.4725 123.843 34.7638C123.583 35.0398 123.406 35.4078 123.314 35.8678L122.555 39.4788C122.479 39.8315 122.471 40.1458 122.532 40.4218C122.594 40.6825 122.709 40.8971 122.877 41.0658C123.061 41.2345 123.291 41.3648 123.567 41.4568C123.843 41.5335 124.158 41.5718 124.51 41.5718C124.756 41.5718 125.001 41.5641 125.246 41.5488C125.507 41.5181 125.737 41.4875 125.936 41.4568C126.136 41.4108 126.297 41.3801 126.419 41.3648C126.542 41.3341 126.603 41.3188 126.603 41.3188L126.626 43.3888C126.12 43.5115 125.607 43.6111 125.085 43.6878C124.564 43.7645 124.043 43.7951 123.521 43.7798C122.647 43.7645 121.911 43.6035 121.313 43.2968C120.715 42.9901 120.301 42.5225 120.071 41.8938C119.841 41.2651 119.826 40.4678 120.025 39.5018L120.761 36.1438C120.961 35.2545 121.275 34.4725 121.704 33.7978C122.149 33.1231 122.732 32.6018 123.452 32.2338C124.188 31.8658 125.085 31.6971 126.143 31.7278C126.634 31.7431 127.109 31.8198 127.569 31.9578C128.045 32.0958 128.489 32.2721 128.903 32.4868L127.937 34.4418ZM133.337 40.0998C133.26 40.4831 133.237 40.8128 133.268 41.0888C133.314 41.3648 133.421 41.5948 133.59 41.7788C133.774 41.9475 134.027 42.0931 134.349 42.2158L132.877 43.9638C132.447 43.8411 132.072 43.6801 131.75 43.4808C131.443 43.2661 131.198 43.0131 131.014 42.7218C130.83 42.4151 130.715 42.0701 130.669 41.6868C130.623 41.3035 130.646 40.8895 130.738 40.4448L132.026 34.3728H129.887L130.393 31.9808H137.362L136.856 34.3728H134.556L133.337 40.0998ZM143.994 36.0058L144.845 32.0038H147.375L144.937 43.5038H142.407L143.488 38.4208H140.084L139.003 43.5038H136.45L138.888 32.0038H141.441L140.59 36.0058H143.994ZM151.661 32.0038L150.212 38.8348L155.042 32.0038H157.618L155.18 43.5268H152.604L154.03 36.7418L149.223 43.5268H146.693L149.131 32.0038H151.661ZM165.077 39.8238C165.276 40.2071 165.445 40.5061 165.583 40.7208C165.736 40.9201 165.882 41.0581 166.02 41.1348C166.173 41.2115 166.342 41.2498 166.526 41.2498H166.641L166.089 43.5038H165.744C165.176 43.5038 164.693 43.3811 164.295 43.1358C163.911 42.8905 163.582 42.5685 163.306 42.1698C163.045 41.7711 162.8 41.3495 162.57 40.9048L161.282 38.3978L160.477 39.0188L159.534 43.5038H156.981L159.488 31.7278L161.972 32.0038L161.167 35.8218L165.514 31.9808H168.665L163.467 36.6038L165.077 39.8238ZM183.543 41.0658C183.527 41.3111 183.558 41.5105 183.635 41.6638C183.727 41.8171 183.857 41.9551 184.026 42.0778L182.14 43.8948C182.155 43.8948 182.078 43.8565 181.91 43.7798C181.756 43.7031 181.58 43.5805 181.381 43.4118C181.197 43.2431 181.051 43.0131 180.944 42.7218C180.836 42.4151 180.829 42.0318 180.921 41.5718L182.462 34.3728H178.828L176.896 43.5038H174.343L176.804 31.9808H185.475L183.543 41.0658ZM194.526 39.2488C194.25 40.5981 193.675 41.6868 192.801 42.5148C191.943 43.3275 190.808 43.7338 189.397 43.7338C188.385 43.7338 187.603 43.5268 187.051 43.1128C186.515 42.6835 186.17 42.1315 186.016 41.4568C185.863 40.7668 185.863 40.0308 186.016 39.2488L186.683 36.2128C186.898 35.2315 187.235 34.4111 187.695 33.7518C188.171 33.0925 188.761 32.5941 189.466 32.2568C190.187 31.9041 191.015 31.7278 191.95 31.7278C193.284 31.7278 194.235 32.1265 194.802 32.9238C195.37 33.7058 195.5 34.8021 195.193 36.2128L194.526 39.2488ZM192.617 36.0748C192.694 35.7068 192.702 35.3925 192.64 35.1318C192.579 34.8558 192.441 34.6488 192.226 34.5108C192.027 34.3575 191.743 34.2808 191.375 34.2808C191.007 34.2808 190.678 34.3498 190.386 34.4878C190.11 34.6258 189.873 34.8251 189.673 35.0858C189.489 35.3465 189.351 35.6761 189.259 36.0748L188.546 39.4328C188.485 39.7395 188.485 40.0308 188.546 40.3068C188.608 40.5828 188.746 40.8051 188.96 40.9738C189.175 41.1425 189.489 41.2268 189.903 41.2268C190.287 41.2268 190.609 41.1501 190.869 40.9968C191.145 40.8435 191.368 40.6288 191.536 40.3528C191.705 40.0768 191.828 39.7701 191.904 39.4328L192.617 36.0748ZM204.454 41.0658C204.438 41.3111 204.469 41.5105 204.546 41.6638C204.638 41.8171 204.768 41.9551 204.937 42.0778L203.051 43.8948C203.066 43.8948 202.989 43.8565 202.821 43.7798C202.667 43.7031 202.491 43.5805 202.292 43.4118C202.108 43.2431 201.962 43.0131 201.855 42.7218C201.747 42.4151 201.74 42.0318 201.832 41.5718L203.373 34.3728H199.739L197.807 43.5038H195.254L197.715 31.9808H206.386L204.454 41.0658ZM207.227 48.3108L209.849 43.5038L208.124 31.9808H210.562L211.758 40.0768L216.128 31.9808H218.566L209.711 48.3108H207.227ZM226.594 32.0038H230.458L228.02 43.4808H225.467L227.445 34.1658H226.732C226.41 34.1658 226.119 34.2041 225.858 34.2808C225.613 34.3575 225.383 34.4955 225.168 34.6948C224.969 34.8941 224.77 35.1855 224.57 35.5688L222.224 40.2608C221.795 41.1041 221.381 41.7788 220.982 42.2848C220.599 42.7755 220.162 43.1588 219.671 43.4348C219.196 43.6955 218.606 43.9025 217.9 44.0558L216.865 42.8368C217.203 42.6681 217.494 42.5148 217.739 42.3768C218 42.2388 218.245 42.0395 218.475 41.7788C218.721 41.5181 218.981 41.1271 219.257 40.6058L221.902 35.4538C222.086 35.0858 222.309 34.7025 222.569 34.3038C222.83 33.9051 223.137 33.5295 223.489 33.1768C223.857 32.8241 224.294 32.5405 224.8 32.3258C225.306 32.1111 225.904 32.0038 226.594 32.0038ZM236.143 31.7508C236.434 31.7508 236.779 31.7585 237.178 31.7738C237.592 31.7891 238.013 31.8121 238.443 31.8428C238.872 31.8581 239.271 31.8811 239.639 31.9118C240.022 31.9425 240.329 31.9655 240.559 31.9808C240.804 31.9961 240.927 32.0038 240.927 32.0038L238.489 43.5038H235.936L236.902 38.9728H235.614C235.552 38.9728 235.483 38.9728 235.407 38.9728C235.345 38.9728 235.284 38.9728 235.223 38.9728C235.161 38.9728 235.092 38.9728 235.016 38.9728L232.532 43.5038H229.795L232.693 38.5588C232.355 38.3901 232.056 38.1678 231.796 37.8918C231.55 37.6005 231.382 37.2478 231.29 36.8338C231.198 36.4198 231.205 35.9521 231.313 35.4308C231.435 34.8328 231.704 34.2501 232.118 33.6828C232.532 33.1155 233.076 32.6555 233.751 32.3028C234.425 31.9348 235.223 31.7508 236.143 31.7508ZM235.269 36.5808H237.408L237.868 34.3958C237.699 34.3958 237.523 34.3958 237.339 34.3958C237.17 34.3805 237.001 34.3728 236.833 34.3728C236.679 34.3575 236.534 34.3498 236.396 34.3498C236.258 34.3498 236.135 34.3498 236.028 34.3498C235.506 34.3498 235.054 34.4341 234.671 34.6028C234.287 34.7561 234.05 35.0551 233.958 35.4998C233.912 35.6838 233.912 35.8448 233.958 35.9828C234.004 36.1208 234.08 36.2358 234.188 36.3278C234.31 36.4198 234.464 36.4888 234.648 36.5348C234.832 36.5655 235.039 36.5808 235.269 36.5808ZM249.647 39.5708C249.463 40.5061 249.148 41.2958 248.704 41.9398C248.274 42.5838 247.738 43.0745 247.094 43.4118C246.45 43.7338 245.698 43.8948 244.84 43.8948C244.656 43.8948 244.472 43.8795 244.288 43.8488C244.104 43.8181 243.927 43.7798 243.759 43.7338C243.59 43.6878 243.429 43.6265 243.276 43.5498C243.138 43.4885 243.007 43.4195 242.885 43.3428L241.804 48.4718L239.389 47.8968L241.85 36.3278C242.156 34.8711 242.762 33.7595 243.667 32.9928C244.587 32.2108 245.744 31.8198 247.14 31.8198C248.458 31.8198 249.401 32.2185 249.969 33.0158C250.536 33.8131 250.666 34.9171 250.36 36.3278L249.647 39.5708ZM247.853 36.1898C247.929 35.8218 247.929 35.5075 247.853 35.2468C247.776 34.9708 247.623 34.7561 247.393 34.6028C247.163 34.4495 246.864 34.3728 246.496 34.3728C246.143 34.3728 245.821 34.4418 245.53 34.5798C245.238 34.7178 245.001 34.9248 244.817 35.2008C244.633 35.4615 244.495 35.7911 244.403 36.1898L243.506 40.3988C243.46 40.5981 243.483 40.7745 243.575 40.9278C243.682 41.0811 243.828 41.2115 244.012 41.3188C244.196 41.4261 244.387 41.5028 244.587 41.5488C244.801 41.5948 245.001 41.6178 245.185 41.6178C245.522 41.6178 245.813 41.5488 246.059 41.4108C246.319 41.2728 246.534 41.0811 246.703 40.8358C246.871 40.5751 246.986 40.2685 247.048 39.9158L247.853 36.1898ZM258.095 36.0058L258.946 32.0038H261.476L259.038 43.5038H256.508L257.589 38.4208H254.185L253.104 43.5038H250.551L252.989 32.0038H255.542L254.691 36.0058H258.095ZM271.076 43.5038L273.537 31.9808H276.067L273.629 43.5038H271.076ZM267.212 36.5348C267.902 36.5348 268.523 36.6575 269.075 36.9028C269.642 37.1328 270.064 37.5085 270.34 38.0298C270.616 38.5358 270.662 39.2028 270.478 40.0308C270.355 40.6288 270.087 41.2115 269.673 41.7788C269.259 42.3308 268.714 42.7908 268.04 43.1588C267.365 43.5268 266.568 43.7108 265.648 43.7108C265.356 43.7108 265.004 43.7031 264.59 43.6878C264.191 43.6725 263.769 43.6495 263.325 43.6188C262.895 43.5881 262.489 43.5575 262.106 43.5268C261.722 43.5115 261.408 43.4961 261.163 43.4808C260.933 43.4655 260.818 43.4578 260.818 43.4578L263.256 32.0038H265.809L264.843 36.5348H267.212ZM265.763 41.1118C266.115 41.1118 266.43 41.0811 266.706 41.0198C266.997 40.9431 267.242 40.8205 267.442 40.6518C267.641 40.4831 267.771 40.2531 267.833 39.9618C267.879 39.7778 267.879 39.6168 267.833 39.4788C267.787 39.3408 267.702 39.2258 267.58 39.1338C267.472 39.0418 267.327 38.9805 267.143 38.9498C266.959 38.9038 266.752 38.8808 266.522 38.8808H264.36L263.9 41.0658C264.068 41.0658 264.237 41.0735 264.406 41.0888C264.59 41.0888 264.758 41.0965 264.912 41.1118C265.08 41.1118 265.234 41.1118 265.372 41.1118C265.525 41.1118 265.655 41.1118 265.763 41.1118ZM282.108 35.5228L285.052 31.9808H288.41L283.235 38.0988L285.604 43.5038H282.775L281.395 40.2838L278.75 43.5038H275.346L280.245 37.7538L277.784 31.9808H280.544L282.108 35.5228ZM302.324 34.4418C302.048 34.2885 301.734 34.1735 301.381 34.0968C301.044 34.0048 300.699 33.9511 300.346 33.9358C299.932 33.9358 299.541 34.0048 299.173 34.1428C298.805 34.2655 298.491 34.4725 298.23 34.7638C297.969 35.0398 297.793 35.4078 297.701 35.8678L296.942 39.4788C296.865 39.8315 296.858 40.1458 296.919 40.4218C296.98 40.6825 297.095 40.8971 297.264 41.0658C297.448 41.2345 297.678 41.3648 297.954 41.4568C298.23 41.5335 298.544 41.5718 298.897 41.5718C299.142 41.5718 299.388 41.5641 299.633 41.5488C299.894 41.5181 300.124 41.4875 300.323 41.4568C300.522 41.4108 300.683 41.3801 300.806 41.3648C300.929 41.3341 300.99 41.3188 300.99 41.3188L301.013 43.3888C300.507 43.5115 299.993 43.6111 299.472 43.6878C298.951 43.7645 298.429 43.7951 297.908 43.7798C297.034 43.7645 296.298 43.6035 295.7 43.2968C295.102 42.9901 294.688 42.5225 294.458 41.8938C294.228 41.2651 294.213 40.4678 294.412 39.5018L295.148 36.1438C295.347 35.2545 295.662 34.4725 296.091 33.7978C296.536 33.1231 297.118 32.6018 297.839 32.2338C298.575 31.8658 299.472 31.6971 300.53 31.7278C301.021 31.7431 301.496 31.8198 301.956 31.9578C302.431 32.0958 302.876 32.2721 303.29 32.4868L302.324 34.4418ZM307.724 40.0998C307.647 40.4831 307.624 40.8128 307.655 41.0888C307.701 41.3648 307.808 41.5948 307.977 41.7788C308.161 41.9475 308.414 42.0931 308.736 42.2158L307.264 43.9638C306.834 43.8411 306.459 43.6801 306.137 43.4808C305.83 43.2661 305.585 43.0131 305.401 42.7218C305.217 42.4151 305.102 42.0701 305.056 41.6868C305.01 41.3035 305.033 40.8895 305.125 40.4448L306.413 34.3728H304.274L304.78 31.9808H311.749L311.243 34.3728H308.943L307.724 40.0998ZM320.152 39.5708C319.968 40.5061 319.653 41.2958 319.209 41.9398C318.779 42.5838 318.243 43.0745 317.599 43.4118C316.955 43.7338 316.203 43.8948 315.345 43.8948C315.161 43.8948 314.977 43.8795 314.793 43.8488C314.609 43.8181 314.432 43.7798 314.264 43.7338C314.095 43.6878 313.934 43.6265 313.781 43.5498C313.643 43.4885 313.512 43.4195 313.39 43.3428L312.309 48.4718L309.894 47.8968L312.355 36.3278C312.661 34.8711 313.267 33.7595 314.172 32.9928C315.092 32.2108 316.249 31.8198 317.645 31.8198C318.963 31.8198 319.906 32.2185 320.474 33.0158C321.041 33.8131 321.171 34.9171 320.865 36.3278L320.152 39.5708ZM318.358 36.1898C318.434 35.8218 318.434 35.5075 318.358 35.2468C318.281 34.9708 318.128 34.7561 317.898 34.6028C317.668 34.4495 317.369 34.3728 317.001 34.3728C316.648 34.3728 316.326 34.4418 316.035 34.5798C315.743 34.7178 315.506 34.9248 315.322 35.2008C315.138 35.4615 315 35.7911 314.908 36.1898L314.011 40.3988C313.965 40.5981 313.988 40.7745 314.08 40.9278C314.187 41.0811 314.333 41.2115 314.517 41.3188C314.701 41.4261 314.892 41.5028 315.092 41.5488C315.306 41.5948 315.506 41.6178 315.69 41.6178C316.027 41.6178 316.318 41.5488 316.564 41.4108C316.824 41.2728 317.039 41.0811 317.208 40.8358C317.376 40.5751 317.491 40.2685 317.553 39.9158L318.358 36.1898ZM326.07 32.0038L324.621 38.8348L329.451 32.0038H332.027L329.589 43.5268H327.013L328.439 36.7418L323.632 43.5268H321.102L323.54 32.0038H326.07ZM342.752 32.0038H345.558L343.12 43.5268H340.59L341.878 37.4318L338.198 43.5268H336.289L335.139 37.4318L333.851 43.5268H331.298L333.736 32.0038H336.588L337.945 40.0998L342.752 32.0038ZM354.134 39.2488C353.858 40.5981 353.283 41.6868 352.409 42.5148C351.55 43.3275 350.416 43.7338 349.005 43.7338C347.993 43.7338 347.211 43.5268 346.659 43.1128C346.122 42.6835 345.777 42.1315 345.624 41.4568C345.471 40.7668 345.471 40.0308 345.624 39.2488L346.291 36.2128C346.506 35.2315 346.843 34.4111 347.303 33.7518C347.778 33.0925 348.369 32.5941 349.074 32.2568C349.795 31.9041 350.623 31.7278 351.558 31.7278C352.892 31.7278 353.843 32.1265 354.41 32.9238C354.977 33.7058 355.108 34.8021 354.801 36.2128L354.134 39.2488ZM352.225 36.0748C352.302 35.7068 352.309 35.3925 352.248 35.1318C352.187 34.8558 352.049 34.6488 351.834 34.5108C351.635 34.3575 351.351 34.2808 350.983 34.2808C350.615 34.2808 350.285 34.3498 349.994 34.4878C349.718 34.6258 349.48 34.8251 349.281 35.0858C349.097 35.3465 348.959 35.6761 348.867 36.0748L348.154 39.4328C348.093 39.7395 348.093 40.0308 348.154 40.3068C348.215 40.5828 348.353 40.8051 348.568 40.9738C348.783 41.1425 349.097 41.2268 349.511 41.2268C349.894 41.2268 350.216 41.1501 350.477 40.9968C350.753 40.8435 350.975 40.6288 351.144 40.3528C351.313 40.0768 351.435 39.7701 351.512 39.4328L352.225 36.0748ZM363.44 37.1328C363.854 37.4395 364.13 37.8535 364.268 38.3748C364.421 38.8961 364.437 39.4635 364.314 40.0768C364.191 40.6748 363.923 41.2575 363.509 41.8248C363.095 42.3768 362.551 42.8368 361.876 43.2048C361.201 43.5728 360.404 43.7568 359.484 43.7568C359.193 43.7568 358.848 43.7491 358.449 43.7338C358.05 43.7185 357.636 43.6955 357.207 43.6648C356.778 43.6341 356.379 43.6035 356.011 43.5728C355.643 43.5575 355.344 43.5421 355.114 43.5268C354.884 43.5115 354.769 43.5038 354.769 43.5038L357.207 31.9808C357.207 31.9808 357.307 31.9731 357.506 31.9578C357.721 31.9271 358.02 31.8965 358.403 31.8658C358.802 31.8198 359.269 31.7891 359.806 31.7738C360.343 31.7431 360.941 31.7278 361.6 31.7278C362.06 31.7278 362.505 31.7815 362.934 31.8888C363.363 31.9961 363.739 32.1571 364.061 32.3718C364.398 32.5865 364.651 32.8701 364.82 33.2228C365.004 33.5601 365.081 33.9741 365.05 34.4648C365.019 34.9401 364.851 35.4308 364.544 35.9368C364.253 36.4275 363.885 36.8261 363.44 37.1328ZM361.186 33.9588C361.048 33.9588 360.902 33.9588 360.749 33.9588C360.596 33.9588 360.435 33.9665 360.266 33.9818C360.113 33.9818 359.952 33.9895 359.783 34.0048C359.63 34.0048 359.476 34.0048 359.323 34.0048L358.771 36.5578H359.944C360.496 36.5578 360.941 36.4888 361.278 36.3508C361.615 36.2128 361.868 36.0365 362.037 35.8218C362.221 35.6071 362.336 35.3925 362.382 35.1778C362.428 34.9785 362.42 34.8098 362.359 34.6718C362.298 34.5185 362.206 34.3881 362.083 34.2808C361.976 34.1735 361.838 34.0968 361.669 34.0508C361.516 33.9895 361.355 33.9588 361.186 33.9588ZM359.599 41.1578C359.952 41.1578 360.281 41.1195 360.588 41.0428C360.895 40.9661 361.155 40.8435 361.37 40.6748C361.585 40.4908 361.723 40.2531 361.784 39.9618C361.83 39.7778 361.822 39.6091 361.761 39.4558C361.715 39.3025 361.623 39.1798 361.485 39.0878C361.362 38.9805 361.201 38.9038 361.002 38.8578C360.818 38.7965 360.611 38.7658 360.381 38.7658H358.311L357.805 41.1118C357.974 41.1118 358.142 41.1195 358.311 41.1348C358.48 41.1348 358.641 41.1425 358.794 41.1578C358.947 41.1578 359.093 41.1578 359.231 41.1578C359.369 41.1578 359.492 41.1578 359.599 41.1578Z" fill="white"/>
</g>
<defs>
<clipPath id="clip0_395_749">
<rect width="380" height="49" fill="white" transform="translate(0.333008)"/>
</clipPath>
</defs>
</svg>
