<svg width="358" height="49" viewBox="0 0 358 49" fill="none" xmlns="http://www.w3.org/2000/svg">
<path d="M21.7339 0.403809H24.3099L21.9179 11.6508L30.5429 0.403809H33.0959L29.6689 16.5038H27.1159L29.4389 5.60181L20.8829 16.5038H18.3069L21.7339 0.403809ZM34.6628 7.25781L35.2148 5.07281C35.6901 4.95014 36.1348 4.85814 36.5488 4.79681C36.9628 4.73547 37.3768 4.71247 37.7908 4.72781C38.5421 4.74314 39.1248 4.88881 39.5388 5.16481C39.9681 5.42547 40.2594 5.76281 40.4128 6.17681C40.5661 6.57547 40.6274 7.00481 40.5968 7.46481C40.5814 7.77147 40.4971 8.10881 40.3438 8.47681C40.1904 8.82947 39.9911 9.16681 39.7458 9.48881C39.5004 9.81081 39.2091 10.0791 38.8718 10.2938C39.2244 10.4778 39.5081 10.8535 39.7228 11.4208C39.9374 11.9881 39.9681 12.6015 39.8148 13.2608C39.6768 13.8588 39.4008 14.4261 38.9868 14.9628C38.5881 15.4841 38.0591 15.9135 37.3998 16.2508C36.7404 16.5881 35.9508 16.7568 35.0308 16.7568C34.3254 16.7568 33.6584 16.6878 33.0298 16.5498C32.4011 16.4118 31.8108 16.2201 31.2588 15.9748L32.4318 13.6978C32.6464 13.8205 32.8918 13.9278 33.1678 14.0198C33.4438 14.1118 33.7428 14.1808 34.0648 14.2268C34.3868 14.2728 34.7088 14.2958 35.0308 14.2958C35.4294 14.2958 35.7744 14.2421 36.0658 14.1348C36.3724 14.0275 36.6254 13.8818 36.8248 13.6978C37.0241 13.5138 37.1621 13.3068 37.2388 13.0768C37.3001 12.8928 37.3231 12.7241 37.3078 12.5708C37.3078 12.4021 37.2618 12.2565 37.1698 12.1338C37.0931 12.0111 36.9704 11.9191 36.8018 11.8578C36.6484 11.7965 36.4568 11.7658 36.2268 11.7658H34.5248L34.2718 9.55781H35.4908C36.0428 9.55781 36.4874 9.48881 36.8248 9.35081C37.1621 9.21281 37.4151 9.03647 37.5838 8.82181C37.7678 8.60714 37.8828 8.39247 37.9288 8.17781C37.9748 7.97847 37.9748 7.80981 37.9288 7.67181C37.8981 7.51847 37.8368 7.39581 37.7448 7.30381C37.6681 7.19647 37.5608 7.11981 37.4228 7.07381C37.2848 7.01247 37.1314 6.97414 36.9628 6.95881C36.6714 6.92814 36.3954 6.92814 36.1348 6.95881C35.8741 6.98947 35.6211 7.03547 35.3758 7.09681C35.1458 7.14281 34.9081 7.19647 34.6628 7.25781ZM49.3458 10.1328C49.7598 10.4395 50.0358 10.8535 50.1738 11.3748C50.3271 11.8961 50.3424 12.4635 50.2198 13.0768C50.0971 13.6748 49.8288 14.2575 49.4148 14.8248C49.0008 15.3768 48.4564 15.8368 47.7818 16.2048C47.1071 16.5728 46.3098 16.7568 45.3898 16.7568C45.0984 16.7568 44.7534 16.7491 44.3548 16.7338C43.9561 16.7185 43.5421 16.6955 43.1128 16.6648C42.6834 16.6341 42.2848 16.6035 41.9168 16.5728C41.5488 16.5575 41.2498 16.5421 41.0198 16.5268C40.7898 16.5115 40.6748 16.5038 40.6748 16.5038L43.1128 4.98081C43.1128 4.98081 43.2124 4.97314 43.4118 4.95781C43.6264 4.92714 43.9254 4.89647 44.3088 4.86581C44.7074 4.81981 45.1751 4.78914 45.7118 4.77381C46.2484 4.74314 46.8464 4.72781 47.5058 4.72781C47.9658 4.72781 48.4104 4.78147 48.8398 4.88881C49.2691 4.99614 49.6448 5.15714 49.9668 5.37181C50.3041 5.58647 50.5571 5.87014 50.7258 6.22281C50.9098 6.56014 50.9864 6.97414 50.9558 7.46481C50.9251 7.94014 50.7564 8.43081 50.4498 8.93681C50.1584 9.42747 49.7904 9.82614 49.3458 10.1328ZM47.0918 6.95881C46.9538 6.95881 46.8081 6.95881 46.6548 6.95881C46.5014 6.95881 46.3404 6.96647 46.1718 6.98181C46.0184 6.98181 45.8574 6.98947 45.6888 7.00481C45.5354 7.00481 45.3821 7.00481 45.2288 7.00481L44.6768 9.55781H45.8498C46.4018 9.55781 46.8464 9.48881 47.1838 9.35081C47.5211 9.21281 47.7741 9.03647 47.9428 8.82181C48.1268 8.60714 48.2418 8.39247 48.2878 8.17781C48.3338 7.97847 48.3261 7.80981 48.2648 7.67181C48.2034 7.51847 48.1114 7.38814 47.9888 7.28081C47.8814 7.17347 47.7434 7.09681 47.5748 7.05081C47.4214 6.98947 47.2604 6.95881 47.0918 6.95881ZM45.5048 14.1578C45.8574 14.1578 46.1871 14.1195 46.4938 14.0428C46.8004 13.9661 47.0611 13.8435 47.2758 13.6748C47.4904 13.4908 47.6284 13.2531 47.6898 12.9618C47.7358 12.7778 47.7281 12.6091 47.6668 12.4558C47.6208 12.3025 47.5288 12.1798 47.3908 12.0878C47.2681 11.9805 47.1071 11.9038 46.9078 11.8578C46.7238 11.7965 46.5168 11.7658 46.2868 11.7658H44.2168L43.7108 14.1118C43.8794 14.1118 44.0481 14.1195 44.2168 14.1348C44.3854 14.1348 44.5464 14.1425 44.6998 14.1578C44.8531 14.1578 44.9988 14.1578 45.1368 14.1578C45.2748 14.1578 45.3974 14.1578 45.5048 14.1578ZM54.2273 13.0768C54.1813 13.2761 54.1737 13.4601 54.2043 13.6288C54.235 13.7821 54.2887 13.9201 54.3653 14.0428C54.4573 14.1655 54.58 14.2575 54.7333 14.3188C54.8867 14.3801 55.063 14.4108 55.2623 14.4108C55.6763 14.4108 56.167 14.3188 56.7343 14.1348C57.3017 13.9508 57.8537 13.7361 58.3903 13.4908L58.8503 15.6988C58.237 16.0361 57.5623 16.3045 56.8263 16.5038C56.0903 16.7031 55.3773 16.8028 54.6873 16.8028C54.1507 16.8028 53.66 16.7338 53.2153 16.5958C52.786 16.4578 52.4257 16.2508 52.1343 15.9748C51.8583 15.6988 51.6667 15.3461 51.5593 14.9168C51.4673 14.4875 51.4827 13.9815 51.6053 13.3988L52.6173 8.68381C52.8013 7.84047 53.1233 7.12747 53.5833 6.54481C54.0587 5.96214 54.6337 5.51747 55.3083 5.21081C55.9983 4.90414 56.7573 4.75081 57.5853 4.75081C58.4133 4.75081 59.1033 4.89647 59.6553 5.18781C60.2227 5.47914 60.6213 5.90847 60.8513 6.47581C61.0813 7.04314 61.1043 7.75614 60.9203 8.61481L60.1613 12.2028L54.3653 12.5018L54.2273 13.0768ZM58.2293 9.30481C58.2907 8.98281 58.3213 8.65314 58.3213 8.31581C58.3213 7.97847 58.237 7.70247 58.0683 7.48781C57.915 7.25781 57.6083 7.15814 57.1483 7.18881C56.673 7.20414 56.2973 7.30381 56.0213 7.48781C55.7607 7.65647 55.5537 7.89414 55.4003 8.20081C55.2623 8.49214 55.1397 8.85247 55.0323 9.28181L54.8483 10.1788L58.0683 9.97181L58.2293 9.30481ZM69.4483 7.44181C69.1723 7.28847 68.858 7.17347 68.5053 7.09681C68.168 7.00481 67.823 6.95114 67.4703 6.93581C67.0563 6.93581 66.6653 7.00481 66.2973 7.14281C65.9293 7.26547 65.615 7.47247 65.3543 7.76381C65.0936 8.03981 64.9173 8.40781 64.8253 8.86781L64.0663 12.4788C63.9896 12.8315 63.982 13.1458 64.0433 13.4218C64.1046 13.6825 64.2196 13.8971 64.3883 14.0658C64.5723 14.2345 64.8023 14.3648 65.0783 14.4568C65.3543 14.5335 65.6686 14.5718 66.0213 14.5718C66.2666 14.5718 66.512 14.5641 66.7573 14.5488C67.018 14.5181 67.248 14.4875 67.4473 14.4568C67.6466 14.4108 67.8076 14.3801 67.9303 14.3648C68.053 14.3341 68.1143 14.3188 68.1143 14.3188L68.1373 16.3888C67.6313 16.5115 67.1176 16.6111 66.5963 16.6878C66.075 16.7645 65.5536 16.7951 65.0323 16.7798C64.1583 16.7645 63.4223 16.6035 62.8243 16.2968C62.2263 15.9901 61.8123 15.5225 61.5823 14.8938C61.3523 14.2651 61.337 13.4678 61.5363 12.5018L62.2723 9.14381C62.4716 8.25447 62.786 7.47247 63.2153 6.79781C63.66 6.12314 64.2426 5.60181 64.9633 5.23381C65.6993 4.86581 66.5963 4.69714 67.6543 4.72781C68.145 4.74314 68.6203 4.81981 69.0803 4.95781C69.5556 5.09581 70.0003 5.27214 70.4143 5.48681L69.4483 7.44181ZM74.8479 13.0998C74.7712 13.4831 74.7482 13.8128 74.7789 14.0888C74.8249 14.3648 74.9322 14.5948 75.1009 14.7788C75.2849 14.9475 75.5379 15.0931 75.8599 15.2158L74.3879 16.9638C73.9586 16.8411 73.5829 16.6801 73.2609 16.4808C72.9542 16.2661 72.7089 16.0131 72.5249 15.7218C72.3409 15.4151 72.2259 15.0701 72.1799 14.6868C72.1339 14.3035 72.1569 13.8895 72.2489 13.4448L73.5369 7.37281H71.3979L71.9039 4.98081H78.8729L78.3669 7.37281H76.0669L74.8479 13.0998ZM85.505 9.00581L86.356 5.00381H88.886L86.448 16.5038H83.918L84.999 11.4208H81.595L80.514 16.5038H77.961L80.399 5.00381H82.952L82.101 9.00581H85.505ZM99.0373 5.30281C98.8839 5.77814 98.7536 6.20747 98.6463 6.59081C98.5543 6.95881 98.4776 7.27314 98.4163 7.53381L96.5303 16.3888C96.5303 16.3888 96.4229 16.3965 96.2083 16.4118C96.0089 16.4271 95.7329 16.4501 95.3803 16.4808C95.0429 16.4961 94.6596 16.5115 94.2303 16.5268C93.8163 16.5421 93.3946 16.5575 92.9653 16.5728C92.5513 16.5881 92.1679 16.5958 91.8153 16.5958C91.1099 16.5958 90.5349 16.4885 90.0903 16.2738C89.6609 16.0591 89.3389 15.7678 89.1243 15.3998C88.9096 15.0318 88.7869 14.6101 88.7563 14.1348C88.7409 13.6441 88.7869 13.1305 88.8943 12.5938L89.8143 8.33881C89.9523 7.66414 90.1439 7.10447 90.3893 6.65981C90.6499 6.19981 90.9413 5.83947 91.2633 5.57881C91.6006 5.30281 91.9686 5.11114 92.3673 5.00381C92.7659 4.88114 93.1953 4.81981 93.6553 4.81981C94.1306 4.81981 94.5676 4.85047 94.9663 4.91181C95.3649 4.97314 95.6946 5.04214 95.9553 5.11881C96.2313 5.19547 96.4229 5.25681 96.5303 5.30281C96.5303 5.30281 96.5609 5.24147 96.6223 5.11881C96.6989 4.98081 96.7833 4.85047 96.8753 4.72781L99.0373 5.30281ZM91.4243 12.6168C91.3323 13.1228 91.3169 13.5138 91.3783 13.7898C91.4396 14.0505 91.5776 14.2345 91.7923 14.3418C92.0223 14.4338 92.3213 14.4798 92.6893 14.4798C92.8273 14.4798 92.9653 14.4798 93.1033 14.4798C93.2413 14.4798 93.3793 14.4798 93.5173 14.4798C93.6553 14.4645 93.7933 14.4491 93.9313 14.4338C94.0846 14.4185 94.2379 14.4031 94.3913 14.3878L95.8173 7.60281C95.7099 7.54147 95.5796 7.48781 95.4263 7.44181C95.2729 7.38047 95.1043 7.32681 94.9203 7.28081C94.7516 7.23481 94.5829 7.20414 94.4143 7.18881C94.2609 7.15814 94.1229 7.14281 94.0003 7.14281C93.8776 7.14281 93.7319 7.15047 93.5633 7.16581C93.4099 7.18114 93.2489 7.23481 93.0803 7.32681C92.9116 7.40347 92.7583 7.52614 92.6203 7.69481C92.4823 7.86347 92.3826 8.10114 92.3213 8.40781L91.4243 12.6168ZM104.791 4.75081C105.082 4.75081 105.427 4.75847 105.826 4.77381C106.24 4.78914 106.661 4.81214 107.091 4.84281C107.52 4.85814 107.919 4.88114 108.287 4.91181C108.67 4.94247 108.977 4.96547 109.207 4.98081C109.452 4.99614 109.575 5.00381 109.575 5.00381L107.137 16.5038H104.584L105.55 11.9728H104.262C104.2 11.9728 104.131 11.9728 104.055 11.9728C103.993 11.9728 103.932 11.9728 103.871 11.9728C103.809 11.9728 103.74 11.9728 103.664 11.9728L101.18 16.5038H98.4427L101.341 11.5588C101.003 11.3901 100.704 11.1678 100.444 10.8918C100.198 10.6005 100.03 10.2478 99.9377 9.83381C99.8457 9.41981 99.8533 8.95214 99.9607 8.43081C100.083 7.83281 100.352 7.25014 100.766 6.68281C101.18 6.11547 101.724 5.65547 102.399 5.30281C103.073 4.93481 103.871 4.75081 104.791 4.75081ZM103.917 9.58081H106.056L106.516 7.39581C106.347 7.39581 106.171 7.39581 105.987 7.39581C105.818 7.38047 105.649 7.37281 105.481 7.37281C105.327 7.35747 105.182 7.34981 105.044 7.34981C104.906 7.34981 104.783 7.34981 104.676 7.34981C104.154 7.34981 103.702 7.43414 103.319 7.60281C102.935 7.75614 102.698 8.05514 102.606 8.49981C102.56 8.68381 102.56 8.84481 102.606 8.98281C102.652 9.12081 102.728 9.23581 102.836 9.32781C102.958 9.41981 103.112 9.48881 103.296 9.53481C103.48 9.56547 103.687 9.58081 103.917 9.58081ZM124.051 7.44181C123.775 7.28847 123.461 7.17347 123.108 7.09681C122.771 7.00481 122.426 6.95114 122.073 6.93581C121.659 6.93581 121.268 7.00481 120.9 7.14281C120.532 7.26547 120.218 7.47247 119.957 7.76381C119.696 8.03981 119.52 8.40781 119.428 8.86781L118.669 12.4788C118.592 12.8315 118.585 13.1458 118.646 13.4218C118.707 13.6825 118.822 13.8971 118.991 14.0658C119.175 14.2345 119.405 14.3648 119.681 14.4568C119.957 14.5335 120.271 14.5718 120.624 14.5718C120.869 14.5718 121.115 14.5641 121.36 14.5488C121.621 14.5181 121.851 14.4875 122.05 14.4568C122.249 14.4108 122.41 14.3801 122.533 14.3648C122.656 14.3341 122.717 14.3188 122.717 14.3188L122.74 16.3888C122.234 16.5115 121.72 16.6111 121.199 16.6878C120.678 16.7645 120.156 16.7951 119.635 16.7798C118.761 16.7645 118.025 16.6035 117.427 16.2968C116.829 15.9901 116.415 15.5225 116.185 14.8938C115.955 14.2651 115.94 13.4678 116.139 12.5018L116.875 9.14381C117.074 8.25447 117.389 7.47247 117.818 6.79781C118.263 6.12314 118.845 5.60181 119.566 5.23381C120.302 4.86581 121.199 4.69714 122.257 4.72781C122.748 4.74314 123.223 4.81981 123.683 4.95781C124.158 5.09581 124.603 5.27214 125.017 5.48681L124.051 7.44181ZM129.451 13.0998C129.374 13.4831 129.351 13.8128 129.382 14.0888C129.428 14.3648 129.535 14.5948 129.704 14.7788C129.888 14.9475 130.141 15.0931 130.463 15.2158L128.991 16.9638C128.561 16.8411 128.186 16.6801 127.864 16.4808C127.557 16.2661 127.312 16.0131 127.128 15.7218C126.944 15.4151 126.829 15.0701 126.783 14.6868C126.737 14.3035 126.76 13.8895 126.852 13.4448L128.14 7.37281H126.001L126.507 4.98081H133.476L132.97 7.37281H130.67L129.451 13.0998ZM141.879 12.5708C141.695 13.5061 141.38 14.2958 140.936 14.9398C140.506 15.5838 139.97 16.0745 139.326 16.4118C138.682 16.7338 137.93 16.8948 137.072 16.8948C136.888 16.8948 136.704 16.8795 136.52 16.8488C136.336 16.8181 136.159 16.7798 135.991 16.7338C135.822 16.6878 135.661 16.6265 135.508 16.5498C135.37 16.4885 135.239 16.4195 135.117 16.3428L134.036 21.4718L131.621 20.8968L134.082 9.32781C134.388 7.87114 134.994 6.75947 135.899 5.99281C136.819 5.21081 137.976 4.81981 139.372 4.81981C140.69 4.81981 141.633 5.21847 142.201 6.01581C142.768 6.81314 142.898 7.91714 142.592 9.32781L141.879 12.5708ZM140.085 9.18981C140.161 8.82181 140.161 8.50747 140.085 8.24681C140.008 7.97081 139.855 7.75614 139.625 7.60281C139.395 7.44947 139.096 7.37281 138.728 7.37281C138.375 7.37281 138.053 7.44181 137.762 7.57981C137.47 7.71781 137.233 7.92481 137.049 8.20081C136.865 8.46147 136.727 8.79114 136.635 9.18981L135.738 13.3988C135.692 13.5981 135.715 13.7745 135.807 13.9278C135.914 14.0811 136.06 14.2115 136.244 14.3188C136.428 14.4261 136.619 14.5028 136.819 14.5488C137.033 14.5948 137.233 14.6178 137.417 14.6178C137.754 14.6178 138.045 14.5488 138.291 14.4108C138.551 14.2728 138.766 14.0811 138.935 13.8358C139.103 13.5751 139.218 13.2685 139.28 12.9158L140.085 9.18981ZM147.797 5.00381L146.348 11.8348L151.178 5.00381H153.754L151.316 16.5268H148.74L150.166 9.74181L145.359 16.5268H142.829L145.267 5.00381H147.797ZM164.479 5.00381H167.285L164.847 16.5268H162.317L163.605 10.4318L159.925 16.5268H158.016L156.866 10.4318L155.578 16.5268H153.025L155.463 5.00381H158.315L159.672 13.0998L164.479 5.00381ZM169.789 13.0768C169.743 13.2761 169.735 13.4601 169.766 13.6288C169.797 13.7821 169.85 13.9201 169.927 14.0428C170.019 14.1655 170.142 14.2575 170.295 14.3188C170.448 14.3801 170.625 14.4108 170.824 14.4108C171.238 14.4108 171.729 14.3188 172.296 14.1348C172.863 13.9508 173.415 13.7361 173.952 13.4908L174.412 15.6988C173.799 16.0361 173.124 16.3045 172.388 16.5038C171.652 16.7031 170.939 16.8028 170.249 16.8028C169.712 16.8028 169.222 16.7338 168.777 16.5958C168.348 16.4578 167.987 16.2508 167.696 15.9748C167.42 15.6988 167.228 15.3461 167.121 14.9168C167.029 14.4875 167.044 13.9815 167.167 13.3988L168.179 8.68381C168.363 7.84047 168.685 7.12747 169.145 6.54481C169.62 5.96214 170.195 5.51747 170.87 5.21081C171.56 4.90414 172.319 4.75081 173.147 4.75081C173.975 4.75081 174.665 4.89647 175.217 5.18781C175.784 5.47914 176.183 5.90847 176.413 6.47581C176.643 7.04314 176.666 7.75614 176.482 8.61481L175.723 12.2028L169.927 12.5018L169.789 13.0768ZM173.791 9.30481C173.852 8.98281 173.883 8.65314 173.883 8.31581C173.883 7.97847 173.799 7.70247 173.63 7.48781C173.477 7.25781 173.17 7.15814 172.71 7.18881C172.235 7.20414 171.859 7.30381 171.583 7.48781C171.322 7.65647 171.115 7.89414 170.962 8.20081C170.824 8.49214 170.701 8.85247 170.594 9.28181L170.41 10.1788L173.63 9.97181L173.791 9.30481ZM185.7 12.5708C185.516 13.5061 185.202 14.2958 184.757 14.9398C184.328 15.5838 183.791 16.0745 183.147 16.4118C182.503 16.7338 181.752 16.8948 180.893 16.8948C180.709 16.8948 180.525 16.8795 180.341 16.8488C180.157 16.8181 179.981 16.7798 179.812 16.7338C179.643 16.6878 179.482 16.6265 179.329 16.5498C179.191 16.4885 179.061 16.4195 178.938 16.3428L177.857 21.4718L175.442 20.8968L177.903 9.32781C178.21 7.87114 178.815 6.75947 179.72 5.99281C180.64 5.21081 181.798 4.81981 183.193 4.81981C184.512 4.81981 185.455 5.21847 186.022 6.01581C186.589 6.81314 186.72 7.91714 186.413 9.32781L185.7 12.5708ZM183.906 9.18981C183.983 8.82181 183.983 8.50747 183.906 8.24681C183.829 7.97081 183.676 7.75614 183.446 7.60281C183.216 7.44947 182.917 7.37281 182.549 7.37281C182.196 7.37281 181.874 7.44181 181.583 7.57981C181.292 7.71781 181.054 7.92481 180.87 8.20081C180.686 8.46147 180.548 8.79114 180.456 9.18981L179.559 13.3988C179.513 13.5981 179.536 13.7745 179.628 13.9278C179.735 14.0811 179.881 14.2115 180.065 14.3188C180.249 14.4261 180.441 14.5028 180.64 14.5488C180.855 14.5948 181.054 14.6178 181.238 14.6178C181.575 14.6178 181.867 14.5488 182.112 14.4108C182.373 14.2728 182.587 14.0811 182.756 13.8358C182.925 13.5751 183.04 13.2685 183.101 12.9158L183.906 9.18981ZM198.749 5.00381H201.302L198.864 16.5038H186.766L189.204 5.00381H191.757L189.848 13.9738H192.056L193.965 5.00381H196.518L194.609 13.9738H196.84L198.749 5.00381ZM211.634 5.30281C211.481 5.77814 211.35 6.20747 211.243 6.59081C211.151 6.95881 211.074 7.27314 211.013 7.53381L209.127 16.3888C209.127 16.3888 209.02 16.3965 208.805 16.4118C208.606 16.4271 208.33 16.4501 207.977 16.4808C207.64 16.4961 207.256 16.5115 206.827 16.5268C206.413 16.5421 205.991 16.5575 205.562 16.5728C205.148 16.5881 204.765 16.5958 204.412 16.5958C203.707 16.5958 203.132 16.4885 202.687 16.2738C202.258 16.0591 201.936 15.7678 201.721 15.3998C201.506 15.0318 201.384 14.6101 201.353 14.1348C201.338 13.6441 201.384 13.1305 201.491 12.5938L202.411 8.33881C202.549 7.66414 202.741 7.10447 202.986 6.65981C203.247 6.19981 203.538 5.83947 203.86 5.57881C204.197 5.30281 204.565 5.11114 204.964 5.00381C205.363 4.88114 205.792 4.81981 206.252 4.81981C206.727 4.81981 207.164 4.85047 207.563 4.91181C207.962 4.97314 208.291 5.04214 208.552 5.11881C208.828 5.19547 209.02 5.25681 209.127 5.30281C209.127 5.30281 209.158 5.24147 209.219 5.11881C209.296 4.98081 209.38 4.85047 209.472 4.72781L211.634 5.30281ZM204.021 12.6168C203.929 13.1228 203.914 13.5138 203.975 13.7898C204.036 14.0505 204.174 14.2345 204.389 14.3418C204.619 14.4338 204.918 14.4798 205.286 14.4798C205.424 14.4798 205.562 14.4798 205.7 14.4798C205.838 14.4798 205.976 14.4798 206.114 14.4798C206.252 14.4645 206.39 14.4491 206.528 14.4338C206.681 14.4185 206.835 14.4031 206.988 14.3878L208.414 7.60281C208.307 7.54147 208.176 7.48781 208.023 7.44181C207.87 7.38047 207.701 7.32681 207.517 7.28081C207.348 7.23481 207.18 7.20414 207.011 7.18881C206.858 7.15814 206.72 7.14281 206.597 7.14281C206.474 7.14281 206.329 7.15047 206.16 7.16581C206.007 7.18114 205.846 7.23481 205.677 7.32681C205.508 7.40347 205.355 7.52614 205.217 7.69481C205.079 7.86347 204.979 8.10114 204.918 8.40781L204.021 12.6168ZM211.384 18.0218C211.553 17.8071 211.683 17.5848 211.775 17.3548C211.883 17.1401 211.99 16.9178 212.097 16.6878C211.806 16.6111 211.591 16.4501 211.453 16.2048C211.315 15.9595 211.277 15.6758 211.338 15.3538C211.415 14.9858 211.614 14.6638 211.936 14.3878C212.274 14.1118 212.634 13.9738 213.017 13.9738C213.385 13.9738 213.669 14.1118 213.868 14.3878C214.068 14.6638 214.129 14.9858 214.052 15.3538C213.96 15.8751 213.792 16.3275 213.546 16.7108C213.316 17.0941 213.063 17.4085 212.787 17.6538C212.527 17.9145 212.304 18.1061 212.12 18.2288C211.936 18.3515 211.852 18.4128 211.867 18.4128L211.384 18.0218ZM230.561 10.1328C230.975 10.4395 231.251 10.8535 231.389 11.3748C231.542 11.8961 231.557 12.4635 231.435 13.0768C231.312 13.6748 231.044 14.2575 230.63 14.8248C230.216 15.3768 229.671 15.8368 228.997 16.2048C228.322 16.5728 227.525 16.7568 226.605 16.7568C226.313 16.7568 225.968 16.7491 225.57 16.7338C225.171 16.7185 224.757 16.6955 224.328 16.6648C223.898 16.6341 223.5 16.6035 223.132 16.5728C222.764 16.5575 222.465 16.5421 222.235 16.5268C222.005 16.5115 221.89 16.5038 221.89 16.5038L224.328 4.98081C224.328 4.98081 224.427 4.97314 224.627 4.95781C224.841 4.92714 225.14 4.89647 225.524 4.86581C225.922 4.81981 226.39 4.78914 226.927 4.77381C227.463 4.74314 228.061 4.72781 228.721 4.72781C229.181 4.72781 229.625 4.78147 230.055 4.88881C230.484 4.99614 230.86 5.15714 231.182 5.37181C231.519 5.58647 231.772 5.87014 231.941 6.22281C232.125 6.56014 232.201 6.97414 232.171 7.46481C232.14 7.94014 231.971 8.43081 231.665 8.93681C231.373 9.42747 231.005 9.82614 230.561 10.1328ZM228.307 6.95881C228.169 6.95881 228.023 6.95881 227.87 6.95881C227.716 6.95881 227.555 6.96647 227.387 6.98181C227.233 6.98181 227.072 6.98947 226.904 7.00481C226.75 7.00481 226.597 7.00481 226.444 7.00481L225.892 9.55781H227.065C227.617 9.55781 228.061 9.48881 228.399 9.35081C228.736 9.21281 228.989 9.03647 229.158 8.82181C229.342 8.60714 229.457 8.39247 229.503 8.17781C229.549 7.97847 229.541 7.80981 229.48 7.67181C229.418 7.51847 229.326 7.38814 229.204 7.28081C229.096 7.17347 228.958 7.09681 228.79 7.05081C228.636 6.98947 228.475 6.95881 228.307 6.95881ZM226.72 14.1578C227.072 14.1578 227.402 14.1195 227.709 14.0428C228.015 13.9661 228.276 13.8435 228.491 13.6748C228.705 13.4908 228.843 13.2531 228.905 12.9618C228.951 12.7778 228.943 12.6091 228.882 12.4558C228.836 12.3025 228.744 12.1798 228.606 12.0878C228.483 11.9805 228.322 11.9038 228.123 11.8578C227.939 11.7965 227.732 11.7658 227.502 11.7658H225.432L224.926 14.1118C225.094 14.1118 225.263 14.1195 225.432 14.1348C225.6 14.1348 225.761 14.1425 225.915 14.1578C226.068 14.1578 226.214 14.1578 226.352 14.1578C226.49 14.1578 226.612 14.1578 226.72 14.1578ZM237.259 5.00381L235.81 11.8348L240.64 5.00381H243.216L240.778 16.5268H238.202L239.628 9.74181L234.821 16.5268H232.291L234.729 5.00381H237.259ZM253.297 13.9968H254.585L253.435 19.4018H251.319L251.457 16.5268H244.465L243.361 19.4018H241.245L242.395 13.9968H243.959L246.742 8.45381C246.926 8.08581 247.141 7.70247 247.386 7.30381C247.647 6.88981 247.946 6.50647 248.283 6.15381C248.636 5.80114 249.057 5.51747 249.548 5.30281C250.054 5.08814 250.652 4.98081 251.342 4.98081H255.206L253.297 13.9968ZM246.604 13.9968H250.744L252.216 7.14281H251.503C251.258 7.14281 251.028 7.16581 250.813 7.21181C250.598 7.24247 250.399 7.31147 250.215 7.41881C250.031 7.52614 249.855 7.67181 249.686 7.85581C249.517 8.03981 249.364 8.27747 249.226 8.56881L246.604 13.9968ZM258.352 13.0768C258.306 13.2761 258.299 13.4601 258.329 13.6288C258.36 13.7821 258.414 13.9201 258.49 14.0428C258.582 14.1655 258.705 14.2575 258.858 14.3188C259.012 14.3801 259.188 14.4108 259.387 14.4108C259.801 14.4108 260.292 14.3188 260.859 14.1348C261.427 13.9508 261.979 13.7361 262.515 13.4908L262.975 15.6988C262.362 16.0361 261.687 16.3045 260.951 16.5038C260.215 16.7031 259.502 16.8028 258.812 16.8028C258.276 16.8028 257.785 16.7338 257.34 16.5958C256.911 16.4578 256.551 16.2508 256.259 15.9748C255.983 15.6988 255.792 15.3461 255.684 14.9168C255.592 14.4875 255.608 13.9815 255.73 13.3988L256.742 8.68381C256.926 7.84047 257.248 7.12747 257.708 6.54481C258.184 5.96214 258.759 5.51747 259.433 5.21081C260.123 4.90414 260.882 4.75081 261.71 4.75081C262.538 4.75081 263.228 4.89647 263.78 5.18781C264.348 5.47914 264.746 5.90847 264.976 6.47581C265.206 7.04314 265.229 7.75614 265.045 8.61481L264.286 12.2028L258.49 12.5018L258.352 13.0768ZM262.354 9.30481C262.416 8.98281 262.446 8.65314 262.446 8.31581C262.446 7.97847 262.362 7.70247 262.193 7.48781C262.04 7.25781 261.733 7.15814 261.273 7.18881C260.798 7.20414 260.422 7.30381 260.146 7.48781C259.886 7.65647 259.679 7.89414 259.525 8.20081C259.387 8.49214 259.265 8.85247 259.157 9.28181L258.973 10.1788L262.193 9.97181L262.354 9.30481ZM274.217 12.2488C273.941 13.5981 273.366 14.6868 272.492 15.5148C271.634 16.3275 270.499 16.7338 269.088 16.7338C268.076 16.7338 267.294 16.5268 266.742 16.1128C266.206 15.6835 265.861 15.1315 265.707 14.4568C265.554 13.7668 265.554 13.0308 265.707 12.2488L266.374 9.21281C266.589 8.23147 266.926 7.41114 267.386 6.75181C267.862 6.09247 268.452 5.59414 269.157 5.25681C269.878 4.90414 270.706 4.72781 271.641 4.72781C272.975 4.72781 273.926 5.12647 274.493 5.92381C275.061 6.70581 275.191 7.80214 274.884 9.21281L274.217 12.2488ZM272.308 9.07481C272.385 8.70681 272.393 8.39247 272.331 8.13181C272.27 7.85581 272.132 7.64881 271.917 7.51081C271.718 7.35747 271.434 7.28081 271.066 7.28081C270.698 7.28081 270.369 7.34981 270.077 7.48781C269.801 7.62581 269.564 7.82514 269.364 8.08581C269.18 8.34647 269.042 8.67614 268.95 9.07481L268.237 12.4328C268.176 12.7395 268.176 13.0308 268.237 13.3068C268.299 13.5828 268.437 13.8051 268.651 13.9738C268.866 14.1425 269.18 14.2268 269.594 14.2268C269.978 14.2268 270.3 14.1501 270.56 13.9968C270.836 13.8435 271.059 13.6288 271.227 13.3528C271.396 13.0768 271.519 12.7701 271.595 12.4328L272.308 9.07481ZM281.753 4.81981C282.611 4.81981 283.294 4.98081 283.8 5.30281C284.306 5.62481 284.635 6.10781 284.789 6.75181C284.957 7.39581 284.942 8.19314 284.743 9.14381L284.076 12.2488C283.784 13.6441 283.186 14.7481 282.282 15.5608C281.377 16.3581 280.265 16.7568 278.947 16.7568C278.088 16.7568 277.367 16.5881 276.785 16.2508C276.217 15.8981 275.819 15.3921 275.589 14.7328C275.374 14.0581 275.366 13.2301 275.566 12.2488L277.015 5.46381C277.137 4.89647 277.352 4.32147 277.659 3.73881C277.981 3.15614 278.402 2.62714 278.924 2.15181C279.399 1.70714 279.966 1.33147 280.626 1.02481C281.285 0.718143 282.036 0.511143 282.88 0.403809L283.156 1.99081C282.634 2.09814 282.159 2.25147 281.73 2.45081C281.316 2.65014 280.94 2.91847 280.603 3.25581C280.357 3.51647 280.15 3.81547 279.982 4.15281C279.813 4.49014 279.675 4.90414 279.568 5.39481L279.522 5.60181C279.721 5.47914 279.943 5.35647 280.189 5.23381C280.449 5.11114 280.71 5.01147 280.971 4.93481C281.247 4.85814 281.507 4.81981 281.753 4.81981ZM280.925 7.11981C280.741 7.11981 280.541 7.15047 280.327 7.21181C280.112 7.25781 279.905 7.34214 279.706 7.46481C279.506 7.57214 279.33 7.72547 279.177 7.92481C279.039 8.10881 278.939 8.33114 278.878 8.59181L278.073 12.3868C277.996 12.7701 277.981 13.0998 278.027 13.3758C278.073 13.6365 278.203 13.8435 278.418 13.9968C278.632 14.1348 278.954 14.2038 279.384 14.2038C279.752 14.2038 280.081 14.1271 280.373 13.9738C280.664 13.8205 280.902 13.6135 281.086 13.3528C281.285 13.0768 281.423 12.7548 281.5 12.3868L282.259 8.79881C282.335 8.44614 282.335 8.14714 282.259 7.90181C282.182 7.64114 282.029 7.44947 281.799 7.32681C281.584 7.18881 281.293 7.11981 280.925 7.11981ZM293.707 5.00381H297.571L295.133 16.4808H292.58L294.558 7.16581H293.845C293.523 7.16581 293.232 7.20414 292.971 7.28081C292.726 7.35747 292.496 7.49547 292.281 7.69481C292.082 7.89414 291.882 8.18547 291.683 8.56881L289.337 13.2608C288.908 14.1041 288.494 14.7788 288.095 15.2848C287.712 15.7755 287.275 16.1588 286.784 16.4348C286.309 16.6955 285.718 16.9025 285.013 17.0558L283.978 15.8368C284.315 15.6681 284.607 15.5148 284.852 15.3768C285.113 15.2388 285.358 15.0395 285.588 14.7788C285.833 14.5181 286.094 14.1271 286.37 13.6058L289.015 8.45381C289.199 8.08581 289.421 7.70247 289.682 7.30381C289.943 6.90514 290.249 6.52947 290.602 6.17681C290.97 5.82414 291.407 5.54047 291.913 5.32581C292.419 5.11114 293.017 5.00381 293.707 5.00381ZM306.292 12.2488C306.016 13.5981 305.441 14.6868 304.567 15.5148C303.708 16.3275 302.573 16.7338 301.163 16.7338C300.151 16.7338 299.369 16.5268 298.817 16.1128C298.28 15.6835 297.935 15.1315 297.782 14.4568C297.628 13.7668 297.628 13.0308 297.782 12.2488L298.449 9.21281C298.663 8.23147 299.001 7.41114 299.461 6.75181C299.936 6.09247 300.526 5.59414 301.232 5.25681C301.952 4.90414 302.78 4.72781 303.716 4.72781C305.05 4.72781 306 5.12647 306.568 5.92381C307.135 6.70581 307.265 7.80214 306.959 9.21281L306.292 12.2488ZM304.383 9.07481C304.459 8.70681 304.467 8.39247 304.406 8.13181C304.344 7.85581 304.206 7.64881 303.992 7.51081C303.792 7.35747 303.509 7.28081 303.141 7.28081C302.773 7.28081 302.443 7.34981 302.152 7.48781C301.876 7.62581 301.638 7.82514 301.439 8.08581C301.255 8.34647 301.117 8.67614 301.025 9.07481L300.312 12.4328C300.25 12.7395 300.25 13.0308 300.312 13.3068C300.373 13.5828 300.511 13.8051 300.726 13.9738C300.94 14.1425 301.255 14.2268 301.669 14.2268C302.052 14.2268 302.374 14.1501 302.635 13.9968C302.911 13.8435 303.133 13.6288 303.302 13.3528C303.47 13.0768 303.593 12.7701 303.67 12.4328L304.383 9.07481ZM309.319 5.00381H315.644L315.115 7.53381H311.366L309.457 16.5038H306.881L309.319 5.00381ZM317.47 13.0768C317.424 13.2761 317.416 13.4601 317.447 13.6288C317.477 13.7821 317.531 13.9201 317.608 14.0428C317.7 14.1655 317.822 14.2575 317.976 14.3188C318.129 14.3801 318.305 14.4108 318.505 14.4108C318.919 14.4108 319.409 14.3188 319.977 14.1348C320.544 13.9508 321.096 13.7361 321.633 13.4908L322.093 15.6988C321.479 16.0361 320.805 16.3045 320.069 16.5038C319.333 16.7031 318.62 16.8028 317.93 16.8028C317.393 16.8028 316.902 16.7338 316.458 16.5958C316.028 16.4578 315.668 16.2508 315.377 15.9748C315.101 15.6988 314.909 15.3461 314.802 14.9168C314.71 14.4875 314.725 13.9815 314.848 13.3988L315.86 8.68381C316.044 7.84047 316.366 7.12747 316.826 6.54481C317.301 5.96214 317.876 5.51747 318.551 5.21081C319.241 4.90414 320 4.75081 320.828 4.75081C321.656 4.75081 322.346 4.89647 322.898 5.18781C323.465 5.47914 323.864 5.90847 324.094 6.47581C324.324 7.04314 324.347 7.75614 324.163 8.61481L323.404 12.2028L317.608 12.5018L317.47 13.0768ZM321.472 9.30481C321.533 8.98281 321.564 8.65314 321.564 8.31581C321.564 7.97847 321.479 7.70247 321.311 7.48781C321.157 7.25781 320.851 7.15814 320.391 7.18881C319.915 7.20414 319.54 7.30381 319.264 7.48781C319.003 7.65647 318.796 7.89414 318.643 8.20081C318.505 8.49214 318.382 8.85247 318.275 9.28181L318.091 10.1788L321.311 9.97181L321.472 9.30481ZM333.381 12.5708C333.197 13.5061 332.882 14.2958 332.438 14.9398C332.008 15.5838 331.472 16.0745 330.828 16.4118C330.184 16.7338 329.432 16.8948 328.574 16.8948C328.39 16.8948 328.206 16.8795 328.022 16.8488C327.838 16.8181 327.661 16.7798 327.493 16.7338C327.324 16.6878 327.163 16.6265 327.01 16.5498C326.872 16.4885 326.741 16.4195 326.619 16.3428L325.538 21.4718L323.123 20.8968L325.584 9.32781C325.89 7.87114 326.496 6.75947 327.401 5.99281C328.321 5.21081 329.478 4.81981 330.874 4.81981C332.192 4.81981 333.135 5.21847 333.703 6.01581C334.27 6.81314 334.4 7.91714 334.094 9.32781L333.381 12.5708ZM331.587 9.18981C331.663 8.82181 331.663 8.50747 331.587 8.24681C331.51 7.97081 331.357 7.75614 331.127 7.60281C330.897 7.44947 330.598 7.37281 330.23 7.37281C329.877 7.37281 329.555 7.44181 329.264 7.57981C328.972 7.71781 328.735 7.92481 328.551 8.20081C328.367 8.46147 328.229 8.79114 328.137 9.18981L327.24 13.3988C327.194 13.5981 327.217 13.7745 327.309 13.9278C327.416 14.0811 327.562 14.2115 327.746 14.3188C327.93 14.4261 328.121 14.5028 328.321 14.5488C328.535 14.5948 328.735 14.6178 328.919 14.6178C329.256 14.6178 329.547 14.5488 329.793 14.4108C330.053 14.2728 330.268 14.0811 330.437 13.8358C330.605 13.5751 330.72 13.2685 330.782 12.9158L331.587 9.18981ZM334.515 18.0218C334.684 17.8071 334.814 17.5848 334.906 17.3548C335.014 17.1401 335.121 16.9178 335.228 16.6878C334.937 16.6111 334.722 16.4501 334.584 16.2048C334.446 15.9595 334.408 15.6758 334.469 15.3538C334.546 14.9858 334.745 14.6638 335.067 14.3878C335.405 14.1118 335.765 13.9738 336.148 13.9738C336.516 13.9738 336.8 14.1118 336.999 14.3878C337.199 14.6638 337.26 14.9858 337.183 15.3538C337.091 15.8751 336.923 16.3275 336.677 16.7108C336.447 17.0941 336.194 17.4085 335.918 17.6538C335.658 17.9145 335.435 18.1061 335.251 18.2288C335.067 18.3515 334.983 18.4128 334.998 18.4128L334.515 18.0218ZM5.06182 40.0998C4.98515 40.4831 4.96215 40.8128 4.99282 41.0888C5.03882 41.3648 5.14615 41.5948 5.31482 41.7788C5.49882 41.9475 5.75182 42.0931 6.07382 42.2158L4.60182 43.9638C4.17249 43.8411 3.79682 43.6801 3.47482 43.4808C3.16815 43.2661 2.92282 43.0131 2.73882 42.7218C2.55482 42.4151 2.43982 42.0701 2.39382 41.6868C2.34782 41.3035 2.37082 40.8895 2.46282 40.4448L3.75082 34.3728H1.61182L2.11782 31.9808H9.08681L8.58082 34.3728H6.28082L5.06182 40.0998ZM13.1889 32.0038L11.7399 38.8348L16.5699 32.0038H19.1459L16.7079 43.5268H14.1319L15.5579 36.7418L10.7509 43.5268H8.22091L10.6589 32.0038H13.1889ZM26.6045 39.8238C26.8038 40.2071 26.9725 40.5061 27.1105 40.7208C27.2638 40.9201 27.4095 41.0581 27.5475 41.1348C27.7008 41.2115 27.8695 41.2498 28.0535 41.2498H28.1685L27.6165 43.5038H27.2715C26.7042 43.5038 26.2212 43.3811 25.8225 43.1358C25.4392 42.8905 25.1095 42.5685 24.8335 42.1698C24.5728 41.7711 24.3275 41.3495 24.0975 40.9048L22.8095 38.3978L22.0045 39.0188L21.0615 43.5038H18.5085L21.0155 31.7278L23.4995 32.0038L22.6945 35.8218L27.0415 31.9808H30.1925L24.9945 36.6038L26.6045 39.8238ZM34.553 40.0998C34.4763 40.4831 34.4533 40.8128 34.484 41.0888C34.53 41.3648 34.6373 41.5948 34.806 41.7788C34.99 41.9475 35.243 42.0931 35.565 42.2158L34.093 43.9638C33.6637 43.8411 33.288 43.6801 32.966 43.4808C32.6593 43.2661 32.414 43.0131 32.23 42.7218C32.046 42.4151 31.931 42.0701 31.885 41.6868C31.839 41.3035 31.862 40.8895 31.954 40.4448L33.242 34.3728H31.103L31.609 31.9808H38.578L38.072 34.3728H35.772L34.553 40.0998ZM46.9351 39.2488C46.6591 40.5981 46.0841 41.6868 45.2101 42.5148C44.3514 43.3275 43.2167 43.7338 41.8061 43.7338C40.7941 43.7338 40.0121 43.5268 39.4601 43.1128C38.9234 42.6835 38.5784 42.1315 38.4251 41.4568C38.2717 40.7668 38.2717 40.0308 38.4251 39.2488L39.0921 36.2128C39.3067 35.2315 39.6441 34.4111 40.1041 33.7518C40.5794 33.0925 41.1697 32.5941 41.8751 32.2568C42.5957 31.9041 43.4237 31.7278 44.3591 31.7278C45.6931 31.7278 46.6437 32.1265 47.2111 32.9238C47.7784 33.7058 47.9087 34.8021 47.6021 36.2128L46.9351 39.2488ZM45.0261 36.0748C45.1027 35.7068 45.1104 35.3925 45.0491 35.1318C44.9877 34.8558 44.8497 34.6488 44.6351 34.5108C44.4357 34.3575 44.1521 34.2808 43.7841 34.2808C43.4161 34.2808 43.0864 34.3498 42.7951 34.4878C42.5191 34.6258 42.2814 34.8251 42.0821 35.0858C41.8981 35.3465 41.7601 35.6761 41.6681 36.0748L40.9551 39.4328C40.8937 39.7395 40.8937 40.0308 40.9551 40.3068C41.0164 40.5828 41.1544 40.8051 41.3691 40.9738C41.5837 41.1425 41.8981 41.2268 42.3121 41.2268C42.6954 41.2268 43.0174 41.1501 43.2781 40.9968C43.5541 40.8435 43.7764 40.6288 43.9451 40.3528C44.1137 40.0768 44.2364 39.7701 44.3131 39.4328L45.0261 36.0748ZM55.7813 39.8238C55.9806 40.2071 56.1493 40.5061 56.2873 40.7208C56.4406 40.9201 56.5863 41.0581 56.7243 41.1348C56.8776 41.2115 57.0463 41.2498 57.2303 41.2498H57.3453L56.7933 43.5038H56.4483C55.8809 43.5038 55.3979 43.3811 54.9993 43.1358C54.6159 42.8905 54.2863 42.5685 54.0103 42.1698C53.7496 41.7711 53.5043 41.3495 53.2743 40.9048L51.9863 38.3978L51.1813 39.0188L50.2383 43.5038H47.6853L50.1923 31.7278L52.6763 32.0038L51.8713 35.8218L56.2183 31.9808H59.3693L54.1713 36.6038L55.7813 39.8238ZM61.7517 40.0768C61.7057 40.2761 61.6981 40.4601 61.7287 40.6288C61.7594 40.7821 61.8131 40.9201 61.8897 41.0428C61.9817 41.1655 62.1044 41.2575 62.2577 41.3188C62.4111 41.3801 62.5874 41.4108 62.7867 41.4108C63.2007 41.4108 63.6914 41.3188 64.2588 41.1348C64.8261 40.9508 65.3781 40.7361 65.9148 40.4908L66.3747 42.6988C65.7614 43.0361 65.0867 43.3045 64.3507 43.5038C63.6147 43.7031 62.9017 43.8028 62.2117 43.8028C61.6751 43.8028 61.1844 43.7338 60.7397 43.5958C60.3104 43.4578 59.9501 43.2508 59.6587 42.9748C59.3827 42.6988 59.1911 42.3461 59.0837 41.9168C58.9917 41.4875 59.0071 40.9815 59.1297 40.3988L60.1417 35.6838C60.3257 34.8405 60.6477 34.1275 61.1077 33.5448C61.5831 32.9621 62.1581 32.5175 62.8327 32.2108C63.5227 31.9041 64.2817 31.7508 65.1098 31.7508C65.9378 31.7508 66.6278 31.8965 67.1798 32.1878C67.7471 32.4791 68.1458 32.9085 68.3757 33.4758C68.6058 34.0431 68.6288 34.7561 68.4447 35.6148L67.6857 39.2028L61.8897 39.5018L61.7517 40.0768ZM65.7538 36.3048C65.8151 35.9828 65.8457 35.6531 65.8457 35.3158C65.8457 34.9785 65.7614 34.7025 65.5928 34.4878C65.4394 34.2578 65.1327 34.1581 64.6727 34.1888C64.1974 34.2041 63.8217 34.3038 63.5457 34.4878C63.2851 34.6565 63.0781 34.8941 62.9247 35.2008C62.7867 35.4921 62.6641 35.8525 62.5567 36.2818L62.3727 37.1788L65.5928 36.9718L65.7538 36.3048ZM77.6627 39.5708C77.4787 40.5061 77.1644 41.2958 76.7197 41.9398C76.2904 42.5838 75.7537 43.0745 75.1097 43.4118C74.4657 43.7338 73.7144 43.8948 72.8557 43.8948C72.6717 43.8948 72.4877 43.8795 72.3037 43.8488C72.1197 43.8181 71.9434 43.7798 71.7747 43.7338C71.6061 43.6878 71.4451 43.6265 71.2917 43.5498C71.1537 43.4885 71.0234 43.4195 70.9007 43.3428L69.8197 48.4718L67.4047 47.8968L69.8657 36.3278C70.1724 34.8711 70.7781 33.7595 71.6827 32.9928C72.6027 32.2108 73.7604 31.8198 75.1557 31.8198C76.4744 31.8198 77.4174 32.2185 77.9847 33.0158C78.5521 33.8131 78.6824 34.9171 78.3757 36.3278L77.6627 39.5708ZM75.8687 36.1898C75.9454 35.8218 75.9454 35.5075 75.8687 35.2468C75.7921 34.9708 75.6387 34.7561 75.4087 34.6028C75.1787 34.4495 74.8797 34.3728 74.5117 34.3728C74.1591 34.3728 73.8371 34.4418 73.5457 34.5798C73.2544 34.7178 73.0167 34.9248 72.8327 35.2008C72.6487 35.4615 72.5107 35.7911 72.4187 36.1898L71.5217 40.3988C71.4757 40.5981 71.4987 40.7745 71.5907 40.9278C71.6981 41.0811 71.8437 41.2115 72.0277 41.3188C72.2117 41.4261 72.4034 41.5028 72.6027 41.5488C72.8174 41.5948 73.0167 41.6178 73.2007 41.6178C73.5381 41.6178 73.8294 41.5488 74.0747 41.4108C74.3354 41.2728 74.5501 41.0811 74.7187 40.8358C74.8874 40.5751 75.0024 40.2685 75.0637 39.9158L75.8687 36.1898ZM90.7114 32.0038H93.2644L90.8264 43.5038H78.7284L81.1664 32.0038H83.7194L81.8104 40.9738H84.0184L85.9274 32.0038H88.4804L86.5714 40.9738H88.8024L90.7114 32.0038ZM103.597 32.3028C103.444 32.7781 103.313 33.2075 103.206 33.5908C103.114 33.9588 103.037 34.2731 102.976 34.5338L101.09 43.3888C101.09 43.3888 100.983 43.3965 100.768 43.4118C100.569 43.4271 100.293 43.4501 99.9398 43.4808C99.6025 43.4961 99.2192 43.5115 98.7898 43.5268C98.3758 43.5421 97.9542 43.5575 97.5248 43.5728C97.1108 43.5881 96.7275 43.5958 96.3748 43.5958C95.6695 43.5958 95.0945 43.4885 94.6498 43.2738C94.2205 43.0591 93.8985 42.7678 93.6838 42.3998C93.4692 42.0318 93.3465 41.6101 93.3158 41.1348C93.3005 40.6441 93.3465 40.1305 93.4538 39.5938L94.3738 35.3388C94.5118 34.6641 94.7035 34.1045 94.9488 33.6598C95.2095 33.1998 95.5008 32.8395 95.8228 32.5788C96.1602 32.3028 96.5282 32.1111 96.9268 32.0038C97.3255 31.8811 97.7548 31.8198 98.2148 31.8198C98.6902 31.8198 99.1272 31.8505 99.5258 31.9118C99.9245 31.9731 100.254 32.0421 100.515 32.1188C100.791 32.1955 100.983 32.2568 101.09 32.3028C101.09 32.3028 101.121 32.2415 101.182 32.1188C101.259 31.9808 101.343 31.8505 101.435 31.7278L103.597 32.3028ZM95.9838 39.6168C95.8918 40.1228 95.8765 40.5138 95.9378 40.7898C95.9992 41.0505 96.1372 41.2345 96.3518 41.3418C96.5818 41.4338 96.8808 41.4798 97.2488 41.4798C97.3868 41.4798 97.5248 41.4798 97.6628 41.4798C97.8008 41.4798 97.9388 41.4798 98.0768 41.4798C98.2148 41.4645 98.3528 41.4491 98.4908 41.4338C98.6442 41.4185 98.7975 41.4031 98.9508 41.3878L100.377 34.6028C100.27 34.5415 100.139 34.4878 99.9858 34.4418C99.8325 34.3805 99.6638 34.3268 99.4798 34.2808C99.3112 34.2348 99.1425 34.2041 98.9738 34.1888C98.8205 34.1581 98.6825 34.1428 98.5598 34.1428C98.4372 34.1428 98.2915 34.1505 98.1228 34.1658C97.9695 34.1811 97.8085 34.2348 97.6398 34.3268C97.4712 34.4035 97.3178 34.5261 97.1798 34.6948C97.0418 34.8635 96.9422 35.1011 96.8808 35.4078L95.9838 39.6168ZM103.347 45.0218C103.516 44.8071 103.646 44.5848 103.738 44.3548C103.846 44.1401 103.953 43.9178 104.06 43.6878C103.769 43.6111 103.554 43.4501 103.416 43.2048C103.278 42.9595 103.24 42.6758 103.301 42.3538C103.378 41.9858 103.577 41.6638 103.899 41.3878C104.237 41.1118 104.597 40.9738 104.98 40.9738C105.348 40.9738 105.632 41.1118 105.831 41.3878C106.031 41.6638 106.092 41.9858 106.015 42.3538C105.923 42.8751 105.755 43.3275 105.509 43.7108C105.279 44.0941 105.026 44.4085 104.75 44.6538C104.49 44.9145 104.267 45.1061 104.083 45.2288C103.899 45.3515 103.815 45.4128 103.83 45.4128L103.347 45.0218ZM124.778 32.3028C124.624 32.7781 124.494 33.2075 124.387 33.5908C124.295 33.9588 124.218 34.2731 124.157 34.5338L122.271 43.3888C122.271 43.3888 122.163 43.3965 121.949 43.4118C121.749 43.4271 121.473 43.4501 121.121 43.4808C120.783 43.4961 120.4 43.5115 119.971 43.5268C119.557 43.5421 119.135 43.5575 118.706 43.5728C118.292 43.5881 117.908 43.5958 117.556 43.5958C116.85 43.5958 116.275 43.4885 115.831 43.2738C115.401 43.0591 115.079 42.7678 114.865 42.3998C114.65 42.0318 114.527 41.6101 114.497 41.1348C114.481 40.6441 114.527 40.1305 114.635 39.5938L115.555 35.3388C115.693 34.6641 115.884 34.1045 116.13 33.6598C116.39 33.1998 116.682 32.8395 117.004 32.5788C117.341 32.3028 117.709 32.1111 118.108 32.0038C118.506 31.8811 118.936 31.8198 119.396 31.8198C119.871 31.8198 120.308 31.8505 120.707 31.9118C121.105 31.9731 121.435 32.0421 121.696 32.1188C121.972 32.1955 122.163 32.2568 122.271 32.3028C122.271 32.3028 122.301 32.2415 122.363 32.1188C122.439 31.9808 122.524 31.8505 122.616 31.7278L124.778 32.3028ZM117.165 39.6168C117.073 40.1228 117.057 40.5138 117.119 40.7898C117.18 41.0505 117.318 41.2345 117.533 41.3418C117.763 41.4338 118.062 41.4798 118.43 41.4798C118.568 41.4798 118.706 41.4798 118.844 41.4798C118.982 41.4798 119.12 41.4798 119.258 41.4798C119.396 41.4645 119.534 41.4491 119.672 41.4338C119.825 41.4185 119.978 41.4031 120.132 41.3878L121.558 34.6028C121.45 34.5415 121.32 34.4878 121.167 34.4418C121.013 34.3805 120.845 34.3268 120.661 34.2808C120.492 34.2348 120.323 34.2041 120.155 34.1888C120.001 34.1581 119.863 34.1428 119.741 34.1428C119.618 34.1428 119.472 34.1505 119.304 34.1658C119.15 34.1811 118.989 34.2348 118.821 34.3268C118.652 34.4035 118.499 34.5261 118.361 34.6948C118.223 34.8635 118.123 35.1011 118.062 35.4078L117.165 39.6168ZM132.923 37.1328C133.337 37.4395 133.613 37.8535 133.751 38.3748C133.904 38.8961 133.92 39.4635 133.797 40.0768C133.674 40.6748 133.406 41.2575 132.992 41.8248C132.578 42.3768 132.034 42.8368 131.359 43.2048C130.684 43.5728 129.887 43.7568 128.967 43.7568C128.676 43.7568 128.331 43.7491 127.932 43.7338C127.533 43.7185 127.119 43.6955 126.69 43.6648C126.261 43.6341 125.862 43.6035 125.494 43.5728C125.126 43.5575 124.827 43.5421 124.597 43.5268C124.367 43.5115 124.252 43.5038 124.252 43.5038L126.69 31.9808C126.69 31.9808 126.79 31.9731 126.989 31.9578C127.204 31.9271 127.503 31.8965 127.886 31.8658C128.285 31.8198 128.752 31.7891 129.289 31.7738C129.826 31.7431 130.424 31.7278 131.083 31.7278C131.543 31.7278 131.988 31.7815 132.417 31.8888C132.846 31.9961 133.222 32.1571 133.544 32.3718C133.881 32.5865 134.134 32.8701 134.303 33.2228C134.487 33.5601 134.564 33.9741 134.533 34.4648C134.502 34.9401 134.334 35.4308 134.027 35.9368C133.736 36.4275 133.368 36.8261 132.923 37.1328ZM130.669 33.9588C130.531 33.9588 130.385 33.9588 130.232 33.9588C130.079 33.9588 129.918 33.9665 129.749 33.9818C129.596 33.9818 129.435 33.9895 129.266 34.0048C129.113 34.0048 128.959 34.0048 128.806 34.0048L128.254 36.5578H129.427C129.979 36.5578 130.424 36.4888 130.761 36.3508C131.098 36.2128 131.351 36.0365 131.52 35.8218C131.704 35.6071 131.819 35.3925 131.865 35.1778C131.911 34.9785 131.903 34.8098 131.842 34.6718C131.781 34.5185 131.689 34.3881 131.566 34.2808C131.459 34.1735 131.321 34.0968 131.152 34.0508C130.999 33.9895 130.838 33.9588 130.669 33.9588ZM129.082 41.1578C129.435 41.1578 129.764 41.1195 130.071 41.0428C130.378 40.9661 130.638 40.8435 130.853 40.6748C131.068 40.4908 131.206 40.2531 131.267 39.9618C131.313 39.7778 131.305 39.6091 131.244 39.4558C131.198 39.3025 131.106 39.1798 130.968 39.0878C130.845 38.9805 130.684 38.9038 130.485 38.8578C130.301 38.7965 130.094 38.7658 129.864 38.7658H127.794L127.288 41.1118C127.457 41.1118 127.625 41.1195 127.794 41.1348C127.963 41.1348 128.124 41.1425 128.277 41.1578C128.43 41.1578 128.576 41.1578 128.714 41.1578C128.852 41.1578 128.975 41.1578 129.082 41.1578ZM139.783 40.0998C139.706 40.4831 139.683 40.8128 139.714 41.0888C139.76 41.3648 139.867 41.5948 140.036 41.7788C140.22 41.9475 140.473 42.0931 140.795 42.2158L139.323 43.9638C138.893 43.8411 138.518 43.6801 138.196 43.4808C137.889 43.2661 137.644 43.0131 137.46 42.7218C137.276 42.4151 137.161 42.0701 137.115 41.6868C137.069 41.3035 137.092 40.8895 137.184 40.4448L138.472 34.3728H136.333L136.839 31.9808H143.808L143.302 34.3728H141.002L139.783 40.0998ZM152.165 39.2488C151.889 40.5981 151.314 41.6868 150.44 42.5148C149.581 43.3275 148.446 43.7338 147.036 43.7338C146.024 43.7338 145.242 43.5268 144.69 43.1128C144.153 42.6835 143.808 42.1315 143.655 41.4568C143.501 40.7668 143.501 40.0308 143.655 39.2488L144.322 36.2128C144.536 35.2315 144.874 34.4111 145.334 33.7518C145.809 33.0925 146.399 32.5941 147.105 32.2568C147.825 31.9041 148.653 31.7278 149.589 31.7278C150.923 31.7278 151.873 32.1265 152.441 32.9238C153.008 33.7058 153.138 34.8021 152.832 36.2128L152.165 39.2488ZM150.256 36.0748C150.332 35.7068 150.34 35.3925 150.279 35.1318C150.217 34.8558 150.079 34.6488 149.865 34.5108C149.665 34.3575 149.382 34.2808 149.014 34.2808C148.646 34.2808 148.316 34.3498 148.025 34.4878C147.749 34.6258 147.511 34.8251 147.312 35.0858C147.128 35.3465 146.99 35.6761 146.898 36.0748L146.185 39.4328C146.123 39.7395 146.123 40.0308 146.185 40.3068C146.246 40.5828 146.384 40.8051 146.599 40.9738C146.813 41.1425 147.128 41.2268 147.542 41.2268C147.925 41.2268 148.247 41.1501 148.508 40.9968C148.784 40.8435 149.006 40.6288 149.175 40.3528C149.343 40.0768 149.466 39.7701 149.543 39.4328L150.256 36.0748ZM162.161 39.5708C161.977 40.5061 161.663 41.2958 161.218 41.9398C160.789 42.5838 160.252 43.0745 159.608 43.4118C158.964 43.7338 158.213 43.8948 157.354 43.8948C157.17 43.8948 156.986 43.8795 156.802 43.8488C156.618 43.8181 156.442 43.7798 156.273 43.7338C156.104 43.6878 155.943 43.6265 155.79 43.5498C155.652 43.4885 155.522 43.4195 155.399 43.3428L154.318 48.4718L151.903 47.8968L154.364 36.3278C154.671 34.8711 155.276 33.7595 156.181 32.9928C157.101 32.2108 158.259 31.8198 159.654 31.8198C160.973 31.8198 161.916 32.2185 162.483 33.0158C163.05 33.8131 163.181 34.9171 162.874 36.3278L162.161 39.5708ZM160.367 36.1898C160.444 35.8218 160.444 35.5075 160.367 35.2468C160.29 34.9708 160.137 34.7561 159.907 34.6028C159.677 34.4495 159.378 34.3728 159.01 34.3728C158.657 34.3728 158.335 34.4418 158.044 34.5798C157.753 34.7178 157.515 34.9248 157.331 35.2008C157.147 35.4615 157.009 35.7911 156.917 36.1898L156.02 40.3988C155.974 40.5981 155.997 40.7745 156.089 40.9278C156.196 41.0811 156.342 41.2115 156.526 41.3188C156.71 41.4261 156.902 41.5028 157.101 41.5488C157.316 41.5948 157.515 41.6178 157.699 41.6178C158.036 41.6178 158.328 41.5488 158.573 41.4108C158.834 41.2728 159.048 41.0811 159.217 40.8358C159.386 40.5751 159.501 40.2685 159.562 39.9158L160.367 36.1898ZM174.526 32.0038L173.077 38.8348L177.907 32.0038H180.483L178.045 43.5268H175.469L176.895 36.7418L172.088 43.5268H169.558L171.996 32.0038H174.526ZM191.237 32.0038L189.788 38.8348L194.618 32.0038H197.194L194.756 43.5268H192.18L193.606 36.7418L188.799 43.5268H186.269L188.707 32.0038H191.237ZM205.112 34.4418C204.836 34.2885 204.522 34.1735 204.169 34.0968C203.832 34.0048 203.487 33.9511 203.134 33.9358C202.72 33.9358 202.329 34.0048 201.961 34.1428C201.593 34.2655 201.279 34.4725 201.018 34.7638C200.758 35.0398 200.581 35.4078 200.489 35.8678L199.73 39.4788C199.654 39.8315 199.646 40.1458 199.707 40.4218C199.769 40.6825 199.884 40.8971 200.052 41.0658C200.236 41.2345 200.466 41.3648 200.742 41.4568C201.018 41.5335 201.333 41.5718 201.685 41.5718C201.931 41.5718 202.176 41.5641 202.421 41.5488C202.682 41.5181 202.912 41.4875 203.111 41.4568C203.311 41.4108 203.472 41.3801 203.594 41.3648C203.717 41.3341 203.778 41.3188 203.778 41.3188L203.801 43.3888C203.295 43.5115 202.782 43.6111 202.26 43.6878C201.739 43.7645 201.218 43.7951 200.696 43.7798C199.822 43.7645 199.086 43.6035 198.488 43.2968C197.89 42.9901 197.476 42.5225 197.246 41.8938C197.016 41.2651 197.001 40.4678 197.2 39.5018L197.936 36.1438C198.136 35.2545 198.45 34.4725 198.879 33.7978C199.324 33.1231 199.907 32.6018 200.627 32.2338C201.363 31.8658 202.26 31.6971 203.318 31.7278C203.809 31.7431 204.284 31.8198 204.744 31.9578C205.22 32.0958 205.664 32.2721 206.078 32.4868L205.112 34.4418ZM214.583 41.0658C214.568 41.3111 214.598 41.5105 214.675 41.6638C214.767 41.8171 214.897 41.9551 215.066 42.0778L213.18 43.8948C213.195 43.8948 213.119 43.8565 212.95 43.7798C212.797 43.7031 212.62 43.5805 212.421 43.4118C212.237 43.2431 212.091 43.0131 211.984 42.7218C211.877 42.4151 211.869 42.0318 211.961 41.5718L213.502 34.3728H209.868L207.936 43.5038H205.383L207.844 31.9808H216.515L214.583 41.0658ZM225.567 39.2488C225.291 40.5981 224.716 41.6868 223.842 42.5148C222.983 43.3275 221.849 43.7338 220.438 43.7338C219.426 43.7338 218.644 43.5268 218.092 43.1128C217.555 42.6835 217.21 42.1315 217.057 41.4568C216.904 40.7668 216.904 40.0308 217.057 39.2488L217.724 36.2128C217.939 35.2315 218.276 34.4111 218.736 33.7518C219.211 33.0925 219.802 32.5941 220.507 32.2568C221.228 31.9041 222.056 31.7278 222.991 31.7278C224.325 31.7278 225.276 32.1265 225.843 32.9238C226.41 33.7058 226.541 34.8021 226.234 36.2128L225.567 39.2488ZM223.658 36.0748C223.735 35.7068 223.742 35.3925 223.681 35.1318C223.62 34.8558 223.482 34.6488 223.267 34.5108C223.068 34.3575 222.784 34.2808 222.416 34.2808C222.048 34.2808 221.718 34.3498 221.427 34.4878C221.151 34.6258 220.913 34.8251 220.714 35.0858C220.53 35.3465 220.392 35.6761 220.3 36.0748L219.587 39.4328C219.526 39.7395 219.526 40.0308 219.587 40.3068C219.648 40.5828 219.786 40.8051 220.001 40.9738C220.216 41.1425 220.53 41.2268 220.944 41.2268C221.327 41.2268 221.649 41.1501 221.91 40.9968C222.186 40.8435 222.408 40.6288 222.577 40.3528C222.746 40.0768 222.868 39.7701 222.945 39.4328L223.658 36.0748ZM235.241 32.0038H239.105L236.667 43.4808H234.114L236.092 34.1658H235.379C235.057 34.1658 234.766 34.2041 234.505 34.2808C234.26 34.3575 234.03 34.4955 233.815 34.6948C233.616 34.8941 233.417 35.1855 233.217 35.5688L230.871 40.2608C230.442 41.1041 230.028 41.7788 229.629 42.2848C229.246 42.7755 228.809 43.1588 228.318 43.4348C227.843 43.6955 227.253 43.9025 226.547 44.0558L225.512 42.8368C225.85 42.6681 226.141 42.5148 226.386 42.3768C226.647 42.2388 226.892 42.0395 227.122 41.7788C227.368 41.5181 227.628 41.1271 227.904 40.6058L230.549 35.4538C230.733 35.0858 230.956 34.7025 231.216 34.3038C231.477 33.9051 231.784 33.5295 232.136 33.1768C232.504 32.8241 232.941 32.5405 233.447 32.3258C233.953 32.1111 234.551 32.0038 235.241 32.0038ZM246.101 36.0058L246.952 32.0038H249.482L247.044 43.5038H244.514L245.595 38.4208H242.191L241.11 43.5038H238.557L240.995 32.0038H243.548L242.697 36.0058H246.101ZM253.768 32.0038L252.319 38.8348L257.149 32.0038H259.725L257.287 43.5268H254.711L256.137 36.7418L251.33 43.5268H248.8L251.238 32.0038H253.768ZM264.194 40.0998C264.117 40.4831 264.094 40.8128 264.125 41.0888C264.171 41.3648 264.278 41.5948 264.447 41.7788C264.631 41.9475 264.884 42.0931 265.206 42.2158L263.734 43.9638C263.304 43.8411 262.929 43.6801 262.607 43.4808C262.3 43.2661 262.055 43.0131 261.871 42.7218C261.687 42.4151 261.572 42.0701 261.526 41.6868C261.48 41.3035 261.503 40.8895 261.595 40.4448L262.883 34.3728H260.744L261.25 31.9808H268.219L267.713 34.3728H265.413L264.194 40.0998ZM270.504 40.0768C270.458 40.2761 270.45 40.4601 270.481 40.6288C270.511 40.7821 270.565 40.9201 270.642 41.0428C270.734 41.1655 270.856 41.2575 271.01 41.3188C271.163 41.3801 271.339 41.4108 271.539 41.4108C271.953 41.4108 272.443 41.3188 273.011 41.1348C273.578 40.9508 274.13 40.7361 274.667 40.4908L275.127 42.6988C274.513 43.0361 273.839 43.3045 273.103 43.5038C272.367 43.7031 271.654 43.8028 270.964 43.8028C270.427 43.8028 269.936 43.7338 269.492 43.5958C269.062 43.4578 268.702 43.2508 268.411 42.9748C268.135 42.6988 267.943 42.3461 267.836 41.9168C267.744 41.4875 267.759 40.9815 267.882 40.3988L268.894 35.6838C269.078 34.8405 269.4 34.1275 269.86 33.5448C270.335 32.9621 270.91 32.5175 271.585 32.2108C272.275 31.9041 273.034 31.7508 273.862 31.7508C274.69 31.7508 275.38 31.8965 275.932 32.1878C276.499 32.4791 276.898 32.9085 277.128 33.4758C277.358 34.0431 277.381 34.7561 277.197 35.6148L276.438 39.2028L270.642 39.5018L270.504 40.0768ZM274.506 36.3048C274.567 35.9828 274.598 35.6531 274.598 35.3158C274.598 34.9785 274.513 34.7025 274.345 34.4878C274.191 34.2578 273.885 34.1581 273.425 34.1888C272.949 34.2041 272.574 34.3038 272.298 34.4878C272.037 34.6565 271.83 34.8941 271.677 35.2008C271.539 35.4921 271.416 35.8525 271.309 36.2818L271.125 37.1788L274.345 36.9718L274.506 36.3048ZM286.093 32.0038H289.957L287.519 43.4808H284.966L286.944 34.1658H286.231C285.909 34.1658 285.617 34.2041 285.357 34.2808C285.111 34.3575 284.881 34.4955 284.667 34.6948C284.467 34.8941 284.268 35.1855 284.069 35.5688L281.723 40.2608C281.293 41.1041 280.879 41.7788 280.481 42.2848C280.097 42.7755 279.66 43.1588 279.17 43.4348C278.694 43.6955 278.104 43.9025 277.399 44.0558L276.364 42.8368C276.701 42.6681 276.992 42.5148 277.238 42.3768C277.498 42.2388 277.744 42.0395 277.974 41.7788C278.219 41.5181 278.48 41.1271 278.756 40.6058L281.401 35.4538C281.585 35.0858 281.807 34.7025 282.068 34.3038C282.328 33.9051 282.635 33.5295 282.988 33.1768C283.356 32.8241 283.793 32.5405 284.299 32.3258C284.805 32.1111 285.403 32.0038 286.093 32.0038ZM295.871 36.5348C296.561 36.5348 297.182 36.6575 297.734 36.9028C298.302 37.1328 298.723 37.5085 298.999 38.0298C299.275 38.5358 299.321 39.2028 299.137 40.0308C299.015 40.6288 298.746 41.2115 298.332 41.7788C297.918 42.3308 297.374 42.7908 296.699 43.1588C296.025 43.5268 295.227 43.7108 294.307 43.7108C294.016 43.7108 293.663 43.7031 293.249 43.6878C292.851 43.6725 292.429 43.6495 291.984 43.6188C291.555 43.5881 291.149 43.5575 290.765 43.5268C290.382 43.5115 290.068 43.4961 289.822 43.4808C289.592 43.4655 289.477 43.4578 289.477 43.4578L291.915 32.0038H294.468L293.502 36.5348H295.871ZM294.422 41.1118C294.775 41.1118 295.089 41.0811 295.365 41.0198C295.657 40.9431 295.902 40.8205 296.101 40.6518C296.301 40.4831 296.431 40.2531 296.492 39.9618C296.538 39.7778 296.538 39.6168 296.492 39.4788C296.446 39.3408 296.362 39.2258 296.239 39.1338C296.132 39.0418 295.986 38.9805 295.802 38.9498C295.618 38.9038 295.411 38.8808 295.181 38.8808H293.019L292.559 41.0658C292.728 41.0658 292.897 41.0735 293.065 41.0888C293.249 41.0888 293.418 41.0965 293.571 41.1118C293.74 41.1118 293.893 41.1118 294.031 41.1118C294.185 41.1118 294.315 41.1118 294.422 41.1118ZM312.991 35.5228L315.935 31.9808H319.293L314.118 38.0988L316.487 43.5038H313.658L312.278 40.2838L309.633 43.5038H306.229L311.128 37.7538L308.667 31.9808H311.427L312.991 35.5228ZM323.15 32.0038L321.701 38.8348L326.531 32.0038H329.107L326.669 43.5268H324.093L325.519 36.7418L320.712 43.5268H318.182L320.62 32.0038H323.15ZM333.576 40.0998C333.499 40.4831 333.476 40.8128 333.507 41.0888C333.553 41.3648 333.66 41.5948 333.829 41.7788C334.013 41.9475 334.266 42.0931 334.588 42.2158L333.116 43.9638C332.686 43.8411 332.311 43.6801 331.989 43.4808C331.682 43.2661 331.437 43.0131 331.253 42.7218C331.069 42.4151 330.954 42.0701 330.908 41.6868C330.862 41.3035 330.885 40.8895 330.977 40.4448L332.265 34.3728H330.126L330.632 31.9808H337.601L337.095 34.3728H334.795L333.576 40.0998ZM345.958 39.2488C345.682 40.5981 345.107 41.6868 344.233 42.5148C343.374 43.3275 342.239 43.7338 340.829 43.7338C339.817 43.7338 339.035 43.5268 338.483 43.1128C337.946 42.6835 337.601 42.1315 337.448 41.4568C337.294 40.7668 337.294 40.0308 337.448 39.2488L338.115 36.2128C338.329 35.2315 338.667 34.4111 339.127 33.7518C339.602 33.0925 340.192 32.5941 340.898 32.2568C341.618 31.9041 342.446 31.7278 343.382 31.7278C344.716 31.7278 345.666 32.1265 346.234 32.9238C346.801 33.7058 346.931 34.8021 346.625 36.2128L345.958 39.2488ZM344.049 36.0748C344.125 35.7068 344.133 35.3925 344.072 35.1318C344.01 34.8558 343.872 34.6488 343.658 34.5108C343.458 34.3575 343.175 34.2808 342.807 34.2808C342.439 34.2808 342.109 34.3498 341.818 34.4878C341.542 34.6258 341.304 34.8251 341.105 35.0858C340.921 35.3465 340.783 35.6761 340.691 36.0748L339.978 39.4328C339.916 39.7395 339.916 40.0308 339.978 40.3068C340.039 40.5828 340.177 40.8051 340.392 40.9738C340.606 41.1425 340.921 41.2268 341.335 41.2268C341.718 41.2268 342.04 41.1501 342.301 40.9968C342.577 40.8435 342.799 40.6288 342.968 40.3528C343.136 40.0768 343.259 39.7701 343.336 39.4328L344.049 36.0748ZM355.264 37.1328C355.678 37.4395 355.954 37.8535 356.092 38.3748C356.245 38.8961 356.261 39.4635 356.138 40.0768C356.015 40.6748 355.747 41.2575 355.333 41.8248C354.919 42.3768 354.375 42.8368 353.7 43.2048C353.025 43.5728 352.228 43.7568 351.308 43.7568C351.017 43.7568 350.672 43.7491 350.273 43.7338C349.874 43.7185 349.46 43.6955 349.031 43.6648C348.602 43.6341 348.203 43.6035 347.835 43.5728C347.467 43.5575 347.168 43.5421 346.938 43.5268C346.708 43.5115 346.593 43.5038 346.593 43.5038L349.031 31.9808C349.031 31.9808 349.131 31.9731 349.33 31.9578C349.545 31.9271 349.844 31.8965 350.227 31.8658C350.626 31.8198 351.093 31.7891 351.63 31.7738C352.167 31.7431 352.765 31.7278 353.424 31.7278C353.884 31.7278 354.329 31.7815 354.758 31.8888C355.187 31.9961 355.563 32.1571 355.885 32.3718C356.222 32.5865 356.475 32.8701 356.644 33.2228C356.828 33.5601 356.905 33.9741 356.874 34.4648C356.843 34.9401 356.675 35.4308 356.368 35.9368C356.077 36.4275 355.709 36.8261 355.264 37.1328ZM353.01 33.9588C352.872 33.9588 352.726 33.9588 352.573 33.9588C352.42 33.9588 352.259 33.9665 352.09 33.9818C351.937 33.9818 351.776 33.9895 351.607 34.0048C351.454 34.0048 351.3 34.0048 351.147 34.0048L350.595 36.5578H351.768C352.32 36.5578 352.765 36.4888 353.102 36.3508C353.439 36.2128 353.692 36.0365 353.861 35.8218C354.045 35.6071 354.16 35.3925 354.206 35.1778C354.252 34.9785 354.244 34.8098 354.183 34.6718C354.122 34.5185 354.03 34.3881 353.907 34.2808C353.8 34.1735 353.662 34.0968 353.493 34.0508C353.34 33.9895 353.179 33.9588 353.01 33.9588ZM351.423 41.1578C351.776 41.1578 352.105 41.1195 352.412 41.0428C352.719 40.9661 352.979 40.8435 353.194 40.6748C353.409 40.4908 353.547 40.2531 353.608 39.9618C353.654 39.7778 353.646 39.6091 353.585 39.4558C353.539 39.3025 353.447 39.1798 353.309 39.0878C353.186 38.9805 353.025 38.9038 352.826 38.8578C352.642 38.7965 352.435 38.7658 352.205 38.7658H350.135L349.629 41.1118C349.798 41.1118 349.966 41.1195 350.135 41.1348C350.304 41.1348 350.465 41.1425 350.618 41.1578C350.771 41.1578 350.917 41.1578 351.055 41.1578C351.193 41.1578 351.316 41.1578 351.423 41.1578Z" fill="white"/>
</svg>
