<svg width="144" height="38" viewBox="0 0 144 38" fill="none" xmlns="http://www.w3.org/2000/svg">
<path d="M21.3155 9.85463L33.7265 32.6377H28.1765L15.8155 9.85463H8.5155L6.19873 5.56104H26.3987L28.7155 9.85463H21.3155ZM33.8915 12.9878C32.4371 10.3575 32.2835 8.35897 33.4307 6.99224C34.5568 5.59972 36.7699 4.90347 40.0699 4.90347C43.4032 4.90347 46.4035 5.67709 49.0708 7.22433C51.7715 8.77156 53.8067 10.8088 55.1767 13.3359L61.7433 25.4431C62.5984 27.0161 62.9012 28.3828 62.6517 29.5432C62.4143 30.6779 61.6825 31.5547 60.4561 32.1736C59.2085 32.7667 57.5181 33.0632 55.3848 33.0632C53.4181 33.0632 51.4646 32.7538 49.5244 32.1349C47.6175 31.516 45.8888 30.6263 44.3383 29.4659C42.7667 28.2797 41.5111 26.8485 40.5715 25.1723L33.8915 12.9878ZM45.9413 24.7081C46.3839 25.5333 46.9314 26.2425 47.5839 26.8356C48.2363 27.4287 48.9999 27.8929 49.8744 28.2281C50.7612 28.5375 51.7546 28.6923 52.8546 28.6923C53.9213 28.6923 54.734 28.5246 55.2928 28.1894C55.8515 27.8542 56.1608 27.3771 56.2205 26.7582C56.2803 26.1393 56.0827 25.4302 55.628 24.6308L50.0638 14.419C49.4555 13.3101 48.8224 12.3947 48.1643 11.6726C47.4851 10.9248 46.6977 10.3704 45.802 10.0094C44.8851 9.62254 43.7767 9.42914 42.4767 9.42914C41.3434 9.42914 40.5079 9.60965 39.9703 9.97067C39.466 10.3317 39.2534 10.8861 39.3326 11.634C39.3907 12.356 39.7239 13.2715 40.3321 14.3803L45.9413 24.7081ZM71.4566 14.6511L73.6612 5.56104H81.1112L77.8219 19.3702L95.739 32.6377H88.889L76.707 23.6251L74.539 32.6377H67.089L70.4367 19.022L52.3112 5.56104H59.2112L71.4566 14.6511ZM86.4156 9.62254L84.1889 5.56104H92.8889L107.617 32.6377H102.067L89.579 9.6999L86.4156 9.62254ZM124.259 37.086L104.568 0.958008H110.068L129.759 37.086H124.259ZM119.308 10.1641C118.518 9.93199 117.71 9.73859 116.883 9.58386C116.056 9.42914 115.228 9.3131 114.398 9.23573C113.568 9.15837 112.786 9.11969 112.053 9.11969C111.486 9.11969 110.895 9.17127 110.279 9.27442C109.676 9.35178 109.142 9.49361 108.678 9.6999C108.214 9.9062 107.879 10.1899 107.675 10.5509C107.504 10.9119 107.574 11.3632 107.884 11.9047C108.182 12.4721 108.694 12.9749 109.419 13.4133C110.145 13.8517 111.006 14.2514 112.002 14.6124C113.01 14.9476 114.111 15.2958 115.307 15.6568C116.515 15.992 117.761 16.353 119.044 16.7399C120.306 17.1009 121.572 17.5264 122.84 18.0163C124.141 18.5063 125.372 19.0736 126.534 19.7183C127.674 20.3372 128.72 21.085 129.671 21.9618C130.635 22.8128 131.415 23.8056 132.011 24.9402C132.794 26.3843 133.141 27.6221 133.052 28.6536C132.976 29.6593 132.546 30.4974 131.762 31.1678C131.011 31.8383 129.962 32.3283 128.616 32.6377C127.302 32.9472 125.813 33.1019 124.146 33.1019C122.679 33.1019 121.136 32.9472 119.516 32.6377C117.896 32.3283 116.27 31.8899 114.638 31.3226C113.019 30.7295 111.505 30.0203 110.096 29.1951L111.478 26.4875C112.564 27.0806 113.699 27.5705 114.882 27.9573C116.044 28.3184 117.21 28.602 118.379 28.8083C119.56 28.9888 120.701 29.0791 121.801 29.0791C122.601 29.0791 123.327 28.9888 123.979 28.8083C124.665 28.6278 125.22 28.3699 125.645 28.0347C126.083 27.6737 126.341 27.2353 126.418 26.7195C126.475 26.178 126.301 25.5591 125.897 24.8629C125.527 24.1666 124.964 23.5606 124.208 23.0448C123.465 22.5033 122.585 22.0391 121.568 21.6523C120.563 21.2397 119.463 20.8529 118.267 20.4919C117.072 20.1309 115.843 19.7699 114.58 19.4088C113.33 19.022 112.092 18.6094 110.866 18.171C109.653 17.7069 108.487 17.1782 107.367 16.5851C106.227 15.9662 105.196 15.2571 104.275 14.4577C103.366 13.6325 102.607 12.6655 101.999 11.5566C101.36 10.3704 101.137 9.36467 101.327 8.53948C101.518 7.71428 102.013 7.05671 102.812 6.56675C103.61 6.07679 104.592 5.72866 105.756 5.52236C106.933 5.29028 108.171 5.17423 109.471 5.17423C110.404 5.17423 111.397 5.22581 112.448 5.32896C113.478 5.40632 114.538 5.56104 115.628 5.79313C116.73 5.99943 117.785 6.27019 118.793 6.60543L119.308 10.1641Z" fill="#DEF37B"/>
</svg>
