<svg width="365" height="53" viewBox="0 0 365 53" fill="none" xmlns="http://www.w3.org/2000/svg">
<g clip-path="url(#clip0_395_792)">
<path d="M4.55005 13.8C4.46672 14.2167 4.44172 14.575 4.47505 14.875C4.52505 15.175 4.64172 15.425 4.82505 15.625C5.02505 15.8083 5.30005 15.9667 5.65005 16.1L4.05005 18C3.58338 17.8667 3.17505 17.6917 2.82505 17.475C2.49172 17.2417 2.22505 16.9667 2.02505 16.65C1.82505 16.3167 1.70005 15.9417 1.65005 15.525C1.60005 15.1083 1.62505 14.6583 1.72505 14.175L3.12505 7.575H0.800049L1.35005 4.975H8.92505L8.37505 7.575H5.87505L4.55005 13.8ZM9.08384 22.725L11.9338 17.5L10.0588 4.975H12.7088L14.0088 13.775L18.7589 4.975H21.4088L11.7838 22.725H9.08384ZM25.9855 13.8C25.9022 14.2167 25.8772 14.575 25.9105 14.875C25.9605 15.175 26.0772 15.425 26.2605 15.625C26.4605 15.8083 26.7356 15.9667 27.0856 16.1L25.4855 18C25.0189 17.8667 24.6105 17.6917 24.2605 17.475C23.9272 17.2417 23.6606 16.9667 23.4606 16.65C23.2606 16.3167 23.1356 15.9417 23.0856 15.525C23.0356 15.1083 23.0605 14.6583 23.1605 14.175L24.5605 7.575H22.2355L22.7855 4.975H30.3605L29.8105 7.575H27.3105L25.9855 13.8ZM43.8262 4.8C44.7595 4.8 45.5013 4.975 46.0513 5.325C46.6013 5.675 46.9596 6.2 47.1263 6.9C47.3096 7.6 47.2928 8.46667 47.0762 9.5L46.3512 12.875C46.0345 14.3917 45.3845 15.5917 44.4012 16.475C43.4178 17.3417 42.2095 17.775 40.7762 17.775C39.8428 17.775 39.0596 17.5917 38.4263 17.225C37.8096 16.8417 37.3763 16.2917 37.1263 15.575C36.8929 14.8417 36.8845 13.9417 37.1012 12.875L38.6763 5.5C38.8096 4.88333 39.0429 4.25833 39.3763 3.625C39.7263 2.99167 40.1846 2.41667 40.7513 1.9C41.2679 1.41667 41.8845 1.00833 42.6012 0.675C43.3178 0.341667 44.1346 0.116667 45.0513 0L45.3512 1.725C44.7845 1.84167 44.2679 2.00833 43.8013 2.225C43.3513 2.44167 42.9428 2.73333 42.5762 3.1C42.3095 3.38333 42.0845 3.70833 41.9012 4.075C41.7178 4.44167 41.5678 4.89167 41.4512 5.425L41.4012 5.65C41.6178 5.51667 41.8596 5.38333 42.1263 5.25C42.4096 5.11667 42.6928 5.00833 42.9762 4.925C43.2762 4.84167 43.5595 4.8 43.8262 4.8ZM42.9263 7.3C42.7263 7.3 42.5095 7.33333 42.2762 7.4C42.0428 7.45 41.8178 7.54167 41.6012 7.675C41.3845 7.79167 41.1928 7.95833 41.0262 8.175C40.8762 8.375 40.7678 8.61667 40.7012 8.9L39.8262 13.025C39.7428 13.4417 39.7262 13.8 39.7762 14.1C39.8262 14.3833 39.9678 14.6083 40.2012 14.775C40.4345 14.925 40.7846 15 41.2513 15C41.6513 15 42.0095 14.9167 42.3262 14.75C42.6428 14.5833 42.9012 14.3583 43.1012 14.075C43.3178 13.775 43.4679 13.425 43.5513 13.025L44.3763 9.125C44.4596 8.74167 44.4596 8.41667 44.3763 8.15C44.2929 7.86667 44.1263 7.65833 43.8763 7.525C43.6429 7.375 43.3263 7.3 42.9263 7.3ZM48.1951 22.725L51.0452 17.5L49.1702 4.975H51.8201L53.1201 13.775L57.8701 4.975H60.5201L50.8951 22.725H48.1951ZM71.1969 14.775H72.5969L71.3469 20.65H69.0469L69.1969 17.525H61.597L60.3969 20.65H58.097L59.347 14.775H61.047L64.0719 8.75C64.2719 8.35 64.5052 7.93333 64.7719 7.5C65.0552 7.05 65.3802 6.63333 65.7469 6.25C66.1302 5.86667 66.5885 5.55833 67.1219 5.325C67.6719 5.09167 68.3219 4.975 69.0719 4.975H73.2719L71.1969 14.775ZM63.922 14.775H68.4219L70.0219 7.325H69.2469C68.9802 7.325 68.7302 7.35 68.4969 7.4C68.2635 7.43333 68.0469 7.50833 67.8469 7.625C67.6469 7.74167 67.4552 7.9 67.2719 8.1C67.0885 8.3 66.9219 8.55833 66.7719 8.875L63.922 14.775ZM76.692 13.775C76.642 13.9917 76.6337 14.1917 76.667 14.375C76.7003 14.5417 76.7587 14.6917 76.842 14.825C76.942 14.9583 77.0753 15.0583 77.242 15.125C77.4087 15.1917 77.6003 15.225 77.817 15.225C78.267 15.225 78.8003 15.125 79.417 14.925C80.0337 14.725 80.6337 14.4917 81.217 14.225L81.717 16.625C81.0503 16.9917 80.317 17.2833 79.517 17.5C78.717 17.7167 77.942 17.825 77.192 17.825C76.6087 17.825 76.0753 17.75 75.592 17.6C75.1253 17.45 74.7337 17.225 74.417 16.925C74.117 16.625 73.9087 16.2417 73.792 15.775C73.692 15.3083 73.7087 14.7583 73.842 14.125L74.942 9C75.142 8.08333 75.492 7.30833 75.992 6.675C76.5087 6.04167 77.1337 5.55833 77.867 5.225C78.617 4.89167 79.442 4.725 80.342 4.725C81.242 4.725 81.992 4.88333 82.592 5.2C83.2087 5.51667 83.642 5.98333 83.892 6.6C84.142 7.21667 84.167 7.99167 83.967 8.925L83.142 12.825L76.842 13.15L76.692 13.775ZM81.042 9.675C81.1087 9.325 81.142 8.96667 81.142 8.6C81.142 8.23333 81.0503 7.93333 80.867 7.7C80.7003 7.45 80.367 7.34167 79.867 7.375C79.3503 7.39167 78.942 7.5 78.642 7.7C78.3587 7.88333 78.1337 8.14167 77.967 8.475C77.817 8.79167 77.6837 9.18333 77.567 9.65L77.367 10.625L80.867 10.4L81.042 9.675ZM89.4865 13.8C89.4032 14.2167 89.3782 14.575 89.4115 14.875C89.4615 15.175 89.5782 15.425 89.7615 15.625C89.9615 15.8083 90.2365 15.9667 90.5865 16.1L88.9865 18C88.5199 17.8667 88.1115 17.6917 87.7615 17.475C87.4282 17.2417 87.1615 16.9667 86.9615 16.65C86.7615 16.3167 86.6365 15.9417 86.5865 15.525C86.5365 15.1083 86.5615 14.6583 86.6615 14.175L88.0615 7.575H85.7365L86.2865 4.975H93.8615L93.3115 7.575H90.8115L89.4865 13.8ZM108.077 9.35L109.002 5H111.752L109.102 17.5H106.352L107.527 11.975H103.827L102.652 17.5H99.8771L102.527 5H105.302L104.377 9.35H108.077ZM114.436 13.775C114.386 13.9917 114.378 14.1917 114.411 14.375C114.444 14.5417 114.503 14.6917 114.586 14.825C114.686 14.9583 114.819 15.0583 114.986 15.125C115.153 15.1917 115.344 15.225 115.561 15.225C116.011 15.225 116.544 15.125 117.161 14.925C117.778 14.725 118.378 14.4917 118.961 14.225L119.461 16.625C118.794 16.9917 118.061 17.2833 117.261 17.5C116.461 17.7167 115.686 17.825 114.936 17.825C114.353 17.825 113.819 17.75 113.336 17.6C112.869 17.45 112.478 17.225 112.161 16.925C111.861 16.625 111.653 16.2417 111.536 15.775C111.436 15.3083 111.453 14.7583 111.586 14.125L112.686 9C112.886 8.08333 113.236 7.30833 113.736 6.675C114.253 6.04167 114.878 5.55833 115.611 5.225C116.361 4.89167 117.186 4.725 118.086 4.725C118.986 4.725 119.736 4.88333 120.336 5.2C120.953 5.51667 121.386 5.98333 121.636 6.6C121.886 7.21667 121.911 7.99167 121.711 8.925L120.886 12.825L114.586 13.15L114.436 13.775ZM118.786 9.675C118.853 9.325 118.886 8.96667 118.886 8.6C118.886 8.23333 118.794 7.93333 118.611 7.7C118.444 7.45 118.111 7.34167 117.611 7.375C117.094 7.39167 116.686 7.5 116.386 7.7C116.103 7.88333 115.878 8.14167 115.711 8.475C115.561 8.79167 115.428 9.18333 115.311 9.65L115.111 10.625L118.611 10.4L118.786 9.675ZM134.031 5H137.081L134.431 17.525H131.681L133.081 10.9L129.081 17.525H127.006L125.756 10.9L124.356 17.525H121.581L124.231 5H127.331L128.806 13.8L134.031 5ZM144.527 9.35L145.452 5H148.202L145.552 17.5H142.802L143.977 11.975H140.277L139.102 17.5H136.327L138.977 5H141.752L140.827 9.35H144.527ZM157.486 12.875C157.186 14.3417 156.561 15.525 155.611 16.425C154.678 17.3083 153.445 17.75 151.911 17.75C150.811 17.75 149.961 17.525 149.361 17.075C148.778 16.6083 148.403 16.0083 148.236 15.275C148.07 14.525 148.07 13.725 148.236 12.875L148.961 9.575C149.195 8.50833 149.561 7.61667 150.061 6.9C150.578 6.18333 151.22 5.64167 151.986 5.275C152.77 4.89167 153.67 4.7 154.686 4.7C156.136 4.7 157.17 5.13333 157.786 6C158.403 6.85 158.545 8.04167 158.211 9.575L157.486 12.875ZM155.411 9.425C155.495 9.025 155.503 8.68333 155.436 8.4C155.37 8.1 155.22 7.875 154.986 7.725C154.77 7.55833 154.461 7.475 154.061 7.475C153.661 7.475 153.303 7.55 152.986 7.7C152.686 7.85 152.428 8.06667 152.211 8.35C152.011 8.63333 151.861 8.99167 151.761 9.425L150.986 13.075C150.92 13.4083 150.92 13.725 150.986 14.025C151.053 14.325 151.203 14.5667 151.436 14.75C151.67 14.9333 152.011 15.025 152.461 15.025C152.878 15.025 153.228 14.9417 153.511 14.775C153.811 14.6083 154.053 14.375 154.236 14.075C154.42 13.775 154.553 13.4417 154.636 13.075L155.411 9.425ZM168.302 12.875C168.002 14.3417 167.377 15.525 166.427 16.425C165.493 17.3083 164.26 17.75 162.727 17.75C161.627 17.75 160.777 17.525 160.177 17.075C159.593 16.6083 159.218 16.0083 159.052 15.275C158.885 14.525 158.885 13.725 159.052 12.875L159.777 9.575C160.01 8.50833 160.377 7.61667 160.877 6.9C161.393 6.18333 162.035 5.64167 162.802 5.275C163.585 4.89167 164.485 4.7 165.502 4.7C166.952 4.7 167.985 5.13333 168.602 6C169.218 6.85 169.36 8.04167 169.027 9.575L168.302 12.875ZM166.227 9.425C166.31 9.025 166.318 8.68333 166.252 8.4C166.185 8.1 166.035 7.875 165.802 7.725C165.585 7.55833 165.277 7.475 164.877 7.475C164.477 7.475 164.118 7.55 163.802 7.7C163.502 7.85 163.243 8.06667 163.027 8.35C162.827 8.63333 162.677 8.99167 162.577 9.425L161.802 13.075C161.735 13.4083 161.735 13.725 161.802 14.025C161.868 14.325 162.018 14.5667 162.252 14.75C162.485 14.9333 162.827 15.025 163.277 15.025C163.693 15.025 164.043 14.9417 164.327 14.775C164.627 14.6083 164.868 14.375 165.052 14.075C165.235 13.775 165.368 13.4417 165.452 13.075L166.227 9.425ZM179.117 12.875C178.817 14.3417 178.192 15.525 177.242 16.425C176.309 17.3083 175.076 17.75 173.542 17.75C172.442 17.75 171.592 17.525 170.992 17.075C170.409 16.6083 170.034 16.0083 169.867 15.275C169.701 14.525 169.701 13.725 169.867 12.875L170.592 9.575C170.826 8.50833 171.192 7.61667 171.692 6.9C172.209 6.18333 172.851 5.64167 173.617 5.275C174.401 4.89167 175.301 4.7 176.317 4.7C177.767 4.7 178.801 5.13333 179.417 6C180.034 6.85 180.176 8.04167 179.842 9.575L179.117 12.875ZM177.042 9.425C177.126 9.025 177.134 8.68333 177.067 8.4C177.001 8.1 176.851 7.875 176.617 7.725C176.401 7.55833 176.092 7.475 175.692 7.475C175.292 7.475 174.934 7.55 174.617 7.7C174.317 7.85 174.059 8.06667 173.842 8.35C173.642 8.63333 173.492 8.99167 173.392 9.425L172.617 13.075C172.551 13.4083 172.551 13.725 172.617 14.025C172.684 14.325 172.834 14.5667 173.067 14.75C173.301 14.9333 173.642 15.025 174.092 15.025C174.509 15.025 174.859 14.9417 175.142 14.775C175.442 14.6083 175.684 14.375 175.867 14.075C176.051 13.775 176.184 13.4417 176.267 13.075L177.042 9.425ZM189.933 12.875C189.633 14.3417 189.008 15.525 188.058 16.425C187.124 17.3083 185.891 17.75 184.358 17.75C183.258 17.75 182.408 17.525 181.808 17.075C181.224 16.6083 180.849 16.0083 180.683 15.275C180.516 14.525 180.516 13.725 180.683 12.875L181.408 9.575C181.641 8.50833 182.008 7.61667 182.508 6.9C183.024 6.18333 183.666 5.64167 184.433 5.275C185.216 4.89167 186.116 4.7 187.133 4.7C188.583 4.7 189.616 5.13333 190.233 6C190.849 6.85 190.991 8.04167 190.658 9.575L189.933 12.875ZM187.858 9.425C187.941 9.025 187.949 8.68333 187.883 8.4C187.816 8.1 187.666 7.875 187.433 7.725C187.216 7.55833 186.908 7.475 186.508 7.475C186.108 7.475 185.749 7.55 185.433 7.7C185.133 7.85 184.874 8.06667 184.658 8.35C184.458 8.63333 184.308 8.99167 184.208 9.425L183.433 13.075C183.366 13.4083 183.366 13.725 183.433 14.025C183.499 14.325 183.649 14.5667 183.883 14.75C184.116 14.9333 184.458 15.025 184.908 15.025C185.324 15.025 185.674 14.9417 185.958 14.775C186.258 14.6083 186.499 14.375 186.683 14.075C186.866 13.775 186.999 13.4417 187.083 13.075L187.858 9.425ZM200.748 12.875C200.448 14.3417 199.823 15.525 198.873 16.425C197.94 17.3083 196.706 17.75 195.173 17.75C194.073 17.75 193.223 17.525 192.623 17.075C192.04 16.6083 191.665 16.0083 191.498 15.275C191.331 14.525 191.331 13.725 191.498 12.875L192.223 9.575C192.456 8.50833 192.823 7.61667 193.323 6.9C193.84 6.18333 194.481 5.64167 195.248 5.275C196.031 4.89167 196.931 4.7 197.948 4.7C199.398 4.7 200.431 5.13333 201.048 6C201.665 6.85 201.806 8.04167 201.473 9.575L200.748 12.875ZM198.673 9.425C198.756 9.025 198.765 8.68333 198.698 8.4C198.631 8.1 198.481 7.875 198.248 7.725C198.031 7.55833 197.723 7.475 197.323 7.475C196.923 7.475 196.565 7.55 196.248 7.7C195.948 7.85 195.69 8.06667 195.473 8.35C195.273 8.63333 195.123 8.99167 195.023 9.425L194.248 13.075C194.181 13.4083 194.181 13.725 194.248 14.025C194.315 14.325 194.465 14.5667 194.698 14.75C194.931 14.9333 195.273 15.025 195.723 15.025C196.14 15.025 196.49 14.9417 196.773 14.775C197.073 14.6083 197.315 14.375 197.498 14.075C197.681 13.775 197.815 13.4417 197.898 13.075L198.673 9.425ZM211.563 12.875C211.263 14.3417 210.638 15.525 209.688 16.425C208.755 17.3083 207.522 17.75 205.988 17.75C204.888 17.75 204.038 17.525 203.438 17.075C202.855 16.6083 202.48 16.0083 202.313 15.275C202.147 14.525 202.147 13.725 202.313 12.875L203.038 9.575C203.272 8.50833 203.638 7.61667 204.138 6.9C204.655 6.18333 205.297 5.64167 206.063 5.275C206.847 4.89167 207.747 4.7 208.763 4.7C210.213 4.7 211.247 5.13333 211.863 6C212.48 6.85 212.622 8.04167 212.288 9.575L211.563 12.875ZM209.488 9.425C209.572 9.025 209.58 8.68333 209.513 8.4C209.447 8.1 209.297 7.875 209.063 7.725C208.847 7.55833 208.538 7.475 208.138 7.475C207.738 7.475 207.38 7.55 207.063 7.7C206.763 7.85 206.505 8.06667 206.288 8.35C206.088 8.63333 205.938 8.99167 205.838 9.425L205.063 13.075C204.997 13.4083 204.997 13.725 205.063 14.025C205.13 14.325 205.28 14.5667 205.513 14.75C205.747 14.9333 206.088 15.025 206.538 15.025C206.955 15.025 207.305 14.9417 207.588 14.775C207.888 14.6083 208.13 14.375 208.313 14.075C208.497 13.775 208.63 13.4417 208.713 13.075L209.488 9.425ZM222.379 12.875C222.079 14.3417 221.454 15.525 220.504 16.425C219.571 17.3083 218.337 17.75 216.804 17.75C215.704 17.75 214.854 17.525 214.254 17.075C213.671 16.6083 213.296 16.0083 213.129 15.275C212.962 14.525 212.962 13.725 213.129 12.875L213.854 9.575C214.087 8.50833 214.454 7.61667 214.954 6.9C215.471 6.18333 216.112 5.64167 216.879 5.275C217.662 4.89167 218.562 4.7 219.579 4.7C221.029 4.7 222.062 5.13333 222.679 6C223.296 6.85 223.437 8.04167 223.104 9.575L222.379 12.875ZM220.304 9.425C220.387 9.025 220.396 8.68333 220.329 8.4C220.262 8.1 220.112 7.875 219.879 7.725C219.662 7.55833 219.354 7.475 218.954 7.475C218.554 7.475 218.196 7.55 217.879 7.7C217.579 7.85 217.321 8.06667 217.104 8.35C216.904 8.63333 216.754 8.99167 216.654 9.425L215.879 13.075C215.812 13.4083 215.812 13.725 215.879 14.025C215.946 14.325 216.096 14.5667 216.329 14.75C216.562 14.9333 216.904 15.025 217.354 15.025C217.771 15.025 218.121 14.9417 218.404 14.775C218.704 14.6083 218.946 14.375 219.129 14.075C219.312 13.775 219.446 13.4417 219.529 13.075L220.304 9.425ZM233.194 12.875C232.894 14.3417 232.269 15.525 231.319 16.425C230.386 17.3083 229.153 17.75 227.619 17.75C226.519 17.75 225.669 17.525 225.069 17.075C224.486 16.6083 224.111 16.0083 223.944 15.275C223.778 14.525 223.778 13.725 223.944 12.875L224.669 9.575C224.903 8.50833 225.269 7.61667 225.769 6.9C226.286 6.18333 226.928 5.64167 227.694 5.275C228.478 4.89167 229.378 4.7 230.394 4.7C231.844 4.7 232.878 5.13333 233.494 6C234.111 6.85 234.253 8.04167 233.919 9.575L233.194 12.875ZM231.119 9.425C231.203 9.025 231.211 8.68333 231.144 8.4C231.078 8.1 230.928 7.875 230.694 7.725C230.478 7.55833 230.169 7.475 229.769 7.475C229.369 7.475 229.011 7.55 228.694 7.7C228.394 7.85 228.136 8.06667 227.919 8.35C227.719 8.63333 227.569 8.99167 227.469 9.425L226.694 13.075C226.628 13.4083 226.628 13.725 226.694 14.025C226.761 14.325 226.911 14.5667 227.144 14.75C227.378 14.9333 227.719 15.025 228.169 15.025C228.586 15.025 228.936 14.9417 229.219 14.775C229.519 14.6083 229.761 14.375 229.944 14.075C230.128 13.775 230.261 13.4417 230.344 13.075L231.119 9.425ZM244.01 12.875C243.71 14.3417 243.085 15.525 242.135 16.425C241.201 17.3083 239.968 17.75 238.435 17.75C237.335 17.75 236.485 17.525 235.885 17.075C235.301 16.6083 234.926 16.0083 234.76 15.275C234.593 14.525 234.593 13.725 234.76 12.875L235.485 9.575C235.718 8.50833 236.085 7.61667 236.585 6.9C237.101 6.18333 237.743 5.64167 238.51 5.275C239.293 4.89167 240.193 4.7 241.21 4.7C242.66 4.7 243.693 5.13333 244.31 6C244.926 6.85 245.068 8.04167 244.735 9.575L244.01 12.875ZM241.935 9.425C242.018 9.025 242.026 8.68333 241.96 8.4C241.893 8.1 241.743 7.875 241.51 7.725C241.293 7.55833 240.985 7.475 240.585 7.475C240.185 7.475 239.826 7.55 239.51 7.7C239.21 7.85 238.951 8.06667 238.735 8.35C238.535 8.63333 238.385 8.99167 238.285 9.425L237.51 13.075C237.443 13.4083 237.443 13.725 237.51 14.025C237.576 14.325 237.726 14.5667 237.96 14.75C238.193 14.9333 238.535 15.025 238.985 15.025C239.401 15.025 239.751 14.9417 240.035 14.775C240.335 14.6083 240.576 14.375 240.76 14.075C240.943 13.775 241.076 13.4417 241.16 13.075L241.935 9.425ZM254.825 12.875C254.525 14.3417 253.9 15.525 252.95 16.425C252.017 17.3083 250.784 17.75 249.25 17.75C248.15 17.75 247.3 17.525 246.7 17.075C246.117 16.6083 245.742 16.0083 245.575 15.275C245.409 14.525 245.409 13.725 245.575 12.875L246.3 9.575C246.534 8.50833 246.9 7.61667 247.4 6.9C247.917 6.18333 248.559 5.64167 249.325 5.275C250.109 4.89167 251.009 4.7 252.025 4.7C253.475 4.7 254.509 5.13333 255.125 6C255.742 6.85 255.884 8.04167 255.55 9.575L254.825 12.875ZM252.75 9.425C252.834 9.025 252.842 8.68333 252.775 8.4C252.709 8.1 252.559 7.875 252.325 7.725C252.109 7.55833 251.8 7.475 251.4 7.475C251 7.475 250.642 7.55 250.325 7.7C250.025 7.85 249.767 8.06667 249.55 8.35C249.35 8.63333 249.2 8.99167 249.1 9.425L248.325 13.075C248.259 13.4083 248.259 13.725 248.325 14.025C248.392 14.325 248.542 14.5667 248.775 14.75C249.009 14.9333 249.35 15.025 249.8 15.025C250.217 15.025 250.567 14.9417 250.85 14.775C251.15 14.6083 251.392 14.375 251.575 14.075C251.759 13.775 251.892 13.4417 251.975 13.075L252.75 9.425ZM265.641 12.875C265.341 14.3417 264.716 15.525 263.766 16.425C262.832 17.3083 261.599 17.75 260.066 17.75C258.966 17.75 258.116 17.525 257.516 17.075C256.932 16.6083 256.557 16.0083 256.391 15.275C256.224 14.525 256.224 13.725 256.391 12.875L257.116 9.575C257.349 8.50833 257.716 7.61667 258.216 6.9C258.732 6.18333 259.374 5.64167 260.141 5.275C260.924 4.89167 261.824 4.7 262.841 4.7C264.291 4.7 265.324 5.13333 265.941 6C266.557 6.85 266.699 8.04167 266.366 9.575L265.641 12.875ZM263.566 9.425C263.649 9.025 263.657 8.68333 263.591 8.4C263.524 8.1 263.374 7.875 263.141 7.725C262.924 7.55833 262.616 7.475 262.216 7.475C261.816 7.475 261.457 7.55 261.141 7.7C260.841 7.85 260.582 8.06667 260.366 8.35C260.166 8.63333 260.016 8.99167 259.916 9.425L259.141 13.075C259.074 13.4083 259.074 13.725 259.141 14.025C259.207 14.325 259.357 14.5667 259.591 14.75C259.824 14.9333 260.166 15.025 260.616 15.025C261.032 15.025 261.382 14.9417 261.666 14.775C261.966 14.6083 262.207 14.375 262.391 14.075C262.574 13.775 262.707 13.4417 262.791 13.075L263.566 9.425ZM276.456 12.875C276.156 14.3417 275.531 15.525 274.581 16.425C273.648 17.3083 272.414 17.75 270.881 17.75C269.781 17.75 268.931 17.525 268.331 17.075C267.748 16.6083 267.373 16.0083 267.206 15.275C267.039 14.525 267.039 13.725 267.206 12.875L267.931 9.575C268.164 8.50833 268.531 7.61667 269.031 6.9C269.548 6.18333 270.189 5.64167 270.956 5.275C271.739 4.89167 272.639 4.7 273.656 4.7C275.106 4.7 276.139 5.13333 276.756 6C277.373 6.85 277.514 8.04167 277.181 9.575L276.456 12.875ZM274.381 9.425C274.464 9.025 274.473 8.68333 274.406 8.4C274.339 8.1 274.189 7.875 273.956 7.725C273.739 7.55833 273.431 7.475 273.031 7.475C272.631 7.475 272.273 7.55 271.956 7.7C271.656 7.85 271.398 8.06667 271.181 8.35C270.981 8.63333 270.831 8.99167 270.731 9.425L269.956 13.075C269.889 13.4083 269.889 13.725 269.956 14.025C270.023 14.325 270.173 14.5667 270.406 14.75C270.639 14.9333 270.981 15.025 271.431 15.025C271.848 15.025 272.198 14.9417 272.481 14.775C272.781 14.6083 273.023 14.375 273.206 14.075C273.389 13.775 273.523 13.4417 273.606 13.075L274.381 9.425ZM279.746 5H286.621L286.046 7.75H281.971L279.896 17.5H277.096L279.746 5ZM295.206 12.875C294.906 14.3417 294.281 15.525 293.331 16.425C292.398 17.3083 291.164 17.75 289.631 17.75C288.531 17.75 287.681 17.525 287.081 17.075C286.498 16.6083 286.123 16.0083 285.956 15.275C285.789 14.525 285.789 13.725 285.956 12.875L286.681 9.575C286.914 8.50833 287.281 7.61667 287.781 6.9C288.298 6.18333 288.939 5.64167 289.706 5.275C290.489 4.89167 291.389 4.7 292.406 4.7C293.856 4.7 294.889 5.13333 295.506 6C296.123 6.85 296.264 8.04167 295.931 9.575L295.206 12.875ZM293.131 9.425C293.214 9.025 293.223 8.68333 293.156 8.4C293.089 8.1 292.939 7.875 292.706 7.725C292.489 7.55833 292.181 7.475 291.781 7.475C291.381 7.475 291.023 7.55 290.706 7.7C290.406 7.85 290.148 8.06667 289.931 8.35C289.731 8.63333 289.581 8.99167 289.481 9.425L288.706 13.075C288.639 13.4083 288.639 13.725 288.706 14.025C288.773 14.325 288.923 14.5667 289.156 14.75C289.389 14.9333 289.731 15.025 290.181 15.025C290.598 15.025 290.948 14.9417 291.231 14.775C291.531 14.6083 291.773 14.375 291.956 14.075C292.139 13.775 292.273 13.4417 292.356 13.075L293.131 9.425ZM308.578 13.8C308.495 14.2167 308.47 14.575 308.503 14.875C308.553 15.175 308.67 15.425 308.853 15.625C309.053 15.8083 309.328 15.9667 309.678 16.1L308.078 18C307.612 17.8667 307.203 17.6917 306.853 17.475C306.52 17.2417 306.253 16.9667 306.053 16.65C305.853 16.3167 305.728 15.9417 305.678 15.525C305.628 15.1083 305.653 14.6583 305.753 14.175L307.153 7.575H304.828L305.378 4.975H312.953L312.403 7.575H309.903L308.578 13.8ZM315.437 13.775C315.387 13.9917 315.379 14.1917 315.412 14.375C315.445 14.5417 315.504 14.6917 315.587 14.825C315.687 14.9583 315.82 15.0583 315.987 15.125C316.154 15.1917 316.345 15.225 316.562 15.225C317.012 15.225 317.545 15.125 318.162 14.925C318.779 14.725 319.379 14.4917 319.962 14.225L320.462 16.625C319.795 16.9917 319.062 17.2833 318.262 17.5C317.462 17.7167 316.687 17.825 315.937 17.825C315.354 17.825 314.82 17.75 314.337 17.6C313.87 17.45 313.479 17.225 313.162 16.925C312.862 16.625 312.654 16.2417 312.537 15.775C312.437 15.3083 312.454 14.7583 312.587 14.125L313.687 9C313.887 8.08333 314.237 7.30833 314.737 6.675C315.254 6.04167 315.879 5.55833 316.612 5.225C317.362 4.89167 318.187 4.725 319.087 4.725C319.987 4.725 320.737 4.88333 321.337 5.2C321.954 5.51667 322.387 5.98333 322.637 6.6C322.887 7.21667 322.912 7.99167 322.712 8.925L321.887 12.825L315.587 13.15L315.437 13.775ZM319.787 9.675C319.854 9.325 319.887 8.96667 319.887 8.6C319.887 8.23333 319.795 7.93333 319.612 7.7C319.445 7.45 319.112 7.34167 318.612 7.375C318.095 7.39167 317.687 7.5 317.387 7.7C317.104 7.88333 316.879 8.14167 316.712 8.475C316.562 8.79167 316.429 9.18333 316.312 9.65L316.112 10.625L319.612 10.4L319.787 9.675ZM331.482 13.5C331.698 13.9167 331.882 14.2417 332.032 14.475C332.198 14.6917 332.357 14.8417 332.507 14.925C332.673 15.0083 332.857 15.05 333.057 15.05H333.182L332.582 17.5H332.207C331.59 17.5 331.065 17.3667 330.632 17.1C330.215 16.8333 329.857 16.4833 329.557 16.05C329.273 15.6167 329.007 15.1583 328.757 14.675L327.357 11.95L326.482 12.625L325.457 17.5H322.682L325.407 4.7L328.107 5L327.232 9.15L331.957 4.975H335.382L329.732 10L331.482 13.5ZM343.871 7.65C343.571 7.48333 343.23 7.35833 342.846 7.275C342.48 7.175 342.105 7.11667 341.721 7.1C341.271 7.1 340.846 7.175 340.446 7.325C340.046 7.45833 339.705 7.68333 339.421 8C339.138 8.3 338.946 8.7 338.846 9.2L338.021 13.125C337.938 13.5083 337.93 13.85 337.996 14.15C338.063 14.4333 338.188 14.6667 338.371 14.85C338.571 15.0333 338.821 15.175 339.121 15.275C339.421 15.3583 339.763 15.4 340.146 15.4C340.413 15.4 340.68 15.3917 340.946 15.375C341.23 15.3417 341.48 15.3083 341.696 15.275C341.913 15.225 342.088 15.1917 342.221 15.175C342.355 15.1417 342.421 15.125 342.421 15.125L342.446 17.375C341.896 17.5083 341.338 17.6167 340.771 17.7C340.205 17.7833 339.638 17.8167 339.071 17.8C338.121 17.7833 337.321 17.6083 336.671 17.275C336.021 16.9417 335.571 16.4333 335.321 15.75C335.071 15.0667 335.055 14.2 335.271 13.15L336.071 9.5C336.288 8.53333 336.63 7.68333 337.096 6.95C337.58 6.21667 338.213 5.65 338.996 5.25C339.796 4.85 340.771 4.66667 341.921 4.7C342.455 4.71667 342.971 4.8 343.471 4.95C343.988 5.1 344.471 5.29167 344.921 5.525L343.871 7.65ZM349.74 13.8C349.657 14.2167 349.632 14.575 349.665 14.875C349.715 15.175 349.832 15.425 350.015 15.625C350.215 15.8083 350.49 15.9667 350.84 16.1L349.24 18C348.774 17.8667 348.365 17.6917 348.015 17.475C347.682 17.2417 347.415 16.9667 347.215 16.65C347.015 16.3167 346.89 15.9417 346.84 15.525C346.79 15.1083 346.815 14.6583 346.915 14.175L348.315 7.575H345.99L346.54 4.975H354.115L353.565 7.575H351.065L349.74 13.8ZM364.949 5.325C364.783 5.84167 364.641 6.30833 364.524 6.725C364.424 7.125 364.341 7.46667 364.274 7.75L362.224 17.375C362.224 17.375 362.108 17.3833 361.874 17.4C361.658 17.4167 361.358 17.4417 360.974 17.475C360.608 17.4917 360.191 17.5083 359.724 17.525C359.274 17.5417 358.816 17.5583 358.349 17.575C357.899 17.5917 357.483 17.6 357.099 17.6C356.333 17.6 355.708 17.4833 355.224 17.25C354.758 17.0167 354.408 16.7 354.174 16.3C353.941 15.9 353.808 15.4417 353.774 14.925C353.758 14.3917 353.808 13.8333 353.924 13.25L354.924 8.625C355.074 7.89167 355.283 7.28333 355.549 6.8C355.833 6.3 356.149 5.90833 356.499 5.625C356.866 5.325 357.266 5.11667 357.699 5C358.133 4.86667 358.599 4.8 359.099 4.8C359.616 4.8 360.091 4.83333 360.524 4.9C360.958 4.96667 361.316 5.04167 361.599 5.125C361.899 5.20833 362.108 5.275 362.224 5.325C362.224 5.325 362.258 5.25833 362.324 5.125C362.408 4.975 362.499 4.83333 362.599 4.7L364.949 5.325ZM356.674 13.275C356.574 13.825 356.558 14.25 356.624 14.55C356.691 14.8333 356.841 15.0333 357.074 15.15C357.324 15.25 357.649 15.3 358.049 15.3C358.199 15.3 358.349 15.3 358.499 15.3C358.649 15.3 358.799 15.3 358.949 15.3C359.099 15.2833 359.249 15.2667 359.399 15.25C359.566 15.2333 359.733 15.2167 359.899 15.2L361.449 7.825C361.333 7.75833 361.191 7.7 361.024 7.65C360.858 7.58333 360.674 7.525 360.474 7.475C360.291 7.425 360.108 7.39167 359.924 7.375C359.758 7.34167 359.608 7.325 359.474 7.325C359.341 7.325 359.183 7.33333 358.999 7.35C358.833 7.36667 358.658 7.425 358.474 7.525C358.291 7.60833 358.124 7.74167 357.974 7.925C357.824 8.10833 357.716 8.36667 357.649 8.7L356.674 13.275ZM4.55005 43.8C4.46672 44.2167 4.44172 44.575 4.47505 44.875C4.52505 45.175 4.64172 45.425 4.82505 45.625C5.02505 45.8083 5.30005 45.9667 5.65005 46.1L4.05005 48C3.58338 47.8667 3.17505 47.6917 2.82505 47.475C2.49172 47.2417 2.22505 46.9667 2.02505 46.65C1.82505 46.3167 1.70005 45.9417 1.65005 45.525C1.60005 45.1083 1.62505 44.6583 1.72505 44.175L3.12505 37.575H0.800049L1.35005 34.975H8.92505L8.37505 37.575H5.87505L4.55005 43.8ZM9.08384 52.725L11.9338 47.5L10.0588 34.975H12.7088L14.0088 43.775L18.7589 34.975H21.4088L11.7838 52.725H9.08384ZM25.9855 43.8C25.9022 44.2167 25.8772 44.575 25.9105 44.875C25.9605 45.175 26.0772 45.425 26.2605 45.625C26.4605 45.8083 26.7356 45.9667 27.0856 46.1L25.4855 48C25.0189 47.8667 24.6105 47.6917 24.2605 47.475C23.9272 47.2417 23.6606 46.9667 23.4606 46.65C23.2606 46.3167 23.1356 45.9417 23.0856 45.525C23.0356 45.1083 23.0605 44.6583 23.1605 44.175L24.5605 37.575H22.2355L22.7855 34.975H30.3605L29.8105 37.575H27.3105L25.9855 43.8ZM43.8262 34.8C44.7595 34.8 45.5013 34.975 46.0513 35.325C46.6013 35.675 46.9596 36.2 47.1263 36.9C47.3096 37.6 47.2928 38.4667 47.0762 39.5L46.3512 42.875C46.0345 44.3917 45.3845 45.5917 44.4012 46.475C43.4178 47.3417 42.2095 47.775 40.7762 47.775C39.8428 47.775 39.0596 47.5917 38.4263 47.225C37.8096 46.8417 37.3763 46.2917 37.1263 45.575C36.8929 44.8417 36.8845 43.9417 37.1012 42.875L38.6763 35.5C38.8096 34.8833 39.0429 34.2583 39.3763 33.625C39.7263 32.9917 40.1846 32.4167 40.7513 31.9C41.2679 31.4167 41.8845 31.0083 42.6012 30.675C43.3178 30.3417 44.1346 30.1167 45.0513 30L45.3512 31.725C44.7845 31.8417 44.2679 32.0083 43.8013 32.225C43.3513 32.4417 42.9428 32.7333 42.5762 33.1C42.3095 33.3833 42.0845 33.7083 41.9012 34.075C41.7178 34.4417 41.5678 34.8917 41.4512 35.425L41.4012 35.65C41.6178 35.5167 41.8596 35.3833 42.1263 35.25C42.4096 35.1167 42.6928 35.0083 42.9762 34.925C43.2762 34.8417 43.5595 34.8 43.8262 34.8ZM42.9263 37.3C42.7263 37.3 42.5095 37.3333 42.2762 37.4C42.0428 37.45 41.8178 37.5417 41.6012 37.675C41.3845 37.7917 41.1928 37.9583 41.0262 38.175C40.8762 38.375 40.7678 38.6167 40.7012 38.9L39.8262 43.025C39.7428 43.4417 39.7262 43.8 39.7762 44.1C39.8262 44.3833 39.9678 44.6083 40.2012 44.775C40.4345 44.925 40.7846 45 41.2513 45C41.6513 45 42.0095 44.9167 42.3262 44.75C42.6428 44.5833 42.9012 44.3583 43.1012 44.075C43.3178 43.775 43.4679 43.425 43.5513 43.025L44.3763 39.125C44.4596 38.7417 44.4596 38.4167 44.3763 38.15C44.2929 37.8667 44.1263 37.6583 43.8763 37.525C43.6429 37.375 43.3263 37.3 42.9263 37.3ZM48.1951 52.725L51.0452 47.5L49.1702 34.975H51.8201L53.1201 43.775L57.8701 34.975H60.5201L50.8951 52.725H48.1951ZM71.1969 44.775H72.5969L71.3469 50.65H69.0469L69.1969 47.525H61.597L60.3969 50.65H58.097L59.347 44.775H61.047L64.0719 38.75C64.2719 38.35 64.5052 37.9333 64.7719 37.5C65.0552 37.05 65.3802 36.6333 65.7469 36.25C66.1302 35.8667 66.5885 35.5583 67.1219 35.325C67.6719 35.0917 68.3219 34.975 69.0719 34.975H73.2719L71.1969 44.775ZM63.922 44.775H68.4219L70.0219 37.325H69.2469C68.9802 37.325 68.7302 37.35 68.4969 37.4C68.2635 37.4333 68.0469 37.5083 67.8469 37.625C67.6469 37.7417 67.4552 37.9 67.2719 38.1C67.0885 38.3 66.9219 38.5583 66.7719 38.875L63.922 44.775ZM76.692 43.775C76.642 43.9917 76.6337 44.1917 76.667 44.375C76.7003 44.5417 76.7587 44.6917 76.842 44.825C76.942 44.9583 77.0753 45.0583 77.242 45.125C77.4087 45.1917 77.6003 45.225 77.817 45.225C78.267 45.225 78.8003 45.125 79.417 44.925C80.0337 44.725 80.6337 44.4917 81.217 44.225L81.717 46.625C81.0503 46.9917 80.317 47.2833 79.517 47.5C78.717 47.7167 77.942 47.825 77.192 47.825C76.6087 47.825 76.0753 47.75 75.592 47.6C75.1253 47.45 74.7337 47.225 74.417 46.925C74.117 46.625 73.9087 46.2417 73.792 45.775C73.692 45.3083 73.7087 44.7583 73.842 44.125L74.942 39C75.142 38.0833 75.492 37.3083 75.992 36.675C76.5087 36.0417 77.1337 35.5583 77.867 35.225C78.617 34.8917 79.442 34.725 80.342 34.725C81.242 34.725 81.992 34.8833 82.592 35.2C83.2087 35.5167 83.642 35.9833 83.892 36.6C84.142 37.2167 84.167 37.9917 83.967 38.925L83.142 42.825L76.842 43.15L76.692 43.775ZM81.042 39.675C81.1087 39.325 81.142 38.9667 81.142 38.6C81.142 38.2333 81.0503 37.9333 80.867 37.7C80.7003 37.45 80.367 37.3417 79.867 37.375C79.3503 37.3917 78.942 37.5 78.642 37.7C78.3587 37.8833 78.1337 38.1417 77.967 38.475C77.817 38.7917 77.6837 39.1833 77.567 39.65L77.367 40.625L80.867 40.4L81.042 39.675ZM89.4865 43.8C89.4032 44.2167 89.3782 44.575 89.4115 44.875C89.4615 45.175 89.5782 45.425 89.7615 45.625C89.9615 45.8083 90.2365 45.9667 90.5865 46.1L88.9865 48C88.5199 47.8667 88.1115 47.6917 87.7615 47.475C87.4282 47.2417 87.1615 46.9667 86.9615 46.65C86.7615 46.3167 86.6365 45.9417 86.5865 45.525C86.5365 45.1083 86.5615 44.6583 86.6615 44.175L88.0615 37.575H85.7365L86.2865 34.975H93.8615L93.3115 37.575H90.8115L89.4865 43.8ZM108.077 39.35L109.002 35H111.752L109.102 47.5H106.352L107.527 41.975H103.827L102.652 47.5H99.8771L102.527 35H105.302L104.377 39.35H108.077ZM114.436 43.775C114.386 43.9917 114.378 44.1917 114.411 44.375C114.444 44.5417 114.503 44.6917 114.586 44.825C114.686 44.9583 114.819 45.0583 114.986 45.125C115.153 45.1917 115.344 45.225 115.561 45.225C116.011 45.225 116.544 45.125 117.161 44.925C117.778 44.725 118.378 44.4917 118.961 44.225L119.461 46.625C118.794 46.9917 118.061 47.2833 117.261 47.5C116.461 47.7167 115.686 47.825 114.936 47.825C114.353 47.825 113.819 47.75 113.336 47.6C112.869 47.45 112.478 47.225 112.161 46.925C111.861 46.625 111.653 46.2417 111.536 45.775C111.436 45.3083 111.453 44.7583 111.586 44.125L112.686 39C112.886 38.0833 113.236 37.3083 113.736 36.675C114.253 36.0417 114.878 35.5583 115.611 35.225C116.361 34.8917 117.186 34.725 118.086 34.725C118.986 34.725 119.736 34.8833 120.336 35.2C120.953 35.5167 121.386 35.9833 121.636 36.6C121.886 37.2167 121.911 37.9917 121.711 38.925L120.886 42.825L114.586 43.15L114.436 43.775ZM118.786 39.675C118.853 39.325 118.886 38.9667 118.886 38.6C118.886 38.2333 118.794 37.9333 118.611 37.7C118.444 37.45 118.111 37.3417 117.611 37.375C117.094 37.3917 116.686 37.5 116.386 37.7C116.103 37.8833 115.878 38.1417 115.711 38.475C115.561 38.7917 115.428 39.1833 115.311 39.65L115.111 40.625L118.611 40.4L118.786 39.675ZM134.031 35H137.081L134.431 47.525H131.681L133.081 40.9L129.081 47.525H127.006L125.756 40.9L124.356 47.525H121.581L124.231 35H127.331L128.806 43.8L134.031 35ZM144.527 39.35L145.452 35H148.202L145.552 47.5H142.802L143.977 41.975H140.277L139.102 47.5H136.327L138.977 35H141.752L140.827 39.35H144.527ZM157.486 42.875C157.186 44.3417 156.561 45.525 155.611 46.425C154.678 47.3083 153.445 47.75 151.911 47.75C150.811 47.75 149.961 47.525 149.361 47.075C148.778 46.6083 148.403 46.0083 148.236 45.275C148.07 44.525 148.07 43.725 148.236 42.875L148.961 39.575C149.195 38.5083 149.561 37.6167 150.061 36.9C150.578 36.1833 151.22 35.6417 151.986 35.275C152.77 34.8917 153.67 34.7 154.686 34.7C156.136 34.7 157.17 35.1333 157.786 36C158.403 36.85 158.545 38.0417 158.211 39.575L157.486 42.875ZM155.411 39.425C155.495 39.025 155.503 38.6833 155.436 38.4C155.37 38.1 155.22 37.875 154.986 37.725C154.77 37.5583 154.461 37.475 154.061 37.475C153.661 37.475 153.303 37.55 152.986 37.7C152.686 37.85 152.428 38.0667 152.211 38.35C152.011 38.6333 151.861 38.9917 151.761 39.425L150.986 43.075C150.92 43.4083 150.92 43.725 150.986 44.025C151.053 44.325 151.203 44.5667 151.436 44.75C151.67 44.9333 152.011 45.025 152.461 45.025C152.878 45.025 153.228 44.9417 153.511 44.775C153.811 44.6083 154.053 44.375 154.236 44.075C154.42 43.775 154.553 43.4417 154.636 43.075L155.411 39.425ZM168.302 42.875C168.002 44.3417 167.377 45.525 166.427 46.425C165.493 47.3083 164.26 47.75 162.727 47.75C161.627 47.75 160.777 47.525 160.177 47.075C159.593 46.6083 159.218 46.0083 159.052 45.275C158.885 44.525 158.885 43.725 159.052 42.875L159.777 39.575C160.01 38.5083 160.377 37.6167 160.877 36.9C161.393 36.1833 162.035 35.6417 162.802 35.275C163.585 34.8917 164.485 34.7 165.502 34.7C166.952 34.7 167.985 35.1333 168.602 36C169.218 36.85 169.36 38.0417 169.027 39.575L168.302 42.875ZM166.227 39.425C166.31 39.025 166.318 38.6833 166.252 38.4C166.185 38.1 166.035 37.875 165.802 37.725C165.585 37.5583 165.277 37.475 164.877 37.475C164.477 37.475 164.118 37.55 163.802 37.7C163.502 37.85 163.243 38.0667 163.027 38.35C162.827 38.6333 162.677 38.9917 162.577 39.425L161.802 43.075C161.735 43.4083 161.735 43.725 161.802 44.025C161.868 44.325 162.018 44.5667 162.252 44.75C162.485 44.9333 162.827 45.025 163.277 45.025C163.693 45.025 164.043 44.9417 164.327 44.775C164.627 44.6083 164.868 44.375 165.052 44.075C165.235 43.775 165.368 43.4417 165.452 43.075L166.227 39.425ZM179.117 42.875C178.817 44.3417 178.192 45.525 177.242 46.425C176.309 47.3083 175.076 47.75 173.542 47.75C172.442 47.75 171.592 47.525 170.992 47.075C170.409 46.6083 170.034 46.0083 169.867 45.275C169.701 44.525 169.701 43.725 169.867 42.875L170.592 39.575C170.826 38.5083 171.192 37.6167 171.692 36.9C172.209 36.1833 172.851 35.6417 173.617 35.275C174.401 34.8917 175.301 34.7 176.317 34.7C177.767 34.7 178.801 35.1333 179.417 36C180.034 36.85 180.176 38.0417 179.842 39.575L179.117 42.875ZM177.042 39.425C177.126 39.025 177.134 38.6833 177.067 38.4C177.001 38.1 176.851 37.875 176.617 37.725C176.401 37.5583 176.092 37.475 175.692 37.475C175.292 37.475 174.934 37.55 174.617 37.7C174.317 37.85 174.059 38.0667 173.842 38.35C173.642 38.6333 173.492 38.9917 173.392 39.425L172.617 43.075C172.551 43.4083 172.551 43.725 172.617 44.025C172.684 44.325 172.834 44.5667 173.067 44.75C173.301 44.9333 173.642 45.025 174.092 45.025C174.509 45.025 174.859 44.9417 175.142 44.775C175.442 44.6083 175.684 44.375 175.867 44.075C176.051 43.775 176.184 43.4417 176.267 43.075L177.042 39.425ZM189.933 42.875C189.633 44.3417 189.008 45.525 188.058 46.425C187.124 47.3083 185.891 47.75 184.358 47.75C183.258 47.75 182.408 47.525 181.808 47.075C181.224 46.6083 180.849 46.0083 180.683 45.275C180.516 44.525 180.516 43.725 180.683 42.875L181.408 39.575C181.641 38.5083 182.008 37.6167 182.508 36.9C183.024 36.1833 183.666 35.6417 184.433 35.275C185.216 34.8917 186.116 34.7 187.133 34.7C188.583 34.7 189.616 35.1333 190.233 36C190.849 36.85 190.991 38.0417 190.658 39.575L189.933 42.875ZM187.858 39.425C187.941 39.025 187.949 38.6833 187.883 38.4C187.816 38.1 187.666 37.875 187.433 37.725C187.216 37.5583 186.908 37.475 186.508 37.475C186.108 37.475 185.749 37.55 185.433 37.7C185.133 37.85 184.874 38.0667 184.658 38.35C184.458 38.6333 184.308 38.9917 184.208 39.425L183.433 43.075C183.366 43.4083 183.366 43.725 183.433 44.025C183.499 44.325 183.649 44.5667 183.883 44.75C184.116 44.9333 184.458 45.025 184.908 45.025C185.324 45.025 185.674 44.9417 185.958 44.775C186.258 44.6083 186.499 44.375 186.683 44.075C186.866 43.775 186.999 43.4417 187.083 43.075L187.858 39.425ZM200.748 42.875C200.448 44.3417 199.823 45.525 198.873 46.425C197.94 47.3083 196.706 47.75 195.173 47.75C194.073 47.75 193.223 47.525 192.623 47.075C192.04 46.6083 191.665 46.0083 191.498 45.275C191.331 44.525 191.331 43.725 191.498 42.875L192.223 39.575C192.456 38.5083 192.823 37.6167 193.323 36.9C193.84 36.1833 194.481 35.6417 195.248 35.275C196.031 34.8917 196.931 34.7 197.948 34.7C199.398 34.7 200.431 35.1333 201.048 36C201.665 36.85 201.806 38.0417 201.473 39.575L200.748 42.875ZM198.673 39.425C198.756 39.025 198.765 38.6833 198.698 38.4C198.631 38.1 198.481 37.875 198.248 37.725C198.031 37.5583 197.723 37.475 197.323 37.475C196.923 37.475 196.565 37.55 196.248 37.7C195.948 37.85 195.69 38.0667 195.473 38.35C195.273 38.6333 195.123 38.9917 195.023 39.425L194.248 43.075C194.181 43.4083 194.181 43.725 194.248 44.025C194.315 44.325 194.465 44.5667 194.698 44.75C194.931 44.9333 195.273 45.025 195.723 45.025C196.14 45.025 196.49 44.9417 196.773 44.775C197.073 44.6083 197.315 44.375 197.498 44.075C197.681 43.775 197.815 43.4417 197.898 43.075L198.673 39.425ZM211.563 42.875C211.263 44.3417 210.638 45.525 209.688 46.425C208.755 47.3083 207.522 47.75 205.988 47.75C204.888 47.75 204.038 47.525 203.438 47.075C202.855 46.6083 202.48 46.0083 202.313 45.275C202.147 44.525 202.147 43.725 202.313 42.875L203.038 39.575C203.272 38.5083 203.638 37.6167 204.138 36.9C204.655 36.1833 205.297 35.6417 206.063 35.275C206.847 34.8917 207.747 34.7 208.763 34.7C210.213 34.7 211.247 35.1333 211.863 36C212.48 36.85 212.622 38.0417 212.288 39.575L211.563 42.875ZM209.488 39.425C209.572 39.025 209.58 38.6833 209.513 38.4C209.447 38.1 209.297 37.875 209.063 37.725C208.847 37.5583 208.538 37.475 208.138 37.475C207.738 37.475 207.38 37.55 207.063 37.7C206.763 37.85 206.505 38.0667 206.288 38.35C206.088 38.6333 205.938 38.9917 205.838 39.425L205.063 43.075C204.997 43.4083 204.997 43.725 205.063 44.025C205.13 44.325 205.28 44.5667 205.513 44.75C205.747 44.9333 206.088 45.025 206.538 45.025C206.955 45.025 207.305 44.9417 207.588 44.775C207.888 44.6083 208.13 44.375 208.313 44.075C208.497 43.775 208.63 43.4417 208.713 43.075L209.488 39.425ZM222.379 42.875C222.079 44.3417 221.454 45.525 220.504 46.425C219.571 47.3083 218.337 47.75 216.804 47.75C215.704 47.75 214.854 47.525 214.254 47.075C213.671 46.6083 213.296 46.0083 213.129 45.275C212.962 44.525 212.962 43.725 213.129 42.875L213.854 39.575C214.087 38.5083 214.454 37.6167 214.954 36.9C215.471 36.1833 216.112 35.6417 216.879 35.275C217.662 34.8917 218.562 34.7 219.579 34.7C221.029 34.7 222.062 35.1333 222.679 36C223.296 36.85 223.437 38.0417 223.104 39.575L222.379 42.875ZM220.304 39.425C220.387 39.025 220.396 38.6833 220.329 38.4C220.262 38.1 220.112 37.875 219.879 37.725C219.662 37.5583 219.354 37.475 218.954 37.475C218.554 37.475 218.196 37.55 217.879 37.7C217.579 37.85 217.321 38.0667 217.104 38.35C216.904 38.6333 216.754 38.9917 216.654 39.425L215.879 43.075C215.812 43.4083 215.812 43.725 215.879 44.025C215.946 44.325 216.096 44.5667 216.329 44.75C216.562 44.9333 216.904 45.025 217.354 45.025C217.771 45.025 218.121 44.9417 218.404 44.775C218.704 44.6083 218.946 44.375 219.129 44.075C219.312 43.775 219.446 43.4417 219.529 43.075L220.304 39.425ZM233.194 42.875C232.894 44.3417 232.269 45.525 231.319 46.425C230.386 47.3083 229.153 47.75 227.619 47.75C226.519 47.75 225.669 47.525 225.069 47.075C224.486 46.6083 224.111 46.0083 223.944 45.275C223.778 44.525 223.778 43.725 223.944 42.875L224.669 39.575C224.903 38.5083 225.269 37.6167 225.769 36.9C226.286 36.1833 226.928 35.6417 227.694 35.275C228.478 34.8917 229.378 34.7 230.394 34.7C231.844 34.7 232.878 35.1333 233.494 36C234.111 36.85 234.253 38.0417 233.919 39.575L233.194 42.875ZM231.119 39.425C231.203 39.025 231.211 38.6833 231.144 38.4C231.078 38.1 230.928 37.875 230.694 37.725C230.478 37.5583 230.169 37.475 229.769 37.475C229.369 37.475 229.011 37.55 228.694 37.7C228.394 37.85 228.136 38.0667 227.919 38.35C227.719 38.6333 227.569 38.9917 227.469 39.425L226.694 43.075C226.628 43.4083 226.628 43.725 226.694 44.025C226.761 44.325 226.911 44.5667 227.144 44.75C227.378 44.9333 227.719 45.025 228.169 45.025C228.586 45.025 228.936 44.9417 229.219 44.775C229.519 44.6083 229.761 44.375 229.944 44.075C230.128 43.775 230.261 43.4417 230.344 43.075L231.119 39.425ZM244.01 42.875C243.71 44.3417 243.085 45.525 242.135 46.425C241.201 47.3083 239.968 47.75 238.435 47.75C237.335 47.75 236.485 47.525 235.885 47.075C235.301 46.6083 234.926 46.0083 234.76 45.275C234.593 44.525 234.593 43.725 234.76 42.875L235.485 39.575C235.718 38.5083 236.085 37.6167 236.585 36.9C237.101 36.1833 237.743 35.6417 238.51 35.275C239.293 34.8917 240.193 34.7 241.21 34.7C242.66 34.7 243.693 35.1333 244.31 36C244.926 36.85 245.068 38.0417 244.735 39.575L244.01 42.875ZM241.935 39.425C242.018 39.025 242.026 38.6833 241.96 38.4C241.893 38.1 241.743 37.875 241.51 37.725C241.293 37.5583 240.985 37.475 240.585 37.475C240.185 37.475 239.826 37.55 239.51 37.7C239.21 37.85 238.951 38.0667 238.735 38.35C238.535 38.6333 238.385 38.9917 238.285 39.425L237.51 43.075C237.443 43.4083 237.443 43.725 237.51 44.025C237.576 44.325 237.726 44.5667 237.96 44.75C238.193 44.9333 238.535 45.025 238.985 45.025C239.401 45.025 239.751 44.9417 240.035 44.775C240.335 44.6083 240.576 44.375 240.76 44.075C240.943 43.775 241.076 43.4417 241.16 43.075L241.935 39.425ZM254.825 42.875C254.525 44.3417 253.9 45.525 252.95 46.425C252.017 47.3083 250.784 47.75 249.25 47.75C248.15 47.75 247.3 47.525 246.7 47.075C246.117 46.6083 245.742 46.0083 245.575 45.275C245.409 44.525 245.409 43.725 245.575 42.875L246.3 39.575C246.534 38.5083 246.9 37.6167 247.4 36.9C247.917 36.1833 248.559 35.6417 249.325 35.275C250.109 34.8917 251.009 34.7 252.025 34.7C253.475 34.7 254.509 35.1333 255.125 36C255.742 36.85 255.884 38.0417 255.55 39.575L254.825 42.875ZM252.75 39.425C252.834 39.025 252.842 38.6833 252.775 38.4C252.709 38.1 252.559 37.875 252.325 37.725C252.109 37.5583 251.8 37.475 251.4 37.475C251 37.475 250.642 37.55 250.325 37.7C250.025 37.85 249.767 38.0667 249.55 38.35C249.35 38.6333 249.2 38.9917 249.1 39.425L248.325 43.075C248.259 43.4083 248.259 43.725 248.325 44.025C248.392 44.325 248.542 44.5667 248.775 44.75C249.009 44.9333 249.35 45.025 249.8 45.025C250.217 45.025 250.567 44.9417 250.85 44.775C251.15 44.6083 251.392 44.375 251.575 44.075C251.759 43.775 251.892 43.4417 251.975 43.075L252.75 39.425ZM265.641 42.875C265.341 44.3417 264.716 45.525 263.766 46.425C262.832 47.3083 261.599 47.75 260.066 47.75C258.966 47.75 258.116 47.525 257.516 47.075C256.932 46.6083 256.557 46.0083 256.391 45.275C256.224 44.525 256.224 43.725 256.391 42.875L257.116 39.575C257.349 38.5083 257.716 37.6167 258.216 36.9C258.732 36.1833 259.374 35.6417 260.141 35.275C260.924 34.8917 261.824 34.7 262.841 34.7C264.291 34.7 265.324 35.1333 265.941 36C266.557 36.85 266.699 38.0417 266.366 39.575L265.641 42.875ZM263.566 39.425C263.649 39.025 263.657 38.6833 263.591 38.4C263.524 38.1 263.374 37.875 263.141 37.725C262.924 37.5583 262.616 37.475 262.216 37.475C261.816 37.475 261.457 37.55 261.141 37.7C260.841 37.85 260.582 38.0667 260.366 38.35C260.166 38.6333 260.016 38.9917 259.916 39.425L259.141 43.075C259.074 43.4083 259.074 43.725 259.141 44.025C259.207 44.325 259.357 44.5667 259.591 44.75C259.824 44.9333 260.166 45.025 260.616 45.025C261.032 45.025 261.382 44.9417 261.666 44.775C261.966 44.6083 262.207 44.375 262.391 44.075C262.574 43.775 262.707 43.4417 262.791 43.075L263.566 39.425ZM276.456 42.875C276.156 44.3417 275.531 45.525 274.581 46.425C273.648 47.3083 272.414 47.75 270.881 47.75C269.781 47.75 268.931 47.525 268.331 47.075C267.748 46.6083 267.373 46.0083 267.206 45.275C267.039 44.525 267.039 43.725 267.206 42.875L267.931 39.575C268.164 38.5083 268.531 37.6167 269.031 36.9C269.548 36.1833 270.189 35.6417 270.956 35.275C271.739 34.8917 272.639 34.7 273.656 34.7C275.106 34.7 276.139 35.1333 276.756 36C277.373 36.85 277.514 38.0417 277.181 39.575L276.456 42.875ZM274.381 39.425C274.464 39.025 274.473 38.6833 274.406 38.4C274.339 38.1 274.189 37.875 273.956 37.725C273.739 37.5583 273.431 37.475 273.031 37.475C272.631 37.475 272.273 37.55 271.956 37.7C271.656 37.85 271.398 38.0667 271.181 38.35C270.981 38.6333 270.831 38.9917 270.731 39.425L269.956 43.075C269.889 43.4083 269.889 43.725 269.956 44.025C270.023 44.325 270.173 44.5667 270.406 44.75C270.639 44.9333 270.981 45.025 271.431 45.025C271.848 45.025 272.198 44.9417 272.481 44.775C272.781 44.6083 273.023 44.375 273.206 44.075C273.389 43.775 273.523 43.4417 273.606 43.075L274.381 39.425ZM279.746 35H286.621L286.046 37.75H281.971L279.896 47.5H277.096L279.746 35ZM295.206 42.875C294.906 44.3417 294.281 45.525 293.331 46.425C292.398 47.3083 291.164 47.75 289.631 47.75C288.531 47.75 287.681 47.525 287.081 47.075C286.498 46.6083 286.123 46.0083 285.956 45.275C285.789 44.525 285.789 43.725 285.956 42.875L286.681 39.575C286.914 38.5083 287.281 37.6167 287.781 36.9C288.298 36.1833 288.939 35.6417 289.706 35.275C290.489 34.8917 291.389 34.7 292.406 34.7C293.856 34.7 294.889 35.1333 295.506 36C296.123 36.85 296.264 38.0417 295.931 39.575L295.206 42.875ZM293.131 39.425C293.214 39.025 293.223 38.6833 293.156 38.4C293.089 38.1 292.939 37.875 292.706 37.725C292.489 37.5583 292.181 37.475 291.781 37.475C291.381 37.475 291.023 37.55 290.706 37.7C290.406 37.85 290.148 38.0667 289.931 38.35C289.731 38.6333 289.581 38.9917 289.481 39.425L288.706 43.075C288.639 43.4083 288.639 43.725 288.706 44.025C288.773 44.325 288.923 44.5667 289.156 44.75C289.389 44.9333 289.731 45.025 290.181 45.025C290.598 45.025 290.948 44.9417 291.231 44.775C291.531 44.6083 291.773 44.375 291.956 44.075C292.139 43.775 292.273 43.4417 292.356 43.075L293.131 39.425ZM308.578 43.8C308.495 44.2167 308.47 44.575 308.503 44.875C308.553 45.175 308.67 45.425 308.853 45.625C309.053 45.8083 309.328 45.9667 309.678 46.1L308.078 48C307.612 47.8667 307.203 47.6917 306.853 47.475C306.52 47.2417 306.253 46.9667 306.053 46.65C305.853 46.3167 305.728 45.9417 305.678 45.525C305.628 45.1083 305.653 44.6583 305.753 44.175L307.153 37.575H304.828L305.378 34.975H312.953L312.403 37.575H309.903L308.578 43.8ZM315.437 43.775C315.387 43.9917 315.379 44.1917 315.412 44.375C315.445 44.5417 315.504 44.6917 315.587 44.825C315.687 44.9583 315.82 45.0583 315.987 45.125C316.154 45.1917 316.345 45.225 316.562 45.225C317.012 45.225 317.545 45.125 318.162 44.925C318.779 44.725 319.379 44.4917 319.962 44.225L320.462 46.625C319.795 46.9917 319.062 47.2833 318.262 47.5C317.462 47.7167 316.687 47.825 315.937 47.825C315.354 47.825 314.82 47.75 314.337 47.6C313.87 47.45 313.479 47.225 313.162 46.925C312.862 46.625 312.654 46.2417 312.537 45.775C312.437 45.3083 312.454 44.7583 312.587 44.125L313.687 39C313.887 38.0833 314.237 37.3083 314.737 36.675C315.254 36.0417 315.879 35.5583 316.612 35.225C317.362 34.8917 318.187 34.725 319.087 34.725C319.987 34.725 320.737 34.8833 321.337 35.2C321.954 35.5167 322.387 35.9833 322.637 36.6C322.887 37.2167 322.912 37.9917 322.712 38.925L321.887 42.825L315.587 43.15L315.437 43.775ZM319.787 39.675C319.854 39.325 319.887 38.9667 319.887 38.6C319.887 38.2333 319.795 37.9333 319.612 37.7C319.445 37.45 319.112 37.3417 318.612 37.375C318.095 37.3917 317.687 37.5 317.387 37.7C317.104 37.8833 316.879 38.1417 316.712 38.475C316.562 38.7917 316.429 39.1833 316.312 39.65L316.112 40.625L319.612 40.4L319.787 39.675ZM331.482 43.5C331.698 43.9167 331.882 44.2417 332.032 44.475C332.198 44.6917 332.357 44.8417 332.507 44.925C332.673 45.0083 332.857 45.05 333.057 45.05H333.182L332.582 47.5H332.207C331.59 47.5 331.065 47.3667 330.632 47.1C330.215 46.8333 329.857 46.4833 329.557 46.05C329.273 45.6167 329.007 45.1583 328.757 44.675L327.357 41.95L326.482 42.625L325.457 47.5H322.682L325.407 34.7L328.107 35L327.232 39.15L331.957 34.975H335.382L329.732 40L331.482 43.5ZM343.871 37.65C343.571 37.4833 343.23 37.3583 342.846 37.275C342.48 37.175 342.105 37.1167 341.721 37.1C341.271 37.1 340.846 37.175 340.446 37.325C340.046 37.4583 339.705 37.6833 339.421 38C339.138 38.3 338.946 38.7 338.846 39.2L338.021 43.125C337.938 43.5083 337.93 43.85 337.996 44.15C338.063 44.4333 338.188 44.6667 338.371 44.85C338.571 45.0333 338.821 45.175 339.121 45.275C339.421 45.3583 339.763 45.4 340.146 45.4C340.413 45.4 340.68 45.3917 340.946 45.375C341.23 45.3417 341.48 45.3083 341.696 45.275C341.913 45.225 342.088 45.1917 342.221 45.175C342.355 45.1417 342.421 45.125 342.421 45.125L342.446 47.375C341.896 47.5083 341.338 47.6167 340.771 47.7C340.205 47.7833 339.638 47.8167 339.071 47.8C338.121 47.7833 337.321 47.6083 336.671 47.275C336.021 46.9417 335.571 46.4333 335.321 45.75C335.071 45.0667 335.055 44.2 335.271 43.15L336.071 39.5C336.288 38.5333 336.63 37.6833 337.096 36.95C337.58 36.2167 338.213 35.65 338.996 35.25C339.796 34.85 340.771 34.6667 341.921 34.7C342.455 34.7167 342.971 34.8 343.471 34.95C343.988 35.1 344.471 35.2917 344.921 35.525L343.871 37.65ZM349.74 43.8C349.657 44.2167 349.632 44.575 349.665 44.875C349.715 45.175 349.832 45.425 350.015 45.625C350.215 45.8083 350.49 45.9667 350.84 46.1L349.24 48C348.774 47.8667 348.365 47.6917 348.015 47.475C347.682 47.2417 347.415 46.9667 347.215 46.65C347.015 46.3167 346.89 45.9417 346.84 45.525C346.79 45.1083 346.815 44.6583 346.915 44.175L348.315 37.575H345.99L346.54 34.975H354.115L353.565 37.575H351.065L349.74 43.8ZM364.949 35.325C364.783 35.8417 364.641 36.3083 364.524 36.725C364.424 37.125 364.341 37.4667 364.274 37.75L362.224 47.375C362.224 47.375 362.108 47.3833 361.874 47.4C361.658 47.4167 361.358 47.4417 360.974 47.475C360.608 47.4917 360.191 47.5083 359.724 47.525C359.274 47.5417 358.816 47.5583 358.349 47.575C357.899 47.5917 357.483 47.6 357.099 47.6C356.333 47.6 355.708 47.4833 355.224 47.25C354.758 47.0167 354.408 46.7 354.174 46.3C353.941 45.9 353.808 45.4417 353.774 44.925C353.758 44.3917 353.808 43.8333 353.924 43.25L354.924 38.625C355.074 37.8917 355.283 37.2833 355.549 36.8C355.833 36.3 356.149 35.9083 356.499 35.625C356.866 35.325 357.266 35.1167 357.699 35C358.133 34.8667 358.599 34.8 359.099 34.8C359.616 34.8 360.091 34.8333 360.524 34.9C360.958 34.9667 361.316 35.0417 361.599 35.125C361.899 35.2083 362.108 35.275 362.224 35.325C362.224 35.325 362.258 35.2583 362.324 35.125C362.408 34.975 362.499 34.8333 362.599 34.7L364.949 35.325ZM356.674 43.275C356.574 43.825 356.558 44.25 356.624 44.55C356.691 44.8333 356.841 45.0333 357.074 45.15C357.324 45.25 357.649 45.3 358.049 45.3C358.199 45.3 358.349 45.3 358.499 45.3C358.649 45.3 358.799 45.3 358.949 45.3C359.099 45.2833 359.249 45.2667 359.399 45.25C359.566 45.2333 359.733 45.2167 359.899 45.2L361.449 37.825C361.333 37.7583 361.191 37.7 361.024 37.65C360.858 37.5833 360.674 37.525 360.474 37.475C360.291 37.425 360.108 37.3917 359.924 37.375C359.758 37.3417 359.608 37.325 359.474 37.325C359.341 37.325 359.183 37.3333 358.999 37.35C358.833 37.3667 358.658 37.425 358.474 37.525C358.291 37.6083 358.124 37.7417 357.974 37.925C357.824 38.1083 357.716 38.3667 357.649 38.7L356.674 43.275Z" fill="white"/>
</g>
<defs>
<clipPath id="clip0_395_792">
<rect width="365" height="53" fill="white"/>
</clipPath>
</defs>
</svg>
