<svg width="410" height="50" viewBox="0 0 410 50" fill="none" xmlns="http://www.w3.org/2000/svg">
<g clip-path="url(#clip0_395_732)">
<path d="M8.93856 0.903809C9.53656 0.903809 10.1116 0.988143 10.6635 1.15681C11.2309 1.32548 11.7139 1.61681 12.1125 2.03081C12.5112 2.44481 12.7795 3.02747 12.9175 3.77881C13.0555 4.51481 13.0019 5.45014 12.7565 6.58481C12.4959 7.82681 12.1355 8.83881 11.6755 9.62081C11.2309 10.4028 10.7172 11.0008 10.1346 11.4148C9.56723 11.8288 8.96923 12.1125 8.34056 12.2658C7.7119 12.4191 7.0909 12.4958 6.47756 12.4958H3.99356L3.05056 17.0038H0.497559L3.92456 0.903809H8.93856ZM4.52256 10.0808H6.04056C6.63856 10.0808 7.1599 10.0425 7.60456 9.96581C8.04923 9.88914 8.43256 9.73581 8.75456 9.50581C9.0919 9.26047 9.37556 8.90781 9.60556 8.44781C9.83556 7.98781 10.0349 7.36681 10.2035 6.58481C10.3569 5.86414 10.4105 5.29681 10.3645 4.88281C10.3185 4.45347 10.1729 4.13914 9.92756 3.93981C9.69756 3.72514 9.37556 3.58714 8.96156 3.52581C8.54756 3.46447 8.04156 3.43381 7.44356 3.43381H5.92556L4.52256 10.0808ZM21.3767 12.7488C21.1007 14.0981 20.5257 15.1868 19.6517 16.0148C18.793 16.8275 17.6583 17.2338 16.2477 17.2338C15.2357 17.2338 14.4537 17.0268 13.9017 16.6128C13.365 16.1835 13.02 15.6315 12.8667 14.9568C12.7133 14.2668 12.7133 13.5308 12.8667 12.7488L13.5337 9.71281C13.7483 8.73147 14.0857 7.91114 14.5457 7.25181C15.021 6.59247 15.6113 6.09414 16.3167 5.75681C17.0373 5.40414 17.8653 5.22781 18.8007 5.22781C20.1347 5.22781 21.0853 5.62647 21.6527 6.42381C22.22 7.20581 22.3503 8.30214 22.0437 9.71281L21.3767 12.7488ZM19.4677 9.57481C19.5443 9.20681 19.552 8.89247 19.4907 8.63181C19.4293 8.35581 19.2913 8.14881 19.0767 8.01081C18.8773 7.85747 18.5937 7.78081 18.2257 7.78081C17.8577 7.78081 17.528 7.84981 17.2367 7.98781C16.9607 8.12581 16.723 8.32514 16.5237 8.58581C16.3397 8.84647 16.2017 9.17614 16.1097 9.57481L15.3967 12.9328C15.3353 13.2395 15.3353 13.5308 15.3967 13.8068C15.458 14.0828 15.596 14.3051 15.8107 14.4738C16.0253 14.6425 16.3397 14.7268 16.7537 14.7268C17.137 14.7268 17.459 14.6501 17.7197 14.4968C17.9957 14.3435 18.218 14.1288 18.3867 13.8528C18.5553 13.5768 18.678 13.2701 18.7547 12.9328L19.4677 9.57481ZM30.6829 7.94181C30.4069 7.78847 30.0925 7.67347 29.7399 7.59681C29.4025 7.50481 29.0575 7.45114 28.7049 7.43581C28.2909 7.43581 27.8999 7.50481 27.5319 7.64281C27.1639 7.76547 26.8495 7.97247 26.5889 8.26381C26.3282 8.53981 26.1519 8.90781 26.0599 9.36781L25.3009 12.9788C25.2242 13.3315 25.2165 13.6458 25.2779 13.9218C25.3392 14.1825 25.4542 14.3971 25.6229 14.5658C25.8069 14.7345 26.0369 14.8648 26.3129 14.9568C26.5889 15.0335 26.9032 15.0718 27.2559 15.0718C27.5012 15.0718 27.7465 15.0641 27.9919 15.0488C28.2525 15.0181 28.4825 14.9875 28.6819 14.9568C28.8812 14.9108 29.0422 14.8801 29.1649 14.8648C29.2875 14.8341 29.3489 14.8188 29.3489 14.8188L29.3719 16.8888C28.8659 17.0115 28.3522 17.1111 27.8309 17.1878C27.3095 17.2645 26.7882 17.2951 26.2669 17.2798C25.3929 17.2645 24.6569 17.1035 24.0589 16.7968C23.4609 16.4901 23.0469 16.0225 22.8169 15.3938C22.5869 14.7651 22.5715 13.9678 22.7709 13.0018L23.5069 9.64381C23.7062 8.75447 24.0205 7.97247 24.4499 7.29781C24.8945 6.62314 25.4772 6.10181 26.1979 5.73381C26.9339 5.36581 27.8309 5.19714 28.8889 5.22781C29.3795 5.24314 29.8549 5.31981 30.3149 5.45781C30.7902 5.59581 31.2349 5.77214 31.6489 5.98681L30.6829 7.94181ZM39.5325 7.94181C39.2565 7.78847 38.9422 7.67347 38.5895 7.59681C38.2522 7.50481 37.9072 7.45114 37.5545 7.43581C37.1405 7.43581 36.7495 7.50481 36.3815 7.64281C36.0135 7.76547 35.6992 7.97247 35.4385 8.26381C35.1778 8.53981 35.0015 8.90781 34.9095 9.36781L34.1505 12.9788C34.0738 13.3315 34.0662 13.6458 34.1275 13.9218C34.1888 14.1825 34.3038 14.3971 34.4725 14.5658C34.6565 14.7345 34.8865 14.8648 35.1625 14.9568C35.4385 15.0335 35.7528 15.0718 36.1055 15.0718C36.3508 15.0718 36.5962 15.0641 36.8415 15.0488C37.1022 15.0181 37.3322 14.9875 37.5315 14.9568C37.7308 14.9108 37.8918 14.8801 38.0145 14.8648C38.1372 14.8341 38.1985 14.8188 38.1985 14.8188L38.2215 16.8888C37.7155 17.0115 37.2018 17.1111 36.6805 17.1878C36.1592 17.2645 35.6378 17.2951 35.1165 17.2798C34.2425 17.2645 33.5065 17.1035 32.9085 16.7968C32.3105 16.4901 31.8965 16.0225 31.6665 15.3938C31.4365 14.7651 31.4212 13.9678 31.6205 13.0018L32.3565 9.64381C32.5558 8.75447 32.8702 7.97247 33.2995 7.29781C33.7442 6.62314 34.3268 6.10181 35.0475 5.73381C35.7835 5.36581 36.6805 5.19714 37.7385 5.22781C38.2292 5.24314 38.7045 5.31981 39.1645 5.45781C39.6398 5.59581 40.0845 5.77214 40.4985 5.98681L39.5325 7.94181ZM44.7711 5.50381L43.3221 12.3348L48.1521 5.50381H50.7281L48.2901 17.0268H45.7141L47.1401 10.2418L42.3331 17.0268H39.8031L42.2411 5.50381H44.7711ZM60.4637 1.61681L60.4407 1.7778C60.3487 2.23781 60.1341 2.66714 59.7967 3.06581C59.4747 3.46447 59.0914 3.78647 58.6467 4.03181C58.2021 4.26181 57.7421 4.37681 57.2667 4.37681C56.7914 4.37681 56.3774 4.26181 56.0247 4.03181C55.6874 3.78647 55.4421 3.46447 55.2887 3.06581C55.1354 2.66714 55.1047 2.23781 55.1967 1.7778L55.2427 1.61681H57.0137L56.9677 1.7778C56.9064 1.97714 56.9294 2.16114 57.0367 2.32981C57.1594 2.48314 57.3281 2.55981 57.5427 2.55981C57.8034 2.55981 58.0181 2.47547 58.1867 2.3068C58.3554 2.13814 58.4704 1.96181 58.5317 1.7778L58.5777 1.61681H60.4637ZM55.0357 5.50381L53.5867 12.3348L58.4167 5.50381H60.9927L58.5547 17.0268H55.9787L57.4047 10.2418L52.5977 17.0268H50.0677L52.5057 5.50381H55.0357ZM68.9114 7.94181C68.6354 7.78847 68.3211 7.67347 67.9684 7.59681C67.6311 7.50481 67.2861 7.45114 66.9334 7.43581C66.5194 7.43581 66.1284 7.50481 65.7604 7.64281C65.3924 7.76547 65.0781 7.97247 64.8174 8.26381C64.5567 8.53981 64.3804 8.90781 64.2884 9.36781L63.5294 12.9788C63.4527 13.3315 63.4451 13.6458 63.5064 13.9218C63.5677 14.1825 63.6827 14.3971 63.8514 14.5658C64.0354 14.7345 64.2654 14.8648 64.5414 14.9568C64.8174 15.0335 65.1317 15.0718 65.4844 15.0718C65.7297 15.0718 65.9751 15.0641 66.2204 15.0488C66.4811 15.0181 66.7111 14.9875 66.9104 14.9568C67.1097 14.9108 67.2707 14.8801 67.3934 14.8648C67.5161 14.8341 67.5774 14.8188 67.5774 14.8188L67.6004 16.8888C67.0944 17.0115 66.5807 17.1111 66.0594 17.1878C65.5381 17.2645 65.0167 17.2951 64.4954 17.2798C63.6214 17.2645 62.8854 17.1035 62.2874 16.7968C61.6894 16.4901 61.2754 16.0225 61.0454 15.3938C60.8154 14.7651 60.8001 13.9678 60.9994 13.0018L61.7354 9.64381C61.9347 8.75447 62.2491 7.97247 62.6784 7.29781C63.1231 6.62314 63.7057 6.10181 64.4264 5.73381C65.1624 5.36581 66.0594 5.19714 67.1174 5.22781C67.6081 5.24314 68.0834 5.31981 68.5434 5.45781C69.0187 5.59581 69.4634 5.77214 69.8774 5.98681L68.9114 7.94181ZM77.301 13.3238C77.5003 13.7071 77.669 14.0061 77.807 14.2208C77.9603 14.4201 78.106 14.5581 78.244 14.6348C78.3973 14.7115 78.566 14.7498 78.75 14.7498H78.865L78.313 17.0038H77.968C77.4007 17.0038 76.9177 16.8811 76.519 16.6358C76.1357 16.3905 75.806 16.0685 75.53 15.6698C75.2693 15.2711 75.024 14.8495 74.794 14.4048L73.506 11.8978L72.701 12.5188L71.758 17.0038H69.205L71.712 5.22781L74.196 5.50381L73.391 9.32181L77.738 5.48081H80.889L75.691 10.1038L77.301 13.3238ZM90.9535 5.80281C90.8001 6.27814 90.6698 6.70747 90.5625 7.09081C90.4705 7.45881 90.3938 7.77314 90.3325 8.03381L88.4465 16.8888C88.4465 16.8888 88.3391 16.8965 88.1245 16.9118C87.9251 16.9271 87.6491 16.9501 87.2965 16.9808C86.9591 16.9961 86.5758 17.0115 86.1465 17.0268C85.7325 17.0421 85.3108 17.0575 84.8815 17.0728C84.4675 17.0881 84.0841 17.0958 83.7315 17.0958C83.0261 17.0958 82.4511 16.9885 82.0065 16.7738C81.5771 16.5591 81.2551 16.2678 81.0405 15.8998C80.8258 15.5318 80.7031 15.1101 80.6725 14.6348C80.6571 14.1441 80.7031 13.6305 80.8105 13.0938L81.7305 8.83881C81.8685 8.16414 82.0601 7.60447 82.3055 7.15981C82.5661 6.69981 82.8575 6.33947 83.1795 6.07881C83.5168 5.80281 83.8848 5.61114 84.2835 5.50381C84.6821 5.38114 85.1115 5.31981 85.5715 5.31981C86.0468 5.31981 86.4838 5.35047 86.8825 5.41181C87.2811 5.47314 87.6108 5.54214 87.8715 5.61881C88.1475 5.69547 88.3391 5.75681 88.4465 5.80281C88.4465 5.80281 88.4771 5.74147 88.5385 5.61881C88.6151 5.48081 88.6995 5.35047 88.7915 5.22781L90.9535 5.80281ZM83.3405 13.1168C83.2485 13.6228 83.2331 14.0138 83.2945 14.2898C83.3558 14.5505 83.4938 14.7345 83.7085 14.8418C83.9385 14.9338 84.2375 14.9798 84.6055 14.9798C84.7435 14.9798 84.8815 14.9798 85.0195 14.9798C85.1575 14.9798 85.2955 14.9798 85.4335 14.9798C85.5715 14.9645 85.7095 14.9491 85.8475 14.9338C86.0008 14.9185 86.1541 14.9031 86.3075 14.8878L87.7335 8.10281C87.6261 8.04147 87.4958 7.98781 87.3425 7.94181C87.1891 7.88047 87.0205 7.82681 86.8365 7.78081C86.6678 7.73481 86.4991 7.70414 86.3305 7.68881C86.1771 7.65814 86.0391 7.64281 85.9165 7.64281C85.7938 7.64281 85.6481 7.65047 85.4795 7.66581C85.3261 7.68114 85.1651 7.73481 84.9965 7.82681C84.8278 7.90347 84.6745 8.02614 84.5365 8.19481C84.3985 8.36347 84.2988 8.60114 84.2375 8.90781L83.3405 13.1168ZM96.7069 5.25081C96.9982 5.25081 97.3432 5.25847 97.7419 5.27381C98.1559 5.28914 98.5776 5.31214 99.0069 5.34281C99.4362 5.35814 99.8349 5.38114 100.203 5.41181C100.587 5.44247 100.893 5.46547 101.123 5.48081C101.369 5.49614 101.491 5.50381 101.491 5.50381L99.0529 17.0038H96.4999L97.4659 12.4728H96.1779C96.1166 12.4728 96.0476 12.4728 95.9709 12.4728C95.9096 12.4728 95.8482 12.4728 95.7869 12.4728C95.7256 12.4728 95.6566 12.4728 95.5799 12.4728L93.0959 17.0038H90.3589L93.2569 12.0588C92.9196 11.8901 92.6206 11.6678 92.3599 11.3918C92.1146 11.1005 91.9459 10.7478 91.8539 10.3338C91.7619 9.91981 91.7696 9.45214 91.8769 8.93081C91.9996 8.33281 92.2679 7.75014 92.6819 7.18281C93.0959 6.61547 93.6402 6.15547 94.3149 5.80281C94.9896 5.43481 95.7869 5.25081 96.7069 5.25081ZM95.8329 10.0808H97.9719L98.4319 7.89581C98.2632 7.89581 98.0869 7.89581 97.9029 7.89581C97.7342 7.88047 97.5656 7.87281 97.3969 7.87281C97.2436 7.85747 97.0979 7.84981 96.9599 7.84981C96.8219 7.84981 96.6992 7.84981 96.5919 7.84981C96.0706 7.84981 95.6182 7.93414 95.2349 8.10281C94.8516 8.25614 94.6139 8.55514 94.5219 8.99981C94.4759 9.18381 94.4759 9.34481 94.5219 9.48281C94.5679 9.62081 94.6446 9.73581 94.7519 9.82781C94.8746 9.91981 95.0279 9.98881 95.2119 10.0348C95.3959 10.0655 95.6029 10.0808 95.8329 10.0808ZM112.517 13.5998C112.441 13.9831 112.418 14.3128 112.448 14.5888C112.494 14.8648 112.602 15.0948 112.77 15.2788C112.954 15.4475 113.207 15.5931 113.529 15.7158L112.057 17.4638C111.628 17.3411 111.252 17.1801 110.93 16.9808C110.624 16.7661 110.378 16.5131 110.194 16.2218C110.01 15.9151 109.895 15.5701 109.849 15.1868C109.803 14.8035 109.826 14.3895 109.918 13.9448L111.206 7.87281H109.067L109.573 5.48081H116.542L116.036 7.87281H113.736L112.517 13.5998ZM120.645 5.50381L119.196 12.3348L124.026 5.50381H126.602L124.164 17.0268H121.588L123.014 10.2418L118.207 17.0268H115.677L118.115 5.50381H120.645ZM134.06 13.3238C134.26 13.7071 134.428 14.0061 134.566 14.2208C134.72 14.4201 134.865 14.5581 135.003 14.6348C135.157 14.7115 135.325 14.7498 135.509 14.7498H135.624L135.072 17.0038H134.727C134.16 17.0038 133.677 16.8811 133.278 16.6358C132.895 16.3905 132.565 16.0685 132.289 15.6698C132.029 15.2711 131.783 14.8495 131.553 14.4048L130.265 11.8978L129.46 12.5188L128.517 17.0038H125.964L128.471 5.22781L130.955 5.50381L130.15 9.32181L134.497 5.48081H137.648L132.45 10.1038L134.06 13.3238ZM142.009 13.5998C141.932 13.9831 141.909 14.3128 141.94 14.5888C141.986 14.8648 142.093 15.0948 142.262 15.2788C142.446 15.4475 142.699 15.5931 143.021 15.7158L141.549 17.4638C141.119 17.3411 140.744 17.1801 140.422 16.9808C140.115 16.7661 139.87 16.5131 139.686 16.2218C139.502 15.9151 139.387 15.5701 139.341 15.1868C139.295 14.8035 139.318 14.3895 139.41 13.9448L140.698 7.87281H138.559L139.065 5.48081H146.034L145.528 7.87281H143.228L142.009 13.5998ZM154.391 12.7488C154.115 14.0981 153.54 15.1868 152.666 16.0148C151.807 16.8275 150.672 17.2338 149.262 17.2338C148.25 17.2338 147.468 17.0268 146.916 16.6128C146.379 16.1835 146.034 15.6315 145.881 14.9568C145.727 14.2668 145.727 13.5308 145.881 12.7488L146.548 9.71281C146.762 8.73147 147.1 7.91114 147.56 7.25181C148.035 6.59247 148.625 6.09414 149.331 5.75681C150.051 5.40414 150.879 5.22781 151.815 5.22781C153.149 5.22781 154.099 5.62647 154.667 6.42381C155.234 7.20581 155.364 8.30214 155.058 9.71281L154.391 12.7488ZM152.482 9.57481C152.558 9.20681 152.566 8.89247 152.505 8.63181C152.443 8.35581 152.305 8.14881 152.091 8.01081C151.891 7.85747 151.608 7.78081 151.24 7.78081C150.872 7.78081 150.542 7.84981 150.251 7.98781C149.975 8.12581 149.737 8.32514 149.538 8.58581C149.354 8.84647 149.216 9.17614 149.124 9.57481L148.411 12.9328C148.349 13.2395 148.349 13.5308 148.411 13.8068C148.472 14.0828 148.61 14.3051 148.825 14.4738C149.039 14.6425 149.354 14.7268 149.768 14.7268C150.151 14.7268 150.473 14.6501 150.734 14.4968C151.01 14.3435 151.232 14.1288 151.401 13.8528C151.569 13.5768 151.692 13.2701 151.769 12.9328L152.482 9.57481ZM163.237 13.3238C163.436 13.7071 163.605 14.0061 163.743 14.2208C163.896 14.4201 164.042 14.5581 164.18 14.6348C164.333 14.7115 164.502 14.7498 164.686 14.7498H164.801L164.249 17.0038H163.904C163.337 17.0038 162.854 16.8811 162.455 16.6358C162.072 16.3905 161.742 16.0685 161.466 15.6698C161.205 15.2711 160.96 14.8495 160.73 14.4048L159.442 11.8978L158.637 12.5188L157.694 17.0038H155.141L157.648 5.22781L160.132 5.50381L159.327 9.32181L163.674 5.48081H166.825L161.627 10.1038L163.237 13.3238ZM169.207 13.5768C169.161 13.7761 169.154 13.9601 169.184 14.1288C169.215 14.2821 169.269 14.4201 169.345 14.5428C169.437 14.6655 169.56 14.7575 169.713 14.8188C169.867 14.8801 170.043 14.9108 170.242 14.9108C170.656 14.9108 171.147 14.8188 171.714 14.6348C172.282 14.4508 172.834 14.2361 173.37 13.9908L173.83 16.1988C173.217 16.5361 172.542 16.8045 171.806 17.0038C171.07 17.2031 170.357 17.3028 169.667 17.3028C169.131 17.3028 168.64 17.2338 168.195 17.0958C167.766 16.9578 167.406 16.7508 167.114 16.4748C166.838 16.1988 166.647 15.8461 166.539 15.4168C166.447 14.9875 166.463 14.4815 166.585 13.8988L167.597 9.18381C167.781 8.34047 168.103 7.62747 168.563 7.04481C169.039 6.46214 169.614 6.01747 170.288 5.71081C170.978 5.40414 171.737 5.25081 172.565 5.25081C173.393 5.25081 174.083 5.39647 174.635 5.68781C175.203 5.97914 175.601 6.40847 175.831 6.97581C176.061 7.54314 176.084 8.25614 175.9 9.11481L175.141 12.7028L169.345 13.0018L169.207 13.5768ZM173.209 9.80481C173.271 9.48281 173.301 9.15314 173.301 8.81581C173.301 8.47847 173.217 8.20247 173.048 7.98781C172.895 7.75781 172.588 7.65814 172.128 7.68881C171.653 7.70414 171.277 7.80381 171.001 7.98781C170.741 8.15647 170.534 8.39414 170.38 8.70081C170.242 8.99214 170.12 9.35247 170.012 9.78181L169.828 10.6788L173.048 10.4718L173.209 9.80481ZM185.118 13.0708C184.934 14.0061 184.62 14.7958 184.175 15.4398C183.746 16.0838 183.209 16.5745 182.565 16.9118C181.921 17.2338 181.17 17.3948 180.311 17.3948C180.127 17.3948 179.943 17.3795 179.759 17.3488C179.575 17.3181 179.399 17.2798 179.23 17.2338C179.062 17.1878 178.901 17.1265 178.747 17.0498C178.609 16.9885 178.479 16.9195 178.356 16.8428L177.275 21.9718L174.86 21.3968L177.321 9.82781C177.628 8.37114 178.234 7.25947 179.138 6.49281C180.058 5.71081 181.216 5.31981 182.611 5.31981C183.93 5.31981 184.873 5.71847 185.44 6.51581C186.008 7.31314 186.138 8.41714 185.831 9.82781L185.118 13.0708ZM183.324 9.68981C183.401 9.32181 183.401 9.00747 183.324 8.74681C183.248 8.47081 183.094 8.25614 182.864 8.10281C182.634 7.94947 182.335 7.87281 181.967 7.87281C181.615 7.87281 181.293 7.94181 181.001 8.07981C180.71 8.21781 180.472 8.42481 180.288 8.70081C180.104 8.96147 179.966 9.29114 179.874 9.68981L178.977 13.8988C178.931 14.0981 178.954 14.2745 179.046 14.4278C179.154 14.5811 179.299 14.7115 179.483 14.8188C179.667 14.9261 179.859 15.0028 180.058 15.0488C180.273 15.0948 180.472 15.1178 180.656 15.1178C180.994 15.1178 181.285 15.0488 181.53 14.9108C181.791 14.7728 182.006 14.5811 182.174 14.3358C182.343 14.0751 182.458 13.7685 182.519 13.4158L183.324 9.68981ZM198.167 5.50381H200.72L198.282 17.0038H186.184L188.622 5.50381H191.175L189.266 14.4738H191.474L193.383 5.50381H195.936L194.027 14.4738H196.258L198.167 5.50381ZM211.053 5.80281C210.899 6.27814 210.769 6.70747 210.662 7.09081C210.57 7.45881 210.493 7.77314 210.432 8.03381L208.546 16.8888C208.546 16.8888 208.438 16.8965 208.224 16.9118C208.024 16.9271 207.748 16.9501 207.396 16.9808C207.058 16.9961 206.675 17.0115 206.246 17.0268C205.832 17.0421 205.41 17.0575 204.981 17.0728C204.567 17.0881 204.183 17.0958 203.831 17.0958C203.125 17.0958 202.55 16.9885 202.106 16.7738C201.676 16.5591 201.354 16.2678 201.14 15.8998C200.925 15.5318 200.802 15.1101 200.772 14.6348C200.756 14.1441 200.802 13.6305 200.91 13.0938L201.83 8.83881C201.968 8.16414 202.159 7.60447 202.405 7.15981C202.665 6.69981 202.957 6.33947 203.279 6.07881C203.616 5.80281 203.984 5.61114 204.383 5.50381C204.781 5.38114 205.211 5.31981 205.671 5.31981C206.146 5.31981 206.583 5.35047 206.982 5.41181C207.38 5.47314 207.71 5.54214 207.971 5.61881C208.247 5.69547 208.438 5.75681 208.546 5.80281C208.546 5.80281 208.576 5.74147 208.638 5.61881C208.714 5.48081 208.799 5.35047 208.891 5.22781L211.053 5.80281ZM203.44 13.1168C203.348 13.6228 203.332 14.0138 203.394 14.2898C203.455 14.5505 203.593 14.7345 203.808 14.8418C204.038 14.9338 204.337 14.9798 204.705 14.9798C204.843 14.9798 204.981 14.9798 205.119 14.9798C205.257 14.9798 205.395 14.9798 205.533 14.9798C205.671 14.9645 205.809 14.9491 205.947 14.9338C206.1 14.9185 206.253 14.9031 206.407 14.8878L207.833 8.10281C207.725 8.04147 207.595 7.98781 207.442 7.94181C207.288 7.88047 207.12 7.82681 206.936 7.78081C206.767 7.73481 206.598 7.70414 206.43 7.68881C206.276 7.65814 206.138 7.64281 206.016 7.64281C205.893 7.64281 205.747 7.65047 205.579 7.66581C205.425 7.68114 205.264 7.73481 205.096 7.82681C204.927 7.90347 204.774 8.02614 204.636 8.19481C204.498 8.36347 204.398 8.60114 204.337 8.90781L203.44 13.1168ZM210.803 18.5218C210.972 18.3071 211.102 18.0848 211.194 17.8548C211.301 17.6401 211.409 17.4178 211.516 17.1878C211.225 17.1111 211.01 16.9501 210.872 16.7048C210.734 16.4595 210.696 16.1758 210.757 15.8538C210.834 15.4858 211.033 15.1638 211.355 14.8878C211.692 14.6118 212.053 14.4738 212.436 14.4738C212.804 14.4738 213.088 14.6118 213.287 14.8878C213.486 15.1638 213.548 15.4858 213.471 15.8538C213.379 16.3751 213.21 16.8275 212.965 17.2108C212.735 17.5941 212.482 17.9085 212.206 18.1538C211.945 18.4145 211.723 18.6061 211.539 18.7288C211.355 18.8515 211.271 18.9128 211.286 18.9128L210.803 18.5218ZM229.979 10.6328C230.393 10.9395 230.669 11.3535 230.807 11.8748C230.961 12.3961 230.976 12.9635 230.853 13.5768C230.731 14.1748 230.462 14.7575 230.048 15.3248C229.634 15.8768 229.09 16.3368 228.415 16.7048C227.741 17.0728 226.943 17.2568 226.023 17.2568C225.732 17.2568 225.387 17.2491 224.988 17.2338C224.59 17.2185 224.176 17.1955 223.746 17.1648C223.317 17.1341 222.918 17.1035 222.55 17.0728C222.182 17.0575 221.883 17.0421 221.653 17.0268C221.423 17.0115 221.308 17.0038 221.308 17.0038L223.746 5.48081C223.746 5.48081 223.846 5.47314 224.045 5.45781C224.26 5.42714 224.559 5.39647 224.942 5.36581C225.341 5.31981 225.809 5.28914 226.345 5.27381C226.882 5.24314 227.48 5.22781 228.139 5.22781C228.599 5.22781 229.044 5.28147 229.473 5.38881C229.903 5.49614 230.278 5.65714 230.6 5.87181C230.938 6.08647 231.191 6.37014 231.359 6.72281C231.543 7.06014 231.62 7.47414 231.589 7.96481C231.559 8.44014 231.39 8.93081 231.083 9.43681C230.792 9.92747 230.424 10.3261 229.979 10.6328ZM227.725 7.45881C227.587 7.45881 227.442 7.45881 227.288 7.45881C227.135 7.45881 226.974 7.46647 226.805 7.48181C226.652 7.48181 226.491 7.48947 226.322 7.50481C226.169 7.50481 226.016 7.50481 225.862 7.50481L225.31 10.0578H226.483C227.035 10.0578 227.48 9.98881 227.817 9.85081C228.155 9.71281 228.408 9.53647 228.576 9.32181C228.76 9.10714 228.875 8.89247 228.921 8.67781C228.967 8.47847 228.96 8.30981 228.898 8.17181C228.837 8.01847 228.745 7.88814 228.622 7.78081C228.515 7.67347 228.377 7.59681 228.208 7.55081C228.055 7.48947 227.894 7.45881 227.725 7.45881ZM226.138 14.6578C226.491 14.6578 226.821 14.6195 227.127 14.5428C227.434 14.4661 227.695 14.3435 227.909 14.1748C228.124 13.9908 228.262 13.7531 228.323 13.4618C228.369 13.2778 228.362 13.1091 228.3 12.9558C228.254 12.8025 228.162 12.6798 228.024 12.5878C227.902 12.4805 227.741 12.4038 227.541 12.3578C227.357 12.2965 227.15 12.2658 226.92 12.2658H224.85L224.344 14.6118C224.513 14.6118 224.682 14.6195 224.85 14.6348C225.019 14.6348 225.18 14.6425 225.333 14.6578C225.487 14.6578 225.632 14.6578 225.77 14.6578C225.908 14.6578 226.031 14.6578 226.138 14.6578ZM236.678 5.50381L235.229 12.3348L240.059 5.50381H242.635L240.197 17.0268H237.621L239.047 10.2418L234.24 17.0268H231.71L234.148 5.50381H236.678ZM252.715 14.4968H254.003L252.853 19.9018H250.737L250.875 17.0268H243.883L242.779 19.9018H240.663L241.813 14.4968H243.377L246.16 8.95381C246.344 8.58581 246.559 8.20247 246.804 7.80381C247.065 7.38981 247.364 7.00647 247.701 6.65381C248.054 6.30114 248.476 6.01747 248.966 5.80281C249.472 5.58814 250.07 5.48081 250.76 5.48081H254.624L252.715 14.4968ZM246.022 14.4968H250.162L251.634 7.64281H250.921C250.676 7.64281 250.446 7.66581 250.231 7.71181C250.017 7.74247 249.817 7.81147 249.633 7.91881C249.449 8.02614 249.273 8.17181 249.104 8.35581C248.936 8.53981 248.782 8.77747 248.644 9.06881L246.022 14.4968ZM257.771 13.5768C257.725 13.7761 257.717 13.9601 257.748 14.1288C257.779 14.2821 257.832 14.4201 257.909 14.5428C258.001 14.6655 258.124 14.7575 258.277 14.8188C258.43 14.8801 258.607 14.9108 258.806 14.9108C259.22 14.9108 259.711 14.8188 260.278 14.6348C260.845 14.4508 261.397 14.2361 261.934 13.9908L262.394 16.1988C261.781 16.5361 261.106 16.8045 260.37 17.0038C259.634 17.2031 258.921 17.3028 258.231 17.3028C257.694 17.3028 257.204 17.2338 256.759 17.0958C256.33 16.9578 255.969 16.7508 255.678 16.4748C255.402 16.1988 255.21 15.8461 255.103 15.4168C255.011 14.9875 255.026 14.4815 255.149 13.8988L256.161 9.18381C256.345 8.34047 256.667 7.62747 257.127 7.04481C257.602 6.46214 258.177 6.01747 258.852 5.71081C259.542 5.40414 260.301 5.25081 261.129 5.25081C261.957 5.25081 262.647 5.39647 263.199 5.68781C263.766 5.97914 264.165 6.40847 264.395 6.97581C264.625 7.54314 264.648 8.25614 264.464 9.11481L263.705 12.7028L257.909 13.0018L257.771 13.5768ZM261.773 9.80481C261.834 9.48281 261.865 9.15314 261.865 8.81581C261.865 8.47847 261.781 8.20247 261.612 7.98781C261.459 7.75781 261.152 7.65814 260.692 7.68881C260.217 7.70414 259.841 7.80381 259.565 7.98781C259.304 8.15647 259.097 8.39414 258.944 8.70081C258.806 8.99214 258.683 9.35247 258.576 9.78181L258.392 10.6788L261.612 10.4718L261.773 9.80481ZM273.636 12.7488C273.36 14.0981 272.785 15.1868 271.911 16.0148C271.052 16.8275 269.918 17.2338 268.507 17.2338C267.495 17.2338 266.713 17.0268 266.161 16.6128C265.624 16.1835 265.279 15.6315 265.126 14.9568C264.973 14.2668 264.973 13.5308 265.126 12.7488L265.793 9.71281C266.008 8.73147 266.345 7.91114 266.805 7.25181C267.28 6.59247 267.871 6.09414 268.576 5.75681C269.297 5.40414 270.125 5.22781 271.06 5.22781C272.394 5.22781 273.345 5.62647 273.912 6.42381C274.479 7.20581 274.61 8.30214 274.303 9.71281L273.636 12.7488ZM271.727 9.57481C271.804 9.20681 271.811 8.89247 271.75 8.63181C271.689 8.35581 271.551 8.14881 271.336 8.01081C271.137 7.85747 270.853 7.78081 270.485 7.78081C270.117 7.78081 269.787 7.84981 269.496 7.98781C269.22 8.12581 268.982 8.32514 268.783 8.58581C268.599 8.84647 268.461 9.17614 268.369 9.57481L267.656 12.9328C267.595 13.2395 267.595 13.5308 267.656 13.8068C267.717 14.0828 267.855 14.3051 268.07 14.4738C268.285 14.6425 268.599 14.7268 269.013 14.7268C269.396 14.7268 269.718 14.6501 269.979 14.4968C270.255 14.3435 270.477 14.1288 270.646 13.8528C270.815 13.5768 270.937 13.2701 271.014 12.9328L271.727 9.57481ZM281.171 5.31981C282.03 5.31981 282.712 5.48081 283.218 5.80281C283.724 6.12481 284.054 6.60781 284.207 7.25181C284.376 7.89581 284.36 8.69314 284.161 9.64381L283.494 12.7488C283.203 14.1441 282.605 15.2481 281.7 16.0608C280.795 16.8581 279.684 17.2568 278.365 17.2568C277.506 17.2568 276.786 17.0881 276.203 16.7508C275.636 16.3981 275.237 15.8921 275.007 15.2328C274.792 14.5581 274.785 13.7301 274.984 12.7488L276.433 5.96381C276.556 5.39647 276.77 4.82147 277.077 4.23881C277.399 3.65614 277.821 3.12714 278.342 2.65181C278.817 2.20714 279.385 1.83147 280.044 1.52481C280.703 1.21814 281.455 1.01114 282.298 0.903809L282.574 2.49081C282.053 2.59814 281.577 2.75147 281.148 2.95081C280.734 3.15014 280.358 3.41847 280.021 3.75581C279.776 4.01647 279.569 4.31547 279.4 4.65281C279.231 4.99014 279.093 5.40414 278.986 5.89481L278.94 6.10181C279.139 5.97914 279.362 5.85647 279.607 5.73381C279.868 5.61114 280.128 5.51147 280.389 5.43481C280.665 5.35814 280.926 5.31981 281.171 5.31981ZM280.343 7.61981C280.159 7.61981 279.96 7.65047 279.745 7.71181C279.53 7.75781 279.323 7.84214 279.124 7.96481C278.925 8.07214 278.748 8.22547 278.595 8.42481C278.457 8.60881 278.357 8.83114 278.296 9.09181L277.491 12.8868C277.414 13.2701 277.399 13.5998 277.445 13.8758C277.491 14.1365 277.621 14.3435 277.836 14.4968C278.051 14.6348 278.373 14.7038 278.802 14.7038C279.17 14.7038 279.5 14.6271 279.791 14.4738C280.082 14.3205 280.32 14.1135 280.504 13.8528C280.703 13.5768 280.841 13.2548 280.918 12.8868L281.677 9.29881C281.754 8.94614 281.754 8.64714 281.677 8.40181C281.6 8.14114 281.447 7.94947 281.217 7.82681C281.002 7.68881 280.711 7.61981 280.343 7.61981ZM293.125 5.50381H296.989L294.551 16.9808H291.998L293.976 7.66581H293.263C292.941 7.66581 292.65 7.70414 292.389 7.78081C292.144 7.85747 291.914 7.99547 291.699 8.19481C291.5 8.39414 291.301 8.68547 291.101 9.06881L288.755 13.7608C288.326 14.6041 287.912 15.2788 287.513 15.7848C287.13 16.2755 286.693 16.6588 286.202 16.9348C285.727 17.1955 285.137 17.4025 284.431 17.5558L283.396 16.3368C283.734 16.1681 284.025 16.0148 284.27 15.8768C284.531 15.7388 284.776 15.5395 285.006 15.2788C285.252 15.0181 285.512 14.6271 285.788 14.1058L288.433 8.95381C288.617 8.58581 288.84 8.20247 289.1 7.80381C289.361 7.40514 289.668 7.02947 290.02 6.67681C290.388 6.32414 290.825 6.04047 291.331 5.82581C291.837 5.61114 292.435 5.50381 293.125 5.50381ZM305.71 12.7488C305.434 14.0981 304.859 15.1868 303.985 16.0148C303.126 16.8275 301.992 17.2338 300.581 17.2338C299.569 17.2338 298.787 17.0268 298.235 16.6128C297.698 16.1835 297.353 15.6315 297.2 14.9568C297.047 14.2668 297.047 13.5308 297.2 12.7488L297.867 9.71281C298.082 8.73147 298.419 7.91114 298.879 7.25181C299.354 6.59247 299.945 6.09414 300.65 5.75681C301.371 5.40414 302.199 5.22781 303.134 5.22781C304.468 5.22781 305.419 5.62647 305.986 6.42381C306.553 7.20581 306.684 8.30214 306.377 9.71281L305.71 12.7488ZM303.801 9.57481C303.878 9.20681 303.885 8.89247 303.824 8.63181C303.763 8.35581 303.625 8.14881 303.41 8.01081C303.211 7.85747 302.927 7.78081 302.559 7.78081C302.191 7.78081 301.861 7.84981 301.57 7.98781C301.294 8.12581 301.056 8.32514 300.857 8.58581C300.673 8.84647 300.535 9.17614 300.443 9.57481L299.73 12.9328C299.669 13.2395 299.669 13.5308 299.73 13.8068C299.791 14.0828 299.929 14.3051 300.144 14.4738C300.359 14.6425 300.673 14.7268 301.087 14.7268C301.47 14.7268 301.792 14.6501 302.053 14.4968C302.329 14.3435 302.551 14.1288 302.72 13.8528C302.889 13.5768 303.011 13.2701 303.088 12.9328L303.801 9.57481ZM308.737 5.50381H315.062L314.533 8.03381H310.784L308.875 17.0038H306.299L308.737 5.50381ZM316.888 13.5768C316.842 13.7761 316.834 13.9601 316.865 14.1288C316.896 14.2821 316.949 14.4201 317.026 14.5428C317.118 14.6655 317.241 14.7575 317.394 14.8188C317.547 14.8801 317.724 14.9108 317.923 14.9108C318.337 14.9108 318.828 14.8188 319.395 14.6348C319.962 14.4508 320.514 14.2361 321.051 13.9908L321.511 16.1988C320.898 16.5361 320.223 16.8045 319.487 17.0038C318.751 17.2031 318.038 17.3028 317.348 17.3028C316.811 17.3028 316.321 17.2338 315.876 17.0958C315.447 16.9578 315.086 16.7508 314.795 16.4748C314.519 16.1988 314.327 15.8461 314.22 15.4168C314.128 14.9875 314.143 14.4815 314.266 13.8988L315.278 9.18381C315.462 8.34047 315.784 7.62747 316.244 7.04481C316.719 6.46214 317.294 6.01747 317.969 5.71081C318.659 5.40414 319.418 5.25081 320.246 5.25081C321.074 5.25081 321.764 5.39647 322.316 5.68781C322.883 5.97914 323.282 6.40847 323.512 6.97581C323.742 7.54314 323.765 8.25614 323.581 9.11481L322.822 12.7028L317.026 13.0018L316.888 13.5768ZM320.89 9.80481C320.951 9.48281 320.982 9.15314 320.982 8.81581C320.982 8.47847 320.898 8.20247 320.729 7.98781C320.576 7.75781 320.269 7.65814 319.809 7.68881C319.334 7.70414 318.958 7.80381 318.682 7.98781C318.421 8.15647 318.214 8.39414 318.061 8.70081C317.923 8.99214 317.8 9.35247 317.693 9.78181L317.509 10.6788L320.729 10.4718L320.89 9.80481ZM332.799 13.0708C332.615 14.0061 332.301 14.7958 331.856 15.4398C331.427 16.0838 330.89 16.5745 330.246 16.9118C329.602 17.2338 328.851 17.3948 327.992 17.3948C327.808 17.3948 327.624 17.3795 327.44 17.3488C327.256 17.3181 327.08 17.2798 326.911 17.2338C326.742 17.1878 326.581 17.1265 326.428 17.0498C326.29 16.9885 326.16 16.9195 326.037 16.8428L324.956 21.9718L322.541 21.3968L325.002 9.82781C325.309 8.37114 325.914 7.25947 326.819 6.49281C327.739 5.71081 328.897 5.31981 330.292 5.31981C331.611 5.31981 332.554 5.71847 333.121 6.51581C333.688 7.31314 333.819 8.41714 333.512 9.82781L332.799 13.0708ZM331.005 9.68981C331.082 9.32181 331.082 9.00747 331.005 8.74681C330.928 8.47081 330.775 8.25614 330.545 8.10281C330.315 7.94947 330.016 7.87281 329.648 7.87281C329.295 7.87281 328.973 7.94181 328.682 8.07981C328.391 8.21781 328.153 8.42481 327.969 8.70081C327.785 8.96147 327.647 9.29114 327.555 9.68981L326.658 13.8988C326.612 14.0981 326.635 14.2745 326.727 14.4278C326.834 14.5811 326.98 14.7115 327.164 14.8188C327.348 14.9261 327.54 15.0028 327.739 15.0488C327.954 15.0948 328.153 15.1178 328.337 15.1178C328.674 15.1178 328.966 15.0488 329.211 14.9108C329.472 14.7728 329.686 14.5811 329.855 14.3358C330.024 14.0751 330.139 13.7685 330.2 13.4158L331.005 9.68981ZM333.934 18.5218C334.102 18.3071 334.233 18.0848 334.325 17.8548C334.432 17.6401 334.539 17.4178 334.647 17.1878C334.355 17.1111 334.141 16.9501 334.003 16.7048C333.865 16.4595 333.826 16.1758 333.888 15.8538C333.964 15.4858 334.164 15.1638 334.486 14.8878C334.823 14.6118 335.183 14.4738 335.567 14.4738C335.935 14.4738 336.218 14.6118 336.418 14.8878C336.617 15.1638 336.678 15.4858 336.602 15.8538C336.51 16.3751 336.341 16.8275 336.096 17.2108C335.866 17.5941 335.613 17.9085 335.337 18.1538C335.076 18.4145 334.854 18.6061 334.67 18.7288C334.486 18.8515 334.401 18.9128 334.417 18.9128L333.934 18.5218ZM353.731 14.5658C353.716 14.8111 353.746 15.0105 353.823 15.1638C353.915 15.3171 354.045 15.4551 354.214 15.5778L352.328 17.3948C352.343 17.3948 352.267 17.3565 352.098 17.2798C351.945 17.2031 351.768 17.0805 351.569 16.9118C351.385 16.7431 351.239 16.5131 351.132 16.2218C351.025 15.9151 351.017 15.5318 351.109 15.0718L352.65 7.87281H349.016L347.084 17.0038H344.531L346.992 5.48081H355.663L353.731 14.5658ZM358.643 13.5768C358.597 13.7761 358.589 13.9601 358.62 14.1288C358.651 14.2821 358.704 14.4201 358.781 14.5428C358.873 14.6655 358.996 14.7575 359.149 14.8188C359.302 14.8801 359.479 14.9108 359.678 14.9108C360.092 14.9108 360.583 14.8188 361.15 14.6348C361.717 14.4508 362.269 14.2361 362.806 13.9908L363.266 16.1988C362.653 16.5361 361.978 16.8045 361.242 17.0038C360.506 17.2031 359.793 17.3028 359.103 17.3028C358.566 17.3028 358.076 17.2338 357.631 17.0958C357.202 16.9578 356.841 16.7508 356.55 16.4748C356.274 16.1988 356.082 15.8461 355.975 15.4168C355.883 14.9875 355.898 14.4815 356.021 13.8988L357.033 9.18381C357.217 8.34047 357.539 7.62747 357.999 7.04481C358.474 6.46214 359.049 6.01747 359.724 5.71081C360.414 5.40414 361.173 5.25081 362.001 5.25081C362.829 5.25081 363.519 5.39647 364.071 5.68781C364.638 5.97914 365.037 6.40847 365.267 6.97581C365.497 7.54314 365.52 8.25614 365.336 9.11481L364.577 12.7028L358.781 13.0018L358.643 13.5768ZM362.645 9.80481C362.706 9.48281 362.737 9.15314 362.737 8.81581C362.737 8.47847 362.653 8.20247 362.484 7.98781C362.331 7.75781 362.024 7.65814 361.564 7.68881C361.089 7.70414 360.713 7.80381 360.437 7.98781C360.176 8.15647 359.969 8.39414 359.816 8.70081C359.678 8.99214 359.555 9.35247 359.448 9.78181L359.264 10.6788L362.484 10.4718L362.645 9.80481ZM373.864 10.6328C374.278 10.9395 374.554 11.3535 374.692 11.8748C374.845 12.3961 374.861 12.9635 374.738 13.5768C374.615 14.1748 374.347 14.7575 373.933 15.3248C373.519 15.8768 372.975 16.3368 372.3 16.7048C371.625 17.0728 370.828 17.2568 369.908 17.2568C369.617 17.2568 369.272 17.2491 368.873 17.2338C368.474 17.2185 368.06 17.1955 367.631 17.1648C367.202 17.1341 366.803 17.1035 366.435 17.0728C366.067 17.0575 365.768 17.0421 365.538 17.0268C365.308 17.0115 365.193 17.0038 365.193 17.0038L367.631 5.48081C367.631 5.48081 367.731 5.47314 367.93 5.45781C368.145 5.42714 368.444 5.39647 368.827 5.36581C369.226 5.31981 369.693 5.28914 370.23 5.27381C370.767 5.24314 371.365 5.22781 372.024 5.22781C372.484 5.22781 372.929 5.28147 373.358 5.38881C373.787 5.49614 374.163 5.65714 374.485 5.87181C374.822 6.08647 375.075 6.37014 375.244 6.72281C375.428 7.06014 375.505 7.47414 375.474 7.96481C375.443 8.44014 375.275 8.93081 374.968 9.43681C374.677 9.92747 374.309 10.3261 373.864 10.6328ZM371.61 7.45881C371.472 7.45881 371.326 7.45881 371.173 7.45881C371.02 7.45881 370.859 7.46647 370.69 7.48181C370.537 7.48181 370.376 7.48947 370.207 7.50481C370.054 7.50481 369.9 7.50481 369.747 7.50481L369.195 10.0578H370.368C370.92 10.0578 371.365 9.98881 371.702 9.85081C372.039 9.71281 372.292 9.53647 372.461 9.32181C372.645 9.10714 372.76 8.89247 372.806 8.67781C372.852 8.47847 372.844 8.30981 372.783 8.17181C372.722 8.01847 372.63 7.88814 372.507 7.78081C372.4 7.67347 372.262 7.59681 372.093 7.55081C371.94 7.48947 371.779 7.45881 371.61 7.45881ZM370.023 14.6578C370.376 14.6578 370.705 14.6195 371.012 14.5428C371.319 14.4661 371.579 14.3435 371.794 14.1748C372.009 13.9908 372.147 13.7531 372.208 13.4618C372.254 13.2778 372.246 13.1091 372.185 12.9558C372.139 12.8025 372.047 12.6798 371.909 12.5878C371.786 12.4805 371.625 12.4038 371.426 12.3578C371.242 12.2965 371.035 12.2658 370.805 12.2658H368.735L368.229 14.6118C368.398 14.6118 368.566 14.6195 368.735 14.6348C368.904 14.6348 369.065 14.6425 369.218 14.6578C369.371 14.6578 369.517 14.6578 369.655 14.6578C369.793 14.6578 369.916 14.6578 370.023 14.6578ZM380.563 5.50381L379.114 12.3348L383.944 5.50381H386.52L384.082 17.0268H381.506L382.932 10.2418L378.125 17.0268H375.595L378.033 5.50381H380.563ZM396.761 5.50381L394.852 14.4738H397.428L396.278 19.8788H394.162L394.3 17.0038H385.813L388.251 5.50381H390.804L388.895 14.4738H392.276L394.185 5.50381H396.761ZM409.023 5.80281C408.87 6.27814 408.74 6.70747 408.632 7.09081C408.54 7.45881 408.464 7.77314 408.402 8.03381L406.516 16.8888C406.516 16.8888 406.409 16.8965 406.194 16.9118C405.995 16.9271 405.719 16.9501 405.366 16.9808C405.029 16.9961 404.646 17.0115 404.216 17.0268C403.802 17.0421 403.381 17.0575 402.951 17.0728C402.537 17.0881 402.154 17.0958 401.801 17.0958C401.096 17.0958 400.521 16.9885 400.076 16.7738C399.647 16.5591 399.325 16.2678 399.11 15.8998C398.896 15.5318 398.773 15.1101 398.742 14.6348C398.727 14.1441 398.773 13.6305 398.88 13.0938L399.8 8.83881C399.938 8.16414 400.13 7.60447 400.375 7.15981C400.636 6.69981 400.927 6.33947 401.249 6.07881C401.587 5.80281 401.955 5.61114 402.353 5.50381C402.752 5.38114 403.181 5.31981 403.641 5.31981C404.117 5.31981 404.554 5.35047 404.952 5.41181C405.351 5.47314 405.681 5.54214 405.941 5.61881C406.217 5.69547 406.409 5.75681 406.516 5.80281C406.516 5.80281 406.547 5.74147 406.608 5.61881C406.685 5.48081 406.769 5.35047 406.861 5.22781L409.023 5.80281ZM401.41 13.1168C401.318 13.6228 401.303 14.0138 401.364 14.2898C401.426 14.5505 401.564 14.7345 401.778 14.8418C402.008 14.9338 402.307 14.9798 402.675 14.9798C402.813 14.9798 402.951 14.9798 403.089 14.9798C403.227 14.9798 403.365 14.9798 403.503 14.9798C403.641 14.9645 403.779 14.9491 403.917 14.9338C404.071 14.9185 404.224 14.9031 404.377 14.8878L405.803 8.10281C405.696 8.04147 405.566 7.98781 405.412 7.94181C405.259 7.88047 405.09 7.82681 404.906 7.78081C404.738 7.73481 404.569 7.70414 404.4 7.68881C404.247 7.65814 404.109 7.64281 403.986 7.64281C403.864 7.64281 403.718 7.65047 403.549 7.66581C403.396 7.68114 403.235 7.73481 403.066 7.82681C402.898 7.90347 402.744 8.02614 402.606 8.19481C402.468 8.36347 402.369 8.60114 402.307 8.90781L401.41 13.1168ZM35.6856 32.5038L34.2366 39.3348L39.0666 32.5038H41.6426L39.2046 44.0268H36.6286L38.0546 37.2418L33.2476 44.0268H30.7176L33.1556 32.5038H35.6856ZM48.4406 48.8108L51.0626 44.0038L49.3376 32.4808H51.7756L52.9716 40.5768L57.3416 32.4808H59.7796L50.9246 48.8108H48.4406ZM64.7032 44.0038L65.3932 40.7608C65.2705 40.8681 65.0789 40.9831 64.8182 41.1058C64.5575 41.2285 64.2585 41.3358 63.9212 41.4278C63.5992 41.5045 63.2772 41.5428 62.9552 41.5428C62.4952 41.5428 62.0582 41.4738 61.6442 41.3358C61.2302 41.1978 60.8775 40.9831 60.5862 40.6918C60.2949 40.3851 60.0955 39.9941 59.9882 39.5188C59.8809 39.0281 59.8962 38.4378 60.0342 37.7478L61.1382 32.5038H63.7372L62.6332 37.6788C62.5719 37.9395 62.5565 38.1695 62.5872 38.3688C62.6332 38.5681 62.7099 38.7291 62.8172 38.8518C62.9399 38.9745 63.0932 39.0665 63.2772 39.1278C63.4612 39.1891 63.6682 39.2198 63.8982 39.2198C64.1589 39.2198 64.4042 39.1738 64.6342 39.0818C64.8795 38.9745 65.1019 38.8365 65.3012 38.6678C65.5159 38.4991 65.6922 38.2998 65.8302 38.0698C65.9682 37.8398 66.0679 37.5945 66.1292 37.3338L66.6352 34.9418C66.7119 34.6198 66.8345 34.2978 67.0032 33.9758C67.1719 33.6538 67.3942 33.3625 67.6702 33.1018C67.9462 32.8258 68.2759 32.6111 68.6592 32.4578C69.0579 32.2891 69.5179 32.2048 70.0392 32.2048L70.4532 33.9988C69.9932 34.0908 69.6559 34.2901 69.4412 34.5968C69.2419 34.8881 69.0962 35.2331 69.0042 35.6318L67.2332 44.0038H64.7032ZM80.2958 32.8028C80.1424 33.2781 80.0121 33.7075 79.9048 34.0908C79.8128 34.4588 79.7361 34.7731 79.6748 35.0338L77.7888 43.8888C77.7888 43.8888 77.6814 43.8965 77.4668 43.9118C77.2674 43.9271 76.9914 43.9501 76.6388 43.9808C76.3014 43.9961 75.9181 44.0115 75.4888 44.0268C75.0748 44.0421 74.6531 44.0575 74.2238 44.0728C73.8098 44.0881 73.4264 44.0958 73.0738 44.0958C72.3684 44.0958 71.7934 43.9885 71.3488 43.7738C70.9194 43.5591 70.5974 43.2678 70.3828 42.8998C70.1681 42.5318 70.0454 42.1101 70.0148 41.6348C69.9994 41.1441 70.0454 40.6305 70.1528 40.0938L71.0728 35.8388C71.2108 35.1641 71.4024 34.6045 71.6478 34.1598C71.9084 33.6998 72.1998 33.3395 72.5218 33.0788C72.8591 32.8028 73.2271 32.6111 73.6258 32.5038C74.0244 32.3811 74.4538 32.3198 74.9138 32.3198C75.3891 32.3198 75.8261 32.3505 76.2248 32.4118C76.6234 32.4731 76.9531 32.5421 77.2138 32.6188C77.4898 32.6955 77.6814 32.7568 77.7888 32.8028C77.7888 32.8028 77.8194 32.7415 77.8808 32.6188C77.9574 32.4808 78.0418 32.3505 78.1338 32.2278L80.2958 32.8028ZM72.6828 40.1168C72.5908 40.6228 72.5754 41.0138 72.6368 41.2898C72.6981 41.5505 72.8361 41.7345 73.0508 41.8418C73.2808 41.9338 73.5798 41.9798 73.9478 41.9798C74.0858 41.9798 74.2238 41.9798 74.3618 41.9798C74.4998 41.9798 74.6378 41.9798 74.7758 41.9798C74.9138 41.9645 75.0518 41.9491 75.1898 41.9338C75.3431 41.9185 75.4964 41.9031 75.6498 41.8878L77.0758 35.1028C76.9684 35.0415 76.8381 34.9878 76.6848 34.9418C76.5314 34.8805 76.3628 34.8268 76.1788 34.7808C76.0101 34.7348 75.8414 34.7041 75.6728 34.6888C75.5194 34.6581 75.3814 34.6428 75.2588 34.6428C75.1361 34.6428 74.9904 34.6505 74.8218 34.6658C74.6684 34.6811 74.5074 34.7348 74.3388 34.8268C74.1701 34.9035 74.0168 35.0261 73.8788 35.1948C73.7408 35.3635 73.6411 35.6011 73.5798 35.9078L72.6828 40.1168ZM88.4412 34.9418C88.1652 34.7885 87.8508 34.6735 87.4982 34.5968C87.1608 34.5048 86.8158 34.4511 86.4632 34.4358C86.0492 34.4358 85.6582 34.5048 85.2902 34.6428C84.9222 34.7655 84.6078 34.9725 84.3472 35.2638C84.0865 35.5398 83.9102 35.9078 83.8182 36.3678L83.0592 39.9788C82.9825 40.3315 82.9748 40.6458 83.0362 40.9218C83.0975 41.1825 83.2125 41.3971 83.3812 41.5658C83.5652 41.7345 83.7952 41.8648 84.0712 41.9568C84.3472 42.0335 84.6615 42.0718 85.0142 42.0718C85.2595 42.0718 85.5048 42.0641 85.7502 42.0488C86.0108 42.0181 86.2408 41.9875 86.4402 41.9568C86.6395 41.9108 86.8005 41.8801 86.9232 41.8648C87.0458 41.8341 87.1072 41.8188 87.1072 41.8188L87.1302 43.8888C86.6242 44.0115 86.1105 44.1111 85.5892 44.1878C85.0678 44.2645 84.5465 44.2951 84.0252 44.2798C83.1512 44.2645 82.4152 44.1035 81.8172 43.7968C81.2192 43.4901 80.8052 43.0225 80.5752 42.3938C80.3452 41.7651 80.3298 40.9678 80.5292 40.0018L81.2652 36.6438C81.4645 35.7545 81.7788 34.9725 82.2082 34.2978C82.6528 33.6231 83.2355 33.1018 83.9562 32.7338C84.6922 32.3658 85.5892 32.1971 86.6472 32.2278C87.1378 32.2431 87.6132 32.3198 88.0732 32.4578C88.5485 32.5958 88.9932 32.7721 89.4072 32.9868L88.4412 34.9418ZM93.8408 40.5998C93.7641 40.9831 93.7411 41.3128 93.7718 41.5888C93.8178 41.8648 93.9251 42.0948 94.0938 42.2788C94.2778 42.4475 94.5308 42.5931 94.8528 42.7158L93.3808 44.4638C92.9515 44.3411 92.5758 44.1801 92.2538 43.9808C91.9471 43.7661 91.7018 43.5131 91.5178 43.2218C91.3338 42.9151 91.2188 42.5701 91.1728 42.1868C91.1268 41.8035 91.1498 41.3895 91.2418 40.9448L92.5298 34.8728H90.3908L90.8968 32.4808H97.8658L97.3598 34.8728H95.0598L93.8408 40.5998ZM104.498 36.5058L105.349 32.5038H107.879L105.441 44.0038H102.911L103.992 38.9208H100.588L99.5069 44.0038H96.9539L99.3919 32.5038H101.945L101.094 36.5058H104.498ZM112.166 32.5038L110.717 39.3348L115.547 32.5038H118.123L115.685 44.0268H113.109L114.535 37.2418L109.728 44.0268H107.198L109.636 32.5038H112.166ZM128.364 32.5038L126.455 41.4738H129.031L127.881 46.8788H125.765L125.903 44.0038H117.416L119.854 32.5038H122.407L120.498 41.4738H123.879L125.788 32.5038H128.364ZM140.626 32.8028C140.473 33.2781 140.343 33.7075 140.235 34.0908C140.143 34.4588 140.067 34.7731 140.005 35.0338L138.119 43.8888C138.119 43.8888 138.012 43.8965 137.797 43.9118C137.598 43.9271 137.322 43.9501 136.969 43.9808C136.632 43.9961 136.249 44.0115 135.819 44.0268C135.405 44.0421 134.984 44.0575 134.554 44.0728C134.14 44.0881 133.757 44.0958 133.404 44.0958C132.699 44.0958 132.124 43.9885 131.679 43.7738C131.25 43.5591 130.928 43.2678 130.713 42.8998C130.499 42.5318 130.376 42.1101 130.345 41.6348C130.33 41.1441 130.376 40.6305 130.483 40.0938L131.403 35.8388C131.541 35.1641 131.733 34.6045 131.978 34.1598C132.239 33.6998 132.53 33.3395 132.852 33.0788C133.19 32.8028 133.558 32.6111 133.956 32.5038C134.355 32.3811 134.784 32.3198 135.244 32.3198C135.72 32.3198 136.157 32.3505 136.555 32.4118C136.954 32.4731 137.284 32.5421 137.544 32.6188C137.82 32.6955 138.012 32.7568 138.119 32.8028C138.119 32.8028 138.15 32.7415 138.211 32.6188C138.288 32.4808 138.372 32.3505 138.464 32.2278L140.626 32.8028ZM133.013 40.1168C132.921 40.6228 132.906 41.0138 132.967 41.2898C133.029 41.5505 133.167 41.7345 133.381 41.8418C133.611 41.9338 133.91 41.9798 134.278 41.9798C134.416 41.9798 134.554 41.9798 134.692 41.9798C134.83 41.9798 134.968 41.9798 135.106 41.9798C135.244 41.9645 135.382 41.9491 135.52 41.9338C135.674 41.9185 135.827 41.9031 135.98 41.8878L137.406 35.1028C137.299 35.0415 137.169 34.9878 137.015 34.9418C136.862 34.8805 136.693 34.8268 136.509 34.7808C136.341 34.7348 136.172 34.7041 136.003 34.6888C135.85 34.6581 135.712 34.6428 135.589 34.6428C135.467 34.6428 135.321 34.6505 135.152 34.6658C134.999 34.6811 134.838 34.7348 134.669 34.8268C134.501 34.9035 134.347 35.0261 134.209 35.1948C134.071 35.3635 133.972 35.6011 133.91 35.9078L133.013 40.1168ZM158.737 32.5038H161.29L158.852 44.0038H146.754L149.192 32.5038H151.745L149.836 41.4738H152.044L153.953 32.5038H156.506L154.597 41.4738H156.828L158.737 32.5038ZM170.012 39.7488C169.736 41.0981 169.161 42.1868 168.287 43.0148C167.429 43.8275 166.294 44.2338 164.883 44.2338C163.871 44.2338 163.089 44.0268 162.537 43.6128C162.001 43.1835 161.656 42.6315 161.502 41.9568C161.349 41.2668 161.349 40.5308 161.502 39.7488L162.169 36.7128C162.384 35.7315 162.721 34.9111 163.181 34.2518C163.657 33.5925 164.247 33.0941 164.952 32.7568C165.673 32.4041 166.501 32.2278 167.436 32.2278C168.77 32.2278 169.721 32.6265 170.288 33.4238C170.856 34.2058 170.986 35.3021 170.679 36.7128L170.012 39.7488ZM168.103 36.5748C168.18 36.2068 168.188 35.8925 168.126 35.6318C168.065 35.3558 167.927 35.1488 167.712 35.0108C167.513 34.8575 167.229 34.7808 166.861 34.7808C166.493 34.7808 166.164 34.8498 165.872 34.9878C165.596 35.1258 165.359 35.3251 165.159 35.5858C164.975 35.8465 164.837 36.1761 164.745 36.5748L164.032 39.9328C163.971 40.2395 163.971 40.5308 164.032 40.8068C164.094 41.0828 164.232 41.3051 164.446 41.4738C164.661 41.6425 164.975 41.7268 165.389 41.7268C165.773 41.7268 166.095 41.6501 166.355 41.4968C166.631 41.3435 166.854 41.1288 167.022 40.8528C167.191 40.5768 167.314 40.2701 167.39 39.9328L168.103 36.5748ZM171.752 48.8108L174.374 44.0038L172.649 32.4808H175.087L176.283 40.5768L180.653 32.4808H183.091L174.236 48.8108H171.752ZM198.071 37.8398L200.233 40.5768L198.232 42.1638L194.851 37.8398L200.072 33.5158L201.406 35.1718L198.071 37.8398ZM192.988 37.8398L195.15 40.5768L193.172 42.1638L189.768 37.8398L195.012 33.5158L196.323 35.1718L192.988 37.8398ZM205.164 34.5278H206.751C207.241 34.5278 207.709 34.4358 208.154 34.2518C208.598 34.0525 208.974 33.7688 209.281 33.4008C209.603 33.0328 209.817 32.5958 209.925 32.0898C210.001 31.7831 210.017 31.5071 209.971 31.2618C209.94 31.0165 209.848 30.8095 209.695 30.6408C209.541 30.4568 209.334 30.3188 209.074 30.2268C208.828 30.1348 208.522 30.0888 208.154 30.0888C207.924 30.0888 207.671 30.1041 207.395 30.1348C207.134 30.1655 206.873 30.2115 206.613 30.2728C206.352 30.3341 206.114 30.4108 205.9 30.5028L205.647 28.4788C206.061 28.2948 206.459 28.1415 206.843 28.0188C207.241 27.8961 207.625 27.8118 207.993 27.7658C208.376 27.7045 208.752 27.6738 209.12 27.6738C209.963 27.6738 210.676 27.8501 211.259 28.2028C211.857 28.5401 212.278 29.0231 212.524 29.6518C212.784 30.2651 212.83 30.9781 212.662 31.7908C212.554 32.2815 212.378 32.7491 212.133 33.1938C211.903 33.6231 211.596 34.0065 211.213 34.3438C210.845 34.6658 210.392 34.9265 209.856 35.1258C210.653 35.4631 211.22 35.9768 211.558 36.6668C211.91 37.3415 211.979 38.1771 211.765 39.1738C211.627 39.8178 211.381 40.4465 211.029 41.0598C210.691 41.6578 210.239 42.2021 209.672 42.6928C209.104 43.1681 208.414 43.5515 207.602 43.8428C206.789 44.1341 205.846 44.2798 204.773 44.2798C204.313 44.2798 203.868 44.2415 203.439 44.1648C203.009 44.0881 202.626 44.0038 202.289 43.9118C201.967 43.8045 201.706 43.7125 201.507 43.6358C201.323 43.5591 201.231 43.5208 201.231 43.5208L202.128 41.1058C202.128 41.1058 202.212 41.1441 202.381 41.2208C202.565 41.2975 202.802 41.3895 203.094 41.4968C203.4 41.5888 203.738 41.6731 204.106 41.7498C204.474 41.8265 204.849 41.8648 205.233 41.8648C205.923 41.8648 206.521 41.7575 207.027 41.5428C207.533 41.3281 207.947 41.0291 208.269 40.6458C208.591 40.2471 208.798 39.8025 208.89 39.3118C208.966 38.9591 208.989 38.6371 208.959 38.3458C208.943 38.0545 208.867 37.8091 208.729 37.6098C208.591 37.3951 208.399 37.2341 208.154 37.1268C207.908 37.0041 207.602 36.9428 207.234 36.9428H205.348L205.164 34.5278ZM220.871 37.6328C221.285 37.9395 221.561 38.3535 221.699 38.8748C221.853 39.3961 221.868 39.9635 221.745 40.5768C221.623 41.1748 221.354 41.7575 220.94 42.3248C220.526 42.8768 219.982 43.3368 219.307 43.7048C218.633 44.0728 217.835 44.2568 216.915 44.2568C216.624 44.2568 216.279 44.2491 215.88 44.2338C215.482 44.2185 215.068 44.1955 214.638 44.1648C214.209 44.1341 213.81 44.1035 213.442 44.0728C213.074 44.0575 212.775 44.0421 212.545 44.0268C212.315 44.0115 212.2 44.0038 212.2 44.0038L214.638 32.4808C214.638 32.4808 214.738 32.4731 214.937 32.4578C215.152 32.4271 215.451 32.3965 215.834 32.3658C216.233 32.3198 216.701 32.2891 217.237 32.2738C217.774 32.2431 218.372 32.2278 219.031 32.2278C219.491 32.2278 219.936 32.2815 220.365 32.3888C220.795 32.4961 221.17 32.6571 221.492 32.8718C221.83 33.0865 222.083 33.3701 222.251 33.7228C222.435 34.0601 222.512 34.4741 222.481 34.9648C222.451 35.4401 222.282 35.9308 221.975 36.4368C221.684 36.9275 221.316 37.3261 220.871 37.6328ZM218.617 34.4588C218.479 34.4588 218.334 34.4588 218.18 34.4588C218.027 34.4588 217.866 34.4665 217.697 34.4818C217.544 34.4818 217.383 34.4895 217.214 34.5048C217.061 34.5048 216.908 34.5048 216.754 34.5048L216.202 37.0578H217.375C217.927 37.0578 218.372 36.9888 218.709 36.8508C219.047 36.7128 219.3 36.5365 219.468 36.3218C219.652 36.1071 219.767 35.8925 219.813 35.6778C219.859 35.4785 219.852 35.3098 219.79 35.1718C219.729 35.0185 219.637 34.8881 219.514 34.7808C219.407 34.6735 219.269 34.5968 219.1 34.5508C218.947 34.4895 218.786 34.4588 218.617 34.4588ZM217.03 41.6578C217.383 41.6578 217.713 41.6195 218.019 41.5428C218.326 41.4661 218.587 41.3435 218.801 41.1748C219.016 40.9908 219.154 40.7531 219.215 40.4618C219.261 40.2778 219.254 40.1091 219.192 39.9558C219.146 39.8025 219.054 39.6798 218.916 39.5878C218.794 39.4805 218.633 39.4038 218.433 39.3578C218.249 39.2965 218.042 39.2658 217.812 39.2658H215.742L215.236 41.6118C215.405 41.6118 215.574 41.6195 215.742 41.6348C215.911 41.6348 216.072 41.6425 216.225 41.6578C216.379 41.6578 216.524 41.6578 216.662 41.6578C216.8 41.6578 216.923 41.6578 217.03 41.6578ZM228.145 28.2718C228.528 28.2718 228.82 28.4098 229.019 28.6858C229.234 28.9465 229.295 29.2608 229.203 29.6288C229.126 30.0121 228.927 30.3418 228.605 30.6178C228.298 30.8785 227.946 31.0088 227.547 31.0088C227.164 31.0088 226.865 30.8785 226.65 30.6178C226.451 30.3418 226.389 30.0121 226.466 29.6288C226.543 29.2608 226.742 28.9465 227.064 28.6858C227.401 28.4098 227.762 28.2718 228.145 28.2718ZM231.779 28.2718C232.178 28.2718 232.477 28.4098 232.676 28.6858C232.891 28.9465 232.96 29.2608 232.883 29.6288C232.806 30.0121 232.599 30.3418 232.262 30.6178C231.94 30.8785 231.587 31.0088 231.204 31.0088C230.821 31.0088 230.522 30.8785 230.307 30.6178C230.108 30.3418 230.046 30.0121 230.123 29.6288C230.2 29.2608 230.399 28.9465 230.721 28.6858C231.043 28.4098 231.396 28.2718 231.779 28.2718ZM225.753 40.5768C225.707 40.7761 225.699 40.9601 225.73 41.1288C225.761 41.2821 225.814 41.4201 225.891 41.5428C225.983 41.6655 226.106 41.7575 226.259 41.8188C226.412 41.8801 226.589 41.9108 226.788 41.9108C227.202 41.9108 227.693 41.8188 228.26 41.6348C228.827 41.4508 229.379 41.2361 229.916 40.9908L230.376 43.1988C229.763 43.5361 229.088 43.8045 228.352 44.0038C227.616 44.2031 226.903 44.3028 226.213 44.3028C225.676 44.3028 225.186 44.2338 224.741 44.0958C224.312 43.9578 223.951 43.7508 223.66 43.4748C223.384 43.1988 223.192 42.8461 223.085 42.4168C222.993 41.9875 223.008 41.4815 223.131 40.8988L224.143 36.1838C224.327 35.3405 224.649 34.6275 225.109 34.0448C225.584 33.4621 226.159 33.0175 226.834 32.7108C227.524 32.4041 228.283 32.2508 229.111 32.2508C229.939 32.2508 230.629 32.3965 231.181 32.6878C231.748 32.9791 232.147 33.4085 232.377 33.9758C232.607 34.5431 232.63 35.2561 232.446 36.1148L231.687 39.7028L225.891 40.0018L225.753 40.5768ZM229.755 36.8048C229.816 36.4828 229.847 36.1531 229.847 35.8158C229.847 35.4785 229.763 35.2025 229.594 34.9878C229.441 34.7578 229.134 34.6581 228.674 34.6888C228.199 34.7041 227.823 34.8038 227.547 34.9878C227.286 35.1565 227.079 35.3941 226.926 35.7008C226.788 35.9921 226.665 36.3525 226.558 36.7818L226.374 37.6788L229.594 37.4718L229.755 36.8048ZM235.387 34.7578L235.939 32.5728C236.415 32.4501 236.859 32.3581 237.273 32.2968C237.687 32.2355 238.101 32.2125 238.515 32.2278C239.267 32.2431 239.849 32.3888 240.263 32.6648C240.693 32.9255 240.984 33.2628 241.137 33.6768C241.291 34.0755 241.352 34.5048 241.321 34.9648C241.306 35.2715 241.222 35.6088 241.068 35.9768C240.915 36.3295 240.716 36.6668 240.47 36.9888C240.225 37.3108 239.934 37.5791 239.596 37.7938C239.949 37.9778 240.233 38.3535 240.447 38.9208C240.662 39.4881 240.693 40.1015 240.539 40.7608C240.401 41.3588 240.125 41.9261 239.711 42.4628C239.313 42.9841 238.784 43.4135 238.124 43.7508C237.465 44.0881 236.675 44.2568 235.755 44.2568C235.05 44.2568 234.383 44.1878 233.754 44.0498C233.126 43.9118 232.535 43.7201 231.983 43.4748L233.156 41.1978C233.371 41.3205 233.616 41.4278 233.892 41.5198C234.168 41.6118 234.467 41.6808 234.789 41.7268C235.111 41.7728 235.433 41.7958 235.755 41.7958C236.154 41.7958 236.499 41.7421 236.79 41.6348C237.097 41.5275 237.35 41.3818 237.549 41.1978C237.749 41.0138 237.887 40.8068 237.963 40.5768C238.025 40.3928 238.048 40.2241 238.032 40.0708C238.032 39.9021 237.986 39.7565 237.894 39.6338C237.818 39.5111 237.695 39.4191 237.526 39.3578C237.373 39.2965 237.181 39.2658 236.951 39.2658H235.249L234.996 37.0578H236.215C236.767 37.0578 237.212 36.9888 237.549 36.8508C237.887 36.7128 238.14 36.5365 238.308 36.3218C238.492 36.1071 238.607 35.8925 238.653 35.6778C238.699 35.4785 238.699 35.3098 238.653 35.1718C238.623 35.0185 238.561 34.8958 238.469 34.8038C238.393 34.6965 238.285 34.6198 238.147 34.5738C238.009 34.5125 237.856 34.4741 237.687 34.4588C237.396 34.4281 237.12 34.4281 236.859 34.4588C236.599 34.4895 236.346 34.5355 236.1 34.5968C235.87 34.6428 235.633 34.6965 235.387 34.7578ZM252.232 41.4968H253.52L252.37 46.9018H250.254L250.392 44.0268H243.4L242.296 46.9018H240.18L241.33 41.4968H242.894L245.677 35.9538C245.861 35.5858 246.076 35.2025 246.321 34.8038C246.582 34.3898 246.881 34.0065 247.218 33.6538C247.571 33.3011 247.993 33.0175 248.483 32.8028C248.989 32.5881 249.587 32.4808 250.277 32.4808H254.141L252.232 41.4968ZM245.539 41.4968H249.679L251.151 34.6428H250.438C250.193 34.6428 249.963 34.6658 249.748 34.7118C249.534 34.7425 249.334 34.8115 249.15 34.9188C248.966 35.0261 248.79 35.1718 248.621 35.3558C248.453 35.5398 248.299 35.7775 248.161 36.0688L245.539 41.4968ZM264.418 44.0038L266.879 32.4808H269.409L266.971 44.0038H264.418ZM260.554 37.0348C261.244 37.0348 261.865 37.1575 262.417 37.4028C262.984 37.6328 263.406 38.0085 263.682 38.5298C263.958 39.0358 264.004 39.7028 263.82 40.5308C263.697 41.1288 263.429 41.7115 263.015 42.2788C262.601 42.8308 262.057 43.2908 261.382 43.6588C260.707 44.0268 259.91 44.2108 258.99 44.2108C258.699 44.2108 258.346 44.2031 257.932 44.1878C257.533 44.1725 257.112 44.1495 256.667 44.1188C256.238 44.0881 255.831 44.0575 255.448 44.0268C255.065 44.0115 254.75 43.9961 254.505 43.9808C254.275 43.9655 254.16 43.9578 254.16 43.9578L256.598 32.5038H259.151L258.185 37.0348H260.554ZM259.105 41.6118C259.458 41.6118 259.772 41.5811 260.048 41.5198C260.339 41.4431 260.585 41.3205 260.784 41.1518C260.983 40.9831 261.114 40.7531 261.175 40.4618C261.221 40.2778 261.221 40.1168 261.175 39.9788C261.129 39.8408 261.045 39.7258 260.922 39.6338C260.815 39.5418 260.669 39.4805 260.485 39.4498C260.301 39.4038 260.094 39.3808 259.864 39.3808H257.702L257.242 41.5658C257.411 41.5658 257.579 41.5735 257.748 41.5888C257.932 41.5888 258.101 41.5965 258.254 41.6118C258.423 41.6118 258.576 41.6118 258.714 41.6118C258.867 41.6118 258.998 41.6118 259.105 41.6118ZM283.874 37.6328C284.288 37.9395 284.564 38.3535 284.702 38.8748C284.856 39.3961 284.871 39.9635 284.748 40.5768C284.626 41.1748 284.357 41.7575 283.943 42.3248C283.529 42.8768 282.985 43.3368 282.31 43.7048C281.636 44.0728 280.838 44.2568 279.918 44.2568C279.627 44.2568 279.282 44.2491 278.883 44.2338C278.485 44.2185 278.071 44.1955 277.641 44.1648C277.212 44.1341 276.813 44.1035 276.445 44.0728C276.077 44.0575 275.778 44.0421 275.548 44.0268C275.318 44.0115 275.203 44.0038 275.203 44.0038L277.641 32.4808C277.641 32.4808 277.741 32.4731 277.94 32.4578C278.155 32.4271 278.454 32.3965 278.837 32.3658C279.236 32.3198 279.704 32.2891 280.24 32.2738C280.777 32.2431 281.375 32.2278 282.034 32.2278C282.494 32.2278 282.939 32.2815 283.368 32.3888C283.798 32.4961 284.173 32.6571 284.495 32.8718C284.833 33.0865 285.086 33.3701 285.254 33.7228C285.438 34.0601 285.515 34.4741 285.484 34.9648C285.454 35.4401 285.285 35.9308 284.978 36.4368C284.687 36.9275 284.319 37.3261 283.874 37.6328ZM281.62 34.4588C281.482 34.4588 281.337 34.4588 281.183 34.4588C281.03 34.4588 280.869 34.4665 280.7 34.4818C280.547 34.4818 280.386 34.4895 280.217 34.5048C280.064 34.5048 279.911 34.5048 279.757 34.5048L279.205 37.0578H280.378C280.93 37.0578 281.375 36.9888 281.712 36.8508C282.05 36.7128 282.303 36.5365 282.471 36.3218C282.655 36.1071 282.77 35.8925 282.816 35.6778C282.862 35.4785 282.855 35.3098 282.793 35.1718C282.732 35.0185 282.64 34.8881 282.517 34.7808C282.41 34.6735 282.272 34.5968 282.103 34.5508C281.95 34.4895 281.789 34.4588 281.62 34.4588ZM280.033 41.6578C280.386 41.6578 280.716 41.6195 281.022 41.5428C281.329 41.4661 281.59 41.3435 281.804 41.1748C282.019 40.9908 282.157 40.7531 282.218 40.4618C282.264 40.2778 282.257 40.1091 282.195 39.9558C282.149 39.8025 282.057 39.6798 281.919 39.5878C281.797 39.4805 281.636 39.4038 281.436 39.3578C281.252 39.2965 281.045 39.2658 280.815 39.2658H278.745L278.239 41.6118C278.408 41.6118 278.577 41.6195 278.745 41.6348C278.914 41.6348 279.075 41.6425 279.228 41.6578C279.382 41.6578 279.527 41.6578 279.665 41.6578C279.803 41.6578 279.926 41.6578 280.033 41.6578ZM303.16 44.0038H300.124L300.101 39.7718H296.398L294.581 44.0038H291.706L299.043 27.9038H302.608L303.16 44.0038ZM297.594 37.0808H300.101L300.078 31.1928L297.594 37.0808ZM305.941 36.7818C306.202 35.6011 306.631 34.6505 307.229 33.9298C307.843 33.2091 308.617 32.7031 309.552 32.4118L310.541 34.3208C310.066 34.4128 309.69 34.5661 309.414 34.7808C309.154 34.9955 308.954 35.2715 308.816 35.6088C308.694 35.9461 308.579 36.3371 308.471 36.7818L307.781 40.0248C307.705 40.4235 307.735 40.7455 307.873 40.9908C308.011 41.2361 308.211 41.4125 308.471 41.5198C308.732 41.6271 308.993 41.6808 309.253 41.6808H309.644L311.07 35.0568C311.178 34.5201 311.4 34.0448 311.737 33.6308C312.075 33.2168 312.496 32.8948 313.002 32.6648C313.524 32.4348 314.099 32.3198 314.727 32.3198C315.601 32.3198 316.314 32.5191 316.866 32.9178C317.434 33.3165 317.817 33.8608 318.016 34.5508C318.231 35.2408 318.239 36.0305 318.039 36.9198L317.464 39.6338C317.265 40.5691 316.943 41.3741 316.498 42.0488C316.054 42.7235 315.471 43.2448 314.75 43.6128C314.045 43.9808 313.202 44.1648 312.22 44.1648H311.668L310.633 48.9948L308.241 48.3738L309.115 44.1648H308.724C307.774 44.1648 307.015 43.9808 306.447 43.6128C305.88 43.2448 305.504 42.7235 305.32 42.0488C305.136 41.3741 305.136 40.5691 305.32 39.6338L305.941 36.7818ZM312.749 41.6808C313.087 41.6808 313.401 41.6118 313.692 41.4738C313.984 41.3358 314.229 41.1441 314.428 40.8988C314.643 40.6535 314.781 40.3621 314.842 40.0248L315.624 36.3678C315.67 36.1531 315.693 35.9308 315.693 35.7008C315.709 35.4555 315.686 35.2331 315.624 35.0338C315.563 34.8191 315.448 34.6505 315.279 34.5278C315.126 34.3898 314.904 34.3208 314.612 34.3208C314.428 34.3208 314.26 34.3591 314.106 34.4358C313.968 34.5125 313.853 34.6198 313.761 34.7578C313.669 34.8958 313.6 35.0568 313.554 35.2408L312.197 41.6808H312.749ZM327.442 40.0708C327.258 41.0061 326.944 41.7958 326.499 42.4398C326.07 43.0838 325.533 43.5745 324.889 43.9118C324.245 44.2338 323.494 44.3948 322.635 44.3948C322.451 44.3948 322.267 44.3795 322.083 44.3488C321.899 44.3181 321.723 44.2798 321.554 44.2338C321.385 44.1878 321.224 44.1265 321.071 44.0498C320.933 43.9885 320.803 43.9195 320.68 43.8428L319.599 48.9718L317.184 48.3968L319.645 36.8278C319.952 35.3711 320.557 34.2595 321.462 33.4928C322.382 32.7108 323.54 32.3198 324.935 32.3198C326.254 32.3198 327.197 32.7185 327.764 33.5158C328.331 34.3131 328.462 35.4171 328.155 36.8278L327.442 40.0708ZM325.648 36.6898C325.725 36.3218 325.725 36.0075 325.648 35.7468C325.571 35.4708 325.418 35.2561 325.188 35.1028C324.958 34.9495 324.659 34.8728 324.291 34.8728C323.938 34.8728 323.616 34.9418 323.325 35.0798C323.034 35.2178 322.796 35.4248 322.612 35.7008C322.428 35.9615 322.29 36.2911 322.198 36.6898L321.301 40.8988C321.255 41.0981 321.278 41.2745 321.37 41.4278C321.477 41.5811 321.623 41.7115 321.807 41.8188C321.991 41.9261 322.183 42.0028 322.382 42.0488C322.597 42.0948 322.796 42.1178 322.98 42.1178C323.317 42.1178 323.609 42.0488 323.854 41.9108C324.115 41.7728 324.329 41.5811 324.498 41.3358C324.667 41.0751 324.782 40.7685 324.843 40.4158L325.648 36.6898ZM333.361 32.5038L331.912 39.3348L336.742 32.5038H339.318L336.88 44.0268H334.304L335.73 37.2418L330.923 44.0268H328.393L330.831 32.5038H333.361ZM346.776 40.3238C346.976 40.7071 347.144 41.0061 347.282 41.2208C347.436 41.4201 347.581 41.5581 347.719 41.6348C347.873 41.7115 348.041 41.7498 348.225 41.7498H348.34L347.788 44.0038H347.443C346.876 44.0038 346.393 43.8811 345.994 43.6358C345.611 43.3905 345.281 43.0685 345.005 42.6698C344.745 42.2711 344.499 41.8495 344.269 41.4048L342.981 38.8978L342.176 39.5188L341.233 44.0038H338.68L341.187 32.2278L343.671 32.5038L342.866 36.3218L347.213 32.4808H350.364L345.166 37.1038L346.776 40.3238ZM352.747 40.5768C352.701 40.7761 352.693 40.9601 352.724 41.1288C352.755 41.2821 352.808 41.4201 352.885 41.5428C352.977 41.6655 353.1 41.7575 353.253 41.8188C353.406 41.8801 353.583 41.9108 353.782 41.9108C354.196 41.9108 354.687 41.8188 355.254 41.6348C355.821 41.4508 356.373 41.2361 356.91 40.9908L357.37 43.1988C356.757 43.5361 356.082 43.8045 355.346 44.0038C354.61 44.2031 353.897 44.3028 353.207 44.3028C352.67 44.3028 352.18 44.2338 351.735 44.0958C351.306 43.9578 350.945 43.7508 350.654 43.4748C350.378 43.1988 350.186 42.8461 350.079 42.4168C349.987 41.9875 350.002 41.4815 350.125 40.8988L351.137 36.1838C351.321 35.3405 351.643 34.6275 352.103 34.0448C352.578 33.4621 353.153 33.0175 353.828 32.7108C354.518 32.4041 355.277 32.2508 356.105 32.2508C356.933 32.2508 357.623 32.3965 358.175 32.6878C358.742 32.9791 359.141 33.4085 359.371 33.9758C359.601 34.5431 359.624 35.2561 359.44 36.1148L358.681 39.7028L352.885 40.0018L352.747 40.5768ZM356.749 36.8048C356.81 36.4828 356.841 36.1531 356.841 35.8158C356.841 35.4785 356.757 35.2025 356.588 34.9878C356.435 34.7578 356.128 34.6581 355.668 34.6888C355.193 34.7041 354.817 34.8038 354.541 34.9878C354.28 35.1565 354.073 35.3941 353.92 35.7008C353.782 35.9921 353.659 36.3525 353.552 36.7818L353.368 37.6788L356.588 37.4718L356.749 36.8048ZM363.299 37.8398L361.114 35.1718L363.115 33.5158L366.519 37.8398L361.298 42.1638L359.987 40.5768L363.299 37.8398ZM368.382 37.8398L366.197 35.1718L368.198 33.5158L371.602 37.8398L366.358 42.1638L365.07 40.5768L368.382 37.8398Z" fill="white"/>
</g>
<defs>
<clipPath id="clip0_395_732">
<rect width="409" height="49" fill="white" transform="translate(0.166748 0.5)"/>
</clipPath>
</defs>
</svg>
